<?xml version="1.0" encoding="UTF-8"?>
<svg width="101px" height="111px" viewBox="0 0 101 111" version="1.1" xmlns="http://www.w3.org/2000/svg" xmlns:xlink="http://www.w3.org/1999/xlink">
    <!-- Generator: Sketch 52.2 (67145) - http://www.bohemiancoding.com/sketch -->
    <title>Documentation@3x</title>
    <desc>Created with Sketch.</desc>
    <defs>
        <polygon id="path-1" points="0 111 101 111 101 0 0 0"></polygon>
    </defs>
    <g id="Page-1" stroke="none" stroke-width="1" fill="none" fill-rule="evenodd">
        <g id="Vue.Search" transform="translate(-156.000000, -5110.000000)">
            <g id="Documentation" transform="translate(55.000000, 5051.000000)">
                <g transform="translate(101.000000, 59.000000)">
                    <rect id="Rectangle-8-Copy-11" fill="#BEFFD2" x="0" y="12" width="88" height="98"></rect>
                    <path d="M22.494855,83.1219017 L22.494855,70.8707842 L27.6884939,70.8707842 C29.3161833,70.8707842 30.352666,71.2291751 30.7904584,71.949614 C31.2319925,72.6700528 31.4565014,74.3598537 31.4565014,77.0146282 C31.4565014,79.5818773 31.2095416,81.242178 30.7193639,81.9918732 C30.2291862,82.7452255 29.1478017,83.1219017 27.4752105,83.1219017 L22.494855,83.1219017 Z M33.7614593,84.0800488 C34.5921422,82.8000813 35,79.9110118 35,75.4201544 C35,72.6700528 34.4873714,70.7464445 33.4583723,69.6456725 C32.4293732,68.5449004 30.6258185,68 28.0551918,68 L19,68 L19,86 L28.1599626,86 C31.0673527,85.996343 32.9307764,85.3563592 33.7614593,84.0800488 Z" id="Fill-1" fill="#102027"></path>
                    <path d="M41.2906236,71.7415636 C41.6968594,71.1628972 43.120619,70.8756007 45.5464269,70.8756007 C47.8909877,70.8756007 49.2760583,71.1451658 49.6977697,71.6876506 C50.1194811,72.230375 50.3322713,73.9809907 50.3322713,76.942373 C50.3322713,79.8968065 50.1078744,81.6651536 49.6629495,82.2510084 C49.2180246,82.8371028 47.8716431,83.1282331 45.6276741,83.1282331 C43.2869822,83.1282331 41.8709604,82.869211 41.3950842,82.3482914 C40.9153391,81.8271322 40.6754665,80.3029512 40.6754665,77.7618509 C40.6793355,74.3257944 40.8805189,72.3240638 41.2906236,71.7415636 M45.2407829,86 C49.0787437,86 51.4968138,85.475007 52.502731,84.421906 C53.5009103,83.3654504 54,80.8133278 54,76.7590687 C54,73.0536867 53.5009103,70.667137 52.5065999,69.5996592 C51.5122895,68.5319418 49.2837961,68 45.8211197,68 C41.9367319,68 39.4915794,68.5391302 38.497269,69.6209848 C37.4990897,70.7028394 37,73.3481716 37,77.5644094 C37,81.108292 37.5068275,83.4011528 38.5243514,84.439877 C39.5457442,85.482435 41.7819754,86 45.2407829,86" id="Fill-3" fill="#102027"></path>
                    <path d="M63.1750421,86 C66.4681414,86 68.5955759,85.6405799 69.5573455,84.9179058 C70.5191152,84.1957109 71,82.6032401 71,80.1414518 L71,79.5340318 L67.3952873,79.5340318 L67.4222169,80.3245164 C67.4222169,81.5000599 67.1606155,82.2584364 66.6258716,82.6070739 C66.0911277,82.9518776 64.9370041,83.1282331 63.1519596,83.1282331 C60.9514306,83.1282331 59.647271,82.8155376 59.2471748,82.1935012 C58.8429751,81.5683497 58.6431835,79.56614 58.6431835,76.1770477 C58.6431835,73.6647009 58.8660575,72.1513026 59.3164222,71.640926 C59.7665304,71.1305494 61.1053138,70.8756007 63.3325158,70.8756007 C64.9983009,70.8756007 66.0641981,71.0373398 66.5296946,71.3605783 C66.9990382,71.6878902 67.2334536,72.4280561 67.2334536,73.5853889 L67.2334536,74.0382583 L70.8422698,74.0382583 L70.8268815,73.6393019 C70.8268815,71.3893319 70.3726697,69.8907895 69.4647592,69.1321734 C68.5609522,68.3776308 66.7566723,68 64.0560231,68 C60.3474393,68 57.911982,68.4600578 56.7465737,69.3804129 C55.5809089,70.3038831 55,72.2234262 55,75.1452723 C55,80.1052702 55.4270257,83.1569867 56.2885149,84.2963486 C57.150517,85.4357104 59.4431193,86 63.1750421,86" id="Fill-5" fill="#102027"></path>
                    <mask id="mask-2" fill="white">
                        <use xlink:href="#path-1"></use>
                    </mask>
                    <g id="Clip-8"></g>
                    <path d="M7.51823731,104.0625 L82.4672944,104.0625 L82.4672944,17.0870625 L7.51823731,17.0870625 L7.51823731,104.0625 Z M89.9855317,104.319187 L101,104.319187 L101,0 L8.28885663,0 L8.28885663,10.1495625 L15.8070939,10.1495625 L15.8070939,6.9375 L93.4817627,6.9375 L93.4817627,97.3816875 L89.9855317,97.3816875 L89.9855317,10.1495625 L0,10.1495625 L0,111 L89.9855317,111 L89.9855317,104.319187 Z" id="Fill-7" fill="#102027" mask="url(#mask-2)"></path>
                </g>
            </g>
        </g>
    </g>
</svg>