<?xml version="1.0" encoding="UTF-8"?>
<svg width="19px" height="19px" viewBox="0 0 19 19" version="1.1" xmlns="http://www.w3.org/2000/svg" xmlns:xlink="http://www.w3.org/1999/xlink">
    <!-- Generator: sketchtool 49.3 (51167) - http://www.bohemiancoding.com/sketch -->
    <title>7905BD50-1B1F-4A61-9CE0-ABBCD14C69C0@3x</title>
    <desc>Created with sketchtool.</desc>
    <defs></defs>
    <g id="Page-1" stroke="none" stroke-width="1" fill="none" fill-rule="evenodd" opacity="0.697916667">
        <g id="Reactive-Maps-Redesign-Page" transform="translate(-1275.000000, -44.000000)" fill="#FFFFFF">
            <g id="Navbar">
                <g id="Support" transform="translate(1259.000000, 31.000000)">
                    <g id="Lifeguard" transform="translate(16.000000, 13.000000)">
                        <polygon id="Fill-1" points="8 1 10 1 10 0 8 0"></polygon>
                        <polygon id="Fill-2" points="8 19 10 19 10 18 8 18"></polygon>
                        <polygon id="Fill-3" points="18 10 19 10 19 8 18 8"></polygon>
                        <polygon id="Fill-4" points="0 10 1 10 1 8 0 8"></polygon>
                        <path d="M12.5482759,16.5930586 L11.962069,15.3034072 L11.4931034,14.1896661 C12.6655172,13.6620326 13.6034483,12.7827248 14.1310345,11.6103143 L15.1862069,12.0793274 L16.5344828,12.6654837 C15.7137443,14.4240994 14.3068966,15.8309919 12.5482759,16.5930586 M2.4068477,12.6654837 L3.75517241,12.0793274 L4.81034483,11.6103143 C5.33788218,12.7827248 6.27586207,13.7206043 7.44827586,14.1896661 L6.97931034,15.3034072 L6.39310345,16.5930586 C4.63448276,15.8309919 3.22758621,14.4240994 2.4068477,12.6654837 M6.33443391,2.46551303 L6.97931034,3.93102606 L7.38960632,4.8689544 C6.21719253,5.39653909 5.22068966,6.39308795 4.75167529,7.56549838 L3.75517241,7.09653421 L2.34827586,6.51032899 C3.11029598,4.69309284 4.57581322,3.22757981 6.33443391,2.46551303 M9.49995115,13.8965635 C7.09650287,13.8965635 5.16202011,11.9620375 5.16202011,9.5585961 C5.16202011,7.15515473 7.09650287,5.22067753 9.49995115,5.22067753 C11.9033994,5.22067753 13.837931,7.15515473 13.837931,9.5585961 C13.837931,11.9034169 11.9033994,13.8965635 9.49995115,13.8965635 M16.5930546,6.51032899 L15.1862069,7.09653421 L14.1896552,7.50687785 C13.6620201,6.27584691 12.7241379,5.33791857 11.5517241,4.81033388 L11.962069,3.87240554 L12.6068477,2.40689251 C14.4241379,3.22757981 15.8309856,4.69309284 16.5930546,6.51032899 M9.49995115,1 C4.81034483,1 1,4.81033388 1,9.49997557 C1,14.1896661 4.81034483,18 9.49995115,18 C14.1896552,18 18,14.1896661 18,9.49997557 C18,4.81033388 14.1896552,1 9.49995115,1" id="Fill-5"></path>
                    </g>
                </g>
            </g>
        </g>
    </g>
</svg>
