<svg xmlns="http://www.w3.org/2000/svg" width="316" height="207" viewBox="0 0 316 207"><path fill="#F3F3F3" d="M24.806 101.743a1.953 1.953 0 0 1-1.953 1.953h-4.631a1.953 1.953 0 0 1-1.953-1.953v-4.634c0-1.077.875-1.951 1.953-1.951h4.631c1.079 0 1.953.874 1.953 1.951v4.634zm0 16.007a1.953 1.953 0 0 1-1.953 1.953h-4.631a1.953 1.953 0 0 1-1.953-1.953v-4.634c0-1.077.875-1.95 1.953-1.95h4.631c1.079 0 1.953.873 1.953 1.95v4.634z"/><path fill="#333" d="M20.201 118.619l-3.032-3.9a.733.733 0 1 1 1.158-.901l2.374 3.055 2.997-5.001a.735.735 0 0 1 1.006-.252.735.735 0 0 1 .252 1.006l-3.548 5.921-1.207.072z"/><path fill="#F3F3F3" d="M24.806 133.758a1.953 1.953 0 0 1-1.953 1.952h-4.631a1.952 1.952 0 0 1-1.953-1.952v-4.635c0-1.077.875-1.95 1.953-1.95h4.631c1.079 0 1.953.873 1.953 1.95v4.635zm0 16.007a1.953 1.953 0 0 1-1.953 1.952h-4.631a1.952 1.952 0 0 1-1.953-1.952v-4.634c0-1.078.875-1.951 1.953-1.951h4.631c1.079 0 1.953.873 1.953 1.951v4.634zm0 16.006a1.954 1.954 0 0 1-1.953 1.953h-4.631a1.953 1.953 0 0 1-1.953-1.953v-4.634c0-1.077.875-1.95 1.953-1.95h4.631c1.079 0 1.953.873 1.953 1.95v4.634z"/><path fill="#333" d="M20.201 166.641l-3.032-3.901a.732.732 0 1 1 1.158-.9l2.374 3.054 2.997-5a.734.734 0 0 1 1.258.754l-3.548 5.921-1.207.072z"/><path fill="#F3F3F3" d="M28.007 96.226h77.261v5.336H28.007zm0 16.006h77.261v5.336H28.007zm0 16.008h77.261v5.336H28.007zm0 16.007h77.261v5.336H28.007zm0 16.007h77.261v5.336H28.007zM11.769 36.108h95.5v14.207h-95.5z"/><path fill="#333" d="M98.578 44.78a2.334 2.334 0 0 1-2.332-2.333 2.333 2.333 0 0 1 4.663 0 2.335 2.335 0 0 1-2.331 2.333zm0-4.008c-.924 0-1.676.752-1.676 1.675 0 .924.752 1.676 1.676 1.676a1.676 1.676 0 0 0 0-3.351z"/><path fill="#333" d="M102.282 46.481a.329.329 0 0 1-.232-.095l-2.171-2.173a.328.328 0 0 1 .464-.464l2.171 2.172a.328.328 0 0 1-.232.56z"/><path opacity=".3" fill="#CDCCCC" d="M213.575 64.178h86.693v5.292h-86.693zm0 7.217h86.693v5.292h-86.693z"/><path fill="#CDCCCC" d="M213.575 54.074h48.11v6.255h-48.11z"/><path opacity=".3" fill="#CDCCCC" d="M180.436 49.156h28.385v28.385h-28.385zm33.139 52.735h86.693v5.292h-86.693zm0 7.216h86.693v5.291h-86.693zm0 29.886h86.693v5.292h-86.693zm0 7.216h86.693v5.291h-86.693z"/><path fill="#CDCCCC" d="M213.575 91.788h48.11v6.254h-48.11z"/><path opacity=".3" fill="#CDCCCC" d="M180.436 86.87h28.385v28.385h-28.385z"/><path fill="#CDCCCC" d="M213.575 129.502h48.11v6.254h-48.11z"/><path opacity=".3" fill="#CDCCCC" d="M180.436 124.582h28.385v28.387h-28.385z"/><path fill="#E6E6E5" d="M149.117 86.427h22.008v2.701h-22.008zM113.04 42.731l28.559 42.825-2.078 1.725-28.56-42.824z"/><path fill="#E6E6E5" d="M139.486 85.611l2.151 1.634-28.562 46.814-2.15-1.634z"/><path fill="#F50057" d="M308.418 162.951H171.574c-.745 0-1.35-.605-1.35-1.351V40.062a1.35 1.35 0 0 1 1.35-1.351h136.844c.745 0 1.35.604 1.35 1.351V161.6c0 .746-.605 1.351-1.35 1.351zm-135.492-2.701h134.141V41.413H172.926V160.25z"/><path fill="#B4B4B4" d="M112.003 55.817H7.168a.9.9 0 0 1-.9-.9V31.51a.9.9 0 0 1 .9-.9h104.834a.9.9 0 0 1 .9.9v23.407a.899.899 0 0 1-.899.9zm-103.934-1.8h103.034V32.41H8.069v21.607zm103.934 123.338H7.168a.9.9 0 0 1-.9-.9V86.427a.9.9 0 0 1 .9-.9h104.834a.9.9 0 0 1 .9.9v90.028a.899.899 0 0 1-.899.9zm-103.934-1.8h103.034V87.327H8.069v88.228z"/><circle fill="#333" cx="140.852" cy="87.771" r="16.8"/><path fill="#E6E6E5" d="M140.608 69.309c-10.197 0-18.462 8.267-18.462 18.463 0 10.195 8.265 18.462 18.462 18.462 10.194 0 18.46-8.267 18.46-18.462 0-10.197-8.266-18.463-18.46-18.463zm-.302 8.791h4.918c.649.19 1.066.645.7 1.402l-4.219 5.63h3.078c.624.005 1.073.819.742 1.347l-6.593 10.548c-.479.75-1.829.334-1.58-.753l2.252-6.744h-3.614c-.59-.001-1.045-.718-.796-1.251l4.396-9.67a.9.9 0 0 1 .716-.509z"/></svg>