<svg xmlns="http://www.w3.org/2000/svg" width="316" height="207" viewBox="0 0 316 207"><path fill="#B4B4B4" d="M289.5 181.5h-152a1 1 0 0 1-1-1V62.982a1 1 0 0 1 1-1h152a1 1 0 0 1 1 1V180.5a1 1 0 0 1-1 1zm-151-2h150V63.982h-150V179.5zm151-126.518h-152a1 1 0 0 1-1-1v-26a1 1 0 0 1 1-1h152a1 1 0 0 1 1 1v26a1 1 0 0 1-1 1zm-151-2h150v-24h-150v24zm-11.5 2H27a1 1 0 0 1-1-1v-26a1 1 0 0 1 1-1h100a1 1 0 0 1 1 1v26a1 1 0 0 1-1 1zm-99-2h98v-24H28v24zm99 93H27a1 1 0 0 1-1-1v-81a1 1 0 0 1 1-1h100a1 1 0 0 1 1 1v81a1 1 0 0 1-1 1zm-99-2h98v-79H28v79z"/><path fill="#F3F3F3" d="M45 73.153a1.83 1.83 0 0 1-1.83 1.83h-4.34a1.83 1.83 0 0 1-1.83-1.83v-4.342c0-1.01.819-1.828 1.83-1.828h4.34c1.011 0 1.83.818 1.83 1.828v4.342zm0 15a1.83 1.83 0 0 1-1.83 1.83h-4.34a1.83 1.83 0 0 1-1.83-1.83v-4.342c0-1.01.819-1.828 1.83-1.828h4.34c1.011 0 1.83.818 1.83 1.828v4.342z"/><path fill="#333" d="M40.685 88.967l-2.841-3.655a.687.687 0 1 1 1.086-.844l2.225 2.862 2.809-4.686a.688.688 0 0 1 1.178.706l-3.325 5.548-1.132.069z"/><path fill="#F3F3F3" d="M45 103.153a1.83 1.83 0 0 1-1.83 1.83h-4.34a1.829 1.829 0 0 1-1.83-1.83v-4.342c0-1.01.819-1.828 1.83-1.828h4.34c1.011 0 1.83.818 1.83 1.828v4.342zm0 14.999c0 1.012-.819 1.83-1.83 1.83h-4.34a1.829 1.829 0 0 1-1.83-1.83v-4.342c0-1.01.819-1.828 1.83-1.828h4.34c1.011 0 1.83.818 1.83 1.828v4.342zm0 15c0 1.012-.819 1.83-1.83 1.83h-4.34a1.829 1.829 0 0 1-1.83-1.83v-4.342c0-1.01.819-1.828 1.83-1.828h4.34c1.011 0 1.83.818 1.83 1.828v4.342z"/><path fill="#333" d="M40.685 133.967l-2.841-3.655a.688.688 0 0 1 1.086-.845l2.225 2.863 2.809-4.687a.687.687 0 0 1 1.178.706l-3.325 5.549-1.132.069z"/><path fill="#F3F3F3" d="M143.5 30.982h141v15h-141zm-108.5 4h84v7H35z"/><path fill="#B4B4B4" d="M127 181.929H27a1 1 0 0 1-1-1v-26a1 1 0 0 1 1-1h100a1 1 0 0 1 1 1v26a1 1 0 0 1-1 1zm-99-2h98v-24H28v24z"/><path fill="#F3F3F3" d="M48 67.982h73v5H48zm0 15h73v5H48zm0 15h73v5H48zm0 15h73v5H48zm0 15h73v5H48z"/><path fill="#333" d="M272.307 40.682a3.274 3.274 0 0 1-3.271-3.272 3.274 3.274 0 0 1 3.271-3.268 3.273 3.273 0 0 1 3.27 3.268 3.275 3.275 0 0 1-3.27 3.272zm0-5.621a2.354 2.354 0 0 0-2.352 2.349 2.354 2.354 0 0 0 2.352 2.351 2.353 2.353 0 0 0 2.35-2.351 2.353 2.353 0 0 0-2.35-2.349z"/><path fill="#333" d="M277.504 43.069a.462.462 0 0 1-.326-.133l-3.045-3.048a.456.456 0 0 1 0-.651.459.459 0 0 1 .65 0l3.046 3.047a.46.46 0 0 1-.325.785z"/><path fill="#CDCCCC" d="M177.958 85.97H280.5v5.023H177.958zm0 6.85H280.5v5.022H177.958z" opacity=".3"/><path fill="#CDCCCC" d="M177.958 76.38h45.667v5.937h-45.667z"/><path fill="#CDCCCC" d="M146.5 71.711h26.944v26.944H146.5zm31.458 50.058H280.5v5.023H177.958zm0 6.85H280.5v5.022H177.958z" opacity=".3"/><path fill="#CDCCCC" d="M177.958 112.179h45.667v5.937h-45.667z"/><path fill="#CDCCCC" d="M146.5 107.51h26.944v26.944H146.5zm31.458 50.057H280.5v5.023H177.958zm0 6.851H280.5v5.022H177.958z" opacity=".3"/><path fill="#CDCCCC" d="M177.958 147.978h45.667v5.937h-45.667z"/><path fill="#CDCCCC" d="M146.5 143.309h26.944v26.944H146.5z" opacity=".3"/><path fill="#F3F3F3" d="M35 167h84v3H35z"/><path fill="#333" d="M51 167h52v3H51z"/><circle fill="#333" cx="51" cy="168.5" r="3"/><circle fill="#333" cx="103" cy="168.5" r="3"/></svg>