<?xml version="1.0" encoding="utf-8"?>
<!-- Generator: Adobe Illustrator 16.0.0, SVG Export Plug-In . SVG Version: 6.00 Build 0)  -->
<!DOCTYPE svg PUBLIC "-//W3C//DTD SVG 1.1//EN" "http://www.w3.org/Graphics/SVG/1.1/DTD/svg11.dtd">
<svg version="1.1" id="Layer_1" xmlns="http://www.w3.org/2000/svg" xmlns:xlink="http://www.w3.org/1999/xlink" x="0px" y="0px"
	 width="59.272px" height="107.036px" viewBox="0 0 59.272 107.036" enable-background="new 0 0 59.272 107.036"
	 xml:space="preserve">
<g>
	<path fill="#FFCC29" d="M3.361,70.106c0,0,10.069,10.671,26.629,2.206c0,0,22.243-4.367,25.478,0.53
		c3.236,4.896-0.455,29.471-21.073,32.917C13.777,109.206,3.852,90.503,2.043,86.202C0.236,81.899,3.361,70.106,3.361,70.106z"/>
	<g>
		<path fill="#FFFFFF" d="M0,78.274c0-11.557,7.053-22.062,17.67-26.507V36.663c-3.732-0.117-6.727-2.662-6.727-5.771
			c0-3.183,3.136-5.771,6.996-5.771h21.646c3.855,0,6.989,2.589,6.989,5.771c0,3.112-2.992,5.654-6.723,5.771v15.105
			c1.354,0.57,2.678,1.255,3.956,2.047c0,0,3.925,2.834,5.037,3.886c1.032,0.977,3.542,4.228,3.542,4.228
			c3.363,4.824,5.135,10.449,5.135,16.347c-0.002,15.858-12.906,28.76-28.763,28.76C12.898,107.036,0,94.133,0,78.274z
			 M43.267,57.544c-1.81-1.268-3.732-2.282-5.715-3.016c-0.668-0.25-1.114-0.887-1.114-1.601V34.959
			c0-0.942,0.766-1.708,1.707-1.708h1.439c1.907,0,3.578-1.102,3.578-2.36c0-1.256-1.674-2.358-3.578-2.358H17.933
			c-1.906,0-3.58,1.102-3.58,2.358c0,1.258,1.676,2.36,3.58,2.36h1.442c0.942,0,1.706,0.766,1.706,1.708v17.966
			c0,0.714-0.444,1.352-1.111,1.602C10.065,58.195,3.411,67.736,3.411,78.273c0,13.979,11.371,25.35,25.349,25.35
			c13.977,0,25.348-11.369,25.35-25.345c0-5.567-1.79-10.855-5.179-15.299C48.479,62.383,45.24,58.786,43.267,57.544z"/>
	</g>
	<g>
		<g>
			<path fill="#FFFFFF" d="M10.977,75.551c-6.799-1.68-8.728-5.79-8.836-6.034c-0.225-0.503-0.041-1.16,0.407-1.467
				c0.448-0.305,0.991-0.148,1.219,0.351c0.061,0.126,3.605,7.237,18.302,5.422c5.634-0.695,9.579-1.93,13.059-3.02
				c6.218-1.946,10.71-3.351,19.746-0.341c0.472,0.156,0.714,0.744,0.538,1.313c-0.173,0.567-0.701,0.906-1.168,0.743
				c-8.573-2.853-12.854-1.513-18.786,0.344c-3.549,1.11-7.569,2.369-13.349,3.083C17.426,76.526,13.785,76.245,10.977,75.551z"/>
		</g>
		<g>
			<path fill="#FFFFFF" d="M21.639,90.583c-2.932,0-5.316-2.385-5.316-5.317c0-2.931,2.385-5.316,5.316-5.316
				s5.318,2.385,5.318,5.316C26.957,88.199,24.57,90.583,21.639,90.583z M21.639,81.355c-2.157,0-3.912,1.754-3.912,3.911
				c0,2.159,1.755,3.913,3.912,3.913s3.914-1.754,3.914-3.913C25.553,83.109,23.796,81.355,21.639,81.355z"/>
		</g>
		<g>
			<path fill="#FFFFFF" d="M30.596,64.073c-1.456,0-2.644-1.186-2.644-2.644c0-1.458,1.188-2.643,2.644-2.643
				c1.458,0,2.644,1.186,2.644,2.643C33.239,62.887,32.054,64.073,30.596,64.073z M30.596,59.485c-1.072,0-1.944,0.873-1.944,1.944
				c0,1.073,0.872,1.947,1.944,1.947c1.074,0,1.944-0.874,1.944-1.947C32.54,60.357,31.67,59.485,30.596,59.485z"/>
		</g>
		<g>
			<path fill="#FFFFFF" d="M32.986,95.629c-1.456,0-2.644-1.185-2.644-2.643c0-1.458,1.188-2.643,2.644-2.643
				c1.459,0,2.646,1.186,2.646,2.643C35.632,94.444,34.445,95.629,32.986,95.629z M32.986,91.041c-1.072,0-1.944,0.873-1.944,1.945
				c0,1.073,0.872,1.946,1.944,1.946c1.075,0,1.946-0.873,1.946-1.946C34.933,91.913,34.062,91.041,32.986,91.041z"/>
		</g>
	</g>
	<circle fill="#FFFFFF" cx="45.179" cy="16.737" r="2.019"/>
	<circle fill="#FFFFFF" cx="57.253" cy="11.854" r="2.02"/>
	<circle fill="#FFFFFF" cx="53.449" cy="23.306" r="2.02"/>
	<path fill="#FFFFFF" d="M29.083,0.026c1.102,0.178,1.851,1.215,1.671,2.316c-0.177,1.101-1.214,1.85-2.313,1.672
		c-1.104-0.177-1.851-1.214-1.674-2.316C26.946,0.597,27.981-0.152,29.083,0.026z"/>
	<circle fill="#FFFFFF" cx="42.812" cy="6.06" r="2.02"/>
	<circle fill="#FFFFFF" cx="30.499" cy="12.608" r="2.02"/>
</g>
</svg>
