<svg xmlns="http://www.w3.org/2000/svg" width="64" height="64" viewBox="0 0 64 64"><g fill="#FFF" fill-rule="evenodd"><path d="M47.789 48.289c-10.935 10.934-28.663 10.934-39.598 0-10.935-10.935-10.935-28.664 0-39.598 10.935-10.935 28.663-10.935 39.598 0 10.935 10.934 10.935 28.663 0 39.598zm-7.071-7.071c7.03-7.03 7.03-18.427 0-25.456-7.03-7.03-18.427-7.03-25.456 0-7.03 7.03-7.03 18.426 0 25.456 7.03 7.029 18.426 7.029 25.456 0z"/><path d="M37.89 45.46l7.778-7.778 18.384 18.385-7.778 7.778z"/></g></svg>