<svg xmlns="http://www.w3.org/2000/svg" width="64" height="64" viewBox="0 0 64 64">
  <g fill="#FFF" fill-rule="evenodd" transform="rotate(-45 28.586 28.257)">
    <path d="M28,56 C12.536027,56 0,43.463973 0,28 C0,12.536027 12.536027,0 28,0 C43.463973,0 56,12.536027 56,28 C56,43.463973 43.463973,56 28,56 Z M28,46 C37.9411255,46 46,37.9411255 46,28 C46,18.0588745 37.9411255,10 28,10 C18.0588745,10 10,18.0588745 10,28 C10,37.9411255 18.0588745,46 28,46 Z"/>
    <rect width="11" height="26" x="23" y="47"/>
  </g>
</svg>
