<?xml version="1.0" encoding="utf-8"?>
<!-- Generator: Adobe Illustrator 15.0.0, SVG Export Plug-In . SVG Version: 6.00 Build 0)  -->
<!DOCTYPE svg PUBLIC "-//W3C//DTD SVG 1.1//EN" "http://www.w3.org/Graphics/SVG/1.1/DTD/svg11.dtd">
<svg version="1.1" id="Layer_1" xmlns="http://www.w3.org/2000/svg" xmlns:xlink="http://www.w3.org/1999/xlink" x="0px" y="0px"
	 width="271.264px" height="184.313px" viewBox="0 0 271.264 184.313" enable-background="new 0 0 271.264 184.313"
	 xml:space="preserve">
<g>
	<g>
		<path fill="#FFFFFF" d="M35.49,90.146c0,7.009-2.775,11.537-8.324,13.582l11.079,15.648H26.226l-9.7-13.959h-6.76v13.959H0V75.624
			h16.588c6.801,0,11.649,1.147,14.551,3.443C34.039,81.361,35.49,85.055,35.49,90.146z M23.724,95.34
			c1.21-1.084,1.813-2.805,1.813-5.162c0-2.359-0.627-3.976-1.877-4.852c-1.252-0.877-3.442-1.314-6.573-1.314H9.766v12.957h7.136
			C20.238,96.969,22.511,96.427,23.724,95.34z"/>
		<path fill="#FFFFFF" d="M73.731,114.493c-3.797,3.589-8.252,5.383-13.361,5.383c-5.112,0-9.34-1.574-12.676-4.727
			c-3.34-3.148-5.008-7.373-5.008-12.673c0-5.299,1.7-9.513,5.104-12.643c3.398-3.131,7.416-4.694,12.048-4.694
			c4.631,0,8.562,1.396,11.798,4.192c3.233,2.797,4.852,6.636,4.852,11.517v5.008H51.951c0.29,1.837,1.25,3.339,2.878,4.505
			c1.629,1.171,3.464,1.751,5.509,1.751c3.295,0,6.008-1.104,8.137-3.314L73.731,114.493z M64.719,94.526
			c-1.294-1.083-2.869-1.626-4.726-1.626c-1.857,0-3.559,0.563-5.104,1.69c-1.543,1.125-2.438,2.649-2.689,4.568h14.771
			C66.763,97.155,66.012,95.611,64.719,94.526z"/>
		<path fill="#FFFFFF" d="M111.85,119.377h-8.826v-4.069c-2.42,3.047-5.414,4.568-8.98,4.568c-3.568,0-6.562-1.033-8.981-3.1
			c-2.421-2.064-3.631-4.819-3.631-8.26c0-3.443,1.253-6.021,3.756-7.729c2.504-1.713,5.924-2.567,10.265-2.567h7.012v-0.187
			c0-3.59-1.901-5.384-5.696-5.384c-1.629,0-3.349,0.324-5.163,0.97c-1.815,0.649-3.35,1.449-4.603,2.411l-4.192-6.072
			c4.422-3.212,9.474-4.818,15.147-4.818c4.089,0,7.427,1.021,10.014,3.066c2.586,2.044,3.882,5.276,3.882,9.702v21.469H111.85z
			 M102.397,106.545v-1.629h-5.885c-3.754,0-5.632,1.168-5.632,3.505c0,1.212,0.448,2.139,1.346,2.787
			c0.896,0.646,2.181,0.97,3.851,0.97c1.669,0,3.14-0.511,4.411-1.532C101.762,109.621,102.397,108.256,102.397,106.545z"/>
		<path fill="#FFFFFF" d="M136.573,111.552c3.129,0,5.944-1.565,8.449-4.694l5.569,6.259c-4.34,4.506-9.032,6.76-14.081,6.76
			c-5.051,0-9.317-1.595-12.801-4.787c-3.485-3.194-5.228-7.363-5.228-12.519c0-5.153,1.763-9.348,5.289-12.582
			c3.526-3.233,7.708-4.849,12.549-4.849c2.421,0,4.873,0.499,7.355,1.501c2.482,1.003,4.663,2.481,6.54,4.444l-4.882,6.383
			c-1.085-1.292-2.411-2.294-3.975-3.002c-1.565-0.709-3.119-1.067-4.663-1.067c-2.465,0-4.58,0.807-6.354,2.412
			c-1.773,1.606-2.66,3.84-2.66,6.697c0,2.856,0.887,5.08,2.66,6.666C132.117,110.759,134.193,111.552,136.573,111.552z"/>
		<path fill="#FFFFFF" d="M168.053,92.461v15.087c0,1.291,0.335,2.304,1.003,3.032c0.666,0.733,1.461,1.098,2.378,1.098
			c1.752,0,3.232-0.793,4.442-2.378l3.506,6.57c-2.921,2.671-5.999,4.006-9.23,4.006c-3.232,0-5.969-1.064-8.199-3.191
			c-2.232-2.129-3.35-5.027-3.35-8.702V92.461h-3.942v-6.76h3.942V75.624h9.45v10.077h8.138v6.76H168.053z"/>
		<path fill="#FFFFFF" d="M185.172,81.413c-1.063-1.063-1.597-2.366-1.597-3.911c0-1.542,0.532-2.847,1.597-3.912
			c1.063-1.064,2.367-1.595,3.912-1.595c1.542,0,2.849,0.53,3.913,1.595c1.062,1.065,1.596,2.37,1.596,3.912
			c0,1.545-0.533,2.848-1.596,3.911c-1.064,1.065-2.371,1.597-3.913,1.597C187.539,83.01,186.236,82.479,185.172,81.413z
			 M193.778,119.377h-9.39V85.701h9.39V119.377z"/>
		<path fill="#FFFFFF" d="M211.741,119.377L198.41,85.639h9.764l8.386,21.219l8.389-21.219h9.764l-13.332,33.738H211.741z"/>
		<path fill="#FFFFFF" d="M268.511,114.493c-3.798,3.589-8.253,5.383-13.364,5.383c-5.109,0-9.334-1.574-12.674-4.727
			c-3.34-3.148-5.008-7.373-5.008-12.673c0-5.299,1.701-9.513,5.102-12.643c3.401-3.131,7.417-4.694,12.049-4.694
			s8.563,1.396,11.8,4.192c3.232,2.797,4.85,6.636,4.85,11.517v5.008H246.73c0.292,1.837,1.253,3.339,2.879,4.505
			c1.627,1.171,3.465,1.751,5.51,1.751c3.295,0,6.008-1.104,8.137-3.314L268.511,114.493z M259.497,94.526
			c-1.295-1.083-2.87-1.626-4.727-1.626c-1.855,0-3.557,0.563-5.101,1.69c-1.543,1.125-2.442,2.649-2.691,4.568h14.772
			C261.541,97.155,260.79,95.611,259.497,94.526z"/>
	</g>
</g>
<g>
	<g>
		<path fill="#FFFFFF" d="M95.058,146.122l-11.386,23.016H78.07l-11.325-23.016v26.506h-9.398v-42.107h12.712l10.844,23.131
			l10.903-23.131h12.651v42.107h-9.398V146.122L95.058,146.122z"/>
		<path fill="#FFFFFF" d="M141.444,172.628h-8.492v-3.915c-2.329,2.933-5.212,4.399-8.646,4.399c-3.434,0-6.315-0.996-8.645-2.985
			c-2.329-1.987-3.494-4.637-3.494-7.949s1.205-5.793,3.613-7.438c2.409-1.648,5.703-2.473,9.881-2.473h6.747v-0.182
			c0-3.453-1.827-5.178-5.481-5.178c-1.565,0-3.224,0.309-4.969,0.932c-1.748,0.623-3.225,1.396-4.43,2.321l-4.035-5.847
			c4.256-3.092,9.115-4.638,14.577-4.638c3.937,0,7.148,0.983,9.64,2.95c2.49,1.968,3.733,5.082,3.733,9.339L141.444,172.628
			L141.444,172.628z M132.348,160.278v-1.564h-5.661c-3.616,0-5.422,1.124-5.422,3.372c0,1.167,0.43,2.06,1.295,2.681
			c0.863,0.625,2.099,0.936,3.704,0.936c1.606,0,3.021-0.49,4.246-1.477C131.736,163.241,132.348,161.927,132.348,160.278z"/>
		<path fill="#FFFFFF" d="M168.554,139.677c3.775,0,7.139,1.576,10.092,4.729c2.951,3.153,4.429,7.118,4.429,11.896
			c0,4.779-1.478,8.777-4.429,11.99c-2.953,3.211-6.406,4.819-10.361,4.819c-3.956,0-7.14-1.588-9.55-4.76v15.961h-9.035v-44.096
			h9.035v3.613C161.505,141.062,164.777,139.677,168.554,139.677z M158.615,156.454c0,2.631,0.73,4.779,2.197,6.445
			s3.242,2.498,5.332,2.498c2.088,0,3.917-0.832,5.482-2.498c1.564-1.666,2.35-3.805,2.35-6.416c0-2.61-0.764-4.799-2.291-6.566
			c-1.525-1.768-3.353-2.65-5.479-2.65c-2.13,0-3.927,0.875-5.394,2.619C159.346,151.636,158.615,153.824,158.615,156.454z"/>
		<path fill="#FFFFFF" d="M213.916,162.537c0,3.194-1.174,5.756-3.523,7.685c-2.35,1.926-5.332,2.891-8.947,2.891
			c-2.405,0-4.92-0.434-7.527-1.297c-2.612-0.862-4.961-2.137-7.048-3.824l3.975-5.662c3.375,2.611,6.967,3.914,10.783,3.914
			c1.165,0,2.088-0.23,2.771-0.691c0.684-0.461,1.024-1.072,1.024-1.837c0-0.762-0.474-1.466-1.415-2.108
			c-0.943-0.644-2.312-1.243-4.097-1.809c-1.788-0.562-3.153-1.044-4.097-1.443c-0.943-0.403-2.02-0.985-3.225-1.75
			c-2.45-1.524-3.674-3.785-3.674-6.775c0-2.991,1.204-5.43,3.614-7.32c2.407-1.886,5.521-2.83,9.337-2.83
			c3.815,0,7.631,1.285,11.447,3.854l-3.376,6.028c-2.812-1.931-5.609-2.896-8.401-2.896s-4.188,0.765-4.188,2.291
			c0,0.843,0.441,1.504,1.325,1.987c0.883,0.479,2.351,1.044,4.399,1.687c2.047,0.642,3.499,1.138,4.365,1.476
			c0.863,0.342,1.898,0.873,3.104,1.598C212.791,157.065,213.916,159.347,213.916,162.537z"/>
	</g>
</g>
<path fill="#FFFFFF" d="M135.916,0c-12.25,0-22.183,9.392-22.183,20.979c0,15.911,22.183,36.477,22.183,36.477
	s22.181-20.565,22.181-36.477C158.097,9.392,148.166,0,135.916,0z M135.916,29.051c-4.505,0-8.158-3.652-8.158-8.158
	c0-4.504,3.653-8.158,8.158-8.158c4.507,0,8.159,3.654,8.159,8.158C144.075,25.398,140.423,29.051,135.916,29.051z"/>
</svg>
