<svg xmlns="http://www.w3.org/2000/svg" width="271.264" height="184.313" viewBox="0 0 271.264 184.313"><path d="M35.49 90.146c0 7.009-2.775 11.537-8.324 13.582l11.079 15.648H26.226l-9.7-13.959h-6.76v13.959H0V75.624h16.588c6.801 0 11.649 1.147 14.551 3.443 2.9 2.294 4.351 5.988 4.351 11.079zM23.724 95.34c1.21-1.084 1.813-2.805 1.813-5.162 0-2.359-.627-3.976-1.877-4.852-1.252-.877-3.442-1.314-6.573-1.314H9.766v12.957h7.136c3.336 0 5.609-.542 6.822-1.629zm50.007 19.153c-3.797 3.589-8.252 5.383-13.361 5.383-5.112 0-9.34-1.574-12.676-4.727-3.34-3.148-5.008-7.373-5.008-12.673 0-5.299 1.7-9.513 5.104-12.643 3.398-3.131 7.416-4.694 12.048-4.694 4.631 0 8.562 1.396 11.798 4.192 3.233 2.797 4.852 6.636 4.852 11.517v5.008H51.951c.29 1.837 1.25 3.339 2.878 4.505 1.629 1.171 3.464 1.751 5.509 1.751 3.295 0 6.008-1.104 8.137-3.314l5.256 5.695zm-9.012-19.967c-1.294-1.083-2.869-1.626-4.726-1.626-1.857 0-3.559.563-5.104 1.69-1.543 1.125-2.438 2.649-2.689 4.568h14.771c-.208-2.003-.959-3.547-2.252-4.632zm47.131 24.851h-8.826v-4.069c-2.42 3.047-5.414 4.568-8.98 4.568-3.568 0-6.562-1.033-8.981-3.1-2.421-2.064-3.631-4.819-3.631-8.26 0-3.443 1.253-6.021 3.756-7.729 2.504-1.713 5.924-2.567 10.265-2.567h7.012v-.187c0-3.59-1.901-5.384-5.696-5.384-1.629 0-3.349.324-5.163.97-1.815.649-3.35 1.449-4.603 2.411l-4.192-6.072c4.422-3.212 9.474-4.818 15.147-4.818 4.089 0 7.427 1.021 10.014 3.066 2.586 2.044 3.882 5.276 3.882 9.702v21.469h-.004zm-9.453-12.832v-1.629h-5.885c-3.754 0-5.632 1.168-5.632 3.505 0 1.212.448 2.139 1.346 2.787.896.646 2.181.97 3.851.97 1.669 0 3.14-.511 4.411-1.532 1.274-1.025 1.909-2.39 1.909-4.101zm34.176 5.007c3.129 0 5.944-1.565 8.449-4.694l5.569 6.259c-4.34 4.506-9.032 6.76-14.081 6.76-5.051 0-9.317-1.595-12.801-4.787-3.485-3.194-5.228-7.363-5.228-12.519 0-5.153 1.763-9.348 5.289-12.582 3.526-3.233 7.708-4.849 12.549-4.849 2.421 0 4.873.499 7.355 1.501a18.59 18.59 0 0 1 6.54 4.444l-4.882 6.383a11.1 11.1 0 0 0-3.975-3.002c-1.565-.709-3.119-1.067-4.663-1.067-2.465 0-4.58.807-6.354 2.412-1.773 1.606-2.66 3.84-2.66 6.697 0 2.856.887 5.08 2.66 6.666 1.777 1.585 3.853 2.378 6.233 2.378zm31.48-19.091v15.087c0 1.291.335 2.304 1.003 3.032.666.733 1.461 1.098 2.378 1.098 1.752 0 3.232-.793 4.442-2.378l3.506 6.57c-2.921 2.671-5.999 4.006-9.23 4.006-3.232 0-5.969-1.064-8.199-3.191-2.232-2.129-3.35-5.027-3.35-8.702V92.461h-3.942v-6.76h3.942V75.624h9.45v10.077h8.138v6.76h-8.138zm17.119-11.048c-1.063-1.063-1.597-2.366-1.597-3.911 0-1.542.532-2.847 1.597-3.912 1.063-1.064 2.367-1.595 3.912-1.595 1.542 0 2.849.53 3.913 1.595 1.062 1.065 1.596 2.37 1.596 3.912 0 1.545-.533 2.848-1.596 3.911-1.064 1.065-2.371 1.597-3.913 1.597-1.545 0-2.848-.531-3.912-1.597zm8.606 37.964h-9.39V85.701h9.39v33.676zm17.963 0L198.41 85.639h9.764l8.386 21.219 8.389-21.219h9.764l-13.332 33.738h-9.64zm56.77-4.884c-3.798 3.589-8.253 5.383-13.364 5.383-5.109 0-9.334-1.574-12.674-4.727-3.34-3.148-5.008-7.373-5.008-12.673 0-5.299 1.701-9.513 5.102-12.643 3.401-3.131 7.417-4.694 12.049-4.694s8.563 1.396 11.8 4.192c3.232 2.797 4.85 6.636 4.85 11.517v5.008H246.73c.292 1.837 1.253 3.339 2.879 4.505 1.627 1.171 3.465 1.751 5.51 1.751 3.295 0 6.008-1.104 8.137-3.314l5.255 5.695zm-9.014-19.967c-1.295-1.083-2.87-1.626-4.727-1.626-1.855 0-3.557.563-5.101 1.69-1.543 1.125-2.442 2.649-2.691 4.568h14.772c-.209-2.003-.96-3.547-2.253-4.632zM95.058 146.122l-11.386 23.016H78.07l-11.325-23.016v26.506h-9.398v-42.107h12.712l10.844 23.131 10.903-23.131h12.651v42.107h-9.398v-26.506h-.001zm46.386 26.506h-8.492v-3.915c-2.329 2.933-5.212 4.399-8.646 4.399-3.434 0-6.315-.996-8.645-2.985-2.329-1.987-3.494-4.637-3.494-7.949s1.205-5.793 3.613-7.438c2.409-1.648 5.703-2.473 9.881-2.473h6.747v-.182c0-3.453-1.827-5.178-5.481-5.178-1.565 0-3.224.309-4.969.932-1.748.623-3.225 1.396-4.43 2.321l-4.035-5.847c4.256-3.092 9.115-4.638 14.577-4.638 3.937 0 7.148.983 9.64 2.95 2.49 1.968 3.733 5.082 3.733 9.339l.001 20.664zm-9.096-12.35v-1.564h-5.661c-3.616 0-5.422 1.124-5.422 3.372 0 1.167.43 2.06 1.295 2.681.863.625 2.099.936 3.704.936 1.606 0 3.021-.49 4.246-1.477 1.226-.985 1.838-2.299 1.838-3.948zm36.206-20.601c3.775 0 7.139 1.576 10.092 4.729 2.951 3.153 4.429 7.118 4.429 11.896 0 4.779-1.478 8.777-4.429 11.99-2.953 3.211-6.406 4.819-10.361 4.819-3.956 0-7.14-1.588-9.55-4.76v15.961H149.7v-44.096h9.035v3.613c2.77-2.767 6.042-4.152 9.819-4.152zm-9.939 16.777c0 2.631.73 4.779 2.197 6.445s3.242 2.498 5.332 2.498c2.088 0 3.917-.832 5.482-2.498 1.564-1.666 2.35-3.805 2.35-6.416 0-2.61-.764-4.799-2.291-6.566-1.525-1.768-3.353-2.65-5.479-2.65-2.13 0-3.927.875-5.394 2.619-1.466 1.75-2.197 3.938-2.197 6.568zm55.301 6.083c0 3.194-1.174 5.756-3.523 7.685-2.35 1.926-5.332 2.891-8.947 2.891-2.405 0-4.92-.434-7.527-1.297a22.152 22.152 0 0 1-7.048-3.824l3.975-5.662c3.375 2.611 6.967 3.914 10.783 3.914 1.165 0 2.088-.23 2.771-.691.684-.461 1.024-1.072 1.024-1.837 0-.762-.474-1.466-1.415-2.108-.943-.644-2.312-1.243-4.097-1.809-1.788-.562-3.153-1.044-4.097-1.443-.943-.403-2.02-.985-3.225-1.75-2.45-1.524-3.674-3.785-3.674-6.775 0-2.991 1.204-5.43 3.614-7.32 2.407-1.886 5.521-2.83 9.337-2.83 3.815 0 7.631 1.285 11.447 3.854l-3.376 6.028c-2.812-1.931-5.609-2.896-8.401-2.896s-4.188.765-4.188 2.291c0 .843.441 1.504 1.325 1.987.883.479 2.351 1.044 4.399 1.687 2.047.642 3.499 1.138 4.365 1.476.863.342 1.898.873 3.104 1.598 2.249 1.359 3.374 3.641 3.374 6.831zM135.916 0c-12.25 0-22.183 9.392-22.183 20.979 0 15.911 22.183 36.477 22.183 36.477s22.181-20.565 22.181-36.477C158.097 9.392 148.166 0 135.916 0zm0 29.051a8.158 8.158 0 0 1 0-16.316 8.159 8.159 0 1 1 0 16.316z" fill="#FFF"/></svg>