<?xml version="1.0" encoding="UTF-8"?>
<svg width="80px" height="78px" viewBox="0 0 80 78" version="1.1" xmlns="http://www.w3.org/2000/svg" xmlns:xlink="http://www.w3.org/1999/xlink">
    <!-- Generator: sketchtool 52.4 (67378) - http://www.bohemiancoding.com/sketch -->
    <title>F5CEC111-951F-4814-887A-FFDD4BB475BE@3x</title>
    <desc>Created with sketchtool.</desc>
    <defs>
        <linearGradient x1="50%" y1="0%" x2="50%" y2="97.0420882%" id="linearGradient-1">
            <stop stop-color="#417080" offset="0%"></stop>
            <stop stop-color="#03151B" offset="100%"></stop>
        </linearGradient>
        <circle id="path-2" cx="17.5" cy="17.5" r="17.5"></circle>
        <filter x="-20.0%" y="-14.3%" width="140.0%" height="140.0%" filterUnits="objectBoundingBox" id="filter-3">
            <feOffset dx="0" dy="2" in="SourceAlpha" result="shadowOffsetOuter1"></feOffset>
            <feGaussianBlur stdDeviation="2" in="shadowOffsetOuter1" result="shadowBlurOuter1"></feGaussianBlur>
            <feColorMatrix values="0 0 0 0 0   0 0 0 0 0   0 0 0 0 0  0 0 0 0.302055027 0" type="matrix" in="shadowBlurOuter1"></feColorMatrix>
        </filter>
        <path d="M17.7167095,0.0593076737 C16.4600953,0.064348826 14.8574548,0.869005689 13.2425428,2.28668149 C13.0284165,2.47498336 12.819287,2.66854878 12.6150807,2.86760016 C12.4779635,2.73556645 12.3387888,2.60575678 12.1974096,2.47876422 C9.92093992,0.439395727 7.63925307,-0.419379388 6.26947674,0.380310458 C4.95547319,1.14745522 4.56682736,3.42598191 5.11963178,6.27667938 C5.17444929,6.55905804 5.23646802,6.83965747 5.3056145,7.11899661 C4.98295543,7.21151658 4.67117167,7.31011559 4.37290859,7.41523844 C1.70426599,8.35355997 0,9.82476095 0,11.3508215 C0,12.926923 1.8293322,14.507769 4.60915294,15.466181 C4.83459545,15.5436517 5.06180152,15.6152657 5.29084464,15.6812455 C5.21648094,15.9819354 5.15020026,16.2847752 5.0927374,16.5891718 C4.56557817,19.3901991 4.97722384,21.6146075 6.28747981,22.3772301 C7.64072271,23.1644653 9.91197513,22.3552121 12.1237807,20.4048051 C12.2985942,20.2508276 12.4745099,20.0873608 12.6497642,19.9157392 C12.8709448,20.1313226 13.0982978,20.340308 13.3310885,20.5428437 C14.9078634,21.9118131 16.4705297,22.6799958 17.7076712,22.6851852 L17.7327285,22.6851852 C18.1664188,22.683406 18.5594735,22.587031 18.8985191,22.3890916 C20.2504393,21.5994099 20.6895672,19.2101262 20.1192741,16.3027157 C20.0756258,16.0812757 20.0250703,15.8542756 19.9680483,15.6231981 C20.1277245,15.5754554 20.2843144,15.5264524 20.4368629,15.475522 C23.3267595,14.5097706 25.2065738,12.9479031 25.2065738,11.3508215 C25.2065738,9.81934913 23.4476373,8.33858479 20.724912,7.39270153 C20.456556,7.30003328 20.1859956,7.21381475 19.9135982,7.13486141 C19.9584956,6.94915426 20.0003068,6.76344711 20.0388849,6.57640553 C20.6534141,3.56817205 20.251615,1.14500878 18.8802221,0.347320564 C18.5491126,0.154644759 18.1647287,0.0610869039 17.740738,0.0593076737 L17.7167095,0.0593076737 Z M15.5007154,6.32545994 C14.8080749,5.33064785 14.0903036,4.42583515 13.3699604,3.64267732 C13.5588824,3.45912007 13.7521399,3.28038157 13.9496592,3.10646181 C15.8103682,1.47238713 17.549832,0.827119644 18.3423345,1.28808854 C19.1864947,1.77967502 19.5145914,3.76003238 18.9841255,6.35741195 C18.9496625,6.52651295 18.9116723,6.69509501 18.8708899,6.8628616 C17.8249483,6.61940359 16.6895793,6.43829279 15.5007154,6.32545994 Z M6.17637516,6.06813877 C5.70241683,3.62555223 6.01721334,1.78323348 6.80883398,1.32063362 C7.6521124,0.828157528 9.51678941,1.53065692 11.4822836,3.29090868 C11.6078642,3.40366739 11.7341796,3.52139313 11.8604215,3.64341866 C11.1283212,4.43651053 10.4044509,5.34006294 9.71313307,6.32412551 C8.52772287,6.4348826 7.39279474,6.61310215 6.34957203,6.851519 C6.28527536,6.59175139 6.22759205,6.33027869 6.17637516,6.06813877 Z M12.6152277,4.41945957 C13.1116715,4.96242133 13.6093645,5.56854575 14.098754,6.22611958 C13.1061604,6.17904412 12.1120236,6.17859931 11.1195769,6.22545237 C11.6094073,5.57410585 12.1108479,4.96864863 12.6152277,4.41945957 Z M10.320902,15.3973841 C9.88596253,14.7559716 9.47483123,14.0983978 9.0890512,13.4259229 C8.70503472,12.7569323 8.34651647,12.0734114 8.01393734,11.3769169 C8.34548773,10.6803483 8.70312419,9.99645667 9.08603844,9.3270213 C9.08603844,9.3270213 9.87626292,8.00231028 10.3081161,7.3637149 C11.0577786,7.30677953 11.8263259,7.27697743 12.6034706,7.27697743 C13.3839955,7.27697743 14.1534981,7.30700194 14.9030136,7.36438211 C15.3303109,8.00231028 15.7354901,8.65439815 16.1175226,9.320794 C16.5015391,9.98904321 16.8638049,10.6696729 17.2039527,11.361571 C16.8674055,12.0603637 16.5061684,12.7470724 16.1211232,13.4197697 L16.1209763,13.4197697 C15.7391642,14.0892051 15.3357485,14.7456669 14.9113905,15.3883397 C14.1636386,15.4424579 13.3907558,15.4701843 12.6034706,15.4701843 C11.8190512,15.4701843 11.0558681,15.4454975 10.320902,15.3973841 Z M6.64063388,7.89889252 C7.35958091,7.73653776 8.12665859,7.60368857 8.92562742,7.5030138 C8.65822674,7.92365347 8.40067264,8.35111353 8.15289163,8.78420782 C7.90547804,9.21722797 7.66827842,9.65551168 7.44136628,10.0992072 C7.12789244,9.34881687 6.8595365,8.61110355 6.64063388,7.89889252 Z M17.0494202,8.77664609 C16.8028149,8.34733267 16.5473183,7.9232828 16.2830039,7.50508957 C17.0871164,7.60724703 17.8577213,7.74350641 18.5812242,7.91016098 C18.3641586,8.61280864 18.0932308,9.34733418 17.7743193,10.1000227 C17.5413816,9.65402899 17.2995526,9.21315057 17.0494202,8.77664609 Z M4.9574572,14.4383049 C3.72847222,14.0144774 2.71317264,13.4632867 2.01759286,12.8626483 C1.39233527,12.3225778 1.07665698,11.7859175 1.07665698,11.3508215 C1.07665698,10.4248063 2.44496366,9.24376816 4.72738534,8.44096466 C5.01396479,8.34058642 5.3031896,8.24880779 5.59498627,8.16548051 C5.91073805,9.20069596 6.32429425,10.2827645 6.82345688,11.376991 C6.31775436,12.4881203 5.8979522,13.5874622 5.57977552,14.6346133 C5.37049903,14.574416 5.16328004,14.5089552 4.9574572,14.4383049 Z M18.3984746,11.3563816 C18.900944,10.2637119 19.3146471,9.19365317 19.6252552,8.18164185 C19.8830297,8.257185 20.1333826,8.33613834 20.3744033,8.42020697 C22.7072335,9.23012739 24.1298433,10.4277717 24.1298433,11.3508215 C24.1298433,12.3339204 22.5931161,13.6101474 20.0983317,14.4441615 L20.0981848,14.4441615 C19.9604062,14.4902732 19.81888,14.5349023 19.6749289,14.5780486 C19.35565,13.5590686 18.9251195,12.4755174 18.3984746,11.3563816 Z M17.0536822,13.9625832 C17.3072682,13.5193325 17.5509343,13.0697803 17.7847537,12.6152611 C18.1215213,13.3899676 18.4059698,14.1396908 18.6312653,14.8524949 C17.9002673,15.0206321 17.1110715,15.1563725 16.2799911,15.2567508 C16.5464365,14.8306252 16.8042846,14.3993842 17.0536822,13.9625832 Z M6.62557009,14.8993479 C6.8481468,14.1744599 7.12230782,13.4207335 7.44224806,12.6544042 C7.67055636,13.0986187 7.90863776,13.5373472 8.15730055,13.9699967 C8.41066618,14.4118388 8.67446625,14.847602 8.94870074,15.2760999 C8.12320494,15.1834317 7.34437016,15.0573287 6.62557009,14.8993479 Z M14.0336491,19.7193567 C13.8236378,19.5371339 13.6119364,19.3425306 13.3997206,19.1365847 C14.1098498,18.3526114 14.819832,17.4415714 15.5126195,16.4297083 C16.7311701,16.3205822 17.8821907,16.141992 18.9264422,15.8986081 C18.9777326,16.1081124 19.0238792,16.3130946 19.0631185,16.5137769 C19.3151615,17.7991966 19.3512411,18.9614788 19.1840698,19.870443 C19.0336523,20.6863683 18.732156,21.2310352 18.3587209,21.4489909 C18.1845688,21.5507777 17.9669154,21.6011892 17.7139172,21.6011892 C16.8130289,21.6011892 15.4639745,20.9612594 14.0336491,19.7193567 Z M6.8258083,21.4359432 C6.03051357,20.9732692 5.69999193,19.1872186 6.15065649,16.791411 C6.20422481,16.5085875 6.26580265,16.2270243 6.33480216,15.9473145 C7.36744348,16.1776507 8.51016069,16.3434898 9.73179748,16.4433491 C10.4292878,17.4334907 11.1596245,18.3434187 11.895105,19.1402914 C11.7391764,19.2933052 11.5788388,19.441945 11.4149742,19.5865816 C10.4370034,20.4494342 9.45690165,21.0610445 8.59348918,21.3688514 L8.59334222,21.3688514 C8.17559755,21.5176395 7.80370559,21.5887346 7.49111353,21.5887346 C7.22283107,21.5887346 6.99827035,21.5363955 6.8258083,21.4359432 Z M14.1247666,16.5223024 C13.6339075,17.1955928 13.1383454,17.8105392 12.6453553,18.3590611 C12.134509,17.8031258 11.6259407,17.1887724 11.1285417,16.5277884 C11.6110239,16.5466186 12.1031323,16.5564043 12.6034706,16.5564043 C13.1172561,16.5564043 13.6248692,16.5446911 14.1247666,16.5223024 Z" id="path-4"></path>
        <path d="M0.0635185185,2.27664128 C0.0635185185,3.51474014 1.0512963,4.51859618 2.26981481,4.51859618 C3.48804527,4.51859618 4.47553498,3.51474014 4.47553498,2.27664128 C4.47553498,1.03876195 3.48804527,0.035125448 2.26981481,0.035125448 C1.0512963,0.035125448 0.0635185185,1.03876195 0.0635185185,2.27664128" id="path-6"></path>
    </defs>
    <g id="Page-1" stroke="none" stroke-width="1" fill="none" fill-rule="evenodd">
        <g id="Vue.Search" transform="translate(-286.000000, -2906.000000)">
            <g id="Reactive-Search" transform="translate(286.000000, 2908.000000)">
                <g id="Reactive-Icon-Copy" transform="translate(0.000000, 16.000000)">
                    <rect id="Rectangle-25" fill="#FF307A" x="0" y="0" width="60" height="60" rx="2"></rect>
                    <g id="log" transform="translate(12.000000, 12.000000)" fill="#FFFFFF" stroke="#FFFFFF" stroke-width="0.5">
                        <path d="M10.669165,-0.000229007634 L10.669165,2.28984733 L11.9946889,2.28984733 L11.9946889,14.0001527 L0,37.44 L37.44,37.44 L25.7038263,14.010458 L25.7038263,2.28984733 L27.1060752,2.28984733 L27.1060752,-0.000229007634 L10.669165,-0.000229007634 Z M14.2987456,14.549084 L14.2987456,2.28984733 L23.3997696,2.28984733 L23.3997696,5.03816794 L21.4982316,5.03816794 L21.4982316,6.41198473 L23.3997696,6.41198473 L23.3997696,9.16030534 L21.4982316,9.16030534 L21.4982316,10.5341221 L23.3997696,10.5341221 L23.3997696,13.2824427 L21.4982316,13.2824427 L21.4982316,14.6562595 L23.4534541,14.6562595 L24.830128,17.4045802 L21.4927019,17.4045802 L21.4927019,18.7783969 L25.5183497,18.7783969 L33.718718,35.1499237 L3.75676447,35.1499237 L14.2987456,14.549084 Z" id="Page-1"></path>
                    </g>
                    <polygon id="Path-5" fill="#FFFFFF" points="20.1137787 35.7732146 39.4290525 33 47 48 14 48"></polygon>
                </g>
                <g id="React" transform="translate(41.000000, 0.000000)">
                    <g id="Oval-Copy" fill-rule="nonzero">
                        <use fill="black" fill-opacity="1" filter="url(#filter-3)" xlink:href="#path-2"></use>
                        <use fill="url(#linearGradient-1)" xlink:href="#path-2"></use>
                    </g>
                    <g id="Group-7" transform="translate(5.185185, 6.481481)">
                        <g id="Group-3">
                            <mask id="mask-5" fill="white">
                                <use xlink:href="#path-4"></use>
                            </mask>
                            <g id="Clip-2"></g>
                            <path d="M17.7167095,0.0593076737 C16.4600953,0.064348826 14.8574548,0.869005689 13.2425428,2.28668149 C13.0284165,2.47498336 12.819287,2.66854878 12.6150807,2.86760016 C12.4779635,2.73556645 12.3387888,2.60575678 12.1974096,2.47876422 C9.92093992,0.439395727 7.63925307,-0.419379388 6.26947674,0.380310458 C4.95547319,1.14745522 4.56682736,3.42598191 5.11963178,6.27667938 C5.17444929,6.55905804 5.23646802,6.83965747 5.3056145,7.11899661 C4.98295543,7.21151658 4.67117167,7.31011559 4.37290859,7.41523844 C1.70426599,8.35355997 0,9.82476095 0,11.3508215 C0,12.926923 1.8293322,14.507769 4.60915294,15.466181 C4.83459545,15.5436517 5.06180152,15.6152657 5.29084464,15.6812455 C5.21648094,15.9819354 5.15020026,16.2847752 5.0927374,16.5891718 C4.56557817,19.3901991 4.97722384,21.6146075 6.28747981,22.3772301 C7.64072271,23.1644653 9.91197513,22.3552121 12.1237807,20.4048051 C12.2985942,20.2508276 12.4745099,20.0873608 12.6497642,19.9157392 C12.8709448,20.1313226 13.0982978,20.340308 13.3310885,20.5428437 C14.9078634,21.9118131 16.4705297,22.6799958 17.7076712,22.6851852 L17.7327285,22.6851852 C18.1664188,22.683406 18.5594735,22.587031 18.8985191,22.3890916 C20.2504393,21.5994099 20.6895672,19.2101262 20.1192741,16.3027157 C20.0756258,16.0812757 20.0250703,15.8542756 19.9680483,15.6231981 C20.1277245,15.5754554 20.2843144,15.5264524 20.4368629,15.475522 C23.3267595,14.5097706 25.2065738,12.9479031 25.2065738,11.3508215 C25.2065738,9.81934913 23.4476373,8.33858479 20.724912,7.39270153 C20.456556,7.30003328 20.1859956,7.21381475 19.9135982,7.13486141 C19.9584956,6.94915426 20.0003068,6.76344711 20.0388849,6.57640553 C20.6534141,3.56817205 20.251615,1.14500878 18.8802221,0.347320564 C18.5491126,0.154644759 18.1647287,0.0610869039 17.740738,0.0593076737 L17.7167095,0.0593076737 Z M15.5007154,6.32545994 C14.8080749,5.33064785 14.0903036,4.42583515 13.3699604,3.64267732 C13.5588824,3.45912007 13.7521399,3.28038157 13.9496592,3.10646181 C15.8103682,1.47238713 17.549832,0.827119644 18.3423345,1.28808854 C19.1864947,1.77967502 19.5145914,3.76003238 18.9841255,6.35741195 C18.9496625,6.52651295 18.9116723,6.69509501 18.8708899,6.8628616 C17.8249483,6.61940359 16.6895793,6.43829279 15.5007154,6.32545994 Z M6.17637516,6.06813877 C5.70241683,3.62555223 6.01721334,1.78323348 6.80883398,1.32063362 C7.6521124,0.828157528 9.51678941,1.53065692 11.4822836,3.29090868 C11.6078642,3.40366739 11.7341796,3.52139313 11.8604215,3.64341866 C11.1283212,4.43651053 10.4044509,5.34006294 9.71313307,6.32412551 C8.52772287,6.4348826 7.39279474,6.61310215 6.34957203,6.851519 C6.28527536,6.59175139 6.22759205,6.33027869 6.17637516,6.06813877 Z M12.6152277,4.41945957 C13.1116715,4.96242133 13.6093645,5.56854575 14.098754,6.22611958 C13.1061604,6.17904412 12.1120236,6.17859931 11.1195769,6.22545237 C11.6094073,5.57410585 12.1108479,4.96864863 12.6152277,4.41945957 Z M10.320902,15.3973841 C9.88596253,14.7559716 9.47483123,14.0983978 9.0890512,13.4259229 C8.70503472,12.7569323 8.34651647,12.0734114 8.01393734,11.3769169 C8.34548773,10.6803483 8.70312419,9.99645667 9.08603844,9.3270213 C9.08603844,9.3270213 9.87626292,8.00231028 10.3081161,7.3637149 C11.0577786,7.30677953 11.8263259,7.27697743 12.6034706,7.27697743 C13.3839955,7.27697743 14.1534981,7.30700194 14.9030136,7.36438211 C15.3303109,8.00231028 15.7354901,8.65439815 16.1175226,9.320794 C16.5015391,9.98904321 16.8638049,10.6696729 17.2039527,11.361571 C16.8674055,12.0603637 16.5061684,12.7470724 16.1211232,13.4197697 L16.1209763,13.4197697 C15.7391642,14.0892051 15.3357485,14.7456669 14.9113905,15.3883397 C14.1636386,15.4424579 13.3907558,15.4701843 12.6034706,15.4701843 C11.8190512,15.4701843 11.0558681,15.4454975 10.320902,15.3973841 Z M6.64063388,7.89889252 C7.35958091,7.73653776 8.12665859,7.60368857 8.92562742,7.5030138 C8.65822674,7.92365347 8.40067264,8.35111353 8.15289163,8.78420782 C7.90547804,9.21722797 7.66827842,9.65551168 7.44136628,10.0992072 C7.12789244,9.34881687 6.8595365,8.61110355 6.64063388,7.89889252 Z M17.0494202,8.77664609 C16.8028149,8.34733267 16.5473183,7.9232828 16.2830039,7.50508957 C17.0871164,7.60724703 17.8577213,7.74350641 18.5812242,7.91016098 C18.3641586,8.61280864 18.0932308,9.34733418 17.7743193,10.1000227 C17.5413816,9.65402899 17.2995526,9.21315057 17.0494202,8.77664609 Z M4.9574572,14.4383049 C3.72847222,14.0144774 2.71317264,13.4632867 2.01759286,12.8626483 C1.39233527,12.3225778 1.07665698,11.7859175 1.07665698,11.3508215 C1.07665698,10.4248063 2.44496366,9.24376816 4.72738534,8.44096466 C5.01396479,8.34058642 5.3031896,8.24880779 5.59498627,8.16548051 C5.91073805,9.20069596 6.32429425,10.2827645 6.82345688,11.376991 C6.31775436,12.4881203 5.8979522,13.5874622 5.57977552,14.6346133 C5.37049903,14.574416 5.16328004,14.5089552 4.9574572,14.4383049 Z M18.3984746,11.3563816 C18.900944,10.2637119 19.3146471,9.19365317 19.6252552,8.18164185 C19.8830297,8.257185 20.1333826,8.33613834 20.3744033,8.42020697 C22.7072335,9.23012739 24.1298433,10.4277717 24.1298433,11.3508215 C24.1298433,12.3339204 22.5931161,13.6101474 20.0983317,14.4441615 L20.0981848,14.4441615 C19.9604062,14.4902732 19.81888,14.5349023 19.6749289,14.5780486 C19.35565,13.5590686 18.9251195,12.4755174 18.3984746,11.3563816 Z M17.0536822,13.9625832 C17.3072682,13.5193325 17.5509343,13.0697803 17.7847537,12.6152611 C18.1215213,13.3899676 18.4059698,14.1396908 18.6312653,14.8524949 C17.9002673,15.0206321 17.1110715,15.1563725 16.2799911,15.2567508 C16.5464365,14.8306252 16.8042846,14.3993842 17.0536822,13.9625832 Z M6.62557009,14.8993479 C6.8481468,14.1744599 7.12230782,13.4207335 7.44224806,12.6544042 C7.67055636,13.0986187 7.90863776,13.5373472 8.15730055,13.9699967 C8.41066618,14.4118388 8.67446625,14.847602 8.94870074,15.2760999 C8.12320494,15.1834317 7.34437016,15.0573287 6.62557009,14.8993479 Z M14.0336491,19.7193567 C13.8236378,19.5371339 13.6119364,19.3425306 13.3997206,19.1365847 C14.1098498,18.3526114 14.819832,17.4415714 15.5126195,16.4297083 C16.7311701,16.3205822 17.8821907,16.141992 18.9264422,15.8986081 C18.9777326,16.1081124 19.0238792,16.3130946 19.0631185,16.5137769 C19.3151615,17.7991966 19.3512411,18.9614788 19.1840698,19.870443 C19.0336523,20.6863683 18.732156,21.2310352 18.3587209,21.4489909 C18.1845688,21.5507777 17.9669154,21.6011892 17.7139172,21.6011892 C16.8130289,21.6011892 15.4639745,20.9612594 14.0336491,19.7193567 Z M6.8258083,21.4359432 C6.03051357,20.9732692 5.69999193,19.1872186 6.15065649,16.791411 C6.20422481,16.5085875 6.26580265,16.2270243 6.33480216,15.9473145 C7.36744348,16.1776507 8.51016069,16.3434898 9.73179748,16.4433491 C10.4292878,17.4334907 11.1596245,18.3434187 11.895105,19.1402914 C11.7391764,19.2933052 11.5788388,19.441945 11.4149742,19.5865816 C10.4370034,20.4494342 9.45690165,21.0610445 8.59348918,21.3688514 L8.59334222,21.3688514 C8.17559755,21.5176395 7.80370559,21.5887346 7.49111353,21.5887346 C7.22283107,21.5887346 6.99827035,21.5363955 6.8258083,21.4359432 Z M14.1247666,16.5223024 C13.6339075,17.1955928 13.1383454,17.8105392 12.6453553,18.3590611 C12.134509,17.8031258 11.6259407,17.1887724 11.1285417,16.5277884 C11.6110239,16.5466186 12.1031323,16.5564043 12.6034706,16.5564043 C13.1172561,16.5564043 13.6248692,16.5446911 14.1247666,16.5223024 Z" id="Fill-1" stroke="#61DAFB" stroke-width="2" fill="#61DAFB" mask="url(#mask-5)"></path>
                        </g>
                        <g id="Group-6" transform="translate(10.370370, 9.074074)">
                            <mask id="mask-7" fill="white">
                                <use xlink:href="#path-6"></use>
                            </mask>
                            <use id="Clip-5" fill="#61DAFB" xlink:href="#path-6"></use>
                            <path d="M0.0635185185,2.27664128 C0.0635185185,3.51474014 1.0512963,4.51859618 2.26981481,4.51859618 C3.48804527,4.51859618 4.47553498,3.51474014 4.47553498,2.27664128 C4.47553498,1.03876195 3.48804527,0.035125448 2.26981481,0.035125448 C1.0512963,0.035125448 0.0635185185,1.03876195 0.0635185185,2.27664128" id="Fill-4" fill="#61DAFB" mask="url(#mask-7)"></path>
                        </g>
                    </g>
                </g>
            </g>
        </g>
    </g>
</svg>