<?xml version="1.0" encoding="UTF-8"?>
<svg width="200px" height="200px" viewBox="0 0 200 200" version="1.1" xmlns="http://www.w3.org/2000/svg" xmlns:xlink="http://www.w3.org/1999/xlink">
    <!-- Generator: sketchtool 52.6 (67491) - http://www.bohemiancoding.com/sketch -->
    <title>83405C36-5CF3-4458-AB16-8EA72971C9A5@3x</title>
    <desc>Created with sketchtool.</desc>
    <defs>
        <filter x="-6.2%" y="-6.2%" width="112.5%" height="112.5%" filterUnits="objectBoundingBox" id="filter-1">
            <feOffset dx="0" dy="2" in="SourceAlpha" result="shadowOffsetOuter1"></feOffset>
            <feGaussianBlur stdDeviation="2" in="shadowOffsetOuter1" result="shadowBlurOuter1"></feGaussianBlur>
            <feColorMatrix values="0 0 0 0 0   0 0 0 0 0   0 0 0 0 0  0 0 0 0.151919158 0" type="matrix" in="shadowBlurOuter1" result="shadowMatrixOuter1"></feColorMatrix>
            <feMerge>
                <feMergeNode in="shadowMatrixOuter1"></feMergeNode>
                <feMergeNode in="SourceGraphic"></feMergeNode>
            </feMerge>
        </filter>
        <linearGradient x1="0%" y1="93.5820004%" x2="100%" y2="50%" id="linearGradient-2">
            <stop stop-color="#49A3FF" offset="0%"></stop>
            <stop stop-color="#236AFF" offset="100%"></stop>
        </linearGradient>
    </defs>
    <g id="Page-1" stroke="none" stroke-width="1" fill="none" fill-rule="evenodd">
        <g id="Arc-Landing-Page" transform="translate(-620.000000, -802.000000)">
            <g id="Group" filter="url(#filter-1)" transform="translate(624.000000, 804.000000)">
                <path d="M6,0 L186,0 C189.313708,-6.08718376e-16 192,2.6862915 192,6 L192,186 C192,189.313708 189.313708,192 186,192 L6,192 C2.6862915,192 4.05812251e-16,189.313708 0,186 L0,6 C-4.05812251e-16,2.6862915 2.6862915,6.08718376e-16 6,0 Z" id="Rectangle-2-Copy" fill="url(#linearGradient-2)" fill-rule="nonzero"></path>
                <g id="Arc-Logo-White" transform="translate(37.000000, 38.000000)">
                    <g id="Group-Copy-4" transform="translate(4.726562, 0.000000)" fill-rule="nonzero" stroke="#FFFFFF" stroke-linejoin="round" stroke-width="7">
                        <path d="M64.5219285,55.9634586 C64.5219285,38.3460327 50.0782028,24.0642872 32.2609642,24.0642872 C14.4437257,24.0642872 0,38.3460327 0,55.9634586" id="Oval-2-Copy-2"></path>
                        <path d="M79.6705552,55.9634586 C79.6705552,34.3280233 61.8356939,16.7890376 39.8352776,16.7890376 C17.8348613,16.7890376 0,34.3280233 0,55.9634586" id="Oval-2-Copy-3"></path>
                        <path d="M95.3802421,55.9634586 C95.3802421,29.0737033 74.0286476,7.27524961 47.690121,7.27524961 C21.3515945,7.27524961 0,29.0737033 0,55.9634586" id="Oval-2-Copy-4"></path>
                        <path d="M111.089929,55.9634586 C111.089929,25.0556939 86.2216013,0 55.5449645,0 C24.8683277,0 0,25.0556939 0,55.9634586" id="Oval-2-Copy-5"></path>
                    </g>
                    <path d="M31.0354972,90.7029384 C27.1915554,90.8374098 23.9493226,91.1483704 21.3087017,91.6358294 C18.6680807,92.1232884 16.5288756,92.7452095 14.8910221,93.5016114 C13.2531686,94.2580133 12.0749345,95.1572776 11.3562845,96.1994313 C10.6376345,97.241585 10.2783149,98.3845751 10.2783149,99.628436 C10.2783149,100.838679 10.4705091,101.872413 10.8549033,102.729668 C11.2392975,103.586924 11.7740988,104.292888 12.4593232,104.847583 C13.1445476,105.402278 13.9467495,105.805686 14.865953,106.05782 C15.7851565,106.309954 16.7962652,106.436019 17.8993094,106.436019 C20.7070582,106.436019 23.1220203,105.906546 25.144268,104.847583 C27.1665156,103.78862 29.1302391,102.250626 31.0354972,100.233555 L31.0354972,90.7029384 Z M2.45676796,68.918673 C8.23939355,63.5061973 15.1249601,60.8 23.113674,60.8 C26.0551252,60.8 28.6706377,61.2790473 30.9602901,62.2371564 C33.2499424,63.1952655 35.1718845,64.5483641 36.726174,66.2964929 C38.2804636,68.0446217 39.4670539,70.1204935 40.2859807,72.5241706 C41.1049074,74.9278477 41.5143646,77.5920233 41.5143646,80.5167773 L41.5143646,113.193175 L36.701105,113.193175 C35.6649119,113.193175 34.8794226,113.033493 34.3446133,112.714123 C33.809804,112.394754 33.3585654,111.747619 32.990884,110.772701 L31.9379834,106.587299 C30.6343857,107.763924 29.3475202,108.814466 28.0773481,109.738957 C26.807176,110.663449 25.4952416,111.445052 24.1415055,112.083791 C22.7877695,112.722531 21.3337785,113.201578 19.779489,113.520948 C18.2251994,113.840318 16.5121641,114 14.6403315,114 C12.5679454,114 10.6376471,113.714252 8.84937845,113.142749 C7.06110984,112.571245 5.51519989,111.705598 4.21160221,110.545782 C2.90800453,109.385966 1.88018332,107.948824 1.12810773,106.234313 C0.376032151,104.519802 0,102.50276 0,100.183128 C0,98.1996741 0.526445012,96.2666761 1.57935083,94.3840758 C2.63225665,92.5014756 4.37036081,90.8122034 6.79371547,89.3162085 C9.21707013,87.8202137 12.4091653,86.5847758 16.3700967,85.6098578 C20.3310281,84.6349398 25.2194461,84.0802534 31.0354972,83.945782 L31.0354972,80.5167773 C31.0354972,76.8188125 30.2500079,74.0621892 28.6790055,72.2468246 C27.1080032,70.4314601 24.8016727,69.5237915 21.7599448,69.5237915 C19.6875587,69.5237915 17.9494545,69.784326 16.5455801,70.3054028 C15.1417057,70.8264797 13.9216903,71.3895704 12.8854972,71.9946919 C11.8493042,72.5998135 10.9301145,73.1629042 10.1279006,73.683981 C9.3256866,74.2050579 8.47334705,74.4655924 7.57085635,74.4655924 C6.83549356,74.4655924 6.20877331,74.2722926 5.6906768,73.8856872 C5.17258028,73.4990818 4.74641051,73.0200345 4.4121547,72.4485308 L2.45676796,68.918673 Z M59.931768,71.2887204 C61.5361959,68.0277878 63.4748505,65.4644643 65.7477901,63.598673 C68.0207296,61.7328817 70.7448736,60.8 73.9203039,60.8 C75.0233481,60.8 76.0595255,60.9260651 77.0288674,61.1781991 C77.9982093,61.430333 78.8672613,61.8085283 79.6360497,62.3127962 L78.8839779,70.4818957 C78.7502756,71.0533994 78.5413688,71.4484033 78.2572514,71.6669194 C77.9731339,71.8854355 77.5971018,71.9946919 77.1291436,71.9946919 C76.6277599,71.9946919 75.9091207,71.9022442 74.9732044,71.717346 C74.0372881,71.5324477 73.0512483,71.44 72.0150552,71.44 C70.5109041,71.44 69.1822571,71.6585128 68.0290746,72.095545 C66.875892,72.5325772 65.8397145,73.171307 64.920511,74.0117536 C64.0013076,74.8522001 63.1907494,75.8775295 62.4888122,77.0877725 C61.7868749,78.2980155 61.1350859,79.6763272 60.5334254,81.2227488 L60.5334254,113.193175 L49.7537293,113.193175 L49.7537293,61.7581043 L56.0209945,61.7581043 C57.1574642,61.7581043 57.9429536,61.9682127 58.3774862,62.388436 C58.8120187,62.8086593 59.1128445,63.5398368 59.2799724,64.5819905 L59.931768,71.2887204 Z M117.640746,71.8434123 C117.30649,72.2804445 116.988952,72.6166181 116.688122,72.8519431 C116.387291,73.0872682 115.952765,73.2049289 115.38453,73.2049289 C114.816296,73.2049289 114.223,73.0032248 113.604627,72.5998104 C112.986254,72.1963961 112.250902,71.7509661 111.39855,71.2635071 C110.546197,70.7760481 109.518376,70.3306181 108.315055,69.9272038 C107.111734,69.5237895 105.607606,69.3220853 103.802624,69.3220853 C101.462834,69.3220853 99.4155474,69.7423023 97.6607044,70.5827488 C95.9058614,71.4231954 94.4351579,72.6250159 93.2485497,74.1882464 C92.0619416,75.751477 91.176177,77.6508577 90.5912293,79.8864455 C90.0062816,82.1220333 89.7138122,84.6349308 89.7138122,87.4252133 C89.7138122,90.3163494 90.0313504,92.8880772 90.6664365,95.1404739 C91.3015225,97.3928707 92.2123559,99.2922514 93.3989641,100.838673 C94.5855722,102.385095 96.0228507,103.561702 97.7108425,104.368531 C99.3988344,105.175359 101.295708,105.578768 103.401519,105.578768 C105.473905,105.578768 107.161872,105.326638 108.46547,104.82237 C109.769067,104.318102 110.855382,103.763415 111.724448,103.158294 C112.593513,102.553172 113.337221,101.998486 113.955594,101.494218 C114.573967,100.98995 115.234113,100.73782 115.93605,100.73782 C116.805115,100.73782 117.473616,101.073993 117.941575,101.746351 L121,105.730047 C119.763253,107.242851 118.392825,108.520311 116.888674,109.562464 C115.384523,110.604618 113.796832,111.453456 112.125552,112.109005 C110.454273,112.764553 108.716169,113.235196 106.911188,113.520948 C105.106206,113.8067 103.28454,113.949573 101.446133,113.949573 C98.2707024,113.949573 95.3042265,113.352865 92.546616,112.159431 C89.7890055,110.965997 87.3823998,109.234703 85.3267265,106.965498 C83.2710533,104.696292 81.6499369,101.92286 80.4633287,98.6451185 C79.2767206,95.367377 78.6834254,91.627446 78.6834254,87.4252133 C78.6834254,83.6263949 79.2182267,80.1049767 80.2878453,76.8608531 C81.3574639,73.6167294 82.9200864,70.8180844 84.9757597,68.4648341 C87.0314329,66.1115838 89.5800953,64.2710335 92.6218232,62.943128 C95.6635511,61.6152224 99.1731845,60.9512796 103.150829,60.9512796 C106.861068,60.9512796 110.12837,61.5563921 112.952831,62.7666351 C115.777293,63.9768781 118.29253,65.6913633 120.498619,67.9101422 L117.640746,71.8434123 Z" id="arc-copy-3" fill="#FFFFFF"></path>
                </g>
            </g>
        </g>
    </g>
</svg>