<?xml version="1.0" encoding="UTF-8"?>
<svg width="386px" height="386px" viewBox="0 0 386 386" version="1.1" xmlns="http://www.w3.org/2000/svg" xmlns:xlink="http://www.w3.org/1999/xlink">
    <!-- Generator: sketchtool 53.2 (72643) - https://sketchapp.com -->
    <title>12393AA9-492F-430C-B6C8-3B39CFD3D19B</title>
    <desc>Created with sketchtool.</desc>
    <defs>
        <linearGradient x1="94.1400432%" y1="95.1526629%" x2="5.8139544%" y2="4.28234683%" id="linearGradient-1">
            <stop stop-color="#097EDA" offset="0%"></stop>
            <stop stop-color="#00C8FF" offset="100%"></stop>
        </linearGradient>
        <rect id="path-2" x="0" y="0" width="378" height="378"></rect>
        <filter x="-1.9%" y="-1.3%" width="103.7%" height="103.7%" filterUnits="objectBoundingBox" id="filter-3">
            <feOffset dx="0" dy="2" in="SourceAlpha" result="shadowOffsetOuter1"></feOffset>
            <feGaussianBlur stdDeviation="2" in="shadowOffsetOuter1" result="shadowBlurOuter1"></feGaussianBlur>
            <feColorMatrix values="0 0 0 0 0   0 0 0 0 0   0 0 0 0 0  0 0 0 0.202190897 0" type="matrix" in="shadowBlurOuter1"></feColorMatrix>
        </filter>
        <path d="M19.5448877,0.0728570157 C18.1586042,0.0790498621 16.390588,1.06753742 14.6090341,2.80909331 L14.6090341,2.80909331 C14.3728122,3.04041434 14.1421027,3.27820142 13.9168245,3.52272778 L13.9168245,3.52272778 C13.7655582,3.36052985 13.6120221,3.20106406 13.4560541,3.04505897 L13.4560541,3.04505897 C10.9446767,0.539779415 8.42754372,-0.515190173 6.91642087,0.467195613 L6.91642087,0.467195613 C5.46682596,1.40960111 5.03807596,4.20867659 5.64792399,7.71064012 L5.64792399,7.71064012 C5.70839809,8.05753058 5.77681651,8.40223534 5.85309818,8.74539188 L5.85309818,8.74539188 C5.49714407,8.85904883 5.15318751,8.98017362 4.82414681,9.10931268 L4.82414681,9.10931268 C1.88012833,10.2620017 0,12.0693111 0,13.9440132 L0,13.9440132 C0,15.8801884 2.01810007,17.8221921 5.0847691,18.9995615 L5.0847691,18.9995615 C5.3334749,19.094731 5.58412625,19.1827058 5.83680422,19.2637592 L5.83680422,19.2637592 C5.75476697,19.6331443 5.68164681,20.0051705 5.6182544,20.3791091 L5.6182544,20.3791091 C5.03669786,23.8200549 5.49082104,26.5526483 6.93628167,27.4894985 L6.93628167,27.4894985 C8.42916501,28.4565843 10.9347868,27.4624503 13.3748275,25.0664563 L13.3748275,25.0664563 C13.5676799,24.8773012 13.7617482,24.6764891 13.955087,24.4656591 L13.955087,24.4656591 C14.199091,24.7304944 14.4499045,24.9872243 14.7067168,25.236031 L14.7067168,25.236031 C16.4461982,26.917753 18.1701153,27.8614335 19.5349168,27.8678085 L19.5349168,27.8678085 L19.5625598,27.8678085 C20.0410023,27.8656228 20.4746162,27.7472302 20.8486477,27.5040699 L20.8486477,27.5040699 C22.3400718,26.5339787 22.8245131,23.5988428 22.1953718,20.0272097 L22.1953718,20.0272097 C22.1472195,19.7551798 22.0914471,19.4763196 22.0285411,19.1924504 L22.0285411,19.1924504 C22.2046942,19.1338005 22.3774426,19.0736024 22.5457324,19.0110365 L22.5457324,19.0110365 C25.733836,17.824651 27.8076274,15.9059615 27.8076274,13.9440132 L27.8076274,13.9440132 C27.8076274,12.0626629 25.8671871,10.2436053 22.8635052,9.08162701 L22.8635052,9.08162701 C22.5674577,8.96778792 22.2689783,8.86187204 21.9684723,8.76488114 L21.9684723,8.76488114 C22.0180027,8.53674761 22.0641284,8.30861407 22.1066872,8.07884126 L22.1066872,8.07884126 C22.7846294,4.38335128 22.3413689,1.40659576 20.8284626,0.426668898 L20.8284626,0.426668898 C20.4631861,0.189974669 20.0391378,0.0750427262 19.5713958,0.0728570157 L19.5713958,0.0728570157 L19.5448877,0.0728570157 Z M17.1002264,7.77056501 C16.3361127,6.54847965 15.5442749,5.4369548 14.7495999,4.47487791 L14.7495999,4.47487791 C14.9580166,4.24938544 15.1712162,4.02981261 15.3891175,3.81615941 L15.3891175,3.81615941 C17.4418321,1.80876649 19.3607903,1.01608216 20.2350707,1.58236331 L20.2350707,1.58236331 C21.1663393,2.1862569 21.5282922,4.61904373 20.9430878,7.80981673 L20.9430878,7.80981673 C20.9050685,8.0175503 20.8631582,8.22464636 20.8181674,8.43074065 L20.8181674,8.43074065 C19.6642957,8.1316626 18.4117685,7.90917549 17.1002264,7.77056501 L17.1002264,7.77056501 Z M6.81371219,7.45445664 C6.29084633,4.45384044 6.63812654,2.19062832 7.51143411,1.6223436 L7.51143411,1.6223436 C8.44173001,1.01735715 10.4988221,1.8803485 12.6671346,4.04274473 L12.6671346,4.04274473 C12.8056738,4.18126413 12.9450236,4.32588531 13.0842924,4.47578862 L13.0842924,4.47578862 C12.2766471,5.45006906 11.4780809,6.5600457 10.7154264,7.76892573 L10.7154264,7.76892573 C9.40769427,7.90498621 8.15565348,8.12392154 7.00478115,8.41680674 L7.00478115,8.41680674 C6.93384974,8.09769301 6.87021412,7.77648465 6.81371219,7.45445664 L6.81371219,7.45445664 Z M13.9169867,5.42912267 C14.4646583,6.09612865 15.0137079,6.84072735 15.5535973,7.64852951 L15.5535973,7.64852951 C14.4585784,7.59069926 13.3618572,7.59015283 12.2670004,7.64770987 L12.2670004,7.64770987 C12.8073762,6.8475577 13.3605601,6.10377864 13.9169867,5.42912267 L13.9169867,5.42912267 Z M11.3859106,18.9150474 C10.90609,18.1270987 10.4525343,17.3192966 10.0269458,16.4931891 L10.0269458,16.4931891 C9.60330285,15.6713619 9.20778928,14.8316848 8.84089147,13.9760703 L8.84089147,13.9760703 C9.20665438,13.1203646 9.60119517,12.2802321 10.0236221,11.4578586 L10.0236221,11.4578586 C10.0236221,11.4578586 10.8953895,9.83050606 11.3718054,9.04601815 L11.3718054,9.04601815 C12.1988252,8.97607541 13.0466785,8.93946476 13.9040164,8.93946476 L13.9040164,8.93946476 C14.7650832,8.93946476 15.6139904,8.97634862 16.440848,9.04683779 L16.440848,9.04683779 C16.9122379,9.83050606 17.3592274,10.631569 17.7806816,11.4502086 L17.7806816,11.4502086 C18.2043245,12.271125 18.6039724,13.1072503 18.9792198,13.9572185 L18.9792198,13.9572185 C18.6079446,14.8156563 18.2094316,15.6592495 17.7846538,16.4856302 L17.7846538,16.4856302 L17.7844916,16.4856302 C17.3632806,17.3080037 16.9182367,18.1144398 16.4500893,18.9039367 L16.4500893,18.9039367 C15.6251773,18.9704187 14.7725411,19.0044793 13.9040164,19.0044793 L13.9040164,19.0044793 C13.0386531,19.0044793 12.1967175,18.9741526 11.3859106,18.9150474 L11.3859106,18.9150474 Z M7.32587753,9.70346164 C8.11901234,9.50401556 8.96524438,9.34081585 9.84665839,9.21714106 L9.84665839,9.21714106 C9.55166478,9.73387945 9.2675338,10.2589964 8.99418439,10.7910347 L8.99418439,10.7910347 C8.72124031,11.322982 8.45956419,11.8613954 8.2092371,12.4064569 L8.2092371,12.4064569 C7.86341605,11.4846335 7.5673686,10.5783833 7.32587753,9.70346164 L7.32587753,9.70346164 Z M18.8087413,10.7817455 C18.5366889,10.2543518 18.2548277,9.73342409 17.9632388,9.21969106 L17.9632388,9.21969106 C18.8503273,9.34518727 19.7004505,9.51257626 20.4986113,9.71730447 L20.4986113,9.71730447 C20.2591468,10.580478 19.9602621,11.4828121 19.6084423,12.4074587 L19.6084423,12.4074587 C19.3514679,11.859574 19.0846847,11.3179731 18.8087413,10.7817455 L18.8087413,10.7817455 Z M5.4690147,17.7368583 C4.11321138,17.2162039 2.99314355,16.539089 2.22578725,15.8012296 L2.22578725,15.8012296 C1.53600964,15.1377754 1.18775666,14.4785105 1.18775666,13.9440132 L1.18775666,13.9440132 C1.18775666,12.8064419 2.69725822,11.3555855 5.21520183,10.3693748 L5.21520183,10.3693748 C5.53135328,10.2460643 5.85042305,10.133318 6.17233007,10.0309539 L6.17233007,10.0309539 C6.52066411,11.3026731 6.97689497,12.6319494 7.52756594,13.9761613 L7.52756594,13.9761613 C6.96968023,15.3411375 6.5065589,16.6916334 6.15554973,17.9780151 L6.15554973,17.9780151 C5.92467811,17.9040652 5.69607629,17.8236493 5.4690147,17.7368583 L5.4690147,17.7368583 Z M20.2970039,13.9508435 C20.8513228,12.6085441 21.3077158,11.2940214 21.6503753,10.0508075 L21.6503753,10.0508075 C21.9347495,10.1436091 22.2109361,10.2406 22.4768276,10.3438748 L22.4768276,10.3438748 C25.0503815,11.3388284 26.6197897,12.8100848 26.6197897,13.9440132 L26.6197897,13.9440132 C26.6197897,15.1517093 24.9244883,16.7195012 22.1722684,17.744053 L22.1722684,17.744053 L22.1721063,17.744053 C22.0201104,17.8006993 21.8639802,17.8555242 21.7051749,17.9085277 L21.7051749,17.9085277 C21.3529498,16.6567531 20.877993,15.3256554 20.2970039,13.9508435 L20.2970039,13.9508435 Z M18.813443,17.152454 C19.0931965,16.6079389 19.3620063,16.0556827 19.6199534,15.4973247 L19.6199534,15.4973247 C19.9914719,16.4490195 20.3052725,17.3700233 20.5538162,18.2456735 L20.5538162,18.2456735 C19.7473868,18.4522232 18.8767543,18.6189747 17.9599152,18.7422852 L17.9599152,18.7422852 C18.2538549,18.2188075 18.5383102,17.6890459 18.813443,17.152454 L18.813443,17.152454 Z M7.30925931,18.3032306 C7.5548036,17.4127357 7.85725515,16.4868141 8.21020987,15.5454104 L8.21020987,15.5454104 C8.46207719,16.0911094 8.72472608,16.6300692 8.99904826,17.1615611 L8.99904826,17.1615611 C9.27855856,17.7043459 9.56958002,18.2396628 9.87211264,18.7660548 L9.87211264,18.7660548 C8.96143434,18.6522157 8.10223199,18.4973034 7.30925931,18.3032306 L7.30925931,18.3032306 Z M15.4817742,24.2244113 C15.2500919,24.0005581 15.0165452,23.761496 14.782431,23.5085001 L14.782431,23.5085001 C15.5658381,22.5454214 16.349083,21.4262465 17.1133589,20.1832148 L17.1133589,20.1832148 C18.457651,20.0491579 19.7274449,19.8297672 20.8794522,19.5307802 L20.8794522,19.5307802 C20.9360352,19.7881476 20.9869437,20.0399597 21.0302321,20.2864896 L21.0302321,20.2864896 C21.3082832,21.8655743 21.3480859,23.2933897 21.1636642,24.4100146 L21.1636642,24.4100146 C20.9977252,25.4123449 20.6651177,26.0814456 20.253148,26.3491951 L20.253148,26.3491951 C20.0610252,26.474236 19.8209123,26.5361644 19.5418073,26.5361644 L19.5418073,26.5361644 C18.5479568,26.5361644 17.0596942,25.7500372 15.4817742,24.2244113 L15.4817742,24.2244113 Z M7.53016,26.3331666 C6.65279921,25.7647908 6.2881712,23.5707017 6.78533962,20.6275515 L6.78533962,20.6275515 C6.84443562,20.2801146 6.91236765,19.9342259 6.98848719,19.590614 L6.98848719,19.590614 C8.12768624,19.8735725 9.38831986,20.0772989 10.7360167,20.1999719 L10.7360167,20.1999719 C11.5054807,21.4163198 12.3111805,22.5341285 13.1225548,23.5130536 L13.1225548,23.5130536 C12.950536,23.7010247 12.7736533,23.8836226 12.5928796,24.0613027 L12.5928796,24.0613027 C11.5139925,25.1212812 10.4327545,25.8726191 9.48024697,26.2507471 L9.48024697,26.2507471 L9.48008485,26.2507471 C9.01923331,26.4335271 8.60896601,26.5208644 8.26411774,26.5208644 L8.26411774,26.5208644 C7.96815135,26.5208644 7.72041832,26.4565681 7.53016,26.3331666 L7.53016,26.3331666 Z M15.5822941,20.2969628 C15.0407835,21.1240721 14.4940847,21.8795083 13.9502231,22.5533446 L13.9502231,22.5533446 C13.3866629,21.8704011 12.8256157,21.1156935 12.2768902,20.3037021 L12.2768902,20.3037021 C12.8091596,20.3268342 13.3520484,20.3388556 13.9040164,20.3388556 L13.9040164,20.3388556 C14.4708192,20.3388556 15.0308125,20.3244663 15.5822941,20.2969628 L15.5822941,20.2969628 Z" id="path-4"></path>
        <path d="M0.0652952603,2.99652785 C0.0652952603,4.62612043 1.08070319,5.94740129 2.33330614,5.94740129 L2.33330614,5.94740129 C3.58561297,5.94740129 4.60072477,4.62612043 4.60072477,2.99652785 L4.60072477,2.99652785 C4.60072477,1.36722422 3.58561297,0.0462323091 2.33330614,0.0462323091 L2.33330614,0.0462323091 C1.08070319,0.0462323091 0.0652952603,1.36722422 0.0652952603,2.99652785" id="path-6"></path>
    </defs>
    <g id="Searchbase" stroke="none" stroke-width="1" fill="none" fill-rule="evenodd">
        <g id="Searchbase-and-Searchbox-icons-2" transform="translate(-89.000000, -59.000000)">
            <g id="Searchbox_React" transform="translate(93.000000, 61.000000)">
                <g id="Mask">
                    <use fill="black" fill-opacity="1" filter="url(#filter-3)" xlink:href="#path-2"></use>
                    <use fill="url(#linearGradient-1)" fill-rule="evenodd" xlink:href="#path-2"></use>
                </g>
                <g id="Group-2" transform="translate(35.000000, 121.000000)">
                    <path d="M1.5,1.5 L1.5,66.5 L306.5,66.5 L306.5,1.5 L1.5,1.5 Z" id="Rectangle-18" stroke="#FFFFFF" stroke-width="3"></path>
                    <g id="Group" transform="translate(0.000000, 80.000000)">
                        <rect id="Rectangle" fill="#000000" opacity="0.100000001" x="0" y="0" width="308" height="56"></rect>
                        <text id="for-React" font-family="SourceSansPro-Semibold, Source Sans Pro" font-size="28" font-weight="500" fill="#FFFFFF">
                            <tspan x="49" y="38">for React</tspan>
                        </text>
                        <g id="Group-7" transform="translate(13.000000, 14.000000)">
                            <g id="Group-3">
                                <mask id="mask-5" fill="white">
                                    <use xlink:href="#path-4"></use>
                                </mask>
                                <g id="Clip-2"></g>
                                <path d="M19.5448877,0.0728570157 C18.1586042,0.0790498621 16.390588,1.06753742 14.6090341,2.80909331 L14.6090341,2.80909331 C14.3728122,3.04041434 14.1421027,3.27820142 13.9168245,3.52272778 L13.9168245,3.52272778 C13.7655582,3.36052985 13.6120221,3.20106406 13.4560541,3.04505897 L13.4560541,3.04505897 C10.9446767,0.539779415 8.42754372,-0.515190173 6.91642087,0.467195613 L6.91642087,0.467195613 C5.46682596,1.40960111 5.03807596,4.20867659 5.64792399,7.71064012 L5.64792399,7.71064012 C5.70839809,8.05753058 5.77681651,8.40223534 5.85309818,8.74539188 L5.85309818,8.74539188 C5.49714407,8.85904883 5.15318751,8.98017362 4.82414681,9.10931268 L4.82414681,9.10931268 C1.88012833,10.2620017 0,12.0693111 0,13.9440132 L0,13.9440132 C0,15.8801884 2.01810007,17.8221921 5.0847691,18.9995615 L5.0847691,18.9995615 C5.3334749,19.094731 5.58412625,19.1827058 5.83680422,19.2637592 L5.83680422,19.2637592 C5.75476697,19.6331443 5.68164681,20.0051705 5.6182544,20.3791091 L5.6182544,20.3791091 C5.03669786,23.8200549 5.49082104,26.5526483 6.93628167,27.4894985 L6.93628167,27.4894985 C8.42916501,28.4565843 10.9347868,27.4624503 13.3748275,25.0664563 L13.3748275,25.0664563 C13.5676799,24.8773012 13.7617482,24.6764891 13.955087,24.4656591 L13.955087,24.4656591 C14.199091,24.7304944 14.4499045,24.9872243 14.7067168,25.236031 L14.7067168,25.236031 C16.4461982,26.917753 18.1701153,27.8614335 19.5349168,27.8678085 L19.5349168,27.8678085 L19.5625598,27.8678085 C20.0410023,27.8656228 20.4746162,27.7472302 20.8486477,27.5040699 L20.8486477,27.5040699 C22.3400718,26.5339787 22.8245131,23.5988428 22.1953718,20.0272097 L22.1953718,20.0272097 C22.1472195,19.7551798 22.0914471,19.4763196 22.0285411,19.1924504 L22.0285411,19.1924504 C22.2046942,19.1338005 22.3774426,19.0736024 22.5457324,19.0110365 L22.5457324,19.0110365 C25.733836,17.824651 27.8076274,15.9059615 27.8076274,13.9440132 L27.8076274,13.9440132 C27.8076274,12.0626629 25.8671871,10.2436053 22.8635052,9.08162701 L22.8635052,9.08162701 C22.5674577,8.96778792 22.2689783,8.86187204 21.9684723,8.76488114 L21.9684723,8.76488114 C22.0180027,8.53674761 22.0641284,8.30861407 22.1066872,8.07884126 L22.1066872,8.07884126 C22.7846294,4.38335128 22.3413689,1.40659576 20.8284626,0.426668898 L20.8284626,0.426668898 C20.4631861,0.189974669 20.0391378,0.0750427262 19.5713958,0.0728570157 L19.5713958,0.0728570157 L19.5448877,0.0728570157 Z M17.1002264,7.77056501 C16.3361127,6.54847965 15.5442749,5.4369548 14.7495999,4.47487791 L14.7495999,4.47487791 C14.9580166,4.24938544 15.1712162,4.02981261 15.3891175,3.81615941 L15.3891175,3.81615941 C17.4418321,1.80876649 19.3607903,1.01608216 20.2350707,1.58236331 L20.2350707,1.58236331 C21.1663393,2.1862569 21.5282922,4.61904373 20.9430878,7.80981673 L20.9430878,7.80981673 C20.9050685,8.0175503 20.8631582,8.22464636 20.8181674,8.43074065 L20.8181674,8.43074065 C19.6642957,8.1316626 18.4117685,7.90917549 17.1002264,7.77056501 L17.1002264,7.77056501 Z M6.81371219,7.45445664 C6.29084633,4.45384044 6.63812654,2.19062832 7.51143411,1.6223436 L7.51143411,1.6223436 C8.44173001,1.01735715 10.4988221,1.8803485 12.6671346,4.04274473 L12.6671346,4.04274473 C12.8056738,4.18126413 12.9450236,4.32588531 13.0842924,4.47578862 L13.0842924,4.47578862 C12.2766471,5.45006906 11.4780809,6.5600457 10.7154264,7.76892573 L10.7154264,7.76892573 C9.40769427,7.90498621 8.15565348,8.12392154 7.00478115,8.41680674 L7.00478115,8.41680674 C6.93384974,8.09769301 6.87021412,7.77648465 6.81371219,7.45445664 L6.81371219,7.45445664 Z M13.9169867,5.42912267 C14.4646583,6.09612865 15.0137079,6.84072735 15.5535973,7.64852951 L15.5535973,7.64852951 C14.4585784,7.59069926 13.3618572,7.59015283 12.2670004,7.64770987 L12.2670004,7.64770987 C12.8073762,6.8475577 13.3605601,6.10377864 13.9169867,5.42912267 L13.9169867,5.42912267 Z M11.3859106,18.9150474 C10.90609,18.1270987 10.4525343,17.3192966 10.0269458,16.4931891 L10.0269458,16.4931891 C9.60330285,15.6713619 9.20778928,14.8316848 8.84089147,13.9760703 L8.84089147,13.9760703 C9.20665438,13.1203646 9.60119517,12.2802321 10.0236221,11.4578586 L10.0236221,11.4578586 C10.0236221,11.4578586 10.8953895,9.83050606 11.3718054,9.04601815 L11.3718054,9.04601815 C12.1988252,8.97607541 13.0466785,8.93946476 13.9040164,8.93946476 L13.9040164,8.93946476 C14.7650832,8.93946476 15.6139904,8.97634862 16.440848,9.04683779 L16.440848,9.04683779 C16.9122379,9.83050606 17.3592274,10.631569 17.7806816,11.4502086 L17.7806816,11.4502086 C18.2043245,12.271125 18.6039724,13.1072503 18.9792198,13.9572185 L18.9792198,13.9572185 C18.6079446,14.8156563 18.2094316,15.6592495 17.7846538,16.4856302 L17.7846538,16.4856302 L17.7844916,16.4856302 C17.3632806,17.3080037 16.9182367,18.1144398 16.4500893,18.9039367 L16.4500893,18.9039367 C15.6251773,18.9704187 14.7725411,19.0044793 13.9040164,19.0044793 L13.9040164,19.0044793 C13.0386531,19.0044793 12.1967175,18.9741526 11.3859106,18.9150474 L11.3859106,18.9150474 Z M7.32587753,9.70346164 C8.11901234,9.50401556 8.96524438,9.34081585 9.84665839,9.21714106 L9.84665839,9.21714106 C9.55166478,9.73387945 9.2675338,10.2589964 8.99418439,10.7910347 L8.99418439,10.7910347 C8.72124031,11.322982 8.45956419,11.8613954 8.2092371,12.4064569 L8.2092371,12.4064569 C7.86341605,11.4846335 7.5673686,10.5783833 7.32587753,9.70346164 L7.32587753,9.70346164 Z M18.8087413,10.7817455 C18.5366889,10.2543518 18.2548277,9.73342409 17.9632388,9.21969106 L17.9632388,9.21969106 C18.8503273,9.34518727 19.7004505,9.51257626 20.4986113,9.71730447 L20.4986113,9.71730447 C20.2591468,10.580478 19.9602621,11.4828121 19.6084423,12.4074587 L19.6084423,12.4074587 C19.3514679,11.859574 19.0846847,11.3179731 18.8087413,10.7817455 L18.8087413,10.7817455 Z M5.4690147,17.7368583 C4.11321138,17.2162039 2.99314355,16.539089 2.22578725,15.8012296 L2.22578725,15.8012296 C1.53600964,15.1377754 1.18775666,14.4785105 1.18775666,13.9440132 L1.18775666,13.9440132 C1.18775666,12.8064419 2.69725822,11.3555855 5.21520183,10.3693748 L5.21520183,10.3693748 C5.53135328,10.2460643 5.85042305,10.133318 6.17233007,10.0309539 L6.17233007,10.0309539 C6.52066411,11.3026731 6.97689497,12.6319494 7.52756594,13.9761613 L7.52756594,13.9761613 C6.96968023,15.3411375 6.5065589,16.6916334 6.15554973,17.9780151 L6.15554973,17.9780151 C5.92467811,17.9040652 5.69607629,17.8236493 5.4690147,17.7368583 L5.4690147,17.7368583 Z M20.2970039,13.9508435 C20.8513228,12.6085441 21.3077158,11.2940214 21.6503753,10.0508075 L21.6503753,10.0508075 C21.9347495,10.1436091 22.2109361,10.2406 22.4768276,10.3438748 L22.4768276,10.3438748 C25.0503815,11.3388284 26.6197897,12.8100848 26.6197897,13.9440132 L26.6197897,13.9440132 C26.6197897,15.1517093 24.9244883,16.7195012 22.1722684,17.744053 L22.1722684,17.744053 L22.1721063,17.744053 C22.0201104,17.8006993 21.8639802,17.8555242 21.7051749,17.9085277 L21.7051749,17.9085277 C21.3529498,16.6567531 20.877993,15.3256554 20.2970039,13.9508435 L20.2970039,13.9508435 Z M18.813443,17.152454 C19.0931965,16.6079389 19.3620063,16.0556827 19.6199534,15.4973247 L19.6199534,15.4973247 C19.9914719,16.4490195 20.3052725,17.3700233 20.5538162,18.2456735 L20.5538162,18.2456735 C19.7473868,18.4522232 18.8767543,18.6189747 17.9599152,18.7422852 L17.9599152,18.7422852 C18.2538549,18.2188075 18.5383102,17.6890459 18.813443,17.152454 L18.813443,17.152454 Z M7.30925931,18.3032306 C7.5548036,17.4127357 7.85725515,16.4868141 8.21020987,15.5454104 L8.21020987,15.5454104 C8.46207719,16.0911094 8.72472608,16.6300692 8.99904826,17.1615611 L8.99904826,17.1615611 C9.27855856,17.7043459 9.56958002,18.2396628 9.87211264,18.7660548 L9.87211264,18.7660548 C8.96143434,18.6522157 8.10223199,18.4973034 7.30925931,18.3032306 L7.30925931,18.3032306 Z M15.4817742,24.2244113 C15.2500919,24.0005581 15.0165452,23.761496 14.782431,23.5085001 L14.782431,23.5085001 C15.5658381,22.5454214 16.349083,21.4262465 17.1133589,20.1832148 L17.1133589,20.1832148 C18.457651,20.0491579 19.7274449,19.8297672 20.8794522,19.5307802 L20.8794522,19.5307802 C20.9360352,19.7881476 20.9869437,20.0399597 21.0302321,20.2864896 L21.0302321,20.2864896 C21.3082832,21.8655743 21.3480859,23.2933897 21.1636642,24.4100146 L21.1636642,24.4100146 C20.9977252,25.4123449 20.6651177,26.0814456 20.253148,26.3491951 L20.253148,26.3491951 C20.0610252,26.474236 19.8209123,26.5361644 19.5418073,26.5361644 L19.5418073,26.5361644 C18.5479568,26.5361644 17.0596942,25.7500372 15.4817742,24.2244113 L15.4817742,24.2244113 Z M7.53016,26.3331666 C6.65279921,25.7647908 6.2881712,23.5707017 6.78533962,20.6275515 L6.78533962,20.6275515 C6.84443562,20.2801146 6.91236765,19.9342259 6.98848719,19.590614 L6.98848719,19.590614 C8.12768624,19.8735725 9.38831986,20.0772989 10.7360167,20.1999719 L10.7360167,20.1999719 C11.5054807,21.4163198 12.3111805,22.5341285 13.1225548,23.5130536 L13.1225548,23.5130536 C12.950536,23.7010247 12.7736533,23.8836226 12.5928796,24.0613027 L12.5928796,24.0613027 C11.5139925,25.1212812 10.4327545,25.8726191 9.48024697,26.2507471 L9.48024697,26.2507471 L9.48008485,26.2507471 C9.01923331,26.4335271 8.60896601,26.5208644 8.26411774,26.5208644 L8.26411774,26.5208644 C7.96815135,26.5208644 7.72041832,26.4565681 7.53016,26.3331666 L7.53016,26.3331666 Z M15.5822941,20.2969628 C15.0407835,21.1240721 14.4940847,21.8795083 13.9502231,22.5533446 L13.9502231,22.5533446 C13.3866629,21.8704011 12.8256157,21.1156935 12.2768902,20.3037021 L12.2768902,20.3037021 C12.8091596,20.3268342 13.3520484,20.3388556 13.9040164,20.3388556 L13.9040164,20.3388556 C14.4708192,20.3388556 15.0308125,20.3244663 15.5822941,20.2969628 L15.5822941,20.2969628 Z" id="Fill-1" stroke="#FFFFFF" stroke-width="2" fill="#FFFFFF" mask="url(#mask-5)"></path>
                            </g>
                            <g id="Group-6" transform="translate(11.666667, 12.000000)">
                                <mask id="mask-7" fill="white">
                                    <use xlink:href="#path-6"></use>
                                </mask>
                                <use id="Clip-5" fill="#61DAFB" xlink:href="#path-6"></use>
                                <path d="M0.0652952603,2.99652785 C0.0652952603,4.62612043 1.08070319,5.94740129 2.33330614,5.94740129 L2.33330614,5.94740129 C3.58561297,5.94740129 4.60072477,4.62612043 4.60072477,2.99652785 L4.60072477,2.99652785 C4.60072477,1.36722422 3.58561297,0.0462323091 2.33330614,0.0462323091 L2.33330614,0.0462323091 C1.08070319,0.0462323091 0.0652952603,1.36722422 0.0652952603,2.99652785" id="Fill-4" fill="#FFFFFF" mask="url(#mask-7)"></path>
                            </g>
                        </g>
                    </g>
                    <g id="Group-3" transform="translate(255.000000, 18.000000)" stroke="#FFFFFF" stroke-width="4">
                        <ellipse id="Oval-15" cx="13" cy="12.5" rx="13" ry="12.5"></ellipse>
                        <path d="M22.4934402,22.528296 L32.9397314,32.104063" id="Line-6" stroke-linecap="square"></path>
                    </g>
                    <text id="Searchbox" font-family="SourceSansPro-Semibold, Source Sans Pro" font-size="35" font-weight="500" fill="#FFFFFF">
                        <tspan x="13" y="46">Searchbox</tspan>
                    </text>
                    <path d="M184.5,12 L184.5,56" id="Line" stroke="#FFFFFF" stroke-width="3" stroke-linecap="square"></path>
                </g>
            </g>
        </g>
    </g>
</svg>