<?xml version="1.0" standalone="no"?>
<!DOCTYPE svg PUBLIC "-//W3C//DTD SVG 20010904//EN"
 "http://www.w3.org/TR/2001/REC-SVG-20010904/DTD/svg10.dtd">
<svg version="1.0" xmlns="http://www.w3.org/2000/svg"
 width="16.000000pt" height="16.000000pt" viewBox="0 0 16.000000 16.000000"
 preserveAspectRatio="xMidYMid meet">
<metadata>
Created by potrace 1.11, written by Peter Selinger 2001-2013
</metadata>
<g transform="translate(0.000000,16.000000) scale(0.002439,-0.002439)"
fill="#000000" stroke="none">
<path d="M2638 6555 c-1 -1 -39 -5 -83 -9 -44 -4 -89 -9 -100 -11 -11 -3 -38
-7 -60 -10 -22 -3 -56 -8 -75 -11 -82 -12 -348 -87 -447 -125 -60 -23 -118
-43 -130 -46 -13 -3 -23 -9 -23 -14 0 -5 -3 -8 -7 -7 -27 9 -328 -160 -483
-270 -185 -132 -381 -308 -489 -442 -20 -25 -44 -51 -53 -58 -10 -7 -18 -17
-18 -23 0 -5 -8 -17 -17 -27 -10 -10 -26 -29 -35 -42 -10 -14 -36 -49 -58 -79
-22 -30 -40 -58 -40 -62 0 -4 -7 -14 -14 -22 -15 -14 -23 -27 -99 -162 -63
-111 -139 -276 -184 -400 -19 -50 -72 -228 -77 -255 -3 -14 -5 -25 -6 -25 -2
0 -11 -42 -34 -160 -46 -237 -57 -655 -22 -860 3 -16 8 -48 10 -70 10 -83 78
-364 103 -425 3 -8 7 -20 8 -25 2 -6 14 -40 29 -76 14 -36 26 -69 26 -73 0
-17 152 -317 200 -396 178 -291 387 -524 675 -755 27 -22 56 -44 65 -50 9 -5
61 -40 116 -76 89 -59 298 -179 313 -179 3 0 33 -14 66 -30 33 -16 68 -30 78
-30 9 0 17 -4 17 -9 0 -4 21 -14 48 -21 26 -7 52 -16 57 -20 25 -18 295 -92
400 -110 28 -5 61 -11 74 -14 13 -3 49 -8 80 -12 31 -3 65 -8 76 -10 31 -7
243 -16 320 -15 210 4 294 13 540 56 17 3 73 17 125 31 52 14 102 27 110 29
114 26 443 170 587 257 35 21 67 38 72 38 5 0 11 3 13 8 2 4 22 20 46 35 l44
28 761 -761 762 -760 302 302 303 303 -752 752 c-575 575 -751 756 -743 766 6
8 28 41 50 73 22 32 43 61 46 64 31 23 196 326 257 471 36 84 108 288 117 329
2 8 11 44 20 80 9 36 18 76 21 90 28 147 34 181 39 230 30 274 25 527 -14 769
-6 35 -8 68 -5 72 3 5 1 9 -4 9 -5 0 -9 6 -10 13 -3 36 -13 89 -22 111 -5 14
-8 26 -6 26 2 0 -11 51 -30 113 -19 61 -36 119 -39 127 -2 8 -24 67 -50 130
-105 261 -271 535 -462 762 -38 45 -294 298 -327 323 -15 11 -33 26 -41 33
-47 42 -203 152 -215 152 -6 0 -10 4 -10 10 0 5 -15 16 -32 25 -33 14 -68 35
-78 45 -12 12 -282 150 -294 150 -4 0 -28 9 -54 21 -26 12 -56 25 -67 29 -28
12 -140 50 -162 55 -10 3 -57 16 -105 30 -48 14 -100 27 -115 29 -15 2 -35 6
-43 9 -8 4 -31 8 -50 11 -19 2 -35 5 -35 6 0 1 -16 3 -35 6 -19 2 -69 9 -110
15 -66 10 -503 22 -512 14z m342 -860 c141 -12 195 -20 290 -45 41 -11 84 -22
94 -25 10 -2 35 -10 55 -17 20 -7 38 -13 41 -13 3 -1 19 -7 35 -14 17 -7 35
-14 41 -15 24 -4 284 -138 284 -147 0 -5 5 -9 11 -9 34 0 241 -164 359 -285
131 -135 280 -344 341 -482 12 -26 28 -60 36 -75 13 -27 70 -177 78 -208 36
-135 44 -170 48 -195 3 -16 8 -46 11 -65 3 -19 9 -55 12 -80 8 -57 11 -420 4
-420 -3 0 -6 -18 -7 -40 -2 -22 -5 -50 -7 -63 -3 -12 -9 -46 -15 -75 -17 -83
-40 -173 -57 -217 -9 -22 -17 -47 -19 -55 -6 -28 -72 -176 -110 -246 -71 -131
-156 -252 -269 -384 -37 -43 -200 -191 -256 -232 -36 -27 -72 -55 -81 -63 -9
-8 -19 -15 -23 -15 -4 0 -22 -10 -39 -22 -43 -31 -215 -123 -247 -133 -3 -1
-18 -7 -35 -14 -47 -20 -190 -70 -216 -75 -13 -3 -40 -10 -59 -15 -19 -6 -62
-16 -95 -22 -33 -5 -71 -12 -85 -15 -119 -21 -456 -21 -550 -1 -8 2 -33 7 -55
11 -493 90 -917 353 -1209 751 -96 131 -182 287 -232 420 -15 39 -30 79 -35
90 -14 33 -57 190 -64 232 -3 21 -8 50 -10 63 -30 150 -34 426 -10 580 3 19 8
50 11 69 3 18 8 43 10 55 3 11 7 34 10 49 3 16 12 47 20 69 8 22 14 47 14 55
0 8 6 29 14 46 7 18 23 59 36 92 108 281 311 564 544 757 34 28 63 54 66 57
11 13 159 111 168 111 6 0 12 4 14 9 3 9 239 131 253 131 4 0 21 6 38 14 18 8
57 22 87 31 30 9 62 19 70 22 8 3 20 7 25 7 6 1 28 7 50 13 22 7 55 15 73 18
45 7 83 14 109 19 12 3 64 8 115 12 51 3 94 7 95 8 3 2 161 -3 223 -9z"/>
</g>
</svg>
