<?xml version="1.0" encoding="UTF-8"?>
<svg width="127px" height="125px" viewBox="0 0 127 125" version="1.1" xmlns="http://www.w3.org/2000/svg" xmlns:xlink="http://www.w3.org/1999/xlink">
    <!-- Generator: Sketch 52.2 (67145) - http://www.bohemiancoding.com/sketch -->
    <title>Tutorials@3x</title>
    <desc>Created with Sketch.</desc>
    <defs>
        <polygon id="path-1" points="0 0.000104166667 126.788768 0.000104166667 126.788768 125 0 125"></polygon>
        <polygon id="path-3" points="0 125 126.788768 125 126.788768 0 0 0"></polygon>
    </defs>
    <g id="Page-1" stroke="none" stroke-width="1" fill="none" fill-rule="evenodd">
        <g id="Vue.Search" transform="translate(-485.000000, -5109.000000)">
            <g id="Tutorials" transform="translate(399.000000, 5051.000000)">
                <g transform="translate(86.000000, 58.000000)">
                    <rect id="Rectangle-8-Copy-11" fill="#BEFFD2" x="2" y="3" width="60" height="106"></rect>
                    <polygon id="Fill-1" fill="#102027" points="12 26 53 26 53 22 12 22"></polygon>
                    <polygon id="Fill-2" fill="#102027" points="12 39 53 39 53 35 12 35"></polygon>
                    <polygon id="Fill-3" fill="#102027" points="12 52 53 52 53 48 12 48"></polygon>
                    <polygon id="Fill-4" fill="#102027" points="12 64 53 64 53 60 12 60"></polygon>
                    <polygon id="Fill-5" fill="#102027" points="12 75 53 75 53 71 12 71"></polygon>
                    <polygon id="Fill-6" fill="#102027" points="12 87 53 87 53 83 12 83"></polygon>
                    <g id="Group-17">
                        <g id="Group-9">
                            <mask id="mask-2" fill="white">
                                <use xlink:href="#path-1"></use>
                            </mask>
                            <g id="Clip-8"></g>
                            <path d="M122.70221,107.906354 L71.2768593,107.906354 C69.1661037,107.864427 67.1072433,108.563125 65.4596335,109.881615 L65.4596335,10.2678125 C65.2105883,7.06911458 67.6053337,4.27458333 70.8084979,4.02588542 C70.9644446,4.01364583 71.120652,4.00791667 71.2768593,4.0084375 L122.70221,4.00840497 L122.70221,107.906354 Z M55.5119086,107.906354 L4.08655749,107.906354 L4.08655749,4.08106552 L55.4827012,4.08109375 C58.6957752,4.07119792 61.3080113,6.66442708 61.3176602,9.87276042 C61.3181817,10.02875 61.3121838,10.185 61.3001879,10.3404688 L61.3001879,109.867031 C59.6583152,108.560521 57.6109292,107.867031 55.5119086,107.906354 Z M71.2768593,0.000104166667 C68.2228614,0.04671875 65.3425431,1.42666667 63.3942536,3.77614583 C61.4462248,1.42666667 58.5661674,0.04671875 55.5119086,0.000104166667 L-0.000130390144,0.000104166667 L-0.000130390144,111.929271 L55.5119086,111.929271 C56.9524589,111.852708 58.3494589,112.435521 59.3078265,113.512083 C59.6377136,113.893594 59.9209209,114.313125 60.1511899,114.761302 C60.7715862,116.055833 61.169537,117.445156 61.3293953,118.871198 L61.3293953,125.000104 L65.4158224,125.000104 L65.4158224,118.929271 C65.590806,117.505573 66.0038819,116.121198 66.637578,114.833958 C66.8681078,114.385521 67.1510544,113.96625 67.4812023,113.585 C68.4252269,112.481094 69.8243131,111.870938 71.2768593,111.929271 L126.788898,111.929271 L126.788898,0.000104166667 L71.2768593,0.000104166667 Z" id="Fill-7" stroke="#102027" stroke-width="3" fill="#102027" mask="url(#mask-2)"></path>
                        </g>
                        <mask id="mask-4" fill="white">
                            <use xlink:href="#path-3"></use>
                        </mask>
                        <g id="Clip-11"></g>
                        <polygon id="Fill-10" fill="#102027" mask="url(#mask-4)" points="73.6328789 27.0419271 114.543308 27.0419271 114.543308 22.9609375 73.6328789 22.9609375"></polygon>
                        <polygon id="Fill-12" fill="#102027" mask="url(#mask-4)" points="73.6328789 39.2557292 114.543308 39.2557292 114.543308 35.1747396 73.6328789 35.1747396"></polygon>
                        <polygon id="Fill-13" fill="#102027" mask="url(#mask-4)" points="73.6328789 51.4697917 114.543308 51.4697917 114.543308 47.3888021 73.6328789 47.3888021"></polygon>
                        <polygon id="Fill-14" fill="#102027" mask="url(#mask-4)" points="73.6328789 63.6690104 114.543308 63.6690104 114.543308 59.5880208 73.6328789 59.5880208"></polygon>
                        <polygon id="Fill-15" fill="#102027" mask="url(#mask-4)" points="73.6328789 75.3166667 114.543308 75.3166667 114.543308 71.2356771 73.6328789 71.2356771"></polygon>
                        <polygon id="Fill-16" fill="#102027" mask="url(#mask-4)" points="73.6328789 87.4869792 114.543308 87.4869792 114.543308 83.4059896 73.6328789 83.4059896"></polygon>
                    </g>
                </g>
            </g>
        </g>
    </g>
</svg>