<?xml version="1.0" encoding="utf-8"?>
<!-- Generator: Adobe Illustrator 16.0.0, SVG Export Plug-In . SVG Version: 6.00 Build 0)  -->
<!DOCTYPE svg PUBLIC "-//W3C//DTD SVG 1.1//EN" "http://www.w3.org/Graphics/SVG/1.1/DTD/svg11.dtd">
<svg version="1.1" id="Layer_1" xmlns="http://www.w3.org/2000/svg" xmlns:xlink="http://www.w3.org/1999/xlink" x="0px" y="0px"
	 width="617px" height="336px" viewBox="0 0 617 336" enable-background="new 0 0 617 336" xml:space="preserve">
<rect y="-1.36" fill="#FFFFFF" width="617" height="335.181"/>
<rect y="45.995" opacity="0.2" fill="#FEE84E" enable-background="new    " width="153.212" height="288.349"/>
<rect x="12.164" y="173.996" fill="#CDCCCC" width="127.361" height="9.084"/>
<rect x="12.164" y="71.667" fill="#CDCCCC" width="127.361" height="9.084"/>
<rect x="12.164" y="230.039" fill="#CDCCCC" width="127.361" height="9.084"/>
<line opacity="0.5" fill="none" stroke="#E6E6E5" stroke-width="2" stroke-miterlimit="10" enable-background="new    " x1="12.911" y1="201.789" x2="137.719" y2="201.789"/>
<line fill="none" stroke="#989898" stroke-width="2" stroke-miterlimit="10" x1="32.708" y1="201.789" x2="118.783" y2="201.789"/>
<rect x="37.881" y="253.222" opacity="0.5" fill="#E6E6E5" enable-background="new    " width="80.768" height="7.674"/>
<path fill="#E6E6E5" d="M30.501,260.149c0,2.469-1.924,4.47-4.298,4.47h-6.167c-2.373,0-4.299-2.001-4.299-4.47v-6.413
	c0-2.47,1.925-4.466,4.299-4.466h6.167c2.374,0,4.298,1.996,4.298,4.466V260.149z"/>
<rect x="37.881" y="277.162" opacity="0.5" fill="#E6E6E5" enable-background="new    " width="80.768" height="7.676"/>
<path fill="#E6E6E5" d="M30.501,284.091c0,2.469-1.924,4.471-4.298,4.471h-6.167c-2.373,0-4.299-2.002-4.299-4.471v-6.413
	c0-2.469,1.925-4.467,4.299-4.467h6.167c2.374,0,4.298,1.998,4.298,4.467V284.091z"/>
<rect x="37.881" y="301.104" opacity="0.5" fill="#E6E6E5" enable-background="new    " width="80.768" height="7.675"/>
<path fill="#E6E6E5" d="M30.501,308.031c0,2.469-1.924,4.472-4.298,4.472h-6.167c-2.373,0-4.299-2.003-4.299-4.472v-6.412
	c0-2.47,1.925-4.466,4.299-4.466h6.167c2.374,0,4.298,1.996,4.298,4.466V308.031z"/>
<ellipse fill="#989898" cx="23.119" cy="256.943" rx="3.58" ry="3.722"/>
<ellipse fill="#989898" cx="30.505" cy="201.763" rx="2.706" ry="2.814"/>
<ellipse fill="#989898" cx="116.682" cy="201.763" rx="2.707" ry="2.814"/>
<rect x="268.496" y="223.36" opacity="0.3" fill="#CDCCCC" enable-background="new    " width="282.088" height="9.176"/>
<rect x="268.496" y="235.873" opacity="0.3" fill="#CDCCCC" enable-background="new    " width="282.088" height="9.177"/>
<rect x="268.496" y="205.838" fill="#CDCCCC" width="104.167" height="10.847"/>
<rect x="268.496" y="288.411" opacity="0.3" fill="#CDCCCC" enable-background="new    " width="282.088" height="9.177"/>
<rect x="268.496" y="300.925" opacity="0.3" fill="#CDCCCC" enable-background="new    " width="282.088" height="9.177"/>
<rect x="268.496" y="270.892" fill="#CDCCCC" width="104.167" height="10.846"/>
<rect x="268.496" y="157.969" opacity="0.3" fill="#CDCCCC" enable-background="new    " width="282.088" height="9.177"/>
<rect x="268.496" y="170.481" opacity="0.3" fill="#CDCCCC" enable-background="new    " width="282.088" height="9.179"/>
<rect x="268.496" y="144.6" fill="#CDCCCC" width="104.167" height="10.846"/>
<rect x="268.496" y="93.618" opacity="0.3" fill="#CDCCCC" enable-background="new    " width="282.088" height="9.176"/>
<rect x="268.496" y="106.13" opacity="0.3" fill="#CDCCCC" enable-background="new    " width="282.088" height="9.18"/>
<rect x="268.496" y="76.099" fill="#CDCCCC" width="110.664" height="10.844"/>
<rect x="203.597" y="69.423" opacity="0.5" fill="#71C6A5" enable-background="new    " width="47.865" height="49.224"/>
<polygon opacity="0.5" fill="#71C6A5" enable-background="new    " points="251.46,118.646 203.597,118.646 203.597,69.423 "/>
<g>
	<rect x="203.597" y="133.416" opacity="0.5" fill="#71C6A5" enable-background="new    " width="47.865" height="49.224"/>
	<polygon opacity="0.5" fill="#71C6A5" enable-background="new    " points="251.46,182.64 203.597,182.64 203.597,133.416 	"/>
</g>
<g>
	<rect x="203.597" y="198.967" opacity="0.5" fill="#71C6A5" enable-background="new    " width="47.865" height="49.224"/>
	<polygon opacity="0.5" fill="#71C6A5" enable-background="new    " points="251.46,248.189 203.597,248.189 203.597,198.967 	"/>
</g>
<g>
	<rect x="203.597" y="264.518" opacity="0.5" fill="#71C6A5" enable-background="new    " width="47.865" height="49.223"/>
	<polygon opacity="0.5" fill="#71C6A5" enable-background="new    " points="251.46,313.74 203.597,313.74 203.597,264.518 	"/>
</g>
<path opacity="0.5" fill="#E6E6E5" enable-background="new    " d="M43.898,114.811c0,1.083-1.084,2.626-2.126,2.626H24.998
	c-1.041,0-1.757-1.543-1.757-2.626V97.367c0-1.082,0.717-1.45,1.757-1.45h16.774c1.041,0,2.126,0.368,2.126,1.45V114.811z"/>
<path opacity="0.5" fill="#E6E6E5" enable-background="new    " d="M43.898,147.742c0,1.082-1.084,2.402-2.126,2.402H24.998
	c-1.041,0-1.757-1.32-1.757-2.402V130.3c0-1.082,0.717-1.674,1.757-1.674h16.774c1.041,0,2.126,0.592,2.126,1.674V147.742z"/>
<path opacity="0.5" fill="#E6E6E5" enable-background="new    " d="M71.442,114.811c0,1.083-0.382,2.626-1.424,2.626H53.245
	c-1.041,0-1.6-1.543-1.6-2.626V97.367c0-1.082,0.56-1.45,1.6-1.45h16.773c1.041,0,1.424,0.368,1.424,1.45V114.811z"/>
<path opacity="0.5" fill="#E6E6E5" enable-background="new    " d="M71.442,147.742c0,1.082-0.382,2.402-1.424,2.402H53.245
	c-1.041,0-1.6-1.32-1.6-2.402V130.3c0-1.082,0.56-1.674,1.6-1.674h16.773c1.041,0,1.424,0.592,1.424,1.674V147.742z"/>
<path opacity="0.5" fill="#E6E6E5" enable-background="new    " d="M100.707,114.811c0,1.083-0.544,2.626-1.584,2.626H82.347
	c-1.041,0-2.298-1.543-2.298-2.626V97.367c0-1.082,1.257-1.45,2.298-1.45h16.775c1.041,0,1.584,0.368,1.584,1.45V114.811z"/>
<path opacity="0.5" fill="#E6E6E5" enable-background="new    " d="M100.707,147.742c0,1.082-0.544,2.402-1.584,2.402H82.347
	c-1.041,0-2.298-1.32-2.298-2.402V130.3c0-1.082,1.257-1.674,2.298-1.674h16.775c1.041,0,1.584,0.592,1.584,1.674V147.742z"/>
<path opacity="0.5" fill="#E6E6E5" enable-background="new    " d="M129.112,114.811c0,1.083-0.703,2.626-1.743,2.626h-16.773
	c-1.041,0-2.142-1.543-2.142-2.626V97.367c0-1.082,1.1-1.45,2.142-1.45h16.773c1.041,0,1.743,0.368,1.743,1.45V114.811z"/>
<path opacity="0.5" fill="#E6E6E5" enable-background="new    " d="M129.112,147.742c0,1.082-0.703,2.402-1.743,2.402h-16.773
	c-1.041,0-2.142-1.32-2.142-2.402V130.3c0-1.082,1.1-1.674,2.142-1.674h16.773c1.041,0,1.743,0.592,1.743,1.674V147.742z"/>
<rect fill="#FEE84E" width="617" height="47.341"/>
<rect x="203.597" y="14.788" fill="#FFFFFF" width="311.54" height="16.516"/>
<g>
	<path fill="none" stroke="#034F66" stroke-width="2" stroke-miterlimit="10" d="M548.437,19.423
		c0.656,3.75-1.846,7.327-5.583,7.983c-3.73,0.66-7.294-1.855-7.943-5.609c-0.65-3.761,1.848-7.334,5.589-7.99
		C544.231,13.151,547.788,15.66,548.437,19.423z"/>
	<line fill="none" stroke="#034F66" stroke-width="2" stroke-miterlimit="10" x1="546.363" y1="25.661" x2="551.7" y2="31.521"/>
</g>
<g enable-background="new    ">
	<path fill="#034F66" d="M41.508,15.433h4.424c2.808,0,4.807,0.941,4.807,3.209c0,1.498-1.063,2.867-2.978,3.465l-0.042,0.086
		c1.574,0.385,2.34,1.241,2.34,2.524c0,3.337-2.851,4.621-6.083,4.621h-5.232L41.508,15.433z M44.231,26.729
		c1.702,0,2.552-0.728,2.552-1.883c0-1.027-0.595-1.54-1.872-1.54h-1.574l-0.681,3.423H44.231z M44.954,20.995
		c1.659,0,2.297-0.685,2.297-1.754c0-0.77-0.596-1.198-1.872-1.198h-0.979l-0.596,2.952H44.954z"/>
	<path fill="#034F66" d="M57.76,18.385c2.595,0,3.531,1.84,3.531,4.064c0,1.07-0.426,2.268-0.596,2.567h-5.743
		c0.042,1.412,0.979,2.011,2.212,2.011c0.596,0,1.319-0.342,1.787-0.685l1.191,2.14c-0.851,0.599-2.212,1.112-3.956,1.112
		c-2.595,0-4.424-1.754-4.424-4.621C51.762,21.038,54.91,18.385,57.76,18.385z M58.441,22.963c0.042-0.171,0.085-0.428,0.085-0.685
		c0-0.728-0.297-1.284-1.191-1.284c-0.808,0-1.659,0.599-2.127,1.968H58.441z"/>
	<path fill="#034F66" d="M63.632,25.873c0.766,0.898,1.489,1.241,2.127,1.241s1.191-0.3,1.191-0.728c0-0.556-0.681-0.77-1.787-1.412
		c-1.042-0.599-2.042-1.583-2.042-2.995c0-2.054,1.914-3.594,4.296-3.594c1.532,0,2.723,0.77,3.616,1.711l-1.83,1.754
		c-0.51-0.514-1.106-0.941-1.787-0.941s-1.106,0.342-1.106,0.77c0,0.599,0.894,0.856,1.702,1.327
		c1.021,0.556,2.127,1.412,2.127,2.995c0,2.139-1.914,3.594-4.594,3.594c-1.234,0-2.936-0.685-3.872-2.097L63.632,25.873z"/>
	<path fill="#034F66" d="M73.332,21.294h-1.361l0.51-2.524l1.532-0.128l0.936-2.738h2.851l-0.511,2.738h2.297l-0.511,2.652h-2.382
		l-0.809,4.022c-0.042,0.257-0.042,0.471-0.042,0.685c0,0.642,0.34,0.941,1.021,0.941c0.255,0,0.511-0.085,0.766-0.214l0.596,2.396
		c-0.596,0.214-1.489,0.471-2.68,0.471c-2.254,0-3.19-1.241-3.19-2.995c0-0.471,0.085-0.941,0.17-1.412L73.332,21.294z"/>
	<path fill="#034F66" d="M86.818,15.433h4.552c2.744,0,4.892,1.027,4.892,3.808c0,4.065-3.042,5.562-6.509,5.562H88.35l-0.893,4.535
		h-3.403L86.818,15.433z M90.158,22.107c1.744,0,2.744-0.813,2.744-2.353c0-1.112-0.745-1.626-2-1.626h-1.234l-0.766,3.979H90.158z"
		/>
	<path fill="#034F66" d="M98.433,18.642h2.765l-0.085,2.096h0.085c0.808-1.369,2.042-2.353,3.233-2.353
		c0.596,0,0.936,0.085,1.149,0.214l-1.106,2.952c-0.297-0.171-0.766-0.171-1.106-0.171c-0.894,0-1.659,0.556-2.467,1.968
		l-1.149,5.99h-3.403L98.433,18.642z"/>
	<path fill="#034F66" d="M106.985,18.642h3.403l-2.127,10.696h-3.403L106.985,18.642z M107.453,15.69
		c0-1.027,0.894-1.926,2.042-1.926c0.894,0,1.787,0.557,1.787,1.583c0,1.112-0.893,1.925-2.042,1.925
		C108.346,17.273,107.453,16.759,107.453,15.69z"/>
	<path fill="#034F66" d="M117.492,18.385c1.361,0,2.382,0.685,2.893,1.326l-1.872,2.011c-0.383-0.385-0.723-0.599-1.233-0.599
		c-1.532,0-2.68,1.797-2.68,3.979c0,1.07,0.51,1.754,1.531,1.754c0.638,0,1.064-0.3,1.447-0.599l1.404,2.097
		c-0.809,0.599-1.915,1.241-3.616,1.241c-2.382,0-4.254-1.626-4.254-4.45C111.111,21.551,113.834,18.385,117.492,18.385z"/>
	<path fill="#034F66" d="M126.278,18.385c2.595,0,3.531,1.84,3.531,4.064c0,1.07-0.426,2.268-0.596,2.567h-5.743
		c0.042,1.412,0.979,2.011,2.212,2.011c0.596,0,1.319-0.342,1.787-0.685l1.191,2.14c-0.851,0.599-2.212,1.112-3.956,1.112
		c-2.595,0-4.424-1.754-4.424-4.621C120.28,21.038,123.428,18.385,126.278,18.385z M126.958,22.963
		c0.042-0.171,0.085-0.428,0.085-0.685c0-0.728-0.297-1.284-1.191-1.284c-0.808,0-1.659,0.599-2.127,1.968H126.958z"/>
</g>
<g>
	<g>
		<path fill="#034F66" d="M24.501,27.667c-0.593,0-1.076,0.484-1.076,1.081c0,0.595,0.483,1.081,1.076,1.081
			c0.592,0,1.074-0.486,1.074-1.081C25.575,28.151,25.094,27.667,24.501,27.667z"/>
		<path fill="#034F66" d="M34.948,19.408c-0.269-0.347-0.643-0.529-1.078-0.529H23.862l0.118-1.502
			c0.003-0.045,0.005-0.084,0.005-0.121c0-0.381-0.144-0.729-0.385-0.988c-0.238-0.259-0.572-0.43-0.95-0.459
			c-0.042-0.004-0.082-0.005-0.12-0.005h-3.124c-0.273,0-0.497,0.224-0.497,0.501c0,0.275,0.224,0.5,0.497,0.5h3.124
			c0.018,0,0.032,0,0.042,0.002c0.122,0.01,0.229,0.062,0.302,0.142c0.072,0.079,0.116,0.188,0.116,0.308
			c0,0.018,0,0.032-0.001,0.042l-0.701,8.913c-0.009,0.116,0.025,0.219,0.106,0.304c0.077,0.085,0.176,0.128,0.292,0.128h9.945
			c0.637,0,1.176-0.423,1.329-1.046l1.239-5.008C35.304,20.163,35.217,19.752,34.948,19.408z"/>
		<path fill="#034F66" d="M31.731,27.667c-0.593,0-1.076,0.484-1.076,1.081c0,0.595,0.483,1.081,1.076,1.081
			c0.592,0,1.075-0.486,1.075-1.081C32.806,28.151,32.322,27.667,31.731,27.667z"/>
	</g>
</g>
</svg>
