<?xml version="1.0" encoding="utf-8"?>
<!-- Generator: Adobe Illustrator 16.0.0, SVG Export Plug-In . SVG Version: 6.00 Build 0)  -->
<!DOCTYPE svg PUBLIC "-//W3C//DTD SVG 1.1//EN" "http://www.w3.org/Graphics/SVG/1.1/DTD/svg11.dtd">
<svg version="1.1" id="Layer_1" xmlns="http://www.w3.org/2000/svg" xmlns:xlink="http://www.w3.org/1999/xlink" x="0px" y="0px"
	 width="617px" height="336px" viewBox="0 0 617 336" enable-background="new 0 0 617 336" xml:space="preserve">
<rect x="-3.005" y="-3.134" fill="#FFFFFF" width="624.005" height="342.756"/>
<rect x="101.402" y="258.875" opacity="0.3" fill="#CDCCCC" enable-background="new    " width="256.559" height="9.385"/>
<rect x="101.402" y="271.671" opacity="0.3" fill="#CDCCCC" enable-background="new    " width="256.559" height="9.385"/>
<rect x="101.402" y="240.957" fill="#CDCCCC" width="84.498" height="11.092"/>
<rect x="101.402" y="315.714" opacity="0.3" fill="#CDCCCC" enable-background="new    " width="256.559" height="9.386"/>
<rect x="101.402" y="328.119" opacity="0.3" fill="#CDCCCC" enable-background="new    " width="256.559" height="9.385"/>
<rect x="101.402" y="297.801" fill="#CDCCCC" width="84.498" height="11.09"/>
<rect x="101.402" y="200.809" opacity="0.3" fill="#CDCCCC" enable-background="new    " width="256.559" height="9.386"/>
<rect x="101.402" y="213.604" opacity="0.3" fill="#CDCCCC" enable-background="new    " width="256.559" height="9.387"/>
<rect x="101.402" y="187.137" fill="#CDCCCC" width="84.498" height="11.092"/>
<rect x="101.402" y="135.003" opacity="0.3" fill="#CDCCCC" enable-background="new    " width="256.559" height="9.384"/>
<rect x="101.402" y="147.798" opacity="0.3" fill="#CDCCCC" enable-background="new    " width="256.559" height="9.388"/>
<rect x="101.402" y="117.087" fill="#CDCCCC" width="89.767" height="11.09"/>
<rect x="-3.501" y="-4" fill="#F15F55" width="624.005" height="48.411"/>
<g enable-background="new    ">
	<path fill="#FFFFFF" d="M258.602,14.16h3.276l1.877,4.985l0.663,1.957h0.073l0.663-1.957l1.804-4.985h3.275v12.001h-2.944v-3.545
		c0-1.219,0.258-3.083,0.405-4.283h-0.074l-0.994,2.806l-1.656,4.043h-1.178l-1.656-4.043l-0.957-2.806h-0.074
		c0.147,1.2,0.405,3.064,0.405,4.283v3.545h-2.908V14.16z"/>
	<path fill="#FFFFFF" d="M276.562,16.708c2.724,0,4.012,1.994,4.012,4.468c0,0.554-0.074,1.034-0.129,1.255H275.2
		c0.294,1.182,1.104,1.551,2.135,1.551c0.625,0,1.214-0.185,1.877-0.554l1.031,1.883c-0.994,0.702-2.319,1.071-3.35,1.071
		c-2.687,0-4.748-1.772-4.748-4.837C272.145,18.554,274.316,16.708,276.562,16.708z M277.887,20.511
		c0-0.775-0.295-1.403-1.251-1.403c-0.699,0-1.288,0.388-1.472,1.403H277.887z"/>
	<path fill="#FFFFFF" d="M286.24,16.708c2.724,0,4.012,1.994,4.012,4.468c0,0.554-0.074,1.034-0.129,1.255h-5.245
		c0.294,1.182,1.104,1.551,2.135,1.551c0.625,0,1.214-0.185,1.877-0.554l1.031,1.883c-0.994,0.702-2.319,1.071-3.35,1.071
		c-2.687,0-4.748-1.772-4.748-4.837C281.824,18.554,283.995,16.708,286.24,16.708z M287.565,20.511c0-0.775-0.295-1.403-1.251-1.403
		c-0.699,0-1.288,0.388-1.472,1.403H287.565z"/>
	<path fill="#FFFFFF" d="M292.018,19.404h-1.214v-2.363l1.398-0.111l0.368-2.4h2.613v2.4h2.098v2.474h-2.098v3.157
		c0,1.015,0.516,1.348,1.104,1.348c0.294,0,0.589-0.074,0.81-0.148l0.479,2.29c-0.479,0.148-1.16,0.333-2.172,0.333
		c-2.392,0-3.386-1.514-3.386-3.767V19.404z"/>
	<path fill="#FFFFFF" d="M298.899,16.93h3.165v5.28c0,1.182,0.294,1.477,0.92,1.477c0.589,0,0.92-0.222,1.325-0.812V16.93h3.165
		v9.231h-2.576l-0.221-1.219h-0.074c-0.736,0.886-1.583,1.44-2.834,1.44c-2.024,0-2.871-1.477-2.871-3.767V16.93z"/>
	<path fill="#FFFFFF" d="M312.774,26.863v2.548h-3.166V16.93h2.577l0.221,0.849h0.073c0.681-0.627,1.583-1.071,2.503-1.071
		c2.171,0,3.57,1.846,3.57,4.689c0,3.176-1.878,4.985-3.828,4.985c-0.772,0-1.473-0.333-2.061-0.923L312.774,26.863z
		 M313.952,23.798c0.735,0,1.361-0.591,1.361-2.363c0-1.514-0.441-2.142-1.288-2.142c-0.479,0-0.847,0.185-1.251,0.665v3.397
		C313.142,23.687,313.547,23.798,313.952,23.798z"/>
	<path fill="#FFFFFF" d="M320.539,14.16h4.306c2.503,0,4.527,0.628,4.527,2.991c0,1.034-0.589,2.215-1.987,2.584v0.074
		c1.692,0.333,2.539,1.219,2.539,2.807c0,2.474-2.135,3.545-4.711,3.545h-4.674V14.16z M324.771,18.887
		c1.03,0,1.509-0.517,1.509-1.255c0-0.739-0.479-1.034-1.509-1.034h-1.067v2.29H324.771z M324.992,23.724
		c1.251,0,1.84-0.48,1.84-1.366s-0.589-1.256-1.84-1.256h-1.288v2.622H324.992z"/>
	<path fill="#FFFFFF" d="M331.543,13.311h3.165v9.712c0,0.628,0.295,0.812,0.516,0.812c0.11,0,0.184,0,0.331-0.037l0.368,2.326
		c-0.331,0.148-0.847,0.259-1.546,0.259c-2.135,0-2.834-1.403-2.834-3.471V13.311z"/>
	<path fill="#FFFFFF" d="M341.737,20.179c-0.073-0.665-0.479-0.96-1.288-0.96c-0.662,0-1.362,0.259-2.318,0.776l-1.104-2.068
		c1.288-0.775,2.613-1.219,4.049-1.219c2.392,0,3.827,1.292,3.827,4.32v5.133h-2.576l-0.221-0.886h-0.074
		c-0.735,0.665-1.545,1.108-2.539,1.108c-1.729,0-2.761-1.33-2.761-2.843C336.731,21.619,338.204,20.548,341.737,20.179z
		 M340.597,23.945c0.515,0,0.81-0.258,1.141-0.627v-1.255c-1.509,0.221-1.987,0.701-1.987,1.218
		C339.75,23.706,340.044,23.945,340.597,23.945z"/>
	<path fill="#FFFFFF" d="M347.662,23.133c0.847,0.627,1.602,0.923,2.245,0.923c0.663,0,0.92-0.185,0.92-0.554
		c0-0.48-0.846-0.702-1.767-1.071c-1.066-0.425-2.318-1.219-2.318-2.732c0-1.81,1.473-2.991,3.644-2.991
		c1.509,0,2.576,0.609,3.386,1.219l-1.398,1.883c-0.662-0.48-1.307-0.775-1.877-0.775c-0.533,0-0.81,0.148-0.81,0.517
		c0,0.48,0.81,0.665,1.729,0.997c1.104,0.406,2.355,1.108,2.355,2.77c0,1.735-1.361,3.065-3.938,3.065
		c-1.178,0-2.613-0.517-3.57-1.292L347.662,23.133z"/>
	<path fill="#FFFFFF" d="M355.723,19.404h-1.215v-2.363l1.398-0.111l0.368-2.4h2.613v2.4h2.098v2.474h-2.098v3.157
		c0,1.015,0.515,1.348,1.104,1.348c0.295,0,0.589-0.074,0.81-0.148l0.479,2.29c-0.479,0.148-1.159,0.333-2.171,0.333
		c-2.393,0-3.386-1.514-3.386-3.767V19.404z"/>
</g>
<rect x="375.425" y="204.606" fill="#F9F9FA" width="141.712" height="123.228"/>
<rect x="387.415" y="218.325" fill="#CDCCCC" width="118.425" height="10.095"/>
<path fill="#CDCCCC" d="M402.711,266.829c0,0.636-0.149,1.151-0.784,1.151h-11.758c-0.636,0-1.541-0.516-1.541-1.151V255.05
	c0-0.638,0.905-1.152,1.541-1.152h11.758c0.635,0,0.784,0.515,0.784,1.152V266.829z"/>
<path fill="#CDCCCC" d="M419.435,266.829c0,0.636-0.515,1.151-1.15,1.151h-11.783c-0.636,0-1.15-0.516-1.15-1.151V255.05
	c0-0.638,0.515-1.152,1.15-1.152h11.783c0.636,0,1.15,0.515,1.15,1.152V266.829z"/>
<path fill="#CDCCCC" d="M437.038,250.104c0,0.637-0.217,1.153-0.852,1.153h-11.756c-0.636,0-1.475-0.517-1.475-1.153v-11.775
	c0-0.639,0.839-1.154,1.475-1.154h11.756c0.635,0,0.852,0.516,0.852,1.154V250.104z"/>
<path fill="#CDCCCC" d="M436.158,266.311c0,0.638,0.507,1.67-0.13,1.67h-11.642c-0.634,0-1.431-1.033-1.431-1.67v-11.678
	c0-0.637,0.797-0.735,1.431-0.735h11.642c0.638,0,0.13,0.099,0.13,0.735V266.311z"/>
<path fill="#CDCCCC" d="M401.831,283.291c0,0.638-0.021,1.413-0.653,1.413h-11.645c-0.634,0-1.785-0.776-1.785-1.413v-11.678
	c0-0.638,1.152-0.992,1.785-0.992h11.645c0.633,0,0.653,0.354,0.653,0.992V283.291z"/>
<path fill="#CDCCCC" d="M400.95,299.862c0,0.636-0.548,1.566-1.18,1.566h-10.55c-0.636,0-1.474-0.931-1.474-1.566v-10.58
	c0-0.638,0.838-1.057,1.474-1.057h10.55c0.632,0,1.18,0.419,1.18,1.057V299.862z"/>
<path fill="#CDCCCC" d="M418.555,283.551c0,0.637-0.181,1.153-0.816,1.153h-11.757c-0.634,0-1.51-0.517-1.51-1.153v-11.776
	c0-0.637,0.876-1.154,1.51-1.154h11.757c0.636,0,0.816,0.518,0.816,1.154V283.551z"/>
<path fill="#CDCCCC" d="M418.555,301.155c0,0.637-0.181,1.153-0.816,1.153h-11.757c-0.634,0-1.51-0.517-1.51-1.153v-11.776
	c0-0.639,0.876-1.153,1.51-1.153h11.757c0.636,0,0.816,0.515,0.816,1.153V301.155z"/>
<path fill="#CDCCCC" d="M435.278,283.158c0,0.61,0.67,1.546-0.144,1.546h-11.098c-0.812,0-1.962-0.936-1.962-1.546v-11.872
	c0-0.61,1.149-0.665,1.962-0.665h11.098c0.813,0,0.144,0.055,0.144,0.665V283.158z"/>
<path fill="#CDCCCC" d="M436.158,301.155c0,0.637-0.515,1.153-1.151,1.153h-11.782c-0.635,0-1.15-0.517-1.15-1.153v-11.776
	c0-0.639,0.516-1.153,1.15-1.153h11.782c0.637,0,1.151,0.515,1.151,1.153V301.155z"/>
<path fill="#CDCCCC" d="M472.246,249.33c0,0.639,0.266,1.927-0.368,1.927h-11.642c-0.636,0-2.072-1.289-2.072-1.927v-11.678
	c0-0.637,1.438-0.478,2.072-0.478h11.642c0.634,0,0.368-0.159,0.368,0.478V249.33z"/>
<path fill="#CDCCCC" d="M472.246,266.829c0,0.636-0.515,1.151-1.149,1.151h-11.784c-0.635,0-1.149-0.516-1.149-1.151V255.05
	c0-0.638,0.515-1.152,1.149-1.152h11.784c0.635,0,1.149,0.515,1.149,1.152V266.829z"/>
<path fill="#CDCCCC" d="M488.97,250.104c0,0.637-0.32,1.153-0.955,1.153H476.26c-0.637,0-1.373-0.517-1.373-1.153v-11.775
	c0-0.639,0.736-1.154,1.373-1.154h11.755c0.635,0,0.955,0.516,0.955,1.154V250.104z"/>
<path fill="#CDCCCC" d="M488.97,266.829c0,0.636-0.514,1.151-1.149,1.151h-11.784c-0.636,0-1.149-0.516-1.149-1.151V255.05
	c0-0.638,0.514-1.152,1.149-1.152h11.784c0.636,0,1.149,0.515,1.149,1.152V266.829z"/>
<path fill="#CDCCCC" d="M504.814,247.958c0,0.638,0.325,1.539-0.312,1.539h-9.879c-0.633,0-3.895-0.901-3.895-1.539v-9.909
	c0-0.636,3.262-0.874,3.895-0.874h9.879c0.637,0,0.312,0.238,0.312,0.874V247.958z"/>
<path fill="#CDCCCC" d="M504.814,266.311c0,0.638,0.56,1.67-0.075,1.67h-11.643c-0.635,0-2.366-1.033-2.366-1.67v-11.678
	c0-0.637,1.732-0.735,2.366-0.735h11.643c0.635,0,0.075,0.099,0.075,0.735V266.311z"/>
<path fill="#CDCCCC" d="M504.814,283.551c0,0.637-0.353,1.153-0.988,1.153h-11.753c-0.637,0-1.342-0.517-1.342-1.153v-11.776
	c0-0.637,0.706-1.154,1.342-1.154h11.753c0.636,0,0.988,0.518,0.988,1.154V283.551z"/>
<path fill="#CDCCCC" d="M470.485,282.703c0,0.637,1.439,1.121,0.804,1.121h-10.858c-0.634,0-2.267-0.485-2.267-1.121v-10.892
	c0-0.638,1.633-1.19,2.267-1.19h10.858c0.636,0-0.804,0.553-0.804,1.19V282.703z"/>
<path fill="#CDCCCC" d="M470.485,299.96c0,0.638,1.439,1.469,0.804,1.469h-10.858c-0.634,0-2.267-0.831-2.267-1.469v-10.891
	c0-0.637,1.633-0.844,2.267-0.844h10.858c0.636,0-0.804,0.207-0.804,0.844V299.96z"/>
<path fill="#CDCCCC" d="M488.091,282.703c0,0.637,0.03,1.121-0.606,1.121h-10.858c-0.637,0-2.619-0.485-2.619-1.121v-10.892
	c0-0.638,1.982-1.19,2.619-1.19h10.858c0.638,0,0.606,0.553,0.606,1.19V282.703z"/>
<path fill="#CDCCCC" d="M488.091,300.404c0,0.808,0.504,1.904-0.31,1.904h-11.089c-0.813,0-2.686-1.097-2.686-1.904v-11.156
	c0-0.808,1.872-1.022,2.686-1.022h11.089c0.813,0,0.31,0.215,0.31,1.022V300.404z"/>
<path fill="#CDCCCC" d="M504.814,301.155c0,0.637-0.353,1.153-0.988,1.153h-11.753c-0.637,0-1.342-0.517-1.342-1.153v-11.776
	c0-0.639,0.706-1.153,1.342-1.153h11.753c0.636,0,0.988,0.515,0.988,1.153V301.155z"/>
<path fill="#CDCCCC" d="M400.95,318.27c0,0.637-0.548,1.643-1.18,1.643h-10.55c-0.636,0-1.474-1.006-1.474-1.643V307.69
	c0-0.639,0.838-0.98,1.474-0.98h10.55c0.632,0,1.18,0.344,1.18,0.98V318.27z"/>
<path fill="#CDCCCC" d="M418.555,319.639c0,0.637-0.181,1.153-0.816,1.153h-11.757c-0.634,0-1.51-0.517-1.51-1.153v-11.775
	c0-0.639,0.876-1.154,1.51-1.154h11.757c0.636,0,0.816,0.516,0.816,1.154V319.639z"/>
<path fill="#CDCCCC" d="M435.278,318.461c0,0.559,0.67,1.451-0.144,1.451h-11.098c-0.812,0-1.962-0.893-1.962-1.451V307.28
	c0-0.56,1.149-0.569,1.962-0.569h11.098c0.813,0,0.144,0.012,0.144,0.569V318.461z"/>
<path fill="#CDCCCC" d="M454.643,250.104c0,0.637-0.253,1.153-0.888,1.153H442c-0.637,0-1.44-0.517-1.44-1.153v-11.775
	c0-0.639,0.804-1.154,1.44-1.154h11.755c0.635,0,0.888,0.516,0.888,1.154V250.104z"/>
<path fill="#CDCCCC" d="M454.643,266.311c0,0.638,0.45,1.67-0.187,1.67h-11.641c-0.636,0-2.256-1.033-2.256-1.67v-11.678
	c0-0.637,1.621-0.735,2.256-0.735h11.641c0.637,0,0.187,0.099,0.187,0.735V266.311z"/>
<path fill="#CDCCCC" d="M453.762,283.158c0,0.61,0.614,1.546-0.198,1.546h-11.1c-0.812,0-2.784-0.936-2.784-1.546v-11.872
	c0-0.61,1.972-0.665,2.784-0.665h11.1c0.812,0,0.198,0.055,0.198,0.665V283.158z"/>
<path fill="#CDCCCC" d="M453.762,301.155c0,0.637-0.251,1.153-0.887,1.153h-11.753c-0.636,0-1.442-0.517-1.442-1.153v-11.776
	c0-0.639,0.807-1.153,1.442-1.153h11.754c0.636,0,0.887,0.515,0.887,1.153L453.762,301.155L453.762,301.155z"/>
<path fill="#CDCCCC" d="M453.762,318.461c0,0.559,0.614,1.451-0.198,1.451h-11.1c-0.812,0-2.784-0.893-2.784-1.451V307.28
	c0-0.56,1.972-0.569,2.784-0.569h11.1c0.812,0,0.198,0.012,0.198,0.569V318.461z"/>
<path fill="#CDCCCC" d="M470.485,319.248c0,0.639,1.031,1.544,0.396,1.544h-11.643c-0.635,0-2.837-0.905-2.837-1.544V307.57
	c0-0.637,2.202-0.86,2.837-0.86h11.643c0.635,0-0.396,0.225-0.396,0.86V319.248z"/>
<rect x="100.803" y="36.489" fill="#818181" width="416.333" height="40.489"/>
<rect x="113.899" y="48.416" fill="#FFFFFF" width="187.934" height="16.89"/>
<g>
	<g>
		<path fill="#F15F55" d="M290.249,60.18c-2.125,0-3.929-1.523-4.291-3.621c-0.414-2.377,1.18-4.648,3.551-5.063
			c2.411-0.426,4.637,1.212,5.043,3.558c0.415,2.373-1.176,4.644-3.546,5.061C290.752,60.159,290.499,60.18,290.249,60.18z
			 M290.265,52.43c-0.192,0-0.387,0.017-0.583,0.051c-1.829,0.32-3.058,2.073-2.738,3.908c0.312,1.808,2.031,3.067,3.889,2.741
			c1.828-0.322,3.055-2.073,2.734-3.904C293.287,53.605,291.898,52.43,290.265,52.43z"/>
	</g>
	<g>
		
			<rect x="292.167" y="59.786" transform="matrix(0.6742 0.7385 -0.7385 0.6742 140.4206 -197.7729)" fill="#F15F55" width="4.453" height="1"/>
	</g>
</g>
<rect x="12" y="16.822" fill="#FFFFFF" width="82.644" height="7.785"/>
<rect x="323.493" y="55.853" fill="#989898" width="88.9" height="4.401"/>
<rect x="432.218" y="16.822" fill="#FFFFFF" width="54.406" height="7.785"/>
<ellipse fill="#FFFFFF" cx="591.554" cy="20.714" rx="9.36" ry="9.388"/>
<ellipse fill="#FFFFFF" cx="562.594" cy="20.714" rx="9.36" ry="9.388"/>
<line fill="none" stroke="#CDCCCC" stroke-miterlimit="10" x1="100.803" y1="172.479" x2="358.701" y2="172.479"/>
<rect x="429.997" y="48.812" fill="#CDCCCC" width="37.848" height="16.724"/>
<rect x="466.966" y="48.812" fill="#989898" width="38.728" height="16.724"/>
<rect x="384.834" y="113.335" fill="#CDCCCC" width="121.096" height="10.149"/>
<rect x="384.834" y="139.515" fill="#F15F55" width="121.096" height="10.15"/>
<rect x="384.834" y="164.559" fill="#CDCCCC" width="121.096" height="10.15"/>
</svg>
