<?xml version="1.0" encoding="utf-8"?>
<!-- Generator: Adobe Illustrator 16.0.0, SVG Export Plug-In . SVG Version: 6.00 Build 0)  -->
<!DOCTYPE svg PUBLIC "-//W3C//DTD SVG 1.1//EN" "http://www.w3.org/Graphics/SVG/1.1/DTD/svg11.dtd">
<svg version="1.1" id="Layer_1" xmlns="http://www.w3.org/2000/svg" xmlns:xlink="http://www.w3.org/1999/xlink" x="0px" y="0px"
	 width="617px" height="336px" viewBox="0 0 617 336" enable-background="new 0 0 617 336" xml:space="preserve">
<rect fill="#F4F4F4" width="617" height="336.377"/>
<rect y="0.5" fill="#F05A5E" width="617" height="43"/>
<rect y="118.5" fill="#FFFFFF" width="617" height="218"/>
<circle fill="#FFFFFF" stroke="#E6E6E6" stroke-miterlimit="10" cx="556.811" cy="21.722" r="9.224"/>
<rect x="106.018" y="228.021" opacity="0.3" fill="#CCCCCC" width="266.806" height="9.146"/>
<rect x="106.018" y="240.492" opacity="0.3" fill="#CCCCCC" width="266.806" height="9.146"/>
<rect x="105.271" y="210.56" fill="#CCCCCC" width="115.759" height="10.81"/>
<rect x="56.533" y="203.907" opacity="0.2" fill="#F05A5E" width="45.527" height="49.057"/>
<rect x="106.018" y="292.854" opacity="0.3" fill="#CCCCCC" width="266.806" height="9.147"/>
<rect x="106.018" y="305.326" opacity="0.3" fill="#CCCCCC" width="266.806" height="9.146"/>
<rect x="105.271" y="275.396" fill="#CCCCCC" width="115.759" height="10.809"/>
<rect x="56.533" y="268.742" opacity="0.2" fill="#F05A5E" width="45.527" height="49.059"/>
<rect x="106.018" y="162.851" opacity="0.3" fill="#CCCCCC" width="266.806" height="9.146"/>
<rect x="106.018" y="175.322" opacity="0.3" fill="#CCCCCC" width="266.806" height="9.147"/>
<rect x="105.271" y="149.526" fill="#CCCCCC" width="115.759" height="10.811"/>
<rect x="56.533" y="138.739" opacity="0.2" fill="#F05A5E" width="45.527" height="49.056"/>
<rect x="153.922" y="13.075" fill="#FFFFFF" stroke="#E6E6E6" stroke-miterlimit="10" width="318.438" height="16.592"/>
<g>
	<path fill="none" stroke="#E6E6E6" stroke-miterlimit="10" d="M490.439,19.2c0.381,2.17-1.072,4.238-3.248,4.619
		c-2.17,0.381-4.243-1.074-4.62-3.245c-0.379-2.175,1.075-4.244,3.25-4.623C487.992,15.571,490.062,17.023,490.439,19.2z"/>
	<line fill="none" stroke="#E6E6E6" stroke-miterlimit="10" x1="489.233" y1="22.809" x2="492.338" y2="26.198"/>
</g>
<text transform="matrix(1 0 0 1 51.6104 32.7202)" fill="#FFFFFF" font-family="'SourceSansPro-Black'" font-size="24.3942">Yelt </text>
<line fill="none" stroke="#E6E6E6" stroke-miterlimit="10" x1="0" y1="45" x2="617" y2="45"/>
<rect x="526.5" y="19" fill="#FFFFFF" stroke="#E6E6E6" stroke-miterlimit="10" width="11" height="9"/>
<rect x="87" y="55.5" fill="#F05A5E" width="67" height="4"/>
<rect x="212" y="55.5" fill="#F05A5E" width="66" height="4"/>
<rect x="338" y="55.5" fill="#F05A5E" width="66" height="4"/>
<rect x="463" y="55.5" fill="#F05A5E" width="66" height="4"/>
<rect x="87" y="66.5" fill="#CCCCCC" width="67" height="4"/>
<rect x="212" y="66.5" fill="#CCCCCC" width="66" height="4"/>
<rect x="338" y="66.5" fill="#CCCCCC" width="66" height="4"/>
<rect x="463" y="66.5" fill="#CCCCCC" width="66" height="4"/>
<rect x="87" y="78.5" fill="#CCCCCC" width="67" height="3"/>
<rect x="212" y="78.5" fill="#CCCCCC" width="66" height="3"/>
<rect x="338" y="78.5" fill="#CCCCCC" width="66" height="3"/>
<rect x="463" y="78.5" fill="#CCCCCC" width="66" height="3"/>
<path fill="#FFFFFF" d="M99.135,12.084c-2.215,0-4.013,1.7-4.013,3.796c0,2.877,4.013,6.599,4.013,6.599s4.013-3.722,4.013-6.599
	C103.148,13.784,101.351,12.084,99.135,12.084z M99.135,17.341c-0.815,0-1.476-0.662-1.476-1.477c0-0.814,0.661-1.476,1.476-1.476
	c0.814,0,1.477,0.661,1.477,1.476C100.612,16.679,99.95,17.341,99.135,17.341z"/>
<rect x="412.843" y="275.55" opacity="0.3" fill="#CCCCCC" width="143.407" height="6.445"/>
<rect x="412.843" y="291.672" opacity="0.3" fill="#CCCCCC" width="143.407" height="6.445"/>
<rect x="412.843" y="308.104" opacity="0.3" fill="#CCCCCC" width="92.631" height="6.444"/>
<g>
	<polygon fill="none" points="412.546,156.7 412.585,156.903 412.585,156.695 	"/>
	<polygon fill="none" points="547.565,138.979 547.551,138.908 547.021,138.979 	"/>
	<polygon fill="#EAEAEA" points="483.938,200.785 486.962,216.131 500.378,214.416 497.249,199.04 	"/>
	<polygon fill="#EAEAEA" points="498.312,197.841 512.696,195.953 509.408,179.286 494.918,181.168 	"/>
	<polygon fill="#EAEAEA" points="486.433,146.164 485.022,139.5 471.757,139.5 473.458,148.002 	"/>
	<polygon fill="#EAEAEA" points="455.43,150.249 453.237,139.5 441.161,139.5 443.616,151.936 	"/>
	<polygon fill="#EAEAEA" points="429.293,172.946 416.055,174.665 419.043,189.965 432.406,188.229 	"/>
	<polygon fill="#EAEAEA" points="509.203,178.253 506.185,162.959 491.598,164.855 494.707,180.136 	"/>
	<polygon fill="#EAEAEA" points="440.646,152.196 438.114,139.5 423.681,139.5 426.694,154.165 	"/>
	<polygon fill="#EAEAEA" points="502.403,144.059 501.45,139.5 486.33,139.5 487.705,146.126 	"/>
	<polygon fill="#EAEAEA" points="472.186,148.04 470.45,139.5 456.285,139.5 458.398,149.988 	"/>
	<polygon fill="#EAEAEA" points="542.63,262.5 555.875,262.5 552.542,245.86 539.762,247.871 	"/>
	<polygon fill="#EAEAEA" points="432.617,189.262 419.244,191 422.523,207.782 436.029,206.011 	"/>
	<polygon fill="#EAEAEA" points="539.556,246.044 552.327,244.3 549.055,228.482 536.374,230.113 	"/>
	<polygon fill="#EAEAEA" points="441.304,225.5 444.437,240.875 457.688,239.17 454.684,223.789 	"/>
	<polygon fill="#EAEAEA" points="540.81,174.146 554.291,172.396 551.214,157.111 537.717,158.865 	"/>
	<polygon fill="#EAEAEA" points="472.71,221.484 475.767,236.846 489.392,235.094 486.365,219.739 	"/>
	<polygon fill="#EAEAEA" points="468.979,202.748 472.022,218.04 485.688,216.294 482.664,200.954 	"/>
	<polygon fill="#EAEAEA" points="483.734,199.753 497.04,198.008 493.646,181.335 480.441,183.049 	"/>
	<polygon fill="#EAEAEA" points="412,210.146 412,225.637 424.115,224.126 421.013,208.983 	"/>
	<polygon fill="#EAEAEA" points="479.17,183.215 465.446,184.997 468.773,201.715 482.46,199.921 	"/>
	<polygon fill="#EAEAEA" points="534.042,140.95 537.229,156.584 550.731,155.027 547.565,139.5 547.021,139.5 	"/>
	<polygon fill="#EAEAEA" points="451.033,205.103 437.511,206.876 440.604,222.056 454.011,220.343 	"/>
	<polygon fill="#EAEAEA" points="447.558,187.32 433.89,189.096 437.302,205.843 450.831,204.069 	"/>
	<polygon fill="#EAEAEA" points="462.475,185.384 450.531,186.935 453.803,203.678 465.804,202.104 	"/>
	<polygon fill="#EAEAEA" points="460.864,239.821 464.067,256.224 476.251,254.591 473.001,238.261 	"/>
	<polygon fill="#EAEAEA" points="520.93,231.039 534.895,229.244 531.836,213.927 517.903,215.708 	"/>
	<polygon fill="#EAEAEA" points="458.744,166.647 455.634,151.022 443.818,152.578 446.868,168.188 	"/>
	<polygon fill="#EAEAEA" points="524.062,253.529 519.859,232.237 519.797,232.245 	"/>
	<polygon fill="#EAEAEA" points="501.653,214.252 515.949,212.425 512.901,196.987 498.522,198.873 	"/>
	<polygon fill="#EAEAEA" points="457.893,240.203 444.648,241.906 448.004,258.379 461.1,256.622 	"/>
	<polygon fill="#EAEAEA" points="459.225,169.058 447.34,170.603 450.329,185.9 462.269,184.35 	"/>
	<polygon fill="#EAEAEA" points="502.354,217.694 505.474,233.026 519.655,231.203 516.629,215.871 	"/>
	<polygon fill="#EAEAEA" points="517.223,212.262 531.147,210.481 528.055,194.998 514.175,196.82 	"/>
	<polygon fill="#EAEAEA" points="487.641,219.576 490.667,234.931 504.201,233.19 501.081,217.858 	"/>
	<polygon fill="#EAEAEA" points="513.972,195.786 527.85,193.966 524.525,177.322 510.681,179.121 	"/>
	<polygon fill="#EAEAEA" points="520.784,158.59 517.642,142.85 503.88,144.663 506.983,160.383 	"/>
	<polygon fill="#EAEAEA" points="505.709,160.548 502.606,144.831 487.916,146.767 491.106,162.443 	"/>
	<polygon fill="#EAEAEA" points="510.478,178.087 524.319,176.288 521.266,161.001 507.46,162.794 	"/>
	<polygon fill="#EAEAEA" points="489.834,162.61 486.644,146.935 473.662,148.646 476.748,164.31 	"/>
	<polygon fill="#EAEAEA" points="475.476,164.474 472.389,148.813 458.604,150.63 461.718,166.262 	"/>
	<polygon fill="#EAEAEA" points="440.849,152.97 426.905,154.806 430.076,170.371 443.896,168.575 	"/>
	<polygon fill="#EAEAEA" points="522.058,158.425 535.956,156.62 532.767,140.856 518.914,142.682 	"/>
	<polygon fill="#EAEAEA" points="532.421,210.319 546.456,208.525 543.315,192.997 529.328,194.831 	"/>
	<polygon fill="#EAEAEA" points="536.168,229.08 548.841,227.45 545.676,212.158 533.11,213.764 	"/>
	<polygon fill="#EAEAEA" points="524.506,249.691 526.93,262.5 541.324,262.5 538.49,248.047 	"/>
	<polygon fill="#EAEAEA" points="522.539,160.835 525.593,176.123 539.535,174.311 536.443,159.03 	"/>
	<polygon fill="#EAEAEA" points="538.977,139.5 533.694,139.5 533.831,140.178 	"/>
	<polygon fill="#EAEAEA" points="532.557,140.085 532.388,139.5 518.176,139.5 518.708,142.04 	"/>
	<polygon fill="#EAEAEA" points="480.725,261.5 479.598,255.406 479.425,255.858 480.663,262.5 525.624,262.5 525.556,261.5 	"/>
	<polygon fill="#EAEAEA" points="529.121,193.798 543.106,191.964 539.744,175.345 525.799,177.156 	"/>
	<polygon fill="#EAEAEA" points="493.435,180.301 490.323,165.02 477.225,166.721 480.239,182.016 	"/>
	<polygon fill="#EAEAEA" points="436.238,207.043 422.726,208.815 425.683,223.964 439.33,222.221 	"/>
	<polygon fill="#EAEAEA" points="444.368,170.987 430.566,172.781 433.679,188.063 447.357,186.286 	"/>
	<polygon fill="#EAEAEA" points="517.434,142.079 516.867,139.5 502.758,139.5 503.676,144.022 	"/>
	<polygon fill="#EAEAEA" points="440.03,225.662 426.356,227.41 429.364,242.812 443.163,241.037 	"/>
	<polygon fill="#EAEAEA" points="429.567,243.846 432.802,260.416 446.73,258.549 443.375,242.071 	"/>
	<polygon fill="#EAEAEA" points="478.964,182.18 475.951,166.886 462.196,168.672 465.24,183.965 	"/>
	<polygon fill="#EAEAEA" points="466.009,203.138 454.004,204.714 456.983,219.962 469.05,218.42 	"/>
	<polygon fill="#EAEAEA" points="448.212,259.941 448.627,262.5 462.042,262.5 461.302,258.449 	"/>
	<polygon fill="#EAEAEA" points="464.271,257.787 465.088,262.5 477.614,262.5 476.456,256.418 	"/>
	<polygon fill="#EAEAEA" points="460.662,238.788 472.795,237.229 469.735,221.864 457.657,223.409 	"/>
	<polygon fill="#EAEAEA" points="494.41,253.271 494.4,253.218 489.246,253.908 	"/>
	<polygon fill="#EAEAEA" points="554.499,173.429 541.02,175.18 544.381,191.798 555.779,190.303 555.984,191.335 544.589,192.83 
		547.786,208.361 558,207.064 558,183.848 556.685,184.015 	"/>
	<polygon fill="#EAEAEA" points="425.129,154.204 422.372,139.5 416.57,139.5 412,139.502 412,155.634 	"/>
	<polygon fill="#EAEAEA" points="550.957,216.618 555.512,215.975 556.25,219.412 551.669,220.061 553.141,226.905 558,226.287 
		558,210.597 549.977,211.615 	"/>
	<polygon fill="#EAEAEA" points="494.194,252.184 494.368,253.047 494.194,252.093 479.435,254.033 476.067,237.967 
		496.426,235.249 475.973,237.88 479.221,254.191 	"/>
	<polygon fill="#EAEAEA" points="558,175.132 558,155.05 554.131,155.909 	"/>
	<polygon fill="#EAEAEA" points="558,153.964 558,139.5 550.615,139.5 553.868,155.13 	"/>
	<polygon fill="#EAEAEA" points="420.957,207.949 417.532,191.164 412,191.863 412,209.087 	"/>
	<polygon fill="#EAEAEA" points="425.083,227.573 413.169,229.096 416.181,244.508 428.091,242.977 	"/>
	<polygon fill="#EAEAEA" points="425.34,154.975 412,156.695 412,156.903 415.291,172.252 428.51,170.535 	"/>
	<polygon fill="#EAEAEA" points="431.53,261.116 428.293,244.275 416.382,246.203 419.487,262.5 425.162,262.5 	"/>
	<polygon fill="#EAEAEA" points="558,250.123 558,227.348 553.409,227.937 	"/>
	<polygon fill="#EAEAEA" points="412,232.789 412,244.969 414.32,244.672 	"/>
	<polygon fill="#EAEAEA" points="414.78,174.83 412.52,175.086 412,173.938 412,190.804 417.477,190.131 	"/>
	<polygon fill="#EAEAEA" points="433.071,262.5 447.319,262.5 446.939,260.641 	"/>
	<polygon fill="#EAEAEA" points="524.303,248.129 538.283,246.218 535.101,230.277 521.133,232.073 	"/>
	<polygon fill="#EAEAEA" points="412,246.03 412,262.5 418.182,262.5 414.816,246.234 	"/>
	<polygon fill="#EAEAEA" points="412,163.588 412,172.643 413.726,172.418 	"/>
	<polygon fill="#FFFFFF" points="412,139.5 412,139.502 416.57,139.5 	"/>
	<polygon fill="#FFFFFF" points="550.731,154.963 552.221,154.639 552.355,155.259 553.812,155.163 550.615,139.5 547.565,139.5 	
		"/>
	<polygon fill="#FFFFFF" points="552.629,156.219 552.459,155.713 552.695,156.919 551.214,157.111 554.291,172.396 
		555.779,172.202 555.982,173.236 554.499,173.429 556.685,184.015 558,183.848 558,175.132 554.077,155.909 	"/>
	<polygon fill="#FFFFFF" points="412.367,155.634 412.235,155.666 412.381,156.7 412.367,156.695 	"/>
	<polygon fill="#FFFFFF" points="486.644,146.935 486.433,145.903 473.458,147.611 473.662,148.646 	"/>
	<polygon fill="#FFFFFF" points="517.642,142.85 517.434,141.817 503.676,143.631 503.88,144.663 	"/>
	<polygon fill="#FFFFFF" points="532.767,140.856 532.557,139.825 518.708,141.648 518.914,142.682 	"/>
	<polygon fill="#FFFFFF" points="534.042,140.95 547.021,139.5 538.977,139.5 533.831,140.047 	"/>
	<polygon fill="#FFFFFF" points="440.646,151.937 426.694,153.775 426.905,154.806 440.849,152.97 	"/>
	<polygon fill="#FFFFFF" points="455.634,151.022 455.43,149.988 443.616,151.545 443.818,152.578 	"/>
	<polygon fill="#FFFFFF" points="472.389,148.813 472.186,147.78 458.398,149.596 458.604,150.63 	"/>
	<polygon fill="#FFFFFF" points="502.606,144.831 502.403,143.799 487.705,145.734 487.916,146.767 	"/>
	<polygon fill="#FFFFFF" points="412,155.634 412,156.695 425.34,154.975 424.983,153.942 	"/>
	<polygon fill="#FFFFFF" points="554.077,155.909 558,155.05 558,153.964 553.893,154.871 	"/>
	<polygon fill="#FFFFFF" points="552.629,156.219 554.021,155.909 553.812,154.871 552.355,155.193 552.459,155.713 	"/>
	<polygon fill="#FFFFFF" points="475.951,166.886 475.476,164.474 461.718,166.262 462.196,168.672 	"/>
	<polygon fill="#FFFFFF" points="537.717,158.865 551.214,157.111 550.731,154.702 537.229,156.455 	"/>
	<polygon fill="#FFFFFF" points="506.185,162.959 505.709,160.548 491.106,162.443 491.598,164.855 	"/>
	<polygon fill="#FFFFFF" points="490.323,165.02 489.834,162.61 476.748,164.31 477.225,166.721 	"/>
	<polygon fill="#FFFFFF" points="414.78,174.83 414.018,172.418 412,172.643 412,173.938 412.52,175.086 	"/>
	<polygon fill="#FFFFFF" points="429.293,172.946 428.802,170.535 415.583,172.252 416.055,174.665 	"/>
	<polygon fill="#FFFFFF" points="458.744,166.647 446.868,168.188 447.34,170.603 459.225,169.058 	"/>
	<polygon fill="#FFFFFF" points="507.46,162.794 521.266,161.001 520.784,158.59 506.983,160.383 	"/>
	<polygon fill="#FFFFFF" points="522.539,160.835 536.443,159.03 535.956,156.62 522.058,158.425 	"/>
	<polygon fill="#FFFFFF" points="443.896,168.575 430.076,170.371 430.566,172.781 444.368,170.987 	"/>
	<polygon fill="#FFFFFF" points="552.695,156.919 552.459,155.713 552.288,155.208 552.355,155.193 552.221,154.508 
		550.731,154.702 551.214,157.111 	"/>
	<polygon fill="#FFFFFF" points="552.459,155.713 552.355,155.193 552.288,155.208 	"/>
	<polygon fill="#FFFFFF" points="447.558,187.32 447.357,186.286 433.679,188.063 433.89,189.096 	"/>
	<polygon fill="#FFFFFF" points="525.799,177.156 539.744,175.345 539.535,174.311 525.593,176.123 	"/>
	<polygon fill="#FFFFFF" points="478.964,182.18 465.24,183.965 465.446,184.997 479.17,183.215 	"/>
	<polygon fill="#FFFFFF" points="493.646,181.335 493.435,180.301 480.239,182.016 480.441,183.049 	"/>
	<polygon fill="#FFFFFF" points="417.68,191.164 417.33,190.131 412,190.804 412,191.863 	"/>
	<polygon fill="#FFFFFF" points="541.02,175.18 554.499,173.429 554.291,172.396 540.81,174.146 	"/>
	<polygon fill="#FFFFFF" points="494.918,181.168 509.408,179.286 509.203,178.253 494.707,180.136 	"/>
	<polygon fill="#FFFFFF" points="432.406,188.229 419.043,189.965 419.244,191 432.617,189.262 	"/>
	<polygon fill="#FFFFFF" points="462.269,184.35 450.329,185.9 450.531,186.935 462.475,185.384 	"/>
	<polygon fill="#FFFFFF" points="510.681,179.121 524.525,177.322 524.319,176.288 510.478,178.087 	"/>
	<polygon fill="#FFFFFF" points="555.982,173.236 555.779,172.202 554.291,172.396 554.499,173.429 	"/>
	<polygon fill="#FFFFFF" points="514.175,196.82 528.055,194.998 527.85,193.966 513.972,195.786 	"/>
	<polygon fill="#FFFFFF" points="482.46,199.921 468.773,201.715 468.979,202.748 482.664,200.954 	"/>
	<polygon fill="#FFFFFF" points="436.238,207.043 436.029,206.011 422.523,207.782 422.726,208.815 	"/>
	<polygon fill="#FFFFFF" points="420.957,207.949 412,209.087 412,210.146 421.013,208.983 	"/>
	<polygon fill="#FFFFFF" points="483.938,200.785 497.249,199.04 497.04,198.008 483.734,199.753 	"/>
	<polygon fill="#FFFFFF" points="498.312,197.841 498.522,198.873 512.901,196.987 512.696,195.953 	"/>
	<polygon fill="#FFFFFF" points="555.984,191.335 555.779,190.303 544.381,191.798 544.589,192.83 	"/>
	<polygon fill="#FFFFFF" points="529.328,194.831 543.315,192.997 543.106,191.964 529.121,193.798 	"/>
	<polygon fill="#FFFFFF" points="450.831,204.069 437.302,205.843 437.511,206.876 451.033,205.103 	"/>
	<polygon fill="#FFFFFF" points="466.009,203.138 465.804,202.104 453.803,203.678 454.004,204.714 	"/>
	<polygon fill="#FFFFFF" points="456.983,219.962 457.657,223.409 469.735,221.864 469.05,218.42 	"/>
	<polygon fill="#FFFFFF" points="486.962,216.131 487.641,219.576 501.081,217.858 500.378,214.416 	"/>
	<polygon fill="#FFFFFF" points="472.022,218.04 472.71,221.484 486.365,219.739 485.688,216.294 	"/>
	<polygon fill="#FFFFFF" points="548.078,210.079 549.562,209.876 549.977,211.615 558,210.597 558,207.064 547.786,208.361 	"/>
	<polygon fill="#FFFFFF" points="533.11,213.764 545.676,212.158 545.322,210.453 547.443,210.166 546.806,210.249 546.456,208.525 
		532.421,210.319 	"/>
	<polygon fill="#FFFFFF" points="517.223,212.262 517.903,215.708 531.836,213.927 531.147,210.481 	"/>
	<polygon fill="#FFFFFF" points="454.684,223.789 454.011,220.343 440.604,222.056 441.304,225.5 	"/>
	<polygon fill="#FFFFFF" points="439.33,222.221 425.683,223.964 426.356,227.41 440.03,225.662 	"/>
	<polygon fill="#FFFFFF" points="502.354,217.694 516.629,215.871 515.949,212.425 501.653,214.252 	"/>
	<polygon fill="#FFFFFF" points="424.115,224.126 412,225.637 412,226.103 412.879,229.096 424.789,227.573 	"/>
	<polygon fill="#FFFFFF" points="548.841,227.45 553.086,226.905 551.669,220.061 549.564,220.356 548.827,216.919 550.957,216.618 
		549.922,211.615 545.676,212.158 	"/>
	<polygon fill="#FFFFFF" points="549.055,228.482 552.327,244.3 555.774,243.828 555.988,244.859 552.542,245.86 555.875,262.5 
		556.9,262.5 558,261.308 558,250.123 553.354,227.937 	"/>
	<polygon fill="#FFFFFF" points="547.196,210.166 545.198,210.453 545.612,212.158 549.893,211.615 549.301,209.876 
		547.587,210.079 547.587,210.08 	"/>
	<polygon fill="#FFFFFF" points="556.25,219.412 555.512,215.975 550.957,216.618 551.669,220.061 	"/>
	<polygon fill="#FFFFFF" points="549.564,220.356 551.669,220.061 550.957,216.618 548.827,216.919 	"/>
	<polygon fill="#FFFFFF" points="546.456,208.525 547.731,208.361 544.589,192.83 543.315,192.997 	"/>
	<polygon fill="#FFFFFF" points="543.106,191.964 544.381,191.798 541.02,175.18 539.744,175.345 	"/>
	<polygon fill="#FFFFFF" points="535.956,156.62 537.229,156.455 534.042,140.688 532.767,140.856 	"/>
	<polygon fill="#FFFFFF" points="539.535,174.311 540.81,174.146 537.717,158.865 536.443,159.03 	"/>
	<polygon fill="#FFFFFF" points="533.831,139.708 533.694,139.083 532.388,139.083 532.557,139.902 	"/>
	<polygon fill="#FFFFFF" points="532.557,139.825 532.767,140.856 534.042,140.688 533.831,139.658 	"/>
	<polygon fill="#FFFFFF" points="536.443,159.03 537.717,158.865 537.229,156.455 535.956,156.62 	"/>
	<polygon fill="#FFFFFF" points="539.535,174.311 539.744,175.345 541.02,175.18 540.81,174.146 	"/>
	<polygon fill="#FFFFFF" points="543.315,192.997 544.589,192.83 544.381,191.798 543.106,191.964 	"/>
	<polygon fill="#FFFFFF" points="546.806,210.249 547.443,210.166 548.078,210.079 547.731,208.361 546.456,208.525 	"/>
	<polygon fill="#FFFFFF" points="548.079,210.08 548.078,210.079 547.443,210.166 	"/>
	<polygon fill="#FFFFFF" points="524.319,176.288 525.593,176.123 522.539,160.835 521.266,161.001 	"/>
	<polygon fill="#FFFFFF" points="522.058,158.425 518.914,142.682 517.642,142.85 520.784,158.59 	"/>
	<polygon fill="#FFFFFF" points="527.85,193.966 529.121,193.798 525.799,177.156 524.525,177.322 	"/>
	<polygon fill="#FFFFFF" points="531.836,213.927 534.895,229.244 536.168,229.08 533.11,213.764 	"/>
	<polygon fill="#FFFFFF" points="531.147,210.481 532.421,210.319 529.328,194.831 528.055,194.998 	"/>
	<polygon fill="#FFFFFF" points="541.324,262.5 542.63,262.5 539.762,247.606 538.49,248.047 	"/>
	<polygon fill="#FFFFFF" points="518.708,141.91 518.176,139.5 516.867,139.5 517.434,142.208 	"/>
	<polygon fill="#FFFFFF" points="538.283,246.218 539.556,246.044 536.374,230.113 535.101,230.277 	"/>
	<polygon fill="#FFFFFF" points="518.914,142.682 518.708,141.648 517.434,141.817 517.642,142.85 	"/>
	<polygon fill="#FFFFFF" points="520.784,158.59 521.266,161.001 522.539,160.835 522.058,158.425 	"/>
	<polygon fill="#FFFFFF" points="524.525,177.322 525.799,177.156 525.593,176.123 524.319,176.288 	"/>
	<polygon fill="#FFFFFF" points="528.055,194.998 529.328,194.831 529.121,193.798 527.85,193.966 	"/>
	<polygon fill="#FFFFFF" points="531.836,213.927 533.11,213.764 532.421,210.319 531.147,210.481 	"/>
	<polygon fill="#FFFFFF" points="519.655,231.203 520.93,231.039 517.903,215.708 516.629,215.871 	"/>
	<polygon fill="#FFFFFF" points="512.901,196.987 515.949,212.425 517.223,212.262 514.175,196.82 	"/>
	<polygon fill="#FFFFFF" points="509.203,178.253 510.478,178.087 507.46,162.794 506.185,162.959 	"/>
	<polygon fill="#FFFFFF" points="503.676,143.891 502.758,139.5 501.45,139.5 502.403,144.189 	"/>
	<polygon fill="#FFFFFF" points="506.983,160.383 503.88,144.663 502.606,144.831 505.709,160.548 	"/>
	<polygon fill="#FFFFFF" points="523.875,249.249 523.661,248.217 524.303,248.129 521.133,232.073 519.859,232.237 
		524.062,253.734 525.578,261.5 525.556,261.5 525.624,262.5 526.93,262.5 524.506,249.691 	"/>
	<polygon fill="#FFFFFF" points="512.696,195.953 513.972,195.786 510.681,179.121 509.408,179.286 	"/>
	<polygon fill="#FFFFFF" points="503.88,144.663 503.676,143.631 502.403,143.799 502.606,144.831 	"/>
	<polygon fill="#FFFFFF" points="507.46,162.794 506.983,160.383 505.709,160.548 506.185,162.959 	"/>
	<polygon fill="#FFFFFF" points="509.408,179.286 510.681,179.121 510.478,178.087 509.203,178.253 	"/>
	<polygon fill="#FFFFFF" points="512.901,196.987 514.175,196.82 513.972,195.786 512.696,195.953 	"/>
	<polygon fill="#FFFFFF" points="516.629,215.871 517.903,215.708 517.223,212.262 515.949,212.425 	"/>
	<polygon fill="#FFFFFF" points="487.705,145.996 486.33,139.5 485.022,139.5 486.433,146.293 	"/>
	<polygon fill="#FFFFFF" points="501.081,217.858 504.201,233.19 505.474,233.026 502.354,217.694 	"/>
	<polygon fill="#FFFFFF" points="494.707,180.136 491.598,164.855 490.323,165.02 493.435,180.301 	"/>
	<polygon fill="#FFFFFF" points="491.106,162.443 487.916,146.767 486.644,146.935 489.834,162.61 	"/>
	<polygon fill="#FFFFFF" points="493.646,181.335 497.04,198.008 498.312,197.841 494.918,181.168 	"/>
	<polygon fill="#FFFFFF" points="500.378,214.416 501.653,214.252 498.522,198.873 497.249,199.04 	"/>
	<polygon fill="#FFFFFF" points="487.916,146.767 487.705,145.734 486.433,145.903 486.644,146.935 	"/>
	<polygon fill="#FFFFFF" points="491.598,164.855 491.106,162.443 489.834,162.61 490.323,165.02 	"/>
	<polygon fill="#FFFFFF" points="494.918,181.168 494.707,180.136 493.435,180.301 493.646,181.335 	"/>
	<polygon fill="#FFFFFF" points="497.249,199.04 498.522,198.873 498.312,197.841 497.04,198.008 	"/>
	<polygon fill="#FFFFFF" points="500.378,214.416 501.081,217.858 502.354,217.694 501.653,214.252 	"/>
	<polygon fill="#FFFFFF" points="482.664,200.954 485.688,216.294 486.962,216.131 483.938,200.785 	"/>
	<polygon fill="#FFFFFF" points="473.458,147.873 471.757,139.5 470.45,139.5 472.186,148.169 	"/>
	<polygon fill="#FFFFFF" points="476.748,164.31 473.662,148.646 472.389,148.813 475.476,164.474 	"/>
	<polygon fill="#FFFFFF" points="480.441,183.049 479.17,183.215 482.46,199.921 483.734,199.753 	"/>
	<polygon fill="#FFFFFF" points="480.239,182.016 477.225,166.721 475.951,166.886 478.964,182.18 	"/>
	<polygon fill="#FFFFFF" points="486.365,219.739 489.392,235.094 490.667,234.931 487.641,219.576 	"/>
	<polygon fill="#FFFFFF" points="473.662,148.646 473.458,147.611 472.186,147.78 472.389,148.813 	"/>
	<polygon fill="#FFFFFF" points="477.225,166.721 476.748,164.31 475.476,164.474 475.951,166.886 	"/>
	<polygon fill="#FFFFFF" points="480.441,183.049 480.239,182.016 478.964,182.18 479.17,183.215 	"/>
	<polygon fill="#FFFFFF" points="482.46,199.921 482.664,200.954 483.938,200.785 483.734,199.753 	"/>
	<polygon fill="#FFFFFF" points="485.688,216.294 486.365,219.739 487.641,219.576 486.962,216.131 	"/>
	<polygon fill="#FFFFFF" points="472.022,218.04 468.979,202.748 466.009,203.138 469.05,218.42 	"/>
	<polygon fill="#FFFFFF" points="465.446,184.997 462.475,185.384 465.804,202.104 468.773,201.715 	"/>
	<polygon fill="#FFFFFF" points="469.735,221.864 472.795,237.229 475.767,236.846 472.71,221.484 	"/>
	<polygon fill="#FFFFFF" points="462.196,168.672 459.225,169.058 462.269,184.35 465.24,183.965 	"/>
	<polygon fill="#FFFFFF" points="476.251,254.591 479.221,254.191 475.973,237.88 473.001,238.261 	"/>
	<polygon fill="#FFFFFF" points="476.456,256.154 477.614,262.5 480.663,262.5 479.425,256.02 	"/>
	<polygon fill="#FFFFFF" points="458.398,149.857 456.285,139.5 453.237,139.5 455.43,150.38 	"/>
	<polygon fill="#FFFFFF" points="461.718,166.262 458.604,150.63 455.634,151.022 458.744,166.647 	"/>
	<polygon fill="#FFFFFF" points="458.604,150.63 458.398,149.596 455.43,149.988 455.634,151.022 	"/>
	<polygon fill="#FFFFFF" points="462.196,168.672 461.718,166.262 458.744,166.647 459.225,169.058 	"/>
	<polygon fill="#FFFFFF" points="465.24,183.965 462.269,184.35 462.475,185.384 465.446,184.997 	"/>
	<polygon fill="#FFFFFF" points="468.773,201.715 465.804,202.104 466.009,203.138 468.979,202.748 	"/>
	<polygon fill="#FFFFFF" points="469.05,218.42 469.735,221.864 472.71,221.484 472.022,218.04 	"/>
	<polygon fill="#FFFFFF" points="457.657,223.409 454.684,223.789 457.688,239.17 460.662,238.788 	"/>
	<polygon fill="#FFFFFF" points="454.004,204.714 451.033,205.103 454.011,220.343 456.983,219.962 	"/>
	<polygon fill="#FFFFFF" points="457.893,240.203 461.1,256.622 464.067,256.224 460.864,239.821 	"/>
	<polygon fill="#FFFFFF" points="443.818,152.578 440.849,152.97 443.896,168.575 446.868,168.188 	"/>
	<polygon fill="#FFFFFF" points="453.803,203.678 450.531,186.935 447.558,187.32 450.831,204.069 	"/>
	<polygon fill="#FFFFFF" points="461.302,258.187 462.042,262.5 465.088,262.5 464.271,258.053 	"/>
	<polygon fill="#FFFFFF" points="447.34,170.603 444.368,170.987 447.357,186.286 450.329,185.9 	"/>
	<polygon fill="#FFFFFF" points="443.616,151.805 441.161,139.5 438.114,139.5 440.646,152.327 	"/>
	<polygon fill="#FFFFFF" points="443.818,152.578 443.616,151.545 440.646,151.937 440.849,152.97 	"/>
	<polygon fill="#FFFFFF" points="446.868,168.188 443.896,168.575 444.368,170.987 447.34,170.603 	"/>
	<polygon fill="#FFFFFF" points="450.329,185.9 447.357,186.286 447.558,187.32 450.531,186.935 	"/>
	<polygon fill="#FFFFFF" points="453.803,203.678 450.831,204.069 451.033,205.103 454.004,204.714 	"/>
	<polygon fill="#FFFFFF" points="456.983,219.962 454.011,220.343 454.684,223.789 457.657,223.409 	"/>
	<polygon fill="#FFFFFF" points="446.939,260.111 447.319,262.5 448.627,262.5 448.212,260.205 	"/>
	<polygon fill="#FFFFFF" points="440.604,222.056 437.511,206.876 436.238,207.043 439.33,222.221 	"/>
	<polygon fill="#FFFFFF" points="444.648,241.906 443.375,242.071 446.73,258.549 448.004,258.379 	"/>
	<polygon fill="#FFFFFF" points="423.681,139.5 422.372,139.5 425.42,154.204 426.694,154.165 	"/>
	<polygon fill="#FFFFFF" points="433.679,188.063 430.566,172.781 429.293,172.946 432.406,188.229 	"/>
	<polygon fill="#FFFFFF" points="426.905,154.806 425.632,154.975 428.802,170.535 430.076,170.371 	"/>
	<polygon fill="#FFFFFF" points="441.304,225.5 440.03,225.662 443.163,241.037 444.437,240.875 	"/>
	<polygon fill="#FFFFFF" points="433.89,189.096 432.617,189.262 436.029,206.011 437.302,205.843 	"/>
	<polygon fill="#FFFFFF" points="426.694,153.775 425.42,153.942 425.632,154.975 426.905,154.806 	"/>
	<polygon fill="#FFFFFF" points="430.076,170.371 428.802,170.535 429.293,172.946 430.566,172.781 	"/>
	<polygon fill="#FFFFFF" points="433.679,188.063 432.406,188.229 432.617,189.262 433.89,189.096 	"/>
	<polygon fill="#FFFFFF" points="437.302,205.843 436.029,206.011 436.238,207.043 437.511,206.876 	"/>
	<polygon fill="#FFFFFF" points="440.604,222.056 439.33,222.221 440.03,225.662 441.304,225.5 	"/>
	<polygon fill="#FFFFFF" points="426.356,227.41 425.083,227.573 428.091,242.977 429.364,242.812 	"/>
	<polygon fill="#FFFFFF" points="422.523,207.782 419.244,191 417.972,191.164 421.249,207.949 	"/>
	<polygon fill="#FFFFFF" points="416.055,174.665 414.78,174.83 417.769,190.131 419.043,189.965 	"/>
	<polygon fill="#FFFFFF" points="429.567,243.846 428.293,244.01 431.53,260.587 432.802,260.416 	"/>
	<polygon fill="#FFFFFF" points="422.726,208.815 421.452,208.983 424.41,224.126 425.683,223.964 	"/>
	<polygon fill="#FFFFFF" points="415.291,172.252 412,156.903 412,163.588 413.87,172.418 	"/>
	<polygon fill="#FFFFFF" points="415.583,172.252 414.31,172.418 414.78,174.83 416.055,174.665 	"/>
	<polygon fill="#FFFFFF" points="419.043,189.965 417.769,190.131 417.972,191.164 419.244,191 	"/>
	<polygon fill="#FFFFFF" points="422.726,208.815 422.523,207.782 421.249,207.949 421.452,208.983 	"/>
	<polygon fill="#FFFFFF" points="425.683,223.964 424.41,224.126 425.083,227.573 426.356,227.41 	"/>
	<polygon fill="#FFFFFF" points="416.181,244.508 413.169,229.096 412.615,229.13 412,227.464 412,232.789 414.613,244.672 	"/>
	<polygon fill="#FFFFFF" points="416.382,246.07 415.108,246.498 418.182,262.5 419.487,262.5 	"/>
	<polygon fill="#FFFFFF" points="412,227.464 412.615,229.13 412.73,229.096 412,226.103 	"/>
	<polygon fill="#FFFFFF" points="414.613,244.672 412,244.969 412,246.03 414.669,245.705 	"/>
	<polygon fill="#FFFFFF" points="428.091,242.977 416.181,244.508 416.382,245.54 428.293,244.01 	"/>
	<polygon fill="#FFFFFF" points="553.354,227.937 558,227.348 558,226.287 553.168,226.905 	"/>
	<polygon fill="#FFFFFF" points="457.688,239.17 444.437,240.875 444.648,241.906 457.893,240.203 	"/>
	<polygon fill="#FFFFFF" points="521.133,232.073 535.101,230.277 534.895,229.244 520.93,231.039 	"/>
	<polygon fill="#FFFFFF" points="443.163,241.037 429.364,242.812 429.567,243.846 443.375,242.071 	"/>
	<polygon fill="#FFFFFF" points="460.864,239.821 473.001,238.261 472.795,237.229 460.662,238.788 	"/>
	<polygon fill="#FFFFFF" points="536.168,229.08 536.374,230.113 549.055,228.482 548.841,227.45 	"/>
	<polygon fill="#FFFFFF" points="505.474,233.026 505.6,233.645 504.328,233.814 504.201,233.19 490.667,234.931 490.852,235.867 
		489.578,236.033 489.392,235.094 475.767,236.846 475.973,237.88 496.426,235.249 519.775,232.134 519.797,232.245 
		519.859,232.237 519.655,231.203 	"/>
	<polygon fill="#FFFFFF" points="549.055,228.482 553.3,227.937 553.086,226.905 548.841,227.45 	"/>
	<polygon fill="#FFFFFF" points="535.101,230.277 536.374,230.113 536.168,229.08 534.895,229.244 	"/>
	<polygon fill="#FFFFFF" points="519.655,231.203 519.859,232.237 521.133,232.073 520.93,231.039 	"/>
	<polygon fill="#FFFFFF" points="504.328,233.814 505.6,233.645 505.474,233.026 504.201,233.19 	"/>
	<polygon fill="#FFFFFF" points="489.578,236.033 490.852,235.867 490.667,234.931 489.392,235.094 	"/>
	<polygon fill="#FFFFFF" points="473.001,238.261 475.973,237.88 475.767,236.846 472.795,237.229 	"/>
	<polygon fill="#FFFFFF" points="460.662,238.788 457.688,239.17 457.893,240.203 460.864,239.821 	"/>
	<polygon fill="#FFFFFF" points="443.163,241.037 443.375,242.071 444.648,241.906 444.437,240.875 	"/>
	<polygon fill="#FFFFFF" points="429.364,242.812 428.091,242.977 428.293,244.01 429.567,243.846 	"/>
	<polygon fill="#FFFFFF" points="414.906,244.672 415.108,245.705 416.382,245.54 416.181,244.508 	"/>
	<polygon fill="#FFFFFF" points="539.762,247.077 552.542,245.332 552.327,244.3 539.556,246.044 	"/>
	<polygon fill="#FFFFFF" points="524.506,249.162 538.49,247.251 538.283,246.218 524.303,248.129 	"/>
	<polygon fill="#FFFFFF" points="555.988,244.859 555.774,243.828 552.327,244.3 552.542,245.332 	"/>
	<polygon fill="#FFFFFF" points="538.49,247.251 539.762,247.077 539.556,246.044 538.283,246.218 	"/>
	<polygon fill="#FFFFFF" points="523.661,248.217 523.875,249.249 524.506,249.162 524.303,248.129 	"/>
	<polygon fill="#FFFFFF" points="558.03,261.308 556.9,261.564 558.03,261.564 	"/>
	<polygon fill="#FFFFFF" points="433.004,261.441 433.006,261.45 433.071,261.441 	"/>
	<polygon fill="#FFFFFF" points="448.004,258.379 448.212,259.41 461.302,257.654 461.1,256.622 	"/>
	<polygon fill="#FFFFFF" points="489.246,253.908 494.4,253.218 494.368,253.047 494.194,252.184 479.221,254.191 479.425,255.226 
		479.598,255.202 479.578,255.102 	"/>
	<polygon fill="#FFFFFF" points="425.162,262.5 431.697,262.5 431.53,261.646 	"/>
	<polygon fill="#FFFFFF" points="464.067,256.224 464.271,257.258 476.456,255.622 476.251,254.591 	"/>
	<polygon fill="#FFFFFF" points="446.939,260.111 446.73,258.814 432.802,261.079 433.004,262.5 433.071,262.5 	"/>
	<polygon fill="#FFFFFF" points="476.251,254.591 476.456,255.622 479.425,255.226 479.221,254.191 	"/>
	<polygon fill="#FFFFFF" points="461.1,256.622 461.302,257.654 464.271,257.258 464.067,256.224 	"/>
	<polygon fill="#FFFFFF" points="448.004,258.379 446.73,258.549 446.939,259.581 448.212,259.41 	"/>
	<polygon fill="#FFFFFF" points="431.53,260.69 431.697,261.647 433.004,261.647 432.802,260.572 	"/>
	<polygon fill="#F2F2F2" points="496.426,235.249 476.067,237.967 479.435,254.033 494.194,252.093 494.368,253.188 494.402,253.5 
		494.4,253.5 494.41,253.412 489.246,253.979 479.598,255.443 480.725,261.5 525.556,261.5 524.062,253.734 519.797,232.349 	"/>
	<polygon fill="#EFE4D6" points="525.578,261.5 524.062,253.939 525.556,261.5 	"/>
	<polygon fill="#EFE4D6" points="519.775,232.134 496.426,235.249 519.797,232.245 	"/>
	<polygon fill="#EFE4D6" points="479.578,255.102 479.598,255.202 489.246,253.908 	"/>
	<polygon fill="#EFE4D6" points="494.402,253.218 494.368,253.047 494.4,253.218 	"/>
</g>
<path fill="#F05A5E" d="M464.271,180.44c-3.69,0-6.684,2.83-6.684,6.321c0,4.793,6.684,10.989,6.684,10.989
	s6.683-6.196,6.683-10.989C470.954,183.271,467.963,180.44,464.271,180.44z M464.271,189.193c-1.358,0-2.459-1.102-2.459-2.458
	c0-1.357,1.101-2.459,2.459-2.459c1.357,0,2.458,1.102,2.458,2.459C466.729,188.092,465.629,189.193,464.271,189.193z"/>
<path fill="#F05A5E" d="M472.022,200.686c-3.69,0-6.684,2.829-6.684,6.319c0,4.794,6.684,10.99,6.684,10.99s6.682-6.196,6.682-10.99
	C478.704,203.515,475.713,200.686,472.022,200.686z M472.022,209.438c-1.358,0-2.458-1.102-2.458-2.458
	c0-1.357,1.1-2.458,2.458-2.458c1.357,0,2.458,1.101,2.458,2.458C474.48,208.336,473.38,209.438,472.022,209.438z"/>
<path fill="#F05A5E" d="M477.229,171.595c-3.69,0-6.684,2.829-6.684,6.32c0,4.793,6.684,10.989,6.684,10.989
	s6.681-6.196,6.681-10.989C483.91,174.424,480.92,171.595,477.229,171.595z M477.229,180.348c-1.358,0-2.459-1.102-2.459-2.459
	c0-1.356,1.101-2.458,2.459-2.458c1.357,0,2.457,1.102,2.457,2.458C479.687,179.246,478.587,180.348,477.229,180.348z"/>
<path fill="#F05A5E" d="M486.2,188.897c-3.689,0-6.683,2.83-6.683,6.321c0,4.793,6.683,10.989,6.683,10.989
	s6.681-6.196,6.681-10.989C492.881,191.728,489.892,188.897,486.2,188.897z M486.2,197.649c-1.358,0-2.457-1.1-2.457-2.458
	c0-1.356,1.099-2.457,2.457-2.457s2.457,1.101,2.457,2.457C488.657,196.55,487.559,197.649,486.2,197.649z"/>
<path fill="#F05A5E" d="M503.676,197.529c-3.689,0-6.683,2.83-6.683,6.321c0,4.793,6.683,10.989,6.683,10.989
	s6.683-6.196,6.683-10.989C510.358,200.359,507.367,197.529,503.676,197.529z M503.676,206.281c-1.356,0-2.457-1.1-2.457-2.458
	c0-1.356,1.101-2.457,2.457-2.457c1.358,0,2.459,1.101,2.459,2.457C506.135,205.182,505.034,206.281,503.676,206.281z"/>
<path fill="#F05A5E" d="M506.983,178.881c-3.69,0-6.684,2.83-6.684,6.322c0,4.793,6.684,10.988,6.684,10.988
	s6.681-6.195,6.681-10.988C513.664,181.711,510.673,178.881,506.983,178.881z M506.983,187.634c-1.358,0-2.459-1.101-2.459-2.458
	c0-1.356,1.101-2.458,2.459-2.458c1.357,0,2.457,1.102,2.457,2.458C509.44,186.533,508.341,187.634,506.983,187.634z"/>
<path fill="#F05A5E" d="M493.646,164.408c-3.689,0-6.683,2.829-6.683,6.32c0,4.793,6.683,10.99,6.683,10.99s6.681-6.197,6.681-10.99
	C500.327,167.236,497.338,164.408,493.646,164.408z M493.646,173.159c-1.358,0-2.459-1.1-2.459-2.457
	c0-1.356,1.101-2.458,2.459-2.458s2.457,1.101,2.457,2.458C496.104,172.06,495.005,173.159,493.646,173.159z"/>
<rect x="89" y="93.5" fill="#CCCCCC" width="13" height="13"/>
<rect x="104" y="93.5" fill="#CCCCCC" width="12" height="13"/>
<rect x="117" y="93.5" fill="#CCCCCC" width="13" height="13"/>
<rect x="132" y="93.5" fill="#CCCCCC" width="13" height="13"/>
<rect x="147" y="93.5" fill="#CCCCCC" width="13" height="13"/>
<rect x="170" y="93.5" fill="#CCCCCC" width="46" height="13"/>
<rect x="223" y="93.5" fill="#CCCCCC" width="45" height="13"/>
<polygon opacity="0.2" fill="#F05A5E" points="102.643,188.227 56.533,188.227 56.533,139.26 "/>
<polygon opacity="0.2" fill="#F05A5E" points="102.643,253.006 56.533,253.006 56.533,204.039 "/>
<polygon opacity="0.2" fill="#F05A5E" points="102.643,317.755 56.533,317.755 56.533,268.789 "/>
</svg>
