<?xml version="1.0" encoding="utf-8"?>
<!-- Generator: Adobe Illustrator 16.0.0, SVG Export Plug-In . SVG Version: 6.00 Build 0)  -->
<!DOCTYPE svg PUBLIC "-//W3C//DTD SVG 1.1//EN" "http://www.w3.org/Graphics/SVG/1.1/DTD/svg11.dtd">
<svg version="1.1" id="Layer_1" xmlns="http://www.w3.org/2000/svg" xmlns:xlink="http://www.w3.org/1999/xlink" x="0px" y="0px"
	 width="617px" height="336px" viewBox="0 0 617 336" enable-background="new 0 0 617 336" xml:space="preserve">
<rect x="-1.248" y="0.484" fill="#F2F2F2" width="618.248" height="337.04"/>
<rect x="85.848" y="59.387" opacity="0.7" fill="#F2E8CC" width="445.051" height="273.328"/>
<rect x="95.359" y="72.396" opacity="0.5" fill="#B3B3B3" width="405.335" height="4.263"/>
<rect x="95.359" y="84.509" opacity="0.5" fill="#B3B3B3" width="352.637" height="4.263"/>
<rect x="95.359" y="99.822" opacity="0.9" fill="#E6E6E6" width="176.941" height="3.312"/>
<rect x="85" y="0.5" fill="#FF7C24" width="444" height="28"/>
<text transform="matrix(1.0803 0 0 1 92.4238 19.2417)" fill="#FFFFFF" font-family="'SourceSansPro-Black'" font-size="13.8483">Hacker N.</text>
<rect x="86.006" y="27.806" fill="#FFFFFF" width="443.958" height="19.89"/>
<rect x="85.848" y="48.33" fill="#FAF9F8" width="444.116" height="9.945"/>
<line fill="none" stroke="#FFFFFF" stroke-miterlimit="10" x1="90" y1="114" x2="524" y2="114"/>
<rect x="95.359" y="124.327" opacity="0.5" fill="#B3B3B3" width="405.335" height="4.262"/>
<rect x="95.359" y="136.44" opacity="0.5" fill="#B3B3B3" width="352.637" height="4.263"/>
<rect x="95.359" y="151.753" opacity="0.9" fill="#E6E6E6" width="176.941" height="3.311"/>
<line fill="none" stroke="#FFFFFF" stroke-miterlimit="10" x1="90" y1="166" x2="524" y2="166"/>
<rect x="95.359" y="176.257" opacity="0.5" fill="#B3B3B3" width="405.335" height="4.264"/>
<rect x="95.359" y="188.371" opacity="0.5" fill="#B3B3B3" width="352.637" height="4.264"/>
<rect x="95.359" y="203.685" opacity="0.9" fill="#E6E6E6" width="176.941" height="3.311"/>
<line fill="none" stroke="#FFFFFF" stroke-miterlimit="10" x1="90" y1="218" x2="524" y2="218"/>
<rect x="95.359" y="228.188" opacity="0.5" fill="#B3B3B3" width="405.335" height="4.263"/>
<rect x="95.359" y="240.302" opacity="0.5" fill="#B3B3B3" width="352.637" height="4.264"/>
<rect x="95.359" y="255.615" opacity="0.9" fill="#E6E6E6" width="176.941" height="3.311"/>
<line fill="none" stroke="#FFFFFF" stroke-miterlimit="10" x1="90" y1="270" x2="524" y2="270"/>
<rect x="95.359" y="280.119" opacity="0.5" fill="#B3B3B3" width="405.335" height="4.264"/>
<rect x="95.359" y="292.233" opacity="0.5" fill="#B3B3B3" width="352.637" height="4.263"/>
<rect x="95.359" y="307.546" opacity="0.9" fill="#E6E6E6" width="176.941" height="3.312"/>
<line fill="none" stroke="#FFFFFF" stroke-miterlimit="10" x1="90" y1="322" x2="524" y2="322"/>
<rect x="404.5" y="33" fill="none" stroke="#E6E6E6" stroke-miterlimit="10" width="101" height="10"/>
<polygon fill="#E6E6E6" points="500.694,35.5 498.175,39.539 495.657,35.5 "/>
<rect x="92" y="35.5" fill="#E6E6E6" width="170" height="7"/>
<rect x="385" y="52.5" fill="#E6E6E6" width="121" height="3"/>
</svg>
