<?xml version="1.0" encoding="utf-8"?>
<!-- Generator: Adobe Illustrator 16.0.0, SVG Export Plug-In . SVG Version: 6.00 Build 0)  -->
<!DOCTYPE svg PUBLIC "-//W3C//DTD SVG 1.1//EN" "http://www.w3.org/Graphics/SVG/1.1/DTD/svg11.dtd">
<svg version="1.1" id="Layer_1" xmlns="http://www.w3.org/2000/svg" xmlns:xlink="http://www.w3.org/1999/xlink" x="0px" y="0px"
	 width="617px" height="336px" viewBox="0 0 617 336" enable-background="new 0 0 617 336" xml:space="preserve">
<rect x="-1.969" y="-2.016" fill="#F4F4F4" width="619.969" height="340.58"/>
<rect x="-2.462" y="-1.139" fill="#FFFFFF" width="619.971" height="45.699"/>
<rect x="152.606" y="55.769" fill="#FFFFFF" width="314.168" height="280.231"/>
<rect x="489.642" y="58.356" fill="#FFFFFF" width="111.23" height="95.709"/>
<rect x="10.907" y="73.014" fill="#FFFFFF" width="117.026" height="25.867"/>
<ellipse fill="#E6E6E5" cx="586.61" cy="20.605" rx="9.148" ry="9.246"/>
<rect x="225.337" y="203.18" opacity="0.3" fill="#CDCCCC" enable-background="new    " width="228.663" height="8.105"/>
<rect x="225.337" y="214.232" opacity="0.3" fill="#CDCCCC" enable-background="new    " width="228.663" height="8.109"/>
<rect x="225.634" y="187.697" fill="#CDCCCC" width="106.959" height="9.584"/>
<rect x="168.596" y="181.803" opacity="0.2" fill="#F47944" enable-background="new    " width="42.066" height="43.488"/>
<rect x="225.337" y="260.652" opacity="0.3" fill="#CDCCCC" enable-background="new    " width="228.663" height="8.107"/>
<rect x="225.337" y="271.709" opacity="0.3" fill="#CDCCCC" enable-background="new    " width="228.663" height="8.107"/>
<rect x="225.634" y="245.174" fill="#CDCCCC" width="106.959" height="9.582"/>
<rect x="168.596" y="239.277" opacity="0.2" fill="#F47944" enable-background="new    " width="42.066" height="43.488"/>
<rect x="225.337" y="145.406" opacity="0.3" fill="#CDCCCC" enable-background="new    " width="228.663" height="8.108"/>
<rect x="225.337" y="156.461" opacity="0.3" fill="#CDCCCC" enable-background="new    " width="228.663" height="8.11"/>
<rect x="225.634" y="133.594" fill="#CDCCCC" width="106.959" height="9.583"/>
<rect x="168.596" y="124.031" opacity="0.2" fill="#F47944" enable-background="new    " width="42.066" height="43.487"/>
<rect x="225.337" y="88.553" opacity="0.3" fill="#CDCCCC" enable-background="new    " width="228.663" height="8.107"/>
<rect x="225.337" y="99.607" opacity="0.3" fill="#CDCCCC" enable-background="new    " width="228.663" height="8.11"/>
<rect x="500.616" y="87.308" opacity="0.3" fill="#CDCCCC" enable-background="new    " width="90.868" height="4.752"/>
<rect x="500.616" y="97.254" opacity="0.3" fill="#CDCCCC" enable-background="new    " width="90.868" height="4.754"/>
<rect x="500.616" y="106.417" opacity="0.3" fill="#CDCCCC" enable-background="new    " width="90.868" height="4.752"/>
<rect x="225.634" y="73.074" fill="#CDCCCC" width="113.63" height="9.58"/>
<rect x="168.596" y="67.176" opacity="0.2" fill="#F47944" enable-background="new    " width="42.066" height="43.489"/>
<rect x="52.308" y="11.937" fill="#FFFFFF" stroke="#E6E6E5" stroke-miterlimit="10" width="200.597" height="16.634"/>
<g>
	<path fill="none" stroke="#989898" stroke-miterlimit="10" d="M246.59,18.944c0.379,2.175-1.063,4.249-3.22,4.631
		c-2.153,0.383-4.208-1.077-4.582-3.253c-0.376-2.181,1.065-4.254,3.224-4.634C244.165,15.307,246.216,16.762,246.59,18.944z"/>
	<line fill="none" stroke="#989898" stroke-miterlimit="10" x1="245.395" y1="22.562" x2="248.474" y2="25.96"/>
</g>
<line fill="none" stroke="#989898" stroke-miterlimit="10" x1="590.715" y1="60.984" x2="597.8" y2="68.309"/>
<line fill="none" stroke="#989898" stroke-miterlimit="10" x1="590.715" y1="68.309" x2="597.836" y2="61.11"/>
<rect x="225.337" y="314.4" opacity="0.3" fill="#CDCCCC" enable-background="new    " width="228.663" height="8.107"/>
<rect x="225.337" y="325.457" opacity="0.3" fill="#CDCCCC" enable-background="new    " width="228.663" height="8.107"/>
<rect x="225.634" y="298.922" fill="#CDCCCC" width="106.959" height="9.58"/>
<rect x="168.596" y="293.025" opacity="0.2" fill="#F47944" enable-background="new    " width="42.066" height="42.539"/>
<ellipse fill="#F47944" cx="25.301" cy="20.254" rx="14.394" ry="14.551"/>
<text transform="matrix(0.9892 0 0 1 19.8369 25.9712)" fill="#FFFFFF" font-family="'SourceSansPro-Bold'" font-size="16.4711">H</text>
<rect x="37.486" y="81.146" fill="#CDCCCC" width="83.658" height="8.961"/>
<rect x="11.988" y="57.725" fill="#CDCCCC" width="29.266" height="4.619"/>
<rect x="107.919" y="58.382" fill="#CDCCCC" width="16.895" height="3.305"/>
<rect x="37.486" y="112.93" fill="#CDCCCC" width="83.658" height="8.964"/>
<rect x="500.616" y="68.827" fill="#CDCCCC" width="62.139" height="8.493"/>
<rect x="514.979" y="125" fill="#CDCCCC" width="62.14" height="17.338"/>
<rect x="37.486" y="143.713" fill="#CDCCCC" width="83.658" height="8.963"/>
<rect x="36.916" y="174.934" fill="#CDCCCC" width="84.229" height="8.963"/>
<rect x="18.667" y="78.188" fill="#CDCCCC" width="14.658" height="14.658"/>
<rect x="18.667" y="109.229" fill="#CDCCCC" width="14.658" height="16.382"/>
<rect x="18.667" y="141.132" fill="#CDCCCC" width="14.658" height="15.521"/>
<rect x="18.667" y="172.174" fill="#CDCCCC" width="14.658" height="15.52"/>
<rect x="36.916" y="206.143" fill="#CDCCCC" width="84.229" height="8.961"/>
<rect x="18.667" y="203.215" fill="#CDCCCC" width="14.658" height="16.381"/>
<line fill="none" stroke="#E6E6E5" stroke-miterlimit="10" x1="-3.462" y1="44.991" x2="616.509" y2="44.991"/>
<rect x="544.955" y="13.519" fill="#E6E6E5" width="13.796" height="14.658"/>
<rect x="513.052" y="13.519" fill="#E6E6E5" width="13.796" height="14.658"/>
<polygon opacity="0.2" fill="#F47944" enable-background="new    " points="210.467,110.961 168.596,110.961 168.596,67.677 "/>
<polygon opacity="0.2" fill="#F47944" enable-background="new    " points="210.467,167.417 168.596,167.417 168.596,124.132 "/>
<polygon opacity="0.2" fill="#F47944" enable-background="new    " points="210.467,225.92 168.596,225.92 168.596,182.635 "/>
<polygon opacity="0.2" fill="#F47944" enable-background="new    " points="210.467,282.666 168.596,282.666 168.596,239.379 "/>
<polygon opacity="0.2" fill="#F47944" enable-background="new    " points="210.467,335.938 168.596,335.938 168.596,292.652 "/>
</svg>
