<?xml version="1.0" encoding="utf-8"?>
<!-- Generator: Adobe Illustrator 16.0.0, SVG Export Plug-In . SVG Version: 6.00 Build 0)  -->
<!DOCTYPE svg PUBLIC "-//W3C//DTD SVG 1.1//EN" "http://www.w3.org/Graphics/SVG/1.1/DTD/svg11.dtd">
<svg version="1.1" id="Layer_1" xmlns="http://www.w3.org/2000/svg" xmlns:xlink="http://www.w3.org/1999/xlink" x="0px" y="0px"
	 width="617px" height="336px" viewBox="0 0 617 336" enable-background="new 0 0 617 336" xml:space="preserve">
<rect y="-0.321" fill="#FFFFFF" width="615.064" height="335.967"/>
<rect x="60.743" y="14.366" fill="#CDCCCC" width="165.488" height="9.594"/>
<rect x="33.814" y="89.394" opacity="0.5" fill="#E6E6E5" enable-background="new    " width="54.311" height="5.935"/>
<rect x="12.57" y="63.33" opacity="0.5" fill="#E6E6E5" enable-background="new    " width="161.359" height="5.933"/>
<rect x="12.57" y="119.815" opacity="0.5" fill="#E6E6E5" enable-background="new    " width="161.359" height="5.935"/>
<rect x="84.799" y="150.517" opacity="0.5" fill="#E6E6E5" enable-background="new    " width="14.168" height="2.966"/>
<rect x="98.967" y="147.549" opacity="0.5" fill="#E6E6E5" enable-background="new    " width="14.167" height="5.933"/>
<rect x="113.135" y="138.833" opacity="0.5" fill="#E6E6E5" enable-background="new    " width="14.167" height="14.649"/>
<rect x="127.301" y="141.83" opacity="0.5" fill="#E6E6E5" enable-background="new    " width="14.167" height="11.652"/>
<rect x="141.177" y="144.227" opacity="0.5" fill="#E6E6E5" enable-background="new    " width="14.168" height="9.255"/>
<rect x="155.345" y="148.855" opacity="0.5" fill="#E6E6E5" enable-background="new    " width="14.167" height="4.627"/>
<rect x="169.512" y="151.128" opacity="0.5" fill="#E6E6E5" enable-background="new    " width="14.167" height="2.394"/>
<path fill="#E6E6E5" d="M27.926,94.75c0,1.909-1.534,3.457-3.428,3.457h-4.92c-1.894,0-3.429-1.547-3.429-3.457v-4.958
	c0-1.91,1.535-3.454,3.429-3.454h4.92c1.893,0,3.428,1.544,3.428,3.454V94.75z"/>
<rect x="131.958" y="89.394" opacity="0.5" fill="#E6E6E5" enable-background="new    " width="54.311" height="5.935"/>
<path fill="#E6E6E5" d="M126.07,94.75c0,1.909-1.536,3.457-3.429,3.457h-4.918c-1.894,0-3.429-1.547-3.429-3.457v-4.958
	c0-1.91,1.536-3.454,3.429-3.454h4.918c1.894,0,3.429,1.544,3.429,3.454V94.75z"/>
<rect x="229.345" y="89.394" opacity="0.5" fill="#E6E6E5" enable-background="new    " width="54.311" height="5.935"/>
<path fill="#E6E6E5" d="M223.457,94.75c0,1.909-1.535,3.457-3.429,3.457h-4.919c-1.894,0-3.428-1.547-3.428-3.457v-4.958
	c0-1.91,1.535-3.454,3.428-3.454h4.919c1.894,0,3.429,1.544,3.429,3.454V94.75z"/>
<g opacity="0.5">
	<rect x="16.301" y="151.76" fill="#E6E6E5" width="261.311" height="1.765"/>
</g>
<g>
	<rect x="82.61" y="151.76" fill="#F4B0B0" width="142.942" height="1.765"/>
</g>
<ellipse fill="#F4B0B0" cx="22.037" cy="92.272" rx="2.855" ry="2.878"/>
<ellipse fill="#F4B0B0" cx="82.36" cy="152.51" rx="2.855" ry="2.876"/>
<ellipse fill="#F4B0B0" cx="225.942" cy="152.51" rx="2.855" ry="2.876"/>
<line fill="none" stroke="#B4B4B4" stroke-miterlimit="10" x1="53.471" y1="40.141" x2="294.376" y2="40.141"/>
<g>
	<path fill="none" stroke="#F4B0B0" stroke-width="2" stroke-miterlimit="10" d="M279.953,16.04
		c0.641,3.673-1.802,7.173-5.452,7.817c-3.645,0.645-7.125-1.818-7.758-5.492c-0.637-3.682,1.804-7.181,5.459-7.822
		C275.846,9.899,279.319,12.356,279.953,16.04z"/>
	<line fill="none" stroke="#F4B0B0" stroke-width="2" stroke-miterlimit="10" x1="277.927" y1="22.146" x2="283.139" y2="27.883"/>
</g>
<rect x="60.743" y="14.366" fill="#CDCCCC" width="165.488" height="9.594"/>
<g>
	<rect x="53.471" y="39.7" fill="#B4B4B4" width="240.905" height="0.882"/>
</g>
<g>
	<g>
		<path fill="#F4B0B0" d="M273.336,24.841c-3.692,0-6.831-2.66-7.463-6.327c-0.717-4.151,2.052-8.117,6.176-8.841
			c0.434-0.078,0.877-0.116,1.315-0.116c3.692,0,6.828,2.663,7.459,6.333c0.723,4.143-2.043,8.107-6.169,8.835
			C274.218,24.802,273.775,24.841,273.336,24.841z M273.363,11.322c-0.335,0-0.676,0.03-1.009,0.089
			c-3.168,0.556-5.295,3.608-4.743,6.803c0.486,2.817,2.893,4.862,5.724,4.862c0.336,0,0.677-0.03,1.011-0.089
			c3.169-0.559,5.294-3.607,4.737-6.796C278.599,13.369,276.193,11.322,273.363,11.322z"/>
	</g>
	<g>
		
			<rect x="276.662" y="24.132" transform="matrix(-0.6723 -0.7402 0.7402 -0.6723 450.6351 249.5)" fill="#F4B0B0" width="7.751" height="1.765"/>
	</g>
</g>
<g>
	<path fill="#F4B0B0" d="M42.214,35.361c0,0.001,0,0.001,0,0.001c-1.009,1.028-2.673,0.842-4.943-0.551l-4.389-2.692
		c-2.956-1.808-7.929-1.78-10.858,0.065l-4.353,2.744c-2.207,1.389-3.848,1.614-4.877,0.667c-1.032-0.947-0.964-2.614,0.203-4.955
		l9.943-19.989c1.187-2.397,3.05-3.632,4.937-3.339c1.5,0.229,2.859,1.396,3.824,3.285l10.19,19.872
		C43.059,32.742,43.167,34.389,42.214,35.361z M14.628,33.564c0.32-0.078,0.877-0.294,1.697-0.81l4.351-2.744
		c3.778-2.377,9.718-2.413,13.525-0.081l4.393,2.691c0.823,0.504,1.382,0.714,1.703,0.789c-0.052-0.328-0.219-0.904-0.664-1.766
		L29.444,11.771c-0.576-1.125-1.286-1.826-1.949-1.927c-0.759-0.118-1.618,0.619-2.281,1.953l-9.944,19.991
		C14.837,32.658,14.675,33.237,14.628,33.564z"/>
</g>
<g>
	<polygon fill="none" points="346.433,335.171 346.956,335.08 346.416,335.08 	"/>
	<polygon fill="none" points="300.516,23.487 300.334,23.52 300.516,24.744 	"/>
	<polygon fill="#EAEAEA" points="460.659,170.369 500.416,163.388 495.972,132.415 456.135,139.638 	"/>
	<polygon fill="#EAEAEA" points="453.027,137.187 448.137,103.978 404.953,111.572 409.828,145.021 	"/>
	<polygon fill="#EAEAEA" points="318.487,164.607 300.577,167.861 300.577,198.484 322.934,194.558 	"/>
	<polygon fill="#EAEAEA" points="329.073,236.177 300.577,241.237 300.577,269.114 333.12,263.448 	"/>
	<polygon fill="#EAEAEA" points="388.523,296.512 392.979,327.071 432.621,320.173 428.124,289.325 	"/>
	<polygon fill="#EAEAEA" points="402.274,112.043 362.65,119.011 367.56,152.686 407.152,145.506 	"/>
	<polygon fill="#EAEAEA" points="334.121,270.304 300.577,276.149 300.577,309.468 338.899,302.51 	"/>
	<polygon fill="#EAEAEA" points="313.034,127.743 300.577,129.939 300.577,164.844 318.069,161.67 	"/>
	<polygon fill="#EAEAEA" points="323.351,197.497 300.577,201.501 300.577,234.201 328.073,229.322 	"/>
	<polygon fill="#EAEAEA" points="617.979,34.879 617.979,4.306 576.158,12.002 580.724,41.501 	"/>
	<polygon fill="#EAEAEA" points="430.801,288.839 435.301,319.707 478.787,312.142 474.196,280.964 	"/>
	<polygon fill="#EAEAEA" points="577.92,41.977 573.4,12.496 532.421,20.051 536.645,49.321 	"/>
	<polygon fill="#EAEAEA" points="524.689,268.784 564.527,261.554 560.112,230.959 520.259,237.897 	"/>
	<polygon fill="#EAEAEA" points="391.635,39.084 387.098,7.961 347.499,15.062 352.04,46.221 	"/>
	<polygon fill="#EAEAEA" points="514.289,196.288 554.091,189.23 549.553,157.775 509.764,164.762 	"/>
	<polygon fill="#EAEAEA" points="465.744,204.897 505.364,197.872 500.838,166.329 461.092,173.307 	"/>
	<polygon fill="#EAEAEA" points="457.981,170.839 453.46,140.124 410.258,147.959 414.702,178.438 	"/>
	<polygon fill="#EAEAEA" points="484.911,335.65 525.049,335.65 521.134,308.069 481.897,315.041 	"/>
	<polygon fill="#EAEAEA" points="415.131,181.377 419.75,213.055 463.067,205.373 458.415,173.777 	"/>
	<polygon fill="#EAEAEA" points="304.979,54.708 345.812,47.347 341.293,16.181 300.577,23.487 300.577,24.744 	"/>
	<polygon fill="#EAEAEA" points="471.844,246.326 476.438,277.539 515.77,270.402 511.329,239.452 	"/>
	<polygon fill="#EAEAEA" points="425.77,254.346 430.37,285.9 473.764,278.024 469.166,246.791 	"/>
	<polygon fill="#EAEAEA" points="420.749,219.913 424.771,247.486 468.155,239.934 464.075,212.23 	"/>
	<polygon fill="#EAEAEA" points="561.801,223.632 604.298,216.236 600.064,188.111 557.757,195.615 	"/>
	<polygon fill="#EAEAEA" points="539.045,84.975 534.395,52.738 494.707,59.8 499.319,91.961 	"/>
	<polygon fill="#EAEAEA" points="372.204,228.524 331.718,235.704 335.754,262.98 376.203,255.941 	"/>
	<polygon fill="#EAEAEA" points="597.317,77.743 542.147,87.445 542.167,87.59 	"/>
	<polygon fill="#EAEAEA" points="495.552,129.474 490.815,96.473 450.815,103.507 455.701,136.701 	"/>
	<polygon fill="#EAEAEA" points="562.791,230.495 567.202,261.067 609.881,253.322 605.33,223.09 	"/>
	<polygon fill="#EAEAEA" points="378.452,227.416 382.453,254.852 422.091,247.952 418.072,220.39 	"/>
	<polygon fill="#EAEAEA" points="504.471,127.856 544.193,120.653 539.471,87.917 499.741,94.902 	"/>
	<polygon fill="#EAEAEA" points="490.394,93.531 485.781,61.386 445.664,68.526 450.382,100.568 	"/>
	<polygon fill="#EAEAEA" points="509.344,161.82 549.127,154.834 544.619,123.593 504.894,130.796 	"/>
	<polygon fill="#EAEAEA" points="447.705,101.039 442.986,69.001 399.863,76.673 404.522,108.633 	"/>
	<polygon fill="#EAEAEA" points="351.33,85.309 310.548,92.565 315.245,124.333 355.975,117.17 	"/>
	<polygon fill="#EAEAEA" points="356.404,120.11 315.679,127.273 320.696,161.183 361.314,153.818 	"/>
	<polygon fill="#EAEAEA" points="401.845,109.103 397.186,77.151 357.575,84.198 362.221,116.071 	"/>
	<polygon fill="#EAEAEA" points="361.744,156.757 321.131,164.122 325.562,194.088 366.147,186.963 	"/>
	<polygon fill="#EAEAEA" points="366.576,189.902 326,197.028 330.705,228.847 371.205,221.664 	"/>
	<polygon fill="#EAEAEA" points="336.767,269.838 341.528,302.023 381.852,294.706 377.201,262.8 	"/>
	<polygon fill="#EAEAEA" points="350.902,82.37 346.225,50.287 305.383,57.649 310.112,89.627 	"/>
	<polygon fill="#EAEAEA" points="485.358,58.447 480.711,26.046 440.478,33.298 445.231,65.587 	"/>
	<polygon fill="#EAEAEA" points="533.97,49.797 529.746,20.544 490.122,27.851 494.284,56.859 	"/>
	<polygon fill="#EAEAEA" points="586.083,76.718 617.979,71.124 617.979,37.894 581.174,44.437 	"/>
	<polygon fill="#EAEAEA" points="357.147,81.258 396.758,74.211 392.063,42.025 352.469,49.161 	"/>
	<polygon fill="#EAEAEA" points="300.577,43.316 300.577,55.506 302.333,55.191 	"/>
	<polygon fill="#EAEAEA" points="302.737,58.13 300.577,58.525 300.577,91.334 307.482,90.104 	"/>
	<polygon fill="#EAEAEA" points="617,177.787 601.694,180.388 601.814,180.786 617.979,177.929 617.979,74.138 617,74.297 	"/>
	<polygon fill="#EAEAEA" points="442.555,66.062 437.802,33.781 394.741,41.542 399.435,73.733 	"/>
	<polygon fill="#EAEAEA" points="407.58,148.444 367.988,155.625 372.396,185.864 412.023,178.908 	"/>
	<polygon fill="#EAEAEA" points="476.872,280.479 481.466,311.674 520.712,304.846 516.19,273.342 	"/>
	<polygon fill="#EAEAEA" points="383.45,261.712 388.095,293.573 427.695,286.387 423.091,254.811 	"/>
	<polygon fill="#EAEAEA" points="307.902,93.042 300.577,94.35 300.577,126.923 312.615,124.803 	"/>
	<polygon fill="#EAEAEA" points="525.112,271.724 529.641,303.29 569.549,296.348 564.951,264.492 	"/>
	<polygon fill="#EAEAEA" points="572.227,295.882 615.16,288.408 610.322,256.257 567.626,264.009 	"/>
	<polygon fill="#EAEAEA" points="412.452,181.848 372.824,188.806 377.455,220.555 417.071,213.529 	"/>
	<polygon fill="#EAEAEA" points="466.752,211.755 470.833,239.468 510.344,232.59 506.349,204.734 	"/>
	<polygon fill="#EAEAEA" points="612.636,252.838 617.979,251.882 617.979,220.916 608.131,222.623 	"/>
	<polygon fill="#EAEAEA" points="607.06,215.769 617.979,213.882 617.979,184.965 602.865,187.639 	"/>
	<polygon fill="#EAEAEA" points="559.124,224.099 555.08,196.091 515.273,203.151 519.273,231.034 	"/>
	<polygon fill="#EAEAEA" points="596.647,146.194 596.508,146.217 598.299,158.116 	"/>
	<polygon fill="#EAEAEA" points="389.774,7.481 394.312,38.602 437.369,30.842 433.494,4.528 436.17,4.054 440.044,30.358 
		480.289,23.105 476.925,-0.349 416.771,-0.349 417.202,2.561 	"/>
	<polygon fill="#EAEAEA" points="339.319,305.733 300.577,312.485 300.577,325.881 301.872,335.65 343.672,335.65 	"/>
	<polygon fill="#EAEAEA" points="501.682,15.656 500.012,5.141 508.92,3.44 510.597,14.013 528.333,10.743 526.733,-0.349 
		486.077,-0.349 488.717,18.047 	"/>
	<polygon fill="#EAEAEA" points="593.83,146.693 596.066,146.289 593.595,146.69 598.623,180.763 556.993,188.536 549.952,141.54 
		556.768,188.755 599.035,181.257 	"/>
	<polygon fill="#EAEAEA" points="394.188,-0.349 342.156,-0.349 344.384,8.582 	"/>
	<polygon fill="#EAEAEA" points="339.344,-0.349 300.577,-0.349 300.577,16.449 341.722,9.065 	"/>
	<polygon fill="#EAEAEA" points="479.221,315.363 435.729,323.073 437.542,335.65 482.165,335.65 	"/>
	<polygon fill="#EAEAEA" points="530.063,306.231 534.008,333.731 573.939,326.783 569.971,299.288 	"/>
	<polygon fill="#EAEAEA" points="341.963,305.247 346.416,335.65 346.956,335.65 386.729,328.444 382.282,297.93 	"/>
	<polygon fill="#EAEAEA" points="615.684,291.347 572.694,298.82 576.719,326.316 617.979,319.146 617.979,306.047 	"/>
	<polygon fill="#EAEAEA" points="588.489,-0.349 529.479,-0.349 531.007,10.249 	"/>
	<polygon fill="#EAEAEA" points="543.572,335.65 575.137,335.65 574.364,330.293 	"/>
	<polygon fill="#EAEAEA" points="393.405,330.01 394.07,334.842 391.094,335.65 434.795,335.65 433.051,323.399 	"/>
	<polygon fill="#EAEAEA" points="617.979,287.791 617.979,254.899 613.162,255.772 	"/>
	<polygon fill="#EAEAEA" points="583.321,77.189 578.373,44.913 537.07,52.261 541.723,84.503 	"/>
	<polygon fill="#EAEAEA" points="577.881,335.65 617.979,335.65 617.979,322.162 577.125,329.541 	"/>
	<polygon fill="#EAEAEA" points="364.278,335.65 387.736,335.65 387.156,331.669 	"/>
	<polygon fill="#FFFFFF" points="300.577,335.65 301.872,335.65 300.577,325.881 	"/>
	<polygon fill="#FFFFFF" points="341.285,16.181 340.769,12.742 342.537,12.429 341.727,9.065 300.577,16.449 300.577,23.487 	"/>
	<polygon fill="#FFFFFF" points="345.185,11.798 343.877,12.192 347.001,11.644 347.499,15.062 387.098,7.961 386.597,4.527 
		389.275,4.055 389.774,7.481 417.202,2.561 416.771,-0.349 394.188,-0.349 344.384,8.582 	"/>
	<polygon fill="#FFFFFF" points="343.672,335.65 343.753,335.922 346.433,335.6 346.416,335.65 	"/>
	<polygon fill="#FFFFFF" points="321.131,164.122 318.457,164.607 322.887,194.558 325.562,194.088 	"/>
	<polygon fill="#FFFFFF" points="310.548,92.565 307.871,93.042 312.568,124.803 315.245,124.333 	"/>
	<polygon fill="#FFFFFF" points="305.383,57.649 302.707,58.13 307.436,90.104 310.112,89.627 	"/>
	<polygon fill="#FFFFFF" points="304.979,54.708 300.577,24.744 300.577,43.316 302.319,55.191 	"/>
	<polygon fill="#FFFFFF" points="334.09,270.304 338.852,302.51 341.528,302.023 336.767,269.838 	"/>
	<polygon fill="#FFFFFF" points="331.718,235.704 329.041,236.177 333.074,263.448 335.754,262.98 	"/>
	<polygon fill="#FFFFFF" points="326,197.028 323.32,197.497 328.027,229.322 330.705,228.847 	"/>
	<polygon fill="#FFFFFF" points="315.679,127.273 313.004,127.743 318.021,161.67 320.696,161.183 	"/>
	<polygon fill="#FFFFFF" points="343.672,335.65 346.416,335.65 341.963,305.247 339.288,305.877 	"/>
	<polygon fill="#FFFFFF" points="344.384,8.582 342.156,-0.349 339.344,-0.349 341.691,9.065 	"/>
	<polygon fill="#FFFFFF" points="345.185,11.798 344.384,8.582 341.691,9.065 342.528,12.429 343.877,12.192 	"/>
	<polygon fill="#FFFFFF" points="372.824,188.806 366.576,189.902 371.205,221.664 377.455,220.555 	"/>
	<polygon fill="#FFFFFF" points="352.04,46.221 347.499,15.062 341.255,16.181 345.797,47.347 	"/>
	<polygon fill="#FFFFFF" points="362.65,119.011 356.404,120.11 361.314,153.818 367.56,152.686 	"/>
	<polygon fill="#FFFFFF" points="367.988,155.625 361.744,156.757 366.147,186.963 372.396,185.864 	"/>
	<polygon fill="#FFFFFF" points="393.405,330.01 387.156,331.384 387.736,335.65 391.094,335.65 394.07,334.842 	"/>
	<polygon fill="#FFFFFF" points="388.523,296.512 382.282,297.646 386.729,328.159 392.979,327.071 	"/>
	<polygon fill="#FFFFFF" points="372.204,228.524 376.203,255.941 382.453,254.852 378.452,227.416 	"/>
	<polygon fill="#FFFFFF" points="362.221,116.071 357.575,84.198 351.33,85.309 355.975,117.17 	"/>
	<polygon fill="#FFFFFF" points="357.147,81.258 352.469,49.161 346.225,50.287 350.902,82.37 	"/>
	<polygon fill="#FFFFFF" points="377.201,262.8 381.852,294.706 388.095,293.573 383.45,261.712 	"/>
	<polygon fill="#FFFFFF" points="347.001,11.644 343.877,12.192 342.568,12.586 342.528,12.429 340.753,12.742 341.255,16.181 
		347.499,15.062 	"/>
	<polygon fill="#FFFFFF" points="343.877,12.192 342.528,12.429 342.568,12.586 	"/>
	<polygon fill="#FFFFFF" points="425.77,254.346 423.091,254.811 427.695,286.387 430.37,285.9 	"/>
	<polygon fill="#FFFFFF" points="399.435,73.733 394.741,41.542 392.063,42.025 396.758,74.211 	"/>
	<polygon fill="#FFFFFF" points="412.452,181.848 417.071,213.529 419.75,213.055 415.131,181.377 	"/>
	<polygon fill="#FFFFFF" points="410.258,147.959 407.58,148.444 412.023,178.908 414.702,178.438 	"/>
	<polygon fill="#FFFFFF" points="435.729,322.932 433.051,323.541 434.795,335.65 437.542,335.65 	"/>
	<polygon fill="#FFFFFF" points="394.312,38.602 389.774,7.481 387.098,7.961 391.635,39.084 	"/>
	<polygon fill="#FFFFFF" points="409.828,145.021 404.953,111.572 402.274,112.043 407.152,145.506 	"/>
	<polygon fill="#FFFFFF" points="428.124,289.325 432.621,320.173 435.301,319.707 430.801,288.839 	"/>
	<polygon fill="#FFFFFF" points="418.072,220.39 422.091,247.952 424.771,247.486 420.749,219.913 	"/>
	<polygon fill="#FFFFFF" points="404.522,108.633 399.863,76.673 397.186,77.151 401.845,109.103 	"/>
	<polygon fill="#FFFFFF" points="389.275,4.055 386.597,4.527 387.098,7.961 389.774,7.481 	"/>
	<polygon fill="#FFFFFF" points="450.382,100.568 445.664,68.526 442.986,69.001 447.705,101.039 	"/>
	<polygon fill="#FFFFFF" points="458.415,173.777 463.067,205.373 465.744,204.897 461.092,173.307 	"/>
	<polygon fill="#FFFFFF" points="476.872,280.479 474.196,280.964 478.787,312.142 481.466,311.674 	"/>
	<polygon fill="#FFFFFF" points="479.221,315.363 482.165,335.65 484.911,335.65 481.897,315.041 	"/>
	<polygon fill="#FFFFFF" points="460.659,170.369 456.135,139.638 453.46,140.124 457.981,170.839 	"/>
	<polygon fill="#FFFFFF" points="453.027,137.187 455.701,136.701 450.815,103.507 448.137,103.978 	"/>
	<polygon fill="#FFFFFF" points="436.17,4.054 433.494,4.528 437.369,30.842 440.044,30.358 	"/>
	<polygon fill="#FFFFFF" points="445.231,65.587 440.478,33.298 437.802,33.781 442.555,66.062 	"/>
	<polygon fill="#FFFFFF" points="469.166,246.791 473.764,278.024 476.438,277.539 471.844,246.326 	"/>
	<polygon fill="#FFFFFF" points="466.752,211.755 464.075,212.23 468.155,239.934 470.833,239.468 	"/>
	<polygon fill="#FFFFFF" points="510.344,232.59 519.273,231.034 515.273,203.151 506.349,204.734 	"/>
	<polygon fill="#FFFFFF" points="500.416,163.388 509.344,161.82 504.894,130.796 495.972,132.415 	"/>
	<polygon fill="#FFFFFF" points="505.364,197.872 514.289,196.288 509.764,164.762 500.838,166.329 	"/>
	<polygon fill="#FFFFFF" points="484.737,22.303 484.211,18.878 488.717,18.047 486.077,-0.349 476.925,-0.349 480.289,23.105 	"/>
	<polygon fill="#FFFFFF" points="494.284,56.859 490.122,27.851 485.71,28.664 484.961,23.772 485.181,25.24 480.711,26.046 
		485.358,58.447 	"/>
	<polygon fill="#FFFFFF" points="490.394,93.531 499.319,91.961 494.707,59.8 485.781,61.386 	"/>
	<polygon fill="#FFFFFF" points="520.259,237.897 511.329,239.452 515.77,270.402 524.689,268.784 	"/>
	<polygon fill="#FFFFFF" points="516.19,273.342 520.712,304.846 529.641,303.29 525.112,271.724 	"/>
	<polygon fill="#FFFFFF" points="504.471,127.856 499.741,94.902 490.815,96.473 495.552,129.474 	"/>
	<polygon fill="#FFFFFF" points="521.134,308.069 525.049,335.65 526.253,335.65 534.008,334.017 530.063,306.517 	"/>
	<polygon fill="#FFFFFF" points="529.746,20.544 528.333,10.743 510.597,14.013 511.365,18.873 502.458,20.574 501.682,15.656 
		488.717,18.047 490.122,27.851 	"/>
	<polygon fill="#FFFFFF" points="532.421,20.051 573.4,12.496 572.181,4.538 574.856,4.042 576.158,12.002 617.979,4.306 
		617.979,1.939 617.47,-0.349 588.489,-0.349 531.007,10.249 	"/>
	<polygon fill="#FFFFFF" points="484.961,23.703 485.71,28.631 490.122,27.834 488.717,18.039 484.211,18.804 484.737,22.167 
		484.739,22.167 	"/>
	<polygon fill="#FFFFFF" points="508.92,3.44 500.012,5.141 501.682,15.656 510.597,14.013 	"/>
	<polygon fill="#FFFFFF" points="511.365,18.873 510.597,14.013 501.682,15.656 502.458,20.574 	"/>
	<polygon fill="#FFFFFF" points="480.711,26.046 480.289,23.105 440.044,30.358 440.478,33.298 	"/>
	<polygon fill="#FFFFFF" points="437.802,33.781 437.369,30.842 394.312,38.602 394.741,41.542 	"/>
	<polygon fill="#FFFFFF" points="346.225,50.287 345.797,47.347 304.947,54.708 305.383,57.649 	"/>
	<polygon fill="#FFFFFF" points="392.063,42.025 391.635,39.084 352.04,46.221 352.469,49.161 	"/>
	<polygon fill="#FFFFFF" points="302.302,55.191 300.577,55.506 300.577,58.525 302.754,58.13 	"/>
	<polygon fill="#FFFFFF" points="302.707,58.13 305.383,57.649 304.947,54.708 302.273,55.191 	"/>
	<polygon fill="#FFFFFF" points="352.469,49.161 352.04,46.221 345.797,47.347 346.225,50.287 	"/>
	<polygon fill="#FFFFFF" points="392.063,42.025 394.741,41.542 394.312,38.602 391.635,39.084 	"/>
	<polygon fill="#FFFFFF" points="440.478,33.298 440.044,30.358 437.369,30.842 437.802,33.781 	"/>
	<polygon fill="#FFFFFF" points="485.181,25.24 484.961,23.772 484.737,22.303 480.289,23.105 480.711,26.046 	"/>
	<polygon fill="#FFFFFF" points="484.739,22.301 484.737,22.303 484.961,23.772 	"/>
	<polygon fill="#FFFFFF" points="397.186,77.151 396.758,74.211 357.147,81.258 357.575,84.198 	"/>
	<polygon fill="#FFFFFF" points="350.902,82.37 310.112,89.627 310.548,92.565 351.33,85.309 	"/>
	<polygon fill="#FFFFFF" points="442.986,69.001 442.555,66.062 399.435,73.733 399.863,76.673 	"/>
	<polygon fill="#FFFFFF" points="494.707,59.8 534.395,52.738 533.97,49.797 494.284,56.859 	"/>
	<polygon fill="#FFFFFF" points="485.781,61.386 485.358,58.447 445.231,65.587 445.664,68.526 	"/>
	<polygon fill="#FFFFFF" points="617.979,37.894 617.979,34.879 580.682,41.501 581.174,44.437 	"/>
	<polygon fill="#FFFFFF" points="307.467,90.104 300.577,91.334 300.577,94.35 307.918,93.042 	"/>
	<polygon fill="#FFFFFF" points="578.373,44.913 577.92,41.977 536.645,49.321 537.07,52.261 	"/>
	<polygon fill="#FFFFFF" points="310.112,89.627 307.436,90.104 307.871,93.042 310.548,92.565 	"/>
	<polygon fill="#FFFFFF" points="351.33,85.309 357.575,84.198 357.147,81.258 350.902,82.37 	"/>
	<polygon fill="#FFFFFF" points="399.863,76.673 399.435,73.733 396.758,74.211 397.186,77.151 	"/>
	<polygon fill="#FFFFFF" points="445.664,68.526 445.231,65.587 442.555,66.062 442.986,69.001 	"/>
	<polygon fill="#FFFFFF" points="494.707,59.8 494.284,56.859 485.358,58.447 485.781,61.386 	"/>
	<polygon fill="#FFFFFF" points="539.471,87.917 539.045,84.975 499.319,91.961 499.741,94.902 	"/>
	<polygon fill="#FFFFFF" points="450.815,103.507 490.815,96.473 490.394,93.531 450.382,100.568 	"/>
	<polygon fill="#FFFFFF" points="402.274,112.043 401.845,109.103 362.221,116.071 362.65,119.011 	"/>
	<polygon fill="#FFFFFF" points="312.6,124.803 300.577,126.923 300.577,129.939 313.051,127.743 	"/>
	<polygon fill="#FFFFFF" points="355.975,117.17 315.245,124.333 315.679,127.273 356.404,120.11 	"/>
	<polygon fill="#FFFFFF" points="586.224,78.174 583.55,78.668 583.321,77.189 541.723,84.503 542.147,87.445 597.361,77.743 
		617,74.245 617,74.297 617.979,74.138 617.979,71.124 586.083,76.718 	"/>
	<polygon fill="#FFFFFF" points="448.137,103.978 447.705,101.039 404.522,108.633 404.953,111.572 	"/>
	<polygon fill="#FFFFFF" points="315.245,124.333 312.568,124.803 313.004,127.743 315.679,127.273 	"/>
	<polygon fill="#FFFFFF" points="362.221,116.071 355.975,117.17 356.404,120.11 362.65,119.011 	"/>
	<polygon fill="#FFFFFF" points="404.953,111.572 404.522,108.633 401.845,109.103 402.274,112.043 	"/>
	<polygon fill="#FFFFFF" points="450.815,103.507 450.382,100.568 447.705,101.039 448.137,103.978 	"/>
	<polygon fill="#FFFFFF" points="499.741,94.902 499.319,91.961 490.394,93.531 490.815,96.473 	"/>
	<polygon fill="#FFFFFF" points="318.053,161.67 300.577,164.844 300.577,167.861 318.503,164.607 	"/>
	<polygon fill="#FFFFFF" points="504.894,130.796 544.619,123.593 544.193,120.653 504.471,127.856 	"/>
	<polygon fill="#FFFFFF" points="407.152,145.506 367.56,152.686 367.988,155.625 407.58,148.444 	"/>
	<polygon fill="#FFFFFF" points="361.314,153.818 320.696,161.183 321.131,164.122 361.744,156.757 	"/>
	<polygon fill="#FFFFFF" points="410.258,147.959 453.46,140.124 453.027,137.187 409.828,145.021 	"/>
	<polygon fill="#FFFFFF" points="495.972,132.415 495.552,129.474 455.701,136.701 456.135,139.638 	"/>
	<polygon fill="#FFFFFF" points="320.696,161.183 318.021,161.67 318.457,164.607 321.131,164.122 	"/>
	<polygon fill="#FFFFFF" points="367.56,152.686 361.314,153.818 361.744,156.757 367.988,155.625 	"/>
	<polygon fill="#FFFFFF" points="409.828,145.021 407.152,145.506 407.58,148.444 410.258,147.959 	"/>
	<polygon fill="#FFFFFF" points="456.135,139.638 455.701,136.701 453.027,137.187 453.46,140.124 	"/>
	<polygon fill="#FFFFFF" points="495.972,132.415 504.894,130.796 504.471,127.856 495.552,129.474 	"/>
	<polygon fill="#FFFFFF" points="461.092,173.307 500.838,166.329 500.416,163.388 460.659,170.369 	"/>
	<polygon fill="#FFFFFF" points="322.917,194.558 300.577,198.484 300.577,201.501 323.366,197.497 	"/>
	<polygon fill="#FFFFFF" points="366.147,186.963 325.562,194.088 326,197.028 366.576,189.902 	"/>
	<polygon fill="#FFFFFF" points="414.702,178.438 415.131,181.377 458.415,173.777 457.981,170.839 	"/>
	<polygon fill="#FFFFFF" points="412.023,178.908 372.396,185.864 372.824,188.806 412.452,181.848 	"/>
	<polygon fill="#FFFFFF" points="509.764,164.762 549.553,157.775 549.127,154.834 509.344,161.82 	"/>
	<polygon fill="#FFFFFF" points="325.562,194.088 322.887,194.558 323.32,197.497 326,197.028 	"/>
	<polygon fill="#FFFFFF" points="372.396,185.864 366.147,186.963 366.576,189.902 372.824,188.806 	"/>
	<polygon fill="#FFFFFF" points="414.702,178.438 412.023,178.908 412.452,181.848 415.131,181.377 	"/>
	<polygon fill="#FFFFFF" points="458.415,173.777 461.092,173.307 460.659,170.369 457.981,170.839 	"/>
	<polygon fill="#FFFFFF" points="500.838,166.329 509.764,164.762 509.344,161.82 500.416,163.388 	"/>
	<polygon fill="#FFFFFF" points="505.364,197.872 465.744,204.897 466.752,211.755 506.349,204.734 	"/>
	<polygon fill="#FFFFFF" points="419.75,213.055 420.749,219.913 464.075,212.23 463.067,205.373 	"/>
	<polygon fill="#FFFFFF" points="515.273,203.151 555.08,196.091 554.091,189.23 514.289,196.288 	"/>
	<polygon fill="#FFFFFF" points="377.455,220.555 378.452,227.416 418.072,220.39 417.071,213.529 	"/>
	<polygon fill="#FFFFFF" points="600.064,188.111 599.035,181.257 556.768,188.755 557.757,195.615 	"/>
	<polygon fill="#FFFFFF" points="602.824,187.639 617.979,184.965 617.979,177.929 601.833,180.786 	"/>
	<polygon fill="#FFFFFF" points="328.058,229.322 300.577,234.201 300.577,241.237 329.09,236.177 	"/>
	<polygon fill="#FFFFFF" points="371.205,221.664 330.705,228.847 331.718,235.704 372.204,228.524 	"/>
	<polygon fill="#FFFFFF" points="330.705,228.847 328.027,229.322 329.041,236.177 331.718,235.704 	"/>
	<polygon fill="#FFFFFF" points="377.455,220.555 371.205,221.664 372.204,228.524 378.452,227.416 	"/>
	<polygon fill="#FFFFFF" points="417.071,213.529 418.072,220.39 420.749,219.913 419.75,213.055 	"/>
	<polygon fill="#FFFFFF" points="463.067,205.373 464.075,212.23 466.752,211.755 465.744,204.897 	"/>
	<polygon fill="#FFFFFF" points="506.349,204.734 515.273,203.151 514.289,196.288 505.364,197.872 	"/>
	<polygon fill="#FFFFFF" points="519.273,231.034 520.259,237.897 560.112,230.959 559.124,224.099 	"/>
	<polygon fill="#FFFFFF" points="470.833,239.468 471.844,246.326 511.329,239.452 510.344,232.59 	"/>
	<polygon fill="#FFFFFF" points="562.791,230.495 605.33,223.09 604.298,216.236 561.801,223.632 	"/>
	<polygon fill="#FFFFFF" points="335.754,262.98 336.767,269.838 377.201,262.8 376.203,255.941 	"/>
	<polygon fill="#FFFFFF" points="468.155,239.934 424.771,247.486 425.77,254.346 469.166,246.791 	"/>
	<polygon fill="#FFFFFF" points="608.09,222.623 617.979,220.916 617.979,213.882 607.1,215.769 	"/>
	<polygon fill="#FFFFFF" points="382.453,254.852 383.45,261.712 423.091,254.811 422.091,247.952 	"/>
	<polygon fill="#FFFFFF" points="333.105,263.448 300.577,269.114 300.577,276.149 334.136,270.304 	"/>
	<polygon fill="#FFFFFF" points="335.754,262.98 333.074,263.448 334.09,270.304 336.767,269.838 	"/>
	<polygon fill="#FFFFFF" points="376.203,255.941 377.201,262.8 383.45,261.712 382.453,254.852 	"/>
	<polygon fill="#FFFFFF" points="422.091,247.952 423.091,254.811 425.77,254.346 424.771,247.486 	"/>
	<polygon fill="#FFFFFF" points="468.155,239.934 469.166,246.791 471.844,246.326 470.833,239.468 	"/>
	<polygon fill="#FFFFFF" points="510.344,232.59 511.329,239.452 520.259,237.897 519.273,231.034 	"/>
	<polygon fill="#FFFFFF" points="613.078,255.772 617.979,254.899 617.979,251.882 612.677,252.838 	"/>
	<polygon fill="#FFFFFF" points="515.77,270.402 476.438,277.539 476.872,280.479 516.19,273.342 	"/>
	<polygon fill="#FFFFFF" points="567.202,261.067 567.626,264.009 610.322,256.257 609.881,253.322 	"/>
	<polygon fill="#FFFFFF" points="300.577,309.468 300.577,312.485 339.319,305.447 338.899,302.51 	"/>
	<polygon fill="#FFFFFF" points="427.695,286.387 388.095,293.573 388.523,296.512 428.124,289.325 	"/>
	<polygon fill="#FFFFFF" points="341.528,302.023 341.963,304.963 382.282,297.646 381.852,294.706 	"/>
	<polygon fill="#FFFFFF" points="524.689,268.784 525.112,271.724 564.951,264.492 564.527,261.554 	"/>
	<polygon fill="#FFFFFF" points="430.37,285.9 430.801,288.839 474.196,280.964 473.764,278.024 	"/>
	<polygon fill="#FFFFFF" points="338.852,302.51 339.288,305.447 341.963,304.963 341.528,302.023 	"/>
	<polygon fill="#FFFFFF" points="381.852,294.706 382.282,297.646 388.523,296.512 388.095,293.573 	"/>
	<polygon fill="#FFFFFF" points="427.695,286.387 428.124,289.325 430.801,288.839 430.37,285.9 	"/>
	<polygon fill="#FFFFFF" points="473.764,278.024 474.196,280.964 476.872,280.479 476.438,277.539 	"/>
	<polygon fill="#FFFFFF" points="515.77,270.402 516.19,273.342 525.112,271.724 524.689,268.784 	"/>
	<polygon fill="#FFFFFF" points="529.641,303.29 530.063,306.231 569.971,299.288 569.549,296.348 	"/>
	<polygon fill="#FFFFFF" points="478.787,312.142 435.301,319.707 435.729,322.646 479.221,315.08 	"/>
	<polygon fill="#FFFFFF" points="392.979,327.071 393.405,330.01 433.051,323.112 432.621,320.173 	"/>
	<polygon fill="#FFFFFF" points="572.227,295.882 572.649,298.82 615.603,291.347 615.16,288.408 	"/>
	<polygon fill="#FFFFFF" points="481.466,311.674 481.897,314.613 521.134,307.785 520.712,304.846 	"/>
	<polygon fill="#FFFFFF" points="386.729,328.444 346.956,335.65 364.278,335.65 387.156,331.526 	"/>
	<polygon fill="#FFFFFF" points="386.729,328.159 387.156,331.1 393.405,330.01 392.979,327.071 	"/>
	<polygon fill="#FFFFFF" points="432.621,320.173 433.051,323.112 435.729,322.646 435.301,319.707 	"/>
	<polygon fill="#FFFFFF" points="481.466,311.674 478.787,312.142 479.221,315.08 481.897,314.613 	"/>
	<polygon fill="#FFFFFF" points="520.712,304.846 521.134,307.785 530.063,306.231 529.641,303.29 	"/>
	<polygon fill="#FFFFFF" points="573.939,326.783 534.008,333.731 534.095,334.619 529.781,335.65 543.572,335.65 574.364,330.008 	
		"/>
	<polygon fill="#FFFFFF" points="576.7,326.316 577.166,329.255 617.979,322.162 617.979,319.146 	"/>
	<polygon fill="#FFFFFF" points="529.781,335.65 534.095,334.619 534.008,334.158 526.253,335.65 	"/>
	<polygon fill="#FFFFFF" points="574.364,330.008 575.137,335.65 577.881,335.65 577.041,329.682 	"/>
	<polygon fill="#FFFFFF" points="569.971,299.288 573.939,326.783 576.617,326.316 572.649,298.82 	"/>
	<polygon fill="#FFFFFF" points="531.007,10.249 529.479,-0.349 526.733,-0.349 528.333,10.743 	"/>
	<polygon fill="#FFFFFF" points="560.112,230.959 564.527,261.554 567.202,261.067 562.791,230.495 	"/>
	<polygon fill="#FFFFFF" points="541.723,84.503 537.07,52.261 534.395,52.738 539.045,84.975 	"/>
	<polygon fill="#FFFFFF" points="564.951,264.492 569.549,296.348 572.227,295.882 567.626,264.009 	"/>
	<polygon fill="#FFFFFF" points="561.801,223.632 557.757,195.615 555.08,196.091 559.124,224.099 	"/>
	<polygon fill="#FFFFFF" points="533.97,49.797 536.645,49.321 532.421,20.051 529.746,20.544 	"/>
	<polygon fill="#FFFFFF" points="544.193,120.653 545.795,120.362 546.237,123.298 544.619,123.593 549.127,154.834 
		551.552,154.408 551.982,157.348 549.553,157.775 554.091,189.23 556.768,188.755 549.952,141.54 541.879,87.642 542.167,87.59 
		542.147,87.445 539.471,87.917 	"/>
	<polygon fill="#FFFFFF" points="532.421,20.051 531.007,10.249 528.333,10.743 529.746,20.544 	"/>
	<polygon fill="#FFFFFF" points="537.07,52.261 536.645,49.321 533.97,49.797 534.395,52.738 	"/>
	<polygon fill="#FFFFFF" points="539.471,87.917 542.147,87.445 541.723,84.503 539.045,84.975 	"/>
	<polygon fill="#FFFFFF" points="546.237,123.298 545.795,120.362 544.193,120.653 544.619,123.593 	"/>
	<polygon fill="#FFFFFF" points="551.982,157.348 551.552,154.408 549.127,154.834 549.553,157.775 	"/>
	<polygon fill="#FFFFFF" points="557.757,195.615 556.768,188.755 554.091,189.23 555.08,196.091 	"/>
	<polygon fill="#FFFFFF" points="559.124,224.099 560.112,230.959 562.791,230.495 561.801,223.632 	"/>
	<polygon fill="#FFFFFF" points="564.951,264.492 567.626,264.009 567.202,261.067 564.527,261.554 	"/>
	<polygon fill="#FFFFFF" points="569.549,296.348 569.971,299.288 572.649,298.82 572.227,295.882 	"/>
	<polygon fill="#FFFFFF" points="574.364,329.723 577.041,329.255 576.617,326.316 573.939,326.783 	"/>
	<polygon fill="#FFFFFF" points="580.601,41.501 576.075,12.002 573.4,12.496 577.92,41.977 	"/>
	<polygon fill="#FFFFFF" points="585.999,76.718 581.051,44.437 578.373,44.913 583.321,77.189 	"/>
	<polygon fill="#FFFFFF" points="574.856,4.042 572.181,4.538 573.4,12.496 576.075,12.002 	"/>
	<polygon fill="#FFFFFF" points="581.051,44.437 580.601,41.501 577.92,41.977 578.373,44.913 	"/>
	<polygon fill="#FFFFFF" points="583.55,78.668 586.224,78.174 585.999,76.718 583.321,77.189 	"/>
	<polygon fill="#FFFFFF" points="617.47,-0.349 617.979,1.939 617.979,-0.349 	"/>
	<polygon fill="#FFFFFF" points="617.813,287.947 617.837,287.944 617.813,287.791 	"/>
	<polygon fill="#FFFFFF" points="609.881,253.322 612.555,252.838 608.007,222.623 605.33,223.09 	"/>
	<polygon fill="#FFFFFF" points="598.299,158.116 596.508,146.217 596.066,146.289 593.83,146.693 599.035,181.257 601.71,180.786 
		601.651,180.388 601.393,180.432 	"/>
	<polygon fill="#FFFFFF" points="617.979,306.047 617.979,290.962 615.767,291.347 	"/>
	<polygon fill="#FFFFFF" points="604.298,216.236 606.977,215.769 602.742,187.639 600.064,188.111 	"/>
	<polygon fill="#FFFFFF" points="613.078,255.772 610.363,256.257 615.264,288.408 617.979,287.947 617.979,287.791 	"/>
	<polygon fill="#FFFFFF" points="600.064,188.111 602.742,187.639 601.71,180.786 599.035,181.257 	"/>
	<polygon fill="#FFFFFF" points="605.33,223.09 608.007,222.623 606.977,215.769 604.298,216.236 	"/>
	<polygon fill="#FFFFFF" points="609.881,253.322 610.322,256.257 612.996,255.772 612.555,252.838 	"/>
	<polygon fill="#FFFFFF" points="615.684,291.347 617.979,290.962 617.979,287.947 615.283,288.408 	"/>
	<polygon fill="#EEE4D6" points="549.952,141.54 556.993,188.536 598.623,180.763 593.595,146.69 596.025,146.289 596.427,146.208 
		596.427,146.217 596.604,146.194 598.279,158.116 601.686,180.388 617,177.787 617,74.297 597.361,77.743 542.189,87.59 	"/>
	<polygon fill="#EEE4D6" points="617,74.245 597.405,77.743 617,74.297 	"/>
	<polygon fill="#EEE4D6" points="541.879,87.642 549.952,141.54 542.167,87.59 	"/>
	<polygon fill="#EEE4D6" points="601.393,180.432 601.651,180.388 598.299,158.116 	"/>
	<polygon fill="#EEE4D6" points="596.506,146.208 596.066,146.289 596.508,146.217 	"/>
</g>
<g>
	<path fill="#F58E90" d="M538.791,93.605c0,0.441,0.018,0.8-0.422,0.8h-38.684c-0.439,0-0.602-0.359-0.602-0.8V73.147
		c0-0.442,0.162-0.8,0.602-0.8h38.684c0.439,0,0.422,0.358,0.422,0.8V93.605z"/>
	<path fill="#FEE84E" d="M529.772,89.144l1.332-4.061c0.021-0.064-0.005-0.135-0.062-0.169l-3.166-1.923l4.981-5.021l-1.332,4.06
		c-0.021,0.064,0.005,0.134,0.062,0.168l3.167,1.926L529.772,89.144z"/>
	
		<text transform="matrix(0.9922 0 0 1 502.752 88.4351)" fill="#FFFFFF" font-family="'SourceSansPro-Semibold'" font-size="14.6437">232</text>
	<polygon fill="#F58E90" points="524.404,93.524 518.764,100.351 513.123,93.524 	"/>
</g>
<g>
	<path fill="#F58E90" d="M455.849,99.782c0,0.442-0.21,0.801-0.647,0.801h-38.684c-0.438,0-0.375-0.358-0.375-0.801V79.324
		c0-0.442-0.063-0.801,0.375-0.801h38.684c0.438,0,0.647,0.358,0.647,0.801V99.782z"/>
	<path fill="#FEE84E" d="M446.468,95.329l1.332-4.061c0.021-0.063-0.005-0.134-0.062-0.168l-3.167-1.924l4.98-5.021l-1.33,4.06
		c-0.022,0.065,0.004,0.136,0.062,0.169l3.166,1.925L446.468,95.329z"/>
	
		<text transform="matrix(0.9922 0 0 1 419.4492 94.6201)" fill="#FFFFFF" font-family="'SourceSansPro-Semibold'" font-size="14.6437">187</text>
	<polygon fill="#F58E90" points="441.1,99.701 435.46,106.527 429.819,99.701 	"/>
</g>
<g>
	<path fill="#F58E90" d="M486.731,137.724c0,0.442-0.45,0.8-0.89,0.8h-38.684c-0.439,0-1.015-0.358-1.015-0.8v-20.459
		c0-0.442,0.576-0.8,1.015-0.8h38.684c0.439,0,0.89,0.358,0.89,0.8V137.724z"/>
	<path fill="#FEE84E" d="M477.256,133.808l1.335-4.06c0.019-0.065-0.006-0.135-0.063-0.17l-3.166-1.924l4.981-5.021l-1.333,4.06
		c-0.021,0.063,0.005,0.133,0.062,0.168l3.166,1.925L477.256,133.808z"/>
	
		<text transform="matrix(0.9922 0 0 1 450.2373 133.0996)" fill="#FFFFFF" font-family="'SourceSansPro-Semibold'" font-size="14.6437">156</text>
	<polygon fill="#F58E90" points="471.89,138.524 466.248,145.351 460.608,138.524 	"/>
</g>
<path fill="#F58E90" d="M538.791,93.605c0,0.441,0.018,0.8-0.422,0.8h-38.684c-0.439,0-0.602-0.359-0.602-0.8V73.147
	c0-0.442,0.162-0.8,0.602-0.8h38.684c0.439,0,0.422,0.358,0.422,0.8V93.605z"/>
<path fill="#FEE84E" d="M529.772,89.144l1.332-4.061c0.021-0.064-0.005-0.135-0.062-0.169l-3.166-1.923l4.981-5.021l-1.332,4.06
	c-0.021,0.064,0.005,0.134,0.062,0.168l3.167,1.926L529.772,89.144z"/>
<g>
	<path fill="#FFFFFF" d="M503.305,87.454c2.572-2.505,4.185-4.145,4.185-5.567c0-0.98-0.539-1.611-1.527-1.611
		c-0.711,0-1.307,0.483-1.801,1.04l-0.931-0.937c0.843-0.908,1.686-1.436,2.95-1.436c1.771,0,2.921,1.128,2.921,2.856
		c0,1.655-1.526,3.355-3.357,5.303c0.479-0.044,1.09-0.103,1.54-0.103h2.267v1.436h-6.247L503.305,87.454L503.305,87.454z"/>
	<path fill="#FFFFFF" d="M511.354,86.208c0.552,0.571,1.264,1.025,2.192,1.025c1.003,0,1.7-0.528,1.7-1.407
		c0-0.967-0.609-1.582-2.717-1.582v-1.231c1.816,0,2.411-0.63,2.411-1.494c0-0.776-0.523-1.245-1.366-1.245
		c-0.726,0-1.293,0.351-1.858,0.878l-0.857-1.04c0.785-0.704,1.671-1.172,2.776-1.172c1.771,0,2.992,0.879,2.992,2.461
		c0,1.04-0.609,1.743-1.612,2.139V83.6c1.09,0.293,1.918,1.084,1.918,2.314c0,1.7-1.467,2.696-3.24,2.696
		c-1.496,0-2.484-0.586-3.138-1.318L511.354,86.208z"/>
	<path fill="#FFFFFF" d="M518.211,87.454c2.572-2.505,4.184-4.145,4.184-5.567c0-0.98-0.537-1.611-1.525-1.611
		c-0.712,0-1.307,0.483-1.802,1.04l-0.93-0.937c0.843-0.908,1.685-1.436,2.95-1.436c1.772,0,2.92,1.128,2.92,2.856
		c0,1.655-1.525,3.355-3.356,5.303c0.479-0.044,1.089-0.103,1.54-0.103h2.266v1.436h-6.247L518.211,87.454L518.211,87.454z"/>
</g>
<polygon fill="#F58E90" points="524.404,93.524 518.764,100.351 513.123,93.524 "/>
<path fill="#F58E90" d="M455.849,99.782c0,0.442-0.21,0.801-0.647,0.801h-38.684c-0.438,0-0.375-0.358-0.375-0.801V79.324
	c0-0.442-0.063-0.801,0.375-0.801h38.684c0.438,0,0.647,0.358,0.647,0.801V99.782z"/>
<path fill="#FEE84E" d="M446.468,95.329l1.332-4.061c0.021-0.063-0.005-0.134-0.062-0.168l-3.167-1.924l4.98-5.021l-1.33,4.06
	c-0.022,0.065,0.004,0.136,0.062,0.169l3.166,1.925L446.468,95.329z"/>
<g>
	<path fill="#FFFFFF" d="M420.523,93.244h2.062v-6.123h-1.699v-1.055c0.915-0.175,1.555-0.41,2.136-0.761h1.249v7.94h1.816v1.377
		h-5.564V93.244L420.523,93.244z"/>
	<path fill="#FFFFFF" d="M429.168,89.845v-0.058c-0.712-0.513-1.278-1.201-1.278-2.183c0-1.509,1.19-2.476,2.79-2.476
		c1.656,0,2.715,1.011,2.715,2.519c0,0.923-0.638,1.7-1.233,2.139v0.058c0.857,0.483,1.598,1.172,1.598,2.417
		c0,1.436-1.249,2.534-3.123,2.534c-1.802,0-3.139-1.054-3.139-2.563C427.497,91.076,428.296,90.313,429.168,89.845z
		 M430.664,93.595c0.885,0,1.525-0.528,1.525-1.392c0-1.011-0.975-1.377-2.223-1.89c-0.582,0.424-1.003,1.025-1.003,1.744
		C428.964,92.979,429.719,93.595,430.664,93.595z M432.016,87.75c0-0.821-0.508-1.421-1.365-1.421c-0.714,0-1.265,0.469-1.265,1.274
		c0,0.937,0.828,1.347,1.859,1.757C431.739,88.863,432.016,88.336,432.016,87.75z"/>
	<path fill="#FFFFFF" d="M439.367,86.725h-4.372v-1.421h6.202v1.025c-2.165,2.71-2.542,4.658-2.702,8.291h-1.698
		C436.956,91.309,437.58,89.229,439.367,86.725z"/>
</g>
<polygon fill="#F58E90" points="441.1,99.701 435.46,106.527 429.819,99.701 "/>
<path fill="#F58E90" d="M486.731,137.724c0,0.442-0.45,0.8-0.89,0.8h-38.684c-0.439,0-1.015-0.358-1.015-0.8v-20.459
	c0-0.442,0.576-0.8,1.015-0.8h38.684c0.439,0,0.89,0.358,0.89,0.8V137.724z"/>
<path fill="#FEE84E" d="M477.256,133.808l1.335-4.06c0.019-0.065-0.006-0.135-0.063-0.17l-3.166-1.924l4.981-5.021l-1.333,4.06
	c-0.021,0.063,0.005,0.133,0.062,0.168l3.166,1.925L477.256,133.808z"/>
<g>
	<path fill="#FFFFFF" d="M451.312,131.723h2.062v-6.123h-1.699v-1.054c0.914-0.176,1.554-0.411,2.135-0.762h1.249v7.939h1.816v1.377
		h-5.563V131.723L451.312,131.723z"/>
	<path fill="#FFFFFF" d="M458.809,130.902c0.552,0.528,1.234,0.997,2.164,0.997c1.031,0,1.787-0.659,1.787-1.787
		c0-1.113-0.683-1.744-1.699-1.744c-0.596,0-0.93,0.162-1.482,0.528l-0.799-0.513l0.276-4.6h4.939v1.42h-3.487l-0.188,2.256
		c0.393-0.19,0.741-0.308,1.221-0.308c1.583,0,2.905,0.908,2.905,2.916c0,2.037-1.555,3.208-3.255,3.208
		c-1.496,0-2.469-0.601-3.152-1.29L458.809,130.902z"/>
	<path fill="#FFFFFF" d="M470.984,125.688c-0.335-0.411-0.915-0.704-1.467-0.704c-1.163,0-2.106,0.864-2.18,3.442
		c0.538-0.688,1.337-1.099,2.005-1.099c1.599,0,2.702,0.938,2.702,2.886c0,1.86-1.321,3.062-2.904,3.062
		c-1.817,0-3.356-1.421-3.356-4.555c0-3.619,1.743-5.113,3.632-5.113c1.12,0,1.917,0.468,2.47,1.054L470.984,125.688z
		 M470.489,130.214c0-1.099-0.536-1.655-1.451-1.655c-0.523,0-1.133,0.293-1.656,1.069c0.174,1.656,0.827,2.358,1.729,2.358
		C469.88,131.987,470.489,131.357,470.489,130.214z"/>
</g>
<polygon fill="#F58E90" points="471.89,138.524 466.248,145.351 460.608,138.524 "/>
<rect x="17.01" y="173.876" opacity="0.4" fill="#F4B0B0" enable-background="new    " width="121.252" height="66.528"/>
<rect x="156.812" y="173.876" opacity="0.4" fill="#F4B0B0" enable-background="new    " width="121.25" height="66.528"/>
<rect x="17.01" y="263.161" opacity="0.4" fill="#F4B0B0" enable-background="new    " width="121.252" height="66.528"/>
<polygon opacity="0.4" fill="#F4B0B0" enable-background="new    " points="138.407,330.094 17.157,330.094 17.157,263.564 "/>
<polygon opacity="0.4" fill="#F4B0B0" enable-background="new    " points="138.407,239.904 17.157,239.904 17.157,173.376 "/>
<polygon opacity="0.4" fill="#F4B0B0" enable-background="new    " points="278.067,330.094 156.815,330.094 156.815,263.564 "/>
<polygon opacity="0.4" fill="#F4B0B0" enable-background="new    " points="278.067,239.904 156.815,239.904 156.815,173.376 "/>
<rect x="156.812" y="263.161" opacity="0.4" fill="#F4B0B0" enable-background="new    " width="121.25" height="66.528"/>
</svg>
