<svg xmlns="http://www.w3.org/2000/svg" width="56.744" height="56.744" viewBox="0 0 56.744 56.744"><circle opacity=".6" fill="#F2F2F2" cx="28.372" cy="28.372" r="28.372"/><path fill="#CDDC39" d="M42.964 30.115c2.436-2.433 3.438-5.655 3.223-8.736-.07-.573-.717-.788-1.145-.43l-4.369 4.37a.812.812 0 0 1-.574.214l-6.803-.859c-.285-.072-.572-.286-.572-.572l-.857-6.876c0-.214.07-.429.213-.572l4.369-4.368c.428-.43.143-1.075-.43-1.146a11.493 11.493 0 0 0-8.809 3.222c-2.793 2.793-3.797 6.661-3.008 10.168.07.43 0 .932-.357 1.219L12.743 36.991c-.285.287-.285.717 0 .932l6.66 6.66c.285.285.717.285.932 0L31.507 33.41c.285-.286.787-.429 1.217-.356a11.21 11.21 0 0 0 10.24-2.939z"/></svg>