<svg xmlns="http://www.w3.org/2000/svg" width="56.744" height="56.744" viewBox="0 0 56.744 56.744"><circle opacity=".6" fill="#F2F2F2" cx="28.372" cy="28.372" r="28.372"/><g fill="#CDDC39"><path d="M19.438 44.77c0-.897-.044-1.729.004-2.557.153-2.62-1.65-4.434-4.28-4.265-.725.043-1.444.07-2.168.119-.278.021-.425-.054-.534-.332a135.732 135.732 0 0 0-1.623-3.84c-.127-.297-.054-.457.175-.652.589-.509 1.155-1.039 1.731-1.568 1.738-1.603 1.723-4.166-.032-5.743-.595-.533-1.198-1.05-1.771-1.608-.117-.114-.188-.399-.129-.552.505-1.31 1.038-2.61 1.594-3.906.061-.146.316-.3.477-.3.706-.004 1.408.037 2.117.082 2.662.179 4.471-1.617 4.309-4.282-.055-.832-.082-1.664-.126-2.534 1.433-.598 2.864-1.208 4.309-1.787.114-.047.349.035.441.134.569.584 1.11 1.198 1.666 1.797 1.603 1.734 4.169 1.71 5.747-.052.496-.553 1.003-1.093 1.477-1.666.24-.284.445-.357.805-.204 1.228.525 2.459 1.037 3.699 1.518.359.135.424.336.404.668-.049.829-.109 1.664-.109 2.496 0 2.247 1.836 3.944 4.086 3.809.91-.054 1.812-.101 2.745-.15.61 1.444 1.214 2.877 1.798 4.319.043.111-.049.341-.148.443-.588.564-1.203 1.101-1.802 1.656-1.71 1.588-1.696 4.151.026 5.706.594.537 1.205 1.051 1.775 1.605.123.126.201.437.143.599a105.632 105.632 0 0 1-1.575 3.85c-.07.164-.343.327-.521.327-.727.006-1.445-.044-2.17-.087-2.588-.152-4.4 1.676-4.226 4.265.048.702.07 1.402.124 2.108.027.312-.054.492-.375.622-1.27.507-2.532 1.04-3.791 1.589-.295.131-.458.076-.66-.158-.518-.604-1.068-1.18-1.605-1.768-1.586-1.703-4.146-1.675-5.715.054-.533.593-1.051 1.198-1.607 1.769-.115.123-.402.195-.551.142-1.417-.551-2.816-1.13-4.134-1.666zm2.397-16.031c-.021 3.677 2.957 6.655 6.672 6.686 3.704.027 6.706-2.961 6.723-6.696.018-3.7-2.975-6.665-6.732-6.684-3.662-.02-6.647 2.978-6.663 6.694z"/><circle cx="28.52" cy="28.721" r="3.293"/></g></svg>