<svg xmlns="http://www.w3.org/2000/svg" width="56.744" height="56.744" viewBox="0 0 56.744 56.744"><circle opacity=".6" fill="#F2F2F2" cx="28.372" cy="28.372" r="28.372"/><path fill="#CDDC39" d="M31.317 19.626c-8.008 0-14.459 5.675-14.459 12.672 0 6.997 6.451 12.672 14.459 12.672 2.877 0 5.598-.738 7.852-2.021 2.021 1.205 4.237 1.166 5.52 1.01.35-.038.467-.504.156-.738-1.244-.816-1.904-1.943-2.295-2.953 2.023-2.178 3.228-4.937 3.228-7.969-.001-6.998-6.492-12.673-14.461-12.673zm.973 17.803a.598.598 0 0 1-.584.583h-1.438a.598.598 0 0 1-.583-.583v-.933c0-.311.272-.583.583-.583h1.438c.312 0 .584.272.584.583v.933zm2.293-5.637a3.921 3.921 0 0 1-1.478 1.283c-.311.232-.544.466-.661.699a2.765 2.765 0 0 0-.154.661c0 .194-.195.35-.389.35h-1.789c-.232 0-.427-.194-.389-.427.039-.506.156-.895.35-1.166.234-.351.7-.777 1.4-1.244.35-.233.621-.467.816-.816a2.1 2.1 0 0 0 .311-1.088c0-.429-.117-.778-.35-1.05-.233-.272-.545-.389-.972-.389-.35 0-.622.116-.855.311-.155.116-.233.312-.312.505a.584.584 0 0 1-.582.429l-1.672-.04c-.193 0-.389-.194-.35-.389.076-.894.389-1.555 1.01-2.021.699-.544 1.633-.816 2.761-.816 1.243 0 2.177.311 2.876.933s1.051 1.438 1.051 2.488c-.04.66-.233 1.282-.622 1.787zM11.61 28.839c-1.672-1.789-2.643-4.082-2.643-6.569 0-5.792 5.364-10.495 11.932-10.495 4.473 0 8.396 2.177 10.418 5.364-8.861 0-16.17 6.141-16.908 13.915-1.672 1.011-3.498.972-4.548.816a.31.31 0 0 1-.116-.583 5.367 5.367 0 0 0 1.865-2.448z"/></svg>