<svg xmlns="http://www.w3.org/2000/svg" width="56.744" height="56.744" viewBox="0 0 56.744 56.744"><circle opacity=".6" fill="#F2F2F2" cx="28.372" cy="28.372" r="28.372"/><path fill-rule="evenodd" clip-rule="evenodd" fill="#CDDC39" d="M33.456 46.885c-.762-2.207.195-5.726-.55-7.988-.233-.708-.69-1.051-.919-1.651 5.537-.216 8.892-3.809 8.721-9.546-.064-2.2-.848-3.691-2.02-4.956.641-1.401.4-3.889-.182-5.142-2.463.016-3.781 1.177-5.418 2.02-2.578-.865-6.871-.857-9.453 0-1.613-.834-2.926-1.971-5.324-2.02-.733 1.062-.906 3.715-.275 5.049-1.072 1.322-1.883 2.682-2.02 4.774-.395 5.945 3.223 9.449 8.535 9.912.109.454-1.02 1.397-.916 2.571-1.206.504-2.824.645-3.855.183-2.002-.895-2.539-4.586-5.599-3.58.306 1.079 1.333 1.206 2.018 2.111.642.847.791 2.007 1.47 2.755 1.205 1.332 3.354 1.644 5.875 1.193-.307 1.366.564 3.851-.366 4.406-.663.395-2.354-.459-3.304-.919-2.922-1.414-5.43-3.696-7.07-5.874-2.467-3.275-4.285-7.925-3.674-13.494a18.58 18.58 0 0 1 5.785-11.564c3.092-2.873 6.877-5.075 12.209-5.416 5.789-.372 10.348 1.74 13.584 4.497 3.324 2.83 5.828 6.481 6.701 11.381 1.809 10.171-4.24 17.388-10.647 20.471-.937.45-2.075 1.273-3.306.827z"/><path fill-rule="evenodd" clip-rule="evenodd" fill="#CDDC39" d="M16.384 37.245c-.246.099-.523.07-.551-.274.209-.2.573-.033.551.274zm.365.276c.279.057.471.203.461.55-.473.144-.68-.284-.461-.55zm.736 1.009c.436-.015.59.347.459.644-.472.119-.691-.344-.459-.644zm.827 1.103c.549-.09.803.291.643.645-.504.072-.717-.144-.643-.645zm2.111 1.283c-.215.186-.705.096-.827-.09v-.275c.307-.219.87-.057.827.365zm3.028-.274c.065.503-.505.509-.825.368-.117-.496.542-.563.825-.368zm-1.561.092c-.014.106.021.162.094.182-.014.328-.304.37-.643.369-.04-.177-.263-.167-.186-.459.135-.142.471-.081.735-.092z"/></svg>