<svg xmlns="http://www.w3.org/2000/svg" xmlns:xlink="http://www.w3.org/1999/xlink" width="323" height="56" viewBox="0 0 323 56"><path opacity=".6" fill="#F2F2F2" d="M323 28c0 15.464-12.536 28-28 28H28C12.535 56 0 43.464 0 28S12.535 0 28 0h267c15.464 0 28 12.536 28 28z"/><g fill="#CDDC39"><path d="M36.92 29.707h6.033l-3.017-7.257z"/><path d="M39.936 11.005l-16.518 5.891 2.518 21.844 14 7.754 14-7.754 2.521-21.844-16.521-5.891zm10.31 27.077h-3.851L44.318 32.9h-8.764l-2.077 5.182h-3.851l10.309-23.155 10.311 23.155z"/></g><path fill="#CDDC39" d="M107.716 22.053a28.637 28.637 0 0 0-1.306-.412c.072-.295.139-.592.202-.89.988-4.799.341-8.665-1.865-9.938-2.116-1.22-5.577.053-9.072 3.095-.344.3-.682.609-1.009.926a28.1 28.1 0 0 0-.673-.621c-3.664-3.252-7.336-4.623-9.54-3.346-2.114 1.223-2.74 4.858-1.852 9.405.089.45.191.898.301 1.343-.52.147-1.021.305-1.502.473-4.294 1.498-7.036 3.844-7.036 6.278 0 2.515 2.943 5.036 7.416 6.564.364.123.729.237 1.099.343-.12.479-.229.963-.319 1.448-.849 4.469-.185 8.017 1.922 9.232 2.178 1.256 5.833-.035 9.394-3.146.281-.246.562-.507.844-.779.357.343.725.677 1.099 1 3.448 2.966 6.851 4.165 8.959 2.945 2.175-1.26 2.883-5.071 1.965-9.708a23.376 23.376 0 0 0-.244-1.085c.258-.076.51-.153.755-.235 4.649-1.541 7.677-4.032 7.677-6.579-.002-2.443-2.834-4.805-7.215-6.313z"/><path fill="#F2F2F2" d="M106.707 33.301c-.221.073-.45.144-.682.213-.513-1.625-1.207-3.354-2.054-5.139a40.648 40.648 0 0 0 1.975-5.064c.416.12.817.247 1.204.381 3.755 1.292 6.046 3.202 6.046 4.675 0 1.567-2.473 3.604-6.489 4.934zm-1.664 3.301c.404 2.051.462 3.905.193 5.354-.241 1.303-.728 2.171-1.327 2.519-1.279.74-4.014-.222-6.962-2.759-.338-.29-.678-.602-1.019-.931 1.142-1.25 2.283-2.703 3.399-4.317 1.961-.173 3.813-.458 5.494-.847.083.334.158.66.222.981zm-16.851 7.744c-1.248.44-2.243.453-2.844.107-1.282-.738-1.812-3.588-1.086-7.408.086-.451.185-.901.295-1.347 1.663.367 3.502.632 5.468.791a42.308 42.308 0 0 0 3.481 4.303c-.252.243-.51.48-.772.711-1.575 1.376-3.15 2.351-4.542 2.843zm-5.851-11.055c-1.978-.676-3.611-1.555-4.73-2.514-1.007-.861-1.513-1.717-1.513-2.411 0-1.477 2.202-3.361 5.874-4.642a23.75 23.75 0 0 1 1.396-.439 41.83 41.83 0 0 0 1.978 5.123 42.104 42.104 0 0 0-2.002 5.195c-.338-.095-.67-.2-1.003-.312zm1.962-13.351c-.762-3.896-.255-6.836 1.018-7.573 1.356-.785 4.358.334 7.521 3.142.204.181.406.369.61.563a41.325 41.325 0 0 0-3.456 4.275 42.327 42.327 0 0 0-5.411.841c-.106-.413-.2-.83-.282-1.248zm17.498 4.321a52.954 52.954 0 0 0-1.234-2.029c1.296.163 2.535.381 3.699.647a37.152 37.152 0 0 1-1.298 3.493 62.609 62.609 0 0 0-1.167-2.111zm-7.135-6.951a37.113 37.113 0 0 1 2.387 2.883 50.429 50.429 0 0 0-4.794-.001 37.617 37.617 0 0 1 2.407-2.882zm-7.184 6.961c-.396.69-.779 1.39-1.143 2.098a38.738 38.738 0 0 1-1.291-3.509 38.692 38.692 0 0 1 3.679-.632c-.43.671-.844 1.353-1.245 2.043zm1.283 10.356a36.748 36.748 0 0 1-3.738-.601 38.91 38.91 0 0 1 1.314-3.581 49.738 49.738 0 0 0 2.424 4.182zm5.948 4.917a38.733 38.733 0 0 1-2.439-2.92 56.3 56.3 0 0 0 4.821-.009 37.14 37.14 0 0 1-2.382 2.929zm8.271-9.161a37.106 37.106 0 0 1 1.362 3.568 36.737 36.737 0 0 1-3.784.645c.43-.68.844-1.367 1.245-2.062.409-.709.801-1.426 1.177-2.151zm-2.678 1.283a56.34 56.34 0 0 1-1.945 3.141 52.24 52.24 0 0 1-3.715.13c-1.262 0-2.49-.039-3.673-.116a49.172 49.172 0 0 1-3.711-6.413 49.479 49.479 0 0 1 3.691-6.402 48.71 48.71 0 0 1 7.396.001 51.857 51.857 0 0 1 1.952 3.121 55.94 55.94 0 0 1 1.749 3.254 51.26 51.26 0 0 1-1.744 3.284zm3.575-19.351c1.358.783 1.887 3.942 1.035 8.085a24.8 24.8 0 0 1-.186.807 41.615 41.615 0 0 0-5.421-.857c-1.116-1.587-2.27-3.031-3.431-4.279.303-.294.615-.578.934-.856 2.996-2.606 5.792-3.635 7.069-2.9z"/><path fill="#CDDC39" d="M94.646 24.744a3.622 3.622 0 1 1 .001 7.245 3.622 3.622 0 0 1-.001-7.245"/><g fill="#CDDC39"><path d="M137.247 19.279c-3.198 4.596-2.8 10.574-.356 15.458.057.116.118.232.178.348.04.073.075.147.115.22.022.043.047.085.071.127l.126.228c.076.134.154.267.233.399.046.073.089.146.136.22.086.142.178.282.27.423l.113.178c.13.19.259.38.394.565.003.005.005.01.012.016.021.029.044.059.063.088a18.463 18.463 0 0 0 .493.647c.108.137.219.271.331.406.042.05.084.102.126.15.149.177.302.353.459.525.003.003.007.006.009.01l.019.02a21.58 21.58 0 0 0 .617.643c.123.123.247.245.373.365l.152.146a25.003 25.003 0 0 0 .519.473l.091.076a17.773 17.773 0 0 0 .656.545c.128.103.257.204.388.303.068.053.138.105.207.157.143.105.288.21.435.312l.157.112.044.031c.138.096.28.188.421.278.062.041.123.084.184.123.219.138.438.273.661.404l.183.104c.163.094.328.187.494.277.093.049.184.095.276.142.118.062.234.124.354.185.026.014.056.026.084.039l.144.07c.186.089.372.176.562.261.041.018.078.036.119.053.218.095.436.186.655.273.053.021.105.042.16.062.203.079.41.156.619.229l.076.026c.229.08.46.153.691.226l.166.05c.237.072.47.157.714.202 15.462 2.819 19.954-9.293 19.954-9.293-3.772 4.915-10.468 6.212-16.814 4.769-.239-.055-.472-.13-.706-.199a18.735 18.735 0 0 1-.861-.276l-.093-.033a18.895 18.895 0 0 1-.601-.224l-.17-.066a18.411 18.411 0 0 1-.648-.27l-.129-.057a30.455 30.455 0 0 1-.705-.331c-.143-.069-.283-.144-.424-.216-.095-.05-.191-.096-.282-.147a18.711 18.711 0 0 1-.508-.284l-.171-.096a24.364 24.364 0 0 1-.662-.406c-.06-.037-.119-.078-.179-.118a27.302 27.302 0 0 1-.47-.312c-.052-.034-.101-.071-.151-.106-.15-.105-.298-.213-.445-.322l-.197-.148c-.134-.103-.268-.206-.4-.313l-.181-.144a21.746 21.746 0 0 1-.498-.421l-.055-.046a18.271 18.271 0 0 1-.673-.621 16.488 16.488 0 0 1-.378-.37l-.147-.147a23.74 23.74 0 0 1-.463-.49l-.022-.024a23.948 23.948 0 0 1-.471-.534l-.124-.146a22.732 22.732 0 0 1-.336-.418 6.41 6.41 0 0 1-.124-.154 27.203 27.203 0 0 1-.392-.52c-3.522-4.805-4.787-11.432-1.973-16.874"/><path d="M147.173 15.407c-2.312 3.328-2.188 7.782-.384 11.301.303.59.644 1.162 1.022 1.707.348.497.731 1.088 1.19 1.486.166.184.342.362.518.539l.139.135c.173.167.349.333.53.492.007.006.013.014.021.019a14.598 14.598 0 0 0 .625.517l.14.11c.211.162.428.322.648.473.007.006.011.01.019.015.098.067.197.13.295.194.047.031.093.064.14.094.159.1.318.198.481.293.022.014.045.026.068.039.14.081.28.16.423.238.05.027.1.052.151.078.098.051.196.104.296.154l.045.02c.205.101.41.197.621.288.042.021.091.038.136.057.168.071.336.141.506.206l.217.08c.157.057.312.109.467.162.071.022.141.045.212.066.222.069.442.157.674.195 11.939 1.979 14.694-7.214 14.694-7.214-2.484 3.58-7.295 5.286-12.43 3.954-.228-.06-.455-.126-.676-.195l-.204-.065a13.984 13.984 0 0 1-.687-.244 12.553 12.553 0 0 1-.509-.204c-.048-.02-.093-.037-.137-.058a14.765 14.765 0 0 1-.624-.29c-.104-.051-.208-.105-.312-.159-.061-.03-.12-.062-.181-.093a12.851 12.851 0 0 1-.395-.223c-.033-.019-.064-.034-.096-.054-.16-.094-.32-.191-.478-.292l-.145-.097a18.53 18.53 0 0 1-.312-.205 15.878 15.878 0 0 1-.79-.586c-2.247-1.775-4.029-4.2-4.877-6.948-.887-2.853-.695-6.054.843-8.651"/><path d="M155.52 12.515c-1.363 2.006-1.496 4.498-.551 6.713.996 2.352 3.041 4.197 5.427 5.071a14.856 14.856 0 0 0 .428.145c.141.044.278.096.425.124 6.592 1.273 8.38-3.384 8.855-4.068-1.565 2.255-4.198 2.796-7.428 2.013a8.42 8.42 0 0 1-.782-.242 9.58 9.58 0 0 1-.927-.385 9.665 9.665 0 0 1-1.628-.993c-2.889-2.192-4.684-6.376-2.799-9.782"/></g><path fill="#CDDC39" d="M203.727 47.871a2.935 2.935 0 0 1-1.471-.394l-4.679-2.768c-.699-.392-.358-.53-.127-.61.931-.323 1.12-.398 2.115-.963.103-.059.241-.035.348.027l3.596 2.134c.13.072.314.072.434 0l14.017-8.089a.442.442 0 0 0 .211-.379V20.655a.448.448 0 0 0-.217-.386l-14.008-8.082a.44.44 0 0 0-.433 0l-14.005 8.084a.45.45 0 0 0-.223.384V36.83c0 .154.086.301.222.374l3.838 2.219c2.084 1.041 3.358-.187 3.358-1.418V22.036c0-.226.182-.403.408-.403h1.777c.222 0 .405.177.405.403v15.969c0 2.78-1.514 4.374-4.148 4.374-.81 0-1.449 0-3.229-.877l-3.675-2.115a2.962 2.962 0 0 1-1.47-2.557V20.655c0-1.051.562-2.031 1.47-2.554l14.015-8.099c.888-.501 2.064-.501 2.945 0l14.015 8.099a2.96 2.96 0 0 1 1.472 2.554V36.83a2.968 2.968 0 0 1-1.472 2.557l-14.015 8.091a2.936 2.936 0 0 1-1.474.393"/><path fill="#CDDC39" d="M208.055 36.728c-6.132 0-7.418-2.814-7.418-5.176 0-.225.181-.403.406-.403h1.811c.203 0 .372.146.403.343.274 1.845 1.09 2.776 4.798 2.776 2.953 0 4.21-.668 4.21-2.234 0-.903-.357-1.574-4.946-2.023-3.833-.379-6.204-1.227-6.204-4.294 0-2.828 2.383-4.514 6.379-4.514 4.489 0 6.712 1.558 6.992 4.901a.402.402 0 0 1-.403.441h-1.819a.405.405 0 0 1-.394-.317c-.436-1.941-1.497-2.562-4.376-2.562-3.224 0-3.598 1.123-3.598 1.965 0 1.02.44 1.316 4.795 1.892 4.307.57 6.353 1.375 6.353 4.403-.001 3.053-2.548 4.802-6.989 4.802m20.209-16.961c0 1.486-1.215 2.7-2.7 2.7a2.708 2.708 0 0 1-2.702-2.7c0-1.53 1.258-2.702 2.702-2.702a2.699 2.699 0 0 1 2.7 2.702m-4.966-.008a2.266 2.266 0 0 0 2.258 2.272 2.282 2.282 0 0 0 2.272-2.272 2.265 2.265 0 0 0-2.272-2.258 2.253 2.253 0 0 0-2.258 2.258m1.25-1.509h1.045c.356 0 1.058 0 1.058.801 0 .557-.357.672-.573.743.415.028.442.3.5.686.029.243.073.658.157.801h-.643c-.015-.143-.115-.916-.115-.958-.043-.172-.1-.257-.313-.257h-.53v1.214h-.585v-3.03zm.571 1.33h.474c.384 0 .456-.271.456-.428 0-.416-.286-.416-.443-.416h-.486v.844z"/><defs><path id="a" d="M241.926 29.707c0 8.547 13.171 15.475 29.417 15.475 16.246 0 29.417-6.928 29.417-15.475 0-8.546-13.171-15.475-29.417-15.475-16.246 0-29.417 6.929-29.417 15.475"/></defs><use xlink:href="#a" overflow="visible" fill="#CDDC39"/><clipPath id="b"><use xlink:href="#a" overflow="visible"/></clipPath><g clip-path="url(#b)"><path fill="#CDDC39" d="M241.926 29.707c0 8.547 13.171 15.475 29.417 15.475 16.246 0 29.417-6.928 29.417-15.475 0-8.546-13.171-15.475-29.417-15.475-16.246 0-29.417 6.929-29.417 15.475"/></g><path fill="#F2F2F2" d="M257.192 31.484c1.283 0 2.241-.237 2.848-.703.601-.462 1.016-1.263 1.232-2.38.202-1.042.125-1.77-.229-2.164-.362-.401-1.146-.605-2.329-.605h-2.052l-1.138 5.852h1.668zm-6.71 7.208a.324.324 0 0 1-.248-.115.327.327 0 0 1-.066-.265l3.014-15.507a.321.321 0 0 1 .315-.258h6.496c2.041 0 3.56.554 4.516 1.647.96 1.099 1.257 2.636.881 4.567-.153.786-.416 1.517-.78 2.17s-.85 1.262-1.438 1.802a6.314 6.314 0 0 1-2.366 1.418c-.853.277-1.945.418-3.25.418h-2.632l-.75 3.865a.317.317 0 0 1-.314.258h-3.379zm23.37-4.123a.315.315 0 0 1-.245-.115.315.315 0 0 1-.068-.265l1.334-6.861c.128-.652.096-1.121-.089-1.318-.111-.122-.449-.324-1.447-.324h-2.416l-1.676 8.626a.318.318 0 0 1-.313.258h-3.352a.318.318 0 0 1-.313-.38l3.015-15.508a.32.32 0 0 1 .313-.258h3.351c.097 0 .187.042.247.116s.085.17.067.264l-.729 3.743h2.6c1.979 0 3.321.349 4.104 1.067.797.732 1.045 1.903.739 3.482l-1.402 7.216a.32.32 0 0 1-.313.258h-3.407zm11.138-3.085c1.285 0 2.243-.237 2.85-.703.6-.462 1.014-1.263 1.23-2.38.204-1.042.126-1.77-.23-2.164-.361-.401-1.145-.605-2.328-.605h-2.051l-1.14 5.852h1.67zm-6.71 7.208a.319.319 0 0 1-.312-.38l3.015-15.507a.32.32 0 0 1 .313-.258h6.497c2.04 0 3.56.554 4.516 1.647.96 1.099 1.257 2.636.88 4.567a7.337 7.337 0 0 1-.78 2.17 7.305 7.305 0 0 1-1.437 1.802 6.318 6.318 0 0 1-2.367 1.418c-.85.277-1.943.418-3.25.418h-2.63l-.75 3.865a.318.318 0 0 1-.313.258h-3.381z"/></svg>