<?xml version="1.0" encoding="utf-8"?>
<!-- Generator: Adobe Illustrator 15.0.0, SVG Export Plug-In . SVG Version: 6.00 Build 0)  -->
<!DOCTYPE svg PUBLIC "-//W3C//DTD SVG 1.1//EN" "http://www.w3.org/Graphics/SVG/1.1/DTD/svg11.dtd">
<svg version="1.1" id="Layer_1" xmlns="http://www.w3.org/2000/svg" xmlns:xlink="http://www.w3.org/1999/xlink" x="0px" y="0px"
	 width="56.744px" height="56.744px" viewBox="0 0 56.744 56.744" enable-background="new 0 0 56.744 56.744" xml:space="preserve">
<circle opacity="0.6" fill="#F2F2F2" cx="28.372" cy="28.372" r="28.372"/>
<path fill="#CDDC39" d="M31.317,19.626c-8.008,0-14.459,5.675-14.459,12.672c0,6.997,6.451,12.672,14.459,12.672
	c2.877,0,5.598-0.738,7.852-2.021c2.021,1.205,4.237,1.166,5.52,1.01c0.35-0.038,0.467-0.504,0.156-0.738
	c-1.244-0.816-1.904-1.943-2.295-2.953c2.023-2.178,3.228-4.937,3.228-7.969C45.777,25.301,39.286,19.626,31.317,19.626z
	 M32.29,37.429c0,0.311-0.272,0.583-0.584,0.583h-1.438c-0.311,0-0.583-0.272-0.583-0.583v-0.933c0-0.311,0.272-0.583,0.583-0.583
	h1.438c0.312,0,0.584,0.272,0.584,0.583V37.429z M34.583,31.792c-0.389,0.545-0.855,0.973-1.478,1.283
	c-0.311,0.232-0.544,0.466-0.661,0.699c-0.077,0.195-0.116,0.389-0.154,0.661c0,0.194-0.195,0.35-0.389,0.35h-1.789
	c-0.232,0-0.427-0.194-0.389-0.427c0.039-0.506,0.156-0.895,0.35-1.166c0.234-0.351,0.7-0.777,1.4-1.244
	c0.35-0.233,0.621-0.467,0.816-0.816c0.193-0.311,0.311-0.699,0.311-1.088c0-0.429-0.117-0.778-0.35-1.05
	c-0.233-0.272-0.545-0.389-0.972-0.389c-0.35,0-0.622,0.116-0.855,0.311c-0.155,0.116-0.233,0.312-0.312,0.505
	c-0.077,0.272-0.311,0.429-0.582,0.429l-1.672-0.04c-0.193,0-0.389-0.194-0.35-0.389c0.076-0.894,0.389-1.555,1.01-2.021
	c0.699-0.544,1.633-0.816,2.761-0.816c1.243,0,2.177,0.311,2.876,0.933s1.051,1.438,1.051,2.488
	C35.165,30.665,34.972,31.287,34.583,31.792z M11.61,28.839c-1.672-1.789-2.643-4.082-2.643-6.569
	c0-5.792,5.364-10.495,11.932-10.495c4.473,0,8.396,2.177,10.418,5.364l0,0c-8.861,0-16.17,6.141-16.908,13.915l0,0
	c-1.672,1.011-3.498,0.972-4.548,0.816c-0.312-0.038-0.389-0.428-0.116-0.583C10.717,30.588,11.3,29.655,11.61,28.839z"/>
</svg>
