<?xml version="1.0" encoding="utf-8"?>
<!-- Generator: Adobe Illustrator 15.0.0, SVG Export Plug-In . SVG Version: 6.00 Build 0)  -->
<!DOCTYPE svg PUBLIC "-//W3C//DTD SVG 1.1//EN" "http://www.w3.org/Graphics/SVG/1.1/DTD/svg11.dtd">
<svg version="1.1" id="Layer_1" xmlns="http://www.w3.org/2000/svg" xmlns:xlink="http://www.w3.org/1999/xlink" x="0px" y="0px"
	 width="56.744px" height="56.744px" viewBox="0 0 56.744 56.744" enable-background="new 0 0 56.744 56.744" xml:space="preserve">
<circle opacity="0.6" fill="#F2F2F2" cx="28.372" cy="28.372" r="28.372"/>
<g>
	<path fill="#CDDC39" d="M19.438,44.77c0-0.897-0.044-1.729,0.004-2.557c0.153-2.62-1.65-4.434-4.28-4.265
		c-0.725,0.043-1.444,0.07-2.168,0.119c-0.278,0.021-0.425-0.054-0.534-0.332c-0.521-1.289-1.062-2.566-1.623-3.84
		c-0.127-0.297-0.054-0.457,0.175-0.652c0.589-0.509,1.155-1.039,1.731-1.568c1.738-1.603,1.723-4.166-0.032-5.743
		c-0.595-0.533-1.198-1.05-1.771-1.608c-0.117-0.114-0.188-0.399-0.129-0.552c0.505-1.31,1.038-2.61,1.594-3.906
		c0.061-0.146,0.316-0.3,0.477-0.3c0.706-0.004,1.408,0.037,2.117,0.082c2.662,0.179,4.471-1.617,4.309-4.282
		c-0.055-0.832-0.082-1.664-0.126-2.534c1.433-0.598,2.864-1.208,4.309-1.787c0.114-0.047,0.349,0.035,0.441,0.134
		c0.569,0.584,1.11,1.198,1.666,1.797c1.603,1.734,4.169,1.71,5.747-0.052c0.496-0.553,1.003-1.093,1.477-1.666
		c0.24-0.284,0.445-0.357,0.805-0.204c1.228,0.525,2.459,1.037,3.699,1.518c0.359,0.135,0.424,0.336,0.404,0.668
		c-0.049,0.829-0.109,1.664-0.109,2.496c0,2.247,1.836,3.944,4.086,3.809c0.91-0.054,1.812-0.101,2.745-0.15
		c0.61,1.444,1.214,2.877,1.798,4.319c0.043,0.111-0.049,0.341-0.148,0.443c-0.588,0.564-1.203,1.101-1.802,1.656
		c-1.71,1.588-1.696,4.151,0.026,5.706c0.594,0.537,1.205,1.051,1.775,1.605c0.123,0.126,0.201,0.437,0.143,0.599
		c-0.502,1.295-1.023,2.577-1.575,3.85c-0.07,0.164-0.343,0.327-0.521,0.327c-0.727,0.006-1.445-0.044-2.17-0.087
		c-2.588-0.152-4.4,1.676-4.226,4.265c0.048,0.702,0.07,1.402,0.124,2.108c0.027,0.312-0.054,0.492-0.375,0.622
		c-1.27,0.507-2.532,1.04-3.791,1.589c-0.295,0.131-0.458,0.076-0.66-0.158c-0.518-0.604-1.068-1.18-1.605-1.768
		c-1.586-1.703-4.146-1.675-5.715,0.054c-0.533,0.593-1.051,1.198-1.607,1.769c-0.115,0.123-0.402,0.195-0.551,0.142
		C22.155,45.885,20.756,45.306,19.438,44.77z M21.835,28.739c-0.021,3.677,2.957,6.655,6.672,6.686
		c3.704,0.027,6.706-2.961,6.723-6.696c0.018-3.7-2.975-6.665-6.732-6.684C24.836,22.025,21.851,25.023,21.835,28.739z"/>
	<circle fill="#CDDC39" cx="28.52" cy="28.721" r="3.293"/>
</g>
</svg>
