<?xml version="1.0" encoding="utf-8"?>
<!-- Generator: Adobe Illustrator 15.0.0, SVG Export Plug-In . SVG Version: 6.00 Build 0)  -->
<!DOCTYPE svg PUBLIC "-//W3C//DTD SVG 1.1//EN" "http://www.w3.org/Graphics/SVG/1.1/DTD/svg11.dtd">
<svg version="1.1" id="Layer_1" xmlns="http://www.w3.org/2000/svg" xmlns:xlink="http://www.w3.org/1999/xlink" x="0px" y="0px"
	 width="56.744px" height="56.744px" viewBox="0 0 56.744 56.744" enable-background="new 0 0 56.744 56.744" xml:space="preserve">
<circle opacity="0.6" fill="#F2F2F2" cx="28.372" cy="28.372" r="28.372"/>
<path fill="#CDDC39" d="M42.964,30.115c2.436-2.433,3.438-5.655,3.223-8.736c-0.07-0.573-0.717-0.788-1.145-0.43l-4.369,4.37
	c-0.143,0.143-0.357,0.214-0.574,0.214l-6.803-0.859c-0.285-0.072-0.572-0.286-0.572-0.572l-0.857-6.876
	c0-0.214,0.07-0.429,0.213-0.572l4.369-4.368c0.428-0.43,0.143-1.075-0.43-1.146c-3.152-0.215-6.373,0.859-8.809,3.222
	c-2.793,2.793-3.797,6.661-3.008,10.168c0.07,0.43,0,0.932-0.357,1.219L12.743,36.991c-0.285,0.287-0.285,0.717,0,0.932l6.66,6.66
	c0.285,0.285,0.717,0.285,0.932,0L31.507,33.41c0.285-0.286,0.787-0.429,1.217-0.356C36.304,33.841,40.171,32.837,42.964,30.115z"/>
</svg>
