<?xml version="1.0" encoding="utf-8"?>
<!-- Generator: Adobe Illustrator 15.0.0, SVG Export Plug-In . SVG Version: 6.00 Build 0)  -->
<!DOCTYPE svg PUBLIC "-//W3C//DTD SVG 1.1//EN" "http://www.w3.org/Graphics/SVG/1.1/DTD/svg11.dtd">
<svg version="1.1" id="Layer_1" xmlns="http://www.w3.org/2000/svg" xmlns:xlink="http://www.w3.org/1999/xlink" x="0px" y="0px"
	 width="56.744px" height="56.744px" viewBox="0 0 56.744 56.744" enable-background="new 0 0 56.744 56.744" xml:space="preserve">
<circle opacity="0.6" fill="#F2F2F2" cx="28.372" cy="28.372" r="28.372"/>
<g>
	<g>
		<g>
			<path fill-rule="evenodd" clip-rule="evenodd" fill="#CDDC39" d="M33.456,46.885c-0.762-2.207,0.195-5.726-0.55-7.988
				c-0.233-0.708-0.69-1.051-0.919-1.651c5.537-0.216,8.892-3.809,8.721-9.546c-0.064-2.2-0.848-3.691-2.02-4.956
				c0.641-1.401,0.4-3.889-0.182-5.142c-2.463,0.016-3.781,1.177-5.418,2.02c-2.578-0.865-6.871-0.857-9.453,0
				c-1.613-0.834-2.926-1.971-5.324-2.02c-0.733,1.062-0.906,3.715-0.275,5.049c-1.072,1.322-1.883,2.682-2.02,4.774
				c-0.395,5.945,3.223,9.449,8.535,9.912c0.109,0.454-1.02,1.397-0.916,2.571c-1.206,0.504-2.824,0.645-3.855,0.183
				c-2.002-0.895-2.539-4.586-5.599-3.58c0.306,1.079,1.333,1.206,2.018,2.111c0.642,0.847,0.791,2.007,1.47,2.755
				c1.205,1.332,3.354,1.644,5.875,1.193c-0.307,1.366,0.564,3.851-0.366,4.406c-0.663,0.395-2.354-0.459-3.304-0.919
				c-2.922-1.414-5.43-3.696-7.07-5.874c-2.467-3.275-4.285-7.925-3.674-13.494c0.535-4.829,2.844-8.832,5.785-11.564
				c3.092-2.873,6.877-5.075,12.209-5.416c5.789-0.372,10.348,1.74,13.584,4.497c3.324,2.83,5.828,6.481,6.701,11.381
				c1.809,10.171-4.24,17.388-10.647,20.471C35.825,46.508,34.687,47.331,33.456,46.885z"/>
		</g>
		<g>
			<path fill-rule="evenodd" clip-rule="evenodd" fill="#CDDC39" d="M16.384,37.245c-0.246,0.099-0.523,0.07-0.551-0.274
				C16.042,36.771,16.406,36.938,16.384,37.245z"/>
		</g>
		<g>
			<path fill-rule="evenodd" clip-rule="evenodd" fill="#CDDC39" d="M16.749,37.521c0.279,0.057,0.471,0.203,0.461,0.55
				C16.737,38.215,16.53,37.787,16.749,37.521z"/>
		</g>
		<g>
			<path fill-rule="evenodd" clip-rule="evenodd" fill="#CDDC39" d="M17.485,38.53c0.436-0.015,0.59,0.347,0.459,0.644
				C17.472,39.293,17.253,38.83,17.485,38.53z"/>
		</g>
		<g>
			<path fill-rule="evenodd" clip-rule="evenodd" fill="#CDDC39" d="M18.312,39.633c0.549-0.09,0.803,0.291,0.643,0.645
				C18.451,40.35,18.238,40.134,18.312,39.633z"/>
		</g>
		<g>
			<path fill-rule="evenodd" clip-rule="evenodd" fill="#CDDC39" d="M20.423,40.916c-0.215,0.186-0.705,0.096-0.827-0.09
				c0-0.092,0-0.185,0-0.275C19.903,40.332,20.466,40.494,20.423,40.916z"/>
		</g>
		<g>
			<path fill-rule="evenodd" clip-rule="evenodd" fill="#CDDC39" d="M23.451,40.642c0.065,0.503-0.505,0.509-0.825,0.368
				C22.509,40.514,23.168,40.447,23.451,40.642z"/>
		</g>
		<g>
			<path fill-rule="evenodd" clip-rule="evenodd" fill="#CDDC39" d="M21.89,40.734c-0.014,0.106,0.021,0.162,0.094,0.182
				c-0.014,0.328-0.304,0.37-0.643,0.369c-0.04-0.177-0.263-0.167-0.186-0.459C21.29,40.684,21.626,40.745,21.89,40.734z"/>
		</g>
	</g>
</g>
</svg>
