<?xml version="1.0" encoding="utf-8"?>
<!-- Generator: Adobe Illustrator 15.0.0, SVG Export Plug-In . SVG Version: 6.00 Build 0)  -->
<!DOCTYPE svg PUBLIC "-//W3C//DTD SVG 1.1//EN" "http://www.w3.org/Graphics/SVG/1.1/DTD/svg11.dtd">
<svg version="1.1" id="Layer_1" xmlns="http://www.w3.org/2000/svg" xmlns:xlink="http://www.w3.org/1999/xlink" x="0px" y="0px"
	 width="323px" height="56px" viewBox="0 0 323 56" enable-background="new 0 0 323 56" xml:space="preserve">
<path opacity="0.6" fill="#F2F2F2" d="M323,28c0,15.464-12.536,28-28,28H28C12.535,56,0,43.464,0,28l0,0C0,12.536,12.535,0,28,0h267
	C310.464,0,323,12.536,323,28L323,28z"/>
<g>
	<polygon fill="#CDDC39" points="36.92,29.707 39.936,29.707 39.936,29.707 39.936,29.707 42.953,29.707 39.936,22.45 	"/>
	<path fill="#CDDC39" d="M39.936,11.005L39.936,11.005L39.936,11.005l-16.518,5.891l2.518,21.844l14,7.754l0,0l0,0l14-7.754
		l2.521-21.844L39.936,11.005z M50.246,38.082h-3.851l0,0L44.318,32.9h-4.383l0,0l0,0h-4.381l-2.077,5.182l0,0h-3.851l0,0
		l10.309-23.155l0,0l0,0l0,0l0,0L50.246,38.082L50.246,38.082z"/>
</g>
<path fill="#CDDC39" d="M107.716,22.053c-0.433-0.148-0.867-0.285-1.306-0.412c0.072-0.295,0.139-0.592,0.202-0.89
	c0.988-4.799,0.341-8.665-1.865-9.938c-2.116-1.22-5.577,0.053-9.072,3.095c-0.344,0.3-0.682,0.609-1.009,0.926
	c-0.222-0.211-0.445-0.418-0.673-0.621c-3.664-3.252-7.336-4.623-9.54-3.346c-2.114,1.223-2.74,4.858-1.852,9.405
	c0.089,0.45,0.191,0.898,0.301,1.343c-0.52,0.147-1.021,0.305-1.502,0.473c-4.294,1.498-7.036,3.844-7.036,6.278
	c0,2.515,2.943,5.036,7.416,6.564c0.364,0.123,0.729,0.237,1.099,0.343c-0.12,0.479-0.229,0.963-0.319,1.448
	c-0.849,4.469-0.185,8.017,1.922,9.232c2.178,1.256,5.833-0.035,9.394-3.146c0.281-0.246,0.562-0.507,0.844-0.779
	c0.357,0.343,0.725,0.677,1.099,1c3.448,2.966,6.851,4.165,8.959,2.945c2.175-1.26,2.883-5.071,1.965-9.708
	c-0.071-0.355-0.152-0.717-0.244-1.085c0.258-0.076,0.51-0.153,0.755-0.235c4.649-1.541,7.677-4.032,7.677-6.579
	C114.929,25.923,112.097,23.561,107.716,22.053L107.716,22.053z"/>
<path fill="#F2F2F2" d="M106.707,33.301c-0.221,0.073-0.45,0.144-0.682,0.213c-0.513-1.625-1.207-3.354-2.054-5.139
	c0.809-1.743,1.476-3.449,1.975-5.064c0.416,0.12,0.817,0.247,1.204,0.381c3.755,1.292,6.046,3.202,6.046,4.675
	C113.196,29.934,110.723,31.971,106.707,33.301L106.707,33.301z M105.043,36.602c0.404,2.051,0.462,3.905,0.193,5.354
	c-0.241,1.303-0.728,2.171-1.327,2.519c-1.279,0.74-4.014-0.222-6.962-2.759c-0.338-0.29-0.678-0.602-1.019-0.931
	c1.142-1.25,2.283-2.703,3.399-4.317c1.961-0.173,3.813-0.458,5.494-0.847C104.904,35.955,104.979,36.281,105.043,36.602
	L105.043,36.602z M88.192,44.346c-1.248,0.44-2.243,0.453-2.844,0.107c-1.282-0.738-1.812-3.588-1.086-7.408
	c0.086-0.451,0.185-0.901,0.295-1.347c1.663,0.367,3.502,0.632,5.468,0.791c1.121,1.579,2.297,3.03,3.481,4.303
	c-0.252,0.243-0.51,0.48-0.772,0.711C91.159,42.879,89.584,43.854,88.192,44.346L88.192,44.346z M82.341,33.291
	c-1.978-0.676-3.611-1.555-4.73-2.514c-1.007-0.861-1.513-1.717-1.513-2.411c0-1.477,2.202-3.361,5.874-4.642
	c0.461-0.161,0.927-0.307,1.396-0.439c0.51,1.651,1.174,3.378,1.978,5.123c-0.813,1.771-1.491,3.525-2.002,5.195
	C83.006,33.508,82.674,33.403,82.341,33.291z M84.303,19.94c-0.762-3.896-0.255-6.836,1.018-7.573
	c1.356-0.785,4.358,0.334,7.521,3.142c0.204,0.181,0.406,0.369,0.61,0.563c-1.179,1.265-2.344,2.705-3.456,4.275
	c-1.909,0.177-3.734,0.461-5.411,0.841C84.479,20.775,84.385,20.358,84.303,19.94L84.303,19.94z M101.801,24.261
	c-0.396-0.686-0.808-1.362-1.234-2.029c1.296,0.163,2.535,0.381,3.699,0.647c-0.35,1.12-0.785,2.292-1.298,3.493
	C102.592,25.66,102.203,24.956,101.801,24.261L101.801,24.261z M94.666,17.31c0.799,0.866,1.599,1.833,2.387,2.883
	c-1.598-0.076-3.197-0.077-4.794-0.001C93.046,19.151,93.854,18.186,94.666,17.31z M87.482,24.271
	c-0.396,0.69-0.779,1.39-1.143,2.098c-0.504-1.197-0.938-2.374-1.291-3.509c1.158-0.26,2.394-0.472,3.679-0.632
	C88.297,22.899,87.883,23.581,87.482,24.271z M88.765,34.627c-1.329-0.148-2.581-0.349-3.738-0.601
	c0.358-1.157,0.799-2.358,1.314-3.581c0.368,0.708,0.75,1.408,1.15,2.099C87.898,33.249,88.324,33.943,88.765,34.627z
	 M94.713,39.544c-0.821-0.886-1.64-1.866-2.439-2.92c0.775,0.03,1.567,0.046,2.372,0.046c0.827,0,1.646-0.02,2.449-0.055
	C96.303,37.688,95.508,38.67,94.713,39.544z M102.984,30.383c0.542,1.236,0.998,2.431,1.362,3.568
	c-1.177,0.269-2.445,0.484-3.784,0.645c0.43-0.68,0.844-1.367,1.245-2.062C102.216,31.825,102.608,31.108,102.984,30.383
	L102.984,30.383z M100.306,31.666c-0.614,1.068-1.262,2.115-1.945,3.141c-1.204,0.086-2.447,0.13-3.715,0.13
	c-1.262,0-2.49-0.039-3.673-0.116c-0.7-1.022-1.36-2.071-1.982-3.145c-0.617-1.066-1.194-2.157-1.729-3.268
	c0.533-1.112,1.108-2.202,1.725-3.271l0,0c0.616-1.068,1.272-2.112,1.966-3.131c1.207-0.092,2.444-0.139,3.695-0.139
	c1.256,0,2.493,0.048,3.701,0.14c0.688,1.017,1.338,2.058,1.952,3.121c0.62,1.066,1.202,2.152,1.749,3.254
	C101.508,29.498,100.927,30.593,100.306,31.666L100.306,31.666z M103.881,12.315c1.358,0.783,1.887,3.942,1.035,8.085
	c-0.058,0.27-0.119,0.539-0.186,0.807c-1.682-0.388-3.509-0.677-5.421-0.857c-1.116-1.587-2.27-3.031-3.431-4.279
	c0.303-0.294,0.615-0.578,0.934-0.856C99.808,12.609,102.604,11.58,103.881,12.315L103.881,12.315z"/>
<path fill="#CDDC39" d="M94.646,24.744c2.002,0,3.623,1.622,3.623,3.623c0,2.001-1.621,3.622-3.623,3.622
	c-2,0-3.621-1.621-3.621-3.622C91.024,26.366,92.646,24.744,94.646,24.744"/>
<g>
	<path fill="#CDDC39" d="M137.247,19.279c-3.198,4.596-2.8,10.574-0.356,15.458c0.057,0.116,0.118,0.232,0.178,0.348
		c0.04,0.073,0.075,0.147,0.115,0.22c0.022,0.043,0.047,0.085,0.071,0.127c0.042,0.077,0.084,0.151,0.126,0.228
		c0.076,0.134,0.154,0.267,0.233,0.399c0.046,0.073,0.089,0.146,0.136,0.22c0.086,0.142,0.178,0.282,0.27,0.423
		c0.038,0.061,0.075,0.12,0.113,0.178c0.13,0.19,0.259,0.38,0.394,0.565c0.003,0.005,0.005,0.01,0.012,0.016
		c0.021,0.029,0.044,0.059,0.063,0.088c0.117,0.161,0.237,0.318,0.359,0.475c0.044,0.059,0.088,0.115,0.134,0.172
		c0.108,0.137,0.219,0.271,0.331,0.406c0.042,0.05,0.084,0.102,0.126,0.15c0.149,0.177,0.302,0.353,0.459,0.525
		c0.003,0.003,0.007,0.006,0.009,0.01c0.007,0.008,0.012,0.012,0.019,0.02c0.153,0.166,0.309,0.329,0.469,0.492
		c0.048,0.051,0.097,0.102,0.148,0.151c0.123,0.123,0.247,0.245,0.373,0.365c0.051,0.049,0.103,0.099,0.152,0.146
		c0.169,0.158,0.339,0.313,0.512,0.466c0.004,0.002,0.006,0.005,0.007,0.007c0.03,0.026,0.062,0.051,0.091,0.076
		c0.151,0.132,0.308,0.263,0.465,0.391c0.062,0.053,0.126,0.104,0.191,0.154c0.128,0.103,0.257,0.204,0.388,0.303
		c0.068,0.053,0.138,0.105,0.207,0.157c0.143,0.105,0.288,0.21,0.435,0.312c0.054,0.039,0.105,0.076,0.157,0.112
		c0.016,0.011,0.029,0.021,0.044,0.031c0.138,0.096,0.28,0.188,0.421,0.278c0.062,0.041,0.123,0.084,0.184,0.123
		c0.219,0.138,0.438,0.273,0.661,0.404c0.06,0.035,0.121,0.068,0.183,0.104c0.163,0.094,0.328,0.187,0.494,0.277
		c0.093,0.049,0.184,0.095,0.276,0.142c0.118,0.062,0.234,0.124,0.354,0.185c0.026,0.014,0.056,0.026,0.084,0.039
		c0.047,0.023,0.095,0.046,0.144,0.07c0.186,0.089,0.372,0.176,0.562,0.261c0.041,0.018,0.078,0.036,0.119,0.053
		c0.218,0.095,0.436,0.186,0.655,0.273c0.053,0.021,0.105,0.042,0.16,0.062c0.203,0.079,0.41,0.156,0.619,0.229
		c0.025,0.009,0.052,0.018,0.076,0.026c0.229,0.08,0.46,0.153,0.691,0.226c0.055,0.017,0.111,0.034,0.166,0.05
		c0.237,0.072,0.47,0.157,0.714,0.202c15.462,2.819,19.954-9.293,19.954-9.293c-3.772,4.915-10.468,6.212-16.814,4.769
		c-0.239-0.055-0.472-0.13-0.706-0.199c-0.06-0.017-0.118-0.035-0.178-0.054c-0.229-0.069-0.456-0.144-0.683-0.222
		c-0.029-0.011-0.061-0.022-0.093-0.033c-0.202-0.071-0.401-0.146-0.601-0.224c-0.056-0.022-0.112-0.043-0.17-0.066
		c-0.218-0.086-0.434-0.176-0.648-0.27c-0.043-0.019-0.086-0.038-0.129-0.057c-0.184-0.084-0.366-0.168-0.547-0.255
		c-0.054-0.025-0.107-0.05-0.158-0.076c-0.143-0.069-0.283-0.144-0.424-0.216c-0.095-0.05-0.191-0.096-0.282-0.147
		c-0.172-0.093-0.343-0.188-0.508-0.284c-0.057-0.032-0.114-0.063-0.171-0.096c-0.224-0.132-0.444-0.268-0.662-0.406
		c-0.06-0.037-0.119-0.078-0.179-0.118c-0.157-0.102-0.314-0.206-0.47-0.312c-0.052-0.034-0.101-0.071-0.151-0.106
		c-0.15-0.105-0.298-0.213-0.445-0.322c-0.065-0.049-0.132-0.1-0.197-0.148c-0.134-0.103-0.268-0.206-0.4-0.313
		c-0.06-0.047-0.12-0.096-0.181-0.144c-0.168-0.138-0.333-0.277-0.498-0.421c-0.017-0.015-0.037-0.03-0.055-0.046
		c-0.178-0.156-0.353-0.316-0.525-0.479c-0.051-0.047-0.099-0.094-0.148-0.142c-0.128-0.122-0.254-0.244-0.378-0.37
		c-0.049-0.049-0.098-0.098-0.147-0.147c-0.157-0.161-0.311-0.325-0.463-0.49c-0.008-0.008-0.016-0.016-0.022-0.024
		c-0.159-0.175-0.317-0.354-0.471-0.534c-0.042-0.05-0.082-0.098-0.124-0.146c-0.113-0.138-0.226-0.277-0.336-0.418
		c-0.042-0.05-0.083-0.102-0.124-0.154c-0.133-0.173-0.264-0.345-0.392-0.52c-3.522-4.805-4.787-11.432-1.973-16.874"/>
	<path fill="#CDDC39" d="M147.173,15.407c-2.312,3.328-2.188,7.782-0.384,11.301c0.303,0.59,0.644,1.162,1.022,1.707
		c0.348,0.497,0.731,1.088,1.19,1.486c0.166,0.184,0.342,0.362,0.518,0.539c0.047,0.045,0.093,0.089,0.139,0.135
		c0.173,0.167,0.349,0.333,0.53,0.492c0.007,0.006,0.013,0.014,0.021,0.019c0.003,0.002,0.005,0.004,0.006,0.006
		c0.201,0.176,0.407,0.345,0.619,0.511c0.047,0.036,0.093,0.074,0.14,0.11c0.211,0.162,0.428,0.322,0.648,0.473
		c0.007,0.006,0.011,0.01,0.019,0.015c0.098,0.067,0.197,0.13,0.295,0.194c0.047,0.031,0.093,0.064,0.14,0.094
		c0.159,0.1,0.318,0.198,0.481,0.293c0.022,0.014,0.045,0.026,0.068,0.039c0.14,0.081,0.28,0.16,0.423,0.238
		c0.05,0.027,0.1,0.052,0.151,0.078c0.098,0.051,0.196,0.104,0.296,0.154c0.016,0.007,0.031,0.014,0.045,0.02
		c0.205,0.101,0.41,0.197,0.621,0.288c0.042,0.021,0.091,0.038,0.136,0.057c0.168,0.071,0.336,0.141,0.506,0.206
		c0.074,0.027,0.146,0.054,0.217,0.08c0.157,0.057,0.312,0.109,0.467,0.162c0.071,0.022,0.141,0.045,0.212,0.066
		c0.222,0.069,0.442,0.157,0.674,0.195c11.939,1.979,14.694-7.214,14.694-7.214c-2.484,3.58-7.295,5.286-12.43,3.954
		c-0.228-0.06-0.455-0.126-0.676-0.195c-0.069-0.021-0.137-0.044-0.204-0.065c-0.159-0.052-0.316-0.106-0.474-0.164
		c-0.07-0.025-0.144-0.053-0.213-0.08c-0.172-0.064-0.341-0.133-0.509-0.204c-0.048-0.02-0.093-0.037-0.137-0.058
		c-0.211-0.092-0.419-0.189-0.624-0.29c-0.104-0.051-0.208-0.105-0.312-0.159c-0.061-0.03-0.12-0.062-0.181-0.093
		c-0.132-0.071-0.265-0.147-0.395-0.223c-0.033-0.019-0.064-0.034-0.096-0.054c-0.16-0.094-0.32-0.191-0.478-0.292
		c-0.048-0.031-0.097-0.065-0.145-0.097c-0.104-0.067-0.208-0.135-0.312-0.205c-0.219-0.151-0.434-0.311-0.644-0.472
		c-0.049-0.038-0.098-0.076-0.146-0.114c-2.247-1.775-4.029-4.2-4.877-6.948c-0.887-2.853-0.695-6.054,0.843-8.651"/>
	<path fill="#CDDC39" d="M155.52,12.515c-1.363,2.006-1.496,4.498-0.551,6.713c0.996,2.352,3.041,4.197,5.427,5.071
		c0.1,0.036,0.196,0.069,0.297,0.103c0.042,0.014,0.086,0.028,0.131,0.042c0.141,0.044,0.278,0.096,0.425,0.124
		c6.592,1.273,8.38-3.384,8.855-4.068c-1.565,2.255-4.198,2.796-7.428,2.013c-0.256-0.062-0.535-0.155-0.782-0.242
		c-0.314-0.112-0.625-0.24-0.927-0.385c-0.574-0.276-1.12-0.61-1.628-0.993c-2.889-2.192-4.684-6.376-2.799-9.782"/>
</g>
<path fill="#CDDC39" d="M203.727,47.871c-0.513,0-1.023-0.134-1.471-0.394l-4.679-2.768c-0.699-0.392-0.358-0.53-0.127-0.61
	c0.931-0.323,1.12-0.398,2.115-0.963c0.103-0.059,0.241-0.035,0.348,0.027l3.596,2.134c0.13,0.072,0.314,0.072,0.434,0l14.017-8.089
	c0.129-0.074,0.211-0.225,0.211-0.379V20.655c0-0.158-0.082-0.306-0.217-0.386l-14.008-8.082c-0.131-0.076-0.302-0.076-0.433,0
	l-14.005,8.084c-0.137,0.078-0.223,0.231-0.223,0.384V36.83c0,0.154,0.086,0.301,0.222,0.374l3.838,2.219
	c2.084,1.041,3.358-0.187,3.358-1.418V22.036c0-0.226,0.182-0.403,0.408-0.403h1.777c0.222,0,0.405,0.177,0.405,0.403v15.969
	c0,2.78-1.514,4.374-4.148,4.374c-0.81,0-1.449,0-3.229-0.877l-3.675-2.115c-0.907-0.525-1.47-1.506-1.47-2.557V20.655
	c0-1.051,0.562-2.031,1.47-2.554l14.015-8.099c0.888-0.501,2.064-0.501,2.945,0l14.015,8.099c0.907,0.525,1.472,1.503,1.472,2.554
	V36.83c0,1.051-0.564,2.027-1.472,2.557l-14.015,8.091C204.755,47.737,204.245,47.871,203.727,47.871"/>
<path fill="#CDDC39" d="M208.055,36.728c-6.132,0-7.418-2.814-7.418-5.176c0-0.225,0.181-0.403,0.406-0.403h1.811
	c0.203,0,0.372,0.146,0.403,0.343c0.274,1.845,1.09,2.776,4.798,2.776c2.953,0,4.21-0.668,4.21-2.234
	c0-0.903-0.357-1.574-4.946-2.023c-3.833-0.379-6.204-1.227-6.204-4.294c0-2.828,2.383-4.514,6.379-4.514
	c4.489,0,6.712,1.558,6.992,4.901c0.012,0.116-0.029,0.227-0.106,0.312c-0.078,0.081-0.185,0.129-0.297,0.129h-1.819
	c-0.188,0-0.355-0.134-0.394-0.317c-0.436-1.941-1.497-2.562-4.376-2.562c-3.224,0-3.598,1.123-3.598,1.965
	c0,1.02,0.44,1.316,4.795,1.892c4.307,0.57,6.353,1.375,6.353,4.403C215.043,34.979,212.496,36.728,208.055,36.728"/>
<path fill="#CDDC39" d="M228.264,19.767c0,1.486-1.215,2.7-2.7,2.7c-1.473,0-2.702-1.2-2.702-2.7c0-1.53,1.258-2.702,2.702-2.702
	C227.02,17.064,228.264,18.237,228.264,19.767 M223.298,19.759c0,1.259,1.016,2.272,2.258,2.272c1.258,0,2.272-1.036,2.272-2.272
	c0-1.258-1.028-2.258-2.272-2.258C224.327,17.5,223.298,18.487,223.298,19.759 M224.548,18.25h1.045c0.356,0,1.058,0,1.058,0.801
	c0,0.557-0.357,0.672-0.573,0.743c0.415,0.028,0.442,0.3,0.5,0.686c0.029,0.243,0.073,0.658,0.157,0.801h-0.643
	c-0.015-0.143-0.115-0.916-0.115-0.958c-0.043-0.172-0.1-0.257-0.313-0.257h-0.53v1.214h-0.585V18.25z M225.119,19.58h0.474
	c0.384,0,0.456-0.271,0.456-0.428c0-0.416-0.286-0.416-0.443-0.416h-0.486V19.58z"/>
<g id="g3440_2_">
	<g>
		<defs>
			<path id="SVGID_1_" d="M241.926,29.707c0,8.547,13.171,15.475,29.417,15.475l0,0c16.246,0,29.417-6.928,29.417-15.475l0,0
				c0-8.546-13.171-15.475-29.417-15.475l0,0C255.097,14.232,241.926,21.161,241.926,29.707"/>
		</defs>
		<use xlink:href="#SVGID_1_"  overflow="visible" fill="#CDDC39"/>
		<clipPath id="SVGID_2_">
			<use xlink:href="#SVGID_1_"  overflow="visible"/>
		</clipPath>
		<g id="g3442_2_" clip-path="url(#SVGID_2_)">
			<g id="g3448_2_">
				<g id="g3450_2_">
					<path id="path3462_2_" fill="#CDDC39" d="M241.926,29.707c0,8.547,13.171,15.475,29.417,15.475l0,0
						c16.246,0,29.417-6.928,29.417-15.475l0,0c0-8.546-13.171-15.475-29.417-15.475l0,0
						C255.097,14.232,241.926,21.161,241.926,29.707"/>
				</g>
			</g>
		</g>
	</g>
</g>
<g id="g3484_2_" transform="translate(161.7344,145.3066)">
	<path id="path3486_2_" fill="#F2F2F2" d="M95.458-113.823c1.283,0,2.241-0.237,2.848-0.703c0.601-0.462,1.016-1.263,1.232-2.379
		c0.202-1.043,0.125-1.771-0.229-2.165c-0.362-0.401-1.146-0.605-2.329-0.605h-2.052l-1.138,5.852H95.458z M88.747-106.615
		c-0.095,0-0.185-0.042-0.247-0.115c-0.059-0.074-0.084-0.171-0.066-0.265l3.014-15.507c0.03-0.15,0.162-0.258,0.315-0.258h6.496
		c2.041,0,3.56,0.554,4.516,1.647c0.96,1.099,1.257,2.636,0.881,4.567c-0.153,0.786-0.416,1.517-0.781,2.171
		s-0.85,1.261-1.437,1.801c-0.704,0.659-1.502,1.137-2.366,1.418c-0.853,0.277-1.945,0.418-3.25,0.418H93.19l-0.751,3.865
		c-0.028,0.15-0.16,0.258-0.313,0.258H88.747z"/>
</g>
<g id="g3492_2_" transform="translate(311.583,116.3066)">
	<path id="path3494_2_" fill="#F2F2F2" d="M-37.731-81.738c-0.095,0-0.186-0.042-0.245-0.115c-0.062-0.074-0.087-0.171-0.068-0.265
		l1.334-6.861c0.128-0.652,0.096-1.121-0.089-1.318c-0.111-0.122-0.449-0.324-1.447-0.324h-2.416l-1.676,8.626
		c-0.029,0.15-0.16,0.258-0.313,0.258h-3.352c-0.097,0-0.186-0.042-0.245-0.115c-0.062-0.074-0.086-0.171-0.068-0.265l3.015-15.508
		c0.029-0.149,0.16-0.258,0.313-0.258h3.351c0.097,0,0.187,0.042,0.247,0.116s0.085,0.17,0.067,0.264l-0.729,3.743h2.6
		c1.979,0,3.321,0.349,4.104,1.067c0.797,0.732,1.045,1.903,0.739,3.482l-1.402,7.216c-0.029,0.15-0.161,0.258-0.313,0.258H-37.731z
		"/>
</g>
<g id="g3500_2_" transform="translate(409.5498,145.3066)">
	<path id="path3502_2_" fill="#F2F2F2" d="M-124.559-113.823c1.284,0,2.242-0.237,2.849-0.703c0.601-0.462,1.014-1.263,1.23-2.379
		c0.204-1.043,0.126-1.771-0.229-2.165c-0.362-0.401-1.146-0.605-2.329-0.605h-2.051l-1.139,5.852H-124.559z M-131.269-106.615
		c-0.096,0-0.185-0.042-0.246-0.115c-0.061-0.074-0.085-0.171-0.067-0.265l3.015-15.507c0.029-0.15,0.161-0.258,0.313-0.258h6.497
		c2.041,0,3.561,0.554,4.516,1.647c0.96,1.099,1.257,2.636,0.881,4.567c-0.154,0.786-0.415,1.517-0.78,2.171
		c-0.366,0.654-0.851,1.261-1.438,1.801c-0.705,0.659-1.502,1.137-2.367,1.418c-0.85,0.277-1.943,0.418-3.25,0.418h-2.63
		l-0.75,3.865c-0.029,0.15-0.16,0.258-0.313,0.258H-131.269z"/>
</g>
</svg>
