<?xml version="1.0" encoding="utf-8"?>
<!-- Generator: Adobe Illustrator 16.0.0, SVG Export Plug-In . SVG Version: 6.00 Build 0)  -->
<!DOCTYPE svg PUBLIC "-//W3C//DTD SVG 1.1//EN" "http://www.w3.org/Graphics/SVG/1.1/DTD/svg11.dtd">
<svg version="1.1" id="Layer_1" xmlns="http://www.w3.org/2000/svg" xmlns:xlink="http://www.w3.org/1999/xlink" x="0px" y="0px"
	 width="316px" height="207px" viewBox="0 0 316 207" enable-background="new 0 0 316 207" xml:space="preserve">
<path fill="#F3F3F3" d="M24.806,101.743c0,1.079-0.875,1.953-1.953,1.953h-4.631c-1.079,0-1.953-0.874-1.953-1.953v-4.634
	c0-1.077,0.875-1.951,1.953-1.951h4.631c1.079,0,1.953,0.874,1.953,1.951V101.743z"/>
<path fill="#F3F3F3" d="M24.806,117.75c0,1.079-0.875,1.953-1.953,1.953h-4.631c-1.079,0-1.953-0.874-1.953-1.953v-4.634
	c0-1.077,0.875-1.95,1.953-1.95h4.631c1.079,0,1.953,0.873,1.953,1.95V117.75z"/>
<g>
	<path fill="#333333" d="M20.201,118.619l-3.032-3.9c-0.248-0.32-0.189-0.781,0.129-1.03c0.321-0.249,0.781-0.19,1.029,0.129
		l2.374,3.055l2.997-5.001c0.208-0.347,0.659-0.459,1.006-0.252c0.347,0.208,0.459,0.659,0.252,1.006l-3.548,5.921L20.201,118.619z"
		/>
</g>
<path fill="#F3F3F3" d="M24.806,133.758c0,1.078-0.875,1.952-1.953,1.952h-4.631c-1.079,0-1.953-0.874-1.953-1.952v-4.635
	c0-1.077,0.875-1.95,1.953-1.95h4.631c1.079,0,1.953,0.873,1.953,1.95V133.758z"/>
<path fill="#F3F3F3" d="M24.806,149.765c0,1.078-0.875,1.952-1.953,1.952h-4.631c-1.079,0-1.953-0.874-1.953-1.952v-4.634
	c0-1.078,0.875-1.951,1.953-1.951h4.631c1.079,0,1.953,0.873,1.953,1.951V149.765z"/>
<path fill="#F3F3F3" d="M24.806,165.771c0,1.078-0.875,1.953-1.953,1.953h-4.631c-1.079,0-1.953-0.875-1.953-1.953v-4.634
	c0-1.077,0.875-1.95,1.953-1.95h4.631c1.079,0,1.953,0.873,1.953,1.95V165.771z"/>
<g>
	<path fill="#333333" d="M20.201,166.641l-3.032-3.901c-0.248-0.32-0.189-0.78,0.129-1.029c0.321-0.25,0.781-0.19,1.029,0.129
		l2.374,3.054l2.997-5c0.208-0.348,0.659-0.459,1.006-0.252c0.347,0.208,0.459,0.658,0.252,1.006l-3.548,5.921L20.201,166.641z"/>
</g>
<rect x="28.007" y="96.226" fill="#F3F3F3" width="77.261" height="5.336"/>
<rect x="28.007" y="112.232" fill="#F3F3F3" width="77.261" height="5.336"/>
<rect x="28.007" y="128.24" fill="#F3F3F3" width="77.261" height="5.336"/>
<rect x="28.007" y="144.247" fill="#F3F3F3" width="77.261" height="5.336"/>
<rect x="28.007" y="160.254" fill="#F3F3F3" width="77.261" height="5.336"/>
<rect x="11.769" y="36.108" fill="#F3F3F3" width="95.5" height="14.207"/>
<g>
	<g>
		<path fill="#333333" d="M98.578,44.78c-1.287,0-2.332-1.046-2.332-2.333c0-1.284,1.045-2.329,2.332-2.329
			c1.286,0,2.331,1.045,2.331,2.329C100.908,43.734,99.863,44.78,98.578,44.78z M98.578,40.772c-0.924,0-1.676,0.752-1.676,1.675
			c0,0.924,0.752,1.676,1.676,1.676c0.923,0,1.674-0.751,1.674-1.676C100.252,41.524,99.5,40.772,98.578,40.772z"/>
	</g>
	<g>
		<path fill="#333333" d="M102.282,46.481c-0.085,0-0.168-0.032-0.232-0.095l-2.171-2.173c-0.129-0.129-0.129-0.335,0-0.464
			c0.128-0.128,0.334-0.128,0.464,0l2.171,2.172c0.129,0.128,0.129,0.335,0,0.465C102.45,46.449,102.366,46.481,102.282,46.481z"/>
	</g>
</g>
<rect x="213.575" y="64.178" opacity="0.3" fill="#CDCCCC" width="86.693" height="5.292"/>
<rect x="213.575" y="71.395" opacity="0.3" fill="#CDCCCC" width="86.693" height="5.292"/>
<rect x="213.575" y="54.074" fill="#CDCCCC" width="48.11" height="6.255"/>
<rect x="180.436" y="49.156" opacity="0.3" fill="#CDCCCC" width="28.385" height="28.385"/>
<rect x="213.575" y="101.891" opacity="0.3" fill="#CDCCCC" width="86.693" height="5.292"/>
<rect x="213.575" y="109.107" opacity="0.3" fill="#CDCCCC" width="86.693" height="5.291"/>
<rect x="213.575" y="138.993" opacity="0.3" fill="#CDCCCC" width="86.693" height="5.292"/>
<rect x="213.575" y="146.209" opacity="0.3" fill="#CDCCCC" width="86.693" height="5.291"/>
<rect x="213.575" y="91.788" fill="#CDCCCC" width="48.11" height="6.254"/>
<rect x="180.436" y="86.87" opacity="0.3" fill="#CDCCCC" width="28.385" height="28.385"/>
<rect x="213.575" y="129.502" fill="#CDCCCC" width="48.11" height="6.254"/>
<rect x="180.436" y="124.582" opacity="0.3" fill="#CDCCCC" width="28.385" height="28.387"/>
<g>
	<rect x="149.117" y="86.427" fill="#E6E6E5" width="22.008" height="2.701"/>
</g>
<g>
	<polygon fill="#E6E6E5" points="113.04,42.731 141.599,85.556 139.521,87.281 110.961,44.457 	"/>
</g>
<g>
	<polygon fill="#E6E6E5" points="139.486,85.611 141.637,87.245 113.075,134.059 110.925,132.425 	"/>
</g>
<g>
	<path fill="#FEE84E" d="M308.418,162.951H171.574c-0.745,0-1.35-0.605-1.35-1.351V40.062c0-0.746,0.604-1.351,1.35-1.351h136.844
		c0.745,0,1.35,0.604,1.35,1.351v121.538C309.768,162.346,309.163,162.951,308.418,162.951z M172.926,160.25h134.141V41.413H172.926
		V160.25z"/>
</g>
<g>
	<path fill="#B4B4B4" d="M112.003,55.817H7.168c-0.497,0-0.9-0.403-0.9-0.9V31.51c0-0.497,0.403-0.9,0.9-0.9h104.834
		c0.497,0,0.9,0.404,0.9,0.9v23.407C112.903,55.414,112.5,55.817,112.003,55.817z M8.069,54.017h103.034V32.41H8.069V54.017z"/>
</g>
<g>
	<path fill="#B4B4B4" d="M112.003,177.355H7.168c-0.497,0-0.9-0.402-0.9-0.9V86.427c0-0.497,0.403-0.9,0.9-0.9h104.834
		c0.497,0,0.9,0.403,0.9,0.9v90.028C112.903,176.952,112.5,177.355,112.003,177.355z M8.069,175.555h103.034V87.327H8.069V175.555z"
		/>
</g>
<g>
	<circle fill="#333333" cx="140.852" cy="87.771" r="16.8"/>
</g>
<g transform="translate(0,-952.36218)">
	<g transform="translate(20.998031,959.86021)">
		<g>
			<path fill="#E6E6E5" d="M119.61,61.811c-10.197,0-18.462,8.267-18.462,18.463c0,10.195,8.265,18.462,18.462,18.462
				c10.194,0,18.46-8.267,18.46-18.462C138.07,70.077,129.804,61.811,119.61,61.811L119.61,61.811z M119.308,70.602h4.918
				c0.649,0.19,1.066,0.645,0.7,1.402l-4.219,5.63h3.078c0.624,0.005,1.073,0.819,0.742,1.347l-6.593,10.548
				c-0.479,0.75-1.829,0.334-1.58-0.753l2.252-6.744h-3.614c-0.59-0.001-1.045-0.718-0.796-1.251l4.396-9.67
				C118.721,70.833,119.003,70.631,119.308,70.602L119.308,70.602z"/>
		</g>
	</g>
</g>
</svg>
