<?xml version="1.0" encoding="utf-8"?>
<!-- Generator: Adobe Illustrator 16.0.0, SVG Export Plug-In . SVG Version: 6.00 Build 0)  -->
<!DOCTYPE svg PUBLIC "-//W3C//DTD SVG 1.1//EN" "http://www.w3.org/Graphics/SVG/1.1/DTD/svg11.dtd">
<svg version="1.1" id="Layer_1" xmlns="http://www.w3.org/2000/svg" xmlns:xlink="http://www.w3.org/1999/xlink" x="0px" y="0px"
	 width="316px" height="207px" viewBox="0 0 316 207" enable-background="new 0 0 316 207" xml:space="preserve">
<g>
	<path fill="#B4B4B4" d="M289.5,181.5h-152c-0.552,0-1-0.447-1-1V62.982c0-0.552,0.448-1,1-1h152c0.553,0,1,0.448,1,1V180.5
		C290.5,181.053,290.053,181.5,289.5,181.5z M138.5,179.5h150V63.982h-150V179.5z"/>
</g>
<g>
	<path fill="#B4B4B4" d="M289.5,52.982h-152c-0.552,0-1-0.448-1-1v-26c0-0.552,0.448-1,1-1h152c0.553,0,1,0.448,1,1v26
		C290.5,52.535,290.053,52.982,289.5,52.982z M138.5,50.982h150v-24h-150V50.982z"/>
</g>
<g>
	<path fill="#B4B4B4" d="M127,52.982H27c-0.552,0-1-0.448-1-1v-26c0-0.552,0.448-1,1-1h100c0.552,0,1,0.448,1,1v26
		C128,52.535,127.552,52.982,127,52.982z M28,50.982h98v-24H28V50.982z"/>
</g>
<g>
	<path fill="#B4B4B4" d="M127,143.982H27c-0.552,0-1-0.447-1-1v-81c0-0.552,0.448-1,1-1h100c0.552,0,1,0.448,1,1v81
		C128,143.535,127.552,143.982,127,143.982z M28,141.982h98v-79H28V141.982z"/>
</g>
<g>
	<path fill="#F3F3F3" d="M45,73.153c0,1.011-0.819,1.83-1.83,1.83h-4.34c-1.011,0-1.83-0.819-1.83-1.83v-4.342
		c0-1.01,0.819-1.828,1.83-1.828h4.34c1.011,0,1.83,0.818,1.83,1.828V73.153z"/>
</g>
<g>
	<path fill="#F3F3F3" d="M45,88.153c0,1.011-0.819,1.83-1.83,1.83h-4.34c-1.011,0-1.83-0.819-1.83-1.83v-4.342
		c0-1.01,0.819-1.828,1.83-1.828h4.34c1.011,0,1.83,0.818,1.83,1.828V88.153z"/>
</g>
<g>
	<g>
		<path fill="#333333" d="M40.685,88.967l-2.841-3.655c-0.232-0.3-0.178-0.732,0.121-0.965c0.301-0.234,0.732-0.179,0.965,0.121
			l2.225,2.862l2.809-4.686c0.195-0.325,0.617-0.43,0.942-0.236c0.325,0.195,0.431,0.617,0.236,0.942l-3.325,5.548L40.685,88.967z"
			/>
	</g>
</g>
<g>
	<path fill="#F3F3F3" d="M45,103.153c0,1.011-0.819,1.83-1.83,1.83h-4.34c-1.011,0-1.83-0.818-1.83-1.83v-4.342
		c0-1.01,0.819-1.828,1.83-1.828h4.34c1.011,0,1.83,0.818,1.83,1.828V103.153z"/>
</g>
<g>
	<path fill="#F3F3F3" d="M45,118.152c0,1.012-0.819,1.83-1.83,1.83h-4.34c-1.011,0-1.83-0.818-1.83-1.83v-4.342
		c0-1.01,0.819-1.828,1.83-1.828h4.34c1.011,0,1.83,0.818,1.83,1.828V118.152z"/>
</g>
<g>
	<path fill="#F3F3F3" d="M45,133.152c0,1.012-0.819,1.83-1.83,1.83h-4.34c-1.011,0-1.83-0.818-1.83-1.83v-4.342
		c0-1.01,0.819-1.828,1.83-1.828h4.34c1.011,0,1.83,0.818,1.83,1.828V133.152z"/>
</g>
<g>
	<g>
		<path fill="#333333" d="M40.685,133.967l-2.841-3.655c-0.232-0.3-0.178-0.731,0.121-0.965c0.301-0.233,0.732-0.179,0.965,0.12
			l2.225,2.863l2.809-4.687c0.195-0.325,0.617-0.43,0.942-0.235s0.431,0.617,0.236,0.941l-3.325,5.549L40.685,133.967z"/>
	</g>
</g>
<g>
	<rect x="143.5" y="30.982" fill="#F3F3F3" width="141" height="15"/>
</g>
<g>
	<rect x="35" y="34.982" fill="#F3F3F3" width="84" height="7"/>
</g>
<g>
	<path fill="#B4B4B4" d="M127,181.929H27c-0.552,0-1-0.447-1-1v-26c0-0.553,0.448-1,1-1h100c0.552,0,1,0.447,1,1v26
		C128,181.481,127.552,181.929,127,181.929z M28,179.929h98v-24H28V179.929z"/>
</g>
<g>
	<rect x="48" y="67.982" fill="#F3F3F3" width="73" height="5"/>
</g>
<g>
	<rect x="48" y="82.982" fill="#F3F3F3" width="73" height="5"/>
</g>
<g>
	<rect x="48" y="97.982" fill="#F3F3F3" width="73" height="5"/>
</g>
<g>
	<rect x="48" y="112.982" fill="#F3F3F3" width="73" height="5"/>
</g>
<g>
	<rect x="48" y="127.982" fill="#F3F3F3" width="73" height="5"/>
</g>
<g>
	<g>
		<g>
			<path fill="#333333" d="M272.307,40.682c-1.805,0-3.271-1.467-3.271-3.272c0-1.801,1.467-3.268,3.271-3.268
				c1.804,0,3.27,1.467,3.27,3.268C275.576,39.215,274.11,40.682,272.307,40.682z M272.307,35.061c-1.297,0-2.352,1.055-2.352,2.349
				c0,1.297,1.055,2.351,2.352,2.351c1.295,0,2.35-1.054,2.35-2.351C274.656,36.115,273.602,35.061,272.307,35.061z"/>
		</g>
	</g>
	<g>
		<g>
			<path fill="#333333" d="M277.504,43.069c-0.119,0-0.235-0.044-0.326-0.133l-3.045-3.048c-0.182-0.181-0.182-0.471,0-0.651
				c0.179-0.18,0.469-0.18,0.65,0l3.046,3.047c0.181,0.18,0.181,0.47,0,0.652C277.74,43.024,277.622,43.069,277.504,43.069z"/>
		</g>
	</g>
</g>
<g opacity="0.3">
	<rect x="177.958" y="85.97" fill="#CDCCCC" width="102.542" height="5.023"/>
</g>
<g opacity="0.3">
	<rect x="177.958" y="92.82" fill="#CDCCCC" width="102.542" height="5.022"/>
</g>
<g>
	<rect x="177.958" y="76.38" fill="#CDCCCC" width="45.667" height="5.937"/>
</g>
<g opacity="0.3">
	<rect x="146.5" y="71.711" fill="#CDCCCC" width="26.944" height="26.944"/>
</g>
<g opacity="0.3">
	<rect x="177.958" y="121.769" fill="#CDCCCC" width="102.542" height="5.023"/>
</g>
<g opacity="0.3">
	<rect x="177.958" y="128.619" fill="#CDCCCC" width="102.542" height="5.022"/>
</g>
<g>
	<rect x="177.958" y="112.179" fill="#CDCCCC" width="45.667" height="5.937"/>
</g>
<g opacity="0.3">
	<rect x="146.5" y="107.51" fill="#CDCCCC" width="26.944" height="26.944"/>
</g>
<g opacity="0.3">
	<rect x="177.958" y="157.567" fill="#CDCCCC" width="102.542" height="5.023"/>
</g>
<g opacity="0.3">
	<rect x="177.958" y="164.418" fill="#CDCCCC" width="102.542" height="5.022"/>
</g>
<g>
	<rect x="177.958" y="147.978" fill="#CDCCCC" width="45.667" height="5.937"/>
</g>
<g opacity="0.3">
	<rect x="146.5" y="143.309" fill="#CDCCCC" width="26.944" height="26.944"/>
</g>
<g>
	<rect x="35" y="167" fill="#F3F3F3" width="84" height="3"/>
</g>
<g>
	<rect x="51" y="167" fill="#333333" width="52" height="3"/>
</g>
<g>
	<circle fill="#333333" cx="51" cy="168.5" r="3"/>
</g>
<g>
	<circle fill="#333333" cx="103" cy="168.5" r="3"/>
</g>
</svg>
