<?xml version="1.0" encoding="utf-8"?>
<!-- Generator: Adobe Illustrator 15.0.0, SVG Export Plug-In . SVG Version: 6.00 Build 0)  -->
<!DOCTYPE svg PUBLIC "-//W3C//DTD SVG 1.1//EN" "http://www.w3.org/Graphics/SVG/1.1/DTD/svg11.dtd">
<svg version="1.1" id="Layer_1" xmlns="http://www.w3.org/2000/svg" xmlns:xlink="http://www.w3.org/1999/xlink" x="0px" y="0px"
	 width="268.667px" height="178px" viewBox="0 0 268.667 178" enable-background="new 0 0 268.667 178" xml:space="preserve">
<g>
	<path fill="#B3B3B3" d="M154.667,175.667h-152c-0.552,0-1-0.447-1-1v-135c0-0.552,0.448-1,1-1h152c0.553,0,1,0.448,1,1v135
		C155.667,175.219,155.219,175.667,154.667,175.667z M3.667,173.667h150v-133h-150V173.667z"/>
</g>
<g>
	<path fill="#B3B3B3" d="M154.667,29.667h-152c-0.552,0-1-0.448-1-1v-26c0-0.552,0.448-1,1-1h152c0.553,0,1,0.448,1,1v26
		C155.667,29.219,155.219,29.667,154.667,29.667z M3.667,27.667h150v-24h-150V27.667z"/>
</g>
<g>
	<path fill="#B3B3B3" d="M265.667,29.667h-100c-0.553,0-1-0.448-1-1v-26c0-0.552,0.447-1,1-1h100c0.553,0,1,0.448,1,1v26
		C266.667,29.219,266.219,29.667,265.667,29.667z M166.667,27.667h98v-24h-98V27.667z"/>
</g>
<g>
	<path fill="#B3B3B3" d="M265.667,119.667h-100c-0.553,0-1-0.447-1-1v-80c0-0.552,0.447-1,1-1h100c0.553,0,1,0.448,1,1v80
		C266.667,119.219,266.219,119.667,265.667,119.667z M166.667,117.667h98v-78h-98V117.667z"/>
</g>
<g>
	<path fill="#B3B3B3" d="M265.667,175.667h-100c-0.553,0-1-0.447-1-1v-45c0-0.553,0.447-1,1-1h100c0.553,0,1,0.447,1,1v45
		C266.667,175.219,266.219,175.667,265.667,175.667z M166.667,173.667h98v-43h-98V173.667z"/>
</g>
<g>
	<defs>
		<rect id="SVGID_1_" x="8.667" y="45.667" width="141" height="122"/>
	</defs>
	<clipPath id="SVGID_2_">
		<use xlink:href="#SVGID_1_"  overflow="visible"/>
	</clipPath>
	<rect x="-0.333" y="25.667" clip-path="url(#SVGID_2_)" fill="#E6E6E6" width="162" height="164"/>
	<polygon clip-path="url(#SVGID_2_)" fill="#FFFFFF" points="59.583,95.627 218.667,1.194 218.667,-5.578 56.648,90.379 	"/>
	<polygon clip-path="url(#SVGID_2_)" fill="#FFFFFF" points="59.667,108.513 66.268,110.133 66.822,107.615 59.667,106.078 	"/>
	<path clip-path="url(#SVGID_2_)" fill="#FFFFFF" d="M24.766,101.633c0,10.169,8.244,18.413,18.414,18.413
		c10.172,0,18.415-8.244,18.415-18.413c0-10.172-8.243-18.416-18.415-18.416C33.01,83.217,24.766,91.461,24.766,101.633z
		 M56.593,101.815c0,7.407-6.006,13.412-13.413,13.412s-13.41-6.005-13.41-13.412c0-7.409,6.003-13.411,13.41-13.411
		S56.593,94.406,56.593,101.815z"/>
	<circle clip-path="url(#SVGID_2_)" fill="#CDDC39" cx="43.18" cy="101.739" r="10.598"/>
	<polygon clip-path="url(#SVGID_2_)" fill="#FFFFFF" points="50.549,84.807 52.27,77.325 49.727,76.973 48.226,84.002 	"/>
	<polygon clip-path="url(#SVGID_2_)" fill="#FFFFFF" points="28.668,72.317 67.146,81.312 69.531,83.217 71.693,81.938 67.955,79.3 
		27.078,69.67 	"/>
	<path clip-path="url(#SVGID_2_)" fill="#FFFFFF" d="M37.731,84.038c0,0-1.762-0.186-2.928-1.984C33.64,80.253,2.63,28.5,2.63,28.5
		l0.693,11.324l27.46,46.25c0,0,0.893,1.062,0,1.939L37.731,84.038z"/>
	<polygon clip-path="url(#SVGID_2_)" fill="#FFFFFF" points="26.874,94.543 4.667,88.014 4.667,90.941 26.351,96.898 	"/>
	<polygon clip-path="url(#SVGID_2_)" fill="#FFFFFF" points="0.667,123.2 26.679,106.819 28.12,109.358 0.667,125.658 	"/>
	<polygon clip-path="url(#SVGID_2_)" fill="#FFFFFF" points="0.667,127.579 27.545,110.646 28.895,113.11 0.667,129.924 	"/>
	<polygon clip-path="url(#SVGID_2_)" fill="#FFFFFF" points="3.374,155.819 24.008,74.666 22.286,71.762 3.324,147.776 	"/>
	<polygon clip-path="url(#SVGID_2_)" fill="#FFFFFF" points="18.295,187.667 36.817,116.667 39.145,116.667 20.18,187.667 	"/>
	<polygon clip-path="url(#SVGID_2_)" fill="#FFFFFF" points="90.791,187.667 76.292,163.753 50.28,118.68 52.442,117.675 
		94.178,187.667 	"/>
	<polygon clip-path="url(#SVGID_2_)" fill="#FFFFFF" points="55.252,115.411 53.145,116.827 95.553,187.667 98.625,187.667 	"/>
	<polygon clip-path="url(#SVGID_2_)" fill="#FFFFFF" points="68.361,110.133 219.648,149.082 219.698,144.848 69.284,106.078 	"/>
	<polygon clip-path="url(#SVGID_2_)" fill="#FFFFFF" points="218.667,139.203 160.022,36.158 158.78,37.043 200.834,110.311 
		157.206,38.086 155.441,39.147 218.188,144.596 218.667,144.848 	"/>
	<polygon clip-path="url(#SVGID_2_)" fill="#FFFFFF" points="48.667,74.857 48.667,72.739 73.326,-25.052 86.979,-76.908 
		89.151,-75.426 49.899,75.42 	"/>
	<polygon clip-path="url(#SVGID_2_)" fill="#FFFFFF" points="51.983,76.126 50.28,75.703 89.733,-75.351 91.11,-72.666 	"/>
	<path clip-path="url(#SVGID_2_)" fill="#FFFFFF" d="M25.782,66.902l5.027-17.57l1.88-2.665h2.857l18.263,4.293l0.549-2.211
		l-17.223-4.564c0,0-3.283-0.856-1.271-2.548c2.008-1.697,23.814-13.843,23.814-13.843l0.734-2.89l-27.83,15.927l5.148-20.164h0.779
		l20.002,4.552c0,0,1.919-0.181,2.433-2.196l-22.542-5.635l6.032-22.912l12.983-48.5l-2.717-0.752L36.18,16.334L23.732,63.682"/>
	
		<line clip-path="url(#SVGID_2_)" fill="none" stroke="#FFFFFF" stroke-width="5" stroke-miterlimit="10" x1="14.799" y1="121.209" x2="60.945" y2="132.853"/>
	
		<line clip-path="url(#SVGID_2_)" fill="none" stroke="#FFFFFF" stroke-width="5" stroke-miterlimit="10" x1="22" y1="188.309" x2="37.731" y2="126.997"/>
	
		<line clip-path="url(#SVGID_2_)" fill="none" stroke="#FFFFFF" stroke-width="5" stroke-miterlimit="10" x1="3.374" y1="171.799" x2="73.499" y2="189.581"/>
	
		<line clip-path="url(#SVGID_2_)" fill="none" stroke="#FFFFFF" stroke-width="5" stroke-miterlimit="10" x1="48.458" y1="188.309" x2="73.499" y2="84.754"/>
	
		<line clip-path="url(#SVGID_2_)" fill="none" stroke="#FFFFFF" stroke-width="5" stroke-miterlimit="10" x1="2.63" y1="144.282" x2="78.725" y2="163.758"/>
	
		<line clip-path="url(#SVGID_2_)" fill="none" stroke="#FFFFFF" stroke-width="5" stroke-miterlimit="10" x1="75.882" y1="189.581" x2="94.178" y2="115.731"/>
	
		<line clip-path="url(#SVGID_2_)" fill="none" stroke="#FFFFFF" stroke-width="5" stroke-miterlimit="10" x1="85.03" y1="166.933" x2="168.049" y2="187.465"/>
	
		<line clip-path="url(#SVGID_2_)" fill="none" stroke="#FFFFFF" stroke-width="5" stroke-miterlimit="10" x1="130.162" y1="189.581" x2="145.449" y2="129.924"/>
	
		<line clip-path="url(#SVGID_2_)" fill="none" stroke="#FFFFFF" stroke-width="5" stroke-miterlimit="10" x1="102.645" y1="187.465" x2="119.393" y2="123.2"/>
	
		<line clip-path="url(#SVGID_2_)" fill="none" stroke="#FFFFFF" stroke-width="5" stroke-miterlimit="10" x1="157.678" y1="189.581" x2="184.175" y2="85.586"/>
	
		<line clip-path="url(#SVGID_2_)" fill="none" stroke="#FFFFFF" stroke-width="5" stroke-miterlimit="10" x1="2.63" y1="92.455" x2="16.491" y2="96.898"/>
	
		<line clip-path="url(#SVGID_2_)" fill="none" stroke="#FFFFFF" stroke-width="5" stroke-miterlimit="10" x1="23.732" y1="70.411" x2="2.63" y2="64.062"/>
	
		<line clip-path="url(#SVGID_2_)" fill="none" stroke="#FFFFFF" stroke-width="5" stroke-miterlimit="10" x1="3.324" y1="36.158" x2="184.175" y2="82.555"/>
	
		<line clip-path="url(#SVGID_2_)" fill="none" stroke="#FFFFFF" stroke-width="5" stroke-miterlimit="10" x1="75.882" y1="79.461" x2="107.374" y2="-43.394"/>
	
		<line clip-path="url(#SVGID_2_)" fill="none" stroke="#FFFFFF" stroke-width="5" stroke-miterlimit="10" x1="95.295" y1="112.691" x2="107.374" y2="66.902"/>
	
		<line clip-path="url(#SVGID_2_)" fill="none" stroke="#FFFFFF" stroke-width="5" stroke-miterlimit="10" x1="120.637" y1="120.046" x2="126.541" y2="95.627"/>
	
		<line clip-path="url(#SVGID_2_)" fill="none" stroke="#FFFFFF" stroke-width="5" stroke-miterlimit="10" x1="126.541" y1="95.627" x2="140.534" y2="28.5"/>
	
		<line clip-path="url(#SVGID_2_)" fill="none" stroke="#FFFFFF" stroke-width="5" stroke-miterlimit="10" x1="145.449" y1="127.032" x2="162.901" y2="51.53"/>
	
		<line clip-path="url(#SVGID_2_)" fill="none" stroke="#FFFFFF" stroke-width="5" stroke-miterlimit="10" x1="162.901" y1="51.53" x2="2.63" y2="9.379"/>
	
		<line clip-path="url(#SVGID_2_)" fill="none" stroke="#FFFFFF" stroke-width="5" stroke-miterlimit="10" x1="107.374" y1="61.59" x2="126.541" y2="-13.197"/>
</g>
<path fill="#F2F2F2" d="M183.667,49.837c0,1.011-0.819,1.829-1.83,1.829h-4.34c-1.012,0-1.83-0.818-1.83-1.829v-4.342
	c0-1.011,0.818-1.829,1.83-1.829h4.34c1.011,0,1.83,0.818,1.83,1.829V49.837z"/>
<path fill="#F2F2F2" d="M183.667,64.837c0,1.011-0.819,1.829-1.83,1.829h-4.34c-1.012,0-1.83-0.818-1.83-1.829v-4.342
	c0-1.011,0.818-1.829,1.83-1.829h4.34c1.011,0,1.83,0.818,1.83,1.829V64.837z"/>
<g>
	<g>
		<path fill="#6889FF" d="M179.351,65.37l-2.841-3.654c-0.232-0.301-0.178-0.732,0.121-0.966c0.301-0.233,0.732-0.179,0.965,0.121
			l2.225,2.862l2.809-4.686c0.195-0.326,0.617-0.431,0.942-0.236c0.325,0.195,0.431,0.617,0.236,0.942l-3.325,5.548L179.351,65.37z"
			/>
	</g>
</g>
<path fill="#F2F2F2" d="M183.667,79.837c0,1.011-0.819,1.829-1.83,1.829h-4.34c-1.012,0-1.83-0.818-1.83-1.829v-4.342
	c0-1.011,0.818-1.829,1.83-1.829h4.34c1.011,0,1.83,0.818,1.83,1.829V79.837z"/>
<path fill="#F2F2F2" d="M183.667,94.837c0,1.011-0.819,1.829-1.83,1.829h-4.34c-1.012,0-1.83-0.818-1.83-1.829v-4.342
	c0-1.011,0.818-1.829,1.83-1.829h4.34c1.011,0,1.83,0.818,1.83,1.829V94.837z"/>
<path fill="#F2F2F2" d="M183.667,109.837c0,1.011-0.819,1.829-1.83,1.829h-4.34c-1.012,0-1.83-0.818-1.83-1.829v-4.342
	c0-1.011,0.818-1.829,1.83-1.829h4.34c1.011,0,1.83,0.818,1.83,1.829V109.837z"/>
<g>
	<g>
		<path fill="#6889FF" d="M179.351,110.37l-2.841-3.654c-0.232-0.301-0.178-0.732,0.121-0.966c0.301-0.233,0.732-0.179,0.965,0.121
			l2.225,2.862l2.809-4.686c0.195-0.326,0.617-0.431,0.942-0.236c0.325,0.195,0.431,0.617,0.236,0.942l-3.325,5.548L179.351,110.37z
			"/>
	</g>
</g>
<rect x="8.667" y="7.667" fill="#F2F2F2" width="141" height="15"/>
<rect x="172.667" y="137.667" fill="#F2F2F2" width="87" height="29"/>
<rect x="175.667" y="10.667" fill="#F2F2F2" width="84" height="7"/>
<rect x="186.667" y="44.667" fill="#F2F2F2" width="73" height="5"/>
<rect x="186.667" y="59.667" fill="#F2F2F2" width="73" height="5"/>
<rect x="186.667" y="74.667" fill="#F2F2F2" width="73" height="5"/>
<rect x="186.667" y="89.667" fill="#F2F2F2" width="73" height="5"/>
<rect x="186.667" y="104.667" fill="#F2F2F2" width="73" height="5"/>
<g>
	<g>
		<path fill="#6889FF" d="M137.473,17.085c-1.805,0-3.271-1.468-3.271-3.272c0-1.801,1.467-3.268,3.271-3.268
			c1.804,0,3.27,1.467,3.27,3.268C140.743,15.618,139.277,17.085,137.473,17.085z M137.473,11.464c-1.297,0-2.352,1.054-2.352,2.349
			c0,1.297,1.055,2.351,2.352,2.351c1.295,0,2.35-1.054,2.35-2.351C139.823,12.518,138.768,11.464,137.473,11.464z"/>
	</g>
	<g>
		<path fill="#6889FF" d="M142.67,19.472c-0.119,0-0.235-0.045-0.326-0.134l-3.045-3.048c-0.182-0.181-0.182-0.471,0-0.651
			c0.179-0.18,0.469-0.18,0.65,0l3.046,3.048c0.181,0.18,0.181,0.47,0,0.651C142.907,19.427,142.789,19.472,142.67,19.472z"/>
	</g>
</g>
</svg>
