<?xml version="1.0" encoding="utf-8"?>
<!-- Generator: Adobe Illustrator 15.0.0, SVG Export Plug-In . SVG Version: 6.00 Build 0)  -->
<!DOCTYPE svg PUBLIC "-//W3C//DTD SVG 1.1//EN" "http://www.w3.org/Graphics/SVG/1.1/DTD/svg11.dtd">
<svg version="1.1" id="Layer_1" xmlns="http://www.w3.org/2000/svg" xmlns:xlink="http://www.w3.org/1999/xlink" x="0px" y="0px"
	 width="364.167px" height="170px" viewBox="0 0 364.167 170" enable-background="new 0 0 364.167 170" xml:space="preserve">
<line fill="none" stroke="#E6E6E6" stroke-width="3" stroke-miterlimit="10" x1="2650.5" y1="-21.333" x2="2680.5" y2="-21.333"/>
<line fill="none" stroke="#E6E6E6" stroke-width="3" stroke-miterlimit="10" x1="2601.5" y1="-69.983" x2="2641" y2="-22.414"/>
<line fill="none" stroke="#E6E6E6" stroke-width="3" stroke-miterlimit="10" x1="2601.5" y1="29.586" x2="2641" y2="-22.414"/>
<rect x="2681" y="-74.333" fill="none" stroke="#CDDC39" stroke-width="3" stroke-linecap="round" stroke-linejoin="round" stroke-miterlimit="10" width="152" height="135"/>
<rect x="2479.5" y="-83.833" fill="none" stroke="#B3B3B3" stroke-width="2" stroke-linecap="round" stroke-linejoin="round" stroke-miterlimit="10" width="122" height="26"/>
<rect x="2479.5" y="-22.833" fill="none" stroke="#B3B3B3" stroke-width="2" stroke-linecap="round" stroke-linejoin="round" stroke-miterlimit="10" width="122" height="100"/>
<g>
	<defs>
		<rect id="SVGID_1_" x="2687.5" y="-68.833" width="141" height="122"/>
	</defs>
	<clipPath id="SVGID_2_">
		<use xlink:href="#SVGID_1_"  overflow="visible"/>
	</clipPath>
	<rect x="2678.5" y="-88.833" clip-path="url(#SVGID_2_)" fill="#E6E6E6" width="162" height="164"/>
	<polygon clip-path="url(#SVGID_2_)" fill="#FFFFFF" points="2738.166,-18.171 2897.5,-112.605 2897.5,-119.376 2735.355,-23.419 	
		"/>
	<polygon clip-path="url(#SVGID_2_)" fill="#FFFFFF" points="2738.5,-5.286 2744.852,-3.666 2745.529,-6.184 2738.5,-7.721 	"/>
	<path clip-path="url(#SVGID_2_)" fill="#FFFFFF" d="M2703.1-12.166c0,10.169,8.244,18.413,18.414,18.413
		c10.172,0,18.414-8.244,18.414-18.413c0-10.172-8.242-18.416-18.414-18.416C2711.344-30.582,2703.1-22.337,2703.1-12.166z
		 M2734.926-11.984c0,7.407-6.006,13.412-13.412,13.412c-7.408,0-13.41-6.005-13.41-13.412c0-7.409,6.002-13.411,13.41-13.411
		C2728.92-25.395,2734.926-19.393,2734.926-11.984z"/>
	<circle clip-path="url(#SVGID_2_)" fill="#FFFFFF" cx="2721.514" cy="-12.06" r="10.598"/>
	<polygon clip-path="url(#SVGID_2_)" fill="#FFFFFF" points="2728.883,-28.992 2730.604,-36.474 2728.061,-36.826 2726.559,-29.796 
			"/>
	<polygon clip-path="url(#SVGID_2_)" fill="#FFFFFF" points="2707.002,-41.482 2745.479,-32.487 2747.863,-30.582 2750.025,-31.861 
		2746.287,-34.499 2705.41,-44.128 	"/>
	<path clip-path="url(#SVGID_2_)" fill="#FFFFFF" d="M2716.064-29.761c0,0-1.762-0.186-2.928-1.984
		c-1.164-1.8-32.174-53.553-32.174-53.553l0.693,11.324l27.461,46.25c0,0,0.893,1.062,0,1.939L2716.064-29.761z"/>
	<polygon clip-path="url(#SVGID_2_)" fill="#FFFFFF" points="2705.457,-19.255 2683.5,-25.785 2683.5,-22.858 2705.059,-16.901 	"/>
	<polygon clip-path="url(#SVGID_2_)" fill="#FFFFFF" points="2679.5,9.401 2705.262,-6.98 2706.828,-4.441 2679.5,11.859 	"/>
	<polygon clip-path="url(#SVGID_2_)" fill="#FFFFFF" points="2679.5,13.78 2706.129,-3.153 2707.604,-0.689 2679.5,16.125 	"/>
	<polygon clip-path="url(#SVGID_2_)" fill="#FFFFFF" points="2681.707,42.02 2702.342,-39.133 2700.619,-42.037 2681.656,33.977 	
		"/>
	<polygon clip-path="url(#SVGID_2_)" fill="#FFFFFF" points="2696.629,73.167 2715.15,2.167 2717.479,2.167 2698.514,73.167 	"/>
	<polygon clip-path="url(#SVGID_2_)" fill="#FFFFFF" points="2769.123,73.167 2754.625,49.604 2728.613,4.706 2730.775,3.438 
		2772.512,73.167 	"/>
	<polygon clip-path="url(#SVGID_2_)" fill="#FFFFFF" points="2733.584,1.261 2731.479,2.502 2773.887,73.167 2776.959,73.167 	"/>
	<polygon clip-path="url(#SVGID_2_)" fill="#FFFFFF" points="2746.693,-3.666 2897.98,35.283 2898.031,31.049 2747.617,-7.721 	"/>
	<polygon clip-path="url(#SVGID_2_)" fill="#FFFFFF" points="2897.5,25.404 2838.605,-77.641 2837.238,-76.755 2879.23,-3.488 
		2835.57,-75.712 2833.789,-74.652 2896.779,30.797 2897.5,31.049 	"/>
	<polygon clip-path="url(#SVGID_2_)" fill="#FFFFFF" points="2727.5,-38.942 2727.5,-41.06 2751.908,-138.851 2765.438,-190.707 
		2767.547,-189.225 2728.514,-38.378 	"/>
	<polygon clip-path="url(#SVGID_2_)" fill="#FFFFFF" points="2730.316,-37.672 2728.613,-38.096 2768.066,-189.15 
		2769.443,-186.464 	"/>
	<path clip-path="url(#SVGID_2_)" fill="#FFFFFF" d="M2704.115-46.897l5.027-17.921l1.879-3.016h2.857l18.264,4.644l0.549-2.036
		l-17.223-4.477c0,0-3.283-0.812-1.271-2.504c2.008-1.697,23.814-13.821,23.814-13.821l0.734-2.878l-27.83,15.581l5.148-20.509
		h0.779l20.002,4.902c0,0,1.918-0.005,2.432-2.021l-22.541-5.547l6.031-22.868l12.984-48.478l-2.717-0.74l-18.521,71.116
		l-12.449,47.351"/>
	
		<line clip-path="url(#SVGID_2_)" fill="none" stroke="#FFFFFF" stroke-width="5" stroke-miterlimit="10" x1="2693.133" y1="7.411" x2="2739.277" y2="19.054"/>
	
		<line clip-path="url(#SVGID_2_)" fill="none" stroke="#FFFFFF" stroke-width="5" stroke-miterlimit="10" x1="2700.332" y1="74.51" x2="2716.064" y2="13.198"/>
	
		<line clip-path="url(#SVGID_2_)" fill="none" stroke="#FFFFFF" stroke-width="5" stroke-miterlimit="10" x1="2681.707" y1="58" x2="2751.832" y2="75.782"/>
	
		<line clip-path="url(#SVGID_2_)" fill="none" stroke="#FFFFFF" stroke-width="5" stroke-miterlimit="10" x1="2726.791" y1="74.51" x2="2751.832" y2="-29.044"/>
	
		<line clip-path="url(#SVGID_2_)" fill="none" stroke="#FFFFFF" stroke-width="5" stroke-miterlimit="10" x1="2680.963" y1="30.483" x2="2757.059" y2="49.959"/>
	
		<line clip-path="url(#SVGID_2_)" fill="none" stroke="#FFFFFF" stroke-width="5" stroke-miterlimit="10" x1="2754.215" y1="75.782" x2="2772.512" y2="1.932"/>
	
		<line clip-path="url(#SVGID_2_)" fill="none" stroke="#FFFFFF" stroke-width="5" stroke-miterlimit="10" x1="2763.363" y1="53.134" x2="2846.383" y2="73.667"/>
	
		<line clip-path="url(#SVGID_2_)" fill="none" stroke="#FFFFFF" stroke-width="5" stroke-miterlimit="10" x1="2808.494" y1="75.782" x2="2823.781" y2="16.125"/>
	
		<line clip-path="url(#SVGID_2_)" fill="none" stroke="#FFFFFF" stroke-width="5" stroke-miterlimit="10" x1="2780.979" y1="73.667" x2="2797.727" y2="9.401"/>
	
		<line clip-path="url(#SVGID_2_)" fill="none" stroke="#FFFFFF" stroke-width="5" stroke-miterlimit="10" x1="2836.012" y1="75.782" x2="2862.508" y2="-28.212"/>
	
		<line clip-path="url(#SVGID_2_)" fill="none" stroke="#FFFFFF" stroke-width="5" stroke-miterlimit="10" x1="2680.963" y1="-21.344" x2="2694.824" y2="-16.901"/>
	
		<line clip-path="url(#SVGID_2_)" fill="none" stroke="#FFFFFF" stroke-width="5" stroke-miterlimit="10" x1="2702.064" y1="-43.388" x2="2680.963" y2="-49.737"/>
	
		<line clip-path="url(#SVGID_2_)" fill="none" stroke="#FFFFFF" stroke-width="5" stroke-miterlimit="10" x1="2681.656" y1="-77.641" x2="2862.508" y2="-31.244"/>
	
		<line clip-path="url(#SVGID_2_)" fill="none" stroke="#FFFFFF" stroke-width="5" stroke-miterlimit="10" x1="2754.215" y1="-34.337" x2="2785.707" y2="-157.193"/>
	
		<line clip-path="url(#SVGID_2_)" fill="none" stroke="#FFFFFF" stroke-width="5" stroke-miterlimit="10" x1="2773.629" y1="-1.108" x2="2785.707" y2="-46.897"/>
	
		<line clip-path="url(#SVGID_2_)" fill="none" stroke="#FFFFFF" stroke-width="5" stroke-miterlimit="10" x1="2798.971" y1="6.248" x2="2804.873" y2="-18.171"/>
	
		<line clip-path="url(#SVGID_2_)" fill="none" stroke="#FFFFFF" stroke-width="5" stroke-miterlimit="10" x1="2804.873" y1="-18.171" x2="2818.867" y2="-85.298"/>
	
		<line clip-path="url(#SVGID_2_)" fill="none" stroke="#FFFFFF" stroke-width="5" stroke-miterlimit="10" x1="2823.781" y1="13.233" x2="2841.234" y2="-62.269"/>
	
		<line clip-path="url(#SVGID_2_)" fill="none" stroke="#FFFFFF" stroke-width="5" stroke-miterlimit="10" x1="2841.234" y1="-62.269" x2="2680.963" y2="-104.419"/>
	
		<line clip-path="url(#SVGID_2_)" fill="none" stroke="#FFFFFF" stroke-width="5" stroke-miterlimit="10" x1="2785.707" y1="-52.208" x2="2804.873" y2="-126.996"/>
</g>
<path fill="#F2F2F2" d="M2498.5-7.056c0,1.228-0.996,2.223-2.225,2.223h-4.551c-1.229,0-2.225-0.995-2.225-2.223v-4.555
	c0-1.228,0.996-2.223,2.225-2.223h4.551c1.229,0,2.225,0.995,2.225,2.223V-7.056z"/>
<path fill="#F2F2F2" d="M2498.5,10.944c0,1.228-0.996,2.223-2.225,2.223h-4.551c-1.229,0-2.225-0.995-2.225-2.223V6.389
	c0-1.228,0.996-2.223,2.225-2.223h4.551c1.229,0,2.225,0.995,2.225,2.223V10.944z"/>
<g>
	<g>
		<path fill="#6889FF" d="M2493.576,13.004l-3.451-4.441c-0.282-0.365-0.216-0.891,0.146-1.174c0.365-0.284,0.891-0.218,1.174,0.147
			l2.703,3.479l3.412-5.695c0.238-0.396,0.751-0.523,1.145-0.287c0.396,0.236,0.525,0.75,0.288,1.145l-4.04,6.742L2493.576,13.004z"
			/>
	</g>
</g>
<path fill="#F2F2F2" d="M2498.5,28.944c0,1.228-0.996,2.223-2.225,2.223h-4.551c-1.229,0-2.225-0.995-2.225-2.223v-4.555
	c0-1.228,0.996-2.223,2.225-2.223h4.551c1.229,0,2.225,0.995,2.225,2.223V28.944z"/>
<path fill="#F2F2F2" d="M2498.5,47.944c0,1.228-0.996,2.223-2.225,2.223h-4.551c-1.229,0-2.225-0.995-2.225-2.223v-4.555
	c0-1.228,0.996-2.223,2.225-2.223h4.551c1.229,0,2.225,0.995,2.225,2.223V47.944z"/>
<path fill="#F2F2F2" d="M2498.5,64.944c0,1.228-0.996,2.223-2.225,2.223h-4.551c-1.229,0-2.225-0.995-2.225-2.223v-4.555
	c0-1.228,0.996-2.223,2.225-2.223h4.551c1.229,0,2.225,0.995,2.225,2.223V64.944z"/>
<g>
	<g>
		<path fill="#6889FF" d="M2493.576,67.695l-3.451-4.442c-0.282-0.365-0.216-0.89,0.146-1.174c0.365-0.283,0.891-0.217,1.174,0.147
			l2.703,3.479l3.412-5.695c0.238-0.396,0.751-0.523,1.145-0.287c0.396,0.236,0.525,0.75,0.288,1.146l-4.04,6.742L2493.576,67.695z"
			/>
	</g>
</g>
<rect x="2485.5" y="-78.833" fill="#F2F2F2" width="111" height="15"/>
<rect x="2503.5" y="-12.833" fill="#F2F2F2" width="88" height="7"/>
<rect x="2503.5" y="5.167" fill="#F2F2F2" width="88" height="6"/>
<rect x="2503.5" y="23.167" fill="#F2F2F2" width="88" height="7"/>
<rect x="2503.5" y="42.167" fill="#F2F2F2" width="88" height="6"/>
<rect x="2503.5" y="59.167" fill="#F2F2F2" width="88" height="7"/>
<g>
	<g>
		<path fill="#6889FF" d="M2583.807-68.713c-1.805,0-3.271-1.468-3.271-3.272c0-1.801,1.467-3.268,3.271-3.268
			c1.803,0,3.27,1.467,3.27,3.268C2587.076-70.181,2585.609-68.713,2583.807-68.713z M2583.807-74.334
			c-1.297,0-2.352,1.054-2.352,2.349c0,1.297,1.055,2.351,2.352,2.351c1.295,0,2.35-1.054,2.35-2.351
			C2586.156-73.281,2585.102-74.334,2583.807-74.334z"/>
	</g>
	<g>
		<path fill="#6889FF" d="M2589.004-66.327c-0.119,0-0.236-0.045-0.326-0.134l-3.045-3.048c-0.182-0.181-0.182-0.471,0-0.651
			c0.178-0.18,0.469-0.18,0.65,0l3.045,3.048c0.182,0.18,0.182,0.47,0,0.651C2589.24-66.372,2589.121-66.327,2589.004-66.327z"/>
	</g>
</g>
<circle fill="#CDDC39" cx="2641.32" cy="-20.92" r="18.661"/>
<g transform="translate(0,-952.36218)">
	<g transform="translate(20.998031,959.86021)">
		<path fill="#E6E6E6" d="M2620.051-48.925c-11.327,0-20.507,9.181-20.507,20.506s9.18,20.507,20.507,20.507
			c11.323,0,20.504-9.182,20.504-20.507S2631.374-48.925,2620.051-48.925L2620.051-48.925z M2619.715-39.161h5.463
			c0.721,0.211,1.184,0.715,0.777,1.557l-4.686,6.255h3.419c0.693,0.005,1.192,0.909,0.824,1.496l-7.323,11.717
			c-0.532,0.833-2.032,0.371-1.755-0.837l2.502-7.491h-4.014c-0.655-0.002-1.161-0.796-0.884-1.39l4.883-10.741
			C2619.062-38.904,2619.377-39.128,2619.715-39.161L2619.715-39.161z"/>
	</g>
</g>
<g>
	<rect x="177.5" y="64.167" fill="#E6E6E6" width="30" height="3"/>
</g>
<g>
	
		<rect x="117.334" y="38.882" transform="matrix(0.6388 0.7693 -0.7693 0.6388 84.6103 -99.4711)" fill="#E6E6E6" width="61.832" height="3"/>
</g>
<g>
	
		<rect x="146.75" y="57.516" transform="matrix(0.7963 0.6049 -0.6049 0.7963 84.737 -71.3084)" fill="#E6E6E6" width="3" height="65.301"/>
</g>
<g>
	<path fill="#CDDC39" d="M360,149.167H208c-0.829,0-1.5-0.672-1.5-1.5v-135c0-0.829,0.671-1.5,1.5-1.5h152
		c0.828,0,1.5,0.671,1.5,1.5v135C361.5,148.495,360.828,149.167,360,149.167z M209.5,146.167h149v-132h-149V146.167z"/>
</g>
<g>
	<path fill="#B3B3B3" d="M128.5,30.167H6.5c-0.552,0-1-0.448-1-1v-26c0-0.552,0.448-1,1-1h122c0.552,0,1,0.448,1,1v26
		C129.5,29.719,129.052,30.167,128.5,30.167z M7.5,28.167h120v-24H7.5V28.167z"/>
</g>
<g>
	<path fill="#B3B3B3" d="M128.5,165.167H6.5c-0.552,0-1-0.447-1-1v-100c0-0.553,0.448-1,1-1h122c0.552,0,1,0.447,1,1v100
		C129.5,164.719,129.052,165.167,128.5,165.167z M7.5,163.167h120v-98H7.5V163.167z"/>
</g>
<g>
	<defs>
		<rect id="SVGID_3_" x="214.5" y="18.167" width="141" height="122"/>
	</defs>
	<clipPath id="SVGID_4_">
		<use xlink:href="#SVGID_3_"  overflow="visible"/>
	</clipPath>
	<rect x="205.5" y="-1.833" clip-path="url(#SVGID_4_)" fill="#E6E6E6" width="162" height="164"/>
	<polygon clip-path="url(#SVGID_4_)" fill="#FFFFFF" points="265.166,68.409 424.5,-26.025 424.5,-32.796 262.355,63.161 	"/>
	<polygon clip-path="url(#SVGID_4_)" fill="#FFFFFF" points="265.5,81.294 271.852,82.915 272.529,80.396 265.5,78.859 	"/>
	<path clip-path="url(#SVGID_4_)" fill="#FFFFFF" d="M230.1,74.415c0,10.169,8.244,18.413,18.414,18.413
		c10.172,0,18.414-8.244,18.414-18.413c0-10.172-8.242-18.416-18.414-18.416C238.344,55.999,230.1,64.243,230.1,74.415z
		 M261.926,74.596c0,7.407-6.006,13.412-13.412,13.412c-7.408,0-13.41-6.005-13.41-13.412c0-7.409,6.002-13.411,13.41-13.411
		C255.92,61.185,261.926,67.187,261.926,74.596z"/>
	<circle clip-path="url(#SVGID_4_)" fill="#FFFFFF" cx="248.514" cy="74.52" r="10.598"/>
	<polygon clip-path="url(#SVGID_4_)" fill="#FFFFFF" points="255.883,57.588 257.604,50.106 255.061,49.754 253.559,56.784 	"/>
	<polygon clip-path="url(#SVGID_4_)" fill="#FFFFFF" points="234.002,45.098 272.479,54.093 274.863,55.999 277.025,54.719 
		273.287,52.082 232.41,42.452 	"/>
	<path clip-path="url(#SVGID_4_)" fill="#FFFFFF" d="M243.064,56.819c0,0-1.762-0.186-2.928-1.984
		c-1.164-1.8-32.174-53.553-32.174-53.553l0.693,11.324l27.461,46.25c0,0,0.893,1.062,0,1.939L243.064,56.819z"/>
	<polygon clip-path="url(#SVGID_4_)" fill="#FFFFFF" points="232.457,67.325 210.5,60.795 210.5,63.722 232.059,69.679 	"/>
	<polygon clip-path="url(#SVGID_4_)" fill="#FFFFFF" points="206.5,95.981 232.262,79.6 233.828,82.139 206.5,98.439 	"/>
	<polygon clip-path="url(#SVGID_4_)" fill="#FFFFFF" points="206.5,100.36 233.129,83.427 234.604,85.891 206.5,102.706 	"/>
	<polygon clip-path="url(#SVGID_4_)" fill="#FFFFFF" points="208.707,128.6 229.342,47.447 227.619,44.543 208.656,120.557 	"/>
	<polygon clip-path="url(#SVGID_4_)" fill="#FFFFFF" points="223.629,160.167 242.15,89.167 244.479,89.167 225.514,160.167 	"/>
	<polygon clip-path="url(#SVGID_4_)" fill="#FFFFFF" points="296.123,160.167 281.625,136.394 255.613,91.391 257.775,90.281 
		299.512,160.167 	"/>
	<polygon clip-path="url(#SVGID_4_)" fill="#FFFFFF" points="260.584,88.051 258.479,89.397 300.887,160.167 303.959,160.167 	"/>
	<polygon clip-path="url(#SVGID_4_)" fill="#FFFFFF" points="273.693,82.915 424.98,121.863 425.031,117.629 274.617,78.859 	"/>
	<polygon clip-path="url(#SVGID_4_)" fill="#FFFFFF" points="424.5,111.984 365.605,8.939 364.238,9.825 406.23,83.092 
		362.57,10.868 360.789,11.928 423.779,117.377 424.5,117.629 	"/>
	<polygon clip-path="url(#SVGID_4_)" fill="#FFFFFF" points="254.5,47.638 254.5,45.52 278.908,-52.271 292.438,-104.126 
		294.547,-102.645 255.514,48.202 	"/>
	<polygon clip-path="url(#SVGID_4_)" fill="#FFFFFF" points="257.316,48.908 255.613,48.484 295.066,-102.57 296.443,-99.884 	"/>
	<path clip-path="url(#SVGID_4_)" fill="#FFFFFF" d="M231.115,39.683l5.027-17.711l1.879-2.806h2.857l18.264,4.434l0.549-2.141
		l-17.223-4.529c0,0-3.283-0.839-1.271-2.53c2.008-1.697,23.814-13.834,23.814-13.834l0.734-2.885l-27.83,15.788l5.148-20.303h0.779
		l20.002,4.692c0,0,1.918-0.11,2.432-2.126l-22.541-5.6l6.031-22.895l12.984-48.491L260.035-82l-18.521,71.113l-12.449,47.349"/>
	
		<line clip-path="url(#SVGID_4_)" fill="none" stroke="#FFFFFF" stroke-width="5" stroke-miterlimit="10" x1="220.133" y1="93.991" x2="266.277" y2="105.634"/>
	
		<line clip-path="url(#SVGID_4_)" fill="none" stroke="#FFFFFF" stroke-width="5" stroke-miterlimit="10" x1="227.332" y1="161.09" x2="243.064" y2="99.778"/>
	
		<line clip-path="url(#SVGID_4_)" fill="none" stroke="#FFFFFF" stroke-width="5" stroke-miterlimit="10" x1="208.707" y1="144.581" x2="278.832" y2="162.362"/>
	
		<line clip-path="url(#SVGID_4_)" fill="none" stroke="#FFFFFF" stroke-width="5" stroke-miterlimit="10" x1="253.791" y1="161.09" x2="278.832" y2="57.536"/>
	
		<line clip-path="url(#SVGID_4_)" fill="none" stroke="#FFFFFF" stroke-width="5" stroke-miterlimit="10" x1="207.963" y1="117.063" x2="284.059" y2="136.54"/>
	
		<line clip-path="url(#SVGID_4_)" fill="none" stroke="#FFFFFF" stroke-width="5" stroke-miterlimit="10" x1="281.215" y1="162.362" x2="299.512" y2="88.512"/>
	
		<line clip-path="url(#SVGID_4_)" fill="none" stroke="#FFFFFF" stroke-width="5" stroke-miterlimit="10" x1="290.363" y1="139.714" x2="373.383" y2="160.247"/>
	
		<line clip-path="url(#SVGID_4_)" fill="none" stroke="#FFFFFF" stroke-width="5" stroke-miterlimit="10" x1="335.494" y1="162.362" x2="350.781" y2="102.706"/>
	
		<line clip-path="url(#SVGID_4_)" fill="none" stroke="#FFFFFF" stroke-width="5" stroke-miterlimit="10" x1="307.979" y1="160.247" x2="324.727" y2="95.981"/>
	
		<line clip-path="url(#SVGID_4_)" fill="none" stroke="#FFFFFF" stroke-width="5" stroke-miterlimit="10" x1="363.012" y1="162.362" x2="389.508" y2="58.368"/>
	
		<line clip-path="url(#SVGID_4_)" fill="none" stroke="#FFFFFF" stroke-width="5" stroke-miterlimit="10" x1="207.963" y1="65.236" x2="221.824" y2="69.679"/>
	
		<line clip-path="url(#SVGID_4_)" fill="none" stroke="#FFFFFF" stroke-width="5" stroke-miterlimit="10" x1="229.064" y1="43.192" x2="207.963" y2="36.843"/>
	
		<line clip-path="url(#SVGID_4_)" fill="none" stroke="#FFFFFF" stroke-width="5" stroke-miterlimit="10" x1="208.656" y1="8.939" x2="389.508" y2="55.336"/>
	
		<line clip-path="url(#SVGID_4_)" fill="none" stroke="#FFFFFF" stroke-width="5" stroke-miterlimit="10" x1="281.215" y1="52.243" x2="312.707" y2="-70.613"/>
	
		<line clip-path="url(#SVGID_4_)" fill="none" stroke="#FFFFFF" stroke-width="5" stroke-miterlimit="10" x1="300.629" y1="85.472" x2="312.707" y2="39.683"/>
	
		<line clip-path="url(#SVGID_4_)" fill="none" stroke="#FFFFFF" stroke-width="5" stroke-miterlimit="10" x1="325.971" y1="92.828" x2="331.873" y2="68.409"/>
	
		<line clip-path="url(#SVGID_4_)" fill="none" stroke="#FFFFFF" stroke-width="5" stroke-miterlimit="10" x1="331.873" y1="68.409" x2="345.867" y2="1.282"/>
	
		<line clip-path="url(#SVGID_4_)" fill="none" stroke="#FFFFFF" stroke-width="5" stroke-miterlimit="10" x1="350.781" y1="99.813" x2="368.234" y2="24.311"/>
	
		<line clip-path="url(#SVGID_4_)" fill="none" stroke="#FFFFFF" stroke-width="5" stroke-miterlimit="10" x1="368.234" y1="24.311" x2="207.963" y2="-17.839"/>
	
		<line clip-path="url(#SVGID_4_)" fill="none" stroke="#FFFFFF" stroke-width="5" stroke-miterlimit="10" x1="312.707" y1="34.372" x2="331.873" y2="-40.416"/>
</g>
<g>
	<path fill="#F2F2F2" d="M25.5,79.944c0,1.228-0.996,2.223-2.225,2.223h-4.551c-1.229,0-2.225-0.995-2.225-2.223v-4.555
		c0-1.228,0.996-2.223,2.225-2.223h4.551c1.229,0,2.225,0.995,2.225,2.223V79.944z"/>
</g>
<g>
	<path fill="#F2F2F2" d="M25.5,97.944c0,1.228-0.996,2.223-2.225,2.223h-4.551c-1.229,0-2.225-0.995-2.225-2.223v-4.555
		c0-1.228,0.996-2.223,2.225-2.223h4.551c1.229,0,2.225,0.995,2.225,2.223V97.944z"/>
</g>
<g>
	<g>
		<path fill="#6889FF" d="M20.576,99.584l-3.451-4.441c-0.282-0.365-0.216-0.891,0.146-1.174c0.365-0.284,0.891-0.218,1.174,0.147
			l2.703,3.479l3.412-5.695c0.238-0.396,0.751-0.523,1.145-0.287c0.396,0.236,0.525,0.75,0.288,1.145l-4.04,6.742L20.576,99.584z"/>
	</g>
</g>
<g>
	<path fill="#F2F2F2" d="M25.5,115.944c0,1.228-0.996,2.223-2.225,2.223h-4.551c-1.229,0-2.225-0.995-2.225-2.223v-4.555
		c0-1.228,0.996-2.223,2.225-2.223h4.551c1.229,0,2.225,0.995,2.225,2.223V115.944z"/>
</g>
<g>
	<path fill="#F2F2F2" d="M25.5,134.944c0,1.228-0.996,2.223-2.225,2.223h-4.551c-1.229,0-2.225-0.995-2.225-2.223v-4.555
		c0-1.228,0.996-2.223,2.225-2.223h4.551c1.229,0,2.225,0.995,2.225,2.223V134.944z"/>
</g>
<g>
	<path fill="#F2F2F2" d="M25.5,151.944c0,1.228-0.996,2.223-2.225,2.223h-4.551c-1.229,0-2.225-0.995-2.225-2.223v-4.555
		c0-1.228,0.996-2.223,2.225-2.223h4.551c1.229,0,2.225,0.995,2.225,2.223V151.944z"/>
</g>
<g>
	<g>
		<path fill="#6889FF" d="M20.576,154.275l-3.451-4.442c-0.282-0.365-0.216-0.89,0.146-1.174c0.365-0.283,0.891-0.217,1.174,0.147
			l2.703,3.479l3.412-5.695c0.238-0.396,0.751-0.523,1.145-0.287c0.396,0.236,0.525,0.75,0.288,1.146l-4.04,6.742L20.576,154.275z"
			/>
	</g>
</g>
<g>
	<rect x="12.5" y="8.167" fill="#F2F2F2" width="111" height="15"/>
</g>
<g>
	<rect x="30.5" y="74.167" fill="#F2F2F2" width="88" height="7"/>
</g>
<g>
	<rect x="30.5" y="92.167" fill="#F2F2F2" width="88" height="6"/>
</g>
<g>
	<rect x="30.5" y="110.167" fill="#F2F2F2" width="88" height="7"/>
</g>
<g>
	<rect x="30.5" y="129.167" fill="#F2F2F2" width="88" height="6"/>
</g>
<g>
	<rect x="30.5" y="146.167" fill="#F2F2F2" width="88" height="7"/>
</g>
<g>
	<g>
		<g>
			<path fill="#6889FF" d="M110.807,17.867c-1.805,0-3.271-1.468-3.271-3.272c0-1.801,1.467-3.268,3.271-3.268
				c1.803,0,3.27,1.467,3.27,3.268C114.076,16.399,112.609,17.867,110.807,17.867z M110.807,12.246
				c-1.297,0-2.352,1.054-2.352,2.349c0,1.297,1.055,2.351,2.352,2.351c1.295,0,2.35-1.054,2.35-2.351
				C113.156,13.299,112.102,12.246,110.807,12.246z"/>
		</g>
	</g>
	<g>
		<g>
			<path fill="#6889FF" d="M116.004,20.253c-0.119,0-0.236-0.045-0.326-0.134l-3.045-3.048c-0.182-0.181-0.182-0.471,0-0.651
				c0.178-0.18,0.469-0.18,0.65,0l3.045,3.048c0.182,0.18,0.182,0.47,0,0.651C116.24,20.208,116.121,20.253,116.004,20.253z"/>
		</g>
	</g>
</g>
<g>
	<circle fill="#CDDC39" cx="168.32" cy="65.66" r="18.661"/>
</g>
<g transform="translate(0,-952.36218)">
	<g transform="translate(20.998031,959.86021)">
		<g>
			<path fill="#E6E6E6" d="M147.051,37.655c-11.327,0-20.507,9.182-20.507,20.507s9.18,20.507,20.507,20.507
				c11.323,0,20.504-9.182,20.504-20.507S158.374,37.655,147.051,37.655L147.051,37.655z M146.715,47.419h5.463
				c0.721,0.212,1.184,0.716,0.777,1.558l-4.686,6.254h3.419c0.693,0.006,1.192,0.909,0.824,1.496l-7.323,11.717
				c-0.532,0.834-2.032,0.371-1.755-0.837l2.502-7.491h-4.014c-0.655-0.002-1.161-0.797-0.884-1.39l4.883-10.741
				C146.063,47.676,146.377,47.452,146.715,47.419L146.715,47.419z"/>
		</g>
	</g>
</g>
</svg>
