<svg width="1603" height="625" viewBox="0 0 1603 625" xmlns="http://www.w3.org/2000/svg"><title>bg-integrations</title><g fill="#FFF" fill-rule="evenodd" fill-opacity=".3" opacity="0.2"><path d="M44 300l43.301 25v50L44 400 .699 375v-50z"/><path opacity=".3" d="M44 150l43.301 25v50L44 250 .699 225v-50z"/><path opacity=".2" d="M44 450l43.301 25v50L44 550 .699 525v-50zM87.301 75l43.302 25v50l-43.302 25L44 150v-50z"/><path opacity=".6" d="M87.301 375l43.302 25v50l-43.302 25L44 450v-50z"/><path opacity=".8" d="M87.301 225l43.302 25v50l-43.302 25L44 300v-50z"/><path opacity=".4" d="M87.301 525l43.302 25v50l-43.302 25L44 600v-50z"/><path opacity=".7" d="M130.603 0l43.301 25v50l-43.301 25-43.302-25V25zM130.603 300l43.301 25v50l-43.301 25-43.302-25v-50z"/><path d="M130.603 150l43.301 25v50l-43.301 25-43.302-25v-50z"/><path opacity=".3" d="M173.904 375l43.301 25v50l-43.301 25-43.301-25v-50z"/><path opacity=".4" d="M217.205 0l43.301 25v50l-43.301 25-43.301-25V25z"/><path d="M217.205 300l43.301 25v50l-43.301 25-43.301-25v-50z"/><path opacity=".1" d="M217.205 150l43.301 25v50l-43.301 25-43.301-25v-50z"/><path d="M217.205 450l43.301 25v50l-43.301 25-43.301-25v-50zM260.506 75l43.302 25v50l-43.302 25-43.301-25v-50z"/><path opacity=".2" d="M260.506 375l43.302 25v50l-43.302 25-43.301-25v-50z"/><path opacity=".3" d="M260.506 225l43.302 25v50l-43.302 25-43.301-25v-50zM260.506 525l43.302 25v50l-43.302 25-43.301-25v-50z"/><path opacity=".6" d="M303.808 300l43.301 25v50l-43.301 25-43.302-25v-50z"/><path opacity=".8" d="M303.808 150l43.301 25v50l-43.301 25-43.302-25v-50z"/><path opacity=".4" d="M303.808 450l43.301 25v50l-43.301 25-43.302-25v-50zM347.109 75l43.301 25v50l-43.301 25-43.301-25v-50z"/><path opacity=".7" d="M347.109 375l43.301 25v50l-43.301 25-43.301-25v-50z"/><path d="M347.109 225l43.301 25v50l-43.301 25-43.301-25v-50z"/><path opacity=".1" d="M347.109 525l43.301 25v50l-43.301 25-43.301-25v-50z"/><path opacity=".7" d="M390.41 0l43.301 25v50l-43.301 25-43.301-25V25z"/><path opacity=".4" d="M390.41 300l43.301 25v50l-43.301 25-43.301-25v-50z"/><path opacity=".31" d="M390.41 150l43.301 25v50l-43.301 25-43.301-25v-50z"/><path opacity=".7" d="M390.41 450l43.301 25v50l-43.301 25-43.301-25v-50zM433.711 75l43.302 25v50l-43.302 25-43.301-25v-50z"/><path d="M433.711 375l43.302 25v50l-43.302 25-43.301-25v-50z"/><path opacity=".1" d="M433.711 225l43.302 25v50l-43.302 25-43.301-25v-50z"/><path d="M477.013 0l43.301 25v50l-43.301 25-43.302-25V25z"/><path opacity=".8" d="M477.013 300l43.301 25v50l-43.301 25-43.302-25v-50z"/><path opacity=".4" d="M477.013 150l43.301 25v50l-43.301 25-43.302-25v-50z"/><path d="M477.013 450l43.301 25v50l-43.301 25-43.302-25v-50z"/><path opacity=".7" d="M520.314 375l43.301 25v50l-43.301 25-43.301-25v-50z"/><path opacity=".6" d="M520.314 225l43.301 25v50l-43.301 25-43.301-25v-50z"/><path d="M520.314 525l43.301 25v50l-43.301 25-43.301-25v-50z"/><path opacity=".2" d="M563.615 0l43.302 25v50l-43.302 25-43.301-25V25zM563.615 300l43.302 25v50l-43.302 25-43.301-25v-50zM563.615 150l43.302 25v50l-43.302 25-43.301-25v-50z"/><path opacity=".7" d="M606.917 75l43.301 25v50l-43.301 25-43.302-25v-50zM606.917 375l43.301 25v50l-43.301 25-43.302-25v-50z"/><path opacity=".8" d="M606.917 225l43.301 25v50l-43.301 25-43.302-25v-50z"/><path opacity=".4" d="M606.917 525l43.301 25v50l-43.301 25-43.302-25v-50z"/><path d="M650.218 0l43.301 25v50l-43.301 25-43.301-25V25z"/><path opacity=".5" d="M650.218 300l43.301 25v50l-43.301 25-43.301-25v-50z"/><path d="M650.218 150l43.301 25v50l-43.301 25-43.301-25v-50z"/><path opacity=".8" d="M650.218 450l43.301 25v50l-43.301 25-43.301-25v-50z"/><path opacity=".4" d="M693.519 75l43.301 25v50l-43.301 25-43.301-25v-50z"/><path opacity=".21" d="M693.519 375l43.301 25v50l-43.301 25-43.301-25v-50z"/><path opacity=".1" d="M693.519 225l43.301 25v50l-43.301 25-43.301-25v-50z"/><path opacity=".7" d="M693.519 525l43.301 25v50l-43.301 25-43.301-25v-50zM736.82 150l43.302 25v50l-43.302 25-43.301-25v-50z"/><path opacity=".4" d="M736.82 450l43.302 25v50l-43.302 25-43.301-25v-50z"/><path opacity=".3" d="M780.122 375l43.301 25v50l-43.301 25-43.302-25v-50z"/><path opacity=".7" d="M780.122 225l43.301 25v50l-43.301 25-43.302-25v-50z"/><path opacity=".8" d="M823.423 0l43.301 25v50l-43.301 25-43.301-25V25z"/><path opacity=".3" d="M823.423 300l43.301 25v50l-43.301 25-43.301-25v-50z"/><path opacity=".1" d="M823.423 150l43.301 25v50l-43.301 25-43.301-25v-50z"/><path opacity=".5" d="M823.423 450l43.301 25v50l-43.301 25-43.301-25v-50z"/><path opacity=".8" d="M866.724 75l43.301 25v50l-43.301 25-43.301-25v-50z"/><path opacity=".1" d="M866.724 375l43.301 25v50l-43.301 25-43.301-25v-50zM866.724 225l43.301 25v50l-43.301 25-43.301-25v-50z"/><path d="M910.025 0l43.302 25v50l-43.302 25-43.301-25V25z"/><path opacity=".6" d="M910.025 300l43.302 25v50l-43.302 25-43.301-25v-50z"/><path opacity=".1" d="M910.025 150l43.302 25v50l-43.302 25-43.301-25v-50z"/><path opacity=".6" d="M910.025 450l43.302 25v50l-43.302 25-43.301-25v-50z"/><path opacity=".7" d="M953.327 75l43.303 25v50l-43.303 25-43.302-25v-50z"/><path opacity=".3" d="M953.327 375l43.303 25v50l-43.303 25-43.302-25v-50z"/><path opacity=".4" d="M953.327 225l43.303 25v50l-43.303 25-43.302-25v-50zM953.327 525l43.303 25v50l-43.303 25-43.302-25v-50z"/><path d="M996.63 300l43.3 25v50l-43.3 25-43.303-25v-50zM996.63 150l43.3 25v50l-43.3 25-43.303-25v-50zM996.63 450l43.3 25v50l-43.3 25-43.303-25v-50z"/><path opacity=".6" d="M1039.93 75l43.3 25v50l-43.3 25-43.3-25v-50z"/><path opacity=".8" d="M1039.93 375l43.3 25v50l-43.3 25-43.3-25v-50z"/><path opacity=".7" d="M1039.93 225l43.3 25v50l-43.3 25-43.3-25v-50z"/><path opacity=".3" d="M1039.93 525l43.3 25v50l-43.3 25-43.3-25v-50z"/><path d="M1083.23 0l43.3 25v50l-43.3 25-43.3-25V25z"/><path opacity=".7" d="M1083.23 150l43.3 25v50l-43.3 25-43.3-25v-50zM1083.23 450l43.3 25v50l-43.3 25-43.3-25v-50z"/><path d="M1126.53 75l43.3 25v50l-43.3 25-43.3-25v-50z"/><path opacity=".7" d="M1126.53 375l43.3 25v50l-43.3 25-43.3-25v-50z"/><path d="M1126.53 225l43.3 25v50l-43.3 25-43.3-25v-50z"/><path opacity=".7" d="M1126.53 525l43.3 25v50l-43.3 25-43.3-25v-50zM1169.83 0l43.3 25v50l-43.3 25-43.3-25V25zM1169.83 300l43.3 25v50l-43.3 25-43.3-25v-50z"/><path opacity=".6" d="M1169.83 150l43.3 25v50l-43.3 25-43.3-25v-50z"/><path opacity=".3" d="M1213.13 75l43.31 25v50l-43.31 25-43.3-25v-50z"/><path d="M1213.13 375l43.31 25v50l-43.31 25-43.3-25v-50zM1213.13 225l43.31 25v50l-43.31 25-43.3-25v-50z"/><path opacity=".6" d="M1256.44 300l43.3 25v50l-43.3 25-43.31-25v-50z"/><path opacity=".3" d="M1256.44 150l43.3 25v50l-43.3 25-43.31-25v-50z"/><path opacity=".8" d="M1256.44 450l43.3 25v50l-43.3 25-43.31-25v-50z"/><path d="M1299.74 75l43.3 25v50l-43.3 25-43.3-25v-50zM1299.74 375l43.3 25v50l-43.3 25-43.3-25v-50z"/><path opacity=".2" d="M1299.74 225l43.3 25v50l-43.3 25-43.3-25v-50z"/><path d="M1343.04 0l43.3 25v50l-43.3 25-43.3-25V25z"/><path opacity=".6" d="M1343.04 300l43.3 25v50l-43.3 25-43.3-25v-50z"/><path opacity=".4" d="M1343.04 150l43.3 25v50l-43.3 25-43.3-25v-50z"/><path d="M1343.04 450l43.3 25v50l-43.3 25-43.3-25v-50z"/><path opacity=".3" d="M1386.34 75l43.3 25v50l-43.3 25-43.3-25v-50z"/><path opacity=".4" d="M1386.34 375l43.3 25v50l-43.3 25-43.3-25v-50z"/><path d="M1386.34 225l43.3 25v50l-43.3 25-43.3-25v-50z"/><path opacity=".3" d="M1386.34 525l43.3 25v50l-43.3 25-43.3-25v-50z"/><path d="M1429.64 300l43.3 25v50l-43.3 25-43.3-25v-50z"/><path opacity=".6" d="M1429.64 150l43.3 25v50l-43.3 25-43.3-25v-50z"/><path opacity=".8" d="M1429.64 450l43.3 25v50l-43.3 25-43.3-25v-50z"/><path d="M1472.94 75l43.3 25v50l-43.3 25-43.3-25v-50z"/><path opacity=".3" d="M1472.94 375l43.3 25v50l-43.3 25-43.3-25v-50z"/><path opacity=".7" d="M1472.94 525l43.3 25v50l-43.3 25-43.3-25v-50z"/><path d="M1516.24 300l43.3 25v50l-43.3 25-43.3-25v-50zM1516.24 150l43.3 25v50l-43.3 25-43.3-25v-50zM1516.24 450l43.3 25v50l-43.3 25-43.3-25v-50z"/><path d="M1559.54 375l43.31 25v50l-43.31 25-43.3-25v-50zM1559.54 225l43.31 25v50l-43.31 25-43.3-25v-50z"/><path opacity=".3" d="M1559.54 525l43.31 25v50l-43.31 25-43.3-25v-50z"/></g></svg>