<svg width="1867" height="740" viewBox="0 0 1867 740" xmlns="http://www.w3.org/2000/svg"><title>bg-setup</title><defs><linearGradient x1="3.193%" y1="96.807%" y2="0%" id="a"><stop stop-color="#FFF" stop-opacity=".398" offset="0%"/><stop stop-color="#FFF" stop-opacity=".106" offset="100%"/></linearGradient></defs><g transform="translate(-197 -300)" fill="url(#a)" fill-rule="nonzero" opacity=".2"><path opacity=".2" d="M198 413.569L254.57 357l56.568 56.569-56.569 56.568zM255 470.569L311.57 414l56.568 56.569-56.569 56.568zM255 584.569L311.57 528l56.568 56.569-56.569 56.568z"/><path opacity=".3" d="M198 641.569L254.57 585l56.568 56.569-56.569 56.568z"/><path d="M255 698.569L311.57 642l56.568 56.569-56.569 56.568zM255 812.569L311.57 756l56.568 56.569-56.569 56.568z"/><path opacity=".2" d="M198 869.569L254.57 813l56.568 56.569-56.569 56.568z"/><path opacity=".15" d="M255 926.569L311.57 870l56.568 56.569-56.569 56.568z"/><path opacity=".3" d="M197.931 983.137l56.569-56.569 56.568 56.569-56.568 56.569z"/><path opacity=".15" d="M311 527.569L367.57 471l56.568 56.569-56.569 56.568z"/><path opacity=".9" d="M368 584.569L424.57 528l56.568 56.569-56.569 56.568z"/><path opacity=".4" d="M311 641.569L367.57 585l56.568 56.569-56.569 56.568z"/><path d="M368 698.569L424.57 642l56.568 56.569-56.569 56.568z"/><path opacity=".4" d="M311 755.569L367.57 699l56.568 56.569-56.569 56.568zM368 812.569L424.57 756l56.568 56.569-56.569 56.568z"/><path opacity=".2" d="M311 869.569L367.57 813l56.568 56.569-56.569 56.568z"/><path opacity=".7" d="M368 926.569L424.57 870l56.568 56.569-56.569 56.568z"/><path opacity=".2" d="M310.931 983.137l56.569-56.569 56.568 56.569-56.568 56.569z"/><path opacity=".3" d="M481 356.569L537.57 300l56.568 56.569-56.569 56.568z"/><path opacity=".2" d="M424 413.569L480.57 357l56.568 56.569-56.569 56.568z"/><path opacity=".1" d="M481 470.569L537.57 414l56.568 56.569-56.569 56.568z"/><path d="M424 527.569L480.57 471l56.568 56.569-56.569 56.568z"/><path opacity=".2" d="M481 584.569L537.57 528l56.568 56.569-56.569 56.568z"/><path opacity=".15" d="M424 641.569L480.57 585l56.568 56.569-56.569 56.568z"/><path opacity=".9" d="M425 755.569L481.57 699l56.568 56.569-56.569 56.568z"/><path d="M481 812.569L537.57 756l56.568 56.569-56.569 56.568z"/><path opacity=".4" d="M424 869.569L480.57 813l56.568 56.569-56.569 56.568z"/><path opacity=".15" d="M481 926.569L537.57 870l56.568 56.569-56.569 56.568z"/><path d="M423.931 983.137l56.569-56.569 56.568 56.569-56.568 56.569z"/><path opacity=".15" d="M594 356.569L650.57 300l56.568 56.569-56.569 56.568z"/><path opacity=".4" d="M537 413.569L593.57 357l56.568 56.569-56.569 56.568z"/><path opacity=".25" d="M594 470.569L650.57 414l56.568 56.569-56.569 56.568z"/><path opacity=".15" d="M537 527.569L593.57 471l56.568 56.569-56.569 56.568z"/><path d="M594 584.569L650.57 528l56.568 56.569-56.569 56.568z"/><path opacity=".3" d="M538 641.569L594.57 585l56.568 56.569-56.569 56.568z"/><path opacity=".4" d="M594 698.569L650.57 642l56.568 56.569-56.569 56.568z"/><path opacity=".2" d="M537 755.569L593.57 699l56.568 56.569-56.569 56.568z"/><path d="M594 812.569L650.57 756l56.568 56.569-56.569 56.568z"/><path opacity=".4" d="M538 869.569L594.57 813l56.568 56.569-56.569 56.568z"/><path opacity=".25" d="M707 356.569L763.57 300l56.568 56.569-56.569 56.568z"/><path opacity=".15" d="M650 413.569L706.57 357l56.568 56.569-56.569 56.568z"/><path opacity=".2" d="M707 470.569L763.57 414l56.568 56.569-56.569 56.568z"/><path opacity=".7" d="M650 527.569L706.57 471l56.568 56.569-56.569 56.568z"/><path opacity=".25" d="M707 584.569L763.57 528l56.568 56.569-56.569 56.568z"/><path opacity=".4" d="M651 641.569L707.57 585l56.568 56.569-56.569 56.568z"/><path opacity=".15" d="M707 698.569L763.57 642l56.568 56.569-56.569 56.568zM650 755.569L706.57 699l56.568 56.569-56.569 56.568z"/><path opacity=".3" d="M707 812.569L763.57 756l56.568 56.569-56.569 56.568z"/><path opacity=".4" d="M649.931 983.137l56.569-56.569 56.568 56.569-56.568 56.569z"/><path opacity=".2" d="M820 356.569L876.57 300l56.568 56.569-56.569 56.568z"/><path d="M763 413.569L819.57 357l56.568 56.569-56.569 56.568zM820 470.569L876.57 414l56.568 56.569-56.569 56.568zM763 527.569L819.57 471l56.568 56.569-56.569 56.568z"/><path opacity=".9" d="M820 584.569L876.57 528l56.568 56.569-56.569 56.568z"/><path opacity=".2" d="M764 641.569L820.57 585l56.568 56.569-56.569 56.568z"/><path d="M820 698.569L876.57 642l56.568 56.569-56.569 56.568z"/><path opacity=".2" d="M764 755.569L820.57 699l56.568 56.569-56.569 56.568z"/><path opacity=".15" d="M820 812.569L876.57 756l56.568 56.569-56.569 56.568z"/><path d="M764 869.569L820.57 813l56.568 56.569-56.569 56.568z"/><path opacity=".2" d="M820 926.569L876.57 870l56.568 56.569-56.569 56.568z"/><path d="M762.931 983.137l56.569-56.569 56.568 56.569-56.568 56.569z"/><path opacity=".4" d="M933 356.569L989.57 300l56.568 56.569-56.569 56.568zM876 413.569L932.57 357l56.568 56.569-56.569 56.568z"/><path opacity=".2" d="M933 470.569L989.57 414l56.568 56.569-56.569 56.568z"/><path opacity=".3" d="M876 527.569L932.57 471l56.568 56.569-56.569 56.568z"/><path d="M933 584.569L989.57 528l56.568 56.569-56.569 56.568z"/><path d="M877 641.569L933.57 585l56.568 56.569-56.569 56.568z"/><path opacity=".25" d="M933 698.569L989.57 642l56.568 56.569-56.569 56.568z"/><path opacity=".4" d="M876 755.569L932.57 699l56.568 56.569-56.569 56.568z"/><path d="M933 812.569L989.57 756l56.568 56.569-56.569 56.568z"/><path opacity=".2" d="M877 869.569L933.57 813l56.568 56.569-56.569 56.568z"/><path opacity=".3" d="M933 926.569L989.57 870l56.568 56.569-56.569 56.568z"/><path opacity=".7" d="M1046 356.569L1102.57 300l56.568 56.569-56.569 56.568z"/><path d="M989 413.569L1045.57 357l56.568 56.569-56.569 56.568z"/><path opacity=".15" d="M1046 470.569L1102.57 414l56.568 56.569-56.569 56.568z"/><path opacity=".2" d="M989 527.569L1045.57 471l56.568 56.569-56.569 56.568z"/><path d="M1046 584.569L1102.57 528l56.568 56.569-56.569 56.568z"/><path opacity=".3" d="M989 641.569L1045.57 585l56.568 56.569-56.569 56.568z"/><path opacity=".2" d="M1046 698.569L1102.57 642l56.568 56.569-56.569 56.568z"/><path d="M989 755.569L1045.57 699l56.568 56.569-56.569 56.568z"/><path opacity=".4" d="M989 869.569L1045.57 813l56.568 56.569-56.569 56.568z"/><path d="M1046 926.569L1102.57 870l56.568 56.569-56.569 56.568z"/><path opacity=".9" d="M988.931 983.137l56.569-56.569 56.568 56.569-56.568 56.569z"/><path opacity=".3" d="M1159 356.569L1215.57 300l56.568 56.569-56.569 56.568z"/><path opacity=".4" d="M1102 413.569L1158.57 357l56.568 56.569-56.569 56.568z"/><path opacity=".2" d="M1159 470.569L1215.57 414l56.568 56.569-56.569 56.568z"/><path opacity=".25" d="M1102 527.569L1158.57 471l56.568 56.569-56.569 56.568z"/><path opacity=".2" d="M1159 584.569L1215.57 528l56.568 56.569-56.569 56.568z"/><path d="M1102 641.569L1158.57 585l56.568 56.569-56.569 56.568zM1102 755.569L1158.57 699l56.568 56.569-56.569 56.568z"/><path opacity=".4" d="M1159 812.569L1215.57 756l56.568 56.569-56.569 56.568z"/><path opacity=".3" d="M1102 869.569L1158.57 813l56.568 56.569-56.569 56.568z"/><path opacity=".4" d="M1101.931 983.137l56.569-56.569 56.568 56.569-56.568 56.569z"/><path opacity=".15" d="M1272 356.569L1328.57 300l56.568 56.569-56.569 56.568z"/><path d="M1215 413.569L1271.57 357l56.568 56.569-56.569 56.568z"/><path opacity=".3" d="M1272 470.569L1328.57 414l56.568 56.569-56.569 56.568z"/><path opacity=".9" d="M1215 527.569L1271.57 471l56.568 56.569-56.569 56.568z"/><path opacity=".25" d="M1271 584.569L1327.57 528l56.568 56.569-56.569 56.568z"/><path opacity=".4" d="M1216 641.569L1272.57 585l56.568 56.569-56.569 56.568z"/><path opacity=".7" d="M1271 698.569L1327.57 642l56.568 56.569-56.569 56.568z"/><path opacity=".9" d="M1216 755.569L1272.57 699l56.568 56.569-56.569 56.568z"/><path d="M1272 812.569L1328.57 756l56.568 56.569-56.569 56.568z"/><path opacity=".3" d="M1216 869.569L1272.57 813l56.568 56.569-56.569 56.568z"/><path d="M1272 926.569L1328.57 870l56.568 56.569-56.569 56.568z"/><path opacity=".2" d="M1328 527.569L1384.57 471l56.568 56.569-56.569 56.568z"/><path d="M1385 584.569L1441.57 528l56.568 56.569-56.569 56.568z"/><path opacity=".3" d="M1328 641.569L1384.57 585l56.568 56.569-56.569 56.568z"/><path opacity=".2" d="M1385 698.569L1441.57 642l56.568 56.569-56.569 56.568z"/><path opacity=".4" d="M1328 755.569L1384.57 699l56.568 56.569-56.569 56.568z"/><path opacity=".15" d="M1385 812.569L1441.57 756l56.568 56.569-56.569 56.568z"/><path opacity=".2" d="M1385 926.569L1441.57 870l56.568 56.569-56.569 56.568z"/><path d="M1327.931 983.137l56.569-56.569 56.568 56.569-56.568 56.569zM1441 413.569L1497.57 357l56.568 56.569-56.569 56.568z"/><path opacity=".15" d="M1498 470.569L1554.57 414l56.568 56.569-56.569 56.568zM1441 527.569L1497.57 471l56.568 56.569-56.569 56.568z"/><path opacity=".9" d="M1498 584.569L1554.57 528l56.568 56.569-56.569 56.568z"/><path opacity=".4" d="M1441 641.569L1497.57 585l56.568 56.569-56.569 56.568z"/><path opacity=".7" d="M1498 698.569L1554.57 642l56.568 56.569-56.569 56.568z"/><path d="M1441 755.569L1497.57 699l56.568 56.569-56.569 56.568z"/><path opacity=".2" d="M1498 812.569L1554.57 756l56.568 56.569-56.569 56.568z"/><path opacity=".9" d="M1441 869.569L1497.57 813l56.568 56.569-56.569 56.568z"/><path opacity=".7" d="M1498 926.569L1554.57 870l56.568 56.569-56.569 56.568z"/><path opacity=".2" d="M1440.931 983.137l56.569-56.569 56.568 56.569-56.568 56.569z"/><path opacity=".3" d="M1611 356.569L1667.57 300l56.568 56.569-56.569 56.568z"/><path opacity=".9" d="M1554 413.569L1610.57 357l56.568 56.569-56.569 56.568z"/><path opacity=".2" d="M1611 470.569L1667.57 414l56.568 56.569-56.569 56.568z"/><path opacity=".4" d="M1611 584.569L1667.57 528l56.568 56.569-56.569 56.568z"/><path d="M1554 641.569L1610.57 585l56.568 56.569-56.569 56.568z"/><path opacity=".2" d="M1611 698.569L1667.57 642l56.568 56.569-56.569 56.568z"/><path opacity=".25" d="M1554 755.569L1610.57 699l56.568 56.569-56.569 56.568z"/><path opacity=".15" d="M1611 812.569L1667.57 756l56.568 56.569-56.569 56.568z"/><path opacity=".2" d="M1554 869.569L1610.57 813l56.568 56.569-56.569 56.568z"/><path opacity=".15" d="M1611 926.569L1667.57 870l56.568 56.569-56.569 56.568z"/><path d="M1553.931 983.137l56.569-56.569 56.568 56.569-56.568 56.569z"/><path opacity=".15" d="M1724 356.569L1780.57 300l56.568 56.569-56.569 56.568z"/><path d="M1667 413.569L1723.57 357l56.568 56.569-56.569 56.568z"/><path opacity=".7" d="M1724 470.569L1780.57 414l56.568 56.569-56.569 56.568z"/><path d="M1667 527.569L1723.57 471l56.568 56.569-56.569 56.568z"/><path opacity=".2" d="M1724 584.569L1780.57 528l56.568 56.569-56.569 56.568z"/><path d="M1667 641.569L1723.57 585l56.568 56.569-56.569 56.568z"/><path opacity=".15" d="M1724 698.569L1780.57 642l56.568 56.569-56.569 56.568z"/><path d="M1667 755.569L1723.57 699l56.568 56.569-56.569 56.568z"/><path opacity=".2" d="M1724 812.569L1780.57 756l56.568 56.569-56.569 56.568z"/><path d="M1667 869.569L1723.57 813l56.568 56.569-56.569 56.568z"/><path opacity=".4" d="M1837 356.569L1893.57 300l56.568 56.569-56.569 56.568z"/><path opacity=".15" d="M1780 413.569L1836.57 357l56.568 56.569-56.569 56.568z"/><path opacity=".4" d="M1837 470.569L1893.57 414l56.568 56.569-56.569 56.568z"/><path opacity=".34" d="M1780 527.569L1836.57 471l56.568 56.569-56.569 56.568z"/><path opacity=".7" d="M1837 584.569L1893.57 528l56.568 56.569-56.569 56.568z"/><path opacity=".15" d="M1780 641.569L1836.57 585l56.568 56.569-56.569 56.568z"/><path opacity=".2" d="M1837 698.569L1893.57 642l56.568 56.569-56.569 56.568z"/><path opacity=".34" d="M1780 755.569L1836.57 699l56.568 56.569-56.569 56.568z"/><path opacity=".15" d="M1837 812.569L1893.57 756l56.568 56.569-56.569 56.568z"/><path d="M1780 869.569L1836.57 813l56.568 56.569-56.569 56.568z"/><path opacity=".4" d="M1837 926.569L1893.57 870l56.568 56.569-56.569 56.568z"/><path d="M1779.931 983.137l56.569-56.569 56.568 56.569-56.568 56.569z"/><path opacity=".9" d="M1893 527.569L1949.57 471l56.568 56.569-56.569 56.568z"/><path opacity=".2" d="M1950 584.569L2006.57 528l56.568 56.569-56.569 56.568z"/><path d="M1893 641.569L1949.57 585l56.568 56.569-56.569 56.568zM1950 698.569L2006.57 642l56.568 56.569-56.569 56.568z"/><path opacity=".7" d="M1893 755.569L1949.57 699l56.568 56.569-56.569 56.568z"/><path opacity=".2" d="M1950 812.569L2006.57 756l56.568 56.569-56.569 56.568z"/><path d="M1893 869.569L1949.57 813l56.568 56.569-56.569 56.568zM1950 926.569L2006.57 870l56.568 56.569-56.569 56.568zM1892.931 983.137l56.569-56.569 56.568 56.569-56.568 56.569z"/></g></svg>