<svg width="126" height="126" viewBox="0 0 126 126" xmlns="http://www.w3.org/2000/svg">
    <g fill="none" fill-rule="evenodd">
        <path stroke-opacity=".012" stroke="#000" stroke-width="0" d="M-1-1h128v128H-1z"/>
        <g stroke="#54666D" stroke-linecap="round" stroke-linejoin="round" stroke-width="2">
            <path d="M124.333 103c0 7.111-3.555 10.667-10.666 10.667H12.333c-7.11 0-10.666-3.556-10.666-10.667v-5.333h122.666V103zm-112 10.667v10.666-10.666zm101.334 0v10.666-10.666zM63 97.667H36.333V7c0-1.473.521-2.73 1.562-3.771 1.042-1.042 2.299-1.562 3.772-1.562h16C61.222 1.667 63 3.444 63 7v90.667zm27.435 0L79.832 10.168c-.428-3.528 1.123-5.507 4.65-5.936l15.883-1.925c1.463-.177 2.774.189 3.933 1.098 1.16.91 1.827 2.095 2.003 3.558l10.992 90.704H90.435zm-11.435 0H63v-80h10.667C77.222 17.667 79 19.444 79 23v74.667zm-42.667 0H9.667V7c0-1.473.52-2.73 1.562-3.771C12.27 2.187 13.527 1.667 15 1.667h16c3.556 0 5.333 1.777 5.333 5.333v90.667zm10.667-16h5.333H47zm-26.667 0h5.334-5.334zm2.667-64v48-48zm26.667 0v48-48z"/>
            <path d="M105.667 71c0 3.556-1.778 5.333-5.334 5.333C96.778 76.333 95 74.556 95 71s1.778-5.333 5.333-5.333c3.556 0 5.334 1.777 5.334 5.333zM89.862 26.013l6.444-.849M90.509 30.929l11.402-1.501M99.77 24.666l1.488-.196M91.167 35.927l3.966-.522M99.093 34.842l3.47-.457"/>
        </g>
    </g>
</svg>
