<?xml version="1.0" encoding="utf-8"?>
<!-- Generator: Adobe Illustrator 16.0.0, SVG Export Plug-In . SVG Version: 6.00 Build 0)  -->
<!DOCTYPE svg PUBLIC "-//W3C//DTD SVG 1.1//EN" "http://www.w3.org/Graphics/SVG/1.1/DTD/svg11.dtd">
<svg version="1.1" id="Layer_1" xmlns="http://www.w3.org/2000/svg" xmlns:xlink="http://www.w3.org/1999/xlink" x="0px" y="0px"
	 width="426.202px" height="246.219px" viewBox="0 0 426.202 246.219" enable-background="new 0 0 426.202 246.219"
	 xml:space="preserve">
<rect x="1.036" y="0.463" fill="#FFFFFF" width="424.166" height="38.559"/>
<rect fill="#FFD600" width="105" height="39"/>
<rect x="1.036" y="41.592" fill="#FFFFFF" width="424.166" height="204.627"/>
<g>
	<path fill="#5B5B5B" d="M246.563,21.385c0-4.887,2.676-7.842,6.516-7.842s6.539,2.979,6.539,7.842c0,4.91-2.699,7.981-6.539,7.981
		S246.563,26.294,246.563,21.385z M257.593,21.385c0-3.793-1.792-6.143-4.514-6.143s-4.514,2.35-4.514,6.143
		c0,3.816,1.792,6.283,4.514,6.283S257.593,25.201,257.593,21.385z"/>
	<path fill="#5B5B5B" d="M264.618,30.041v3.816h-1.908v-16.08h1.582l0.163,1.303h0.07c1.024-0.861,2.28-1.583,3.607-1.583
		c2.909,0,4.468,2.257,4.468,5.771c0,3.839-2.304,6.097-4.887,6.097c-1.047,0-2.094-0.489-3.142-1.303L264.618,30.041z
		 M267.387,27.761c1.861,0,3.234-1.699,3.234-4.491c0-2.49-0.838-4.166-2.979-4.166c-0.954,0-1.908,0.536-3.025,1.536v5.934
		C265.641,27.435,266.642,27.761,267.387,27.761z"/>
	<path fill="#5B5B5B" d="M279.856,17.499c2.886,0,4.515,2.071,4.515,5.306c0,0.396-0.023,0.768-0.07,1.047h-7.633
		c0.14,2.443,1.606,3.979,3.77,3.979c1.07,0,1.978-0.349,2.815-0.884l0.675,1.256c-0.977,0.628-2.188,1.164-3.723,1.164
		c-3.025,0-5.422-2.21-5.422-5.911C274.783,19.756,277.273,17.499,279.856,17.499z M282.695,22.595c0-2.304-1.024-3.583-2.792-3.583
		c-1.583,0-3.025,1.303-3.258,3.583H282.695z"/>
	<path fill="#5B5B5B" d="M287.16,12.519h1.908v14.427c0,0.605,0.256,0.837,0.535,0.837c0.116,0,0.209,0,0.419-0.046l0.256,1.443
		c-0.256,0.116-0.582,0.186-1.094,0.186c-1.443,0-2.024-0.908-2.024-2.56V12.519z"/>
</g>
<g>
	<path fill="#5B5B5B" d="M146.926,24.434h-5.562l-1.466,4.654h-1.978l5.166-15.265h2.187l5.166,15.265h-2.071L146.926,24.434z
		 M146.437,22.875l-0.721-2.327c-0.559-1.699-1.047-3.374-1.536-5.143h-0.093c-0.465,1.769-0.954,3.444-1.513,5.143l-0.721,2.327
		H146.437z"/>
	<path fill="#5B5B5B" d="M152.112,17.778h1.932v6.911c0,2.118,0.628,3.025,2.117,3.025c1.164,0,1.978-0.582,3.048-1.908v-8.028
		h1.908v11.309h-1.582l-0.163-1.769h-0.07c-1.047,1.233-2.164,2.048-3.723,2.048c-2.397,0-3.467-1.536-3.467-4.421V17.778z"/>
	<path fill="#5B5B5B" d="M169.026,17.499c1.303,0,2.164,0.489,3.165,1.303l-0.093-1.932V12.52h1.931v16.568h-1.582l-0.163-1.326
		h-0.07c-0.884,0.861-2.094,1.605-3.42,1.605c-2.839,0-4.677-2.141-4.677-5.911C164.117,19.78,166.443,17.499,169.026,17.499z
		 M169.213,27.761c1.047,0,1.955-0.512,2.885-1.559v-5.911c-0.954-0.861-1.815-1.187-2.746-1.187c-1.815,0-3.257,1.746-3.257,4.329
		C166.095,26.132,167.235,27.761,169.213,27.761z"/>
	<path fill="#5B5B5B" d="M177.494,14.218c0-0.745,0.582-1.233,1.326-1.233s1.327,0.489,1.327,1.233c0,0.721-0.582,1.233-1.327,1.233
		S177.494,14.939,177.494,14.218z M177.843,17.778h1.908v11.309h-1.908V17.778z"/>
</g>
<g>
	<path fill="#5B5B5B" d="M35.19,13.914h9.563v2.885h-6.143v3.514h5.259v2.885h-5.259v5.887h-3.42V13.914z"/>
	<path fill="#5B5B5B" d="M46.822,14.054c0-1.047,0.837-1.769,1.978-1.769c1.163,0,1.978,0.722,1.978,1.769
		c0,1.047-0.814,1.792-1.978,1.792C47.66,15.846,46.822,15.101,46.822,14.054z M47.102,17.544h3.42v11.542h-3.42V17.544z"/>
	<path fill="#5B5B5B" d="M59.596,21.663c-0.07-1.024-0.582-1.676-1.815-1.676c-0.978,0-1.955,0.396-3.072,1.047l-1.21-2.257
		c1.466-0.884,3.118-1.512,4.933-1.512c2.955,0,4.584,1.675,4.584,5.212v6.608h-2.792l-0.256-1.187h-0.07
		c-0.977,0.861-2.071,1.466-3.374,1.466c-2.094,0-3.42-1.536-3.42-3.491C53.104,23.455,55.035,22.128,59.596,21.663z M57.688,26.712
		c0.791,0,1.303-0.372,1.908-0.978V23.71c-2.443,0.326-3.234,1.024-3.234,1.908C56.361,26.363,56.873,26.712,57.688,26.712z"/>
	<path fill="#5B5B5B" d="M66.411,20.22h-1.583v-2.537l1.769-0.139l0.396-3.072h2.839v3.072h2.769v2.676h-2.769v4.631
		c0,1.303,0.582,1.838,1.489,1.838c0.373,0,0.792-0.116,1.094-0.232l0.535,2.49c-0.605,0.186-1.442,0.419-2.56,0.419
		c-2.862,0-3.979-1.792-3.979-4.468V20.22z"/>
</g>
<g>
	<path fill="#5B5B5B" d="M350.832,13.821h8.796v1.629h-6.864v5.166h5.817v1.629h-5.817v6.841h-1.932V13.821z"/>
	<path fill="#5B5B5B" d="M366.21,17.498c2.769,0,5.235,2.164,5.235,5.957c0,3.747-2.466,5.911-5.235,5.911s-5.236-2.164-5.236-5.911
		C360.975,19.662,363.441,17.498,366.21,17.498z M366.21,27.783c1.955,0,3.258-1.745,3.258-4.328c0-2.606-1.303-4.375-3.258-4.375
		c-1.932,0-3.258,1.769-3.258,4.375C362.953,26.038,364.279,27.783,366.21,27.783z"/>
	<path fill="#5B5B5B" d="M374.422,17.777h1.582l0.163,2.048h0.07c0.768-1.419,1.931-2.327,3.211-2.327
		c0.488,0,0.837,0.07,1.21,0.233l-0.373,1.675c-0.372-0.116-0.628-0.186-1.094-0.186c-0.954,0-2.094,0.698-2.862,2.606v7.26h-1.908
		V17.777z"/>
	<path fill="#5B5B5B" d="M386.357,17.498c1.303,0,2.164,0.489,3.165,1.303l-0.093-1.932v-4.351h1.931v16.568h-1.582l-0.163-1.326
		h-0.07c-0.884,0.861-2.094,1.605-3.42,1.605c-2.839,0-4.677-2.141-4.677-5.911C381.448,19.778,383.774,17.498,386.357,17.498z
		 M386.544,27.76c1.047,0,1.955-0.512,2.885-1.559V20.29c-0.954-0.861-1.815-1.187-2.746-1.187c-1.815,0-3.257,1.746-3.257,4.329
		C383.426,26.131,384.566,27.76,386.544,27.76z"/>
</g>
<g>
	<path fill="#5B5B5B" d="M14.065,53.126h2.283v5.631c0,1.975,0.617,2.653,1.743,2.653c1.126,0,1.774-0.679,1.774-2.653v-5.631h2.19
		v5.399c0,3.378-1.373,4.844-3.965,4.844c-2.607,0-4.026-1.465-4.026-4.844V53.126z"/>
	<path fill="#5B5B5B" d="M24.384,53.126h2.329l2.623,4.998l0.987,2.222h0.062c-0.093-1.064-0.278-2.484-0.278-3.672v-3.548h2.16
		v10.058h-2.33l-2.622-5.014l-0.987-2.19h-0.062c0.093,1.11,0.278,2.453,0.278,3.641v3.563h-2.16V53.126z"/>
	<path fill="#5B5B5B" d="M34.641,53.126h2.268v4.119h0.062l2.993-4.119h2.499l-3.039,4.011l3.594,6.047h-2.483l-2.453-4.242
		l-1.172,1.542v2.7h-2.268V53.126z"/>
	<path fill="#5B5B5B" d="M44.111,53.126h2.329l2.623,4.998l0.987,2.222h0.062c-0.093-1.064-0.278-2.484-0.278-3.672v-3.548h2.16
		v10.058h-2.33l-2.622-5.014l-0.987-2.19h-0.062c0.093,1.11,0.278,2.453,0.278,3.641v3.563h-2.16V53.126z"/>
	<path fill="#5B5B5B" d="M53.89,58.109c0-3.286,1.852-5.168,4.566-5.168c2.715,0,4.566,1.897,4.566,5.168
		c0,3.286-1.851,5.26-4.566,5.26C55.741,63.37,53.89,61.395,53.89,58.109z M60.693,58.109c0-2.006-0.864-3.209-2.237-3.209
		s-2.237,1.203-2.237,3.209c0,2.021,0.864,3.301,2.237,3.301S60.693,60.13,60.693,58.109z"/>
	<path fill="#5B5B5B" d="M63.946,53.126h2.33l0.694,4.705c0.123,1.049,0.277,2.113,0.401,3.178h0.062
		c0.201-1.064,0.401-2.129,0.602-3.178l1.08-4.705h1.928l1.08,4.705c0.201,1.018,0.401,2.098,0.602,3.178h0.062
		c0.139-1.08,0.277-2.144,0.417-3.178l0.694-4.705h2.175l-1.79,10.058h-2.854l-0.987-4.566c-0.169-0.771-0.293-1.589-0.401-2.329
		h-0.062c-0.123,0.74-0.247,1.558-0.417,2.329l-0.941,4.566h-2.808L63.946,53.126z"/>
	<path fill="#5B5B5B" d="M77.458,53.126h2.329l2.623,4.998l0.987,2.222h0.062c-0.093-1.064-0.278-2.484-0.278-3.672v-3.548h2.16
		v10.058h-2.33l-2.622-5.014l-0.987-2.19h-0.062c0.093,1.11,0.278,2.453,0.278,3.641v3.563h-2.16V53.126z"/>
	<path fill="#5B5B5B" d="M14.328,71.574h3.101c2.237,0,3.733,0.756,3.733,2.978c0,2.129-1.512,3.132-3.733,3.132h-1.82v4.011h-1.281
		V71.574z M17.274,76.634c1.759,0,2.607-0.648,2.607-2.083c0-1.465-0.864-1.944-2.607-1.944h-1.666v4.026H17.274z"/>
	<path fill="#5B5B5B" d="M22.981,74.196h1.28v4.582c0,1.404,0.417,2.005,1.404,2.005c0.771,0,1.311-0.386,2.021-1.265v-5.322h1.265
		v7.498h-1.049l-0.108-1.172h-0.046c-0.694,0.817-1.435,1.357-2.468,1.357c-1.589,0-2.298-1.018-2.298-2.931V74.196z"/>
	<path fill="#5B5B5B" d="M31.479,74.196h1.049l0.108,1.08h0.046c0.709-0.709,1.481-1.265,2.515-1.265
		c1.573,0,2.283,1.019,2.283,2.931v4.751h-1.265v-4.582c0-1.404-0.432-2.006-1.419-2.006c-0.771,0-1.296,0.401-2.052,1.157v5.43
		h-1.265V74.196z"/>
	<path fill="#5B5B5B" d="M40.132,75.23h-1.111v-0.957l1.172-0.077l0.154-2.098h1.064v2.098h2.021v1.034h-2.021v4.166
		c0,0.925,0.293,1.45,1.157,1.45c0.262,0,0.602-0.108,0.848-0.2l0.247,0.956c-0.417,0.139-0.926,0.278-1.388,0.278
		c-1.604,0-2.145-1.018-2.145-2.499V75.23z"/>
	<path fill="#5B5B5B" d="M47.891,74.011c1.836,0,3.471,1.435,3.471,3.949c0,2.484-1.635,3.918-3.471,3.918s-3.471-1.435-3.471-3.918
		C44.42,75.446,46.055,74.011,47.891,74.011z M47.891,80.83c1.296,0,2.16-1.157,2.16-2.87c0-1.728-0.864-2.9-2.16-2.9
		c-1.28,0-2.16,1.172-2.16,2.9C45.731,79.673,46.611,80.83,47.891,80.83z"/>
	<path fill="#5B5B5B" d="M14.328,90.083h2.53c3.116,0,4.782,1.805,4.782,5.014c0,3.225-1.666,5.106-4.721,5.106h-2.592V90.083z
		 M16.765,99.154c2.36,0,3.548-1.497,3.548-4.058c0-2.545-1.188-3.964-3.548-3.964h-1.157v8.022H16.765z"/>
	<path fill="#5B5B5B" d="M23.583,92.705h1.28v4.582c0,1.404,0.417,2.005,1.404,2.005c0.771,0,1.311-0.386,2.021-1.265v-5.322h1.265
		v7.498h-1.049l-0.108-1.172h-0.046c-0.694,0.817-1.435,1.357-2.468,1.357c-1.589,0-2.298-1.018-2.298-2.931V92.705z"/>
	<path fill="#5B5B5B" d="M35.135,92.52c0.987,0,1.682,0.417,2.191,0.895l-0.633,0.817c-0.447-0.386-0.91-0.663-1.512-0.663
		c-1.357,0-2.345,1.172-2.345,2.9c0,1.712,0.941,2.87,2.314,2.87c0.709,0,1.311-0.355,1.759-0.756l0.57,0.833
		c-0.679,0.602-1.542,0.972-2.437,0.972c-1.99,0-3.518-1.435-3.518-3.918C31.525,93.955,33.207,92.52,35.135,92.52z"/>
	<path fill="#5B5B5B" d="M43.202,95.451c0-0.957-0.324-1.882-1.542-1.882c-0.879,0-1.651,0.401-2.237,0.802l-0.509-0.879
		c0.694-0.448,1.743-0.972,2.946-0.972c1.836,0,2.607,1.219,2.607,3.085v4.597h-1.049l-0.108-0.895h-0.031
		c-0.725,0.586-1.558,1.08-2.484,1.08c-1.265,0-2.206-0.787-2.206-2.129C38.589,96.624,40.009,95.806,43.202,95.451z M41.15,99.37
		c0.725,0,1.327-0.355,2.052-1.003v-2.083c-2.515,0.309-3.363,0.926-3.363,1.882C39.839,99.015,40.41,99.37,41.15,99.37z"/>
	<path fill="#5B5B5B" d="M47.073,93.739h-1.111v-0.957l1.172-0.077l0.154-2.098h1.064v2.098h2.021v1.034h-2.021v4.166
		c0,0.925,0.293,1.45,1.157,1.45c0.262,0,0.602-0.108,0.848-0.2l0.247,0.956c-0.417,0.139-0.926,0.278-1.388,0.278
		c-1.604,0-2.145-1.018-2.145-2.499V93.739z"/>
	<path fill="#5B5B5B" d="M54.832,92.52c1.836,0,3.471,1.435,3.471,3.949c0,2.484-1.635,3.918-3.471,3.918s-3.471-1.435-3.471-3.918
		C51.361,93.955,52.996,92.52,54.832,92.52z M54.832,99.339c1.296,0,2.16-1.157,2.16-2.87c0-1.728-0.864-2.9-2.16-2.9
		c-1.28,0-2.16,1.172-2.16,2.9C52.672,98.182,53.552,99.339,54.832,99.339z"/>
	<path fill="#5B5B5B" d="M13.942,116.722c0.586,0.586,1.327,1.126,2.483,1.126c1.204,0,2.16-0.879,2.16-2.252
		c0-1.357-0.833-2.16-2.098-2.16c-0.679,0-1.096,0.216-1.682,0.602l-0.679-0.432l0.324-4.736h4.921v1.095h-3.811l-0.262,2.916
		c0.463-0.247,0.91-0.401,1.512-0.401c1.682,0,3.055,0.957,3.055,3.085s-1.604,3.332-3.317,3.332c-1.574,0-2.545-0.663-3.224-1.342
		L13.942,116.722z"/>
	<path fill="#5B5B5B" d="M21.284,113.76c0-3.301,1.188-5.075,3.163-5.075c1.959,0,3.147,1.774,3.147,5.075s-1.188,5.137-3.147,5.137
		C22.472,118.897,21.284,117.061,21.284,113.76z M26.359,113.76c0-2.885-0.771-4.057-1.913-4.057c-1.157,0-1.928,1.172-1.928,4.057
		s0.771,4.119,1.928,4.119C25.588,117.879,26.359,116.645,26.359,113.76z"/>
	<path fill="#5B5B5B" d="M28.949,113.76c0-3.301,1.188-5.075,3.163-5.075c1.959,0,3.147,1.774,3.147,5.075s-1.188,5.137-3.147,5.137
		C30.137,118.897,28.949,117.061,28.949,113.76z M34.024,113.76c0-2.885-0.771-4.057-1.913-4.057c-1.157,0-1.928,1.172-1.928,4.057
		s0.771,4.119,1.928,4.119C33.253,117.879,34.024,116.645,34.024,113.76z"/>
	<path fill="#5B5B5B" d="M14.328,127.101h1.512l1.959,5.43l0.741,2.067h0.062l0.709-2.067l1.944-5.43h1.512v10.12h-1.219v-5.569
		c0-0.895,0.093-2.098,0.17-2.993h-0.062l-0.817,2.252l-1.944,5.292h-0.725l-1.959-5.292l-0.802-2.252h-0.062
		c0.062,0.895,0.169,2.098,0.169,2.993v5.569h-1.188V127.101z"/>
	<path fill="#5B5B5B" d="M25.187,127.363c0-0.494,0.386-0.818,0.879-0.818s0.879,0.324,0.879,0.818c0,0.478-0.385,0.817-0.879,0.817
		S25.187,127.841,25.187,127.363z M25.418,129.723h1.265v7.498h-1.265V129.723z"/>
	<path fill="#5B5B5B" d="M29.011,135.524c0.648,0.524,1.311,0.895,2.206,0.895c0.987,0,1.481-0.524,1.481-1.172
		c0-0.771-0.895-1.111-1.712-1.419c-1.064-0.385-2.237-0.895-2.237-2.16c0-1.203,0.957-2.129,2.576-2.129
		c0.941,0,1.759,0.386,2.33,0.849l-0.602,0.802c-0.509-0.386-1.049-0.664-1.712-0.664c-0.941,0-1.373,0.509-1.373,1.08
		c0,0.709,0.817,0.972,1.666,1.296c1.08,0.401,2.283,0.848,2.283,2.268c0,1.219-0.972,2.237-2.746,2.237
		c-1.064,0-2.083-0.447-2.792-1.034L29.011,135.524z"/>
	<path fill="#5B5B5B" d="M38.729,129.538c0.987,0,1.682,0.417,2.191,0.895l-0.633,0.817c-0.447-0.386-0.91-0.663-1.512-0.663
		c-1.357,0-2.345,1.172-2.345,2.9c0,1.712,0.941,2.87,2.314,2.87c0.709,0,1.311-0.355,1.759-0.756l0.571,0.833
		c-0.679,0.602-1.543,0.972-2.438,0.972c-1.99,0-3.518-1.435-3.518-3.918C35.119,130.973,36.8,129.538,38.729,129.538z"/>
	<path fill="#5B5B5B" d="M18.447,163.996c1.25,0,2.298,0.617,2.978,1.311l-1.25,1.404c-0.509-0.463-1.002-0.756-1.697-0.756
		c-1.404,0-2.499,1.219-2.499,3.24c0,2.067,0.957,3.271,2.438,3.271c0.817,0,1.419-0.355,1.913-0.895l1.25,1.373
		c-0.833,0.972-1.944,1.481-3.193,1.481c-2.607,0-4.736-1.774-4.736-5.152C13.649,165.939,15.855,163.996,18.447,163.996z"/>
	<path fill="#5B5B5B" d="M22.055,169.164c0-3.286,1.852-5.168,4.566-5.168c2.715,0,4.566,1.897,4.566,5.168
		c0,3.286-1.851,5.26-4.566,5.26C23.907,174.424,22.055,172.449,22.055,169.164z M28.858,169.164c0-2.006-0.864-3.209-2.237-3.209
		s-2.237,1.203-2.237,3.209c0,2.021,0.864,3.301,2.237,3.301S28.858,171.184,28.858,169.164z"/>
	<path fill="#5B5B5B" d="M33.083,164.181h2.329l2.623,4.998l0.987,2.222h0.062c-0.093-1.064-0.278-2.484-0.278-3.672v-3.548h2.16
		v10.058h-2.33l-2.622-5.014l-0.987-2.19h-0.062c0.093,1.11,0.278,2.453,0.278,3.641v3.563h-2.16V164.181z"/>
	<path fill="#5B5B5B" d="M42.044,164.181h2.406l1.204,4.689c0.309,1.096,0.509,2.114,0.817,3.224h0.062
		c0.293-1.11,0.509-2.128,0.802-3.224l1.188-4.689h2.314l-3.023,10.058h-2.73L42.044,164.181z"/>
	<path fill="#5B5B5B" d="M51.916,164.181h6.294v1.913h-4.026v2.021h3.425v1.897h-3.425v2.314h4.181v1.913h-6.448V164.181z"/>
	<path fill="#5B5B5B" d="M65.813,174.239l-1.928-3.625h-1.25v3.625h-2.268v-10.058h3.625c2.129,0,3.872,0.74,3.872,3.131
		c0,1.481-0.709,2.422-1.79,2.9l2.283,4.026H65.813z M62.636,168.809h1.172c1.188,0,1.836-0.509,1.836-1.497
		s-0.648-1.327-1.836-1.327h-1.172V168.809z"/>
	<path fill="#5B5B5B" d="M71.52,166.093h-2.761v-1.913h7.806v1.913h-2.761v8.146H71.52V166.093z"/>
	<path fill="#5B5B5B" d="M78.137,164.181h2.268v10.058h-2.268V164.181z"/>
	<path fill="#5B5B5B" d="M82.779,164.181h3.44c2.083,0,3.703,0.571,3.703,2.499c0,0.895-0.509,1.867-1.682,2.175v0.062
		c1.435,0.262,2.175,1.018,2.175,2.36c0,2.052-1.728,2.962-3.903,2.962h-3.733V164.181z M86.111,168.238
		c1.111,0,1.589-0.478,1.589-1.234c0-0.756-0.509-1.064-1.573-1.064h-1.08v2.298H86.111z M86.327,172.48
		c1.234,0,1.867-0.463,1.867-1.373c0-0.879-0.617-1.265-1.867-1.265h-1.28v2.638H86.327z"/>
	<path fill="#5B5B5B" d="M92.111,164.181h2.268v8.145h3.98v1.913h-6.248V164.181z"/>
	<path fill="#5B5B5B" d="M100.101,164.181h6.294v1.913h-4.026v2.021h3.425v1.897h-3.425v2.314h4.181v1.913h-6.448V164.181z"/>
	<path fill="#5B5B5B" d="M13.742,187.641c0-3.239,1.774-5.199,4.319-5.199s4.335,1.975,4.335,5.199c0,3.255-1.79,5.292-4.335,5.292
		S13.742,190.896,13.742,187.641z M21.054,187.641c0-2.514-1.188-4.072-2.993-4.072c-1.805,0-2.993,1.558-2.993,4.072
		c0,2.53,1.188,4.166,2.993,4.166C19.866,191.807,21.054,190.171,21.054,187.641z"/>
	<path fill="#5B5B5B" d="M24.662,186.284h-1.111v-0.957l1.172-0.077l0.154-2.098h1.064v2.098h2.021v1.034h-2.021v4.166
		c0,0.925,0.293,1.45,1.157,1.45c0.262,0,0.602-0.108,0.848-0.2l0.247,0.956c-0.417,0.139-0.926,0.278-1.388,0.278
		c-1.604,0-2.145-1.018-2.145-2.499V186.284z"/>
	<path fill="#5B5B5B" d="M29.659,181.764h1.265v2.993l-0.046,1.543c0.709-0.679,1.465-1.234,2.499-1.234
		c1.573,0,2.283,1.019,2.283,2.931v4.751h-1.265v-4.582c0-1.404-0.432-2.006-1.419-2.006c-0.771,0-1.296,0.401-2.052,1.157v5.43
		h-1.265V181.764z"/>
	<path fill="#5B5B5B" d="M40.857,185.065c1.913,0,2.993,1.373,2.993,3.518c0,0.262-0.016,0.509-0.046,0.694h-5.06
		c0.093,1.62,1.064,2.638,2.5,2.638c0.709,0,1.311-0.231,1.866-0.586l0.448,0.833c-0.648,0.417-1.45,0.771-2.468,0.771
		c-2.006,0-3.595-1.465-3.595-3.918C37.494,186.562,39.145,185.065,40.857,185.065z M42.739,188.443
		c0-1.527-0.679-2.375-1.851-2.375c-1.049,0-2.005,0.864-2.16,2.375H42.739z"/>
	<path fill="#5B5B5B" d="M45.7,185.25h1.049l0.108,1.358h0.046c0.509-0.941,1.28-1.543,2.129-1.543c0.324,0,0.555,0.046,0.802,0.154
		l-0.247,1.111c-0.247-0.077-0.417-0.124-0.725-0.124c-0.632,0-1.388,0.463-1.897,1.728v4.813H45.7V185.25z"/>
	<path fill="#5B5B5B" d="M13.942,209.267c0.586,0.586,1.327,1.126,2.483,1.126c1.204,0,2.16-0.879,2.16-2.252
		c0-1.357-0.833-2.16-2.098-2.16c-0.679,0-1.096,0.216-1.682,0.602l-0.679-0.432l0.324-4.736h4.921v1.095h-3.811l-0.262,2.916
		c0.463-0.247,0.91-0.401,1.512-0.401c1.682,0,3.055,0.957,3.055,3.085s-1.604,3.332-3.317,3.332c-1.574,0-2.545-0.663-3.224-1.342
		L13.942,209.267z"/>
	<path fill="#5B5B5B" d="M21.284,206.305c0-3.301,1.188-5.075,3.163-5.075c1.959,0,3.147,1.774,3.147,5.075
		s-1.188,5.137-3.147,5.137C22.472,211.442,21.284,209.606,21.284,206.305z M26.359,206.305c0-2.885-0.771-4.057-1.913-4.057
		c-1.157,0-1.928,1.172-1.928,4.057s0.771,4.119,1.928,4.119C25.588,210.424,26.359,209.189,26.359,206.305z"/>
	<path fill="#5B5B5B" d="M28.949,206.305c0-3.301,1.188-5.075,3.163-5.075c1.959,0,3.147,1.774,3.147,5.075
		s-1.188,5.137-3.147,5.137C30.137,211.442,28.949,209.606,28.949,206.305z M34.024,206.305c0-2.885-0.771-4.057-1.913-4.057
		c-1.157,0-1.928,1.172-1.928,4.057s0.771,4.119,1.928,4.119C33.253,210.424,34.024,209.189,34.024,206.305z"/>
	<path fill="#5B5B5B" d="M14.328,219.646h3.101c2.237,0,3.733,0.756,3.733,2.977c0,2.129-1.512,3.132-3.733,3.132h-1.82v4.011
		h-1.281V219.646z M17.274,224.706c1.759,0,2.607-0.648,2.607-2.083c0-1.465-0.864-1.944-2.607-1.944h-1.666v4.026H17.274z"/>
	<path fill="#5B5B5B" d="M22.981,222.268h1.28v4.582c0,1.404,0.417,2.005,1.404,2.005c0.771,0,1.311-0.386,2.021-1.265v-5.322h1.265
		v7.498h-1.049l-0.108-1.172h-0.046c-0.694,0.817-1.435,1.357-2.468,1.357c-1.589,0-2.298-1.018-2.298-2.931V222.268z"/>
	<path fill="#5B5B5B" d="M31.479,222.268h1.049l0.108,1.08h0.046c0.709-0.709,1.481-1.265,2.515-1.265
		c1.573,0,2.283,1.018,2.283,2.931v4.751h-1.265v-4.582c0-1.404-0.432-2.006-1.419-2.006c-0.771,0-1.296,0.401-2.052,1.157v5.43
		h-1.265V222.268z"/>
	<path fill="#5B5B5B" d="M40.132,223.302h-1.111v-0.957l1.172-0.077l0.154-2.098h1.064v2.098h2.021v1.034h-2.021v4.166
		c0,0.925,0.293,1.45,1.157,1.45c0.262,0,0.602-0.108,0.848-0.2l0.247,0.956c-0.417,0.139-0.926,0.278-1.388,0.278
		c-1.604,0-2.145-1.018-2.145-2.499V223.302z"/>
	<path fill="#5B5B5B" d="M47.891,222.083c1.836,0,3.471,1.435,3.471,3.949c0,2.484-1.635,3.918-3.471,3.918
		s-3.471-1.435-3.471-3.918C44.42,223.518,46.055,222.083,47.891,222.083z M47.891,228.902c1.296,0,2.16-1.157,2.16-2.87
		c0-1.728-0.864-2.9-2.16-2.9c-1.28,0-2.16,1.172-2.16,2.9C45.731,227.745,46.611,228.902,47.891,228.902z"/>
</g>
<g>
	<path fill="#5B5B5B" d="M124.273,53.126h2.268v8.145h3.98v1.913h-6.248V53.126z"/>
	<path fill="#5B5B5B" d="M132.263,53.126h2.268v10.058h-2.268V53.126z"/>
	<path fill="#5B5B5B" d="M136.905,53.126h2.406l1.682,4.52l0.602,1.759h0.062l0.602-1.759l1.635-4.52h2.391v10.058h-2.114v-3.687
		c0-0.987,0.185-2.453,0.293-3.425h-0.062l-0.833,2.33l-1.542,3.903h-0.91l-1.543-3.903l-0.802-2.33h-0.062
		c0.108,0.972,0.278,2.438,0.278,3.425v3.687h-2.083V53.126z"/>
	<path fill="#5B5B5B" d="M148.18,58.109c0-3.286,1.852-5.168,4.566-5.168c2.715,0,4.566,1.897,4.566,5.168
		c0,3.286-1.851,5.26-4.566,5.26C150.031,63.37,148.18,61.395,148.18,58.109z M154.983,58.109c0-2.006-0.864-3.209-2.237-3.209
		s-2.237,1.203-2.237,3.209c0,2.021,0.864,3.301,2.237,3.301S154.983,60.13,154.983,58.109z"/>
	<path fill="#5B5B5B" d="M159.146,53.126h2.283v5.631c0,1.975,0.617,2.653,1.743,2.653c1.126,0,1.774-0.679,1.774-2.653v-5.631h2.19
		v5.399c0,3.378-1.373,4.844-3.965,4.844c-2.607,0-4.026-1.465-4.026-4.844V53.126z"/>
	<path fill="#5B5B5B" d="M169.958,60.361c0.725,0.617,1.65,1.049,2.483,1.049c0.941,0,1.404-0.371,1.404-0.972
		c0-0.632-0.571-0.833-1.45-1.203l-1.311-0.555c-1.034-0.417-2.021-1.281-2.021-2.746c0-1.666,1.481-2.993,3.579-2.993
		c1.157,0,2.375,0.463,3.24,1.327l-1.157,1.435c-0.663-0.509-1.28-0.802-2.083-0.802c-0.787,0-1.28,0.339-1.28,0.91
		c0,0.617,0.663,0.833,1.527,1.188l1.296,0.524c1.219,0.494,1.99,1.312,1.99,2.73c0,1.666-1.389,3.116-3.795,3.116
		c-1.312,0-2.7-0.494-3.718-1.45L169.958,60.361z"/>
	<path fill="#5B5B5B" d="M177.886,53.126h2.268v10.058h-2.268V53.126z"/>
	<path fill="#5B5B5B" d="M182.529,53.126h2.329l2.623,4.998l0.987,2.222h0.062c-0.093-1.064-0.278-2.484-0.278-3.672v-3.548h2.16
		v10.058h-2.33l-2.622-5.014l-0.987-2.19h-0.062c0.093,1.11,0.278,2.453,0.278,3.641v3.563h-2.16V53.126z"/>
	<path fill="#5B5B5B" d="M192.786,53.126h6.294v1.913h-4.026v2.021h3.425v1.897h-3.425v2.314h4.181v1.913h-6.448V53.126z"/>
	<path fill="#5B5B5B" d="M124.504,79.488c0.725,0.756,1.743,1.265,2.792,1.265c1.327,0,2.113-0.664,2.113-1.651
		c0-1.034-0.725-1.357-1.681-1.79l-1.45-0.632c-0.957-0.401-2.052-1.126-2.052-2.607c0-1.543,1.342-2.685,3.178-2.685
		c1.204,0,2.268,0.509,2.993,1.25l-0.694,0.833c-0.617-0.586-1.358-0.957-2.299-0.957c-1.126,0-1.882,0.571-1.882,1.481
		c0,0.972,0.879,1.342,1.682,1.681l1.435,0.617c1.172,0.509,2.083,1.203,2.083,2.7c0,1.604-1.312,2.885-3.44,2.885
		c-1.419,0-2.668-0.586-3.548-1.496L124.504,79.488z"/>
	<path fill="#5B5B5B" d="M132.802,75.23h-1.111v-0.957l1.172-0.077l0.154-2.098h1.064v2.098h2.021v1.034h-2.021v4.166
		c0,0.925,0.293,1.45,1.157,1.45c0.262,0,0.602-0.108,0.848-0.2l0.247,0.956c-0.417,0.139-0.926,0.278-1.388,0.278
		c-1.604,0-2.145-1.018-2.145-2.499V75.23z"/>
	<path fill="#5B5B5B" d="M137.568,71.836c0-0.494,0.386-0.818,0.879-0.818s0.879,0.324,0.879,0.818c0,0.478-0.385,0.817-0.879,0.817
		S137.568,72.314,137.568,71.836z M137.8,74.196h1.265v7.498H137.8V74.196z"/>
	<path fill="#5B5B5B" d="M141.594,70.71h1.265v9.564c0,0.401,0.17,0.556,0.355,0.556c0.077,0,0.139,0,0.278-0.031l0.169,0.956
		c-0.169,0.077-0.386,0.124-0.725,0.124c-0.956,0-1.342-0.602-1.342-1.697V70.71z"/>
	<path fill="#5B5B5B" d="M148.442,74.011c1.836,0,3.471,1.435,3.471,3.949c0,2.484-1.635,3.918-3.471,3.918
		s-3.471-1.435-3.471-3.918C144.971,75.446,146.606,74.011,148.442,74.011z M148.442,80.83c1.296,0,2.16-1.157,2.16-2.87
		c0-1.728-0.864-2.9-2.16-2.9c-1.28,0-2.16,1.172-2.16,2.9C146.283,79.673,147.162,80.83,148.442,80.83z"/>
	<path fill="#5B5B5B" d="M123.887,95.096c0-3.239,1.774-5.199,4.319-5.199s4.335,1.975,4.335,5.199c0,3.255-1.79,5.292-4.335,5.292
		S123.887,98.352,123.887,95.096z M131.199,95.096c0-2.514-1.188-4.072-2.993-4.072c-1.805,0-2.993,1.558-2.993,4.072
		c0,2.53,1.188,4.166,2.993,4.166C130.012,99.262,131.199,97.626,131.199,95.096z"/>
	<path fill="#5B5B5B" d="M134.807,93.739h-1.111v-0.957l1.172-0.077l0.154-2.098h1.064v2.098h2.021v1.034h-2.021v4.166
		c0,0.925,0.293,1.45,1.157,1.45c0.262,0,0.602-0.108,0.848-0.2l0.247,0.956c-0.417,0.139-0.926,0.278-1.388,0.278
		c-1.604,0-2.145-1.018-2.145-2.499V93.739z"/>
	<path fill="#5B5B5B" d="M139.805,89.219h1.265v2.993l-0.046,1.543c0.709-0.679,1.465-1.234,2.499-1.234
		c1.573,0,2.283,1.019,2.283,2.931v4.751h-1.265v-4.582c0-1.404-0.432-2.006-1.419-2.006c-0.771,0-1.296,0.401-2.052,1.157v5.43
		h-1.265V89.219z"/>
	<path fill="#5B5B5B" d="M151.003,92.52c1.913,0,2.993,1.373,2.993,3.518c0,0.262-0.016,0.509-0.046,0.694h-5.06
		c0.093,1.62,1.064,2.638,2.5,2.638c0.709,0,1.311-0.231,1.866-0.586l0.448,0.833c-0.648,0.417-1.45,0.771-2.468,0.771
		c-2.006,0-3.595-1.465-3.595-3.918C147.64,94.017,149.291,92.52,151.003,92.52z M152.885,95.898c0-1.527-0.679-2.375-1.851-2.375
		c-1.049,0-2.005,0.864-2.16,2.375H152.885z"/>
	<path fill="#5B5B5B" d="M155.846,92.705h1.049l0.108,1.358h0.046c0.509-0.941,1.28-1.543,2.129-1.543
		c0.324,0,0.555,0.046,0.802,0.154l-0.247,1.111c-0.247-0.077-0.417-0.124-0.725-0.124c-0.632,0-1.388,0.463-1.897,1.728v4.813
		h-1.265V92.705z"/>
	<path fill="#5B5B5B" d="M124.473,108.592h3.101c2.237,0,3.733,0.756,3.733,2.977c0,2.129-1.512,3.132-3.733,3.132h-1.82v4.011
		h-1.281V108.592z M127.42,113.652c1.759,0,2.607-0.648,2.607-2.083c0-1.465-0.864-1.944-2.607-1.944h-1.666v4.026H127.42z"/>
	<path fill="#5B5B5B" d="M133.126,111.214h1.28v4.582c0,1.404,0.417,2.005,1.404,2.005c0.771,0,1.311-0.386,2.021-1.265v-5.322
		h1.265v7.498h-1.049l-0.108-1.172h-0.046c-0.694,0.817-1.435,1.357-2.468,1.357c-1.589,0-2.298-1.018-2.298-2.931V111.214z"/>
	<path fill="#5B5B5B" d="M141.625,111.214h1.049l0.108,1.08h0.046c0.709-0.709,1.481-1.265,2.515-1.265
		c1.573,0,2.283,1.018,2.283,2.931v4.751h-1.265v-4.582c0-1.404-0.432-2.006-1.419-2.006c-0.771,0-1.296,0.401-2.052,1.157v5.43
		h-1.265V111.214z"/>
	<path fill="#5B5B5B" d="M150.278,112.248h-1.111v-0.957l1.172-0.077l0.154-2.098h1.064v2.098h2.021v1.034h-2.021v4.166
		c0,0.925,0.293,1.45,1.157,1.45c0.262,0,0.602-0.108,0.848-0.2l0.247,0.956c-0.417,0.139-0.926,0.278-1.388,0.278
		c-1.604,0-2.145-1.018-2.145-2.499V112.248z"/>
	<path fill="#5B5B5B" d="M158.037,111.029c1.836,0,3.471,1.435,3.471,3.949c0,2.484-1.635,3.918-3.471,3.918
		s-3.471-1.435-3.471-3.918C154.565,112.464,156.201,111.029,158.037,111.029z M158.037,117.848c1.296,0,2.16-1.157,2.16-2.87
		c0-1.728-0.864-2.9-2.16-2.9c-1.28,0-2.16,1.172-2.16,2.9C155.877,116.691,156.756,117.848,158.037,117.848z"/>
	<path fill="#5B5B5B" d="M124.473,127.101h3.008c2.052,0,3.471,0.694,3.471,2.468c0,1.003-0.571,1.898-1.759,2.206v0.062
		c1.481,0.231,2.345,1.034,2.345,2.422c0,1.99-1.573,2.962-3.841,2.962h-3.225V127.101z M127.25,131.42
		c1.728,0,2.438-0.617,2.438-1.743c0-1.096-0.802-1.558-2.375-1.558h-1.558v3.301H127.25z M127.512,136.203
		c1.743,0,2.762-0.633,2.762-2.005c0-1.25-0.987-1.82-2.762-1.82h-1.758v3.826H127.512z"/>
	<path fill="#5B5B5B" d="M133.419,129.723h1.049l0.108,1.358h0.046c0.509-0.941,1.28-1.543,2.129-1.543
		c0.324,0,0.555,0.046,0.802,0.154l-0.247,1.111c-0.247-0.077-0.417-0.124-0.725-0.124c-0.632,0-1.388,0.463-1.897,1.728v4.813
		h-1.265V129.723z"/>
	<path fill="#5B5B5B" d="M142.628,132.469c0-0.957-0.324-1.882-1.542-1.882c-0.879,0-1.651,0.401-2.237,0.802l-0.509-0.879
		c0.694-0.447,1.743-0.972,2.946-0.972c1.836,0,2.607,1.219,2.607,3.085v4.597h-1.049l-0.108-0.895h-0.031
		c-0.725,0.586-1.558,1.08-2.484,1.08c-1.265,0-2.206-0.787-2.206-2.129C138.015,133.642,139.435,132.824,142.628,132.469z
		 M140.576,136.388c0.725,0,1.327-0.355,2.052-1.003v-2.083c-2.515,0.309-3.363,0.926-3.363,1.882
		C139.265,136.033,139.835,136.388,140.576,136.388z"/>
	<path fill="#5B5B5B" d="M145.203,129.723h1.312l1.419,4.258c0.216,0.741,0.463,1.497,0.694,2.206h0.062
		c0.216-0.709,0.463-1.465,0.679-2.206l1.419-4.258h1.25l-2.653,7.498h-1.481L145.203,129.723z"/>
	<path fill="#5B5B5B" d="M156.34,129.538c1.836,0,3.471,1.435,3.471,3.949c0,2.484-1.635,3.918-3.471,3.918
		s-3.471-1.435-3.471-3.918C152.869,130.973,154.504,129.538,156.34,129.538z M156.34,136.357c1.296,0,2.16-1.157,2.16-2.87
		c0-1.728-0.864-2.9-2.16-2.9c-1.28,0-2.16,1.172-2.16,2.9C154.18,135.2,155.06,136.357,156.34,136.357z"/>
	<path fill="#5B5B5B" d="M124.273,164.181h3.44c2.083,0,3.703,0.571,3.703,2.499c0,0.895-0.509,1.867-1.682,2.175v0.062
		c1.435,0.262,2.175,1.018,2.175,2.36c0,2.052-1.728,2.962-3.903,2.962h-3.733V164.181z M127.605,168.238
		c1.111,0,1.589-0.478,1.589-1.234c0-0.756-0.509-1.064-1.573-1.064h-1.08v2.298H127.605z M127.821,172.48
		c1.234,0,1.867-0.463,1.867-1.373c0-0.879-0.617-1.265-1.867-1.265h-1.28v2.638H127.821z"/>
	<path fill="#5B5B5B" d="M133.542,164.181h2.283v5.631c0,1.975,0.617,2.653,1.743,2.653c1.126,0,1.774-0.679,1.774-2.653v-5.631
		h2.19v5.399c0,3.378-1.373,4.844-3.965,4.844c-2.607,0-4.026-1.465-4.026-4.844V164.181z"/>
	<path fill="#5B5B5B" d="M144.355,171.416c0.725,0.617,1.65,1.049,2.483,1.049c0.941,0,1.404-0.371,1.404-0.972
		c0-0.632-0.571-0.833-1.45-1.203l-1.311-0.555c-1.034-0.417-2.021-1.281-2.021-2.746c0-1.666,1.481-2.993,3.579-2.993
		c1.157,0,2.375,0.463,3.24,1.327l-1.157,1.435c-0.663-0.509-1.28-0.802-2.083-0.802c-0.787,0-1.28,0.339-1.28,0.91
		c0,0.617,0.663,0.833,1.527,1.188l1.296,0.524c1.219,0.494,1.99,1.312,1.99,2.73c0,1.666-1.389,3.116-3.795,3.116
		c-1.312,0-2.7-0.494-3.718-1.45L144.355,171.416z"/>
	<path fill="#5B5B5B" d="M124.473,182.627h2.53c3.116,0,4.782,1.805,4.782,5.014c0,3.225-1.666,5.106-4.721,5.106h-2.592V182.627z
		 M126.911,191.699c2.36,0,3.548-1.497,3.548-4.058c0-2.545-1.188-3.964-3.548-3.964h-1.157v8.022H126.911z"/>
	<path fill="#5B5B5B" d="M133.728,185.25h1.28v4.582c0,1.404,0.417,2.005,1.404,2.005c0.771,0,1.311-0.386,2.021-1.265v-5.322h1.265
		v7.498h-1.049l-0.108-1.172h-0.046c-0.694,0.817-1.435,1.357-2.468,1.357c-1.589,0-2.298-1.018-2.298-2.931V185.25z"/>
	<path fill="#5B5B5B" d="M145.281,185.065c0.987,0,1.682,0.417,2.191,0.895l-0.633,0.817c-0.447-0.386-0.91-0.663-1.512-0.663
		c-1.357,0-2.345,1.172-2.345,2.9c0,1.712,0.941,2.87,2.314,2.87c0.709,0,1.311-0.355,1.759-0.756l0.57,0.833
		c-0.679,0.602-1.542,0.972-2.437,0.972c-1.99,0-3.518-1.435-3.518-3.918C141.671,186.5,143.353,185.065,145.281,185.065z"/>
	<path fill="#5B5B5B" d="M153.348,187.996c0-0.957-0.324-1.882-1.542-1.882c-0.879,0-1.651,0.401-2.237,0.802l-0.509-0.879
		c0.694-0.448,1.743-0.972,2.946-0.972c1.836,0,2.607,1.219,2.607,3.085v4.597h-1.049l-0.108-0.895h-0.031
		c-0.725,0.586-1.558,1.08-2.484,1.08c-1.265,0-2.206-0.787-2.206-2.129C148.735,189.168,150.154,188.351,153.348,187.996z
		 M151.296,191.915c0.725,0,1.327-0.355,2.052-1.003v-2.083c-2.515,0.309-3.363,0.926-3.363,1.882
		C149.985,191.56,150.555,191.915,151.296,191.915z"/>
	<path fill="#5B5B5B" d="M157.218,186.284h-1.111v-0.957l1.172-0.077l0.154-2.098h1.064v2.098h2.021v1.034h-2.021v4.166
		c0,0.925,0.293,1.45,1.157,1.45c0.262,0,0.602-0.108,0.848-0.2l0.247,0.956c-0.417,0.139-0.926,0.278-1.388,0.278
		c-1.604,0-2.145-1.018-2.145-2.499V186.284z"/>
	<path fill="#5B5B5B" d="M164.978,185.065c1.836,0,3.471,1.435,3.471,3.949c0,2.484-1.635,3.918-3.471,3.918
		s-3.471-1.435-3.471-3.918C161.506,186.5,163.142,185.065,164.978,185.065z M164.978,191.884c1.296,0,2.16-1.157,2.16-2.87
		c0-1.728-0.864-2.9-2.16-2.9c-1.28,0-2.16,1.172-2.16,2.9C162.818,190.727,163.697,191.884,164.978,191.884z"/>
	<path fill="#5B5B5B" d="M123.887,206.15c0-3.239,1.774-5.199,4.319-5.199s4.335,1.975,4.335,5.199c0,3.255-1.79,5.292-4.335,5.292
		S123.887,209.406,123.887,206.15z M131.199,206.15c0-2.514-1.188-4.072-2.993-4.072c-1.805,0-2.993,1.558-2.993,4.072
		c0,2.53,1.188,4.166,2.993,4.166C130.012,210.316,131.199,208.681,131.199,206.15z"/>
	<path fill="#5B5B5B" d="M134.807,204.793h-1.111v-0.957l1.172-0.077l0.154-2.098h1.064v2.098h2.021v1.034h-2.021v4.166
		c0,0.925,0.293,1.45,1.157,1.45c0.262,0,0.602-0.108,0.848-0.2l0.247,0.956c-0.417,0.139-0.926,0.278-1.388,0.278
		c-1.604,0-2.145-1.018-2.145-2.499V204.793z"/>
	<path fill="#5B5B5B" d="M139.805,200.273h1.265v2.993l-0.046,1.543c0.709-0.679,1.465-1.234,2.499-1.234
		c1.573,0,2.283,1.018,2.283,2.931v4.751h-1.265v-4.582c0-1.404-0.432-2.006-1.419-2.006c-0.771,0-1.296,0.401-2.052,1.157v5.43
		h-1.265V200.273z"/>
	<path fill="#5B5B5B" d="M151.003,203.574c1.913,0,2.993,1.373,2.993,3.518c0,0.262-0.016,0.509-0.046,0.694h-5.06
		c0.093,1.62,1.064,2.638,2.5,2.638c0.709,0,1.311-0.231,1.866-0.586l0.448,0.833c-0.648,0.417-1.45,0.771-2.468,0.771
		c-2.006,0-3.595-1.465-3.595-3.918C147.64,205.071,149.291,203.574,151.003,203.574z M152.885,206.953
		c0-1.527-0.679-2.375-1.851-2.375c-1.049,0-2.005,0.864-2.16,2.375H152.885z"/>
	<path fill="#5B5B5B" d="M155.846,203.759h1.049l0.108,1.358h0.046c0.509-0.941,1.28-1.543,2.129-1.543
		c0.324,0,0.555,0.046,0.802,0.154l-0.247,1.111c-0.247-0.077-0.417-0.124-0.725-0.124c-0.632,0-1.388,0.463-1.897,1.728v4.813
		h-1.265V203.759z"/>
	<path fill="#5B5B5B" d="M124.473,219.646h1.512l1.959,5.43l0.741,2.067h0.062l0.709-2.067l1.944-5.43h1.512v10.12h-1.219v-5.569
		c0-0.895,0.093-2.098,0.17-2.993h-0.062l-0.817,2.252l-1.944,5.292h-0.725l-1.959-5.292l-0.802-2.252h-0.062
		c0.062,0.895,0.169,2.098,0.169,2.993v5.569h-1.188V219.646z"/>
	<path fill="#5B5B5B" d="M135.332,219.908c0-0.494,0.386-0.818,0.879-0.818s0.879,0.324,0.879,0.818
		c0,0.478-0.385,0.817-0.879,0.817S135.332,220.386,135.332,219.908z M135.563,222.268h1.265v7.498h-1.265V222.268z"/>
	<path fill="#5B5B5B" d="M139.157,228.069c0.648,0.524,1.311,0.895,2.206,0.895c0.987,0,1.481-0.524,1.481-1.172
		c0-0.771-0.895-1.111-1.712-1.419c-1.064-0.385-2.237-0.895-2.237-2.16c0-1.203,0.957-2.129,2.576-2.129
		c0.941,0,1.759,0.386,2.33,0.849l-0.602,0.802c-0.509-0.386-1.049-0.664-1.712-0.664c-0.941,0-1.373,0.509-1.373,1.08
		c0,0.709,0.817,0.972,1.666,1.296c1.08,0.401,2.283,0.848,2.283,2.268c0,1.219-0.972,2.237-2.746,2.237
		c-1.064,0-2.083-0.447-2.792-1.034L139.157,228.069z"/>
	<path fill="#5B5B5B" d="M148.874,222.083c0.987,0,1.682,0.417,2.191,0.895l-0.633,0.817c-0.447-0.386-0.91-0.663-1.512-0.663
		c-1.357,0-2.345,1.172-2.345,2.9c0,1.712,0.941,2.87,2.314,2.87c0.709,0,1.311-0.355,1.759-0.756l0.571,0.833
		c-0.679,0.602-1.543,0.972-2.438,0.972c-1.99,0-3.518-1.435-3.518-3.918C145.264,223.518,146.946,222.083,148.874,222.083z"/>
</g>
<g>
	<path fill="#5B5B5B" d="M227.929,60.361c0.725,0.617,1.65,1.049,2.483,1.049c0.941,0,1.404-0.371,1.404-0.972
		c0-0.632-0.571-0.833-1.45-1.203l-1.311-0.555c-1.034-0.417-2.021-1.281-2.021-2.746c0-1.666,1.481-2.993,3.579-2.993
		c1.157,0,2.375,0.463,3.24,1.327l-1.157,1.435c-0.663-0.509-1.28-0.802-2.083-0.802c-0.787,0-1.28,0.339-1.28,0.91
		c0,0.617,0.663,0.833,1.527,1.188l1.296,0.524c1.219,0.494,1.99,1.312,1.99,2.73c0,1.666-1.388,3.116-3.795,3.116
		c-1.312,0-2.7-0.494-3.718-1.45L227.929,60.361z"/>
	<path fill="#5B5B5B" d="M235.856,53.126h3.671c2.175,0,3.934,0.802,3.934,3.24c0,2.36-1.805,3.409-3.934,3.409h-1.404v3.409h-2.268
		V53.126z M239.389,57.97c1.25,0,1.851-0.555,1.851-1.604c0-1.049-0.648-1.435-1.851-1.435h-1.265v3.039H239.389z"/>
	<path fill="#5B5B5B" d="M244.725,58.109c0-3.286,1.852-5.168,4.566-5.168c2.715,0,4.566,1.897,4.566,5.168
		c0,3.286-1.851,5.26-4.566,5.26C246.576,63.37,244.725,61.395,244.725,58.109z M251.528,58.109c0-2.006-0.864-3.209-2.237-3.209
		s-2.237,1.203-2.237,3.209c0,2.021,0.864,3.301,2.237,3.301S251.528,60.13,251.528,58.109z"/>
	<path fill="#5B5B5B" d="M261.198,63.185l-1.928-3.625h-1.25v3.625h-2.268V53.126h3.625c2.129,0,3.872,0.74,3.872,3.131
		c0,1.481-0.709,2.422-1.79,2.9l2.283,4.026H261.198z M258.021,57.754h1.172c1.188,0,1.836-0.509,1.836-1.497
		s-0.648-1.327-1.836-1.327h-1.172V57.754z"/>
	<path fill="#5B5B5B" d="M266.905,55.04h-2.761v-1.913h7.806v1.913h-2.761v8.145h-2.283V55.04z"/>
	<path fill="#5B5B5B" d="M273.784,60.361c0.725,0.617,1.65,1.049,2.483,1.049c0.941,0,1.404-0.371,1.404-0.972
		c0-0.632-0.571-0.833-1.45-1.203l-1.311-0.555c-1.034-0.417-2.021-1.281-2.021-2.746c0-1.666,1.481-2.993,3.579-2.993
		c1.157,0,2.375,0.463,3.24,1.327l-1.157,1.435c-0.663-0.509-1.28-0.802-2.083-0.802c-0.787,0-1.28,0.339-1.28,0.91
		c0,0.617,0.663,0.833,1.527,1.188l1.296,0.524c1.219,0.494,1.99,1.312,1.99,2.73c0,1.666-1.388,3.116-3.795,3.116
		c-1.312,0-2.7-0.494-3.718-1.45L273.784,60.361z"/>
	<path fill="#5B5B5B" d="M227.096,79.704c0.586,0.586,1.327,1.126,2.483,1.126c1.204,0,2.16-0.879,2.16-2.252
		c0-1.357-0.833-2.16-2.098-2.16c-0.679,0-1.096,0.216-1.682,0.602l-0.679-0.432l0.324-4.736h4.921v1.095h-3.811l-0.262,2.916
		c0.463-0.247,0.91-0.401,1.512-0.401c1.682,0,3.055,0.957,3.055,3.085s-1.604,3.332-3.317,3.332c-1.574,0-2.545-0.663-3.224-1.342
		L227.096,79.704z"/>
	<path fill="#5B5B5B" d="M234.437,76.742c0-3.301,1.188-5.075,3.163-5.075c1.959,0,3.147,1.774,3.147,5.075
		s-1.188,5.137-3.147,5.137C235.625,81.879,234.437,80.043,234.437,76.742z M239.512,76.742c0-2.885-0.771-4.057-1.913-4.057
		c-1.157,0-1.928,1.172-1.928,4.057s0.771,4.119,1.928,4.119C238.741,80.861,239.512,79.626,239.512,76.742z"/>
	<path fill="#5B5B5B" d="M242.103,76.742c0-3.301,1.188-5.075,3.163-5.075c1.959,0,3.147,1.774,3.147,5.075
		s-1.188,5.137-3.147,5.137C243.291,81.879,242.103,80.043,242.103,76.742z M247.178,76.742c0-2.885-0.771-4.057-1.913-4.057
		c-1.157,0-1.928,1.172-1.928,4.057s0.771,4.119,1.928,4.119C246.407,80.861,247.178,79.626,247.178,76.742z"/>
	<path fill="#5B5B5B" d="M226.895,95.096c0-3.239,1.774-5.199,4.319-5.199s4.335,1.975,4.335,5.199c0,3.255-1.79,5.292-4.335,5.292
		S226.895,98.352,226.895,95.096z M234.207,95.096c0-2.514-1.188-4.072-2.993-4.072c-1.805,0-2.993,1.558-2.993,4.072
		c0,2.53,1.188,4.166,2.993,4.166C233.02,99.262,234.207,97.626,234.207,95.096z"/>
	<path fill="#5B5B5B" d="M237.815,93.739h-1.111v-0.957l1.172-0.077l0.154-2.098h1.064v2.098h2.021v1.034h-2.021v4.166
		c0,0.925,0.293,1.45,1.157,1.45c0.262,0,0.602-0.108,0.848-0.2l0.247,0.956c-0.417,0.139-0.926,0.278-1.388,0.278
		c-1.604,0-2.145-1.018-2.145-2.499V93.739z"/>
	<path fill="#5B5B5B" d="M242.812,89.219h1.265v2.993l-0.046,1.543c0.709-0.679,1.465-1.234,2.499-1.234
		c1.573,0,2.283,1.019,2.283,2.931v4.751h-1.265v-4.582c0-1.404-0.432-2.006-1.419-2.006c-0.771,0-1.296,0.401-2.052,1.157v5.43
		h-1.265V89.219z"/>
	<path fill="#5B5B5B" d="M254.011,92.52c1.913,0,2.993,1.373,2.993,3.518c0,0.262-0.016,0.509-0.046,0.694h-5.06
		c0.093,1.62,1.064,2.638,2.5,2.638c0.709,0,1.311-0.231,1.866-0.586l0.448,0.833c-0.648,0.417-1.45,0.771-2.468,0.771
		c-2.006,0-3.595-1.465-3.595-3.918C250.647,94.017,252.298,92.52,254.011,92.52z M255.893,95.898c0-1.527-0.679-2.375-1.851-2.375
		c-1.049,0-2.005,0.864-2.16,2.375H255.893z"/>
	<path fill="#5B5B5B" d="M258.854,92.705h1.049l0.108,1.358h0.046c0.509-0.941,1.28-1.543,2.129-1.543
		c0.324,0,0.555,0.046,0.802,0.154l-0.247,1.111c-0.247-0.077-0.417-0.124-0.725-0.124c-0.632,0-1.388,0.463-1.897,1.728v4.813
		h-1.265V92.705z"/>
	<path fill="#5B5B5B" d="M227.512,116.506c0.725,0.756,1.743,1.265,2.792,1.265c1.327,0,2.113-0.664,2.113-1.651
		c0-1.034-0.725-1.357-1.681-1.79l-1.45-0.632c-0.957-0.401-2.052-1.126-2.052-2.607c0-1.543,1.342-2.685,3.178-2.685
		c1.204,0,2.268,0.509,2.993,1.25l-0.694,0.833c-0.617-0.586-1.358-0.957-2.299-0.957c-1.126,0-1.882,0.571-1.882,1.481
		c0,0.972,0.879,1.342,1.682,1.681l1.435,0.617c1.172,0.509,2.083,1.204,2.083,2.7c0,1.604-1.312,2.885-3.44,2.885
		c-1.419,0-2.668-0.586-3.548-1.496L227.512,116.506z"/>
	<path fill="#5B5B5B" d="M235.81,112.248h-1.111v-0.957l1.172-0.077l0.154-2.098h1.064v2.098h2.021v1.034h-2.021v4.166
		c0,0.925,0.293,1.45,1.157,1.45c0.262,0,0.602-0.108,0.848-0.2l0.247,0.956c-0.417,0.139-0.926,0.278-1.388,0.278
		c-1.604,0-2.145-1.018-2.145-2.499V112.248z"/>
	<path fill="#5B5B5B" d="M240.576,108.854c0-0.494,0.386-0.818,0.879-0.818s0.879,0.324,0.879,0.818
		c0,0.478-0.385,0.817-0.879,0.817S240.576,109.333,240.576,108.854z M240.808,111.214h1.265v7.498h-1.265V111.214z"/>
	<path fill="#5B5B5B" d="M244.602,107.728h1.265v9.564c0,0.401,0.17,0.556,0.355,0.556c0.077,0,0.139,0,0.278-0.031l0.169,0.956
		c-0.169,0.077-0.386,0.124-0.725,0.124c-0.956,0-1.342-0.602-1.342-1.697V107.728z"/>
	<path fill="#5B5B5B" d="M251.45,111.029c1.836,0,3.471,1.435,3.471,3.949c0,2.484-1.635,3.918-3.471,3.918
		s-3.471-1.435-3.471-3.918C247.979,112.464,249.614,111.029,251.45,111.029z M251.45,117.848c1.296,0,2.16-1.157,2.16-2.87
		c0-1.728-0.864-2.9-2.16-2.9c-1.28,0-2.16,1.172-2.16,2.9C249.291,116.691,250.17,117.848,251.45,117.848z"/>
	<path fill="#5B5B5B" d="M227.281,145.672h6.294v1.913h-4.026v2.021h3.425v1.897h-3.425v2.314h4.181v1.913h-6.448V145.672z"/>
	<path fill="#5B5B5B" d="M236.381,152.907c0.725,0.617,1.65,1.049,2.483,1.049c0.941,0,1.404-0.371,1.404-0.972
		c0-0.632-0.571-0.833-1.45-1.203l-1.311-0.555c-1.034-0.417-2.021-1.281-2.021-2.746c0-1.666,1.481-2.993,3.579-2.993
		c1.157,0,2.375,0.463,3.24,1.327l-1.157,1.435c-0.663-0.509-1.28-0.802-2.083-0.802c-0.787,0-1.28,0.339-1.28,0.91
		c0,0.617,0.663,0.833,1.527,1.188l1.296,0.524c1.219,0.494,1.99,1.312,1.99,2.73c0,1.666-1.388,3.116-3.795,3.116
		c-1.312,0-2.7-0.494-3.718-1.45L236.381,152.907z"/>
	<path fill="#5B5B5B" d="M245.959,147.584h-2.761v-1.913h7.806v1.913h-2.761v8.146h-2.283V147.584z"/>
	<path fill="#5B5B5B" d="M256.679,153.339h-3.07l-0.617,2.391h-2.314l3.147-10.058h2.73l3.147,10.058h-2.407L256.679,153.339z
		 M256.217,151.565l-0.231-0.926c-0.278-1.003-0.556-2.19-0.818-3.24h-0.062c-0.247,1.064-0.509,2.237-0.787,3.24l-0.247,0.926
		H256.217z"/>
	<path fill="#5B5B5B" d="M262.139,147.584h-2.761v-1.913h7.806v1.913h-2.761v8.146h-2.283V147.584z"/>
	<path fill="#5B5B5B" d="M268.756,145.672h6.294v1.913h-4.026v2.021h3.425v1.897h-3.425v2.314h4.181v1.913h-6.448V145.672z"/>
	<path fill="#5B5B5B" d="M284.735,145.487c1.25,0,2.298,0.617,2.978,1.311l-1.25,1.404c-0.509-0.463-1.002-0.756-1.697-0.756
		c-1.404,0-2.499,1.219-2.499,3.24c0,2.067,0.957,3.271,2.438,3.271c0.817,0,1.419-0.355,1.913-0.895l1.25,1.373
		c-0.833,0.972-1.943,1.481-3.193,1.481c-2.607,0-4.736-1.774-4.736-5.152C279.938,147.431,282.144,145.487,284.735,145.487z"/>
	<path fill="#5B5B5B" d="M294.113,153.339h-3.07l-0.617,2.391h-2.314l3.147-10.058h2.73l3.147,10.058h-2.407L294.113,153.339z
		 M293.65,151.565l-0.231-0.926c-0.278-1.003-0.556-2.19-0.818-3.24h-0.062c-0.247,1.064-0.509,2.237-0.787,3.24l-0.247,0.926
		H293.65z"/>
	<path fill="#5B5B5B" d="M303.676,155.73l-1.928-3.625h-1.25v3.625h-2.268v-10.058h3.625c2.129,0,3.872,0.74,3.872,3.131
		c0,1.481-0.709,2.422-1.79,2.9l2.283,4.026H303.676z M300.498,150.3h1.172c1.188,0,1.836-0.509,1.836-1.497
		s-0.648-1.327-1.836-1.327h-1.172V150.3z"/>
	<path fill="#5B5B5B" d="M227.512,172.033c0.725,0.756,1.743,1.265,2.792,1.265c1.327,0,2.113-0.664,2.113-1.651
		c0-1.034-0.725-1.357-1.681-1.79l-1.45-0.632c-0.957-0.401-2.052-1.126-2.052-2.607c0-1.543,1.342-2.685,3.178-2.685
		c1.204,0,2.268,0.509,2.993,1.25l-0.694,0.833c-0.617-0.586-1.358-0.957-2.299-0.957c-1.126,0-1.882,0.571-1.882,1.481
		c0,0.972,0.879,1.342,1.682,1.681l1.435,0.617c1.172,0.509,2.083,1.203,2.083,2.7c0,1.604-1.312,2.885-3.44,2.885
		c-1.419,0-2.668-0.586-3.548-1.496L227.512,172.033z"/>
	<path fill="#5B5B5B" d="M235.81,167.775h-1.111v-0.957l1.172-0.077l0.154-2.098h1.064v2.098h2.021v1.034h-2.021v4.166
		c0,0.925,0.293,1.45,1.157,1.45c0.262,0,0.602-0.108,0.848-0.2l0.247,0.956c-0.417,0.139-0.926,0.278-1.388,0.278
		c-1.604,0-2.145-1.018-2.145-2.499V167.775z"/>
	<path fill="#5B5B5B" d="M240.576,164.381c0-0.494,0.386-0.818,0.879-0.818s0.879,0.324,0.879,0.818
		c0,0.478-0.385,0.817-0.879,0.817S240.576,164.859,240.576,164.381z M240.808,166.741h1.265v7.498h-1.265V166.741z"/>
	<path fill="#5B5B5B" d="M244.602,163.255h1.265v9.564c0,0.401,0.17,0.556,0.355,0.556c0.077,0,0.139,0,0.278-0.031l0.169,0.956
		c-0.169,0.077-0.386,0.124-0.725,0.124c-0.956,0-1.342-0.602-1.342-1.697V163.255z"/>
	<path fill="#5B5B5B" d="M251.45,166.556c1.836,0,3.471,1.435,3.471,3.949c0,2.484-1.635,3.918-3.471,3.918
		s-3.471-1.435-3.471-3.918C247.979,167.991,249.614,166.556,251.45,166.556z M251.45,173.375c1.296,0,2.16-1.157,2.16-2.87
		c0-1.728-0.864-2.9-2.16-2.9c-1.28,0-2.16,1.172-2.16,2.9C249.291,172.218,250.17,173.375,251.45,173.375z"/>
	<path fill="#5B5B5B" d="M227.481,182.627h2.53c3.116,0,4.782,1.805,4.782,5.014c0,3.225-1.666,5.106-4.721,5.106h-2.592V182.627z
		 M229.918,191.699c2.36,0,3.548-1.497,3.548-4.058c0-2.545-1.188-3.964-3.548-3.964h-1.157v8.022H229.918z"/>
	<path fill="#5B5B5B" d="M236.736,185.25h1.28v4.582c0,1.404,0.417,2.005,1.404,2.005c0.771,0,1.311-0.386,2.021-1.265v-5.322h1.265
		v7.498h-1.049l-0.108-1.172h-0.046c-0.694,0.817-1.435,1.357-2.468,1.357c-1.589,0-2.298-1.018-2.298-2.931V185.25z"/>
	<path fill="#5B5B5B" d="M248.289,185.065c0.987,0,1.682,0.417,2.191,0.895l-0.633,0.817c-0.447-0.386-0.91-0.663-1.512-0.663
		c-1.357,0-2.345,1.172-2.345,2.9c0,1.712,0.941,2.87,2.314,2.87c0.709,0,1.311-0.355,1.759-0.756l0.57,0.833
		c-0.679,0.602-1.542,0.972-2.437,0.972c-1.99,0-3.518-1.435-3.518-3.918C244.679,186.5,246.36,185.065,248.289,185.065z"/>
	<path fill="#5B5B5B" d="M256.355,187.996c0-0.957-0.324-1.882-1.542-1.882c-0.879,0-1.651,0.401-2.237,0.802l-0.509-0.879
		c0.694-0.448,1.743-0.972,2.946-0.972c1.836,0,2.607,1.219,2.607,3.085v4.597h-1.049l-0.108-0.895h-0.031
		c-0.725,0.586-1.558,1.08-2.484,1.08c-1.265,0-2.206-0.787-2.206-2.129C251.743,189.168,253.162,188.351,256.355,187.996z
		 M254.304,191.915c0.725,0,1.327-0.355,2.052-1.003v-2.083c-2.515,0.309-3.363,0.926-3.363,1.882
		C252.993,191.56,253.563,191.915,254.304,191.915z"/>
	<path fill="#5B5B5B" d="M260.226,186.284h-1.111v-0.957l1.172-0.077l0.154-2.098h1.064v2.098h2.021v1.034h-2.021v4.166
		c0,0.925,0.293,1.45,1.157,1.45c0.262,0,0.602-0.108,0.848-0.2l0.247,0.956c-0.417,0.139-0.926,0.278-1.388,0.278
		c-1.604,0-2.145-1.018-2.145-2.499V186.284z"/>
	<path fill="#5B5B5B" d="M267.985,185.065c1.836,0,3.471,1.435,3.471,3.949c0,2.484-1.635,3.918-3.471,3.918
		s-3.471-1.435-3.471-3.918C264.514,186.5,266.149,185.065,267.985,185.065z M267.985,191.884c1.296,0,2.16-1.157,2.16-2.87
		c0-1.728-0.864-2.9-2.16-2.9c-1.28,0-2.16,1.172-2.16,2.9C265.826,190.727,266.705,191.884,267.985,191.884z"/>
	<path fill="#5B5B5B" d="M226.895,206.15c0-3.239,1.774-5.199,4.319-5.199s4.335,1.975,4.335,5.199c0,3.255-1.79,5.292-4.335,5.292
		S226.895,209.406,226.895,206.15z M234.207,206.15c0-2.514-1.188-4.072-2.993-4.072c-1.805,0-2.993,1.558-2.993,4.072
		c0,2.53,1.188,4.166,2.993,4.166C233.02,210.316,234.207,208.681,234.207,206.15z"/>
	<path fill="#5B5B5B" d="M237.815,204.793h-1.111v-0.957l1.172-0.077l0.154-2.098h1.064v2.098h2.021v1.034h-2.021v4.166
		c0,0.925,0.293,1.45,1.157,1.45c0.262,0,0.602-0.108,0.848-0.2l0.247,0.956c-0.417,0.139-0.926,0.278-1.388,0.278
		c-1.604,0-2.145-1.018-2.145-2.499V204.793z"/>
	<path fill="#5B5B5B" d="M242.812,200.273h1.265v2.993l-0.046,1.543c0.709-0.679,1.465-1.234,2.499-1.234
		c1.573,0,2.283,1.018,2.283,2.931v4.751h-1.265v-4.582c0-1.404-0.432-2.006-1.419-2.006c-0.771,0-1.296,0.401-2.052,1.157v5.43
		h-1.265V200.273z"/>
	<path fill="#5B5B5B" d="M254.011,203.574c1.913,0,2.993,1.373,2.993,3.518c0,0.262-0.016,0.509-0.046,0.694h-5.06
		c0.093,1.62,1.064,2.638,2.5,2.638c0.709,0,1.311-0.231,1.866-0.586l0.448,0.833c-0.648,0.417-1.45,0.771-2.468,0.771
		c-2.006,0-3.595-1.465-3.595-3.918C250.647,205.071,252.298,203.574,254.011,203.574z M255.893,206.953
		c0-1.527-0.679-2.375-1.851-2.375c-1.049,0-2.005,0.864-2.16,2.375H255.893z"/>
	<path fill="#5B5B5B" d="M258.854,203.759h1.049l0.108,1.358h0.046c0.509-0.941,1.28-1.543,2.129-1.543
		c0.324,0,0.555,0.046,0.802,0.154l-0.247,1.111c-0.247-0.077-0.417-0.124-0.725-0.124c-0.632,0-1.388,0.463-1.897,1.728v4.813
		h-1.265V203.759z"/>
</g>
<g>
	<path fill="#5B5B5B" d="M331.406,59.075c0.725,0.617,1.65,1.049,2.483,1.049c0.941,0,1.404-0.371,1.404-0.972
		c0-0.632-0.571-0.833-1.45-1.203l-1.311-0.555c-1.034-0.417-2.021-1.281-2.021-2.746c0-1.666,1.481-2.993,3.579-2.993
		c1.157,0,2.375,0.463,3.24,1.327l-1.157,1.435c-0.663-0.509-1.28-0.802-2.083-0.802c-0.787,0-1.28,0.339-1.28,0.91
		c0,0.617,0.663,0.833,1.527,1.188l1.296,0.524c1.219,0.494,1.99,1.312,1.99,2.73c0,1.666-1.388,3.116-3.795,3.116
		c-1.312,0-2.7-0.494-3.718-1.45L331.406,59.075z"/>
	<path fill="#5B5B5B" d="M339.334,51.84h2.406l1.682,4.52l0.602,1.759h0.062l0.602-1.759l1.635-4.52h2.391v10.058H346.6v-3.687
		c0-0.987,0.185-2.453,0.293-3.425h-0.062l-0.833,2.33l-1.542,3.903h-0.91l-1.543-3.903l-0.802-2.33h-0.062
		c0.108,0.972,0.278,2.438,0.278,3.425v3.687h-2.083V51.84z"/>
	<path fill="#5B5B5B" d="M355.807,59.507h-3.07l-0.617,2.391h-2.314l3.147-10.058h2.73l3.147,10.058h-2.407L355.807,59.507z
		 M355.345,57.733l-0.231-0.926c-0.278-1.003-0.556-2.19-0.818-3.24h-0.062c-0.247,1.064-0.509,2.237-0.787,3.24l-0.247,0.926
		H355.345z"/>
	<path fill="#5B5B5B" d="M359.925,51.84h2.268v8.145h3.98v1.913h-6.248V51.84z"/>
	<path fill="#5B5B5B" d="M367.915,51.84h2.268v8.145h3.98v1.913h-6.248V51.84z"/>
	<path fill="#5B5B5B" d="M383.432,51.655c1.25,0,2.298,0.617,2.978,1.311l-1.25,1.404c-0.509-0.463-1.002-0.756-1.697-0.756
		c-1.404,0-2.499,1.219-2.499,3.24c0,2.067,0.957,3.271,2.438,3.271c0.817,0,1.419-0.355,1.913-0.895l1.25,1.373
		c-0.833,0.972-1.943,1.481-3.193,1.481c-2.607,0-4.736-1.774-4.736-5.152C378.634,53.599,380.84,51.655,383.432,51.655z"/>
	<path fill="#5B5B5B" d="M392.809,59.507h-3.07l-0.617,2.391h-2.314l3.147-10.058h2.73l3.147,10.058h-2.407L392.809,59.507z
		 M392.347,57.733l-0.231-0.926c-0.278-1.003-0.556-2.19-0.818-3.24h-0.062c-0.247,1.064-0.509,2.237-0.787,3.24l-0.247,0.926
		H392.347z"/>
	<path fill="#5B5B5B" d="M402.372,61.898l-1.928-3.625h-1.25v3.625h-2.268V51.84h3.625c2.129,0,3.872,0.74,3.872,3.131
		c0,1.481-0.709,2.422-1.79,2.9l2.283,4.026H402.372z M399.194,56.468h1.172c1.188,0,1.836-0.509,1.836-1.497
		s-0.648-1.327-1.836-1.327h-1.172V56.468z"/>
	<path fill="#5B5B5B" d="M330.958,70.288h3.101c2.237,0,3.733,0.756,3.733,2.977c0,2.129-1.512,3.132-3.733,3.132h-1.82v4.011
		h-1.281V70.288z M333.905,75.347c1.759,0,2.607-0.648,2.607-2.083c0-1.465-0.864-1.944-2.607-1.944h-1.666v4.026H333.905z"/>
	<path fill="#5B5B5B" d="M339.612,72.91h1.28v4.582c0,1.404,0.417,2.005,1.404,2.005c0.771,0,1.311-0.386,2.021-1.265V72.91h1.265
		v7.498h-1.049l-0.108-1.172h-0.046c-0.694,0.817-1.435,1.357-2.468,1.357c-1.589,0-2.298-1.018-2.298-2.931V72.91z"/>
	<path fill="#5B5B5B" d="M348.11,72.91h1.049l0.108,1.08h0.046c0.709-0.709,1.481-1.265,2.515-1.265
		c1.573,0,2.283,1.018,2.283,2.931v4.751h-1.265v-4.582c0-1.404-0.432-2.006-1.419-2.006c-0.771,0-1.296,0.401-2.052,1.157v5.43
		h-1.265V72.91z"/>
	<path fill="#5B5B5B" d="M356.763,73.943h-1.111v-0.957l1.172-0.077l0.154-2.098h1.064v2.098h2.021v1.034h-2.021v4.166
		c0,0.925,0.293,1.45,1.157,1.45c0.262,0,0.602-0.108,0.848-0.2l0.247,0.956c-0.417,0.139-0.926,0.278-1.388,0.278
		c-1.604,0-2.145-1.018-2.145-2.499V73.943z"/>
	<path fill="#5B5B5B" d="M364.522,72.725c1.836,0,3.471,1.435,3.471,3.949c0,2.484-1.635,3.918-3.471,3.918
		s-3.471-1.435-3.471-3.918C361.051,74.16,362.686,72.725,364.522,72.725z M364.522,79.543c1.296,0,2.16-1.157,2.16-2.87
		c0-1.728-0.864-2.9-2.16-2.9c-1.28,0-2.16,1.172-2.16,2.9C362.362,78.386,363.242,79.543,364.522,79.543z"/>
	<path fill="#5B5B5B" d="M330.958,88.796h3.101c2.237,0,3.733,0.756,3.733,2.977c0,2.129-1.512,3.132-3.733,3.132h-1.82v4.011
		h-1.281V88.796z M333.905,93.856c1.759,0,2.607-0.648,2.607-2.083c0-1.465-0.864-1.944-2.607-1.944h-1.666v4.026H333.905z"/>
	<path fill="#5B5B5B" d="M343.299,94.165c0-0.957-0.324-1.882-1.542-1.882c-0.879,0-1.651,0.401-2.237,0.802l-0.509-0.879
		c0.694-0.447,1.743-0.972,2.946-0.972c1.836,0,2.607,1.219,2.607,3.085v4.597h-1.049l-0.108-0.895h-0.031
		c-0.725,0.586-1.558,1.08-2.484,1.08c-1.265,0-2.206-0.787-2.206-2.129C338.686,95.337,340.105,94.52,343.299,94.165z
		 M341.247,98.083c0.725,0,1.327-0.355,2.052-1.003v-2.083c-2.515,0.309-3.363,0.926-3.363,1.882
		C339.936,97.728,340.506,98.083,341.247,98.083z"/>
	<path fill="#5B5B5B" d="M346.954,91.418h1.049l0.108,1.08h0.046c0.709-0.709,1.481-1.265,2.515-1.265
		c1.573,0,2.283,1.018,2.283,2.931v4.751h-1.265v-4.582c0-1.404-0.432-2.006-1.419-2.006c-0.771,0-1.296,0.401-2.052,1.157v5.43
		h-1.265V91.418z"/>
	<path fill="#5B5B5B" d="M358.105,91.233c0.864,0,1.435,0.324,2.098,0.864l-0.062-1.281v-2.885h1.28v10.984h-1.049l-0.108-0.879
		h-0.046c-0.586,0.571-1.389,1.064-2.268,1.064c-1.882,0-3.101-1.419-3.101-3.918C354.851,92.746,356.393,91.233,358.105,91.233z
		 M358.229,98.037c0.694,0,1.296-0.339,1.913-1.034v-3.918c-0.633-0.571-1.204-0.787-1.82-0.787c-1.204,0-2.16,1.157-2.16,2.87
		C356.162,96.957,356.917,98.037,358.229,98.037z"/>
	<path fill="#5B5B5B" d="M368.193,94.165c0-0.957-0.324-1.882-1.542-1.882c-0.879,0-1.651,0.401-2.237,0.802l-0.509-0.879
		c0.694-0.447,1.743-0.972,2.946-0.972c1.836,0,2.607,1.219,2.607,3.085v4.597h-1.049l-0.108-0.895h-0.031
		c-0.725,0.586-1.558,1.08-2.484,1.08c-1.265,0-2.206-0.787-2.206-2.129C363.58,95.337,365,94.52,368.193,94.165z M366.141,98.083
		c0.725,0,1.327-0.355,2.052-1.003v-2.083c-2.515,0.309-3.363,0.926-3.363,1.882C364.83,97.728,365.401,98.083,366.141,98.083z"/>
	<path fill="#5B5B5B" d="M330.373,112.319c0-3.239,1.774-5.199,4.319-5.199s4.335,1.975,4.335,5.199c0,3.255-1.79,5.292-4.335,5.292
		S330.373,115.574,330.373,112.319z M337.685,112.319c0-2.514-1.188-4.072-2.993-4.072c-1.805,0-2.993,1.558-2.993,4.072
		c0,2.53,1.188,4.166,2.993,4.166C336.497,116.484,337.685,114.849,337.685,112.319z"/>
	<path fill="#5B5B5B" d="M341.292,110.961h-1.111v-0.957l1.172-0.077l0.154-2.098h1.064v2.098h2.021v1.034h-2.021v4.166
		c0,0.925,0.293,1.45,1.157,1.45c0.262,0,0.602-0.108,0.848-0.2l0.247,0.956c-0.417,0.139-0.926,0.278-1.388,0.278
		c-1.604,0-2.145-1.018-2.145-2.499V110.961z"/>
	<path fill="#5B5B5B" d="M346.29,106.441h1.265v2.993l-0.046,1.543c0.709-0.679,1.465-1.234,2.499-1.234
		c1.573,0,2.283,1.019,2.283,2.931v4.751h-1.265v-4.582c0-1.404-0.432-2.006-1.419-2.006c-0.771,0-1.296,0.401-2.052,1.157v5.43
		h-1.265V106.441z"/>
	<path fill="#5B5B5B" d="M357.488,109.743c1.913,0,2.993,1.373,2.993,3.518c0,0.262-0.016,0.509-0.046,0.694h-5.06
		c0.093,1.62,1.064,2.638,2.5,2.638c0.709,0,1.311-0.231,1.866-0.586l0.448,0.833c-0.648,0.417-1.45,0.771-2.468,0.771
		c-2.006,0-3.595-1.465-3.595-3.918C354.125,111.239,355.776,109.743,357.488,109.743z M359.37,113.121
		c0-1.527-0.679-2.375-1.851-2.375c-1.049,0-2.005,0.864-2.16,2.375H359.37z"/>
	<path fill="#5B5B5B" d="M362.331,109.928h1.049l0.108,1.358h0.046c0.509-0.941,1.28-1.543,2.129-1.543
		c0.324,0,0.555,0.046,0.802,0.154l-0.247,1.111c-0.247-0.077-0.417-0.124-0.725-0.124c-0.632,0-1.388,0.463-1.897,1.728v4.813
		h-1.265V109.928z"/>
	<path fill="#5B5B5B" d="M330.99,133.728c0.725,0.756,1.743,1.265,2.792,1.265c1.327,0,2.113-0.664,2.113-1.651
		c0-1.034-0.725-1.357-1.681-1.79l-1.45-0.632c-0.957-0.401-2.052-1.126-2.052-2.607c0-1.543,1.342-2.685,3.178-2.685
		c1.204,0,2.268,0.509,2.993,1.25l-0.694,0.833c-0.617-0.586-1.358-0.957-2.299-0.957c-1.126,0-1.882,0.571-1.882,1.481
		c0,0.972,0.879,1.342,1.682,1.681l1.435,0.617c1.172,0.509,2.083,1.203,2.083,2.7c0,1.604-1.312,2.885-3.44,2.885
		c-1.419,0-2.668-0.586-3.548-1.496L330.99,133.728z"/>
	<path fill="#5B5B5B" d="M341.879,128.251c1.913,0,2.993,1.373,2.993,3.518c0,0.262-0.016,0.509-0.046,0.694h-5.06
		c0.093,1.62,1.064,2.638,2.5,2.638c0.709,0,1.311-0.231,1.866-0.586l0.448,0.833c-0.648,0.417-1.45,0.771-2.468,0.771
		c-2.006,0-3.595-1.465-3.595-3.918C338.516,129.748,340.167,128.251,341.879,128.251z M343.761,131.63
		c0-1.527-0.679-2.375-1.851-2.375c-1.049,0-2.005,0.864-2.16,2.375H343.761z"/>
	<path fill="#5B5B5B" d="M346.491,126.077c0-0.494,0.386-0.818,0.879-0.818s0.879,0.324,0.879,0.818
		c0,0.478-0.385,0.817-0.879,0.817S346.491,126.555,346.491,126.077z M346.722,128.437h1.265v7.498h-1.265V128.437z"/>
	<path fill="#5B5B5B" d="M353.57,128.251c0.987,0,1.682,0.417,2.191,0.895l-0.633,0.817c-0.447-0.386-0.91-0.663-1.512-0.663
		c-1.357,0-2.345,1.172-2.345,2.9c0,1.712,0.941,2.87,2.314,2.87c0.709,0,1.311-0.355,1.759-0.756l0.571,0.833
		c-0.679,0.602-1.543,0.972-2.438,0.972c-1.99,0-3.518-1.435-3.518-3.918C349.96,129.687,351.642,128.251,353.57,128.251z"/>
	<path fill="#5B5B5B" d="M360.033,128.251c1.913,0,2.993,1.373,2.993,3.518c0,0.262-0.016,0.509-0.046,0.694h-5.06
		c0.093,1.62,1.064,2.638,2.5,2.638c0.709,0,1.311-0.231,1.866-0.586l0.448,0.833c-0.648,0.417-1.45,0.771-2.468,0.771
		c-2.006,0-3.595-1.465-3.595-3.918C356.67,129.748,358.321,128.251,360.033,128.251z M361.915,131.63
		c0-1.527-0.679-2.375-1.851-2.375c-1.049,0-2.005,0.864-2.16,2.375H361.915z"/>
	<path fill="#5B5B5B" d="M364.876,128.437h1.049l0.108,1.08h0.046c0.709-0.709,1.481-1.265,2.515-1.265
		c1.573,0,2.283,1.019,2.283,2.931v4.751h-1.265v-4.582c0-1.404-0.432-2.006-1.419-2.006c-0.771,0-1.296,0.401-2.052,1.157v5.43
		h-1.265V128.437z"/>
	<path fill="#5B5B5B" d="M373.529,129.47h-1.111v-0.957l1.172-0.077l0.154-2.098h1.064v2.098h2.021v1.034h-2.021v4.166
		c0,0.925,0.293,1.45,1.157,1.45c0.262,0,0.602-0.108,0.848-0.2l0.247,0.956c-0.417,0.139-0.926,0.278-1.388,0.278
		c-1.604,0-2.145-1.018-2.145-2.499V129.47z"/>
	<path fill="#5B5B5B" d="M381.288,128.251c1.836,0,3.471,1.435,3.471,3.949c0,2.484-1.635,3.918-3.471,3.918
		s-3.471-1.435-3.471-3.918C377.816,129.687,379.452,128.251,381.288,128.251z M381.288,135.07c1.296,0,2.16-1.157,2.16-2.87
		c0-1.728-0.864-2.9-2.16-2.9c-1.28,0-2.16,1.172-2.16,2.9C379.128,133.913,380.007,135.07,381.288,135.07z"/>
	<path fill="#5B5B5B" d="M330.28,167.877c0-3.286,1.852-5.168,4.566-5.168c2.715,0,4.566,1.897,4.566,5.168
		c0,3.286-1.851,5.26-4.566,5.26C332.131,173.137,330.28,171.163,330.28,167.877z M337.083,167.877c0-2.006-0.864-3.209-2.237-3.209
		s-2.237,1.203-2.237,3.209c0,2.021,0.864,3.301,2.237,3.301S337.083,169.897,337.083,167.877z"/>
	<path fill="#5B5B5B" d="M342.959,164.807h-2.761v-1.913h7.806v1.913h-2.761v8.145h-2.283V164.807z"/>
	<path fill="#5B5B5B" d="M349.576,162.894h2.268v3.872h3.471v-3.872h2.283v10.058h-2.283v-4.196h-3.471v4.196h-2.268V162.894z"/>
	<path fill="#5B5B5B" d="M359.972,162.894h6.294v1.913h-4.026v2.021h3.425v1.897h-3.425v2.314h4.181v1.913h-6.448V162.894z"/>
	<path fill="#5B5B5B" d="M373.869,172.952l-1.928-3.625h-1.25v3.625h-2.268v-10.058h3.625c2.129,0,3.872,0.74,3.872,3.131
		c0,1.481-0.709,2.422-1.79,2.9l2.283,4.026H373.869z M370.691,167.522h1.172c1.188,0,1.836-0.509,1.836-1.497
		s-0.648-1.327-1.836-1.327h-1.172V167.522z"/>
	<path fill="#5B5B5B" d="M330.958,181.341h2.53c3.116,0,4.782,1.805,4.782,5.013c0,3.225-1.666,5.106-4.721,5.106h-2.592V181.341z
		 M333.396,190.412c2.36,0,3.548-1.497,3.548-4.058c0-2.545-1.188-3.964-3.548-3.964h-1.157v8.022H333.396z"/>
	<path fill="#5B5B5B" d="M340.213,183.963h1.28v4.582c0,1.404,0.417,2.005,1.404,2.005c0.771,0,1.311-0.386,2.021-1.265v-5.322
		h1.265v7.498h-1.049l-0.108-1.172h-0.046c-0.694,0.817-1.435,1.357-2.468,1.357c-1.589,0-2.298-1.018-2.298-2.931V183.963z"/>
	<path fill="#5B5B5B" d="M351.766,183.778c0.987,0,1.682,0.417,2.191,0.895l-0.633,0.817c-0.447-0.386-0.91-0.663-1.512-0.663
		c-1.357,0-2.345,1.172-2.345,2.9c0,1.712,0.941,2.87,2.314,2.87c0.709,0,1.311-0.355,1.759-0.756l0.57,0.833
		c-0.679,0.602-1.542,0.972-2.437,0.972c-1.99,0-3.518-1.435-3.518-3.918C348.156,185.213,349.838,183.778,351.766,183.778z"/>
	<path fill="#5B5B5B" d="M359.833,186.709c0-0.957-0.324-1.882-1.542-1.882c-0.879,0-1.651,0.401-2.237,0.802l-0.509-0.879
		c0.694-0.447,1.743-0.972,2.946-0.972c1.836,0,2.607,1.219,2.607,3.085v4.597h-1.049l-0.108-0.895h-0.031
		c-0.725,0.586-1.558,1.08-2.484,1.08c-1.265,0-2.206-0.787-2.206-2.129C355.22,187.882,356.64,187.064,359.833,186.709z
		 M357.781,190.628c0.725,0,1.327-0.355,2.052-1.003v-2.083c-2.515,0.309-3.363,0.926-3.363,1.882
		C356.47,190.273,357.041,190.628,357.781,190.628z"/>
	<path fill="#5B5B5B" d="M363.704,184.997h-1.111v-0.957l1.172-0.077l0.154-2.098h1.064v2.098h2.021v1.034h-2.021v4.166
		c0,0.925,0.293,1.45,1.157,1.45c0.262,0,0.602-0.108,0.848-0.2l0.247,0.956c-0.417,0.139-0.926,0.278-1.388,0.278
		c-1.604,0-2.145-1.018-2.145-2.499V184.997z"/>
	<path fill="#5B5B5B" d="M371.463,183.778c1.836,0,3.471,1.435,3.471,3.949c0,2.484-1.635,3.918-3.471,3.918
		s-3.471-1.435-3.471-3.918C367.992,185.213,369.627,183.778,371.463,183.778z M371.463,190.597c1.296,0,2.16-1.157,2.16-2.87
		c0-1.728-0.864-2.9-2.16-2.9c-1.28,0-2.16,1.172-2.16,2.9C369.303,189.44,370.183,190.597,371.463,190.597z"/>
	<path fill="#5B5B5B" d="M330.373,204.864c0-3.239,1.774-5.199,4.319-5.199s4.335,1.975,4.335,5.199c0,3.255-1.79,5.292-4.335,5.292
		S330.373,208.119,330.373,204.864z M337.685,204.864c0-2.514-1.188-4.072-2.993-4.072c-1.805,0-2.993,1.558-2.993,4.072
		c0,2.53,1.188,4.166,2.993,4.166C336.497,209.029,337.685,207.394,337.685,204.864z"/>
	<path fill="#5B5B5B" d="M341.292,203.506h-1.111v-0.957l1.172-0.077l0.154-2.098h1.064v2.098h2.021v1.034h-2.021v4.166
		c0,0.925,0.293,1.45,1.157,1.45c0.262,0,0.602-0.108,0.848-0.2l0.247,0.956c-0.417,0.139-0.926,0.278-1.388,0.278
		c-1.604,0-2.145-1.018-2.145-2.499V203.506z"/>
	<path fill="#5B5B5B" d="M346.29,198.986h1.265v2.993l-0.046,1.543c0.709-0.679,1.465-1.234,2.499-1.234
		c1.573,0,2.283,1.019,2.283,2.931v4.751h-1.265v-4.582c0-1.404-0.432-2.006-1.419-2.006c-0.771,0-1.296,0.401-2.052,1.157v5.43
		h-1.265V198.986z"/>
	<path fill="#5B5B5B" d="M357.488,202.288c1.913,0,2.993,1.373,2.993,3.518c0,0.262-0.016,0.509-0.046,0.694h-5.06
		c0.093,1.62,1.064,2.638,2.5,2.638c0.709,0,1.311-0.231,1.866-0.586l0.448,0.833c-0.648,0.417-1.45,0.771-2.468,0.771
		c-2.006,0-3.595-1.465-3.595-3.918C354.125,203.784,355.776,202.288,357.488,202.288z M359.37,205.666
		c0-1.527-0.679-2.375-1.851-2.375c-1.049,0-2.005,0.864-2.16,2.375H359.37z"/>
	<path fill="#5B5B5B" d="M362.331,202.473h1.049l0.108,1.358h0.046c0.509-0.941,1.28-1.543,2.129-1.543
		c0.324,0,0.555,0.046,0.802,0.154l-0.247,1.111c-0.247-0.077-0.417-0.124-0.725-0.124c-0.632,0-1.388,0.463-1.897,1.728v4.813
		h-1.265V202.473z"/>
</g>
</svg>
