<?xml version="1.0" encoding="utf-8"?>
<!-- Generator: Adobe Illustrator 16.0.0, SVG Export Plug-In . SVG Version: 6.00 Build 0)  -->
<!DOCTYPE svg PUBLIC "-//W3C//DTD SVG 1.1//EN" "http://www.w3.org/Graphics/SVG/1.1/DTD/svg11.dtd">
<svg version="1.1" id="Layer_1" xmlns="http://www.w3.org/2000/svg" xmlns:xlink="http://www.w3.org/1999/xlink" x="0px" y="0px"
	 width="258.812px" height="292.433px" viewBox="0 0 258.812 292.433" enable-background="new 0 0 258.812 292.433"
	 xml:space="preserve">
<path fill="#FFFFFF" d="M258.812,289.517c0,1.611-1.306,2.916-2.915,2.916H3.642c-1.607,0-2.911-1.305-2.911-2.916V2.913
	C0.731,1.304,2.035,0,3.642,0h252.255c1.609,0,2.915,1.304,2.915,2.913V289.517z"/>
<path fill="#FFD600" d="M258.812,2.913c0-1.609-1.306-2.913-2.915-2.913H3.642C2.035,0,0.731,1.304,0.731,2.913v77.24h258.081V2.913
	z"/>
<text transform="matrix(1 0 0 1 15.7793 60.1509)" fill="#5B5B5B" font-family="'SourceSansPro-Semibold'" font-size="26.4246">Thu, Apr 13</text>
<text transform="matrix(1 0 0 1 15.7817 26.1992)" fill="#5B5B5B" font-family="'SourceSansPro-Regular'" font-size="12.3315">2017</text>
<text transform="matrix(1 0 0 1 99.873 101.9937)" fill="#5B5B5B" font-family="'SourceSansPro-Regular'" font-size="14.4544">April 2017</text>
<text transform="matrix(1 0 0 1 24.8311 134.29)" fill="#5B5B5B" font-family="'SourceSansPro-Regular'" font-size="11.4507">S</text>
<text transform="matrix(1 0 0 1 57.3696 134.29)" fill="#5B5B5B" font-family="'SourceSansPro-Regular'" font-size="11.4507">M</text>
<text transform="matrix(1 0 0 1 92.1074 134.29)" fill="#5B5B5B" font-family="'SourceSansPro-Regular'" font-size="11.4507">T</text>
<text transform="matrix(1 0 0 1 124.3169 134.29)" fill="#5B5B5B" font-family="'SourceSansPro-Regular'" font-size="11.4507">W</text>
<text transform="matrix(1 0 0 1 159.3901 134.29)" fill="#5B5B5B" font-family="'SourceSansPro-Regular'" font-size="11.4507">T</text>
<text transform="matrix(1 0 0 1 193.2729 134.29)" fill="#5B5B5B" font-family="'SourceSansPro-Regular'" font-size="11.4507">F</text>
<text transform="matrix(1 0 0 1 226.687 134.29)" fill="#5B5B5B" font-family="'SourceSansPro-Regular'" font-size="11.4507">S</text>
<text transform="matrix(1 0 0 1 226.8984 158.3667)" fill="#5B5B5B" font-family="'SourceSansPro-Regular'" font-size="11.4507">1</text>
<text transform="matrix(1 0 0 1 25.043 180.6821)" fill="#5B5B5B" font-family="'SourceSansPro-Regular'" font-size="11.4507">2</text>
<text transform="matrix(1 0 0 1 58.6865 180.6821)" fill="#5B5B5B" font-family="'SourceSansPro-Regular'" font-size="11.4507">3</text>
<text transform="matrix(1 0 0 1 92.3311 180.6821)" fill="#5B5B5B" font-family="'SourceSansPro-Regular'" font-size="11.4507">4</text>
<text transform="matrix(1 0 0 1 125.9717 180.6821)" fill="#5B5B5B" font-family="'SourceSansPro-Regular'" font-size="11.4507">5</text>
<text transform="matrix(1 0 0 1 159.6133 180.6821)" fill="#5B5B5B" font-family="'SourceSansPro-Regular'" font-size="11.4507">6</text>
<text transform="matrix(1 0 0 1 193.2559 180.6821)" fill="#5B5B5B" font-family="'SourceSansPro-Regular'" font-size="11.4507">7</text>
<text transform="matrix(1 0 0 1 226.8984 180.6821)" fill="#5B5B5B" font-family="'SourceSansPro-Regular'" font-size="11.4507">8</text>
<text transform="matrix(1 0 0 1 25.043 202.9956)" fill="#5B5B5B" font-family="'SourceSansPro-Regular'" font-size="11.4507">9</text>
<text transform="matrix(1 0 0 1 55.8408 202.9956)" fill="#5B5B5B" font-family="'SourceSansPro-Regular'" font-size="11.4507">10</text>
<text transform="matrix(1 0 0 1 89.4854 202.9956)" fill="#5B5B5B" font-family="'SourceSansPro-Regular'" font-size="11.4507">11</text>
<text transform="matrix(1 0 0 1 123.126 202.9956)" fill="#5B5B5B" font-family="'SourceSansPro-Regular'" font-size="11.4507">12</text>
<text transform="matrix(1 0 0 1 190.4102 202.9956)" fill="#5B5B5B" font-family="'SourceSansPro-Regular'" font-size="11.4507">14</text>
<text transform="matrix(1 0 0 1 224.0532 202.9956)" fill="#5B5B5B" font-family="'SourceSansPro-Regular'" font-size="11.4507">15</text>
<text transform="matrix(1 0 0 1 22.1973 225.3101)" fill="#5B5B5B" font-family="'SourceSansPro-Regular'" font-size="11.4507">16</text>
<text transform="matrix(1 0 0 1 55.8408 225.3101)" fill="#5B5B5B" font-family="'SourceSansPro-Regular'" font-size="11.4507">17</text>
<text transform="matrix(1 0 0 1 89.4854 225.3101)" fill="#5B5B5B" font-family="'SourceSansPro-Regular'" font-size="11.4507">18</text>
<text transform="matrix(1 0 0 1 123.126 225.3101)" fill="#5B5B5B" font-family="'SourceSansPro-Regular'" font-size="11.4507">19</text>
<text transform="matrix(1 0 0 1 156.7681 225.3101)" fill="#5B5B5B" font-family="'SourceSansPro-Regular'" font-size="11.4507">20</text>
<text transform="matrix(1 0 0 1 190.4102 225.3101)" fill="#5B5B5B" font-family="'SourceSansPro-Regular'" font-size="11.4507">21</text>
<text transform="matrix(1 0 0 1 224.0532 225.3101)" fill="#5B5B5B" font-family="'SourceSansPro-Regular'" font-size="11.4507">22</text>
<text transform="matrix(1 0 0 1 22.1973 247.624)" fill="#5B5B5B" font-family="'SourceSansPro-Regular'" font-size="11.4507">23</text>
<text transform="matrix(1 0 0 1 55.8408 247.624)" fill="#5B5B5B" font-family="'SourceSansPro-Regular'" font-size="11.4507">24</text>
<text transform="matrix(1 0 0 1 89.4854 247.624)" fill="#5B5B5B" font-family="'SourceSansPro-Regular'" font-size="11.4507">25</text>
<text transform="matrix(1 0 0 1 123.126 247.624)" fill="#5B5B5B" font-family="'SourceSansPro-Regular'" font-size="11.4507">26</text>
<text transform="matrix(1 0 0 1 156.7681 247.624)" fill="#5B5B5B" font-family="'SourceSansPro-Regular'" font-size="11.4507">27</text>
<text transform="matrix(1 0 0 1 190.4102 247.624)" fill="#5B5B5B" font-family="'SourceSansPro-Regular'" font-size="11.4507">28</text>
<text transform="matrix(1 0 0 1 224.0532 247.624)" fill="#5B5B5B" font-family="'SourceSansPro-Regular'" font-size="11.4507">29</text>
<text transform="matrix(1 0 0 1 22.1973 269.3506)" fill="#5B5B5B" font-family="'SourceSansPro-Regular'" font-size="11.4507">30</text>
<circle fill="#FFE94D" cx="162.459" cy="199.972" r="10.597"/>
<text transform="matrix(1 0 0 1 156.7681 202.9956)" fill="#5B5B5B" font-family="'SourceSansPro-Regular'" font-size="11.4507">13</text>
<polyline fill="none" stroke="#333333" stroke-miterlimit="10" points="240.566,100.95 243.839,97.677 240.315,94.153 "/>
<polyline fill="none" stroke="#333333" stroke-miterlimit="10" points="18.978,94.153 15.707,97.425 19.23,100.948 "/>
</svg>
