<?xml version="1.0" encoding="utf-8"?>
<!-- Generator: Adobe Illustrator 16.0.0, SVG Export Plug-In . SVG Version: 6.00 Build 0)  -->
<!DOCTYPE svg PUBLIC "-//W3C//DTD SVG 1.1//EN" "http://www.w3.org/Graphics/SVG/1.1/DTD/svg11.dtd">
<svg version="1.1" id="Layer_1" xmlns="http://www.w3.org/2000/svg" xmlns:xlink="http://www.w3.org/1999/xlink" x="0px" y="0px"
	 width="427.143px" height="102.819px" viewBox="0 0 427.143 102.819" enable-background="new 0 0 427.143 102.819"
	 xml:space="preserve">
<rect x="199.231" opacity="0.2" fill="#B3B3B3" width="72.638" height="66.127"/>
<rect x="126.59" y="32.701" opacity="0.2" fill="#B3B3B3" width="72.641" height="33.426"/>
<rect x="53.864" y="54.68" opacity="0.2" fill="#B3B3B3" width="72.64" height="10.805"/>
<rect x="271.869" y="43.229" opacity="0.2" fill="#B3B3B3" width="72.642" height="22.897"/>
<line fill="none" stroke="#5B5B5B" stroke-width="3" stroke-miterlimit="10" x1="6.371" y1="66.527" x2="417.296" y2="66.527"/>
<g>
	<path fill="#333333" d="M3.038,94.568c0-4.66,1.677-7.164,4.464-7.164c2.765,0,4.442,2.504,4.442,7.164s-1.677,7.251-4.442,7.251
		C4.714,101.819,3.038,99.228,3.038,94.568z M10.201,94.568c0-4.072-1.088-5.727-2.7-5.727c-1.633,0-2.722,1.655-2.722,5.727
		s1.088,5.814,2.722,5.814C9.113,100.382,10.201,98.64,10.201,94.568z"/>
</g>
<g>
	<path fill="#333333" d="M407.17,100.077h3.179V89.843h-2.526v-1.154c1.263-0.218,2.177-0.566,2.939-1.023h1.372v12.412h2.875v1.48
		h-7.839V100.077z"/>
	<path fill="#333333" d="M417.231,94.568c0-4.66,1.677-7.164,4.464-7.164c2.765,0,4.442,2.504,4.442,7.164s-1.677,7.251-4.442,7.251
		C418.908,101.819,417.231,99.228,417.231,94.568z M424.395,94.568c0-4.072-1.088-5.727-2.7-5.727c-1.633,0-2.722,1.655-2.722,5.727
		s1.088,5.814,2.722,5.814C423.306,100.382,424.395,98.64,424.395,94.568z"/>
</g>
<path fill="#5B5B5B" d="M0,67.623c0-4.455,3.614-8.07,8.074-8.07c4.456,0,8.067,3.615,8.067,8.07c0,4.459-3.611,8.074-8.067,8.074
	C3.614,75.697,0,72.082,0,67.623z"/>
<path fill="#FFD600" d="M336.439,67.623c0-4.455,3.614-8.07,8.071-8.07c4.454,0,8.07,3.615,8.07,8.07
	c0,4.459-3.616,8.074-8.07,8.074C340.053,75.697,336.439,72.082,336.439,67.623z"/>
<path fill="#FFD600" d="M25.013,67.623c0-4.455,3.613-8.07,8.071-8.07c4.454,0,8.069,3.615,8.069,8.07
	c0,4.459-3.616,8.074-8.069,8.074C28.626,75.697,25.013,72.082,25.013,67.623z"/>
<path fill="#5B5B5B" d="M410,67.623c0-4.455,3.615-8.07,8.074-8.07c4.454,0,8.068,3.615,8.068,8.07c0,4.459-3.614,8.074-8.068,8.074
	C413.616,75.697,410,72.082,410,67.623z"/>
<line fill="none" stroke="#FFD600" stroke-width="5" stroke-miterlimit="10" x1="32.957" y1="67.096" x2="345.408" y2="67.096"/>
</svg>
