<?xml version="1.0" encoding="utf-8"?>
<!-- Generator: Adobe Illustrator 16.0.0, SVG Export Plug-In . SVG Version: 6.00 Build 0)  -->
<!DOCTYPE svg PUBLIC "-//W3C//DTD SVG 1.1//EN" "http://www.w3.org/Graphics/SVG/1.1/DTD/svg11.dtd">
<svg version="1.1" id="Layer_1" xmlns="http://www.w3.org/2000/svg" xmlns:xlink="http://www.w3.org/1999/xlink" x="0px" y="0px"
	 width="309.109px" height="129.033px" viewBox="0 0 309.109 129.033" enable-background="new 0 0 309.109 129.033"
	 xml:space="preserve">
<g>
	<rect x="1.166" fill="#FFFFFF" width="306.74" height="40.506"/>
</g>
<g>
	<rect x="1.166" y="44.328" fill="#FFFFFF" width="306.74" height="84.705"/>
</g>
<g>
	<rect x="1.166" y="45.092" fill="#FFFFFF" width="306.74" height="39.743"/>
</g>
<g enable-background="new    ">
	<path fill="#5B5B5B" d="M24.491,101.499h2.097l2.717,7.53l1.027,2.867h0.085l0.984-2.867l2.695-7.53h2.097v14.034h-1.689v-7.723
		c0-1.241,0.128-2.909,0.235-4.15h-0.086l-1.134,3.123l-2.695,7.338h-1.006l-2.717-7.338l-1.112-3.123h-0.085
		c0.085,1.241,0.235,2.909,0.235,4.15v7.723h-1.647V101.499z"/>
	<path fill="#5B5B5B" d="M39.557,101.863c0-0.685,0.534-1.134,1.219-1.134s1.22,0.449,1.22,1.134c0,0.663-0.535,1.134-1.22,1.134
		S39.557,102.526,39.557,101.863z M39.877,105.136h1.755v10.397h-1.755V105.136z"/>
	<path fill="#5B5B5B" d="M49.377,104.88c1.369,0,2.332,0.577,3.037,1.24l-0.877,1.134c-0.62-0.534-1.262-0.92-2.097-0.92
		c-1.882,0-3.251,1.626-3.251,4.022c0,2.374,1.305,3.979,3.209,3.979c0.983,0,1.818-0.492,2.438-1.048l0.791,1.155
		c-0.94,0.834-2.139,1.348-3.38,1.348c-2.76,0-4.877-1.989-4.877-5.434C44.371,106.869,46.702,104.88,49.377,104.88z"/>
	<path fill="#5B5B5B" d="M54.898,105.136h1.455l0.149,1.883h0.064c0.706-1.305,1.775-2.139,2.952-2.139
		c0.449,0,0.771,0.064,1.112,0.214l-0.342,1.54c-0.343-0.107-0.578-0.171-1.006-0.171c-0.877,0-1.925,0.642-2.631,2.396v6.675
		h-1.755V105.136z"/>
	<path fill="#5B5B5B" d="M66.154,104.88c2.545,0,4.813,1.989,4.813,5.477c0,3.444-2.269,5.434-4.813,5.434
		c-2.546,0-4.813-1.989-4.813-5.434C61.341,106.869,63.608,104.88,66.154,104.88z M66.154,114.335c1.797,0,2.994-1.604,2.994-3.979
		c0-2.396-1.197-4.022-2.994-4.022c-1.776,0-2.995,1.626-2.995,4.022C63.159,112.73,64.378,114.335,66.154,114.335z"/>
	<path fill="#5B5B5B" d="M73.432,113.18c0.898,0.728,1.818,1.241,3.059,1.241c1.369,0,2.054-0.728,2.054-1.626
		c0-1.069-1.24-1.54-2.374-1.968c-1.477-0.535-3.103-1.241-3.103-2.995c0-1.669,1.326-2.952,3.572-2.952
		c1.306,0,2.439,0.535,3.23,1.177l-0.834,1.112c-0.706-0.535-1.455-0.92-2.375-0.92c-1.305,0-1.903,0.706-1.903,1.497
		c0,0.984,1.134,1.348,2.311,1.797c1.497,0.557,3.166,1.177,3.166,3.145c0,1.69-1.348,3.103-3.809,3.103
		c-1.476,0-2.888-0.62-3.872-1.434L73.432,113.18z"/>
	<path fill="#5B5B5B" d="M86.719,104.88c2.545,0,4.813,1.989,4.813,5.477c0,3.444-2.269,5.434-4.813,5.434
		c-2.546,0-4.813-1.989-4.813-5.434C81.905,106.869,84.173,104.88,86.719,104.88z M86.719,114.335c1.797,0,2.994-1.604,2.994-3.979
		c0-2.396-1.197-4.022-2.994-4.022c-1.776,0-2.995,1.626-2.995,4.022C83.724,112.73,84.942,114.335,86.719,114.335z"/>
	<path fill="#5B5B5B" d="M104.949,115.405c-0.578,0.192-1.284,0.385-1.926,0.385c-2.225,0-2.974-1.412-2.974-3.466v-5.755h-3.723
		v8.964h-1.754v-8.964h-1.412v-1.326l1.412-0.107v-1.646c0-2.118,0.963-3.444,3.038-3.444c0.642,0,1.262,0.149,1.732,0.343
		l-0.385,1.348c-0.386-0.172-0.792-0.258-1.177-0.258c-0.984,0-1.455,0.686-1.455,2.012v1.646h3.809l0.214-2.908h1.454v2.908h2.824
		v1.434h-2.824v5.776c0,1.283,0.428,2.011,1.626,2.011c0.364,0,0.835-0.149,1.177-0.278L104.949,115.405z"/>
</g>
<g enable-background="new    ">
	<path fill="#5B5B5B" d="M24.507,58.838h2.114l2.74,7.595l1.036,2.891h0.086l0.992-2.891l2.719-7.595h2.114v14.154h-1.705v-7.789
		c0-1.251,0.13-2.934,0.237-4.186h-0.086l-1.144,3.15l-2.719,7.4H29.88l-2.74-7.4l-1.122-3.15h-0.086
		c0.086,1.251,0.237,2.935,0.237,4.186v7.789h-1.661V58.838z"/>
	<path fill="#5B5B5B" d="M39.701,59.205c0-0.69,0.54-1.144,1.23-1.144s1.229,0.453,1.229,1.144c0,0.669-0.539,1.144-1.229,1.144
		S39.701,59.874,39.701,59.205z M40.025,62.506h1.769v10.486h-1.769V62.506z"/>
	<path fill="#5B5B5B" d="M49.606,62.248c1.381,0,2.352,0.583,3.064,1.251l-0.885,1.144c-0.626-0.54-1.273-0.928-2.114-0.928
		c-1.899,0-3.28,1.64-3.28,4.056c0,2.396,1.316,4.014,3.236,4.014c0.993,0,1.834-0.496,2.46-1.058l0.798,1.165
		c-0.949,0.842-2.157,1.359-3.408,1.359c-2.783,0-4.92-2.007-4.92-5.48C44.558,64.254,46.91,62.248,49.606,62.248z"/>
	<path fill="#5B5B5B" d="M55.176,62.506h1.467l0.151,1.899h0.064c0.712-1.316,1.791-2.158,2.978-2.158
		c0.453,0,0.776,0.064,1.122,0.215l-0.346,1.554c-0.345-0.107-0.582-0.173-1.014-0.173c-0.885,0-1.942,0.647-2.654,2.417v6.731
		h-1.769V62.506z"/>
	<path fill="#5B5B5B" d="M66.526,62.248c2.568,0,4.855,2.006,4.855,5.523c0,3.474-2.287,5.48-4.855,5.48
		c-2.567,0-4.854-2.007-4.854-5.48C61.672,64.254,63.959,62.248,66.526,62.248z M66.526,71.784c1.812,0,3.021-1.618,3.021-4.014
		c0-2.416-1.209-4.056-3.021-4.056c-1.79,0-3.021,1.64-3.021,4.056C63.506,70.166,64.736,71.784,66.526,71.784z"/>
	<path fill="#5B5B5B" d="M78.679,58.838h4.208c2.869,0,4.854,0.971,4.854,3.452c0,1.403-0.799,2.654-2.46,3.085v0.086
		c2.071,0.324,3.279,1.446,3.279,3.388c0,2.783-2.2,4.143-5.372,4.143h-4.51V58.838z M82.562,64.88c2.417,0,3.409-0.863,3.409-2.438
		c0-1.532-1.122-2.179-3.322-2.179h-2.18v4.618H82.562z M82.93,71.568c2.438,0,3.862-0.885,3.862-2.805
		c0-1.748-1.381-2.546-3.862-2.546h-2.46v5.351H82.93z"/>
	<path fill="#5B5B5B" d="M95.124,62.248c2.675,0,4.186,1.92,4.186,4.919c0,0.366-0.021,0.712-0.064,0.971h-7.077
		c0.129,2.266,1.488,3.689,3.495,3.689c0.992,0,1.834-0.323,2.61-0.82l0.626,1.165c-0.906,0.583-2.028,1.079-3.452,1.079
		c-2.805,0-5.027-2.05-5.027-5.48S92.729,62.248,95.124,62.248z M97.756,66.973c0-2.136-0.949-3.323-2.589-3.323
		c-1.467,0-2.805,1.209-3.021,3.323H97.756z"/>
	<path fill="#5B5B5B" d="M105.829,62.248c2.675,0,4.186,1.92,4.186,4.919c0,0.366-0.021,0.712-0.064,0.971h-7.077
		c0.129,2.266,1.488,3.689,3.495,3.689c0.992,0,1.834-0.323,2.61-0.82l0.626,1.165c-0.906,0.583-2.028,1.079-3.452,1.079
		c-2.805,0-5.027-2.05-5.027-5.48S103.434,62.248,105.829,62.248z M108.461,66.973c0-2.136-0.949-3.323-2.589-3.323
		c-1.467,0-2.805,1.209-3.021,3.323H108.461z"/>
	<path fill="#5B5B5B" d="M112.607,62.506h1.467l0.151,1.899h0.064c0.712-1.316,1.791-2.158,2.978-2.158
		c0.453,0,0.776,0.064,1.122,0.215l-0.346,1.554c-0.345-0.107-0.582-0.173-1.014-0.173c-0.885,0-1.942,0.647-2.654,2.417v6.731
		h-1.769V62.506z"/>
</g>
<g>
	<g enable-background="new    ">
		<path fill="#333333" d="M24.127,18.915h2.032l0.171,1.434h0.085c0.877-0.941,1.904-1.69,3.209-1.69
			c1.541,0,2.417,0.706,2.91,1.883c1.005-1.069,2.053-1.883,3.38-1.883c2.225,0,3.251,1.519,3.251,4.172v6.589h-2.481V23.15
			c0-1.732-0.514-2.374-1.604-2.374c-0.663,0-1.391,0.428-2.203,1.305v7.338h-2.46V23.15c0-1.732-0.513-2.374-1.626-2.374
			c-0.642,0-1.39,0.428-2.203,1.305v7.338h-2.46V18.915z"/>
		<path fill="#333333" d="M41.889,15.685c0-0.834,0.643-1.412,1.52-1.412s1.519,0.578,1.519,1.412c0,0.813-0.642,1.391-1.519,1.391
			S41.889,16.498,41.889,15.685z M42.167,18.915h2.46v10.504h-2.46V18.915z"/>
		<path fill="#333333" d="M52.352,18.658c1.348,0,2.375,0.535,3.081,1.22l-1.177,1.562c-0.557-0.492-1.112-0.771-1.775-0.771
			c-1.69,0-2.867,1.391-2.867,3.509c0,2.097,1.155,3.487,2.803,3.487c0.855,0,1.583-0.428,2.16-0.898l1.027,1.562
			c-0.984,0.877-2.246,1.348-3.444,1.348c-2.867,0-5.07-2.011-5.07-5.498C47.089,20.669,49.549,18.658,52.352,18.658z"/>
		<path fill="#333333" d="M57.659,18.915h2.032l0.171,1.861h0.086c0.749-1.369,1.861-2.118,2.974-2.118
			c0.535,0,0.877,0.064,1.198,0.214l-0.428,2.14c-0.364-0.107-0.642-0.171-1.092-0.171c-0.834,0-1.839,0.577-2.481,2.16v6.418h-2.46
			V18.915z"/>
		<path fill="#333333" d="M69.728,18.658c2.632,0,5.006,2.011,5.006,5.52c0,3.487-2.374,5.498-5.006,5.498
			c-2.609,0-4.984-2.011-4.984-5.498C64.743,20.669,67.118,18.658,69.728,18.658z M69.728,27.665c1.541,0,2.481-1.391,2.481-3.487
			c0-2.118-0.94-3.509-2.481-3.509c-1.54,0-2.46,1.391-2.46,3.509C67.268,26.274,68.188,27.665,69.728,27.665z"/>
		<path fill="#333333" d="M77.519,13.375h1.646v21.393h-1.646V13.375z"/>
	</g>
</g>
<g>
	<g>
		<g>
			<path fill="#5B5B5B" d="M285.423,26.385c-4.604,0-8.35-3.498-8.35-7.798c0-4.294,3.745-7.79,8.35-7.79
				c4.603,0,8.353,3.496,8.353,7.79C293.776,22.887,290.026,26.385,285.423,26.385z M285.423,12.99
				c-3.305,0-5.996,2.512-5.996,5.597c0,3.089,2.691,5.603,5.996,5.603c3.308,0,6-2.514,6-5.603
				C291.423,15.502,288.731,12.99,285.423,12.99z"/>
		</g>
	</g>
	<g>
		<g>
			<path fill="#5B5B5B" d="M298.693,32.072c-0.304,0-0.604-0.107-0.833-0.32l-7.774-7.262c-0.459-0.43-0.459-1.123,0-1.553
				c0.461-0.429,1.201-0.429,1.664,0l7.773,7.262c0.457,0.428,0.457,1.121,0,1.553C299.292,31.965,298.994,32.072,298.693,32.072z"
				/>
		</g>
	</g>
</g>
</svg>
