<?xml version="1.0" encoding="utf-8"?>
<!-- Generator: Adobe Illustrator 16.0.0, SVG Export Plug-In . SVG Version: 6.00 Build 0)  -->
<!DOCTYPE svg PUBLIC "-//W3C//DTD SVG 1.1//EN" "http://www.w3.org/Graphics/SVG/1.1/DTD/svg11.dtd">
<svg version="1.1" id="Layer_1" xmlns="http://www.w3.org/2000/svg" xmlns:xlink="http://www.w3.org/1999/xlink" x="0px" y="0px"
	 width="284.334px" height="382.481px" viewBox="0 0 284.334 382.481" enable-background="new 0 0 284.334 382.481"
	 xml:space="preserve">
<path fill="none" stroke="#333333" stroke-miterlimit="10" d="M229.842,250.86"/>
<polyline fill="none" stroke="#333333" stroke-miterlimit="10" points="114.508,16.424 108.808,21.788 103.109,16.424 "/>
<polyline fill="none" stroke="#333333" stroke-miterlimit="10" points="108.807,282.974 114.508,288.337 108.807,293.7 "/>
<polyline fill="none" stroke="#333333" stroke-miterlimit="10" points="202.812,321.194 208.512,326.558 202.812,331.921 "/>
<polyline fill="none" stroke="#333333" stroke-miterlimit="10" points="105.326,358.323 111.026,363.687 105.326,369.05 "/>
<text transform="matrix(1.0627 0 0 1 9.2715 293.3481)" fill="#5B5B5B" font-family="'SourceSansPro-Regular'" font-size="19.7658">opel (538) </text>
<text transform="matrix(1.0627 0 0 1 9.2715 331.7612)" fill="#5B5B5B" font-family="'SourceSansPro-Regular'" font-size="19.7658">mercedes benz (464)</text>
<text transform="matrix(1.0627 0 0 1 9.2715 370.1733)" fill="#5B5B5B" font-family="'SourceSansPro-Regular'" font-size="19.7658">audi (456) </text>
<text transform="matrix(1.0627 0 0 1 9.2715 24.4624)" fill="#5B5B5B" font-family="'SourceSansPro-Semibold'" font-size="19.7658">ford (349)</text>
<text transform="matrix(1.0627 0 0 1 30.1631 62.875)" fill="#5B5B5B" font-family="'SourceSansPro-Regular'" font-size="19.7658">fiesta (81)</text>
<text transform="matrix(1.0627 0 0 1 30.1631 101.2881)" fill="#5B5B5B" font-family="'SourceSansPro-Regular'" font-size="19.7658">focus (76) </text>
<text transform="matrix(1.0627 0 0 1 30.1631 139.7002)" fill="#5B5B5B" font-family="'SourceSansPro-Regular'" font-size="19.7658">mondeo (52)</text>
<text transform="matrix(1.0627 0 0 1 30.1631 178.1123)" fill="#5B5B5B" font-family="'SourceSansPro-Regular'" font-size="19.7658">ka (38)</text>
<text transform="matrix(1.0627 0 0 1 30.1631 216.5249)" fill="#5B5B5B" font-family="'SourceSansPro-Regular'" font-size="19.7658">other (20)</text>
<text transform="matrix(1.0627 0 0 1 30.1631 254.937)" fill="#5B5B5B" font-family="'SourceSansPro-Regular'" font-size="19.7658">escort (16)</text>
</svg>
