<?xml version="1.0" encoding="utf-8"?>
<!-- Generator: Adobe Illustrator 16.0.0, SVG Export Plug-In . SVG Version: 6.00 Build 0)  -->
<!DOCTYPE svg PUBLIC "-//W3C//DTD SVG 1.1//EN" "http://www.w3.org/Graphics/SVG/1.1/DTD/svg11.dtd">
<svg version="1.1" id="Layer_1" xmlns="http://www.w3.org/2000/svg" xmlns:xlink="http://www.w3.org/1999/xlink" x="0px" y="0px"
	 width="284.334px" height="382.48px" viewBox="0 0 284.334 382.48" enable-background="new 0 0 284.334 382.48"
	 xml:space="preserve">
<g>
	<path fill="none" stroke="#333333" stroke-miterlimit="10" d="M229.842,250.86"/>
</g>
<g>
	<polygon fill="#333333" points="108.808,22.475 102.766,16.788 103.452,16.06 108.808,21.102 114.165,16.06 114.851,16.788 	"/>
</g>
<g>
	<polygon fill="#333333" points="109.15,294.065 108.464,293.336 113.778,288.337 108.464,283.338 109.15,282.61 115.237,288.337 	
		"/>
</g>
<g>
	<polygon fill="#333333" points="203.154,332.285 202.469,331.557 207.783,326.558 202.469,321.558 203.154,320.829 
		209.242,326.558 	"/>
</g>
<g>
	<polygon fill="#333333" points="105.669,369.414 104.983,368.686 110.296,363.687 104.983,358.688 105.669,357.959 
		111.755,363.687 	"/>
</g>
<g enable-background="new    ">
	<path fill="#5B5B5B" d="M14.965,283.508c2.5,0,4.728,1.837,4.728,5.059c0,3.181-2.228,5.019-4.728,5.019
		c-2.5,0-4.728-1.838-4.728-5.019C10.238,285.345,12.465,283.508,14.965,283.508z M14.965,292.241c1.765,0,2.942-1.481,2.942-3.675
		c0-2.214-1.177-3.716-2.942-3.716c-1.744,0-2.941,1.502-2.941,3.716C12.024,290.76,13.222,292.241,14.965,292.241z"/>
	<path fill="#5B5B5B" d="M24.102,294.158v3.24h-1.723v-13.654h1.429l0.147,1.106h0.063c0.924-0.731,2.059-1.343,3.257-1.343
		c2.626,0,4.034,1.916,4.034,4.9c0,3.26-2.08,5.177-4.413,5.177c-0.945,0-1.891-0.415-2.836-1.106L24.102,294.158z M26.603,292.221
		c1.681,0,2.92-1.441,2.92-3.812c0-2.115-0.756-3.537-2.689-3.537c-0.861,0-1.723,0.454-2.731,1.304v5.038
		C25.026,291.946,25.93,292.221,26.603,292.221z"/>
	<path fill="#5B5B5B" d="M37.861,283.508c2.605,0,4.076,1.758,4.076,4.504c0,0.336-0.021,0.652-0.063,0.891h-6.892
		c0.126,2.074,1.45,3.379,3.404,3.379c0.966,0,1.786-0.297,2.542-0.752l0.609,1.067c-0.883,0.534-1.975,0.988-3.362,0.988
		c-2.731,0-4.896-1.878-4.896-5.019C33.28,285.424,35.529,283.508,37.861,283.508z M40.424,287.834c0-1.955-0.924-3.043-2.521-3.043
		c-1.429,0-2.731,1.107-2.941,3.043H40.424z"/>
	<path fill="#5B5B5B" d="M44.455,279.279h1.723v12.251c0,0.514,0.231,0.712,0.483,0.712c0.105,0,0.189,0,0.378-0.04l0.231,1.226
		c-0.231,0.099-0.525,0.158-0.988,0.158c-1.303,0-1.828-0.771-1.828-2.174V279.279z"/>
	<path fill="#5B5B5B" d="M54.054,287.855c0-3.478,1.029-6.323,2.773-8.972l1.071,0.475c-1.618,2.51-2.416,5.493-2.416,8.497
		c0,3.003,0.798,5.987,2.416,8.497l-1.071,0.474C55.083,294.178,54.054,291.332,54.054,287.855z"/>
	<path fill="#5B5B5B" d="M60.061,290.799c0.798,0.75,1.807,1.442,3.383,1.442c1.639,0,2.941-1.126,2.941-2.886
		c0-1.738-1.134-2.766-2.857-2.766c-0.924,0-1.492,0.276-2.29,0.771l-0.925-0.554l0.441-6.066h6.703v1.403h-5.19l-0.357,3.735
		c0.63-0.316,1.24-0.514,2.059-0.514c2.29,0,4.16,1.225,4.16,3.951s-2.185,4.269-4.518,4.269c-2.143,0-3.467-0.851-4.391-1.72
		L60.061,290.799z"/>
	<path fill="#5B5B5B" d="M70.563,290.74c0.798,0.79,1.849,1.502,3.425,1.502c1.618,0,2.773-0.909,2.773-2.312
		c0-1.502-1.092-2.51-4.286-2.51v-1.245c2.857,0,3.803-1.028,3.803-2.352c0-1.226-0.883-1.995-2.312-1.995
		c-1.113,0-2.059,0.533-2.857,1.283l-0.924-1.027c1.029-0.908,2.269-1.58,3.845-1.58c2.333,0,4.013,1.166,4.013,3.201
		c0,1.521-0.987,2.489-2.437,3.003v0.079c1.618,0.355,2.899,1.463,2.899,3.201c0,2.232-1.954,3.597-4.413,3.597
		c-2.143,0-3.509-0.851-4.412-1.778L70.563,290.74z"/>
	<path fill="#5B5B5B" d="M82.957,286.729v-0.08c-0.987-0.651-1.87-1.58-1.87-2.904c0-1.937,1.639-3.24,3.803-3.24
		c2.332,0,3.782,1.402,3.782,3.359c0,1.323-1.03,2.449-1.849,3.043v0.078c1.198,0.652,2.332,1.542,2.332,3.241
		c0,1.877-1.723,3.359-4.328,3.359c-2.521,0-4.392-1.462-4.392-3.458C80.436,288.487,81.696,287.361,82.957,286.729z
		 M84.869,292.379c1.555,0,2.626-0.908,2.626-2.213c0-1.62-1.702-2.213-3.635-2.943c-1.071,0.672-1.87,1.6-1.87,2.746
		C81.991,291.371,83.23,292.379,84.869,292.379z M87.18,283.942c0-1.244-0.861-2.232-2.332-2.232c-1.24,0-2.164,0.811-2.164,2.035
		c0,1.502,1.471,2.135,3.088,2.727C86.676,285.721,87.18,284.871,87.18,283.942z"/>
	<path fill="#5B5B5B" d="M93.229,287.855c0-3.004-0.798-5.987-2.417-8.497l1.072-0.475c1.744,2.648,2.773,5.494,2.773,8.972
		s-1.03,6.323-2.773,8.971l-1.072-0.474C92.43,293.842,93.229,290.858,93.229,287.855z"/>
</g>
<g enable-background="new    ">
	<path fill="#5B5B5B" d="M10.995,322.157h1.429l0.147,1.384h0.063c0.882-0.91,1.954-1.621,3.173-1.621
		c1.555,0,2.395,0.691,2.815,1.838c1.072-1.087,2.122-1.838,3.362-1.838c2.101,0,3.11,1.305,3.11,3.755v6.086H23.37v-5.868
		c0-1.799-0.609-2.569-1.891-2.569c-0.798,0-1.618,0.494-2.563,1.481v6.956h-1.723v-5.868c0-1.799-0.609-2.569-1.912-2.569
		c-0.756,0-1.618,0.494-2.563,1.481v6.956h-1.723V322.157z"/>
	<path fill="#5B5B5B" d="M32.231,321.92c2.605,0,4.076,1.759,4.076,4.506c0,0.336-0.021,0.652-0.063,0.889h-6.892
		c0.126,2.075,1.45,3.379,3.404,3.379c0.966,0,1.786-0.296,2.542-0.75l0.609,1.066c-0.883,0.533-1.975,0.988-3.362,0.988
		c-2.731,0-4.896-1.877-4.896-5.02C27.651,323.837,29.899,321.92,32.231,321.92z M34.795,326.248c0-1.957-0.924-3.043-2.521-3.043
		c-1.429,0-2.731,1.105-2.941,3.043H34.795z"/>
	<path fill="#5B5B5B" d="M38.826,322.157h1.429l0.147,1.739h0.063c0.693-1.205,1.744-1.977,2.899-1.977
		c0.441,0,0.756,0.06,1.093,0.197l-0.336,1.424c-0.336-0.1-0.567-0.158-0.987-0.158c-0.861,0-1.891,0.592-2.584,2.213v6.165h-1.723
		V322.157z"/>
	<path fill="#5B5B5B" d="M50.064,321.92c1.345,0,2.29,0.533,2.983,1.146l-0.861,1.047c-0.609-0.494-1.24-0.85-2.059-0.85
		c-1.849,0-3.194,1.502-3.194,3.715c0,2.193,1.282,3.676,3.152,3.676c0.966,0,1.786-0.455,2.395-0.969l0.777,1.067
		c-0.924,0.771-2.101,1.245-3.319,1.245c-2.71,0-4.791-1.838-4.791-5.02C45.147,323.758,47.438,321.92,50.064,321.92z"/>
	<path fill="#5B5B5B" d="M58.865,321.92c2.605,0,4.076,1.759,4.076,4.506c0,0.336-0.021,0.652-0.063,0.889h-6.892
		c0.126,2.075,1.45,3.379,3.404,3.379c0.966,0,1.786-0.296,2.542-0.75l0.609,1.066c-0.883,0.533-1.975,0.988-3.362,0.988
		c-2.731,0-4.896-1.877-4.896-5.02C54.285,323.837,56.533,321.92,58.865,321.92z M61.429,326.248c0-1.957-0.924-3.043-2.521-3.043
		c-1.429,0-2.731,1.105-2.941,3.043H61.429z"/>
	<path fill="#5B5B5B" d="M69.158,321.92c1.177,0,1.954,0.415,2.857,1.107l-0.084-1.641v-3.695h1.744v14.069h-1.429l-0.147-1.126
		h-0.063c-0.798,0.73-1.891,1.363-3.088,1.363c-2.563,0-4.224-1.818-4.224-5.02C64.724,323.857,66.826,321.92,69.158,321.92z
		 M69.326,330.635c0.946,0,1.765-0.436,2.605-1.324v-5.02c-0.861-0.73-1.639-1.008-2.479-1.008c-1.639,0-2.942,1.482-2.942,3.676
		C66.51,329.251,67.54,330.635,69.326,330.635z"/>
	<path fill="#5B5B5B" d="M80.941,321.92c2.605,0,4.076,1.759,4.076,4.506c0,0.336-0.021,0.652-0.063,0.889h-6.892
		c0.126,2.075,1.45,3.379,3.404,3.379c0.966,0,1.786-0.296,2.542-0.75l0.609,1.066c-0.883,0.533-1.975,0.988-3.362,0.988
		c-2.731,0-4.896-1.877-4.896-5.02C76.361,323.837,78.609,321.92,80.941,321.92z M83.505,326.248c0-1.957-0.924-3.043-2.521-3.043
		c-1.429,0-2.731,1.105-2.941,3.043H83.505z"/>
	<path fill="#5B5B5B" d="M87.262,329.587c0.882,0.672,1.786,1.146,3.005,1.146c1.345,0,2.017-0.672,2.017-1.502
		c0-0.987-1.219-1.423-2.333-1.817c-1.45-0.494-3.046-1.146-3.046-2.768c0-1.541,1.303-2.727,3.509-2.727
		c1.282,0,2.395,0.494,3.173,1.087l-0.82,1.028c-0.693-0.494-1.429-0.85-2.332-0.85c-1.282,0-1.87,0.651-1.87,1.383
		c0,0.908,1.114,1.244,2.269,1.66c1.471,0.514,3.11,1.086,3.11,2.904c0,1.561-1.324,2.865-3.74,2.865
		c-1.45,0-2.837-0.573-3.803-1.324L87.262,329.587z"/>
	<path fill="#5B5B5B" d="M100.58,317.692h1.723v3.834l-0.042,1.738c0.924-0.771,2.059-1.344,3.194-1.344
		c2.647,0,4.055,1.917,4.055,4.881c0,3.28-2.08,5.197-4.413,5.197c-0.945,0-2.017-0.436-2.92-1.186h-0.063l-0.147,0.948h-1.387
		V317.692z M104.803,330.635c1.681,0,2.92-1.443,2.92-3.814c0-2.113-0.756-3.537-2.689-3.537c-0.861,0-1.765,0.455-2.731,1.305
		v5.039C103.206,330.358,104.13,330.635,104.803,330.635z"/>
	<path fill="#5B5B5B" d="M116.061,321.92c2.605,0,4.076,1.759,4.076,4.506c0,0.336-0.021,0.652-0.063,0.889h-6.892
		c0.126,2.075,1.45,3.379,3.404,3.379c0.966,0,1.786-0.296,2.542-0.75l0.609,1.066c-0.883,0.533-1.975,0.988-3.362,0.988
		c-2.731,0-4.896-1.877-4.896-5.02C111.48,323.837,113.729,321.92,116.061,321.92z M118.625,326.248
		c0-1.957-0.924-3.043-2.521-3.043c-1.429,0-2.731,1.105-2.941,3.043H118.625z"/>
	<path fill="#5B5B5B" d="M122.656,322.157h1.429l0.147,1.384h0.063c0.966-0.91,2.017-1.621,3.425-1.621
		c2.143,0,3.11,1.305,3.11,3.755v6.086h-1.723v-5.868c0-1.799-0.588-2.569-1.933-2.569c-1.05,0-1.765,0.514-2.794,1.481v6.956
		h-1.723V322.157z"/>
	<path fill="#5B5B5B" d="M133.074,330.891l5.379-7.409h-4.791v-1.324h6.976v0.87l-5.379,7.41h5.547v1.323h-7.732V330.891z"/>
	<path fill="#5B5B5B" d="M147.315,326.268c0-3.479,1.029-6.323,2.773-8.971l1.071,0.474c-1.618,2.51-2.416,5.493-2.416,8.497
		s0.798,5.987,2.416,8.496l-1.071,0.475C148.345,332.591,147.315,329.745,147.315,326.268z"/>
	<path fill="#5B5B5B" d="M161.812,328.283h-1.828v3.478h-1.64v-3.478h-6.03v-1.067l5.736-8.062h1.934v7.824h1.828V328.283z
		 M158.344,326.979v-3.655c0-0.672,0.063-1.759,0.105-2.431h-0.084c-0.337,0.613-0.715,1.166-1.093,1.778l-3.131,4.308H158.344z"/>
	<path fill="#5B5B5B" d="M170.779,321.268c-0.546-0.611-1.366-0.987-2.206-0.987c-1.87,0-3.445,1.363-3.529,5.354
		c0.84-0.968,2.037-1.58,3.131-1.58c2.311,0,3.823,1.304,3.823,3.893c0,2.41-1.807,4.051-3.972,4.051
		c-2.626,0-4.622-2.016-4.622-6.066c0-5.059,2.438-7.016,5.106-7.016c1.449,0,2.479,0.574,3.235,1.344L170.779,321.268z
		 M170.359,327.948c0-1.641-0.819-2.668-2.479-2.668c-0.84,0-1.891,0.475-2.795,1.66c0.211,2.45,1.24,3.773,2.941,3.773
		C169.351,330.713,170.359,329.608,170.359,327.948z"/>
	<path fill="#5B5B5B" d="M182.69,328.283h-1.828v3.478h-1.64v-3.478h-6.03v-1.067l5.736-8.062h1.934v7.824h1.828V328.283z
		 M179.223,326.979v-3.655c0-0.672,0.063-1.759,0.105-2.431h-0.084c-0.337,0.613-0.715,1.166-1.093,1.778l-3.131,4.308H179.223z"/>
	<path fill="#5B5B5B" d="M186.489,326.268c0-3.004-0.798-5.987-2.416-8.497l1.072-0.474c1.743,2.647,2.773,5.492,2.773,8.971
		c0,3.478-1.03,6.323-2.773,8.971l-1.072-0.475C185.691,332.255,186.489,329.272,186.489,326.268z"/>
</g>
<g enable-background="new    ">
	<path fill="#5B5B5B" d="M16.772,364.087c0-1.226-0.441-2.411-2.101-2.411c-1.198,0-2.248,0.514-3.046,1.027l-0.694-1.126
		c0.946-0.573,2.375-1.245,4.013-1.245c2.5,0,3.551,1.562,3.551,3.952v5.889h-1.429l-0.147-1.146h-0.042
		c-0.987,0.75-2.122,1.383-3.383,1.383c-1.723,0-3.004-1.008-3.004-2.727C10.49,365.588,12.423,364.541,16.772,364.087z
		 M13.978,369.106c0.987,0,1.807-0.454,2.794-1.284v-2.667c-3.425,0.395-4.581,1.186-4.581,2.41
		C12.192,368.652,12.97,369.106,13.978,369.106z"/>
	<path fill="#5B5B5B" d="M21.602,360.57h1.744v5.868c0,1.799,0.567,2.569,1.912,2.569c1.05,0,1.786-0.493,2.752-1.62v-6.817h1.723
		v9.604h-1.429l-0.147-1.502h-0.063c-0.945,1.048-1.954,1.739-3.362,1.739c-2.164,0-3.131-1.305-3.131-3.754V360.57z"/>
	<path fill="#5B5B5B" d="M36.874,360.332c1.177,0,1.954,0.415,2.857,1.107l-0.084-1.641v-3.695h1.744v14.069h-1.429l-0.147-1.126
		h-0.063c-0.798,0.73-1.891,1.363-3.088,1.363c-2.563,0-4.224-1.818-4.224-5.02C32.44,362.269,34.542,360.332,36.874,360.332z
		 M37.042,369.047c0.946,0,1.765-0.436,2.605-1.324v-5.02c-0.861-0.73-1.639-1.008-2.479-1.008c-1.639,0-2.942,1.482-2.942,3.676
		C34.226,367.663,35.256,369.047,37.042,369.047z"/>
	<path fill="#5B5B5B" d="M44.518,357.546c0-0.632,0.525-1.047,1.198-1.047s1.198,0.415,1.198,1.047c0,0.612-0.525,1.048-1.198,1.048
		S44.518,358.158,44.518,357.546z M44.833,360.57h1.723v9.604h-1.723V360.57z"/>
	<path fill="#5B5B5B" d="M54.243,364.68c0-3.479,1.029-6.323,2.773-8.971l1.071,0.474c-1.618,2.51-2.416,5.493-2.416,8.497
		s0.798,5.987,2.416,8.496l-1.071,0.475C55.272,371.003,54.243,368.157,54.243,364.68z"/>
	<path fill="#5B5B5B" d="M68.739,366.696h-1.828v3.478h-1.639v-3.478h-6.03v-1.067l5.736-8.062h1.933v7.824h1.828V366.696z
		 M65.272,365.391v-3.655c0-0.672,0.063-1.759,0.105-2.431h-0.084c-0.336,0.613-0.715,1.166-1.093,1.778l-3.131,4.308H65.272z"/>
	<path fill="#5B5B5B" d="M70.689,367.624c0.798,0.751,1.807,1.442,3.383,1.442c1.639,0,2.941-1.127,2.941-2.885
		c0-1.739-1.134-2.767-2.857-2.767c-0.924,0-1.492,0.276-2.29,0.771l-0.925-0.553l0.441-6.066h6.703v1.402h-5.19l-0.357,3.734
		c0.63-0.316,1.24-0.514,2.059-0.514c2.29,0,4.16,1.226,4.16,3.952c0,2.728-2.185,4.269-4.518,4.269
		c-2.143,0-3.467-0.85-4.391-1.719L70.689,367.624z"/>
	<path fill="#5B5B5B" d="M88.146,359.68c-0.546-0.611-1.366-0.987-2.206-0.987c-1.87,0-3.446,1.363-3.53,5.354
		c0.84-0.968,2.038-1.58,3.131-1.58c2.311,0,3.824,1.304,3.824,3.893c0,2.41-1.807,4.051-3.971,4.051
		c-2.626,0-4.623-2.016-4.623-6.066c0-5.059,2.438-7.016,5.106-7.016c1.45,0,2.479,0.574,3.236,1.344L88.146,359.68z M87.727,366.36
		c0-1.641-0.819-2.668-2.479-2.668c-0.84,0-1.891,0.475-2.794,1.66c0.21,2.45,1.24,3.773,2.941,3.773
		C86.718,369.125,87.727,368.02,87.727,366.36z"/>
	<path fill="#5B5B5B" d="M93.417,364.68c0-3.004-0.798-5.987-2.417-8.497l1.072-0.474c1.744,2.647,2.773,5.492,2.773,8.971
		c0,3.478-1.03,6.323-2.773,8.971l-1.072-0.475C92.619,370.667,93.417,367.684,93.417,364.68z"/>
</g>
<g enable-background="new    ">
	<path fill="#5B5B5B" d="M16.079,12.311c-0.378-0.158-0.777-0.237-1.135-0.237c-0.84,0-1.303,0.514-1.303,1.64v1.047h2.018v1.798
		h-2.018v7.904h-2.416v-7.904H9.839V14.86l1.387-0.099v-1.008c0-2.016,0.987-3.478,3.425-3.478c0.735,0,1.429,0.158,1.891,0.336
		L16.079,12.311z"/>
	<path fill="#5B5B5B" d="M21.477,14.524c2.584,0,4.917,1.857,4.917,5.098c0,3.221-2.333,5.079-4.917,5.079
		c-2.563,0-4.896-1.857-4.896-5.079C16.581,16.381,18.914,14.524,21.477,14.524z M21.477,22.843c1.513,0,2.437-1.285,2.437-3.221
		c0-1.956-0.924-3.241-2.437-3.241c-1.513,0-2.417,1.285-2.417,3.241C19.061,21.558,19.964,22.843,21.477,22.843z"/>
	<path fill="#5B5B5B" d="M28.785,14.761h1.996l0.168,1.719h0.084c0.735-1.265,1.828-1.957,2.92-1.957
		c0.525,0,0.861,0.06,1.177,0.198l-0.42,1.976c-0.357-0.099-0.63-0.158-1.072-0.158c-0.819,0-1.807,0.534-2.437,1.996v5.928h-2.417
		V14.761z"/>
	<path fill="#5B5B5B" d="M40.15,14.524c1.177,0,1.912,0.415,2.71,1.067l-0.084-1.562v-3.517h2.416v13.951h-1.996l-0.168-1.047
		h-0.084c-0.756,0.711-1.807,1.285-2.92,1.285c-2.584,0-4.245-1.877-4.245-5.079C35.78,16.46,37.902,14.524,40.15,14.524z
		 M40.613,22.823c0.798,0,1.471-0.336,2.164-1.087v-4.525c-0.714-0.593-1.408-0.81-2.101-0.81c-1.324,0-2.396,1.166-2.396,3.201
		C38.28,21.697,39.121,22.823,40.613,22.823z"/>
	<path fill="#5B5B5B" d="M52.646,18.97c0-3.478,1.03-6.323,2.774-9.011l1.513,0.632c-1.576,2.529-2.312,5.474-2.312,8.378
		s0.735,5.849,2.312,8.378L55.42,27.98C53.676,25.293,52.646,22.448,52.646,18.97z"/>
	<path fill="#5B5B5B" d="M59.494,21.46c0.799,0.771,1.828,1.383,3.173,1.383c1.45,0,2.458-0.711,2.458-1.897
		c0-1.304-0.882-2.134-3.929-2.134v-1.66c2.626,0,3.488-0.85,3.488-2.016c0-1.047-0.756-1.68-1.975-1.68
		c-1.05,0-1.87,0.474-2.689,1.186l-1.24-1.403c1.135-0.949,2.417-1.581,4.013-1.581c2.563,0,4.329,1.186,4.329,3.32
		c0,1.403-0.883,2.352-2.333,2.885v0.079c1.576,0.396,2.773,1.462,2.773,3.122c0,2.292-2.122,3.636-4.685,3.636
		c-2.165,0-3.593-0.791-4.539-1.779L59.494,21.46z"/>
	<path fill="#5B5B5B" d="M78.842,21.222h-1.681v3.241h-2.27v-3.241h-5.904v-1.541l5.294-7.786h2.879v7.568h1.681V21.222z
		 M74.892,19.464v-2.845c0-0.731,0.063-1.877,0.105-2.608h-0.084c-0.336,0.652-0.714,1.284-1.092,1.956l-2.438,3.498H74.892z"/>
	<path fill="#5B5B5B" d="M81.675,21.894c0.504,0.553,1.324,0.949,2.144,0.949c1.681,0,3.046-1.166,3.151-4.644
		c-0.777,0.909-1.954,1.462-2.92,1.462c-2.29,0-3.887-1.265-3.887-3.893c0-2.51,1.912-4.11,4.202-4.11
		c2.605,0,4.833,1.897,4.833,6.126c0,4.88-2.5,6.916-5.253,6.916c-1.597,0-2.773-0.632-3.572-1.423L81.675,21.894z M86.907,16.559
		c-0.252-2.213-1.219-3.161-2.521-3.161c-1.092,0-1.996,0.85-1.996,2.371c0,1.482,0.778,2.252,2.123,2.252
		C85.268,18.021,86.171,17.606,86.907,16.559z"/>
	<path fill="#5B5B5B" d="M93.375,18.97c0-2.905-0.735-5.849-2.312-8.378l1.513-0.632c1.744,2.688,2.773,5.533,2.773,9.011
		c0,3.478-1.03,6.323-2.773,9.01l-1.513-0.632C92.64,24.819,93.375,21.875,93.375,18.97z"/>
</g>
<g enable-background="new    ">
	<path fill="#5B5B5B" d="M36.487,50.13c-0.378-0.158-0.777-0.237-1.155-0.237c-0.967,0-1.429,0.632-1.429,1.857v1.521h2.164v1.324
		h-2.164v8.279H32.18v-8.279h-1.387v-1.225l1.387-0.099V51.75c0-1.956,0.945-3.181,2.983-3.181c0.63,0,1.24,0.138,1.702,0.316
		L36.487,50.13z"/>
	<path fill="#5B5B5B" d="M37.704,50.248c0-0.632,0.525-1.047,1.198-1.047s1.198,0.415,1.198,1.047c0,0.613-0.525,1.047-1.198,1.047
		S37.704,50.861,37.704,50.248z M38.02,53.272h1.723v9.604H38.02V53.272z"/>
	<path fill="#5B5B5B" d="M47.01,53.035c2.605,0,4.076,1.758,4.076,4.505c0,0.336-0.021,0.652-0.063,0.89h-6.892
		c0.126,2.075,1.45,3.379,3.404,3.379c0.966,0,1.786-0.296,2.542-0.751l0.609,1.067c-0.883,0.534-1.975,0.988-3.362,0.988
		c-2.731,0-4.896-1.877-4.896-5.019C42.43,54.951,44.678,53.035,47.01,53.035z M49.574,57.362c0-1.956-0.924-3.043-2.521-3.043
		c-1.429,0-2.731,1.106-2.941,3.043H49.574z"/>
	<path fill="#5B5B5B" d="M53.332,60.701c0.882,0.672,1.786,1.146,3.005,1.146c1.345,0,2.017-0.672,2.017-1.502
		c0-0.988-1.219-1.423-2.333-1.818c-1.45-0.494-3.046-1.146-3.046-2.767c0-1.541,1.303-2.727,3.509-2.727
		c1.282,0,2.395,0.494,3.173,1.086l-0.82,1.028c-0.693-0.494-1.429-0.85-2.332-0.85c-1.282,0-1.87,0.652-1.87,1.383
		c0,0.909,1.114,1.245,2.269,1.66c1.471,0.514,3.11,1.087,3.11,2.905c0,1.561-1.324,2.865-3.74,2.865
		c-1.45,0-2.837-0.573-3.803-1.324L53.332,60.701z"/>
	<path fill="#5B5B5B" d="M62.7,54.596h-1.513v-1.225l1.597-0.099l0.21-2.688h1.45v2.688h2.752v1.324h-2.752v5.335
		c0,1.186,0.399,1.857,1.576,1.857c0.357,0,0.819-0.138,1.156-0.257l0.336,1.225c-0.567,0.178-1.261,0.356-1.891,0.356
		c-2.185,0-2.92-1.304-2.92-3.201V54.596z"/>
	<path fill="#5B5B5B" d="M74.905,56.789c0-1.225-0.441-2.411-2.101-2.411c-1.198,0-2.248,0.514-3.046,1.028l-0.694-1.126
		c0.946-0.573,2.375-1.245,4.013-1.245c2.5,0,3.551,1.561,3.551,3.952v5.889H75.2l-0.147-1.146H75.01
		c-0.987,0.751-2.122,1.383-3.383,1.383c-1.723,0-3.004-1.008-3.004-2.727C68.623,58.291,70.556,57.243,74.905,56.789z
		 M72.111,61.808c0.987,0,1.807-0.455,2.794-1.285v-2.667c-3.425,0.395-4.581,1.186-4.581,2.411
		C70.325,61.354,71.103,61.808,72.111,61.808z"/>
	<path fill="#5B5B5B" d="M84.125,57.382c0-3.478,1.029-6.323,2.773-8.971l1.071,0.474c-1.618,2.51-2.416,5.493-2.416,8.497
		c0,3.003,0.798,5.987,2.416,8.497l-1.071,0.474C85.154,63.705,84.125,60.86,84.125,57.382z"/>
	<path fill="#5B5B5B" d="M92.149,56.256v-0.079c-0.987-0.652-1.87-1.581-1.87-2.905c0-1.937,1.639-3.241,3.803-3.241
		c2.332,0,3.782,1.403,3.782,3.359c0,1.324-1.03,2.45-1.849,3.043v0.079c1.198,0.652,2.332,1.542,2.332,3.241
		c0,1.877-1.723,3.359-4.328,3.359c-2.521,0-4.392-1.462-4.392-3.458C89.627,58.014,90.888,56.888,92.149,56.256z M94.061,61.907
		c1.555,0,2.626-0.909,2.626-2.213c0-1.621-1.702-2.213-3.635-2.944c-1.071,0.672-1.87,1.601-1.87,2.747
		C91.183,60.899,92.422,61.907,94.061,61.907z M96.372,53.469c0-1.245-0.861-2.233-2.332-2.233c-1.24,0-2.164,0.81-2.164,2.035
		c0,1.502,1.471,2.134,3.088,2.727C95.868,55.248,96.372,54.398,96.372,53.469z"/>
	<path fill="#5B5B5B" d="M100.865,61.531h3.068v-9.287h-2.438v-1.047c1.219-0.198,2.102-0.514,2.837-0.929h1.324v11.263h2.773v1.344
		h-7.564V61.531z"/>
	<path fill="#5B5B5B" d="M112.86,57.382c0-3.004-0.798-5.987-2.417-8.497l1.072-0.474c1.744,2.648,2.773,5.493,2.773,8.971
		c0,3.478-1.03,6.323-2.773,8.971l-1.072-0.474C112.062,63.369,112.86,60.385,112.86,57.382z"/>
</g>
<g enable-background="new    ">
	<path fill="#5B5B5B" d="M36.487,88.543c-0.378-0.158-0.777-0.237-1.155-0.237c-0.967,0-1.429,0.632-1.429,1.857v1.521h2.164v1.324
		h-2.164v8.279H32.18v-8.279h-1.387v-1.225l1.387-0.099v-1.521c0-1.956,0.945-3.181,2.983-3.181c0.63,0,1.24,0.138,1.702,0.316
		L36.487,88.543z"/>
	<path fill="#5B5B5B" d="M41.78,91.448c2.5,0,4.728,1.837,4.728,5.059c0,3.181-2.227,5.019-4.728,5.019
		c-2.5,0-4.728-1.838-4.728-5.019C37.053,93.285,39.28,91.448,41.78,91.448z M41.78,100.182c1.765,0,2.942-1.482,2.942-3.675
		c0-2.213-1.177-3.715-2.942-3.715c-1.744,0-2.941,1.502-2.941,3.715C38.839,98.7,40.037,100.182,41.78,100.182z"/>
	<path fill="#5B5B5B" d="M53.354,91.448c1.345,0,2.29,0.533,2.983,1.146l-0.861,1.047c-0.609-0.494-1.24-0.85-2.059-0.85
		c-1.849,0-3.194,1.502-3.194,3.715c0,2.193,1.282,3.675,3.152,3.675c0.966,0,1.786-0.455,2.395-0.968l0.777,1.067
		c-0.924,0.771-2.101,1.245-3.319,1.245c-2.71,0-4.791-1.838-4.791-5.019C48.438,93.285,50.728,91.448,53.354,91.448z"/>
	<path fill="#5B5B5B" d="M58.625,91.685h1.744v5.869c0,1.798,0.567,2.569,1.912,2.569c1.05,0,1.786-0.494,2.752-1.62v-6.817h1.723
		v9.604h-1.429l-0.147-1.502h-0.063c-0.945,1.047-1.954,1.739-3.362,1.739c-2.164,0-3.131-1.304-3.131-3.754V91.685z"/>
	<path fill="#5B5B5B" d="M69.926,99.115c0.882,0.672,1.786,1.146,3.005,1.146c1.345,0,2.017-0.672,2.017-1.502
		c0-0.988-1.219-1.423-2.333-1.818c-1.45-0.494-3.046-1.146-3.046-2.767c0-1.541,1.303-2.727,3.509-2.727
		c1.282,0,2.395,0.494,3.173,1.086l-0.82,1.028c-0.693-0.494-1.429-0.85-2.332-0.85c-1.282,0-1.87,0.652-1.87,1.383
		c0,0.909,1.114,1.245,2.269,1.66c1.471,0.514,3.11,1.087,3.11,2.905c0,1.561-1.324,2.865-3.74,2.865
		c-1.45,0-2.837-0.573-3.803-1.324L69.926,99.115z"/>
	<path fill="#5B5B5B" d="M83.243,95.795c0-3.478,1.029-6.323,2.773-8.971l1.071,0.474c-1.618,2.51-2.416,5.493-2.416,8.497
		c0,3.003,0.798,5.987,2.416,8.497l-1.071,0.474C84.272,102.118,83.243,99.273,83.243,95.795z"/>
	<path fill="#5B5B5B" d="M95.49,90.084h-6.682v-1.403h8.636v1.008c-3.173,3.813-3.824,6.679-4.055,11.599h-1.786
		C91.834,96.546,92.843,93.542,95.49,90.084z"/>
	<path fill="#5B5B5B" d="M106.707,90.796c-0.546-0.612-1.366-0.988-2.206-0.988c-1.87,0-3.446,1.363-3.53,5.355
		c0.84-0.968,2.038-1.581,3.131-1.581c2.311,0,3.824,1.304,3.824,3.893c0,2.411-1.807,4.051-3.971,4.051
		c-2.626,0-4.623-2.016-4.623-6.066c0-5.059,2.438-7.015,5.106-7.015c1.45,0,2.479,0.573,3.236,1.344L106.707,90.796z
		 M106.287,97.475c0-1.64-0.819-2.668-2.479-2.668c-0.84,0-1.891,0.475-2.794,1.66c0.21,2.45,1.24,3.774,2.941,3.774
		C105.278,100.241,106.287,99.135,106.287,97.475z"/>
	<path fill="#5B5B5B" d="M111.978,95.795c0-3.004-0.798-5.987-2.417-8.497l1.072-0.474c1.744,2.648,2.773,5.493,2.773,8.971
		c0,3.478-1.03,6.323-2.773,8.971l-1.072-0.474C111.18,101.782,111.978,98.799,111.978,95.795z"/>
</g>
<g enable-background="new    ">
	<path fill="#5B5B5B" d="M31.886,130.097h1.429l0.147,1.383h0.063c0.882-0.909,1.954-1.62,3.173-1.62
		c1.555,0,2.395,0.691,2.815,1.837c1.072-1.087,2.122-1.837,3.362-1.837c2.101,0,3.11,1.304,3.11,3.754v6.086h-1.723v-5.869
		c0-1.798-0.609-2.569-1.891-2.569c-0.798,0-1.618,0.494-2.563,1.482v6.956h-1.723v-5.869c0-1.798-0.609-2.569-1.912-2.569
		c-0.756,0-1.618,0.494-2.563,1.482v6.956h-1.723V130.097z"/>
	<path fill="#5B5B5B" d="M53.27,129.86c2.5,0,4.728,1.837,4.728,5.059c0,3.181-2.228,5.019-4.728,5.019
		c-2.5,0-4.728-1.838-4.728-5.019C48.542,131.698,50.77,129.86,53.27,129.86z M53.27,138.594c1.765,0,2.942-1.482,2.942-3.675
		c0-2.213-1.177-3.715-2.942-3.715c-1.744,0-2.941,1.502-2.941,3.715C50.329,137.112,51.526,138.594,53.27,138.594z"/>
	<path fill="#5B5B5B" d="M60.684,130.097h1.429l0.147,1.383h0.063c0.966-0.909,2.017-1.62,3.425-1.62c2.143,0,3.11,1.304,3.11,3.754
		v6.086h-1.723v-5.869c0-1.798-0.588-2.569-1.933-2.569c-1.05,0-1.765,0.514-2.794,1.482v6.956h-1.723V130.097z"/>
	<path fill="#5B5B5B" d="M75.872,129.86c1.177,0,1.954,0.415,2.857,1.106l-0.084-1.64v-3.695h1.744V139.7H78.96l-0.147-1.126H78.75
		c-0.798,0.731-1.891,1.364-3.088,1.364c-2.563,0-4.224-1.818-4.224-5.019C71.438,131.796,73.54,129.86,75.872,129.86z
		 M76.04,138.574c0.946,0,1.765-0.435,2.605-1.324v-5.019c-0.861-0.731-1.639-1.008-2.479-1.008c-1.639,0-2.942,1.482-2.942,3.675
		C73.224,137.191,74.254,138.574,76.04,138.574z"/>
	<path fill="#5B5B5B" d="M87.655,129.86c2.605,0,4.076,1.758,4.076,4.505c0,0.336-0.021,0.652-0.063,0.89h-6.892
		c0.126,2.075,1.45,3.379,3.404,3.379c0.966,0,1.786-0.296,2.542-0.751l0.609,1.067c-0.883,0.534-1.975,0.988-3.362,0.988
		c-2.731,0-4.896-1.877-4.896-5.019C83.075,131.777,85.323,129.86,87.655,129.86z M90.219,134.187c0-1.956-0.924-3.043-2.521-3.043
		c-1.429,0-2.731,1.106-2.941,3.043H90.219z"/>
	<path fill="#5B5B5B" d="M98.22,129.86c2.5,0,4.728,1.837,4.728,5.059c0,3.181-2.228,5.019-4.728,5.019
		c-2.5,0-4.728-1.838-4.728-5.019C93.493,131.698,95.72,129.86,98.22,129.86z M98.22,138.594c1.765,0,2.942-1.482,2.942-3.675
		c0-2.213-1.177-3.715-2.942-3.715c-1.744,0-2.941,1.502-2.941,3.715C95.279,137.112,96.477,138.594,98.22,138.594z"/>
	<path fill="#5B5B5B" d="M109.877,134.207c0-3.478,1.029-6.323,2.773-8.971l1.071,0.474c-1.618,2.51-2.416,5.493-2.416,8.497
		c0,3.003,0.798,5.987,2.416,8.497l-1.071,0.474C110.906,140.531,109.877,137.685,109.877,134.207z"/>
	<path fill="#5B5B5B" d="M115.884,137.152c0.798,0.75,1.807,1.442,3.383,1.442c1.639,0,2.941-1.126,2.941-2.885
		c0-1.739-1.134-2.766-2.857-2.766c-0.924,0-1.492,0.276-2.29,0.771l-0.925-0.553l0.441-6.066h6.703v1.403h-5.19l-0.357,3.735
		c0.63-0.316,1.24-0.514,2.059-0.514c2.29,0,4.16,1.225,4.16,3.952c0,2.727-2.185,4.269-4.518,4.269
		c-2.143,0-3.467-0.85-4.391-1.719L115.884,137.152z"/>
	<path fill="#5B5B5B" d="M125.798,138.732c4.034-3.774,6.304-6.046,6.304-8.082c0-1.442-0.841-2.47-2.542-2.47
		c-1.114,0-2.08,0.672-2.857,1.521l-0.988-0.929c1.114-1.146,2.312-1.917,4.055-1.917c2.479,0,4.013,1.482,4.013,3.715
		c0,2.372-2.29,4.723-5.463,7.845c0.735-0.06,1.555-0.119,2.248-0.119h3.887v1.403h-8.657V138.732z"/>
	<path fill="#5B5B5B" d="M138.612,134.207c0-3.004-0.798-5.987-2.417-8.497l1.072-0.474c1.744,2.648,2.773,5.493,2.773,8.971
		c0,3.478-1.03,6.323-2.773,8.971l-1.072-0.474C137.814,140.195,138.612,137.211,138.612,134.207z"/>
</g>
<g enable-background="new    ">
	<path fill="#5B5B5B" d="M31.886,164.043h1.702v9.524h0.063l4.35-5.059h1.912l-3.425,3.854l3.887,5.75h-1.891l-2.983-4.624
		l-1.912,2.095v2.529h-1.702V164.043z"/>
	<path fill="#5B5B5B" d="M47.852,172.027c0-1.225-0.441-2.411-2.101-2.411c-1.198,0-2.248,0.514-3.046,1.028l-0.694-1.126
		c0.946-0.573,2.375-1.245,4.013-1.245c2.5,0,3.551,1.561,3.551,3.952v5.889h-1.429l-0.147-1.146h-0.042
		c-0.987,0.751-2.122,1.383-3.383,1.383c-1.723,0-3.004-1.008-3.004-2.727C41.569,173.528,43.502,172.481,47.852,172.027z
		 M45.057,177.046c0.987,0,1.807-0.455,2.794-1.285v-2.667c-3.425,0.395-4.581,1.186-4.581,2.411
		C43.271,176.591,44.049,177.046,45.057,177.046z"/>
	<path fill="#5B5B5B" d="M57.071,172.619c0-3.478,1.029-6.323,2.773-8.971l1.071,0.474c-1.618,2.51-2.416,5.493-2.416,8.497
		c0,3.003,0.798,5.987,2.416,8.497l-1.071,0.474C58.101,178.943,57.071,176.097,57.071,172.619z"/>
	<path fill="#5B5B5B" d="M63.141,175.504c0.798,0.791,1.849,1.502,3.425,1.502c1.618,0,2.773-0.909,2.773-2.312
		c0-1.502-1.092-2.51-4.286-2.51v-1.245c2.857,0,3.803-1.028,3.803-2.352c0-1.225-0.883-1.996-2.312-1.996
		c-1.113,0-2.059,0.533-2.857,1.284l-0.924-1.027c1.029-0.909,2.269-1.581,3.845-1.581c2.333,0,4.013,1.166,4.013,3.201
		c0,1.521-0.987,2.49-2.437,3.003v0.079c1.618,0.356,2.899,1.462,2.899,3.201c0,2.233-1.954,3.597-4.413,3.597
		c-2.143,0-3.509-0.85-4.412-1.779L63.141,175.504z"/>
	<path fill="#5B5B5B" d="M75.535,171.493v-0.079c-0.987-0.652-1.87-1.581-1.87-2.905c0-1.937,1.639-3.241,3.803-3.241
		c2.332,0,3.782,1.403,3.782,3.359c0,1.324-1.03,2.45-1.849,3.043v0.079c1.198,0.652,2.332,1.542,2.332,3.241
		c0,1.877-1.723,3.359-4.328,3.359c-2.521,0-4.392-1.462-4.392-3.458C73.013,173.252,74.274,172.125,75.535,171.493z
		 M77.447,177.144c1.555,0,2.626-0.909,2.626-2.213c0-1.621-1.702-2.213-3.635-2.944c-1.071,0.672-1.87,1.601-1.87,2.747
		C74.568,176.136,75.808,177.144,77.447,177.144z M79.758,168.707c0-1.245-0.861-2.233-2.332-2.233c-1.24,0-2.164,0.81-2.164,2.035
		c0,1.502,1.471,2.134,3.088,2.727C79.254,170.485,79.758,169.635,79.758,168.707z"/>
	<path fill="#5B5B5B" d="M85.806,172.619c0-3.004-0.798-5.987-2.417-8.497l1.072-0.474c1.744,2.648,2.773,5.493,2.773,8.971
		c0,3.478-1.03,6.323-2.773,8.971l-1.072-0.474C85.008,178.607,85.806,175.623,85.806,172.619z"/>
</g>
<g enable-background="new    ">
	<path fill="#5B5B5B" d="M35.857,206.686c2.5,0,4.728,1.837,4.728,5.059c0,3.181-2.228,5.019-4.728,5.019
		c-2.5,0-4.728-1.838-4.728-5.019C31.129,208.523,33.357,206.686,35.857,206.686z M35.857,215.419c1.765,0,2.942-1.481,2.942-3.675
		c0-2.214-1.177-3.716-2.942-3.716c-1.744,0-2.941,1.502-2.941,3.716C32.916,213.938,34.113,215.419,35.857,215.419z"/>
	<path fill="#5B5B5B" d="M43.565,208.246h-1.513v-1.225l1.597-0.1l0.21-2.688h1.45v2.688h2.752v1.324h-2.752v5.335
		c0,1.186,0.399,1.857,1.576,1.857c0.357,0,0.819-0.138,1.156-0.257l0.336,1.225c-0.567,0.178-1.261,0.356-1.891,0.356
		c-2.185,0-2.92-1.304-2.92-3.201V208.246z"/>
	<path fill="#5B5B5B" d="M50.371,202.456h1.723v3.833l-0.063,1.977c0.966-0.869,1.996-1.58,3.404-1.58
		c2.143,0,3.11,1.304,3.11,3.754v6.086h-1.723v-5.869c0-1.798-0.588-2.568-1.933-2.568c-1.05,0-1.765,0.514-2.794,1.482v6.955
		h-1.723V202.456z"/>
	<path fill="#5B5B5B" d="M65.621,206.686c2.605,0,4.076,1.758,4.076,4.504c0,0.336-0.021,0.652-0.063,0.891h-6.892
		c0.126,2.074,1.45,3.379,3.404,3.379c0.966,0,1.786-0.297,2.542-0.752l0.609,1.067c-0.883,0.534-1.975,0.988-3.362,0.988
		c-2.731,0-4.896-1.878-4.896-5.019C61.04,208.602,63.289,206.686,65.621,206.686z M68.184,211.012c0-1.955-0.924-3.043-2.521-3.043
		c-1.429,0-2.731,1.107-2.941,3.043H68.184z"/>
	<path fill="#5B5B5B" d="M72.215,206.922h1.429l0.147,1.738h0.063c0.693-1.205,1.744-1.975,2.899-1.975
		c0.441,0,0.756,0.059,1.093,0.197l-0.336,1.422c-0.336-0.098-0.567-0.158-0.987-0.158c-0.861,0-1.891,0.594-2.584,2.214v6.165
		h-1.723V206.922z"/>
	<path fill="#5B5B5B" d="M83.747,211.032c0-3.478,1.029-6.323,2.773-8.972l1.071,0.475c-1.618,2.51-2.416,5.493-2.416,8.497
		c0,3.003,0.798,5.987,2.416,8.497l-1.071,0.474C84.776,217.356,83.747,214.51,83.747,211.032z"/>
	<path fill="#5B5B5B" d="M89.229,215.557c4.034-3.773,6.304-6.046,6.304-8.082c0-1.441-0.841-2.469-2.542-2.469
		c-1.114,0-2.08,0.672-2.857,1.521l-0.988-0.93c1.114-1.146,2.312-1.916,4.055-1.916c2.479,0,4.013,1.481,4.013,3.715
		c0,2.371-2.29,4.723-5.463,7.845c0.735-0.06,1.555-0.118,2.248-0.118h3.887v1.402h-8.657V215.557z"/>
	<path fill="#5B5B5B" d="M99.752,210.183c0-4.229,1.618-6.501,4.308-6.501c2.668,0,4.286,2.271,4.286,6.501
		c0,4.229-1.618,6.58-4.286,6.58C101.37,216.763,99.752,214.411,99.752,210.183z M106.665,210.183c0-3.695-1.051-5.197-2.605-5.197
		c-1.576,0-2.626,1.502-2.626,5.197c0,3.694,1.05,5.276,2.626,5.276C105.614,215.459,106.665,213.877,106.665,210.183z"/>
	<path fill="#5B5B5B" d="M112.481,211.032c0-3.004-0.798-5.987-2.417-8.497l1.072-0.475c1.744,2.648,2.773,5.494,2.773,8.972
		s-1.03,6.323-2.773,8.971l-1.072-0.474C111.683,217.02,112.481,214.035,112.481,211.032z"/>
</g>
<g enable-background="new    ">
	<path fill="#5B5B5B" d="M35.71,245.096c2.605,0,4.076,1.759,4.076,4.506c0,0.336-0.021,0.652-0.063,0.889h-6.892
		c0.126,2.075,1.45,3.379,3.404,3.379c0.966,0,1.786-0.296,2.542-0.75l0.609,1.066c-0.883,0.533-1.975,0.988-3.362,0.988
		c-2.731,0-4.896-1.877-4.896-5.02C31.129,247.013,33.378,245.096,35.71,245.096z M38.273,249.424c0-1.957-0.924-3.043-2.521-3.043
		c-1.429,0-2.731,1.105-2.941,3.043H38.273z"/>
	<path fill="#5B5B5B" d="M42.031,252.763c0.882,0.672,1.786,1.146,3.005,1.146c1.345,0,2.017-0.672,2.017-1.502
		c0-0.987-1.219-1.423-2.333-1.817c-1.45-0.494-3.046-1.146-3.046-2.768c0-1.541,1.303-2.727,3.509-2.727
		c1.282,0,2.395,0.494,3.173,1.087l-0.82,1.028c-0.693-0.494-1.429-0.85-2.332-0.85c-1.282,0-1.87,0.651-1.87,1.383
		c0,0.908,1.114,1.244,2.269,1.66c1.471,0.514,3.11,1.086,3.11,2.904c0,1.561-1.324,2.865-3.74,2.865
		c-1.45,0-2.837-0.573-3.803-1.324L42.031,252.763z"/>
	<path fill="#5B5B5B" d="M55.266,245.096c1.345,0,2.29,0.533,2.983,1.146l-0.861,1.047c-0.609-0.494-1.24-0.85-2.059-0.85
		c-1.849,0-3.194,1.502-3.194,3.715c0,2.193,1.282,3.676,3.152,3.676c0.966,0,1.786-0.455,2.395-0.969l0.777,1.067
		c-0.924,0.771-2.101,1.245-3.319,1.245c-2.71,0-4.791-1.838-4.791-5.02C50.349,246.934,52.639,245.096,55.266,245.096z"/>
	<path fill="#5B5B5B" d="M64.213,245.096c2.5,0,4.728,1.838,4.728,5.059c0,3.182-2.228,5.02-4.728,5.02
		c-2.5,0-4.728-1.838-4.728-5.02C59.486,246.934,61.713,245.096,64.213,245.096z M64.213,253.83c1.765,0,2.942-1.482,2.942-3.676
		c0-2.213-1.177-3.715-2.942-3.715c-1.744,0-2.941,1.502-2.941,3.715C61.272,252.348,62.47,253.83,64.213,253.83z"/>
	<path fill="#5B5B5B" d="M71.627,245.333h1.429l0.147,1.739h0.063c0.693-1.205,1.744-1.977,2.899-1.977
		c0.441,0,0.756,0.06,1.093,0.197l-0.336,1.424c-0.336-0.1-0.567-0.158-0.987-0.158c-0.861,0-1.891,0.592-2.584,2.213v6.165h-1.723
		V245.333z"/>
	<path fill="#5B5B5B" d="M79.209,246.657h-1.513v-1.226l1.597-0.099l0.21-2.688h1.45v2.688h2.752v1.324h-2.752v5.335
		c0,1.186,0.399,1.857,1.576,1.857c0.357,0,0.819-0.139,1.156-0.257l0.336,1.226c-0.567,0.178-1.261,0.355-1.891,0.355
		c-2.185,0-2.92-1.305-2.92-3.201V246.657z"/>
	<path fill="#5B5B5B" d="M90.258,249.444c0-3.479,1.029-6.323,2.773-8.971l1.071,0.474c-1.618,2.51-2.416,5.493-2.416,8.497
		s0.798,5.987,2.416,8.496l-1.071,0.475C91.288,255.767,90.258,252.921,90.258,249.444z"/>
	<path fill="#5B5B5B" d="M96.559,253.593h3.068v-9.287h-2.438v-1.048c1.219-0.197,2.102-0.514,2.837-0.928h1.324v11.263h2.773v1.344
		h-7.564V253.593z"/>
	<path fill="#5B5B5B" d="M113.722,244.444c-0.546-0.611-1.366-0.987-2.206-0.987c-1.87,0-3.446,1.363-3.53,5.354
		c0.84-0.968,2.038-1.58,3.131-1.58c2.311,0,3.824,1.304,3.824,3.893c0,2.41-1.807,4.051-3.971,4.051
		c-2.626,0-4.622-2.016-4.622-6.066c0-5.059,2.437-7.016,5.105-7.016c1.45,0,2.479,0.574,3.236,1.344L113.722,244.444z
		 M113.302,251.123c0-1.641-0.819-2.668-2.479-2.668c-0.84,0-1.891,0.475-2.794,1.66c0.21,2.45,1.24,3.773,2.941,3.773
		C112.293,253.889,113.302,252.783,113.302,251.123z"/>
	<path fill="#5B5B5B" d="M118.993,249.444c0-3.004-0.798-5.987-2.417-8.497l1.072-0.474c1.744,2.647,2.773,5.492,2.773,8.971
		c0,3.478-1.03,6.323-2.773,8.971l-1.072-0.475C118.195,255.431,118.993,252.448,118.993,249.444z"/>
</g>
</svg>
