<?xml version="1.0" encoding="utf-8"?>
<!-- Generator: Adobe Illustrator 16.0.0, SVG Export Plug-In . SVG Version: 6.00 Build 0)  -->
<!DOCTYPE svg PUBLIC "-//W3C//DTD SVG 1.1//EN" "http://www.w3.org/Graphics/SVG/1.1/DTD/svg11.dtd">
<svg version="1.1" id="Layer_1" xmlns="http://www.w3.org/2000/svg" xmlns:xlink="http://www.w3.org/1999/xlink" x="0px" y="0px"
	 width="309.109px" height="129.033px" viewBox="0 0 309.109 129.033" enable-background="new 0 0 309.109 129.033"
	 xml:space="preserve">
<g>
	<rect x="1.619" y="-0.863" fill="#FFFFFF" width="307.093" height="40.417"/>
</g>
<g>
	<rect x="1.619" y="43.367" fill="#FFFFFF" width="307.093" height="84.517"/>
</g>
<g>
	<rect x="1.619" y="44.129" fill="#FFFFFF" width="307.093" height="39.655"/>
</g>
<g enable-background="new    ">
	<path fill="#5B5B5B" d="M31.82,65.336c0-1.335-0.452-2.627-2.153-2.627c-1.227,0-2.304,0.56-3.122,1.119l-0.71-1.227
		c0.969-0.625,2.433-1.357,4.112-1.357c2.562,0,3.639,1.701,3.639,4.306v6.416h-1.464l-0.151-1.249h-0.043
		c-1.012,0.818-2.175,1.508-3.466,1.508c-1.766,0-3.079-1.099-3.079-2.972C25.382,66.972,27.363,65.831,31.82,65.336z
		 M28.957,70.804c1.012,0,1.852-0.495,2.863-1.399v-2.906c-3.509,0.431-4.693,1.292-4.693,2.627
		C27.126,70.309,27.923,70.804,28.957,70.804z"/>
	<path fill="#5B5B5B" d="M36.925,61.503h1.464l0.15,1.507h0.065c0.903-0.99,2.002-1.765,3.251-1.765
		c1.593,0,2.454,0.753,2.885,2.002c1.098-1.185,2.175-2.002,3.444-2.002c2.153,0,3.187,1.421,3.187,4.091v6.631h-1.766v-6.395
		c0-1.959-0.624-2.799-1.938-2.799c-0.818,0-1.657,0.538-2.626,1.615v7.578h-1.766v-6.395c0-1.959-0.625-2.799-1.96-2.799
		c-0.774,0-1.657,0.538-2.626,1.615v7.578h-1.766V61.503z"/>
	<path fill="#5B5B5B" d="M60.699,65.336c0-1.335-0.452-2.627-2.153-2.627c-1.228,0-2.304,0.56-3.122,1.119l-0.71-1.227
		c0.969-0.625,2.433-1.357,4.112-1.357c2.562,0,3.639,1.701,3.639,4.306v6.416H61l-0.15-1.249h-0.043
		c-1.012,0.818-2.175,1.508-3.467,1.508c-1.765,0-3.078-1.099-3.078-2.972C54.262,66.972,56.242,65.831,60.699,65.336z
		 M57.835,70.804c1.013,0,1.853-0.495,2.864-1.399v-2.906c-3.51,0.431-4.693,1.292-4.693,2.627
		C56.006,70.309,56.802,70.804,57.835,70.804z"/>
</g>
<g enable-background="new    ">
	<path fill="#5B5B5B" d="M69.529,58.058c0-0.969,0.775-1.636,1.83-1.636c1.077,0,1.83,0.667,1.83,1.636
		c0,0.969-0.753,1.658-1.83,1.658C70.304,59.716,69.529,59.027,69.529,58.058z M69.787,61.288h3.165v10.679h-3.165V61.288z"/>
	<path fill="#5B5B5B" d="M75.73,61.288h2.583l0.215,1.356h0.086c0.904-0.861,1.981-1.615,3.424-1.615
		c2.325,0,3.315,1.637,3.315,4.307v6.631h-3.165v-6.223c0-1.55-0.409-2.023-1.313-2.023c-0.796,0-1.292,0.366-1.98,1.033v7.213
		H75.73V61.288z"/>
	<path fill="#5B5B5B" d="M99.374,68.63H95.09l-0.861,3.337h-3.229l4.392-14.038h3.812l4.392,14.038h-3.358L99.374,68.63z
		 M98.729,66.153l-0.323-1.291c-0.388-1.4-0.775-3.058-1.142-4.522h-0.086c-0.345,1.486-0.71,3.122-1.098,4.522l-0.345,1.291H98.729
		z"/>
	<path fill="#5B5B5B" d="M104.867,56.874h3.165V68.78c0,0.668,0.302,0.883,0.56,0.883c0.129,0,0.216,0,0.388-0.043l0.388,2.347
		c-0.345,0.15-0.883,0.259-1.594,0.259c-2.174,0-2.906-1.422-2.906-3.574V56.874z"/>
	<path fill="#5B5B5B" d="M111.026,56.874h3.165V68.78c0,0.668,0.302,0.883,0.56,0.883c0.129,0,0.216,0,0.388-0.043l0.388,2.347
		c-0.345,0.15-0.883,0.259-1.594,0.259c-2.174,0-2.906-1.422-2.906-3.574V56.874z"/>
	<path fill="#5B5B5B" d="M127.951,57.671c1.744,0,3.208,0.861,4.155,1.83l-1.744,1.959c-0.711-0.646-1.399-1.055-2.368-1.055
		c-1.959,0-3.488,1.701-3.488,4.521c0,2.885,1.335,4.564,3.402,4.564c1.141,0,1.98-0.495,2.669-1.249l1.744,1.916
		c-1.162,1.356-2.713,2.067-4.456,2.067c-3.639,0-6.61-2.477-6.61-7.191C121.255,60.384,124.334,57.671,127.951,57.671z"/>
	<path fill="#5B5B5B" d="M139.816,65.099c-0.064-0.947-0.538-1.55-1.679-1.55c-0.904,0-1.809,0.365-2.843,0.969l-1.119-2.089
		c1.356-0.818,2.885-1.399,4.564-1.399c2.734,0,4.241,1.551,4.241,4.823v6.114h-2.583l-0.237-1.098h-0.064
		c-0.904,0.796-1.916,1.356-3.122,1.356c-1.938,0-3.165-1.422-3.165-3.229C133.81,66.757,135.597,65.529,139.816,65.099z
		 M138.051,69.771c0.732,0,1.206-0.345,1.766-0.904v-1.873c-2.261,0.302-2.992,0.947-2.992,1.766
		C136.824,69.448,137.298,69.771,138.051,69.771z"/>
	<path fill="#5B5B5B" d="M146.128,63.764h-1.464v-2.347l1.636-0.129l0.366-2.842h2.627v2.842h2.562v2.476h-2.562v4.284
		c0,1.206,0.538,1.701,1.378,1.701c0.345,0,0.731-0.107,1.012-0.215l0.495,2.304c-0.56,0.172-1.335,0.388-2.368,0.388
		c-2.648,0-3.682-1.658-3.682-4.134V63.764z"/>
	<path fill="#5B5B5B" d="M158.144,61.029c3.035,0,4.543,2.218,4.543,5.124c0,0.561-0.066,1.077-0.131,1.335h-6.395
		c0.281,1.615,1.357,2.325,2.777,2.325c0.797,0,1.529-0.236,2.305-0.71l1.055,1.916c-1.098,0.754-2.52,1.206-3.789,1.206
		c-3.057,0-5.404-2.067-5.404-5.599C153.105,63.161,155.582,61.029,158.144,61.029z M159.996,65.529
		c0-1.228-0.518-2.089-1.787-2.089c-0.99,0-1.852,0.668-2.068,2.089H159.996z"/>
	<path fill="#5B5B5B" d="M165.531,71.644v-0.086c-0.559-0.366-0.99-0.926-0.99-1.809c0-0.775,0.518-1.528,1.205-2.002v-0.086
		c-0.752-0.517-1.441-1.529-1.441-2.777c0-2.562,2.109-3.854,4.414-3.854c0.602,0,1.184,0.086,1.656,0.259h3.898v2.304h-1.701
		c0.193,0.322,0.344,0.84,0.344,1.399c0,2.454-1.852,3.596-4.197,3.596c-0.389,0-0.818-0.065-1.293-0.216
		c-0.279,0.237-0.387,0.431-0.387,0.797c0,0.538,0.43,0.797,1.615,0.797h1.721c2.627,0,4.07,0.796,4.07,2.713
		c0,2.217-2.305,3.832-5.965,3.832c-2.496,0-4.477-0.818-4.477-2.713C164.003,72.914,164.541,72.204,165.531,71.644z
		 M168.976,74.529c1.422,0,2.455-0.582,2.455-1.313c0-0.668-0.582-0.84-1.637-0.84h-1.098c-0.732,0-1.164-0.043-1.508-0.129
		c-0.387,0.344-0.582,0.667-0.582,1.055C166.607,74.099,167.554,74.529,168.976,74.529z M170.181,64.884
		c0-1.12-0.623-1.723-1.463-1.723s-1.465,0.581-1.465,1.723c0,1.184,0.625,1.786,1.465,1.786S170.181,66.067,170.181,64.884z"/>
	<path fill="#5B5B5B" d="M180.369,61.029c2.691,0,5.188,2.046,5.188,5.598c0,3.553-2.496,5.599-5.188,5.599
		c-2.713,0-5.211-2.046-5.211-5.599C175.158,63.075,177.656,61.029,180.369,61.029z M180.369,69.663
		c1.291,0,1.959-1.185,1.959-3.036s-0.668-3.035-1.959-3.035c-1.314,0-1.959,1.184-1.959,3.035S179.054,69.663,180.369,69.663z"/>
	<path fill="#5B5B5B" d="M187.734,61.288h2.584l0.215,1.873h0.086c0.775-1.443,1.938-2.132,3.035-2.132
		c0.604,0,0.969,0.086,1.271,0.215l-0.518,2.735c-0.387-0.108-0.711-0.173-1.162-0.173c-0.797,0-1.787,0.517-2.348,1.959v6.201
		h-3.164V61.288z"/>
	<path fill="#5B5B5B" d="M196.046,58.058c0-0.969,0.775-1.636,1.83-1.636c1.076,0,1.83,0.667,1.83,1.636
		c0,0.969-0.754,1.658-1.83,1.658C196.822,59.716,196.046,59.027,196.046,58.058z M196.304,61.288h3.166v10.679h-3.166V61.288z"/>
	<path fill="#5B5B5B" d="M206.662,61.029c3.035,0,4.543,2.218,4.543,5.124c0,0.561-0.064,1.077-0.129,1.335h-6.395
		c0.279,1.615,1.355,2.325,2.777,2.325c0.797,0,1.529-0.236,2.303-0.71l1.057,1.916c-1.1,0.754-2.52,1.206-3.791,1.206
		c-3.057,0-5.402-2.067-5.402-5.599C201.625,63.161,204.099,61.029,206.662,61.029z M208.513,65.529
		c0-1.228-0.516-2.089-1.787-2.089c-0.99,0-1.852,0.668-2.066,2.089H208.513z"/>
	<path fill="#5B5B5B" d="M213.876,68.759c0.969,0.732,1.852,1.119,2.756,1.119c0.947,0,1.357-0.344,1.357-0.904
		c0-0.71-1.076-1.033-2.176-1.464c-1.291-0.495-2.82-1.378-2.82-3.144c0-1.98,1.615-3.337,4.092-3.337
		c1.637,0,2.842,0.667,3.768,1.356l-1.422,1.895c-0.775-0.56-1.506-0.904-2.26-0.904c-0.818,0-1.205,0.302-1.205,0.84
		c0,0.689,0.99,0.947,2.088,1.356c1.355,0.495,2.885,1.249,2.885,3.208c0,1.938-1.529,3.445-4.393,3.445
		c-1.398,0-3.014-0.604-4.09-1.486L213.876,68.759z"/>
</g>
<g enable-background="new    ">
	<path fill="#5B5B5B" d="M31.82,104.398c0-1.335-0.452-2.627-2.153-2.627c-1.227,0-2.304,0.56-3.122,1.119l-0.71-1.227
		c0.969-0.625,2.433-1.356,4.112-1.356c2.562,0,3.639,1.7,3.639,4.306v6.416h-1.464l-0.151-1.249h-0.043
		c-1.012,0.818-2.175,1.508-3.466,1.508c-1.766,0-3.079-1.099-3.079-2.972C25.382,106.034,27.363,104.894,31.82,104.398z
		 M28.957,109.866c1.012,0,1.852-0.495,2.863-1.399v-2.906c-3.509,0.431-4.693,1.292-4.693,2.627
		C27.126,109.371,27.923,109.866,28.957,109.866z"/>
	<path fill="#5B5B5B" d="M36.925,100.565h1.464l0.15,1.507h0.065c0.903-0.99,2.002-1.765,3.251-1.765
		c1.593,0,2.454,0.753,2.885,2.002c1.098-1.185,2.175-2.002,3.444-2.002c2.153,0,3.187,1.421,3.187,4.091v6.631h-1.766v-6.395
		c0-1.959-0.624-2.799-1.938-2.799c-0.818,0-1.657,0.538-2.626,1.615v7.578h-1.766v-6.395c0-1.959-0.625-2.799-1.96-2.799
		c-0.774,0-1.657,0.538-2.626,1.615v7.578h-1.766V100.565z"/>
	<path fill="#5B5B5B" d="M60.699,104.398c0-1.335-0.452-2.627-2.153-2.627c-1.228,0-2.304,0.56-3.122,1.119l-0.71-1.227
		c0.969-0.625,2.433-1.356,4.112-1.356c2.562,0,3.639,1.7,3.639,4.306v6.416H61l-0.15-1.249h-0.043
		c-1.012,0.818-2.175,1.508-3.467,1.508c-1.765,0-3.078-1.099-3.078-2.972C54.262,106.034,56.242,104.894,60.699,104.398z
		 M57.835,109.866c1.013,0,1.853-0.495,2.864-1.399v-2.906c-3.51,0.431-4.693,1.292-4.693,2.627
		C56.006,109.371,56.802,109.866,57.835,109.866z"/>
</g>
<g enable-background="new    ">
	<path fill="#5B5B5B" d="M69.529,97.12c0-0.969,0.775-1.636,1.83-1.636c1.077,0,1.83,0.667,1.83,1.636
		c0,0.97-0.753,1.658-1.83,1.658C70.304,98.778,69.529,98.09,69.529,97.12z M69.787,100.351h3.165v10.679h-3.165V100.351z"/>
	<path fill="#5B5B5B" d="M75.73,100.351h2.583l0.215,1.356h0.086c0.904-0.861,1.981-1.615,3.424-1.615
		c2.325,0,3.315,1.637,3.315,4.307v6.631h-3.165v-6.223c0-1.55-0.409-2.023-1.313-2.023c-0.796,0-1.292,0.366-1.98,1.033v7.213
		H75.73V100.351z"/>
	<path fill="#5B5B5B" d="M98.146,104.161c-0.064-0.947-0.538-1.55-1.679-1.55c-0.904,0-1.809,0.365-2.843,0.969l-1.119-2.089
		c1.356-0.818,2.885-1.399,4.564-1.399c2.734,0,4.241,1.551,4.241,4.823v6.114h-2.583l-0.237-1.098h-0.064
		c-0.904,0.796-1.916,1.356-3.122,1.356c-1.938,0-3.165-1.422-3.165-3.229C92.14,105.819,93.927,104.592,98.146,104.161z
		 M96.381,108.833c0.732,0,1.206-0.345,1.766-0.904v-1.873c-2.261,0.302-2.992,0.947-2.992,1.766
		C95.154,108.511,95.628,108.833,96.381,108.833z"/>
	<path fill="#5B5B5B" d="M103.92,100.351h3.165v6.222c0,1.529,0.409,2.024,1.335,2.024c0.796,0,1.27-0.345,1.895-1.185v-7.062h3.165
		v10.679h-2.584l-0.237-1.485h-0.064c-0.904,1.076-1.895,1.744-3.358,1.744c-2.325,0-3.315-1.637-3.315-4.307V100.351z"/>
	<path fill="#5B5B5B" d="M120.134,100.092c1.185,0,1.896,0.431,2.627,1.12l-0.129-1.637v-3.639h3.165v15.093h-2.584l-0.215-1.055
		h-0.086c-0.754,0.753-1.809,1.313-2.843,1.313c-2.647,0-4.37-2.11-4.37-5.599C115.699,102.202,117.874,100.092,120.134,100.092z
		 M120.888,108.704c0.689,0,1.228-0.259,1.744-0.969v-4.371c-0.56-0.517-1.185-0.688-1.766-0.688c-1.012,0-1.916,0.947-1.916,2.971
		C118.95,107.757,119.66,108.704,120.888,108.704z"/>
	<path fill="#5B5B5B" d="M128.34,97.12c0-0.969,0.775-1.636,1.83-1.636c1.077,0,1.83,0.667,1.83,1.636
		c0,0.97-0.753,1.658-1.83,1.658C129.115,98.778,128.34,98.09,128.34,97.12z M128.599,100.351h3.165v10.679h-3.165V100.351z"/>
</g>
<g enable-background="new    ">
	<path fill="#5B5B5B" d="M31.413,17.674c-0.021-1.11-0.491-2.049-1.9-2.049c-1.046,0-2.028,0.47-2.946,1.024l-0.896-1.644
		c1.153-0.726,2.625-1.367,4.291-1.367c2.626,0,3.907,1.601,3.907,4.526v6.212h-2.007l-0.192-1.152h-0.064
		c-0.939,0.789-2.007,1.408-3.245,1.408c-1.836,0-3.117-1.238-3.117-3.073C25.244,19.317,27.123,18.144,31.413,17.674z
		 M29.129,22.712c0.854,0,1.516-0.427,2.284-1.152v-2.349c-2.839,0.363-3.778,1.11-3.778,2.156
		C27.635,22.307,28.254,22.712,29.129,22.712z"/>
	<path fill="#5B5B5B" d="M36.859,13.896h2.027l0.171,1.431h0.086c0.875-0.939,1.899-1.687,3.202-1.687
		c1.536,0,2.412,0.705,2.902,1.878c1.004-1.067,2.05-1.878,3.373-1.878c2.221,0,3.245,1.516,3.245,4.163v6.575H49.39v-6.255
		c0-1.729-0.512-2.369-1.601-2.369c-0.662,0-1.388,0.427-2.199,1.302v7.322h-2.455v-6.255c0-1.729-0.512-2.369-1.622-2.369
		c-0.641,0-1.388,0.427-2.198,1.302v7.322h-2.455V13.896z"/>
	<path fill="#5B5B5B" d="M60.58,17.674c-0.021-1.11-0.491-2.049-1.899-2.049c-1.047,0-2.028,0.47-2.946,1.024l-0.896-1.644
		c1.152-0.726,2.626-1.367,4.291-1.367c2.625,0,3.906,1.601,3.906,4.526v6.212h-2.007l-0.192-1.152h-0.063
		c-0.939,0.789-2.007,1.408-3.245,1.408c-1.836,0-3.116-1.238-3.116-3.073C54.411,19.317,56.289,18.144,60.58,17.674z
		 M58.296,22.712c0.854,0,1.516-0.427,2.284-1.152v-2.349c-2.839,0.363-3.778,1.11-3.778,2.156
		C56.802,22.307,57.421,22.712,58.296,22.712z"/>
</g>
<g>
	<g>
		<path fill="#5B5B5B" d="M286.278,22.463c-4.593,0-8.329-3.49-8.329-7.779c0-4.285,3.736-7.773,8.329-7.773
			c4.595,0,8.334,3.488,8.334,7.773C294.612,18.973,290.873,22.463,286.278,22.463z M286.278,9.1c-3.297,0-5.981,2.506-5.981,5.584
			c0,3.082,2.686,5.59,5.981,5.59c3.302,0,5.989-2.508,5.989-5.59C292.268,11.605,289.58,9.1,286.278,9.1z"/>
	</g>
	<g>
		<path fill="#5B5B5B" d="M299.52,28.138c-0.302,0-0.603-0.106-0.83-0.319l-7.76-7.246c-0.457-0.428-0.457-1.119,0-1.549
			c0.46-0.428,1.2-0.428,1.659,0l7.759,7.246c0.456,0.426,0.456,1.119,0,1.549C300.117,28.031,299.819,28.138,299.52,28.138z"/>
	</g>
</g>
<g>
	
		<rect x="259.484" y="10.558" transform="matrix(0.7071 0.7071 -0.7071 0.7071 88.2072 -178.8411)" fill="#999999" width="1" height="12.993"/>
</g>
<g>
	
		<rect x="253.487" y="16.555" transform="matrix(0.7071 0.7071 -0.7071 0.7071 88.2124 -178.8457)" fill="#999999" width="12.993" height="1"/>
</g>
</svg>
