<?xml version="1.0" encoding="utf-8"?>
<!-- Generator: Adobe Illustrator 16.0.0, SVG Export Plug-In . SVG Version: 6.00 Build 0)  -->
<!DOCTYPE svg PUBLIC "-//W3C//DTD SVG 1.1//EN" "http://www.w3.org/Graphics/SVG/1.1/DTD/svg11.dtd">
<svg version="1.1" id="Layer_1" xmlns="http://www.w3.org/2000/svg" xmlns:xlink="http://www.w3.org/1999/xlink" x="0px" y="0px"
	 width="284.334px" height="142.617px" viewBox="0 0 284.334 142.617" enable-background="new 0 0 284.334 142.617"
	 xml:space="preserve">
<g>
	<rect fill="#FFFFFF" width="284.334" height="38.461"/>
</g>
<g>
	<rect y="42.59" fill="#FFFFFF" width="284.334" height="100.143"/>
</g>
<g enable-background="new    ">
	<path fill="#5B5B5B" d="M24.147,12.804h1.825v12.104h6.311v1.469h-8.135V12.804z"/>
	<path fill="#5B5B5B" d="M38.551,16.073c2.617,0,4.948,1.924,4.948,5.297c0,3.332-2.331,5.255-4.948,5.255
		c-2.616,0-4.947-1.924-4.947-5.255C33.604,17.997,35.935,16.073,38.551,16.073z M38.551,25.218c1.847,0,3.079-1.552,3.079-3.849
		c0-2.317-1.231-3.89-3.079-3.89c-1.825,0-3.078,1.572-3.078,3.89C35.473,23.667,36.727,25.218,38.551,25.218z"/>
	<path fill="#5B5B5B" d="M44.953,16.321H46.8l1.583,5.814c0.242,0.952,0.439,1.862,0.638,2.793h0.088
		c0.242-0.931,0.461-1.862,0.726-2.793l1.649-5.814h1.759l1.671,5.814c0.264,0.952,0.506,1.862,0.748,2.793h0.088
		c0.242-0.931,0.44-1.842,0.66-2.793l1.561-5.814h1.715l-2.858,10.056h-2.199l-1.54-5.4c-0.264-0.952-0.461-1.883-0.726-2.896
		h-0.088c-0.242,1.014-0.461,1.965-0.748,2.917l-1.495,5.38h-2.111L44.953,16.321z"/>
	<path fill="#5B5B5B" d="M65.933,16.073c2.727,0,4.266,1.842,4.266,4.718c0,0.352-0.022,0.683-0.066,0.931H62.92
		c0.132,2.172,1.517,3.538,3.562,3.538c1.011,0,1.869-0.311,2.661-0.786l0.638,1.117c-0.924,0.559-2.067,1.034-3.518,1.034
		c-2.858,0-5.124-1.965-5.124-5.255C61.139,18.08,63.492,16.073,65.933,16.073z M68.615,20.604c0-2.048-0.967-3.186-2.639-3.186
		c-1.495,0-2.858,1.159-3.078,3.186H68.615z"/>
	<path fill="#5B5B5B" d="M72.554,24.101c0.923,0.704,1.869,1.2,3.145,1.2c1.407,0,2.111-0.703,2.111-1.572
		c0-1.035-1.275-1.49-2.441-1.903c-1.517-0.518-3.188-1.2-3.188-2.897c0-1.614,1.363-2.855,3.672-2.855
		c1.341,0,2.506,0.518,3.32,1.138l-0.858,1.076c-0.726-0.517-1.495-0.89-2.44-0.89c-1.341,0-1.957,0.683-1.957,1.449
		c0,0.952,1.166,1.303,2.375,1.738c1.54,0.538,3.254,1.138,3.254,3.042c0,1.635-1.385,3-3.914,3c-1.518,0-2.969-0.6-3.98-1.386
		L72.554,24.101z"/>
	<path fill="#5B5B5B" d="M82.362,17.708h-1.583v-1.283l1.671-0.104l0.22-2.814h1.518v2.814h2.88v1.386h-2.88v5.586
		c0,1.242,0.417,1.945,1.649,1.945c0.374,0,0.857-0.145,1.209-0.269l0.352,1.283c-0.594,0.186-1.319,0.372-1.979,0.372
		c-2.287,0-3.056-1.365-3.056-3.352V17.708z"/>
	<path fill="#5B5B5B" d="M94.106,12.804h4.419c3.188,0,5.321,1.014,5.321,3.993c0,2.855-2.155,4.2-5.321,4.2h-2.595v5.38h-1.825
		V12.804z M98.306,19.59c2.506,0,3.716-0.869,3.716-2.793c0-1.965-1.231-2.607-3.716-2.607h-2.375v5.4H98.306z"/>
	<path fill="#5B5B5B" d="M106.599,16.321h1.495l0.154,1.821h0.066c0.726-1.262,1.825-2.069,3.034-2.069
		c0.462,0,0.792,0.062,1.144,0.207l-0.352,1.49c-0.352-0.104-0.593-0.166-1.033-0.166c-0.901,0-1.979,0.621-2.705,2.317v6.456
		h-1.803V16.321z"/>
	<path fill="#5B5B5B" d="M113.9,13.155c0-0.662,0.55-1.097,1.253-1.097s1.253,0.435,1.253,1.097c0,0.642-0.55,1.097-1.253,1.097
		S113.9,13.797,113.9,13.155z M114.23,16.321h1.803v10.056h-1.803V16.321z"/>
	<path fill="#5B5B5B" d="M123.994,16.073c1.407,0,2.396,0.559,3.122,1.2l-0.901,1.097c-0.638-0.517-1.297-0.89-2.155-0.89
		c-1.935,0-3.342,1.572-3.342,3.89c0,2.297,1.341,3.849,3.298,3.849c1.011,0,1.869-0.476,2.506-1.014l0.814,1.117
		c-0.968,0.807-2.199,1.303-3.474,1.303c-2.836,0-5.014-1.924-5.014-5.255C118.848,17.997,121.245,16.073,123.994,16.073z"/>
	<path fill="#5B5B5B" d="M133.208,16.073c2.727,0,4.266,1.842,4.266,4.718c0,0.352-0.022,0.683-0.066,0.931h-7.212
		c0.132,2.172,1.517,3.538,3.562,3.538c1.011,0,1.869-0.311,2.661-0.786l0.638,1.117c-0.924,0.559-2.067,1.034-3.518,1.034
		c-2.858,0-5.124-1.965-5.124-5.255C128.415,18.08,130.768,16.073,133.208,16.073z M135.891,20.604c0-2.048-0.967-3.186-2.639-3.186
		c-1.495,0-2.858,1.159-3.078,3.186H135.891z"/>
	<path fill="#5B5B5B" d="M144.733,12.804h8.312v1.448h-6.487v4.594h5.497v1.448h-5.497v6.083h-1.825V12.804z"/>
	<path fill="#5B5B5B" d="M155.093,13.155c0-0.662,0.549-1.097,1.253-1.097s1.253,0.435,1.253,1.097c0,0.642-0.549,1.097-1.253,1.097
		S155.093,13.797,155.093,13.155z M155.423,16.321h1.803v10.056h-1.803V16.321z"/>
	<path fill="#5B5B5B" d="M160.833,16.321h1.494l0.154,1.821h0.066c0.725-1.262,1.824-2.069,3.033-2.069
		c0.463,0,0.792,0.062,1.145,0.207l-0.353,1.49c-0.352-0.104-0.593-0.166-1.033-0.166c-0.901,0-1.979,0.621-2.704,2.317v6.456
		h-1.803V16.321z"/>
	<path fill="#5B5B5B" d="M167.958,24.101c0.924,0.704,1.869,1.2,3.145,1.2c1.407,0,2.111-0.703,2.111-1.572
		c0-1.035-1.275-1.49-2.441-1.903c-1.518-0.518-3.188-1.2-3.188-2.897c0-1.614,1.363-2.855,3.672-2.855
		c1.341,0,2.506,0.518,3.32,1.138l-0.858,1.076c-0.726-0.517-1.495-0.89-2.44-0.89c-1.342,0-1.957,0.683-1.957,1.449
		c0,0.952,1.166,1.303,2.375,1.738c1.539,0.538,3.254,1.138,3.254,3.042c0,1.635-1.385,3-3.914,3c-1.518,0-2.969-0.6-3.979-1.386
		L167.958,24.101z"/>
	<path fill="#5B5B5B" d="M177.767,17.708h-1.583v-1.283l1.671-0.104l0.22-2.814h1.518v2.814h2.88v1.386h-2.88v5.586
		c0,1.242,0.417,1.945,1.649,1.945c0.373,0,0.857-0.145,1.209-0.269l0.352,1.283c-0.594,0.186-1.319,0.372-1.979,0.372
		c-2.287,0-3.057-1.365-3.057-3.352V17.708z"/>
</g>
<g enable-background="new    ">
	<path fill="#5B5B5B" d="M36.708,55.691h1.637v10.863h5.663v1.318h-7.3V55.691z"/>
	<path fill="#5B5B5B" d="M49.629,58.625c2.348,0,4.439,1.727,4.439,4.754c0,2.99-2.091,4.717-4.439,4.717s-4.439-1.727-4.439-4.717
		C45.19,60.352,47.282,58.625,49.629,58.625z M49.629,66.833c1.657,0,2.762-1.393,2.762-3.454c0-2.08-1.105-3.491-2.762-3.491
		c-1.638,0-2.762,1.411-2.762,3.491C46.867,65.44,47.992,66.833,49.629,66.833z"/>
	<path fill="#5B5B5B" d="M55.37,58.848h1.657l1.42,5.218c0.217,0.854,0.395,1.671,0.572,2.507h0.079
		c0.217-0.836,0.414-1.671,0.651-2.507l1.479-5.218h1.579l1.5,5.218c0.237,0.854,0.454,1.671,0.671,2.507h0.079
		c0.217-0.836,0.395-1.653,0.592-2.507l1.401-5.218h1.539l-2.565,9.025h-1.973l-1.381-4.847c-0.237-0.854-0.414-1.69-0.651-2.6
		H61.94c-0.217,0.91-0.415,1.764-0.671,2.619l-1.341,4.828h-1.894L55.37,58.848z"/>
	<path fill="#5B5B5B" d="M74.191,58.625c2.447,0,3.828,1.653,3.828,4.234c0,0.315-0.02,0.613-0.059,0.835h-6.471
		c0.118,1.95,1.361,3.175,3.196,3.175c0.908,0,1.677-0.278,2.388-0.706l0.572,1.003c-0.829,0.501-1.854,0.928-3.157,0.928
		c-2.564,0-4.597-1.764-4.597-4.717S72.001,58.625,74.191,58.625z M76.598,62.692c0-1.838-0.868-2.86-2.368-2.86
		c-1.342,0-2.565,1.04-2.762,2.86H76.598z"/>
	<path fill="#5B5B5B" d="M80.129,65.831c0.829,0.631,1.677,1.077,2.821,1.077c1.263,0,1.894-0.631,1.894-1.411
		c0-0.929-1.144-1.337-2.19-1.708c-1.361-0.464-2.861-1.077-2.861-2.6c0-1.449,1.223-2.563,3.295-2.563
		c1.204,0,2.249,0.464,2.979,1.021l-0.77,0.966c-0.651-0.464-1.341-0.799-2.19-0.799c-1.203,0-1.756,0.613-1.756,1.3
		c0,0.854,1.046,1.17,2.131,1.56c1.381,0.483,2.92,1.021,2.92,2.73c0,1.467-1.243,2.692-3.512,2.692
		c-1.361,0-2.664-0.539-3.571-1.244L80.129,65.831z"/>
	<path fill="#5B5B5B" d="M88.928,60.092h-1.42v-1.151l1.5-0.093l0.197-2.525h1.361v2.525h2.584v1.244h-2.584v5.014
		c0,1.114,0.375,1.746,1.479,1.746c0.335,0,0.77-0.13,1.085-0.241l0.315,1.151c-0.533,0.167-1.184,0.334-1.776,0.334
		c-2.052,0-2.742-1.226-2.742-3.008V60.092z"/>
	<path fill="#5B5B5B" d="M99.462,55.691h3.965c2.861,0,4.775,0.91,4.775,3.584c0,2.562-1.934,3.77-4.775,3.77H101.1v4.828h-1.637
		V55.691z M103.23,61.782c2.249,0,3.334-0.78,3.334-2.507c0-1.764-1.105-2.34-3.334-2.34H101.1v4.847H103.23z"/>
	<path fill="#5B5B5B" d="M110.667,58.848h1.342l0.138,1.634h0.059c0.651-1.133,1.638-1.857,2.723-1.857
		c0.415,0,0.71,0.056,1.026,0.186l-0.315,1.337c-0.316-0.093-0.533-0.148-0.927-0.148c-0.809,0-1.776,0.557-2.427,2.08v5.794h-1.618
		V58.848z"/>
	<path fill="#5B5B5B" d="M117.217,56.007c0-0.594,0.493-0.984,1.125-0.984s1.125,0.39,1.125,0.984c0,0.576-0.494,0.984-1.125,0.984
		S117.217,56.583,117.217,56.007z M117.513,58.848h1.618v9.025h-1.618V58.848z"/>
	<path fill="#5B5B5B" d="M126.273,58.625c1.263,0,2.15,0.501,2.801,1.077l-0.809,0.984c-0.572-0.464-1.164-0.798-1.934-0.798
		c-1.736,0-2.999,1.411-2.999,3.491c0,2.062,1.204,3.454,2.959,3.454c0.908,0,1.677-0.427,2.249-0.91l0.73,1.002
		c-0.868,0.725-1.973,1.17-3.117,1.17c-2.545,0-4.498-1.727-4.498-4.717C121.656,60.352,123.807,58.625,126.273,58.625z"/>
	<path fill="#5B5B5B" d="M134.539,58.625c2.447,0,3.828,1.653,3.828,4.234c0,0.315-0.02,0.613-0.059,0.835h-6.471
		c0.118,1.95,1.361,3.175,3.196,3.175c0.908,0,1.677-0.278,2.388-0.706l0.572,1.003c-0.829,0.501-1.854,0.928-3.157,0.928
		c-2.564,0-4.597-1.764-4.597-4.717S132.349,58.625,134.539,58.625z M136.946,62.692c0-1.838-0.868-2.86-2.368-2.86
		c-1.342,0-2.565,1.04-2.762,2.86H136.946z"/>
	<path fill="#5B5B5B" d="M144.876,55.691h7.457v1.3h-5.82v4.123h4.934v1.3h-4.934v5.459h-1.637V55.691z"/>
	<path fill="#5B5B5B" d="M154.167,56.007c0-0.594,0.494-0.984,1.125-0.984s1.125,0.39,1.125,0.984c0,0.576-0.494,0.984-1.125,0.984
		S154.167,56.583,154.167,56.007z M154.464,58.848h1.617v9.025h-1.617V58.848z"/>
	<path fill="#5B5B5B" d="M159.316,58.848h1.342l0.138,1.634h0.06c0.651-1.133,1.638-1.857,2.723-1.857
		c0.415,0,0.71,0.056,1.026,0.186l-0.316,1.337c-0.315-0.093-0.532-0.148-0.927-0.148c-0.81,0-1.776,0.557-2.427,2.08v5.794h-1.618
		V58.848z"/>
	<path fill="#5B5B5B" d="M165.708,65.831c0.829,0.631,1.678,1.077,2.822,1.077c1.262,0,1.894-0.631,1.894-1.411
		c0-0.929-1.144-1.337-2.19-1.708c-1.361-0.464-2.86-1.077-2.86-2.6c0-1.449,1.224-2.563,3.295-2.563
		c1.204,0,2.249,0.464,2.979,1.021l-0.77,0.966c-0.651-0.464-1.342-0.799-2.19-0.799c-1.203,0-1.756,0.613-1.756,1.3
		c0,0.854,1.046,1.17,2.131,1.56c1.382,0.483,2.92,1.021,2.92,2.73c0,1.467-1.243,2.692-3.512,2.692
		c-1.361,0-2.663-0.539-3.571-1.244L165.708,65.831z"/>
	<path fill="#5B5B5B" d="M174.507,60.092h-1.42v-1.151l1.5-0.093l0.197-2.525h1.361v2.525h2.584v1.244h-2.584v5.014
		c0,1.114,0.374,1.746,1.479,1.746c0.336,0,0.77-0.13,1.086-0.241l0.315,1.151c-0.532,0.167-1.184,0.334-1.776,0.334
		c-2.051,0-2.742-1.226-2.742-3.008V60.092z"/>
</g>
<g enable-background="new    ">
	<path fill="#5B5B5B" d="M36.708,88.524h1.637v5.106h6.018v-5.106h1.657v12.182h-1.657v-5.738h-6.018v5.738h-1.637V88.524z"/>
	<path fill="#5B5B5B" d="M49.116,88.84c0-0.594,0.493-0.984,1.125-0.984s1.125,0.391,1.125,0.984c0,0.576-0.494,0.984-1.125,0.984
		S49.116,89.416,49.116,88.84z M49.412,91.682h1.618v9.024h-1.618V91.682z"/>
	<path fill="#5B5B5B" d="M54.936,100.391v-0.074c-0.474-0.279-0.848-0.762-0.848-1.467c0-0.762,0.552-1.355,1.045-1.672v-0.074
		c-0.631-0.482-1.243-1.355-1.243-2.433c0-1.968,1.657-3.213,3.61-3.213c0.533,0,1.006,0.093,1.361,0.224h3.334v1.17h-1.973
		c0.454,0.408,0.789,1.096,0.789,1.856c0,1.931-1.559,3.138-3.512,3.138c-0.474,0-1.006-0.111-1.44-0.314
		c-0.335,0.277-0.611,0.575-0.611,1.076c0,0.576,0.395,0.984,1.697,0.984H59c2.229,0,3.354,0.65,3.354,2.154
		c0,1.672-1.875,3.119-4.854,3.119c-2.348,0-3.966-0.872-3.966-2.432C53.535,101.672,54.068,100.947,54.936,100.391z
		 M57.738,103.807c1.835,0,3.038-0.891,3.038-1.838c0-0.836-0.69-1.114-1.933-1.114h-1.658c-0.375,0-0.829-0.037-1.243-0.148
		c-0.69,0.464-0.986,1.003-0.986,1.522C54.956,103.194,56.001,103.807,57.738,103.807z M59.533,94.671
		c0-1.318-0.908-2.099-2.032-2.099s-2.032,0.78-2.032,2.099s0.927,2.153,2.032,2.153S59.533,95.989,59.533,94.671z"/>
	<path fill="#5B5B5B" d="M64.208,87.484h1.618v3.603l-0.06,1.856c0.908-0.816,1.875-1.485,3.196-1.485
		c2.013,0,2.92,1.226,2.92,3.528v5.72h-1.618v-5.515c0-1.69-0.552-2.414-1.815-2.414c-0.987,0-1.657,0.482-2.624,1.393v6.536h-1.618
		V87.484z"/>
	<path fill="#5B5B5B" d="M78.531,91.458c2.447,0,3.828,1.653,3.828,4.234c0,0.315-0.02,0.612-0.059,0.835h-6.471
		c0.118,1.95,1.361,3.176,3.196,3.176c0.908,0,1.677-0.278,2.388-0.705L81.983,100c-0.829,0.502-1.854,0.929-3.157,0.929
		c-2.564,0-4.597-1.765-4.597-4.717S76.341,91.458,78.531,91.458z M80.938,95.525c0-1.839-0.868-2.86-2.368-2.86
		c-1.342,0-2.565,1.04-2.762,2.86H80.938z"/>
	<path fill="#5B5B5B" d="M84.469,98.664c0.829,0.631,1.677,1.076,2.821,1.076c1.263,0,1.894-0.631,1.894-1.411
		c0-0.929-1.144-1.337-2.19-1.708c-1.361-0.465-2.861-1.078-2.861-2.6c0-1.449,1.223-2.563,3.295-2.563
		c1.204,0,2.249,0.464,2.979,1.021l-0.77,0.966c-0.651-0.465-1.341-0.799-2.19-0.799c-1.203,0-1.756,0.613-1.756,1.301
		c0,0.854,1.046,1.17,2.131,1.559c1.381,0.483,2.92,1.021,2.92,2.73c0,1.467-1.243,2.692-3.512,2.692
		c-1.361,0-2.664-0.538-3.571-1.244L84.469,98.664z"/>
	<path fill="#5B5B5B" d="M93.268,92.926h-1.42v-1.152l1.5-0.092l0.197-2.525h1.361v2.525h2.584v1.244h-2.584v5.014
		c0,1.113,0.375,1.745,1.479,1.745c0.335,0,0.77-0.13,1.085-0.241l0.315,1.151c-0.533,0.167-1.184,0.334-1.776,0.334
		c-2.052,0-2.742-1.226-2.742-3.009V92.926z"/>
	<path fill="#5B5B5B" d="M103.803,88.524h3.965c2.861,0,4.775,0.909,4.775,3.584c0,2.562-1.934,3.77-4.775,3.77h-2.328v4.828h-1.637
		V88.524z M107.571,94.615c2.249,0,3.334-0.78,3.334-2.507c0-1.765-1.105-2.34-3.334-2.34h-2.131v4.847H107.571z"/>
	<path fill="#5B5B5B" d="M115.008,91.682h1.342l0.138,1.634h0.059c0.651-1.133,1.638-1.857,2.723-1.857
		c0.415,0,0.71,0.056,1.026,0.187l-0.315,1.336c-0.316-0.092-0.533-0.148-0.927-0.148c-0.809,0-1.776,0.558-2.427,2.08v5.794h-1.618
		V91.682z"/>
	<path fill="#5B5B5B" d="M121.557,88.84c0-0.594,0.493-0.984,1.125-0.984s1.125,0.391,1.125,0.984c0,0.576-0.494,0.984-1.125,0.984
		S121.557,89.416,121.557,88.84z M121.853,91.682h1.618v9.024h-1.618V91.682z"/>
	<path fill="#5B5B5B" d="M130.613,91.458c1.263,0,2.15,0.501,2.801,1.077l-0.809,0.984c-0.572-0.465-1.164-0.799-1.934-0.799
		c-1.736,0-2.999,1.412-2.999,3.491c0,2.062,1.204,3.454,2.959,3.454c0.908,0,1.677-0.427,2.249-0.91l0.73,1.003
		c-0.868,0.725-1.973,1.17-3.117,1.17c-2.545,0-4.498-1.728-4.498-4.717C125.996,93.186,128.146,91.458,130.613,91.458z"/>
	<path fill="#5B5B5B" d="M138.878,91.458c2.447,0,3.828,1.653,3.828,4.234c0,0.315-0.02,0.612-0.059,0.835h-6.471
		c0.118,1.95,1.361,3.176,3.196,3.176c0.908,0,1.677-0.278,2.388-0.705l0.572,1.002c-0.829,0.502-1.854,0.929-3.157,0.929
		c-2.564,0-4.597-1.765-4.597-4.717S136.688,91.458,138.878,91.458z M141.286,95.525c0-1.839-0.868-2.86-2.368-2.86
		c-1.342,0-2.565,1.04-2.762,2.86H141.286z"/>
	<path fill="#5B5B5B" d="M149.216,88.524h7.458v1.3h-5.82v4.123h4.933v1.299h-4.933v5.46h-1.638V88.524z"/>
	<path fill="#5B5B5B" d="M158.507,88.84c0-0.594,0.494-0.984,1.125-0.984s1.125,0.391,1.125,0.984c0,0.576-0.494,0.984-1.125,0.984
		S158.507,89.416,158.507,88.84z M158.804,91.682h1.617v9.024h-1.617V91.682z"/>
	<path fill="#5B5B5B" d="M163.656,91.682h1.342l0.138,1.634h0.06c0.651-1.133,1.638-1.857,2.723-1.857
		c0.415,0,0.71,0.056,1.026,0.187l-0.316,1.336c-0.315-0.092-0.532-0.148-0.927-0.148c-0.81,0-1.776,0.558-2.427,2.08v5.794h-1.618
		V91.682z"/>
	<path fill="#5B5B5B" d="M170.048,98.664c0.829,0.631,1.678,1.076,2.822,1.076c1.262,0,1.894-0.631,1.894-1.411
		c0-0.929-1.144-1.337-2.19-1.708c-1.361-0.465-2.86-1.078-2.86-2.6c0-1.449,1.224-2.563,3.295-2.563
		c1.204,0,2.249,0.464,2.979,1.021l-0.77,0.966c-0.651-0.465-1.342-0.799-2.19-0.799c-1.203,0-1.756,0.613-1.756,1.301
		c0,0.854,1.046,1.17,2.131,1.559c1.382,0.483,2.92,1.021,2.92,2.73c0,1.467-1.243,2.692-3.512,2.692
		c-1.361,0-2.663-0.538-3.571-1.244L170.048,98.664z"/>
	<path fill="#5B5B5B" d="M178.847,92.926h-1.42v-1.152l1.5-0.092l0.197-2.525h1.361v2.525h2.584v1.244h-2.584v5.014
		c0,1.113,0.374,1.745,1.479,1.745c0.336,0,0.77-0.13,1.086-0.241l0.315,1.151c-0.532,0.167-1.184,0.334-1.776,0.334
		c-2.051,0-2.742-1.226-2.742-3.009V92.926z"/>
</g>
<g enable-background="new    ">
	<path fill="#5B5B5B" d="M36.708,121.358h1.933l2.506,6.536l0.947,2.488h0.079l0.908-2.488l2.486-6.536H47.5v12.182h-1.559v-6.704
		c0-1.076,0.118-2.525,0.217-3.602h-0.079l-1.046,2.711l-2.486,6.369H41.62l-2.506-6.369l-1.026-2.711h-0.079
		c0.079,1.076,0.217,2.525,0.217,3.602v6.704h-1.519V121.358z"/>
	<path fill="#5B5B5B" d="M54.621,124.292c2.348,0,4.439,1.728,4.439,4.754c0,2.989-2.091,4.717-4.439,4.717
		s-4.439-1.728-4.439-4.717C50.182,126.02,52.273,124.292,54.621,124.292z M54.621,132.5c1.657,0,2.762-1.393,2.762-3.454
		c0-2.079-1.105-3.491-2.762-3.491c-1.638,0-2.762,1.412-2.762,3.491C51.858,131.107,52.983,132.5,54.621,132.5z"/>
	<path fill="#5B5B5B" d="M61.328,131.498c0.829,0.631,1.677,1.076,2.821,1.076c1.263,0,1.894-0.631,1.894-1.411
		c0-0.929-1.144-1.337-2.19-1.708c-1.361-0.465-2.861-1.078-2.861-2.6c0-1.449,1.223-2.563,3.295-2.563
		c1.204,0,2.249,0.464,2.979,1.021l-0.77,0.966c-0.651-0.465-1.341-0.799-2.19-0.799c-1.203,0-1.756,0.613-1.756,1.301
		c0,0.854,1.046,1.17,2.131,1.559c1.381,0.483,2.92,1.021,2.92,2.73c0,1.467-1.243,2.692-3.512,2.692
		c-1.361,0-2.664-0.538-3.571-1.244L61.328,131.498z"/>
	<path fill="#5B5B5B" d="M70.126,125.76h-1.42v-1.152l1.5-0.092l0.197-2.525h1.361v2.525h2.584v1.244h-2.584v5.014
		c0,1.113,0.375,1.745,1.479,1.745c0.335,0,0.77-0.13,1.085-0.241l0.315,1.151c-0.533,0.167-1.184,0.334-1.776,0.334
		c-2.052,0-2.742-1.226-2.742-3.009V125.76z"/>
	<path fill="#5B5B5B" d="M87.764,133.54l-3.117-5.144h-2.348v5.144h-1.637v-12.182h4.044c2.644,0,4.538,0.892,4.538,3.417
		c0,1.894-1.144,3.045-2.9,3.453l3.275,5.312H87.764z M82.299,127.133h2.17c2.012,0,3.137-0.779,3.137-2.357
		c0-1.598-1.125-2.173-3.137-2.173h-2.17V127.133z"/>
	<path fill="#5B5B5B" d="M97.194,127.82c0-1.151-0.414-2.266-1.973-2.266c-1.125,0-2.111,0.482-2.861,0.966l-0.651-1.059
		c0.888-0.538,2.229-1.17,3.769-1.17c2.348,0,3.334,1.468,3.334,3.714v5.534h-1.341l-0.138-1.077h-0.04
		c-0.927,0.705-1.993,1.3-3.176,1.3c-1.618,0-2.821-0.946-2.821-2.562C91.295,129.232,93.11,128.248,97.194,127.82z M94.57,132.537
		c0.927,0,1.697-0.427,2.624-1.207v-2.507c-3.216,0.372-4.301,1.114-4.301,2.266C92.893,132.11,93.623,132.537,94.57,132.537z"/>
	<path fill="#5B5B5B" d="M102.146,125.76h-1.42v-1.152l1.5-0.092l0.197-2.525h1.361v2.525h2.584v1.244h-2.584v5.014
		c0,1.113,0.375,1.745,1.479,1.745c0.335,0,0.77-0.13,1.085-0.241l0.315,1.151c-0.533,0.167-1.184,0.334-1.776,0.334
		c-2.052,0-2.742-1.226-2.742-3.009V125.76z"/>
	<path fill="#5B5B5B" d="M111.931,124.292c2.447,0,3.828,1.653,3.828,4.234c0,0.315-0.02,0.612-0.059,0.835h-6.471
		c0.118,1.95,1.361,3.176,3.196,3.176c0.908,0,1.677-0.278,2.388-0.705l0.572,1.002c-0.829,0.502-1.854,0.929-3.157,0.929
		c-2.564,0-4.597-1.765-4.597-4.717S109.741,124.292,111.931,124.292z M114.338,128.359c0-1.839-0.868-2.86-2.368-2.86
		c-1.342,0-2.565,1.04-2.762,2.86H114.338z"/>
	<path fill="#5B5B5B" d="M121.598,124.292c1.105,0,1.835,0.39,2.683,1.04l-0.079-1.541v-3.473h1.638v13.222h-1.341l-0.138-1.059
		h-0.06c-0.75,0.687-1.775,1.281-2.9,1.281c-2.407,0-3.966-1.708-3.966-4.717C117.435,126.112,119.408,124.292,121.598,124.292z
		 M121.755,132.481c0.888,0,1.657-0.408,2.446-1.244v-4.717c-0.809-0.687-1.539-0.946-2.328-0.946c-1.539,0-2.762,1.393-2.762,3.453
		C119.112,131.182,120.079,132.481,121.755,132.481z"/>
</g>
<g>
	<polygon fill="#5B5B5B" points="258.905,18.254 264.849,10.234 270.79,18.254 	"/>
</g>
<g>
	<polygon fill="#5B5B5B" points="270.79,20.5 264.849,28.521 258.905,20.5 	"/>
</g>
<g>
	<path fill="#333333" d="M18.136,67.105c-0.111,0-0.223-0.037-0.315-0.112l-5.437-4.412c-0.214-0.174-0.247-0.489-0.073-0.703
		c0.173-0.215,0.488-0.247,0.703-0.073l5.062,4.108l9.089-10.409c0.182-0.208,0.498-0.229,0.705-0.048
		c0.208,0.182,0.229,0.497,0.048,0.706l-9.406,10.772C18.414,67.047,18.275,67.105,18.136,67.105z"/>
</g>
</svg>
