<?xml version="1.0" encoding="utf-8"?>
<!-- Generator: Adobe Illustrator 16.0.0, SVG Export Plug-In . SVG Version: 6.00 Build 0)  -->
<!DOCTYPE svg PUBLIC "-//W3C//DTD SVG 1.1//EN" "http://www.w3.org/Graphics/SVG/1.1/DTD/svg11.dtd">
<svg version="1.1" id="Layer_1" xmlns="http://www.w3.org/2000/svg" xmlns:xlink="http://www.w3.org/1999/xlink" x="0px" y="0px"
	 width="309.108px" height="129.033px" viewBox="0 0 309.108 129.033" enable-background="new 0 0 309.108 129.033"
	 xml:space="preserve">
<rect x="1.619" y="-0.863" fill="#FFFFFF" width="307.093" height="40.417"/>
<rect x="1.619" y="43.367" fill="#FFFFFF" width="307.093" height="84.517"/>
<rect x="1.619" y="44.129" fill="#FFFFFF" width="307.093" height="39.655"/>
<text transform="matrix(1 0 0 1 24.1338 71.9673)"><tspan x="0" y="0" fill="#5B5B5B" font-family="'SourceSansPro-Regular'" font-size="21.5352">ama </tspan><tspan x="44.254" y="0" fill="#5B5B5B" font-family="'SourceSansPro-Bold'" font-size="21.5352">in All Categories</tspan></text>
<text transform="matrix(1 0 0 1 24.1338 111.0298)"><tspan x="0" y="0" fill="#5B5B5B" font-family="'SourceSansPro-Regular'" font-size="21.5352">ama </tspan><tspan x="44.254" y="0" fill="#5B5B5B" font-family="'SourceSansPro-Bold'" font-size="21.5352">in audi</tspan></text>
<text transform="matrix(1 0 0 1 24.1338 24.3774)" fill="#5B5B5B" font-family="'SourceSansPro-Semibold'" font-size="21.3524">ama</text>
<g>
	<g>
		<path fill="#5B5B5B" d="M286.278,22.463c-4.593,0-8.329-3.49-8.329-7.779c0-4.285,3.736-7.773,8.329-7.773
			c4.594,0,8.334,3.488,8.334,7.773C294.612,18.973,290.872,22.463,286.278,22.463z M286.278,9.1c-3.297,0-5.982,2.506-5.982,5.584
			c0,3.082,2.686,5.59,5.982,5.59c3.302,0,5.989-2.508,5.989-5.59C292.268,11.605,289.58,9.1,286.278,9.1z"/>
	</g>
	<g>
		<path fill="#5B5B5B" d="M299.52,28.138c-0.302,0-0.603-0.106-0.83-0.319l-7.76-7.246c-0.457-0.428-0.457-1.119,0-1.549
			c0.46-0.428,1.2-0.428,1.66,0l7.758,7.246c0.456,0.426,0.456,1.119,0,1.549C300.117,28.031,299.819,28.138,299.52,28.138z"/>
	</g>
</g>
<line fill="none" stroke="#999999" stroke-miterlimit="10" x1="264.577" y1="12.461" x2="255.39" y2="21.649"/>
<line fill="none" stroke="#999999" stroke-miterlimit="10" x1="264.577" y1="21.649" x2="255.39" y2="12.461"/>
</svg>
