<?xml version="1.0" encoding="utf-8"?>
<!-- Generator: Adobe Illustrator 16.0.0, SVG Export Plug-In . SVG Version: 6.00 Build 0)  -->
<!DOCTYPE svg PUBLIC "-//W3C//DTD SVG 1.1//EN" "http://www.w3.org/Graphics/SVG/1.1/DTD/svg11.dtd">
<svg version="1.1" id="Layer_1" xmlns="http://www.w3.org/2000/svg" xmlns:xlink="http://www.w3.org/1999/xlink" x="0px" y="0px"
	 width="258.812px" height="147.77px" viewBox="0 0 258.812 147.77" enable-background="new 0 0 258.812 147.77"
	 xml:space="preserve">
<g enable-background="new    ">
	<path fill="#5B5B5B" d="M14.209,12.704H9.984V9.951h11.944v2.753h-4.226v11.723h-3.494V12.704z"/>
	<path fill="#5B5B5B" d="M22.94,17.123c0-4.729,2.833-7.438,6.987-7.438c4.154,0,6.987,2.73,6.987,7.438
		c0,4.729-2.833,7.571-6.987,7.571C25.772,24.694,22.94,21.852,22.94,17.123z M33.349,17.123c0-2.886-1.322-4.618-3.422-4.618
		c-2.101,0-3.423,1.732-3.423,4.618c0,2.908,1.322,4.751,3.423,4.751C32.028,21.874,33.349,20.031,33.349,17.123z"/>
	<path fill="#5B5B5B" d="M39.813,9.951h5.618c3.329,0,6.02,1.155,6.02,4.663c0,3.397-2.762,4.906-6.02,4.906h-2.148v4.907h-3.47
		V9.951z M45.219,16.923c1.912,0,2.833-0.799,2.833-2.309s-0.991-2.065-2.833-2.065h-1.936v4.374H45.219z"/>
	<path fill="#5B5B5B" d="M54.114,9.951h3.47v14.476h-3.47V9.951z"/>
	<path fill="#5B5B5B" d="M67.827,9.685c1.912,0,3.517,0.888,4.556,1.887l-1.912,2.02c-0.779-0.666-1.534-1.088-2.597-1.088
		c-2.148,0-3.824,1.754-3.824,4.663c0,2.975,1.463,4.707,3.729,4.707c1.251,0,2.172-0.511,2.927-1.288l1.912,1.976
		c-1.275,1.398-2.975,2.131-4.887,2.131c-3.989,0-7.247-2.553-7.247-7.416C60.486,12.483,63.861,9.685,67.827,9.685z"/>
	<path fill="#5B5B5B" d="M75.282,20.364c1.109,0.888,2.526,1.51,3.8,1.51c1.44,0,2.148-0.533,2.148-1.398
		c0-0.911-0.874-1.199-2.219-1.732l-2.006-0.799c-1.582-0.6-3.092-1.843-3.092-3.952c0-2.398,2.266-4.307,5.477-4.307
		c1.77,0,3.635,0.666,4.957,1.909l-1.771,2.065c-1.015-0.733-1.959-1.155-3.187-1.155c-1.204,0-1.959,0.489-1.959,1.31
		c0,0.888,1.015,1.199,2.337,1.709l1.983,0.755c1.865,0.71,3.045,1.887,3.045,3.93c0,2.398-2.125,4.485-5.807,4.485
		c-2.006,0-4.131-0.71-5.689-2.087L75.282,20.364z"/>
</g>
<g>
	<path fill="#FFFFFF" d="M30.949,135.396c0,2.485-2.139,4.5-4.778,4.5H14.836c-2.639,0-4.777-2.015-4.777-4.5v-10.658
		c0-2.485,2.139-4.497,4.777-4.497H26.17c2.64,0,4.778,2.012,4.778,4.497L30.949,135.396L30.949,135.396z"/>
</g>
<g enable-background="new    ">
	<path fill="#5B5B5B" d="M50.792,125.996h-4.16v-1.383h10.085v1.383h-4.16v11.58h-1.765V125.996z"/>
	<path fill="#5B5B5B" d="M58.059,127.973h1.429l0.147,1.738h0.063c0.693-1.205,1.744-1.975,2.899-1.975
		c0.441,0,0.756,0.059,1.093,0.197l-0.336,1.422c-0.336-0.098-0.567-0.158-0.987-0.158c-0.861,0-1.891,0.594-2.584,2.214v6.165
		h-1.723V127.973z"/>
	<path fill="#5B5B5B" d="M70.601,131.49c0-1.225-0.441-2.411-2.101-2.411c-1.198,0-2.248,0.515-3.047,1.028l-0.693-1.127
		c0.946-0.573,2.375-1.244,4.013-1.244c2.5,0,3.551,1.561,3.551,3.951v5.889h-1.429l-0.147-1.146h-0.042
		c-0.987,0.752-2.122,1.384-3.383,1.384c-1.723,0-3.004-1.008-3.004-2.728C64.319,132.992,66.252,131.945,70.601,131.49z
		 M67.806,136.51c0.987,0,1.807-0.455,2.794-1.285v-2.668c-3.425,0.396-4.581,1.186-4.581,2.411
		C66.02,136.055,66.798,136.51,67.806,136.51z"/>
	<path fill="#5B5B5B" d="M74.106,127.973h1.786l1.933,5.454c0.294,0.948,0.63,1.917,0.945,2.825h0.084
		c0.294-0.908,0.63-1.877,0.925-2.825l1.933-5.454h1.702l-3.614,9.604h-2.017L74.106,127.973z"/>
	<path fill="#5B5B5B" d="M89.126,127.737c2.605,0,4.076,1.758,4.076,4.504c0,0.336-0.021,0.652-0.063,0.891h-6.892
		c0.126,2.074,1.45,3.379,3.404,3.379c0.966,0,1.786-0.297,2.542-0.752l0.609,1.067c-0.883,0.534-1.975,0.988-3.362,0.988
		c-2.731,0-4.896-1.878-4.896-5.019C84.546,129.653,86.794,127.737,89.126,127.737z M91.69,132.063c0-1.955-0.924-3.043-2.521-3.043
		c-1.429,0-2.731,1.107-2.941,3.043H91.69z"/>
	<path fill="#5B5B5B" d="M95.721,123.507h1.723v12.251c0,0.514,0.231,0.712,0.483,0.712c0.105,0,0.189,0,0.378-0.04l0.231,1.226
		c-0.231,0.099-0.525,0.158-0.988,0.158c-1.303,0-1.828-0.771-1.828-2.174V123.507z"/>
</g>
<g enable-background="new    ">
	<path fill="#5B5B5B" d="M47.977,99.924c0.987,0.969,2.374,1.621,3.803,1.621c1.807,0,2.878-0.85,2.878-2.115
		c0-1.323-0.988-1.738-2.291-2.291l-1.975-0.811c-1.302-0.514-2.794-1.443-2.794-3.34c0-1.976,1.828-3.438,4.329-3.438
		c1.639,0,3.088,0.651,4.076,1.6l-0.946,1.067c-0.84-0.751-1.849-1.226-3.13-1.226c-1.534,0-2.563,0.731-2.563,1.897
		c0,1.245,1.198,1.72,2.29,2.153l1.954,0.791c1.597,0.652,2.836,1.541,2.836,3.458c0,2.056-1.786,3.695-4.686,3.695
		c-1.933,0-3.635-0.751-4.833-1.917L47.977,99.924z"/>
	<path fill="#5B5B5B" d="M62.954,92.91c2.5,0,4.728,1.837,4.728,5.059c0,3.181-2.228,5.019-4.728,5.019
		c-2.5,0-4.728-1.838-4.728-5.019C58.227,94.747,60.454,92.91,62.954,92.91z M62.954,101.644c1.765,0,2.942-1.481,2.942-3.675
		c0-2.214-1.177-3.716-2.942-3.716c-1.744,0-2.941,1.502-2.941,3.716C60.013,100.162,61.211,101.644,62.954,101.644z"/>
	<path fill="#5B5B5B" d="M74.528,92.91c1.345,0,2.29,0.533,2.983,1.146l-0.861,1.048c-0.609-0.494-1.24-0.851-2.059-0.851
		c-1.849,0-3.194,1.502-3.194,3.716c0,2.193,1.282,3.675,3.152,3.675c0.966,0,1.786-0.454,2.395-0.968l0.777,1.066
		c-0.924,0.771-2.101,1.245-3.319,1.245c-2.71,0-4.791-1.838-4.791-5.019C69.611,94.747,71.902,92.91,74.528,92.91z"/>
	<path fill="#5B5B5B" d="M79.631,90.123c0-0.633,0.525-1.047,1.198-1.047s1.198,0.414,1.198,1.047c0,0.613-0.525,1.047-1.198,1.047
		S79.631,90.737,79.631,90.123z M79.946,93.147h1.723v9.604h-1.723V93.147z"/>
	<path fill="#5B5B5B" d="M90.891,96.664c0-1.225-0.441-2.411-2.101-2.411c-1.198,0-2.248,0.515-3.047,1.028l-0.693-1.127
		c0.946-0.573,2.375-1.244,4.013-1.244c2.5,0,3.551,1.561,3.551,3.951v5.889h-1.429l-0.147-1.146h-0.042
		c-0.987,0.752-2.122,1.384-3.383,1.384c-1.723,0-3.004-1.008-3.004-2.728C84.609,98.166,86.542,97.118,90.891,96.664z
		 M88.096,101.684c0.987,0,1.807-0.455,2.794-1.285v-2.668c-3.425,0.396-4.581,1.186-4.581,2.411
		C86.31,101.229,87.088,101.684,88.096,101.684z"/>
	<path fill="#5B5B5B" d="M95.868,88.681h1.723v12.251c0,0.514,0.231,0.712,0.483,0.712c0.105,0,0.189,0,0.378-0.04l0.231,1.226
		c-0.231,0.099-0.525,0.158-0.988,0.158c-1.303,0-1.828-0.771-1.828-2.174V88.681z"/>
</g>
<g>
	<path fill="#FFFFFF" d="M30.949,66.6c0,2.485-2.139,4.499-4.778,4.499H14.836c-2.639,0-4.777-2.014-4.777-4.499V55.938
		c0-2.483,2.139-4.496,4.777-4.496H26.17c2.64,0,4.778,2.013,4.778,4.496L30.949,66.6L30.949,66.6z"/>
</g>
<g enable-background="new    ">
	<path fill="#5B5B5B" d="M47.136,61.382c0-4.15,2.416-6.659,5.883-6.659c3.467,0,5.904,2.529,5.904,6.659
		c0,4.169-2.437,6.778-5.904,6.778C49.552,68.159,47.136,65.551,47.136,61.382z M57.095,61.382c0-3.221-1.618-5.217-4.076-5.217
		c-2.458,0-4.076,1.996-4.076,5.217c0,3.241,1.618,5.335,4.076,5.335C55.478,66.717,57.095,64.622,57.095,61.382z"/>
	<path fill="#5B5B5B" d="M61.567,58.319h1.744v5.869c0,1.798,0.567,2.569,1.912,2.569c1.05,0,1.786-0.494,2.752-1.62v-6.817h1.723
		v9.604h-1.429l-0.147-1.502h-0.063c-0.945,1.047-1.954,1.739-3.362,1.739c-2.164,0-3.131-1.304-3.131-3.754V58.319z"/>
	<path fill="#5B5B5B" d="M73.434,59.643h-1.513v-1.225l1.597-0.099l0.21-2.688h1.45v2.688h2.752v1.324h-2.752v5.335
		c0,1.186,0.399,1.857,1.576,1.857c0.357,0,0.819-0.138,1.156-0.257l0.336,1.225c-0.567,0.178-1.261,0.356-1.891,0.356
		c-2.185,0-2.92-1.304-2.92-3.201V59.643z"/>
	<path fill="#5B5B5B" d="M83.728,58.082c1.177,0,1.954,0.415,2.857,1.106l-0.084-1.64v-3.695h1.744v14.069h-1.429l-0.147-1.126
		h-0.063c-0.798,0.731-1.891,1.364-3.088,1.364c-2.563,0-4.224-1.818-4.224-5.019C79.295,60.018,81.396,58.082,83.728,58.082z
		 M83.896,66.796c0.946,0,1.765-0.435,2.605-1.324v-5.019c-0.861-0.731-1.639-1.008-2.479-1.008c-1.639,0-2.941,1.482-2.941,3.675
		C81.081,65.412,82.111,66.796,83.896,66.796z"/>
	<path fill="#5B5B5B" d="M95.658,58.082c2.5,0,4.728,1.837,4.728,5.059c0,3.181-2.228,5.019-4.728,5.019
		c-2.5,0-4.728-1.838-4.728-5.019C90.931,59.919,93.158,58.082,95.658,58.082z M95.658,66.816c1.765,0,2.942-1.482,2.942-3.675
		c0-2.213-1.177-3.715-2.942-3.715c-1.744,0-2.941,1.502-2.941,3.715C92.717,65.334,93.915,66.816,95.658,66.816z"/>
	<path fill="#5B5B5B" d="M107.043,58.082c2.5,0,4.728,1.837,4.728,5.059c0,3.181-2.228,5.019-4.728,5.019
		c-2.5,0-4.728-1.838-4.728-5.019C102.316,59.919,104.543,58.082,107.043,58.082z M107.043,66.816c1.765,0,2.942-1.482,2.942-3.675
		c0-2.213-1.177-3.715-2.942-3.715c-1.744,0-2.941,1.502-2.941,3.715C104.102,65.334,105.3,66.816,107.043,66.816z"/>
	<path fill="#5B5B5B" d="M114.457,58.319h1.429l0.147,1.739h0.063c0.693-1.205,1.744-1.976,2.899-1.976
		c0.441,0,0.756,0.059,1.093,0.197l-0.336,1.423c-0.336-0.099-0.567-0.158-0.987-0.158c-0.861,0-1.891,0.593-2.584,2.213v6.165
		h-1.723V58.319z"/>
	<path fill="#5B5B5B" d="M121.262,65.748c0.882,0.672,1.786,1.146,3.005,1.146c1.345,0,2.017-0.672,2.017-1.502
		c0-0.988-1.219-1.423-2.333-1.818c-1.45-0.494-3.046-1.146-3.046-2.767c0-1.541,1.303-2.727,3.509-2.727
		c1.282,0,2.395,0.494,3.173,1.086l-0.82,1.028c-0.693-0.494-1.429-0.85-2.332-0.85c-1.282,0-1.87,0.652-1.87,1.383
		c0,0.909,1.114,1.245,2.269,1.66c1.471,0.514,3.11,1.087,3.11,2.905c0,1.561-1.324,2.865-3.74,2.865
		c-1.45,0-2.837-0.573-3.803-1.324L121.262,65.748z"/>
</g>
<g>
	<path fill="#333333" d="M18.688,103.321c-0.222,0-0.444-0.073-0.629-0.224l-6.855-5.562c-0.429-0.348-0.495-0.978-0.146-1.406
		c0.348-0.431,0.979-0.494,1.406-0.146l6.106,4.954L29.791,88.08c0.364-0.416,0.996-0.46,1.411-0.096
		c0.416,0.362,0.459,0.994,0.096,1.41l-11.856,13.583C19.244,103.204,18.967,103.321,18.688,103.321z"/>
</g>
<g>
	<path fill="none" stroke="#333333" stroke-miterlimit="10" d="M-6.769,35.618"/>
</g>
</svg>
