<?xml version="1.0" encoding="utf-8"?>
<!-- Generator: Adobe Illustrator 16.0.0, SVG Export Plug-In . SVG Version: 6.00 Build 0)  -->
<!DOCTYPE svg PUBLIC "-//W3C//DTD SVG 1.1//EN" "http://www.w3.org/Graphics/SVG/1.1/DTD/svg11.dtd">
<svg version="1.1" id="Layer_1" xmlns="http://www.w3.org/2000/svg" xmlns:xlink="http://www.w3.org/1999/xlink" x="0px" y="0px"
	 width="258.812px" height="147.77px" viewBox="0 0 258.812 147.77" enable-background="new 0 0 258.812 147.77"
	 xml:space="preserve">
<text transform="matrix(1.0627 0 0 1 9.3931 24.4263)" fill="#5B5B5B" font-family="'SourceSansPro-Bold'" font-size="22.2069">TOPICS</text>
<path fill="#FFFFFF" d="M30.949,135.396c0,2.485-2.139,4.5-4.778,4.5H14.836c-2.639,0-4.778-2.015-4.778-4.5v-10.658
	c0-2.486,2.139-4.498,4.778-4.498h11.334c2.639,0,4.778,2.012,4.778,4.498V135.396z"/>
<text transform="matrix(1.0627 0 0 1 46.0439 137.5757)" fill="#5B5B5B" font-family="'SourceSansPro-Regular'" font-size="19.7658">Travel</text>
<text transform="matrix(1.0627 0 0 1 46.0439 102.7495)" fill="#5B5B5B" font-family="'SourceSansPro-Regular'" font-size="19.7658">Social</text>
<path fill="#FFFFFF" d="M30.949,66.6c0,2.485-2.139,4.499-4.778,4.499H14.836c-2.639,0-4.778-2.014-4.778-4.499V55.938
	c0-2.484,2.139-4.496,4.778-4.496h11.334c2.639,0,4.778,2.012,4.778,4.496V66.6z"/>
<text transform="matrix(1.0627 0 0 1 46.0439 67.9214)" fill="#5B5B5B" font-family="'SourceSansPro-Regular'" font-size="19.7658">Outdoors</text>
<polyline fill="none" stroke="#333333" stroke-width="2" stroke-linecap="round" stroke-linejoin="round" stroke-miterlimit="10" points="
	11.833,96.759 18.688,102.321 30.545,88.738 "/>
<path fill="none" stroke="#333333" stroke-miterlimit="10" d="M-6.769,35.618"/>
</svg>
