<?xml version="1.0" encoding="utf-8"?>
<!-- Generator: Adobe Illustrator 16.0.0, SVG Export Plug-In . SVG Version: 6.00 Build 0)  -->
<!DOCTYPE svg PUBLIC "-//W3C//DTD SVG 1.1//EN" "http://www.w3.org/Graphics/SVG/1.1/DTD/svg11.dtd">
<svg version="1.1" id="Layer_1" xmlns="http://www.w3.org/2000/svg" xmlns:xlink="http://www.w3.org/1999/xlink" x="0px" y="0px"
	 width="258.812px" height="292.434px" viewBox="0 0 258.812 292.434" enable-background="new 0 0 258.812 292.434"
	 xml:space="preserve">
<g>
	<path fill="#FFFFFF" d="M258.812,289.517c0,1.61-1.307,2.916-2.915,2.916H3.642c-1.607,0-2.911-1.306-2.911-2.916V2.913
		C0.731,1.304,2.035,0,3.642,0h252.255c1.608,0,2.915,1.305,2.915,2.913V289.517z"/>
</g>
<g>
	<path fill="#FFD600" d="M258.812,2.913c0-1.608-1.307-2.913-2.915-2.913H3.642C2.035,0,0.731,1.304,0.731,2.913v77.24h258.081
		V2.913L258.812,2.913z"/>
</g>
<g enable-background="new    ">
	<path fill="#5B5B5B" d="M21.461,45.457h-4.995v-2.59h13.055v2.59h-4.995v14.694h-3.065V45.457z"/>
	<path fill="#5B5B5B" d="M32.136,41.493h3.039v4.81l-0.105,2.511c1.083-1.03,2.378-1.956,4.148-1.956
		c2.775,0,3.991,1.876,3.991,5.154v8.14h-3.039v-7.743c0-2.141-0.608-2.934-2.035-2.934c-1.137,0-1.877,0.555-2.96,1.612v9.064
		h-3.039V41.493z"/>
	<path fill="#5B5B5B" d="M46.749,47.175h3.039v7.744c0,2.141,0.608,2.934,2.009,2.934c1.137,0,1.903-0.529,2.881-1.798v-8.879h3.039
		v12.976h-2.484l-0.237-1.902h-0.079c-1.137,1.348-2.405,2.22-4.176,2.22c-2.775,0-3.991-1.877-3.991-5.153V47.175z"/>
	<path fill="#5B5B5B" d="M60.885,63.296c1.691-0.66,2.669-1.85,2.669-3.197c-0.079,0-0.158,0-0.237,0
		c-1.031,0-1.956-0.688-1.956-1.877c0-1.136,0.925-1.876,2.035-1.876c1.427,0,2.272,1.163,2.272,3.118
		c0,2.59-1.506,4.599-4.122,5.497L60.885,63.296z"/>
	<path fill="#5B5B5B" d="M82.554,55.473H76.74l-1.348,4.678h-3.118l5.629-17.284h3.595l5.629,17.284h-3.225L82.554,55.473z
		 M81.868,53.068l-0.608-2.114c-0.555-1.823-1.057-3.806-1.56-5.708h-0.105c-0.476,1.929-0.978,3.885-1.532,5.708l-0.608,2.114
		H81.868z"/>
	<path fill="#5B5B5B" d="M92.041,61.208v4.07h-3.039V47.175h2.51l0.212,1.374h0.105c1.084-0.925,2.484-1.691,3.911-1.691
		c3.225,0,5.102,2.59,5.102,6.607c0,4.44-2.67,7.004-5.551,7.004c-1.136,0-2.272-0.528-3.329-1.428L92.041,61.208z M94.657,57.958
		c1.718,0,3.039-1.533,3.039-4.467c0-2.59-0.846-4.123-2.802-4.123c-0.951,0-1.85,0.476-2.854,1.454v6.052
		C92.992,57.667,93.89,57.958,94.657,57.958z"/>
	<path fill="#5B5B5B" d="M103.905,47.175h2.511l0.211,2.299h0.105c0.925-1.691,2.3-2.617,3.674-2.617c0.66,0,1.084,0.08,1.479,0.264
		l-0.528,2.643c-0.449-0.132-0.793-0.211-1.348-0.211c-1.03,0-2.272,0.714-3.065,2.669v7.929h-3.039V47.175z"/>
	<path fill="#5B5B5B" d="M119.204,57.667h3.753V46.62h-3.093v-1.903c1.665-0.317,2.828-0.74,3.885-1.375h2.273v14.324h3.304v2.484
		h-10.122V57.667z"/>
	<path fill="#5B5B5B" d="M132.891,56.134c1.004,1.031,2.299,1.851,3.99,1.851c1.824,0,3.093-0.951,3.093-2.537
		c0-1.744-1.11-2.854-4.942-2.854v-2.22c3.304,0,4.387-1.137,4.387-2.696c0-1.401-0.951-2.247-2.483-2.247
		c-1.322,0-2.353,0.634-3.383,1.586l-1.56-1.876c1.427-1.269,3.039-2.114,5.048-2.114c3.224,0,5.444,1.585,5.444,4.44
		c0,1.876-1.11,3.145-2.934,3.858v0.105c1.981,0.529,3.488,1.956,3.488,4.176c0,3.065-2.669,4.863-5.894,4.863
		c-2.722,0-4.52-1.058-5.709-2.379L132.891,56.134z"/>
</g>
<g enable-background="new    ">
	<path fill="#5B5B5B" d="M16.274,25.594c2.367-2.354,3.699-3.772,3.699-5.042c0-0.9-0.493-1.541-1.492-1.541
		c-0.653,0-1.221,0.419-1.677,0.949l-0.58-0.58c0.653-0.715,1.356-1.195,2.379-1.195c1.455,0,2.355,0.925,2.355,2.317
		c0,1.479-1.344,2.947-3.206,4.895c0.432-0.036,0.912-0.073,1.319-0.073h2.281v0.875h-5.08V25.594z"/>
	<path fill="#5B5B5B" d="M22.452,22.241c0-2.638,0.949-4.056,2.527-4.056c1.566,0,2.515,1.418,2.515,4.056
		c0,2.639-0.949,4.106-2.515,4.106C23.402,26.347,22.452,24.88,22.452,22.241z M26.509,22.241c0-2.306-0.616-3.242-1.529-3.242
		c-0.924,0-1.541,0.937-1.541,3.242s0.617,3.292,1.541,3.292C25.892,25.533,26.509,24.547,26.509,22.241z"/>
	<path fill="#5B5B5B" d="M29.012,25.361h1.801v-5.795h-1.431v-0.653c0.715-0.124,1.233-0.321,1.664-0.58h0.777v7.028h1.627v0.838
		h-4.438V25.361z"/>
	<path fill="#5B5B5B" d="M38.63,19.209h-3.921v-0.876h5.067v0.629c-1.861,2.38-2.243,4.167-2.379,7.237h-1.048
		C36.484,23.24,37.076,21.366,38.63,19.209z"/>
</g>
<g enable-background="new    ">
	<path fill="#5B5B5B" d="M105.509,99.104h-3.454l-0.911,2.89h-1.228l3.208-9.479h1.358l3.208,9.479h-1.286L105.509,99.104z
		 M105.205,98.135l-0.448-1.444c-0.347-1.056-0.65-2.096-0.954-3.194h-0.058c-0.289,1.099-0.592,2.139-0.939,3.194l-0.448,1.444
		H105.205z"/>
	<path fill="#5B5B5B" d="M110.106,102.587v2.369h-1.185v-9.984h0.983l0.101,0.809h0.044c0.636-0.534,1.416-0.982,2.239-0.982
		c1.807,0,2.774,1.401,2.774,3.584c0,2.384-1.431,3.786-3.034,3.786c-0.65,0-1.301-0.304-1.951-0.81L110.106,102.587z
		 M111.826,101.171c1.155,0,2.008-1.056,2.008-2.789c0-1.546-0.52-2.587-1.85-2.587c-0.592,0-1.185,0.332-1.878,0.954v3.685
		C110.742,100.968,111.363,101.171,111.826,101.171z"/>
	<path fill="#5B5B5B" d="M116.942,94.971h0.983l0.101,1.271h0.044c0.477-0.882,1.199-1.445,1.993-1.445
		c0.304,0,0.521,0.044,0.752,0.145l-0.231,1.04c-0.231-0.071-0.39-0.115-0.679-0.115c-0.593,0-1.301,0.434-1.777,1.618v4.509h-1.186
		V94.971z"/>
	<path fill="#5B5B5B" d="M121.741,92.76c0-0.463,0.361-0.766,0.824-0.766c0.462,0,0.823,0.303,0.823,0.766
		c0,0.448-0.361,0.766-0.823,0.766C122.102,93.526,121.741,93.209,121.741,92.76z M121.958,94.971h1.186v7.022h-1.186V94.971z"/>
	<path fill="#5B5B5B" d="M125.513,91.705h1.186v8.959c0,0.375,0.158,0.52,0.332,0.52c0.072,0,0.13,0,0.26-0.028l0.159,0.896
		c-0.159,0.072-0.361,0.116-0.679,0.116c-0.896,0-1.258-0.564-1.258-1.59V91.705z"/>
	<path fill="#5B5B5B" d="M131.512,101.286c2.774-2.76,4.335-4.422,4.335-5.91c0-1.055-0.578-1.807-1.748-1.807
		c-0.767,0-1.431,0.492-1.966,1.113l-0.679-0.68c0.766-0.838,1.589-1.401,2.788-1.401c1.706,0,2.761,1.084,2.761,2.717
		c0,1.733-1.575,3.453-3.758,5.736c0.506-0.043,1.069-0.087,1.547-0.087h2.673v1.026h-5.953V101.286z"/>
	<path fill="#5B5B5B" d="M138.754,97.355c0-3.092,1.112-4.754,2.962-4.754c1.836,0,2.948,1.662,2.948,4.754
		c0,3.093-1.112,4.812-2.948,4.812C139.866,102.168,138.754,100.448,138.754,97.355z M143.508,97.355c0-2.702-0.723-3.8-1.792-3.8
		c-1.083,0-1.806,1.098-1.806,3.8s0.723,3.858,1.806,3.858C142.785,101.214,143.508,100.057,143.508,97.355z"/>
	<path fill="#5B5B5B" d="M146.443,101.011h2.109v-6.792h-1.676v-0.766c0.838-0.145,1.445-0.376,1.95-0.679h0.911v8.236h1.907v0.982
		h-5.202V101.011z"/>
	<path fill="#5B5B5B" d="M157.717,93.801h-4.595v-1.025h5.939v0.736c-2.183,2.789-2.63,4.885-2.789,8.482h-1.229
		C155.203,98.526,155.896,96.33,157.717,93.801z"/>
</g>
<g enable-background="new    ">
	<path fill="#5B5B5B" d="M25.884,132.653c0.538,0.561,1.293,0.938,2.071,0.938c0.984,0,1.568-0.492,1.568-1.225
		c0-0.767-0.538-1.007-1.247-1.327l-1.076-0.47c-0.71-0.297-1.522-0.835-1.522-1.934c0-1.145,0.996-1.991,2.357-1.991
		c0.893,0,1.683,0.378,2.22,0.927l-0.515,0.618c-0.458-0.435-1.007-0.71-1.706-0.71c-0.835,0-1.396,0.424-1.396,1.099
		c0,0.722,0.652,0.996,1.248,1.248l1.064,0.457c0.87,0.378,1.545,0.893,1.545,2.003c0,1.19-0.973,2.141-2.552,2.141
		c-1.053,0-1.98-0.436-2.632-1.11L25.884,132.653z"/>
</g>
<g enable-background="new    ">
	<path fill="#5B5B5B" d="M58.399,126.782h1.122l1.454,4.029l0.549,1.533h0.046l0.526-1.533l1.442-4.029h1.122v7.508h-0.904v-4.131
		c0-0.664,0.069-1.557,0.126-2.221h-0.046l-0.606,1.671l-1.442,3.926h-0.538l-1.453-3.926l-0.595-1.671h-0.046
		c0.046,0.664,0.126,1.557,0.126,2.221v4.131h-0.881V126.782z"/>
</g>
<g enable-background="new    ">
	<path fill="#5B5B5B" d="M94.694,127.584h-2.266v-0.802h5.493v0.802h-2.266v6.706h-0.961V127.584z"/>
</g>
<g enable-background="new    ">
	<path fill="#5B5B5B" d="M124.579,126.782h0.984l0.79,4.086c0.137,0.812,0.297,1.613,0.435,2.426h0.046
		c0.172-0.812,0.355-1.625,0.526-2.426l1.042-4.086h0.87l1.041,4.086c0.184,0.79,0.367,1.613,0.55,2.426h0.046
		c0.137-0.812,0.274-1.625,0.424-2.426l0.789-4.086h0.916l-1.557,7.508h-1.145l-1.133-4.521c-0.137-0.584-0.252-1.121-0.366-1.705
		h-0.046c-0.114,0.584-0.252,1.121-0.377,1.705l-1.11,4.521h-1.133L124.579,126.782z"/>
</g>
<g enable-background="new    ">
	<path fill="#5B5B5B" d="M161.976,127.584h-2.267v-0.802h5.493v0.802h-2.266v6.706h-0.961V127.584z"/>
</g>
<g enable-background="new    ">
	<path fill="#5B5B5B" d="M194.302,126.782h4.326v0.802h-3.377v2.54h2.861v0.802h-2.861v3.364h-0.949V126.782z"/>
</g>
<g enable-background="new    ">
	<path fill="#5B5B5B" d="M227.739,132.653c0.538,0.561,1.294,0.938,2.071,0.938c0.984,0,1.568-0.492,1.568-1.225
		c0-0.767-0.538-1.007-1.248-1.327l-1.075-0.47c-0.71-0.297-1.522-0.835-1.522-1.934c0-1.145,0.996-1.991,2.357-1.991
		c0.893,0,1.683,0.378,2.221,0.927l-0.516,0.618c-0.457-0.435-1.007-0.71-1.705-0.71c-0.835,0-1.396,0.424-1.396,1.099
		c0,0.722,0.652,0.996,1.248,1.248l1.064,0.457c0.869,0.378,1.545,0.893,1.545,2.003c0,1.19-0.973,2.141-2.553,2.141
		c-1.053,0-1.979-0.436-2.632-1.11L227.739,132.653z"/>
</g>
<g enable-background="new    ">
	<path fill="#5B5B5B" d="M227.802,157.589h1.67v-5.379h-1.326v-0.606c0.663-0.114,1.144-0.297,1.545-0.538h0.721v6.523h1.51v0.778
		h-4.119V157.589z"/>
</g>
<g enable-background="new    ">
	<path fill="#5B5B5B" d="M25.501,180.121c2.197-2.186,3.433-3.502,3.433-4.681c0-0.836-0.458-1.431-1.385-1.431
		c-0.606,0-1.133,0.389-1.557,0.881l-0.538-0.537c0.606-0.664,1.259-1.11,2.208-1.11c1.351,0,2.186,0.858,2.186,2.151
		c0,1.373-1.248,2.735-2.976,4.543c0.4-0.034,0.847-0.068,1.225-0.068h2.117v0.812h-4.715V180.121z"/>
</g>
<g enable-background="new    ">
	<path fill="#5B5B5B" d="M59.465,179.171c0.435,0.458,1.007,0.87,1.865,0.87c0.881,0,1.511-0.526,1.511-1.339
		c0-0.87-0.595-1.454-2.334-1.454v-0.721c1.556,0,2.071-0.595,2.071-1.361c0-0.71-0.481-1.156-1.259-1.156
		c-0.607,0-1.122,0.309-1.557,0.744l-0.503-0.596c0.561-0.526,1.236-0.915,2.094-0.915c1.27,0,2.186,0.675,2.186,1.854
		c0,0.882-0.538,1.442-1.328,1.739v0.046c0.881,0.206,1.579,0.848,1.579,1.854c0,1.293-1.064,2.083-2.403,2.083
		c-1.167,0-1.911-0.492-2.403-1.03L59.465,179.171z"/>
</g>
<g enable-background="new    ">
	<path fill="#5B5B5B" d="M97.698,178.668h-0.996v2.014H95.81v-2.014h-3.285v-0.618l3.125-4.67h1.053v4.532h0.996V178.668z
		 M95.81,177.912v-2.117c0-0.389,0.034-1.019,0.057-1.407h-0.046c-0.183,0.354-0.389,0.675-0.595,1.029l-1.705,2.495H95.81z"/>
</g>
<g enable-background="new    ">
	<path fill="#5B5B5B" d="M126.715,179.205c0.435,0.436,0.984,0.836,1.843,0.836c0.893,0,1.602-0.652,1.602-1.671
		c0-1.007-0.618-1.603-1.556-1.603c-0.504,0-0.812,0.16-1.248,0.446l-0.503-0.32l0.24-3.514h3.651v0.812h-2.827l-0.194,2.163
		c0.343-0.183,0.675-0.297,1.122-0.297c1.248,0,2.265,0.709,2.265,2.288c0,1.58-1.189,2.473-2.46,2.473
		c-1.167,0-1.888-0.492-2.392-0.996L126.715,179.205z"/>
</g>
<g enable-background="new    ">
	<path fill="#5B5B5B" d="M164.179,174.604c-0.298-0.354-0.744-0.572-1.201-0.572c-1.02,0-1.877,0.79-1.924,3.102
		c0.459-0.561,1.111-0.915,1.705-0.915c1.26,0,2.084,0.755,2.084,2.254c0,1.396-0.984,2.347-2.164,2.347
		c-1.43,0-2.518-1.168-2.518-3.514c0-2.93,1.328-4.062,2.781-4.062c0.79,0,1.351,0.332,1.763,0.778L164.179,174.604z
		 M163.951,178.472c0-0.949-0.447-1.545-1.352-1.545c-0.457,0-1.029,0.275-1.521,0.962c0.114,1.419,0.676,2.186,1.602,2.186
		C163.401,180.075,163.951,179.434,163.951,178.472z"/>
</g>
<g enable-background="new    ">
	<path fill="#5B5B5B" d="M197.398,174.192h-3.639v-0.812h4.703v0.584c-1.729,2.209-2.083,3.868-2.209,6.718h-0.973
		C195.407,177.935,195.957,176.195,197.398,174.192z"/>
</g>
<g enable-background="new    ">
	<path fill="#5B5B5B" d="M228.74,176.847v-0.046c-0.537-0.377-1.018-0.915-1.018-1.682c0-1.122,0.893-1.877,2.071-1.877
		c1.271,0,2.06,0.812,2.06,1.945c0,0.767-0.561,1.419-1.007,1.763v0.046c0.652,0.377,1.271,0.893,1.271,1.876
		c0,1.088-0.938,1.946-2.357,1.946c-1.373,0-2.393-0.848-2.393-2.003C227.367,177.866,228.054,177.214,228.74,176.847z
		 M229.782,180.121c0.847,0,1.431-0.526,1.431-1.282c0-0.938-0.927-1.281-1.98-1.705c-0.583,0.39-1.018,0.927-1.018,1.591
		C228.215,179.537,228.889,180.121,229.782,180.121z M231.041,175.234c0-0.721-0.469-1.293-1.27-1.293
		c-0.676,0-1.18,0.469-1.18,1.179c0,0.869,0.801,1.235,1.683,1.579C230.766,176.264,231.041,175.772,231.041,175.234z"/>
</g>
<g enable-background="new    ">
	<path fill="#5B5B5B" d="M26.153,201.771c0.298,0.354,0.744,0.584,1.202,0.584c1.03,0,1.9-0.802,1.934-3.136
		c-0.458,0.583-1.11,0.938-1.716,0.938c-1.259,0-2.071-0.756-2.071-2.255c0-1.396,0.984-2.346,2.151-2.346
		c1.442,0,2.518,1.167,2.518,3.513c0,2.93-1.328,4.063-2.781,4.063c-0.778,0-1.362-0.332-1.763-0.768L26.153,201.771z
		 M29.265,198.475c-0.125-1.419-0.687-2.174-1.613-2.174c-0.709,0-1.271,0.641-1.271,1.602c0,0.95,0.446,1.545,1.351,1.545
		C28.201,199.448,28.774,199.174,29.265,198.475z"/>
</g>
<g enable-background="new    ">
	<path fill="#5B5B5B" d="M56.745,202.218h1.67v-5.379h-1.327v-0.606c0.664-0.114,1.144-0.297,1.545-0.538h0.721v6.523h1.511v0.778
		h-4.12V202.218z"/>
	<path fill="#5B5B5B" d="M62.035,199.322c0-2.449,0.881-3.765,2.346-3.765c1.454,0,2.334,1.315,2.334,3.765
		s-0.881,3.812-2.334,3.812C62.916,203.134,62.035,201.771,62.035,199.322z M65.8,199.322c0-2.14-0.572-3.01-1.419-3.01
		c-0.858,0-1.431,0.87-1.431,3.01c0,2.141,0.572,3.056,1.431,3.056C65.228,202.378,65.8,201.463,65.8,199.322z"/>
</g>
<g enable-background="new    ">
	<path fill="#5B5B5B" d="M90.389,202.218h1.67v-5.379h-1.327v-0.606c0.664-0.114,1.144-0.297,1.545-0.538h0.721v6.523h1.511v0.778
		h-4.12V202.218z"/>
	<path fill="#5B5B5B" d="M96.08,202.218h1.67v-5.379h-1.327v-0.606c0.664-0.114,1.144-0.297,1.545-0.538h0.721v6.523h1.511v0.778
		h-4.12V202.218z"/>
</g>
<g enable-background="new    ">
	<path fill="#5B5B5B" d="M124.03,202.218h1.67v-5.379h-1.327v-0.606c0.664-0.114,1.144-0.297,1.545-0.538h0.721v6.523h1.511v0.778
		h-4.12V202.218z"/>
	<path fill="#5B5B5B" d="M129.274,202.435c2.197-2.186,3.434-3.502,3.434-4.681c0-0.836-0.458-1.431-1.385-1.431
		c-0.606,0-1.133,0.389-1.557,0.881l-0.538-0.537c0.606-0.664,1.259-1.11,2.208-1.11c1.351,0,2.186,0.858,2.186,2.151
		c0,1.373-1.247,2.735-2.975,4.543c0.4-0.034,0.846-0.068,1.225-0.068h2.116v0.812h-4.715V202.435z"/>
</g>
<g enable-background="new    ">
	<path fill="#5B5B5B" d="M191.314,202.218h1.67v-5.379h-1.326v-0.606c0.663-0.114,1.144-0.297,1.545-0.538h0.721v6.523h1.51v0.778
		h-4.119V202.218z"/>
	<path fill="#5B5B5B" d="M201.469,200.982h-0.996v2.014h-0.893v-2.014h-3.285v-0.618l3.125-4.67h1.053v4.532h0.996V200.982z
		 M199.58,200.226v-2.117c0-0.389,0.034-1.019,0.057-1.407h-0.045c-0.184,0.354-0.389,0.675-0.596,1.029l-1.705,2.495H199.58z"/>
</g>
<g enable-background="new    ">
	<path fill="#5B5B5B" d="M224.957,202.218h1.67v-5.379h-1.326v-0.606c0.663-0.114,1.144-0.297,1.545-0.538h0.721v6.523h1.51v0.778
		h-4.119V202.218z"/>
	<path fill="#5B5B5B" d="M230.487,201.519c0.435,0.436,0.984,0.836,1.843,0.836c0.893,0,1.602-0.652,1.602-1.671
		c0-1.007-0.617-1.603-1.556-1.603c-0.504,0-0.812,0.16-1.247,0.446l-0.504-0.32l0.24-3.514h3.65v0.812h-2.826l-0.195,2.163
		c0.344-0.183,0.676-0.297,1.122-0.297c1.247,0,2.266,0.709,2.266,2.288c0,1.58-1.19,2.473-2.46,2.473
		c-1.168,0-1.889-0.492-2.393-0.996L230.487,201.519z"/>
</g>
<g enable-background="new    ">
	<path fill="#5B5B5B" d="M23.101,224.532h1.67v-5.379h-1.327v-0.606c0.664-0.114,1.144-0.297,1.545-0.538h0.721v6.523h1.511v0.778
		h-4.12V224.532z"/>
	<path fill="#5B5B5B" d="M32.454,219.233c-0.297-0.354-0.744-0.572-1.201-0.572c-1.019,0-1.877,0.79-1.923,3.102
		c0.458-0.561,1.11-0.915,1.705-0.915c1.259,0,2.083,0.755,2.083,2.254c0,1.396-0.984,2.347-2.163,2.347
		c-1.43,0-2.518-1.168-2.518-3.514c0-2.93,1.328-4.062,2.781-4.062c0.79,0,1.35,0.332,1.762,0.778L32.454,219.233z M32.225,223.101
		c0-0.949-0.446-1.545-1.351-1.545c-0.458,0-1.03,0.275-1.522,0.962c0.114,1.419,0.675,2.186,1.602,2.186
		C31.676,224.704,32.225,224.063,32.225,223.101z"/>
</g>
<g enable-background="new    ">
	<path fill="#5B5B5B" d="M56.745,224.532h1.67v-5.379h-1.327v-0.606c0.664-0.114,1.144-0.297,1.545-0.538h0.721v6.523h1.511v0.778
		h-4.12V224.532z"/>
	<path fill="#5B5B5B" d="M65.674,218.821h-3.639v-0.812h4.704v0.584c-1.729,2.209-2.083,3.868-2.209,6.718h-0.973
		C63.683,222.564,64.232,220.824,65.674,218.821z"/>
</g>
<g enable-background="new    ">
	<path fill="#5B5B5B" d="M90.389,224.532h1.67v-5.379h-1.327v-0.606c0.664-0.114,1.144-0.297,1.545-0.538h0.721v6.523h1.511v0.778
		h-4.12V224.532z"/>
	<path fill="#5B5B5B" d="M97.018,221.476v-0.046c-0.538-0.377-1.019-0.915-1.019-1.682c0-1.122,0.893-1.877,2.072-1.877
		c1.27,0,2.06,0.812,2.06,1.945c0,0.767-0.561,1.419-1.007,1.763v0.046c0.652,0.377,1.27,0.893,1.27,1.876
		c0,1.088-0.938,1.946-2.357,1.946c-1.373,0-2.392-0.848-2.392-2.003C95.645,222.495,96.332,221.843,97.018,221.476z M98.06,224.75
		c0.847,0,1.43-0.526,1.43-1.282c0-0.938-0.927-1.281-1.979-1.705c-0.583,0.39-1.019,0.927-1.019,1.591
		C96.492,224.166,97.167,224.75,98.06,224.75z M99.319,219.863c0-0.721-0.469-1.293-1.27-1.293c-0.675,0-1.179,0.469-1.179,1.179
		c0,0.869,0.801,1.235,1.682,1.579C99.044,220.893,99.319,220.401,99.319,219.863z"/>
</g>
<g enable-background="new    ">
	<path fill="#5B5B5B" d="M124.03,224.532h1.67v-5.379h-1.327v-0.606c0.664-0.114,1.144-0.297,1.545-0.538h0.721v6.523h1.511v0.778
		h-4.12V224.532z"/>
	<path fill="#5B5B5B" d="M129.927,224.086c0.298,0.354,0.744,0.584,1.202,0.584c1.029,0,1.899-0.802,1.934-3.136
		c-0.457,0.583-1.109,0.938-1.717,0.938c-1.258,0-2.071-0.756-2.071-2.255c0-1.396,0.984-2.346,2.151-2.346
		c1.442,0,2.519,1.167,2.519,3.513c0,2.93-1.328,4.063-2.781,4.063c-0.778,0-1.362-0.332-1.763-0.768L129.927,224.086z
		 M133.039,220.79c-0.125-1.419-0.686-2.174-1.613-2.174c-0.709,0-1.27,0.641-1.27,1.602c0,0.95,0.445,1.545,1.35,1.545
		C131.975,221.762,132.548,221.488,133.039,220.79z"/>
</g>
<g enable-background="new    ">
	<path fill="#5B5B5B" d="M157.226,224.75c2.197-2.186,3.434-3.502,3.434-4.681c0-0.836-0.459-1.431-1.385-1.431
		c-0.607,0-1.134,0.389-1.557,0.881l-0.538-0.537c0.606-0.664,1.259-1.11,2.208-1.11c1.352,0,2.187,0.858,2.187,2.151
		c0,1.373-1.247,2.735-2.976,4.543c0.4-0.034,0.847-0.068,1.225-0.068h2.117v0.812h-4.715V224.75z"/>
	<path fill="#5B5B5B" d="M162.963,221.636c0-2.449,0.881-3.765,2.346-3.765c1.454,0,2.335,1.315,2.335,3.765
		s-0.881,3.812-2.335,3.812C163.844,225.448,162.963,224.086,162.963,221.636z M166.728,221.636c0-2.14-0.572-3.01-1.42-3.01
		c-0.857,0-1.43,0.87-1.43,3.01c0,2.141,0.572,3.056,1.43,3.056C166.156,224.692,166.728,223.777,166.728,221.636z"/>
</g>
<g enable-background="new    ">
	<path fill="#5B5B5B" d="M190.868,224.75c2.197-2.186,3.433-3.502,3.433-4.681c0-0.836-0.457-1.431-1.385-1.431
		c-0.605,0-1.133,0.389-1.557,0.881l-0.537-0.537c0.606-0.664,1.259-1.11,2.209-1.11c1.35,0,2.186,0.858,2.186,2.151
		c0,1.373-1.248,2.735-2.976,4.543c0.4-0.034,0.847-0.068,1.225-0.068h2.117v0.812h-4.715V224.75z"/>
	<path fill="#5B5B5B" d="M197.006,224.532h1.67v-5.379h-1.327v-0.606c0.663-0.114,1.144-0.297,1.545-0.538h0.721v6.523h1.511v0.778
		h-4.119V224.532z"/>
</g>
<g enable-background="new    ">
	<path fill="#5B5B5B" d="M224.51,224.75c2.197-2.186,3.433-3.502,3.433-4.681c0-0.836-0.457-1.431-1.385-1.431
		c-0.605,0-1.133,0.389-1.557,0.881l-0.537-0.537c0.606-0.664,1.259-1.11,2.209-1.11c1.35,0,2.186,0.858,2.186,2.151
		c0,1.373-1.248,2.735-2.976,4.543c0.4-0.034,0.847-0.068,1.225-0.068h2.117v0.812h-4.715V224.75z"/>
	<path fill="#5B5B5B" d="M230.201,224.75c2.197-2.186,3.434-3.502,3.434-4.681c0-0.836-0.458-1.431-1.385-1.431
		c-0.606,0-1.133,0.389-1.557,0.881l-0.537-0.537c0.605-0.664,1.258-1.11,2.208-1.11c1.351,0,2.186,0.858,2.186,2.151
		c0,1.373-1.247,2.735-2.976,4.543c0.4-0.034,0.848-0.068,1.225-0.068h2.117v0.812h-4.715V224.75z"/>
</g>
<g enable-background="new    ">
	<path fill="#5B5B5B" d="M22.655,247.063c2.197-2.186,3.433-3.502,3.433-4.681c0-0.836-0.458-1.431-1.385-1.431
		c-0.606,0-1.133,0.389-1.557,0.881l-0.538-0.537c0.606-0.664,1.259-1.11,2.208-1.11c1.351,0,2.186,0.858,2.186,2.151
		c0,1.373-1.248,2.735-2.976,4.543c0.4-0.034,0.847-0.068,1.225-0.068h2.117v0.812h-4.715V247.063z"/>
	<path fill="#5B5B5B" d="M28.666,246.113c0.435,0.458,1.007,0.87,1.865,0.87c0.881,0,1.511-0.526,1.511-1.339
		c0-0.87-0.595-1.454-2.334-1.454v-0.721c1.556,0,2.071-0.595,2.071-1.361c0-0.71-0.481-1.156-1.259-1.156
		c-0.607,0-1.122,0.309-1.557,0.744L28.46,241.1c0.561-0.526,1.236-0.915,2.094-0.915c1.271,0,2.186,0.675,2.186,1.854
		c0,0.882-0.538,1.442-1.327,1.739v0.046c0.881,0.206,1.579,0.848,1.579,1.854c0,1.293-1.064,2.083-2.403,2.083
		c-1.167,0-1.911-0.492-2.403-1.03L28.666,246.113z"/>
</g>
<g enable-background="new    ">
	<path fill="#5B5B5B" d="M56.299,247.063c2.197-2.186,3.433-3.502,3.433-4.681c0-0.836-0.458-1.431-1.385-1.431
		c-0.606,0-1.133,0.389-1.557,0.881l-0.538-0.537c0.606-0.664,1.259-1.11,2.208-1.11c1.351,0,2.186,0.858,2.186,2.151
		c0,1.373-1.248,2.735-2.976,4.543c0.4-0.034,0.847-0.068,1.225-0.068h2.117v0.812h-4.715V247.063z"/>
	<path fill="#5B5B5B" d="M66.899,245.61h-0.996v2.014H65.01v-2.014h-3.285v-0.618l3.125-4.67h1.053v4.532h0.996V245.61z
		 M65.01,244.854v-2.117c0-0.389,0.034-1.019,0.057-1.407h-0.046c-0.183,0.354-0.389,0.675-0.595,1.029l-1.706,2.495H65.01z"/>
</g>
<g enable-background="new    ">
	<path fill="#5B5B5B" d="M89.943,247.063c2.197-2.186,3.433-3.502,3.433-4.681c0-0.836-0.458-1.431-1.385-1.431
		c-0.606,0-1.133,0.389-1.557,0.881l-0.538-0.537c0.606-0.664,1.259-1.11,2.208-1.11c1.351,0,2.186,0.858,2.186,2.151
		c0,1.373-1.248,2.735-2.976,4.543c0.4-0.034,0.847-0.068,1.225-0.068h2.117v0.812h-4.715V247.063z"/>
	<path fill="#5B5B5B" d="M95.92,246.147c0.435,0.436,0.984,0.836,1.843,0.836c0.893,0,1.602-0.652,1.602-1.671
		c0-1.007-0.618-1.603-1.556-1.603c-0.504,0-0.812,0.16-1.248,0.446l-0.503-0.32l0.24-3.514h3.65v0.812h-2.827l-0.194,2.163
		c0.343-0.183,0.675-0.297,1.122-0.297c1.247,0,2.266,0.709,2.266,2.288c0,1.58-1.19,2.473-2.46,2.473
		c-1.167,0-1.888-0.492-2.392-0.996L95.92,246.147z"/>
</g>
<g enable-background="new    ">
	<path fill="#5B5B5B" d="M123.584,247.063c2.197-2.186,3.433-3.502,3.433-4.681c0-0.836-0.458-1.431-1.385-1.431
		c-0.606,0-1.133,0.389-1.557,0.881l-0.538-0.537c0.606-0.664,1.259-1.11,2.208-1.11c1.351,0,2.186,0.858,2.186,2.151
		c0,1.373-1.248,2.735-2.976,4.543c0.4-0.034,0.847-0.068,1.225-0.068h2.117v0.812h-4.715V247.063z"/>
	<path fill="#5B5B5B" d="M133.383,241.547c-0.297-0.354-0.744-0.572-1.201-0.572c-1.019,0-1.877,0.79-1.923,3.102
		c0.458-0.561,1.11-0.915,1.705-0.915c1.259,0,2.083,0.755,2.083,2.254c0,1.396-0.984,2.347-2.163,2.347
		c-1.431,0-2.518-1.168-2.518-3.514c0-2.93,1.327-4.062,2.78-4.062c0.79,0,1.351,0.332,1.763,0.778L133.383,241.547z
		 M133.154,245.415c0-0.949-0.446-1.545-1.351-1.545c-0.458,0-1.03,0.275-1.522,0.962c0.115,1.419,0.676,2.186,1.603,2.186
		C132.605,247.017,133.154,246.377,133.154,245.415z"/>
</g>
<g enable-background="new    ">
	<path fill="#5B5B5B" d="M157.226,247.063c2.197-2.186,3.434-3.502,3.434-4.681c0-0.836-0.459-1.431-1.385-1.431
		c-0.607,0-1.134,0.389-1.557,0.881l-0.538-0.537c0.606-0.664,1.259-1.11,2.208-1.11c1.352,0,2.187,0.858,2.187,2.151
		c0,1.373-1.247,2.735-2.976,4.543c0.4-0.034,0.847-0.068,1.225-0.068h2.117v0.812h-4.715V247.063z"/>
	<path fill="#5B5B5B" d="M166.601,241.135h-3.639v-0.812h4.704v0.584c-1.729,2.209-2.083,3.868-2.209,6.718h-0.974
		C164.611,244.878,165.16,243.137,166.601,241.135z"/>
</g>
<g enable-background="new    ">
	<path fill="#5B5B5B" d="M190.868,247.063c2.197-2.186,3.433-3.502,3.433-4.681c0-0.836-0.457-1.431-1.385-1.431
		c-0.605,0-1.133,0.389-1.557,0.881l-0.537-0.537c0.606-0.664,1.259-1.11,2.209-1.11c1.35,0,2.186,0.858,2.186,2.151
		c0,1.373-1.248,2.735-2.976,4.543c0.4-0.034,0.847-0.068,1.225-0.068h2.117v0.812h-4.715V247.063z"/>
	<path fill="#5B5B5B" d="M197.943,243.79v-0.046c-0.537-0.377-1.019-0.915-1.019-1.682c0-1.122,0.894-1.877,2.071-1.877
		c1.271,0,2.061,0.812,2.061,1.945c0,0.767-0.561,1.419-1.008,1.763v0.046c0.652,0.377,1.271,0.893,1.271,1.876
		c0,1.088-0.938,1.946-2.357,1.946c-1.373,0-2.392-0.848-2.392-2.003C196.57,244.808,197.257,244.156,197.943,243.79z
		 M198.984,247.063c0.848,0,1.431-0.526,1.431-1.282c0-0.938-0.927-1.281-1.979-1.705c-0.584,0.39-1.019,0.927-1.019,1.591
		C197.417,246.479,198.092,247.063,198.984,247.063z M200.244,242.177c0-0.721-0.47-1.293-1.271-1.293
		c-0.675,0-1.179,0.469-1.179,1.179c0,0.869,0.801,1.235,1.682,1.579C199.969,243.207,200.244,242.715,200.244,242.177z"/>
</g>
<g enable-background="new    ">
	<path fill="#5B5B5B" d="M224.51,247.063c2.197-2.186,3.433-3.502,3.433-4.681c0-0.836-0.457-1.431-1.385-1.431
		c-0.605,0-1.133,0.389-1.557,0.881l-0.537-0.537c0.606-0.664,1.259-1.11,2.209-1.11c1.35,0,2.186,0.858,2.186,2.151
		c0,1.373-1.248,2.735-2.976,4.543c0.4-0.034,0.847-0.068,1.225-0.068h2.117v0.812h-4.715V247.063z"/>
	<path fill="#5B5B5B" d="M230.853,246.399c0.298,0.354,0.744,0.584,1.201,0.584c1.031,0,1.9-0.802,1.935-3.136
		c-0.458,0.583-1.11,0.938-1.716,0.938c-1.26,0-2.072-0.756-2.072-2.255c0-1.396,0.984-2.346,2.152-2.346
		c1.441,0,2.518,1.167,2.518,3.513c0,2.93-1.328,4.063-2.781,4.063c-0.778,0-1.361-0.332-1.763-0.768L230.853,246.399z
		 M233.967,243.103c-0.126-1.419-0.688-2.174-1.613-2.174c-0.71,0-1.271,0.641-1.271,1.602c0,0.95,0.447,1.545,1.352,1.545
		C232.902,244.076,233.474,243.802,233.967,243.103z"/>
</g>
<g enable-background="new    ">
	<path fill="#5B5B5B" d="M22.975,267.84c0.435,0.458,1.007,0.87,1.865,0.87c0.881,0,1.511-0.526,1.511-1.339
		c0-0.87-0.595-1.454-2.334-1.454v-0.721c1.556,0,2.071-0.595,2.071-1.361c0-0.71-0.481-1.156-1.259-1.156
		c-0.607,0-1.122,0.309-1.557,0.744l-0.503-0.596c0.561-0.526,1.236-0.915,2.094-0.915c1.27,0,2.186,0.675,2.186,1.854
		c0,0.882-0.538,1.442-1.328,1.739v0.046c0.881,0.206,1.579,0.848,1.579,1.854c0,1.293-1.064,2.083-2.403,2.083
		c-1.167,0-1.911-0.492-2.403-1.03L22.975,267.84z"/>
	<path fill="#5B5B5B" d="M28.391,265.677c0-2.449,0.881-3.765,2.346-3.765c1.454,0,2.334,1.315,2.334,3.765
		s-0.881,3.812-2.334,3.812C29.273,269.488,28.391,268.126,28.391,265.677z M32.156,265.677c0-2.14-0.572-3.01-1.419-3.01
		c-0.858,0-1.431,0.87-1.431,3.01c0,2.141,0.572,3.056,1.431,3.056C31.584,268.732,32.156,267.817,32.156,265.677z"/>
</g>
<g>
	<circle fill="#FFE94D" cx="162.459" cy="199.972" r="10.597"/>
</g>
<g enable-background="new    ">
	<path fill="#5B5B5B" d="M157.673,202.218h1.671v-5.379h-1.328v-0.606c0.664-0.114,1.145-0.297,1.545-0.538h0.721v6.523h1.512v0.778
		h-4.12V202.218z"/>
	<path fill="#5B5B5B" d="M163.238,201.485c0.434,0.458,1.006,0.87,1.865,0.87c0.881,0,1.51-0.526,1.51-1.339
		c0-0.87-0.595-1.454-2.334-1.454v-0.721c1.557,0,2.071-0.595,2.071-1.361c0-0.71-0.481-1.156-1.259-1.156
		c-0.607,0-1.121,0.309-1.557,0.744l-0.504-0.596c0.561-0.526,1.236-0.915,2.095-0.915c1.271,0,2.186,0.675,2.186,1.854
		c0,0.882-0.538,1.442-1.327,1.739v0.046c0.881,0.206,1.579,0.848,1.579,1.854c0,1.293-1.064,2.083-2.403,2.083
		c-1.167,0-1.911-0.492-2.403-1.03L163.238,201.485z"/>
</g>
<g>
	<polygon fill="#333333" points="240.92,101.303 240.213,100.596 243.132,97.677 239.962,94.507 240.669,93.8 244.546,97.677 	"/>
</g>
<g>
	<polygon fill="#333333" points="18.877,101.302 15,97.425 18.625,93.8 19.332,94.507 16.414,97.425 19.584,100.594 	"/>
</g>
</svg>
