<?xml version="1.0" encoding="utf-8"?>
<!-- Generator: Adobe Illustrator 16.0.0, SVG Export Plug-In . SVG Version: 6.00 Build 0)  -->
<!DOCTYPE svg PUBLIC "-//W3C//DTD SVG 1.1//EN" "http://www.w3.org/Graphics/SVG/1.1/DTD/svg11.dtd">
<svg version="1.1" id="Layer_1" xmlns="http://www.w3.org/2000/svg" xmlns:xlink="http://www.w3.org/1999/xlink" x="0px" y="0px"
	 width="305.783px" height="305.119px" viewBox="0 0 305.783 305.119" enable-background="new 0 0 305.783 305.119"
	 xml:space="preserve">
<g>
	<g>
		<rect x="0.664" fill="#ECE2D9" width="305.119" height="305.119"/>
	</g>
	<g>
		<g>
			<path fill="none" stroke="#FFFFFF" stroke-width="8" stroke-linecap="round" stroke-linejoin="round" stroke-miterlimit="10" d="
				M296.415,70.367"/>
		</g>
	</g>
	<g>
		<polygon fill="#CCDCA1" points="202.5,141.815 217.155,174.862 236.849,174.862 230.274,145.271 222.21,131.104 		"/>
	</g>
	<g>
		<g>
			<g>
				<path fill="#FEF4F1" d="M1.957,166.46c0.543-0.896,0.257-2.062-0.639-2.605l-0.654-0.396v3.884
					C1.183,167.25,1.662,166.946,1.957,166.46z"/>
			</g>
			<g>
				<path fill="#FEF4F1" d="M216.472,278.667c0.731-0.061,1.471-0.122,2.223-0.184c1.83-0.15,3.721-0.308,5.662-0.471l4.832,27.44
					h3.853l-4.89-27.765c5.123-0.441,11.183-0.877,17.576-1.289l1.67,5.455l-7.256,0.508c-1.053,0.072-1.834,0.979-1.76,2.025
					c0.072,1.045,0.979,1.834,2.025,1.76l9.576-0.668c0.037-0.002,0.094-0.002,0.111-0.008l5.734-0.402l1.725,14.381l-16.85,1.57
					c-0.003,0-0.006,0-0.01,0c-1.038,0.103-1.801,1.024-1.704,2.064c0.098,1.043,1.022,1.811,2.065,1.713l8.166-0.761l0.15,1.416
					h3.816L253,303.685l6.843-0.639c0.004,0,0.006-0.001,0.008-0.001c0.508-0.049,0.974-0.3,1.293-0.696
					c0.32-0.397,0.467-0.91,0.407-1.418l-2.17-18.105c-0.12-1.004-1.007-1.737-2.017-1.667l-6.084,0.426l-1.662-5.429
					c9.211-0.569,18.849-1.086,27.205-1.504l-0.135,2.885l-10.74-0.496c-0.526-0.021-1.041,0.172-1.418,0.542
					c-0.375,0.37-0.582,0.879-0.566,1.407l0.126,4.507c0.029,1.047,0.901,1.873,1.949,1.843c0.045-0.001,0.089-0.004,0.134-0.008
					c0.982-0.096,1.738-0.938,1.71-1.941l-0.069-2.465l10.599,0.489c0.502,0.022,0.993-0.154,1.364-0.494
					c0.371-0.338,0.595-0.812,0.617-1.313l0.236-5.145c9.717-0.477,17.102-0.795,18.987-0.875c2.102,0.498,4.146,0.947,6.163,1.354
					v-6.89c-1.656-0.347-3.334-0.724-5.053-1.135c-0.304-0.072-0.615-0.103-0.927-0.089c-0.114,0.005-2.998,0.126-7.646,0.337
					l0.062-46.636l9.91,0.459c0.86,0.119,2.151,0.289,3.653,0.484v-3.826c-1.33-0.174-2.459-0.322-3.219-0.43
					c-0.057-0.007-0.115-0.013-0.174-0.016l-11.955-0.553c-0.015,0-0.029,0-0.043-0.002l-7.076-0.326l0.403-8.743
					c0.001-0.017,0.002-0.033,0.002-0.05l0.474-10.233l16.918,4.013c0.559,0.133,1.146,0.006,1.601-0.346s0.724-0.891,0.735-1.463
					l0.299-15.559l0.055,0.006c0.026,0.002,0.053,0.005,0.081,0.007l1.074,0.071c0.267,0.018,0.542,0.035,0.825,0.055v-4.227
					c-0.186-0.012-0.37-0.024-0.547-0.037l-1.032-0.067l-0.374-0.04l0.031-1.605c0-0.047,0-0.098-0.002-0.146
					c-0.002-0.064-0.008-0.127-0.018-0.188l-7.053-56.542c4.679-0.545,8.382-0.501,8.447-0.501c0.054,0.001,0.105,0,0.16-0.004
					l0.385-0.031v-3.384l-0.574,0.046c-1.188-0.012-12.809-0.04-21.342,3.475c-5.008,2.062-11.396,2.193-17.063,1.765
					c-0.306-0.187-0.667-0.291-1.053-0.277c-0.218,0.007-0.423,0.059-0.614,0.134c-2.939-0.281-5.615-0.683-7.703-0.997
					c-1.152-0.174-2.148-0.323-2.973-0.423c-3.23-0.393-5.561,0.37-7.096,1.251c-0.457-2.062-1.03-3.703-1.562-4.938
					c17.367-9.191,42.209-17.425,59.98-22.712v-7.068c-17.027,4.992-41.387,12.917-59.773,22.092l-6.627-13.383
					c18.171-10.247,55.516-34.12,57.402-35.328c0.884-0.565,1.142-1.738,0.576-2.621c-0.563-0.882-1.736-1.141-2.621-0.575
					c-0.455,0.292-37.849,24.196-56.303,34.707l-3.1-14.793l10.736,0.496c0.819,0.039,1.506-0.592,1.543-1.406
					c0.037-0.813-0.592-1.504-1.406-1.542l-11.497-0.53l-3.209-15.34c4.038-1.096,11.833-1.441,22.671-0.997
					c0.176,0.093,0.376,0.151,0.588,0.166l20.479,1.367c0.804,0.054,1.498-0.545,1.568-1.345c0.069-0.801-0.514-1.51-1.312-1.596
					c-0.093-0.009-8.996-0.959-19.086-1.447l0.143-3.102l5.011,0.032c0.816,0.008,1.48-0.651,1.485-1.465
					c0.006-0.815-0.651-1.48-1.466-1.485l-8.962-0.059c-0.789-0.008-1.441,0.609-1.483,1.396c-0.042,0.787,0.541,1.468,1.325,1.547
					l1.131,0.115l-0.133,2.893c-11.297-0.428-19.126,0.005-23.29,1.287c-0.051,0.016-0.109,0.032-0.163,0.048l-10.774-6.222
					l5.955-10.106c2.808,0.685,5.604,1.229,8.25,1.537c18.623,2.167,22.637,2.232,23.861,0.39c1.023-1.542,3.223-9.337,0.354-12.482
					c-3.101-3.4-5.309-1.462-5.399-1.378c-0.604,0.548-0.647,1.482-0.101,2.085c0.496,0.544,1.306,0.634,1.901,0.241
					c0.173,0.019,0.675,0.225,1.417,1.041c1.389,1.522,0.243,7.154-0.521,8.666c-1.497,0.491-7.737-0.026-13.67-0.651l2.731-19.656
					l42.494,5.058l-0.035,0.775c-0.022,0.487,0.167,0.963,0.521,1.301c0.354,0.337,0.836,0.511,1.32,0.467l16.928-1.552
					c0.004,0,0.008-0.001,0.01-0.001c0.191-0.019,0.369-0.075,0.535-0.152v-3.075c-0.232-0.109-0.488-0.172-0.764-0.163
					l-12.977,0.465l-2.715-9.852c-0.178-0.641-0.713-1.118-1.368-1.219l-43.312-6.692c-0.188-0.1-0.396-0.167-0.621-0.19
					l-14.359-1.503l0.16-3.491h-3.376l-0.138,2.978l-8.629-0.74c-0.352-0.03-0.686,0.051-0.971,0.211l-7.902-2.449h-18.744l13,1.482
					l-2.535,26.727c-6.08-1.572-20.428-2.613-26.006-2.97c0.824-8.663,1.666-17.859,2.33-25.239h-6.772
					c-0.543,6.021-1.197,13.177-1.86,20.236l-0.22-0.224c-0.201-0.205-0.456-0.346-0.735-0.407l-12.01-2.637
					c-0.779-0.17-1.554,0.309-1.748,1.083l-4.45,17.713c-4.674-0.353-8.048-0.616-9.047-0.714c-0.09-0.008-0.179-0.013-0.268-0.019
					l2.332-9.752l1.967,0.338c0.738,0.127,1.452-0.316,1.666-1.033l7.312-24.583h-3.079l-1.933,6.498l-31.962-3.005l0.393-3.493
					h-2.121l-0.37,3.296l-1.954-0.184c-0.772-1.084-1.51-2.118-2.222-3.112h-8.306c0.36,0.5,0.728,1.011,1.107,1.539
					c-0.796-0.163-1.598-0.328-2.396-0.493l0.196-1.046h-2.145l-0.117,0.619c-1.014-0.211-2.006-0.418-2.957-0.619H84.189
					c-0.622,1.346-1.387,3.788-2.418,8.416c-0.602,2.697-1.115,5.358-1.413,6.95l-9.46-1.917c1.293-4.543,2.795-9.096,4.61-13.448
					H68.24C67.844,1.365,67.461,2.4,67.094,3.44c-2.133-0.751-5.271-1.858-8.806-3.104h-8.872c6.49,2.29,13.092,4.616,16.729,5.899
					c-2.513,7.685-4.307,15.489-5.88,22.55L29.812,18.194c-0.172-0.199-0.4-0.355-0.667-0.44l-5.892-1.879
					c0.588-1.152,1.163-2.383,1.717-3.691c2.01-4.75,3.32-8.774,4.291-11.851h-3.096c-0.923,2.889-2.144,6.517-3.914,10.701
					C17.884,21.362,11.99,26.454,10.332,27.74l-0.509,0.374c-0.646,0.475-0.794,1.377-0.336,2.034
					c0.459,0.657,1.357,0.828,2.025,0.385c0.054-0.035,0.311-0.209,0.728-0.533l4.685-3.446l7.358,4.113L10.236,67.916l-9.572,4.291
					v3.234l11.34-5.083c0.358-0.161,0.639-0.458,0.777-0.826l14.613-38.753c0.081-0.131,0.148-0.271,0.185-0.424l2.135-9.071
					L59.62,31.683c-1.309,5.876-2.565,11.383-4.015,15.639c-4.891,14.37-16.464,36.824-17.268,38.376
					c-0.644,1.083-7.312,12.266-14.667,23.972L0.664,96.759v4.352l20.979,11.771c-4.004,6.31-8.064,12.517-11.35,17.126
					c-3.217-1.278-6.455-2.438-9.629-3.495v7.125c1.8,0.621,3.61,1.274,5.414,1.965c-1.654,2.098-3.495,4.352-5.414,6.667v12.137
					l14.521,6.519c0.312,0.14,0.642,0.188,0.96,0.158c0.655-0.063,1.259-0.468,1.548-1.112c0.43-0.955,0.002-2.078-0.954-2.508
					l-14.525-6.521c3.705-4.419,7.374-8.835,10.345-12.677c7.794,3.456,15.031,7.671,20.164,12.85
					c0.831,0.838,1.689,1.707,2.568,2.598l-7.566,6.633c-0.14-0.009-0.28-0.002-0.418,0.031c-0.39,0.094-0.725,0.34-0.928,0.686
					l-7.391,12.521c-0.579-0.421-1.315-0.897-2.174-1.33c-2.469-1.247-9.993-0.582-11.709,0.722
					c-0.474,0.358-1.053,0.902-1.723,1.534c-0.777,0.731-1.828,1.72-2.719,2.371v3.369c1.533-0.574,3.234-2.172,4.741-3.591
					c0.583-0.549,1.135-1.067,1.47-1.323c0.984-0.635,7.104-1.207,8.609-0.446c1.727,0.873,2.854,1.967,2.862,1.976
					c0.323,0.319,0.769,0.475,1.228,0.415c0.451-0.059,0.851-0.321,1.082-0.713l7.488-12.688c0.436,0.276,0.961,0.611,1.535,0.976
					c-5.049,6.859-9.688,16.758-11.809,22.066c-2.035,5.089-2.907,8.171-3.254,9.602l-3.319,1.346l-10.634-0.1v3.795l5.566,0.051
					c-1.515,3.861-3.528,8.603-5.566,12.873v7.369c3.886-6.867,7.799-16.672,8.965-19.672l1.295-0.525l3.01,0.027l54.799,8.515
					c0.194,0.032,0.395,0.036,0.595,0.005c0.196-0.027,0.384-0.088,0.559-0.173l13.68-6.505c0.489,1.41,1.202,3.897,1.573,7.229
					l-4.355-0.201c-1.048-0.049-1.934,0.76-1.982,1.807c-0.048,1.047,0.761,1.935,1.808,1.984l4.771,0.219
					c0.027,1.869-0.066,3.994-0.371,6.34l-17.034,5.078l-1.597-2.236c-0.608-0.854-1.793-1.051-2.646-0.441
					c-0.853,0.607-1.051,1.793-0.441,2.646l2.353,3.297c0.021,0.03,0.04,0.06,0.062,0.087l10.248,14.361
					c-0.427,0.515-0.872,1.015-1.332,1.498l-17.947-25.269c-0.607-0.854-1.792-1.055-2.646-0.448
					c-0.854,0.607-1.055,1.793-0.448,2.646L71.81,247.79c-8.473,6.932-20.511,9.816-29.56,11.013l2.244-8.575l4.093-6.469
					c0.336-0.531,0.387-1.195,0.136-1.771l-5.816-13.36c-0.419-0.962-1.539-1.401-2.497-0.983c-0.961,0.42-1.401,1.537-0.982,2.498
					l5.415,12.438l-3.036,4.799l-8.42-1.44l-4.566-10.451c-0.42-0.961-1.538-1.398-2.498-0.979c-0.96,0.419-1.398,1.538-0.979,2.498
					l4.901,11.218l-20.757,0.144c-1.055,0.007-1.891,0.862-1.884,1.909c0.007,1.049,0.862,1.893,1.91,1.885l22.009-0.151
					c1.051-0.007,1.891-0.862,1.884-1.909c0-0.106-0.01-0.211-0.026-0.312l6.995,1.197l-2.163,8.268
					c-5.043,0.457-8.462,0.382-8.574,0.379c-1.051-0.027-1.92,0.795-1.951,1.844c-0.029,1.047,0.795,1.92,1.842,1.95
					c0.303,0.009,5.711,0.147,13.111-0.819l-0.341,7.369c-0.002,0.028-0.003,0.058-0.003,0.086l-0.755,16.34l-5.759-0.265
					c-1.045-0.048-1.934,0.761-1.982,1.808c-0.048,1.048,0.761,1.935,1.808,1.983l20.017,0.923
					c-2.141,2.573-3.116,4.895-3.397,5.643c-7.01-2.115-14.34-3.743-23.052-0.475c-0.084-0.074-0.173-0.145-0.272-0.203
					L0.664,278.849v4.428l24.323,14.613c-8.972,4.334-17.095,6.305-24.323,6.975v0.588h24.039c1.412-0.619,2.829-1.281,4.253-1.991
					c8.847-4.411,15.793-2.245,23.836,0.265c1.88,0.586,3.835,1.192,5.873,1.727h21.801c3.815-0.934,7.721-2.137,11.538-3.314
					c12.479-3.853,24.265-7.49,28.986-0.875c1.021,1.432,2.054,2.827,3.088,4.189h9.212c0.651-1.026,1.373-2.079,2.191-3.161
					c0.9-1.19,1.992-2.476,3.049-3.72c1.665-1.961,3.239-3.814,4.364-5.588c0.148-0.233,0.293-0.465,0.434-0.699
					c4.911-0.131,11.062-0.583,17.086-1.564l2.808,14.732h3.863l-2.938-15.417c1.229-0.251,2.438-0.528,3.619-0.831l3.627,16.248
					h3.889l-3.863-17.305c1.975-0.647,3.812-1.385,5.441-2.226c5.076-2.618,11.297-4.118,19.142-5.208l3.119,13.276
					c0.004,0.015,0.008,0.03,0.011,0.045l2.682,11.416h3.897l-2.544-10.833l6.346-3.116c0.94-0.462,1.328-1.599,0.867-2.54
					c-0.462-0.941-1.598-1.329-2.539-0.867l-5.564,2.732l-2.488-10.598c3.061-0.357,6.345-0.677,9.884-0.988
					c1.943,8.023,4.302,17.6,6.431,26.209h6.951C220.907,296.791,218.483,286.954,216.472,278.667z M245.386,10.258l0.165-1.188
					l40.815,6.307l1.83,6.641l-43.129-5.131L245.386,10.258z M25.154,27.772l-6.961-3.892c1.168-1.498,2.396-3.272,3.609-5.348
					l5.107,1.776L25.154,27.772z M236.603,209.915c-0.422,0.834-0.822,1.622-1.172,2.37c-2.873,6.146-1.625,18.657-1.509,19.759
					l0.06,1.229l-6.58,1.547l-1.373-59.07l17.64,1.859c0.101,14.125-2.489,22.396-5.004,28.05l-2.618-1.373
					c-0.722-0.38-1.604-0.255-2.191,0.308l-4.775,4.562c-0.758,0.725-0.784,1.927-0.061,2.684c0.725,0.758,1.926,0.785,2.683,0.061
					l3.789-3.621l1.536,0.806C236.881,209.368,236.741,209.646,236.603,209.915z M166.192,261.323l0.582,3.003
					c-0.34,0.106-0.678,0.216-1.016,0.325c-8.525,2.757-12.85,1.888-14.977,0.672c-1.71-0.979-2.249-2.363-2.379-2.788
					c0.356-0.456,2.266-2.353,10.047-3.64c12.3-2.031,33.831-8.25,41.507-10.521c1.192,2.513,2.287,4.867,3.194,6.933
					c-6.465,1.234-19.563,3.945-32.73,7.893l-0.504-2.6c-0.199-1.029-1.195-1.701-2.225-1.5
					C166.665,259.299,165.993,260.294,166.192,261.323z M45.367,163.92l-3.445,1.317c-0.327,0.125-0.599,0.361-0.767,0.668
					c-0.006,0.01-0.57,0.957-1.409,1.18c-0.459,0.121-0.964,0.005-1.546-0.354c-0.92-0.565-2.335-1.455-3.804-2.383
					c0.643-0.73,1.28-1.386,1.906-1.935c1.273-1.117,2.609-2.38,3.928-3.683C41.964,160.492,43.677,162.222,45.367,163.92z
					 M41.853,150.766l4.423-3.875l0.231,0.244c-0.926,1.043-2.321,2.597-3.951,4.344C42.32,151.24,42.086,151.002,41.853,150.766z
					 M44.926,153.888c1.587-1.697,2.957-3.22,3.913-4.296l3.594,3.786l-4.36,3.7C46.998,155.991,45.947,154.926,44.926,153.888z
					 M55.049,156.136l0.421,0.443l-3.94,3.982c-0.26-0.262-0.519-0.521-0.777-0.781L55.049,156.136z M64.429,90.453l9.455,0.436
					c0.29,0.552,0.561,1.053,0.793,1.479c0.217,0.703,0.989,3.15,2.317,6.74l-3.163-2.274c-0.184-0.132-0.393-0.218-0.61-0.255
					L64.429,90.453z M67.303,96.053c-2.865-0.702-6.311-1.833-9.104-2.89l0.133-2.992l0.432,0.02c0.431,0.246,0.847,0.5,1.218,0.759
					L67.303,96.053z M73.601,80.727c3.828-0.893,6.608-1.394,7.858-1.604l4.526,6.337c0.011,0.014,0.023,0.027,0.034,0.041
					c0.044,0.058,0.092,0.111,0.144,0.162c0.01,0.01,0.018,0.022,0.028,0.032l3.259,2.998c0.312,0.288,0.751,0.421,1.156,0.381
					l6.88-0.738l-0.154,4.275c-0.011,0.288,0.045,0.575,0.161,0.838l9.305,20.975l-4.812,1.824
					c-1.447-3.667-2.836-7.047-3.397-7.979c-0.506-0.841-2.011-3.34-13.079,1.562c-4.746-10.46-7.231-18.665-7.257-18.75
					c-0.039-0.128-0.091-0.251-0.155-0.369C76.125,87.126,74.083,82.698,73.601,80.727z M74.013,77.602
					c0.764-3.243,2.012-8.072,2.165-8.665c1.202-0.064,2.426-0.129,3.669-0.192l0.588,7.557
					C79.13,76.528,76.921,76.943,74.013,77.602z M158.274,92.041c-0.813-0.038-1.504,0.592-1.541,1.406l-0.269,5.785l-0.61,10.198
					c-2.11-0.025-5.536-0.246-7.729-0.408l-0.178-3.069c4.331-0.119,4.721-0.783,5.016-1.283c0.554-0.941,0.843-5.403,0.854-13.271
					l17.166,0.105c-0.284,0.612-0.651,1.404-1.127,2.43c-1.998,4.303-0.508,15.622-0.008,18.963l-2.018,0.221
					c-0.042,0.002-0.082,0.007-0.122,0.013l-22.146,2.422c-1.632-3.362-3.171-6.527-4.585-9.434l4.053,0.538l0.223,3.825
					c0.043,0.734,0.62,1.326,1.354,1.385c0.334,0.027,8.206,0.659,10.737,0.487c0.758-0.054,1.329-0.643,1.374-1.384l0.693-11.581
					l0.269-5.804C159.718,92.769,159.089,92.078,158.274,92.041z M211.454,55.903l2.232,8.267c0.024,0.095,0.061,0.186,0.104,0.274
					l1.358,2.721l-4.832,1.502c-0.92-6.899-1.707-12.668-1.932-14.295l2.272-4.468l3.629,2.095l-2.458,2.48
					C211.459,54.853,211.315,55.396,211.454,55.903z M205.304,97.494l17.848-4.731l1.402,5.923l-37.074,12.126
					c-1.392-2.867-2.508-5.51-3.393-7.834L205.304,97.494z M183.079,100.19c-1.512-4.402-2.039-7.118-2.049-7.17
					c-0.027-0.146-0.063-0.292-0.11-0.434c-0.053-0.161-0.106-0.329-0.162-0.494l28.62-7.846c0.184,1.443,0.359,2.847,0.525,4.181
					c0.255,2.063,0.666,3.512,1.066,4.511l-6.414,1.701L183.079,100.19z M213.854,92.173c-0.313-0.681-0.756-1.953-1.022-4.109
					c-0.181-1.464-0.376-3.013-0.579-4.607l7.23-1.982l1.988-0.568l1.578,8.828L213.854,92.173z M218.688,78.633l-6.815,1.868
					c-0.379-2.938-0.774-5.96-1.16-8.866l5.772-1.794l4.115,8.246L218.688,78.633z M208.999,81.289l-29.178,7.999
					c-0.041-0.124-0.081-0.245-0.125-0.37c-1.115-3.325-2.408-7.174-3.616-11.288l31.751-5.27
					C208.22,75.295,208.619,78.339,208.999,81.289z M180.448,111.737l-7.663,0.838c-0.651-4.321-1.733-14.208-0.252-17.4
					l1.247-2.687c0.232,0.693,0.455,1.362,0.664,1.999C174.72,95.849,176.208,102.535,180.448,111.737z M182.202,115.362
					c1.008,1.989,2.136,4.067,3.398,6.211c6.379,10.817,8.084,18.592,8.521,21.391c-12.429,7.394-21.09,11.422-28.361,14.521
					c-6.257-13.117-12.799-26.674-18.438-38.309l19.445-2.126l10.022,24.357c0.326,0.792,1.127,1.246,1.938,1.167
					c0.182-0.019,0.361-0.062,0.539-0.135c0.969-0.398,1.43-1.508,1.031-2.477l-9.605-23.343L182.202,115.362z M173.468,244.21
					l0.829,4.268c-6.183,1.576-12.308,2.998-16.944,3.764c-1.273,0.209-2.459,0.447-3.574,0.707l-0.305-4.002L173.468,244.21z
					 M153.182,245.116l-0.383-5.022l19.054-4.206l0.892,4.594L153.182,245.116z M171.213,212.696
					c1.239-0.578,2.337-1.073,3.179-1.448l7.699,18.494l-7.257,1.603L171.213,212.696z M183.571,233.301l1.75,4.202l-8.881,2.104
					l-0.881-4.537L183.571,233.301z M188.369,240.681c0.541-0.127,0.999-0.486,1.252-0.984c0.253-0.495,0.276-1.077,0.062-1.59
					l-12.529-30.1c-0.194-0.467-0.566-0.837-1.034-1.027c-0.47-0.19-0.993-0.188-1.459,0.011c-0.173,0.073-2.175,0.927-4.892,2.19
					l-1.406-3.262c4.16-1.798,8.174-3.406,10.537-4.337c1.927,4.31,3.406,7.762,4.281,10.037c3.688,9.591,8.858,20.307,13.42,29.764
					c0.133,0.276,0.268,0.554,0.399,0.828c-4.217,1.238-11.448,3.319-19.022,5.313l-0.812-4.189L188.369,240.681z M177.798,182.978
					c-2.799-6.01-5.902-12.59-9.137-19.396c4.229-1.806,8.917-3.92,14.5-6.793l5.406,13.868c0.287,0.734,0.961,1.248,1.744,1.33
					l7.268,0.766c-0.16,0.035-0.318,0.084-0.473,0.163L177.798,182.978z M183.176,194.651c-1.157-2.551-2.425-5.308-3.776-8.229
					l7.916-4.125l1.271,2.224c0.521,0.91,1.682,1.225,2.59,0.703c0.909-0.521,1.225-1.68,0.703-2.589l-1.197-2.092l8.18-4.261
					c0.929-0.484,1.289-1.631,0.806-2.561c-0.204-0.392-0.528-0.675-0.901-0.844l13.077,1.378L183.176,194.651z M196.375,168.386
					l11.724-7.546l3.678,9.169L196.375,168.386z M191.638,166.923l-4.723-12.111c4.467-2.401,9.48-5.277,15.227-8.815l4.518,11.257
					L191.638,166.923z M118.032,136.128l-13.521,4.642c-1.426-1.761-2.957-3.722-4.595-5.916c-2.486-3.329-4.903-7.014-7.233-11.024
					l7.132-2.702c1.017,2.628,2.03,5.297,2.846,7.471c0.179,0.477,0.542,0.862,1.008,1.068c0.467,0.207,0.995,0.217,1.47,0.028
					l18.153-7.215c0.974-0.387,1.448-1.491,1.062-2.464s-1.491-1.45-2.463-1.062l-16.359,6.502
					c-0.537-1.422-1.317-3.474-2.166-5.673l6.654-2.521c0.487-0.185,0.878-0.562,1.078-1.043c0.201-0.481,0.195-1.024-0.017-1.501
					l-9.94-22.408l0.152-4.211l20.773-0.151c0.004,0.112,0.014,0.225,0.038,0.339l1.935,8.973l-4.787,0.573
					c-0.022,0.002-0.045,0.005-0.066,0.007l-8.085,0.967l-4.907-9.427c-0.484-0.93-1.631-1.291-2.56-0.807
					c-0.93,0.484-1.291,1.629-0.808,2.559l5.514,10.592c0.364,0.7,1.143,1.1,1.908,1.008l7.839-0.938l2.499,8.261l-6.975,3.08
					c-0.959,0.424-1.393,1.544-0.97,2.502c0.424,0.958,1.545,1.391,2.503,0.969l8.51-3.76c0.876-0.387,1.327-1.367,1.049-2.284
					l-2.791-9.227l2.931-0.35l3.731,17.309l-2.227,0.501c-0.562,0.127-1.037,0.503-1.29,1.021c-0.252,0.519-0.255,1.124-0.007,1.645
					l21.256,44.707c-0.473,0.253-0.945,0.504-1.429,0.772c-1.502,0.836-3.062,1.715-4.674,2.625l-19.937-32.633
					C119.804,136.173,118.876,135.838,118.032,136.128z M120.24,144.166l-8.065,5.382c-1.478-1.563-3.164-3.415-5.071-5.655
					l10.721-3.682L120.24,144.166z M102.08,67.918c8.834-0.173,16.761-0.076,21.623,0.535c-0.219,3.035-0.244,5.777-0.148,8.22
					l-21.851,1.921l0.464-10.036C102.177,68.335,102.141,68.121,102.08,67.918z M123.657,78.634
					c0.172,2.489,0.465,4.607,0.784,6.344l-23.039,0.168l0.207-4.497L123.657,78.634z M143.31,151.029l9.756-4.417
					c2.152,4.482,4.32,9.006,6.455,13.479c-3.408,1.416-6.569,2.756-9.834,4.348L143.31,151.029z M151.421,143.192l-9.741,4.409
					l-12.184-25.626l1.745-0.394c1.017-0.228,1.657-1.233,1.438-2.25l-5.731-26.581C130.023,99.037,140.364,120.21,151.421,143.192z
					 M125.677,55.032c-0.201,1.027-0.412,2.115-0.633,3.272c-0.484,2.545-0.836,4.953-1.08,7.221
					c-8.747-1.053-25.975-0.611-41.32,0.119l0.33-11.056l0.229-4.953l5.405-29.256l31.4,6.361c3.593,5.442,5.547,8.996,6.513,12.062
					C127.955,43.351,127.193,47.255,125.677,55.032z M98.433,68.004c-0.031,0.122-0.051,0.249-0.057,0.379L97.598,85.25
					l-0.004,0.106l-6.637,0.712l-2.184-2.009l2.513-15.822C93.685,68.146,96.079,68.067,98.433,68.004z M88.28,68.355L86.3,80.82
					l-2.864-4.01l-0.639-8.209C84.605,68.515,86.439,68.432,88.28,68.355z M95.55,110.627c0.544,1.118,1.643,3.809,2.886,6.966
					l-7.634,2.892c-1.258-2.309-2.486-4.712-3.686-7.21C90.668,111.735,94.25,110.608,95.55,110.627z M96.876,137.125
					c1.581,2.116,3.062,4.02,4.449,5.741L86.62,157.624l-2.643-2.501c-0.011-0.011-0.021-0.021-0.032-0.03l-6.223-5.89l2.937-3.85
					c0.344-0.453,0.268-1.098-0.173-1.457l-3.199-2.607l12.373-15.111C91.985,130.146,94.395,133.803,96.876,137.125z
					 M80.034,156.615l-7.264,8.393l-3.935-4.146l6.574-8.625L80.034,156.615z M78.364,144.886l-2.181,2.859l-2.356-2.229
					l2.126-2.596L78.364,144.886z M73.87,150.78l-6.505,8.532l-6.817-7.184l1.133-3.987l4.352-4.78L73.87,150.78z M59.265,146.412
					c-0.154,0.169-0.267,0.371-0.329,0.59l-0.749,2.639l-3.396-3.577l6.629-7.066l1.714,1.622l0.709,0.761L59.265,146.412z
					 M57.503,158.722l5.719,6.024l-3.203,4.202c-2.153-2.088-4.301-4.205-6.402-6.301L57.503,158.722z M64.692,166.296l4.376,4.61
					c0.108,0.261,0.271,0.503,0.5,0.7c0.129,0.113,0.271,0.197,0.418,0.268l10.228,10.777c-0.653,1.022-0.971,2.168-1.058,3.348
					c-5.209-3.984-11.395-9.6-17.609-15.575L64.692,166.296z M75.395,167.772l7.397-8.547l2.562,2.424
					c0.748,0.709,1.923,0.69,2.649-0.039l15.748-15.802c3.754,4.449,6.694,7.443,8.904,9.693c3.349,3.41,4.405,4.559,4.337,6.021
					l-0.088,1.92c-7.165,1.406-23.118,9.561-31.432,14.949L75.395,167.772z M85.887,186.321c1.096-1.029,4.618-3.239,9.017-5.711
					l5.262,9.236c-4.803,1.68-8.833,2.467-11.43,1.793c-0.279-0.084-0.551-0.168-0.812-0.257c-0.259-0.094-0.527-0.2-0.804-0.321
					C86.235,189.194,85.667,187.076,85.887,186.321z M96.748,179.588c7.936-4.351,17.844-9.106,21.814-9.591
					c1.547,1.541,4.303,4.327,7.011,7.77c-7.914,4.326-16.335,8.645-23.399,11.344L96.748,179.588z M123.068,164.963l-0.376-0.374
					c-0.541-0.541-1.207-0.921-1.989-1.143l0.081-1.748c0.147-3.188-1.831-5.2-5.421-8.856c-0.166-0.169-0.336-0.342-0.511-0.52
					l7.367-4.917l14.681,24.03c-1.703,0.963-3.492,1.977-5.342,3.012C128.315,170.188,124.941,166.827,123.068,164.963z
					 M140.749,177.008c2.612-1.479,5.079-2.876,7.408-4.171c4.89-2.719,9.287-4.579,14.269-6.646
					c1.701,3.578,3.365,7.094,4.97,10.494l-28.431,11.543c-0.83-2.85-2.116-5.602-3.622-8.174
					C137.116,179.062,138.917,178.045,140.749,177.008z M168.292,178.595c1.215,2.582,2.391,5.092,3.514,7.504l-12.772,6.656
					l-1.919-5.119c-0.368-0.98-1.461-1.479-2.442-1.109c-0.981,0.367-1.479,1.461-1.11,2.441l2.672,7.127
					c0.191,0.508,0.592,0.91,1.099,1.105c0.278,0.105,0.573,0.145,0.862,0.117c0.24-0.023,0.476-0.094,0.693-0.207l14.521-7.565
					c1.418,3.063,2.737,5.938,3.932,8.571c-4.347,1.71-13.705,5.488-20.03,8.764c-2.973,1.54-10.491,2.344-15.228,2.667
					c-0.889-8.25-1.855-15.56-2.574-19.125c-0.008-0.042-0.02-0.085-0.027-0.127L168.292,178.595z M171.128,232.162l-18.619,4.11
					l-1.095-14.352c2.054-0.506,5.698-1.663,9.937-4.158c1.95-1.146,4.189-2.316,6.326-3.371L171.128,232.162z M202.677,238.451
					c-4.506-9.339-9.609-19.923-13.199-29.255c-0.957-2.486-2.59-6.284-4.711-11.02l31.767-22.601
					c0.278-0.199,0.487-0.464,0.622-0.761l5.066,0.533l0.982,42.229l-13.893,3.405c-1.019,0.25-1.641,1.276-1.392,2.293
					c0.25,1.019,1.278,1.641,2.294,1.392l13.079-3.205l0.332,14.245l-20.004,4.704C203.313,239.769,202.998,239.114,202.677,238.451
					z M216.043,170.458l-1.739-4.339l7.062-3.076c0.961-0.418,1.399-1.536,0.981-2.497c-0.419-0.961-1.537-1.4-2.496-0.98
					l-6.961,3.031l-7.477-18.639c4.865-3.061,10.227-6.575,16.184-10.641l7.545,14.344l3.295,14.652
					c0.006,0.027,0.012,0.056,0.019,0.082l2.256,10.029L216.043,170.458z M242.401,206.597c2.56-5.902,5.111-14.441,5.062-28.589
					l12.771,1.347l0.176,26.771L242.401,206.597z M260.783,209.911l0.508,11.345l-23.89,0.827c0.134-3.116,0.539-6.206,1.467-8.189
					c0.324-0.692,0.71-1.455,1.119-2.261c0.195-0.385,0.396-0.782,0.604-1.194L260.783,209.911z M245.84,173.599
					c-0.057-0.011-0.114-0.015-0.173-0.02l-6.975-0.734l-2.047-9.109l8.904-0.373l1.305,10.343L245.84,173.599z M277.138,267.881
					c-11.635,0.581-25.88,1.354-38.049,2.202l-0.357-17.359c0-0.018-0.002-0.035-0.002-0.054l-0.649-13.312l6.097-0.702
					l-1.005,18.008c-0.06,1.046,0.742,1.94,1.789,2c0.099,0.006,0.196,0.003,0.292-0.006c0.915-0.091,1.654-0.835,1.708-1.783
					l1.041-18.66l8.636-0.995l-0.211,9.959c-0.021,1.047,0.811,1.914,1.857,1.937c0.076,0.002,0.15-0.001,0.227-0.009
					c0.943-0.092,1.69-0.877,1.711-1.849l0.221-10.476l10.035-1.157l0.676,23.013c0.031,1.047,0.906,1.871,1.953,1.84
					c0.043,0,0.088-0.004,0.131-0.008c0.982-0.096,1.738-0.939,1.709-1.943l-0.687-23.336l4.41-0.508L277.138,267.881z
					 M279.438,218.019c0,0.008,0,0.015,0,0.021s-0.002,0.014-0.002,0.021l-0.459,9.959c-0.336-0.067-0.686-0.084-1.041-0.043
					l-40.188,4.631l-0.039-0.803c-0.002-0.037-0.005-0.076-0.009-0.113c-0.138-1.264-0.296-3.396-0.339-5.811l25.976-0.898
					c0.505-0.017,0.983-0.236,1.329-0.608c0.343-0.372,0.523-0.866,0.501-1.372l-0.591-13.189l15.26-0.399L279.438,218.019z
					 M280.511,194.796c-0.002,0.025-0.003,0.051-0.004,0.075l-0.494,10.739l-4.65,0.121l0.052-24.778l5.709,0.601L280.511,194.796z
					 M288.425,220.354l-0.062,46.985c-2.24,0.104-4.733,0.224-7.416,0.354l2.195-47.584L288.425,220.354z M299.7,197.071
					l-15.327-3.637l0.528-11.481l15.06,1.586L299.7,197.071z M293.035,121.773l7.028,56.36l-0.021,1.175l-8.587-0.906
					c0.151-0.282,0.237-0.604,0.228-0.947l-1.554-55.08C291.095,122.144,292.069,121.945,293.035,121.773z M285.151,123.944
					c0.396-0.163,0.802-0.315,1.211-0.462l1.525,54.08c0.006,0.166,0.038,0.322,0.082,0.475l-2.876-0.303
					c0-0.014,0.001-0.025,0.001-0.039c0-0.002,0-0.004,0-0.008c-0.001-0.035-0.003-0.071-0.006-0.106l-3.441-52.497
					C282.856,124.78,284.03,124.406,285.151,123.944z M277.892,125.785l3.379,51.544l-11.836-1.246
					c0.071-0.21,0.105-0.438,0.099-0.672l-1.753-49.375C271.054,126.231,274.534,126.226,277.892,125.785z M271.62,180.554
					l-0.053,25.278l-7.219,0.188c-0.037-0.121-0.086-0.238-0.146-0.349l-0.169-25.919L271.62,180.554z M265.74,175.547
					c0.002,0.052,0.015,0.099,0.02,0.147l-15.028-1.582l-1.375-10.91l6.475-0.271c0.023,0,0.049-0.002,0.072-0.004l9.377-0.394
					L265.74,175.547z M254.052,124.375c0.776,0.094,1.75,0.242,2.879,0.411c1.938,0.292,4.359,0.655,7.041,0.935l1.172,33.019
					l-8.021,0.337c-1.837-5.383-8.587-25.479-8.978-31.255c-0.043-0.637-0.102-1.248-0.168-1.837
					C248.595,125.378,250.472,123.939,254.052,124.375z M253.168,159.244l-17.369,0.729l-3.011-13.391
					c-0.018-0.077-0.039-0.153-0.066-0.227l14.604-5.462C249.349,147.849,251.88,155.446,253.168,159.244z M246.294,137.231
					l-15.335,5.734l-6.214-11.812c3.377-2.333,6.936-4.837,10.693-7.528c2.092-1.498,4.449-2.982,7.016-4.446
					c0.757,1.852,1.627,4.78,1.904,8.898C244.493,130.048,245.253,133.393,246.294,137.231z M236.058,98.106l6.575,13.281
					c-4.142,2.195-7.907,4.453-11.12,6.753c-12.443,8.91-22.662,15.734-31.248,21.081c-1.002-4.393-3.351-11.743-8.853-21.075
					c-0.786-1.332-1.515-2.638-2.192-3.912l41.866-13.694c0.039-0.012,0.078-0.026,0.116-0.042
					C232.317,100.051,233.981,99.224,236.058,98.106z M231.539,78.03l3.427,16.361c-2.217,1.209-3.977,2.099-5.119,2.563
					l-2.367,0.774l-3.153-17.636L231.539,78.03z M230.933,75.134l-7.445,2.127l-4.146-8.309l3.871-1.203
					c0.594-0.185,1.008-0.721,1.036-1.341l0.2-4.351l3.447-1.421L230.933,75.134z M225.457,58.449l-3.002,1.237
					c-0.53,0.219-0.886,0.724-0.912,1.297l-0.196,4.255l-3.342,1.039l-1.507-3.02l-1.974-7.304l2.404-2.429L225.457,58.449z
					 M217.749,5.969l24.345,2.547l-0.067,1.429l-4.102,29.503c-1.507-0.17-2.922-0.334-4.148-0.477
					c-2.396-0.279-4.926-0.762-7.473-1.369c0.715-2.738,1.692-7.488,0.543-9.562c-0.445-0.804-1.08-1.121-1.533-1.246
					c-2.002-0.551-8.049-0.785-11.113-0.869L217.749,5.969z M205.142,2.285L214.87,5.3l-3.878,21.802
					c-0.076,0.425,0.038,0.863,0.313,1.196c0.273,0.333,0.68,0.53,1.112,0.538c3.804,0.067,9.953,0.322,11.901,0.752
					c0.344,0.904-0.053,4.071-0.881,7.284c-8.987-2.439-17.646-6.095-20.854-7.631L205.142,2.285z M202.291,32.36
					c3.778,1.724,11.665,4.947,19.927,7.231l-5.542,9.404l-15.134-8.739L202.291,32.36z M174.247,28.51
					c9.089,0.575,21.705,1.725,26.007,3l-0.785,8.279c-3.325-0.24-14.407-1.042-26.145-1.898
					C173.619,34.975,173.929,31.804,174.247,28.51z M172.149,48.819c0.229-1.925,0.496-4.363,0.787-7.152
					c12.494,0.913,24.277,1.764,26.832,1.948l8.33,4.811l-2.108,4.148l-33.978-2.357C172.05,49.748,172.094,49.281,172.149,48.819z
					 M205.563,55.503c0.312,2.298,1.045,7.677,1.879,13.93l-32.176,5.339c-1.925-7.024-3.447-14.62-3.382-21.605L205.563,55.503z
					 M172.464,88.561l-20.113-0.124c-0.396-0.002-0.772,0.152-1.051,0.43c-0.279,0.278-0.436,0.655-0.435,1.049
					c0.013,5.099-0.142,11.061-0.415,12.923c-1.617,0.265-6.42,0.177-11.111-0.086c-3.885-7.974-6.559-13.435-7.181-14.704
					c-0.087-0.242-0.331-0.967-0.618-2.141l39.355-2.157C171.427,85.426,171.955,87.034,172.464,88.561z M169.997,80.844
					l-39.044,2.141c-0.636-3.864-1.1-9.823-0.177-17.615l35.438-0.074C167.131,70.672,168.528,75.976,169.997,80.844z
					 M156.024,20.492l10.185,2.235l1.653,1.682c-0.438,4.587-0.868,9.033-1.27,12.988c-5.193-0.381-10.244-0.754-14.544-1.076
					L156.024,20.492z M151.111,40.057c4.414,0.331,9.677,0.72,15.095,1.118c-0.277,2.664-0.534,4.996-0.755,6.846
					c-0.142,1.185-0.229,2.389-0.275,3.604l-16.367-2.401L151.111,40.057z M165.147,54.604c0.047,2.555,0.267,5.148,0.615,7.741
					l-20.173,0.042l3.055-10.204L165.147,54.604z M148.124,39.832l-5.668,22.562l-11.275,0.023c0.145-0.929,0.306-1.878,0.491-2.853
					c0.219-1.146,0.429-2.224,0.628-3.242c1.353-6.943,2.144-11.439,1.517-15.886c1.585-0.743,3.753-1.481,5.83-1.277
					C140.626,39.255,143.761,39.501,148.124,39.832z M131.386,8.232l15.768,1.482l-3.897,13.104l-12.162-2.092
					C131.922,17.056,131.62,11.207,131.386,8.232z M129.932,23.521l9.233,1.588l-2.496,10.435c-1.357,0.245-2.631,0.671-3.728,1.133
					c-0.989-3.068-2.716-6.414-5.433-10.743C128.364,25.372,129.222,24.593,129.932,23.521z M115.722,6.76l12.682,1.192
					c0.377,4.447,0.515,11.117-0.569,13.294c-0.508,1.021-1.218,1.719-1.923,2.199c-2.122-3.237-4.729-6.998-7.91-11.517
					c-0.85-1.208-1.672-2.373-2.467-3.497L115.722,6.76z M99.634,4.281c2.022,0.416,3.934,0.806,5.471,1.117
					c2.186,3.06,4.636,6.515,7.38,10.413c1.965,2.792,3.681,5.251,5.181,7.446L96.851,19.04L99.634,4.281z M86.873,1.515
					c1.935,0.493,6.35,1.436,10.697,2.339l-2.785,14.768l-11.536-2.338C84.377,10.13,85.926,3.473,86.873,1.515z M61.992,49.495
					c1.672-4.913,3.045-11.089,4.498-17.628c1.063-4.787,2.217-9.976,3.622-15.236l15.603,3.161l-5.433,29.404
					c-0.012,0.066-0.02,0.133-0.022,0.2l-0.234,5.078l-0.338,11.313c-11.085,0.561-20.783,1.233-24.953,1.535
					C57.462,61.286,60.151,54.902,61.992,49.495z M52.531,72.111l1.08-1.746c2.272-0.167,9.483-0.683,18.591-1.206
					c-0.584,2.277-1.803,7.075-2.301,9.43c-0.576,0.146-1.165,0.298-1.773,0.458c-5.507,1.458-14.128,0.26-18.643-0.552
					C50.44,76.529,51.471,74.375,52.531,72.111z M47.496,82.542c0.206-0.415,0.418-0.844,0.639-1.289
					c4.437,0.849,14.265,2.364,20.748,0.648c0.367-0.097,0.728-0.19,1.084-0.282c0.439,1.832,1.401,4.132,2.404,6.246l-12.777-0.589
					c-0.175-0.096-0.35-0.189-0.521-0.282c-2.395-1.275-5.287-2.383-8.598-3.293c-1.316-0.362-2.281-0.604-2.998-0.758
					L47.496,82.542z M36.585,101.643l21.446,13.863c0.282,0.182,0.615,0.262,0.944,0.229c0.082-0.008,0.162-0.023,0.242-0.044
					c0.403-0.109,0.742-0.384,0.932-0.758l4.188-8.262c0.369-0.727,0.078-1.615-0.648-1.983s-1.614-0.078-1.983,0.649l-3.448,6.8
					L38.125,99.123c1.057-1.736,2.014-3.317,2.839-4.687l18.496,11.231c0.284,0.172,0.602,0.238,0.908,0.208
					c0.446-0.044,0.868-0.29,1.118-0.703c0.424-0.697,0.202-1.604-0.494-2.028L42.486,91.907c0.964-1.606,1.569-2.625,1.701-2.846
					c0.032-0.055,0.063-0.11,0.093-0.167c0.105-0.203,0.712-1.373,1.652-3.231c1.036,0.197,5.357,1.081,9.519,2.869
					c-0.002,0.011-0.002,0.021-0.002,0.032l-0.246,5.529c-0.027,0.63,0.348,1.208,0.934,1.438
					c2.045,0.805,11.796,4.526,16.299,4.098l6.521,4.545c1.045,2.583,2.275,5.465,3.696,8.533c1.61,3.475,3.28,6.79,5.001,9.931
					L71.064,142.9l-8.872-8.397c-0.339-0.32-0.764-0.483-1.194-0.507l-0.207-0.222c-0.025-0.027-0.052-0.053-0.078-0.078
					c-0.21-0.194-4.379-4.022-9.092-6.533c0.893-1.135,1.342-2.273,1.338-3.396c-0.006-1.857-1.207-3.033-1.785-3.598
					c-0.061-0.059-0.113-0.109-0.152-0.152c-0.671-0.736-1.796-1.186-2.937-1.174c-0.927,0.009-2.296,0.326-3.552,1.768
					c-0.924,1.06-1.238,2.402-0.885,3.783c0.469,1.829,2.046,3.48,4.02,4.206c4.993,1.837,10.494,6.769,11.004,7.23l0.354,0.38
					c0.068,0.388,0.251,0.759,0.559,1.05l0.306,0.291l-6.552,6.983l-11.631-12.255l-1.117-21.055
					c-0.001-0.019-0.007-0.036-0.009-0.055c-0.004-0.036-0.009-0.072-0.017-0.108c-0.007-0.033-0.016-0.066-0.026-0.098
					c-0.01-0.032-0.021-0.063-0.034-0.094c-0.014-0.032-0.028-0.063-0.046-0.093c-0.015-0.03-0.033-0.058-0.052-0.085
					c-0.02-0.028-0.039-0.055-0.061-0.081c-0.021-0.027-0.045-0.052-0.07-0.076c-0.023-0.024-0.049-0.046-0.074-0.067
					c-0.026-0.021-0.053-0.041-0.081-0.06c-0.031-0.021-0.063-0.039-0.097-0.056c-0.016-0.009-0.029-0.02-0.047-0.028l-6.805-3.126
					C34.367,105.262,35.513,103.396,36.585,101.643z M50.007,123.776c0.002,0.577-0.406,1.302-1.181,2.105
					c-0.048-0.018-0.094-0.034-0.14-0.052c-1.039-0.382-1.956-1.294-2.18-2.168c-0.146-0.572,0.072-0.908,0.25-1.112
					c0.396-0.456,0.815-0.708,1.245-0.749c0.021-0.002,0.042-0.004,0.062-0.005c0.43-0.021,0.731,0.168,0.775,0.209
					c0.07,0.077,0.162,0.168,0.269,0.272C49.582,122.739,50.005,123.202,50.007,123.776z M32.051,109l6.466,2.971l0.953,17.95
					l-1.408-1.485c-0.024-0.026-0.053-0.048-0.077-0.073c0.351-0.437,0.303-1.076-0.122-1.449l-10.99-9.674
					C28.63,114.477,30.378,111.69,32.051,109z M16.637,132.719c2.748-3.918,5.908-8.716,9.088-13.682l9.512,8.373
					c-0.736,0.083-1.431,0.404-1.969,0.926l-8.702,8.429C22.021,135.314,19.361,133.968,16.637,132.719z M30.437,140.47l5.077-4.918
					l9.309,9.808l-4.45,3.901c-0.981-0.995-1.937-1.963-2.858-2.893C35.416,144.25,33.028,142.29,30.437,140.47z M36.772,155.22
					c0.359,0.364,0.725,0.736,1.09,1.107c-1.278,1.265-2.566,2.484-3.783,3.552c-0.853,0.748-1.71,1.642-2.562,2.646
					c-0.674-0.428-1.285-0.816-1.784-1.135L36.772,155.22z M32.534,166.665c1.579,0.998,3.132,1.975,4.119,2.582
					c1.608,0.988,2.981,0.922,3.849,0.691c1.48-0.393,2.449-1.465,2.919-2.114l4.228-1.616c0.143,0.143,0.283,0.283,0.426,0.425
					L37.43,180.813l-10.454-5.221c-0.005-0.003-0.011-0.004-0.017-0.007C28.71,172.374,30.619,169.24,32.534,166.665z
					 M17.621,198.419c0.054-0.124,0.095-0.254,0.117-0.391c0.005-0.029,0.535-3.026,3.265-9.856
					c1.199-3.001,2.948-6.856,4.97-10.731c0.021,0.013,0.04,0.027,0.062,0.039l10.109,5.049l-0.874,1.164
					c-0.312,0.416-0.438,0.938-0.354,1.449c0.086,0.512,0.375,0.965,0.805,1.258l2.449,1.668c-0.205,0.215-0.322,0.511-0.288,0.83
					l1.355,12.879L17.621,198.419z M45.201,202.704l-3.809-0.592l-1.344-12.764l7.078,4.823L45.201,202.704z M39.498,184.382
					l11.294-15.048c1.737,1.72,3.444,3.392,5.116,5.007l-5.966,7.826c-0.341,0.445-0.271,1.082,0.158,1.443l2.297,1.941
					l-1.981,2.827c-0.012,0.017-0.023,0.032-0.035,0.048l-1.598,2.281L39.498,184.382z M68.762,206.365l-19.804-3.078l2.07-9.173
					l1.408-2.008l19.203,12.891L68.762,206.365z M75.625,203.101l-21.009-14.104l2.707-3.862l3.064,2.347
					c0.832,0.637,2.022,0.479,2.659-0.354c0.638-0.832,0.479-2.022-0.353-2.66l-4.636-3.548c-0.41-0.312-0.926-0.447-1.442-0.369
					c-0.511,0.079-0.967,0.363-1.265,0.786l-1.74,2.481l-1.386-1.17l5.21-6.834c10.135,9.719,18.909,17.252,25.452,20.67
					c0.002,0,0.004,0.002,0.006,0.002c1.148,0.692,2.329,1.133,3.501,1.494L75.625,203.101z M70.303,229.248l13.97-4.166
					c-0.944,4.271-2.601,9.075-5.363,14.228c-0.203,0.377-0.413,0.748-0.633,1.112L70.303,229.248z M75.755,249.368
					c1.481-1.358,2.809-2.807,3.973-4.338c0.08-0.09,0.151-0.186,0.213-0.284c0.865-1.167,1.637-2.381,2.312-3.642
					c10.538-19.65,6.414-34.762,4.764-39.217l4.533-2.156c1.184,0.672,2.111,1.67,2.833,3.49
					c2.724,6.852,8.769,32.299,10.397,47.293c0,0.008,0.002,0.016,0.002,0.023l-4.787,0.104l-5.284-44.771
					c-0.123-1.041-1.078-1.793-2.106-1.662c-1.041,0.122-1.785,1.065-1.662,2.106l5.242,44.408L75.65,251.17
					C75.612,250.495,75.644,249.896,75.755,249.368z M103.433,275.61l-0.499-0.082l-2.491-21.104l5.281-0.115
					c0.557,1.395,1.336,2.683,2.326,3.854c-2.07,0.874-3.673,2.294-3.872,4.613C103.938,264.629,103.321,270.007,103.433,275.61z
					 M46.46,262.028c1.465-0.25,2.977-0.545,4.521-0.891c8.409-1.888,15.468-4.837,20.979-8.725
					c0.033,0.268,0.072,0.539,0.118,0.816c0.01,0.14,0.033,0.273,0.07,0.402c0.561,3.04,1.858,6.758,3.647,11.444l-29.611,2.927
					L46.46,262.028z M77.211,268.749c2.356,6.38,2.151,11.17,1.828,13.434c-2.234-0.154-4.289-0.117-6.177,0.067
					c-1.293,0.126-2.508,0.321-3.646,0.571l-1.029-13.18L77.211,268.749z M45.329,286.576l0.681-14.742l1.758-0.175l0.226,15.041
					L45.329,286.576z M51.791,286.874l-0.234-15.589l12.854-1.271l1.086,13.901c-2.463,0.923-4.468,2.101-6.073,3.31L51.791,286.874
					z M90.014,295.69c-5.489,1.694-11.166,3.447-16.21,4.252c-6.529,1.046-12.125-0.522-17.949-2.329
					c0.394-0.992,1.805-4.06,5.121-6.812c0.175-0.1,0.332-0.226,0.467-0.375c1.67-1.301,3.784-2.503,6.438-3.345
					c0.123-0.023,0.241-0.062,0.353-0.109c3.215-0.962,7.198-1.397,12.114-0.867c0.888,0.095,1.726-0.442,2.006-1.293
					c0.092-0.279,2.108-6.646-1.252-16.449l0.553-0.055c1.043-0.104,1.805-1.031,1.702-2.074c-0.104-1.043-1.031-1.803-2.073-1.702
					c-0.001,0.001-0.001,0.001-0.002,0.001l-1.567,0.154c-1.502-3.903-2.679-7.136-3.375-9.738l20.293-0.441l2.701,22.885
					c0.099,0.842,0.742,1.515,1.578,1.65l2.73,0.445c0.365,3.967,1.236,7.658,3.026,9.855c0.528,0.648,1.048,1.24,1.558,1.791
					C102.483,291.844,96.203,293.781,90.014,295.69z M100.654,200.729c-0.534-1.345-1.166-2.463-1.861-3.408
					c8.236-2.276,18.655-7.422,30.639-13.988c1.602,2.697,2.888,5.564,3.464,8.421c0.423,2.099,0.992,5.938,1.599,10.833
					l-6.714,1.553l-0.617-5c-0.128-1.039-1.081-1.767-2.115-1.65c-1.04,0.128-1.779,1.076-1.651,2.115l0.876,7.09
					c0.066,0.535,0.356,1.016,0.797,1.324c0.372,0.26,0.823,0.377,1.271,0.332c0.082-0.008,0.163-0.021,0.244-0.039l8.363-1.936
					c0.633,5.48,1.275,11.884,1.816,18.491c0.818,9.991,1.105,16.899,1.117,21.481l-26.391,3.463c0-0.008-0.002-0.019-0.004-0.028
					c-0.271-2.507-0.67-5.337-1.159-8.347l21.53-2.287c1.042-0.11,1.797-1.045,1.686-2.088c-0.109-1.037-1.035-1.789-2.07-1.688
					c-0.006,0-0.011,0.001-0.017,0.001l-21.769,2.312C107.165,223.508,103.071,206.812,100.654,200.729z M137.812,250.187
					c-0.063,1.404-0.164,2.39-0.28,3.021c-2.327,0.911-8.622,2.902-14.474,3.473c-0.938,0.092-1.756,0.133-2.477,0.143
					c-0.57-0.024-1.135-0.042-1.69-0.051c-1.653-0.131-2.485-0.477-2.84-0.676c-1.345-0.761-2.386-1.638-3.138-2.643
					L137.812,250.187z M133.388,294.205c-1.117,1.315-2.272,2.675-3.288,4.019c-0.523,0.692-1.012,1.375-1.477,2.053
					c-0.719-0.961-1.435-1.938-2.144-2.93c-0.761-1.068-1.598-1.974-2.497-2.748c3.997-1.546,8.329-2.805,10.58-2.518
					c0.169,0.021,0.356,0.042,0.559,0.061C134.577,292.806,133.989,293.497,133.388,294.205z M139.229,285.597
					c-1.623-0.023-2.935-0.097-3.817-0.209c-5.489-0.693-14.4,3.012-18.154,4.728c-1.195-0.794-3.168-2.343-5.359-5.031
					c-1.985-2.435-2.114-12.517-1.111-20.786c1.254-0.518,4.116-0.829,7.803-0.781c0.608,0.041,1.247,0.06,1.914,0.055
					c3.299,0.144,7.08,0.556,10.889,1.328c6.873,1.395,9.539,3.127,10.081,3.762C141.781,273.196,142.125,279.097,139.229,285.597z
					 M142.48,259.284c-0.334,0.584-0.551,1.165-0.689,1.727c-0.871-0.391-1.823-0.763-2.876-1.113
					c3.151-1.121,3.626-1.74,3.992-2.223c1.023-1.341,2.929-3.838,0.682-32.115c-0.317-3.99-0.7-8.17-1.112-12.232
					c4.534-0.305,12.781-1.111,16.579-3.077c1.746-0.905,3.756-1.858,5.836-2.799l1.45,3.364c-2.301,1.131-4.757,2.406-6.915,3.678
					c-5.717,3.365-10.239,4.02-10.279,4.025c-0.998,0.131-1.72,1.021-1.643,2.024l2.55,33.463
					C146.251,255.325,143.747,257.069,142.48,259.284z M173.765,279.929c-6.649,3.432-18.274,4.997-27.219,5.491
					c1.756-5.144,1.973-9.843,1.846-13.745c2.822,1.331,6.275,1.801,10.33,1.405c2.762-0.271,5.805-0.94,9.113-2.011
					c15.168-4.908,31.346-8.161,37.746-9.357c0.033,0.135,0.062,0.268,0.086,0.387c0.288,1.522,1.18,5.379,2.406,10.514
					C193.083,273.96,182.364,275.492,173.765,279.929z M212.295,260.842c-0.205-1.079-0.635-2.448-1.245-4.065
					c-0.023-0.071-0.051-0.142-0.078-0.209c-1.027-2.688-2.543-6.049-4.371-9.924l27.717-6.519l0.621,12.704l0.36,17.525
					c-2.788,0.207-5.432,0.414-7.862,0.625c-3.248,0.283-6.344,0.537-9.297,0.779c-1.111,0.092-2.199,0.182-3.271,0.271
					C213.549,266.521,212.587,262.38,212.295,260.842z"/>
			</g>
		</g>
	</g>
	<g id="Calles_anchas_2_">
		<g>
			<g>
				<g>
					
						<rect x="172.383" y="0.328" transform="matrix(0.9959 0.0908 -0.0908 0.9959 0.8368 -15.7377)" fill="#898989" width="2" height="1.999"/>
				</g>
				<g>
					<path fill="#898989" d="M195.55,138.386c-0.001-0.003-0.03-0.133-0.031-0.137c-0.231-1.046-0.575-2.239-1.021-3.545
						l1.893-0.646c0.47,1.375,0.833,2.64,1.081,3.758L195.55,138.386z M193.127,131.087c-0.462-1.123-0.986-2.322-1.558-3.566
						l1.818-0.835c0.582,1.269,1.116,2.493,1.589,3.64L193.127,131.087z M189.885,123.997c-0.59-1.194-1.188-2.363-1.773-3.483
						l1.771-0.928c0.594,1.134,1.197,2.317,1.795,3.524L189.885,123.997z M186.264,117.063c-0.705-1.286-1.355-2.442-1.912-3.418
						l1.736-0.992c0.562,0.984,1.219,2.152,1.93,3.448L186.264,117.063z M182.336,110.154c-0.621-1.359-1.148-2.405-1.613-3.328
						l-0.082-0.163l1.787-0.899l0.082,0.163c0.473,0.939,1.008,2.003,1.645,3.396L182.336,110.154z M178.982,102.997
						c-0.412-1.112-0.776-2.34-1.146-3.866l1.943-0.472c0.352,1.448,0.694,2.605,1.078,3.642L178.982,102.997z M177.002,95.253
						c-0.085-0.436-0.171-0.892-0.26-1.372c-0.236-0.72-0.489-1.479-0.755-2.274l1.896-0.635c0.275,0.823,0.537,1.608,0.779,2.351
						c0.014,0.042,0.025,0.085,0.033,0.128c0.092,0.498,0.182,0.97,0.269,1.42L177.002,95.253z M174.738,87.883
						c-0.398-1.196-0.811-2.446-1.227-3.74l1.904-0.612c0.414,1.287,0.824,2.53,1.221,3.721L174.738,87.883z M172.286,80.396
						c-0.324-1.022-0.718-2.312-1.14-3.793l1.924-0.548c0.416,1.46,0.804,2.73,1.122,3.738L172.286,80.396z M170.118,72.778
						c-0.31-1.228-0.618-2.522-0.909-3.857l1.953-0.427c0.287,1.313,0.59,2.586,0.896,3.793L170.118,72.778z M168.438,65.026
						c-0.239-1.351-0.44-2.676-0.598-3.937l1.984-0.248c0.153,1.228,0.35,2.519,0.582,3.837L168.438,65.026z M167.474,57.108
						c-0.048-0.848-0.071-1.67-0.071-2.445c0-0.536,0.011-1.063,0.034-1.581l1.998,0.089c-0.021,0.489-0.032,0.987-0.032,1.492
						c0,0.763,0.024,1.543,0.067,2.334L167.474,57.108z M169.72,49.292l-1.994-0.161c0.022-0.278,0.049-0.555,0.081-0.83
						c0.11-0.923,0.229-1.963,0.354-3.102l1.988,0.22c-0.127,1.145-0.246,2.19-0.356,3.119
						C169.763,48.789,169.74,49.04,169.72,49.292z M170.567,41.509l-1.988-0.207c0.128-1.235,0.262-2.541,0.399-3.902l1.99,0.2
						C170.831,38.965,170.697,40.272,170.567,41.509z M171.34,33.686l-1.99-0.188l0.37-3.908l1.99,0.188L171.34,33.686z
						 M172.081,25.869l-1.99-0.188l0.37-3.909l1.99,0.188L172.081,25.869z M172.822,18.052l-1.99-0.188l0.37-3.908l1.99,0.188
						L172.822,18.052z M173.563,10.235l-1.99-0.188l0.37-3.908l1.99,0.188L173.563,10.235z"/>
				</g>
				<g>
					<path fill="#898989" d="M196.641,144.062c-0.002-0.013-0.096-0.673-0.329-1.927l1.967-0.365
						c0.245,1.322,0.343,2.011,0.343,2.011L196.641,144.062z"/>
				</g>
			</g>
		</g>
	</g>
	<g>
		<g>
			<polygon fill="#FEF4F1" points="148.394,72.368 146.435,72.278 146.502,70.809 145.035,70.741 144.966,72.21 143.008,72.12 
				142.941,73.588 144.899,73.678 144.763,76.616 146.232,76.683 146.367,73.746 148.326,73.836 			"/>
		</g>
	</g>
	<g>
		<g>
			<polygon fill="#FEF4F1" points="230.987,10.496 228.907,10.4 228.979,8.841 227.421,8.77 227.349,10.328 225.271,10.232 
				225.198,11.791 227.276,11.887 227.133,15.005 228.692,15.077 228.835,11.958 230.915,12.055 			"/>
		</g>
	</g>
	<g>
		<g>
			<g>
				<path fill="#FEF4F1" d="M177.144,63.904c0.035-0.789,0.48-1.654,0.989-2.18c-1.247,0.359-2.301,1.639-2.364,3.006
					c-0.078,1.717,1.25,3.173,2.967,3.253c0.929,0.042,1.662-0.167,2.263-0.786c-0.319,0.092-0.567,0.113-0.916,0.097
					C178.364,67.215,177.063,65.621,177.144,63.904z"/>
			</g>
			<g>
				<polygon fill="#FEF4F1" points="181.298,62.715 182.321,62.236 182.079,63.339 182.851,64.165 181.726,64.276 181.181,65.265 
					180.726,64.229 179.618,64.016 180.462,63.265 180.323,62.144 				"/>
			</g>
		</g>
	</g>
	<g>
		<path fill="#FEF4F1" d="M107.933,40.832l-0.979-0.007l0.001-0.699c0.002-0.925-0.667-1.676-2.342-1.68
			c-1.676-0.003-2.234,0.746-2.237,1.671l-0.001,0.678l-1.17-0.008c0,0-0.51,2.483-0.616,4.38c-0.192,3.45,7.866,3.515,7.866,0.107
			C108.455,43.192,107.933,40.832,107.933,40.832z M102.933,40.799l0.001-0.681c0.001-0.616,0.562-1.116,1.678-1.113
			c1.117,0.001,1.785,0.504,1.784,1.121l-0.001,0.696L102.933,40.799z"/>
	</g>
	<g>
		<path fill="#292726" d="M140.921,114.173c0.15,0.277,0.047,0.625-0.23,0.776l-2.235,1.213c-0.278,0.151-0.626,0.047-0.776-0.23
			l-5.319-9.799c-0.151-0.277-0.048-0.625,0.23-0.776l2.234-1.213c0.278-0.151,0.626-0.048,0.776,0.229L140.921,114.173z"/>
	</g>
	<g>
		<path fill="#292726" d="M91.509,17.949c0.303,0.088,0.477,0.406,0.389,0.71L91.183,21.1c-0.088,0.304-0.406,0.477-0.71,0.389
			l-10.701-3.13c-0.303-0.088-0.478-0.406-0.389-0.71l0.714-2.44c0.089-0.304,0.407-0.478,0.711-0.39L91.509,17.949z"/>
	</g>
	<g>
		<path fill="#292726" d="M84.295,151.917c0.224-0.223,0.587-0.222,0.81,0.002l1.793,1.805c0.223,0.225,0.221,0.586-0.002,0.81
			l-7.91,7.858c-0.223,0.223-0.586,0.221-0.81-0.002l-1.792-1.804c-0.223-0.226-0.222-0.588,0.002-0.812L84.295,151.917z"/>
	</g>
</g>
<g>
	<rect x="283.229" y="264.237" fill="#F50057" width="14.963" height="14.965"/>
</g>
<g>
	<rect x="283.229" y="281.384" fill="#F50057" width="14.963" height="14.807"/>
</g>
<g enable-background="new    ">
	<path fill="#FFFFFF" d="M290.172,272.152h-2.291v-0.781h2.291v-2.454h0.818v2.454h2.291v0.781h-2.291v2.454h-0.818V272.152z"/>
</g>
<g enable-background="new    ">
	<path fill="#FFFFFF" d="M289.543,288.456h2.769v0.759h-2.769V288.456z"/>
</g>
<g>
	<rect x="10.733" y="281.978" fill="#FFFFFF" width="96" height="15"/>
</g>
<g enable-background="new    ">
	<path fill="#808080" d="M27.347,290.877c0.303,0.316,0.729,0.529,1.168,0.529c0.555,0,0.884-0.277,0.884-0.69
		c0-0.433-0.304-0.568-0.704-0.749l-0.607-0.265c-0.4-0.168-0.858-0.472-0.858-1.091c0-0.646,0.562-1.123,1.33-1.123
		c0.503,0,0.949,0.213,1.252,0.522l-0.291,0.349c-0.258-0.245-0.568-0.4-0.962-0.4c-0.471,0-0.787,0.239-0.787,0.62
		c0,0.406,0.368,0.562,0.703,0.703l0.601,0.259c0.49,0.213,0.871,0.503,0.871,1.129c0,0.672-0.548,1.207-1.439,1.207
		c-0.594,0-1.117-0.245-1.485-0.626L27.347,290.877z"/>
	<path fill="#808080" d="M31.906,288.586c0.8,0,1.252,0.574,1.252,1.471c0,0.11-0.006,0.214-0.019,0.291h-2.117
		c0.039,0.678,0.445,1.104,1.045,1.104c0.297,0,0.549-0.097,0.781-0.245l0.187,0.349c-0.271,0.174-0.607,0.322-1.033,0.322
		c-0.839,0-1.504-0.613-1.504-1.639C30.499,289.212,31.189,288.586,31.906,288.586z M32.693,289.999
		c0-0.639-0.284-0.994-0.774-0.994c-0.439,0-0.839,0.361-0.903,0.994H32.693z"/>
	<path fill="#808080" d="M35.619,289.812c0-0.399-0.136-0.787-0.646-0.787c-0.368,0-0.69,0.168-0.936,0.336l-0.213-0.368
		c0.291-0.188,0.729-0.406,1.233-0.406c0.768,0,1.091,0.51,1.091,1.29v1.924h-0.439l-0.045-0.374h-0.013
		c-0.303,0.245-0.652,0.451-1.039,0.451c-0.529,0-0.923-0.329-0.923-0.891C33.689,290.303,34.283,289.96,35.619,289.812z
		 M34.761,291.451c0.303,0,0.555-0.148,0.858-0.42v-0.871c-1.052,0.129-1.407,0.388-1.407,0.788
		C34.212,291.303,34.451,291.451,34.761,291.451z"/>
	<path fill="#808080" d="M37.151,288.663h0.438l0.046,0.567h0.02c0.213-0.394,0.535-0.645,0.891-0.645
		c0.135,0,0.232,0.019,0.335,0.064l-0.103,0.464c-0.104-0.032-0.175-0.051-0.304-0.051c-0.265,0-0.581,0.193-0.794,0.723v2.014
		h-0.529V288.663z"/>
	<path fill="#808080" d="M40.606,288.586c0.413,0,0.703,0.174,0.916,0.374l-0.265,0.342c-0.187-0.161-0.381-0.277-0.633-0.277
		c-0.567,0-0.98,0.49-0.98,1.214c0,0.716,0.394,1.2,0.968,1.2c0.297,0,0.549-0.148,0.736-0.316l0.238,0.349
		c-0.284,0.252-0.646,0.406-1.02,0.406c-0.833,0-1.472-0.6-1.472-1.639C39.096,289.186,39.799,288.586,40.606,288.586z"/>
	<path fill="#808080" d="M42.272,287.204h0.529v1.252l-0.02,0.646c0.297-0.284,0.613-0.516,1.046-0.516
		c0.658,0,0.955,0.426,0.955,1.226v1.988h-0.529v-1.917c0-0.587-0.181-0.839-0.594-0.839c-0.322,0-0.542,0.168-0.858,0.484v2.271
		h-0.529V287.204z"/>
	<path fill="#808080" d="M48.866,289.812c0-0.399-0.136-0.787-0.646-0.787c-0.368,0-0.691,0.168-0.937,0.336l-0.213-0.368
		c0.291-0.188,0.729-0.406,1.233-0.406c0.768,0,1.091,0.51,1.091,1.29v1.924h-0.439l-0.045-0.374h-0.013
		c-0.304,0.245-0.652,0.451-1.04,0.451c-0.528,0-0.923-0.329-0.923-0.891C46.936,290.303,47.529,289.96,48.866,289.812z
		 M48.007,291.451c0.304,0,0.556-0.148,0.859-0.42v-0.871c-1.053,0.129-1.407,0.388-1.407,0.788
		C47.459,291.303,47.697,291.451,48.007,291.451z"/>
	<path fill="#808080" d="M50.313,291.09c0.271,0.22,0.549,0.374,0.923,0.374c0.413,0,0.62-0.219,0.62-0.49
		c0-0.322-0.375-0.465-0.717-0.594c-0.445-0.161-0.936-0.374-0.936-0.903c0-0.504,0.399-0.891,1.077-0.891
		c0.395,0,0.736,0.161,0.975,0.354l-0.251,0.336c-0.213-0.162-0.439-0.277-0.717-0.277c-0.394,0-0.574,0.213-0.574,0.451
		c0,0.297,0.342,0.407,0.697,0.542c0.451,0.168,0.955,0.355,0.955,0.949c0,0.51-0.407,0.936-1.149,0.936
		c-0.445,0-0.871-0.187-1.168-0.433L50.313,291.09z"/>
	<path fill="#808080" d="M54.461,287.565h0.535v4.234h-0.535V287.565z"/>
	<path fill="#808080" d="M57.412,288.663h0.438l0.046,0.451h0.019c0.271-0.297,0.601-0.528,0.976-0.528
		c0.478,0,0.735,0.226,0.864,0.6c0.329-0.354,0.652-0.6,1.033-0.6c0.646,0,0.955,0.426,0.955,1.226v1.988h-0.529v-1.917
		c0-0.587-0.188-0.839-0.581-0.839c-0.245,0-0.497,0.161-0.787,0.484v2.271h-0.529v-1.917c0-0.587-0.188-0.839-0.588-0.839
		c-0.232,0-0.497,0.161-0.787,0.484v2.271h-0.529V288.663z"/>
	<path fill="#808080" d="M63.986,288.586c0.769,0,1.452,0.6,1.452,1.652c0,1.039-0.684,1.639-1.452,1.639
		c-0.768,0-1.452-0.6-1.452-1.639C62.534,289.186,63.219,288.586,63.986,288.586z M63.986,291.438c0.542,0,0.903-0.484,0.903-1.2
		c0-0.724-0.361-1.214-0.903-1.214c-0.535,0-0.903,0.49-0.903,1.214C63.083,290.954,63.451,291.438,63.986,291.438z"/>
	<path fill="#808080" d="M65.789,288.663h0.549l0.594,1.781c0.091,0.31,0.193,0.626,0.291,0.923h0.025
		c0.091-0.297,0.193-0.613,0.284-0.923l0.594-1.781h0.522l-1.11,3.137h-0.619L65.789,288.663z"/>
	<path fill="#808080" d="M70.406,288.586c0.8,0,1.252,0.574,1.252,1.471c0,0.11-0.007,0.214-0.02,0.291h-2.117
		c0.039,0.678,0.445,1.104,1.046,1.104c0.297,0,0.549-0.097,0.781-0.245l0.188,0.349c-0.271,0.174-0.607,0.322-1.033,0.322
		c-0.839,0-1.504-0.613-1.504-1.639C68.999,289.212,69.689,288.586,70.406,288.586z M71.193,289.999
		c0-0.639-0.284-0.994-0.774-0.994c-0.438,0-0.839,0.361-0.903,0.994H71.193z"/>
	<path fill="#808080" d="M73.829,289.096h-0.464v-0.4l0.49-0.032l0.064-0.878h0.445v0.878h0.846v0.433h-0.846v1.742
		c0,0.388,0.123,0.606,0.484,0.606c0.109,0,0.252-0.045,0.354-0.083l0.104,0.399c-0.174,0.059-0.388,0.116-0.581,0.116
		c-0.671,0-0.897-0.426-0.897-1.045V289.096z"/>
	<path fill="#808080" d="M75.923,287.204h0.529v1.252l-0.02,0.646c0.297-0.284,0.613-0.516,1.046-0.516
		c0.658,0,0.955,0.426,0.955,1.226v1.988h-0.529v-1.917c0-0.587-0.181-0.839-0.594-0.839c-0.322,0-0.542,0.168-0.858,0.484v2.271
		h-0.529V287.204z"/>
	<path fill="#808080" d="M80.611,288.586c0.8,0,1.252,0.574,1.252,1.471c0,0.11-0.007,0.214-0.02,0.291h-2.117
		c0.039,0.678,0.445,1.104,1.046,1.104c0.297,0,0.549-0.097,0.781-0.245l0.188,0.349c-0.271,0.174-0.607,0.322-1.033,0.322
		c-0.839,0-1.504-0.613-1.504-1.639C79.204,289.212,79.895,288.586,80.611,288.586z M81.398,289.999
		c0-0.639-0.284-0.994-0.774-0.994c-0.438,0-0.839,0.361-0.903,0.994H81.398z"/>
	<path fill="#808080" d="M83.944,288.663h0.438l0.046,0.451h0.02c0.271-0.297,0.6-0.528,0.975-0.528c0.478,0,0.735,0.226,0.864,0.6
		c0.329-0.354,0.652-0.6,1.033-0.6c0.646,0,0.955,0.426,0.955,1.226v1.988h-0.529v-1.917c0-0.587-0.188-0.839-0.581-0.839
		c-0.245,0-0.497,0.161-0.787,0.484v2.271h-0.529v-1.917c0-0.587-0.188-0.839-0.588-0.839c-0.232,0-0.497,0.161-0.787,0.484v2.271
		h-0.529V288.663z"/>
	<path fill="#808080" d="M91.074,289.812c0-0.399-0.136-0.787-0.646-0.787c-0.368,0-0.691,0.168-0.937,0.336l-0.213-0.368
		c0.291-0.188,0.729-0.406,1.233-0.406c0.768,0,1.091,0.51,1.091,1.29v1.924h-0.439l-0.045-0.374h-0.013
		c-0.304,0.245-0.652,0.451-1.04,0.451c-0.528,0-0.923-0.329-0.923-0.891C89.144,290.303,89.737,289.96,91.074,289.812z
		 M90.216,291.451c0.303,0,0.555-0.148,0.858-0.42v-0.871c-1.053,0.129-1.407,0.388-1.407,0.788
		C89.667,291.303,89.905,291.451,90.216,291.451z"/>
	<path fill="#808080" d="M93.135,292.064v1.059h-0.529v-4.46h0.438l0.046,0.361h0.019c0.284-0.239,0.633-0.438,1.001-0.438
		c0.807,0,1.239,0.626,1.239,1.601c0,1.064-0.639,1.69-1.355,1.69c-0.29,0-0.581-0.135-0.871-0.361L93.135,292.064z M93.902,291.432
		c0.517,0,0.897-0.471,0.897-1.245c0-0.691-0.232-1.155-0.826-1.155c-0.265,0-0.529,0.148-0.839,0.426v1.646
		C93.419,291.342,93.696,291.432,93.902,291.432z"/>
</g>
<g>
	<polygon fill="#F50057" points="18.776,292.772 15.463,289.914 16.117,289.156 18.654,291.347 23.394,285.578 24.166,286.213 	"/>
</g>
<g>
	<rect x="240.608" y="9.986" fill="#FFFFFF" width="58" height="9"/>
</g>
<g>
	<polygon fill="#666666" points="290.515,14.483 291.858,12.556 293.202,14.483 	"/>
</g>
<g>
	<polygon fill="#666666" points="293.202,15.023 291.858,16.951 290.515,15.023 	"/>
</g>
<g>
	<g enable-background="new    ">
		<path fill="#666666" d="M246.099,12.748h0.969c0.662,0,1.12,0.225,1.12,0.797c0,0.323-0.185,0.611-0.567,0.711v0.02
			c0.478,0.075,0.756,0.334,0.756,0.781c0,0.642-0.507,0.955-1.238,0.955h-1.039V12.748z M246.993,14.142
			c0.558,0,0.786-0.199,0.786-0.562c0-0.353-0.259-0.502-0.767-0.502h-0.502v1.064H246.993z M247.078,15.684
			c0.562,0,0.89-0.204,0.89-0.646c0-0.403-0.318-0.587-0.89-0.587h-0.567v1.233H247.078z"/>
		<path fill="#666666" d="M248.983,12.47h0.408v3.084c0,0.13,0.055,0.18,0.113,0.18c0.025,0,0.045,0,0.09-0.01l0.055,0.308
			c-0.055,0.025-0.124,0.04-0.233,0.04c-0.309,0-0.433-0.194-0.433-0.547V12.47z"/>
		<path fill="#666666" d="M250.216,13.594h0.414v1.478c0,0.453,0.134,0.646,0.452,0.646c0.249,0,0.423-0.124,0.651-0.407v-1.717
			h0.408v2.418h-0.338l-0.035-0.378h-0.016c-0.223,0.264-0.462,0.438-0.795,0.438c-0.513,0-0.742-0.328-0.742-0.945V13.594z"/>
		<path fill="#666666" d="M253.862,13.534c0.617,0,0.965,0.443,0.965,1.135c0,0.084-0.005,0.164-0.016,0.224h-1.631
			c0.029,0.522,0.344,0.851,0.806,0.851c0.229,0,0.423-0.074,0.603-0.189l0.144,0.269c-0.209,0.135-0.468,0.249-0.796,0.249
			c-0.646,0-1.158-0.473-1.158-1.264S253.31,13.534,253.862,13.534z M254.469,14.624c0-0.492-0.219-0.767-0.597-0.767
			c-0.338,0-0.646,0.279-0.696,0.767H254.469z"/>
		<path fill="#666666" d="M256.135,12.748h0.428l0.344,1.776c0.06,0.354,0.129,0.701,0.188,1.055h0.021
			c0.074-0.354,0.154-0.706,0.229-1.055l0.452-1.776h0.379l0.452,1.776c0.08,0.343,0.159,0.701,0.239,1.055h0.02
			c0.06-0.354,0.119-0.706,0.184-1.055l0.344-1.776h0.397l-0.676,3.264h-0.498l-0.492-1.965c-0.06-0.254-0.109-0.487-0.159-0.741
			h-0.02c-0.05,0.254-0.109,0.487-0.164,0.741l-0.483,1.965h-0.492L256.135,12.748z"/>
		<path fill="#666666" d="M261.626,14.479c0-0.309-0.104-0.606-0.497-0.606c-0.283,0-0.532,0.129-0.721,0.259l-0.165-0.284
			c0.225-0.145,0.562-0.313,0.95-0.313c0.592,0,0.841,0.394,0.841,0.995v1.482h-0.338l-0.035-0.288h-0.01
			c-0.233,0.188-0.503,0.348-0.801,0.348c-0.408,0-0.712-0.254-0.712-0.687C260.139,14.857,260.597,14.594,261.626,14.479z
			 M260.965,15.743c0.233,0,0.428-0.114,0.661-0.323v-0.672c-0.811,0.1-1.084,0.299-1.084,0.607
			C260.542,15.629,260.727,15.743,260.965,15.743z"/>
		<path fill="#666666" d="M262.874,13.928h-0.358v-0.309l0.378-0.025l0.05-0.676h0.344v0.676h0.651v0.334h-0.651v1.343
			c0,0.299,0.095,0.468,0.373,0.468c0.084,0,0.193-0.035,0.273-0.064l0.079,0.308c-0.134,0.045-0.298,0.09-0.447,0.09
			c-0.518,0-0.691-0.328-0.691-0.806V13.928z"/>
		<path fill="#666666" d="M265.342,13.534c0.616,0,0.965,0.443,0.965,1.135c0,0.084-0.005,0.164-0.015,0.224h-1.632
			c0.029,0.522,0.343,0.851,0.806,0.851c0.229,0,0.423-0.074,0.602-0.189l0.145,0.269c-0.209,0.135-0.468,0.249-0.796,0.249
			c-0.646,0-1.159-0.473-1.159-1.264S264.789,13.534,265.342,13.534z M265.948,14.624c0-0.492-0.219-0.767-0.597-0.767
			c-0.338,0-0.646,0.279-0.696,0.767H265.948z"/>
		<path fill="#666666" d="M266.903,13.594h0.338l0.035,0.438h0.015c0.164-0.304,0.413-0.498,0.687-0.498
			c0.104,0,0.179,0.016,0.259,0.05l-0.08,0.358c-0.079-0.024-0.134-0.04-0.233-0.04c-0.204,0-0.448,0.149-0.612,0.558v1.552h-0.407
			V13.594z"/>
	</g>
</g>
</svg>
