<?xml version="1.0" encoding="utf-8"?>
<!-- Generator: Adobe Illustrator 16.0.0, SVG Export Plug-In . SVG Version: 6.00 Build 0)  -->
<!DOCTYPE svg PUBLIC "-//W3C//DTD SVG 1.1//EN" "http://www.w3.org/Graphics/SVG/1.1/DTD/svg11.dtd">
<svg version="1.1" id="Layer_1" xmlns="http://www.w3.org/2000/svg" xmlns:xlink="http://www.w3.org/1999/xlink" x="0px" y="0px"
	 width="309.108px" height="216.201px" viewBox="0 0 309.108 216.201" enable-background="new 0 0 309.108 216.201"
	 xml:space="preserve">
<path opacity="0.3" fill="#FFE94D" d="M298.441,82.602c0,2.566-1.577,4.646-3.522,4.646h-83.646c-1.946,0-3.523-2.08-3.523-4.646
	V73.07c0-2.566,1.577-4.648,3.523-4.648h83.646c1.945,0,3.522,2.082,3.522,4.648V82.602z"/>
<path opacity="0.3" fill="#FFE94D" d="M123.932,54.869c0,3.508-2.155,6.352-4.814,6.352H4.815C2.157,61.221,0,58.377,0,54.869
	V41.846c0-3.508,2.157-6.352,4.815-6.352h114.302c2.659,0,4.814,2.844,4.814,6.352V54.869z"/>
<g>
	<path fill="#5B5B5B" d="M60.23,114.962c1.401,1.283,3.278,2.158,5.066,2.158c2.205,0,3.397-0.962,3.397-2.449
		c0-1.575-1.251-2.07-3.01-2.799l-2.682-1.137c-1.907-0.788-3.934-2.274-3.934-5.074c0-3.033,2.742-5.366,6.556-5.366
		c2.265,0,4.47,0.933,5.99,2.42l-1.758,2.158c-1.251-1.021-2.562-1.633-4.231-1.633c-1.848,0-3.069,0.846-3.069,2.245
		c0,1.487,1.49,2.042,3.099,2.683l2.652,1.079c2.294,0.962,3.934,2.391,3.934,5.161c0,3.091-2.623,5.657-7.003,5.657
		c-2.623,0-5.186-1.021-7.033-2.799L60.23,114.962z"/>
	<path fill="#5B5B5B" d="M83.479,110.559c-0.03-1.516-0.686-2.799-2.652-2.799c-1.46,0-2.831,0.642-4.112,1.4l-1.252-2.246
		c1.609-0.991,3.666-1.866,5.99-1.866c3.665,0,5.453,2.187,5.453,6.182v8.485h-2.801l-0.268-1.575h-0.089
		c-1.311,1.079-2.801,1.925-4.53,1.925c-2.562,0-4.351-1.691-4.351-4.199C74.866,112.805,77.488,111.201,83.479,110.559z
		 M80.29,117.441c1.192,0,2.116-0.583,3.189-1.575v-3.208c-3.964,0.496-5.275,1.516-5.275,2.945
		C78.204,116.887,79.068,117.441,80.29,117.441z"/>
	<path fill="#5B5B5B" d="M91.081,105.398h2.831l0.238,1.925h0.12c1.311-1.254,2.801-2.275,4.798-2.275c3.129,0,4.5,2.071,4.5,5.687
		v8.981h-3.427v-8.544c0-2.362-0.686-3.236-2.295-3.236c-1.281,0-2.116,0.612-3.337,1.778v10.002h-3.427V105.398z"/>
	<path fill="#5B5B5B" d="M114.181,100.645h11.771v2.857h-8.314v5.395h7.093v2.858h-7.093v7.96h-3.457V100.645z"/>
	<path fill="#5B5B5B" d="M128.489,105.398h2.831l0.239,2.537h0.119c1.043-1.866,2.592-2.887,4.142-2.887
		c0.745,0,1.222,0.088,1.669,0.292l-0.596,2.916c-0.506-0.146-0.894-0.233-1.52-0.233c-1.163,0-2.563,0.787-3.457,2.945v8.748
		h-3.427V105.398z"/>
	<path fill="#5B5B5B" d="M146.789,110.559c-0.03-1.516-0.686-2.799-2.652-2.799c-1.46,0-2.831,0.642-4.112,1.4l-1.252-2.246
		c1.609-0.991,3.666-1.866,5.99-1.866c3.665,0,5.453,2.187,5.453,6.182v8.485h-2.801l-0.268-1.575h-0.089
		c-1.311,1.079-2.801,1.925-4.53,1.925c-2.563,0-4.351-1.691-4.351-4.199C138.176,112.805,140.798,111.201,146.789,110.559z
		 M143.6,117.441c1.192,0,2.116-0.583,3.189-1.575v-3.208c-3.963,0.496-5.275,1.516-5.275,2.945
		C141.514,116.887,142.378,117.441,143.6,117.441z"/>
	<path fill="#5B5B5B" d="M154.391,105.398h2.831l0.238,1.925h0.12c1.311-1.254,2.801-2.275,4.797-2.275c3.129,0,4.5,2.071,4.5,5.687
		v8.981h-3.427v-8.544c0-2.362-0.686-3.236-2.295-3.236c-1.281,0-2.116,0.612-3.337,1.778v10.002h-3.427V105.398z"/>
	<path fill="#5B5B5B" d="M177.46,105.048c1.877,0,3.308,0.729,4.291,1.662l-1.639,2.129c-0.775-0.671-1.55-1.05-2.474-1.05
		c-2.354,0-3.993,1.896-3.993,4.782c0,2.857,1.609,4.753,3.904,4.753c1.191,0,2.205-0.583,3.01-1.225l1.43,2.128
		c-1.37,1.196-3.129,1.837-4.798,1.837c-3.993,0-7.062-2.741-7.062-7.494C170.129,107.789,173.556,105.048,177.46,105.048z"/>
	<path fill="#5B5B5B" d="M184.466,100.995c0-1.137,0.894-1.925,2.116-1.925c1.222,0,2.115,0.788,2.115,1.925
		c0,1.108-0.894,1.895-2.115,1.895C185.359,102.89,184.466,102.103,184.466,100.995z M184.854,105.398h3.427v14.317h-3.427V105.398z
		"/>
	<path fill="#5B5B5B" d="M192.812,115.925c1.312,0.991,2.563,1.604,4.053,1.604c1.58,0,2.325-0.729,2.325-1.72
		c0-1.196-1.58-1.721-3.13-2.304c-1.937-0.7-4.112-1.779-4.112-4.17c0-2.508,2.057-4.287,5.335-4.287
		c2.026,0,3.665,0.817,4.857,1.721l-1.58,2.041c-1.013-0.729-2.056-1.225-3.218-1.225c-1.461,0-2.146,0.671-2.146,1.575
		c0,1.137,1.461,1.575,3.04,2.128c1.997,0.729,4.202,1.662,4.202,4.345c0,2.45-1.997,4.433-5.692,4.433
		c-1.996,0-4.112-0.846-5.543-1.983L192.812,115.925z"/>
	<path fill="#5B5B5B" d="M211.887,105.048c1.877,0,3.308,0.729,4.291,1.662l-1.639,2.129c-0.775-0.671-1.55-1.05-2.474-1.05
		c-2.354,0-3.993,1.896-3.993,4.782c0,2.857,1.609,4.753,3.904,4.753c1.191,0,2.205-0.583,3.01-1.225l1.43,2.128
		c-1.37,1.196-3.129,1.837-4.798,1.837c-3.993,0-7.062-2.741-7.062-7.494C204.556,107.789,207.982,105.048,211.887,105.048z"/>
	<path fill="#5B5B5B" d="M224.555,105.048c3.666,0,6.974,2.741,6.974,7.523c0,4.753-3.308,7.494-6.974,7.494
		c-3.636,0-6.943-2.741-6.943-7.494C217.611,107.789,220.919,105.048,224.555,105.048z M224.555,117.324
		c2.146,0,3.457-1.896,3.457-4.753c0-2.887-1.312-4.782-3.457-4.782s-3.427,1.896-3.427,4.782
		C221.128,115.429,222.409,117.324,224.555,117.324z"/>
	<path fill="#5B5B5B" d="M241.159,111.609c0-5.132,1.46-9.331,3.934-13.297l2.146,0.933c-2.235,3.732-3.278,8.078-3.278,12.364
		c0,4.287,1.043,8.631,3.278,12.364l-2.146,0.933C242.619,120.94,241.159,116.741,241.159,111.609z"/>
	<path fill="#5B5B5B" d="M249.654,117.762c5.274-4.986,8.582-8.252,8.582-11.081c0-1.954-1.103-3.208-3.129-3.208
		c-1.46,0-2.682,0.962-3.695,2.07l-1.907-1.866c1.729-1.808,3.457-2.858,6.05-2.858c3.636,0,5.989,2.246,5.989,5.686
		c0,3.295-3.129,6.678-6.884,10.556c0.983-0.088,2.235-0.204,3.159-0.204h4.648v2.857h-12.813V117.762z"/>
	<path fill="#5B5B5B" d="M264.944,117.762c5.274-4.986,8.582-8.252,8.582-11.081c0-1.954-1.103-3.208-3.129-3.208
		c-1.46,0-2.682,0.962-3.695,2.07l-1.907-1.866c1.729-1.808,3.457-2.858,6.05-2.858c3.636,0,5.989,2.246,5.989,5.686
		c0,3.295-3.129,6.678-6.884,10.556c0.983-0.088,2.235-0.204,3.159-0.204h4.648v2.857h-12.813V117.762z"/>
	<path fill="#5B5B5B" d="M283.751,110.209v-0.117c-1.46-1.021-2.622-2.391-2.622-4.345c0-3.003,2.443-4.928,5.722-4.928
		c3.397,0,5.572,2.012,5.572,5.016c0,1.837-1.311,3.382-2.532,4.257v0.117c1.758,0.962,3.277,2.333,3.277,4.811
		c0,2.858-2.562,5.045-6.406,5.045c-3.695,0-6.438-2.1-6.438-5.103C280.324,112.659,281.963,111.143,283.751,110.209z
		 M286.821,117.674c1.817,0,3.129-1.05,3.129-2.771c0-2.012-1.997-2.741-4.56-3.761c-1.192,0.846-2.057,2.041-2.057,3.47
		C283.334,116.45,284.884,117.674,286.821,117.674z M289.592,106.04c0-1.633-1.043-2.829-2.801-2.829
		c-1.46,0-2.593,0.933-2.593,2.537c0,1.866,1.699,2.683,3.814,3.499C289.026,108.256,289.592,107.206,289.592,106.04z"/>
	<path fill="#5B5B5B" d="M298.952,111.609c0-4.286-1.043-8.631-3.278-12.364l2.146-0.933c2.474,3.966,3.934,8.165,3.934,13.297
		c0,5.132-1.46,9.331-3.934,13.297l-2.146-0.933C297.909,120.24,298.952,115.896,298.952,111.609z"/>
</g>
<g>
	<path fill="#5B5B5B" d="M5.194,5.529h6.224c4.045,0,7.044,1.383,7.044,5.588c0,4.012-3.056,5.865-7.044,5.865H8.476v6.639H5.194
		V5.529z M11.163,14.409c2.744,0,4.074-1.079,4.074-3.292c0-2.268-1.386-3.015-4.074-3.015H8.476v6.307H11.163z"/>
	<path fill="#5B5B5B" d="M28.163,14.935c-0.028-1.438-0.651-2.656-2.518-2.656c-1.386,0-2.688,0.608-3.904,1.328l-1.188-2.13
		c1.528-0.94,3.48-1.771,5.687-1.771c3.479,0,5.177,2.075,5.177,5.865v8.05h-2.659l-0.254-1.494h-0.085
		c-1.245,1.023-2.659,1.826-4.3,1.826c-2.433,0-4.13-1.604-4.13-3.984C19.987,17.064,22.477,15.543,28.163,14.935z M25.136,21.463
		c1.132,0,2.009-0.553,3.027-1.494v-3.043c-3.763,0.47-5.007,1.438-5.007,2.794C23.156,20.938,23.976,21.463,25.136,21.463z"/>
	<path fill="#5B5B5B" d="M35.374,10.038h2.688l0.227,2.407h0.113c0.99-1.771,2.461-2.739,3.932-2.739
		c0.708,0,1.16,0.083,1.584,0.276l-0.566,2.767c-0.481-0.138-0.849-0.221-1.443-0.221c-1.104,0-2.433,0.747-3.282,2.794v8.299
		h-3.253V10.038z"/>
	<path fill="#5B5B5B" d="M45.557,5.861c0-1.079,0.849-1.826,2.009-1.826c1.16,0,2.008,0.747,2.008,1.826
		c0,1.051-0.849,1.798-2.008,1.798C46.405,7.659,45.557,6.912,45.557,5.861z M45.924,10.038h3.253v13.583h-3.253V10.038z"/>
	<path fill="#5B5B5B" d="M53.477,20.025c1.245,0.94,2.433,1.521,3.848,1.521c1.499,0,2.207-0.692,2.207-1.632
		c0-1.134-1.5-1.632-2.971-2.186c-1.839-0.664-3.904-1.688-3.904-3.956c0-2.379,1.952-4.066,5.064-4.066
		c1.923,0,3.479,0.774,4.611,1.632l-1.5,1.937c-0.962-0.692-1.952-1.162-3.055-1.162c-1.386,0-2.037,0.636-2.037,1.494
		c0,1.079,1.386,1.494,2.886,2.02c1.896,0.692,3.989,1.577,3.989,4.122c0,2.324-1.896,4.205-5.403,4.205
		c-1.896,0-3.904-0.802-5.262-1.881L53.477,20.025z"/>
	<path fill="#5B5B5B" d="M71.437,15.931c0-4.869,1.386-8.853,3.734-12.615l2.037,0.885c-2.122,3.541-3.112,7.663-3.112,11.73
		c0,4.066,0.99,8.188,3.112,11.729l-2.037,0.885C72.823,24.783,71.437,20.799,71.437,15.931z"/>
	<path fill="#5B5B5B" d="M80.517,21.021h4.018V9.457h-3.31V7.465c1.782-0.332,3.027-0.775,4.159-1.438h2.433v14.994h3.536v2.601
		H80.517V21.021z"/>
	<path fill="#5B5B5B" d="M97.346,14.603v-0.111c-1.386-0.968-2.489-2.268-2.489-4.122c0-2.85,2.32-4.675,5.432-4.675
		c3.225,0,5.29,1.909,5.29,4.758c0,1.743-1.245,3.209-2.405,4.039v0.111c1.669,0.913,3.112,2.213,3.112,4.564
		c0,2.711-2.433,4.786-6.083,4.786c-3.508,0-6.111-1.992-6.111-4.841C94.093,16.926,95.649,15.488,97.346,14.603z M100.26,21.685
		c1.726,0,2.97-0.996,2.97-2.628c0-1.909-1.896-2.601-4.328-3.569c-1.132,0.802-1.952,1.937-1.952,3.292
		C96.95,20.523,98.421,21.685,100.26,21.685z M102.891,10.646c0-1.549-0.99-2.683-2.659-2.683c-1.386,0-2.461,0.885-2.461,2.407
		c0,1.771,1.613,2.545,3.621,3.319C102.354,12.749,102.891,11.753,102.891,10.646z"/>
	<path fill="#5B5B5B" d="M108.575,14.741c0-5.948,2.376-9.046,6.11-9.046s6.11,3.126,6.11,9.046c0,5.948-2.376,9.212-6.11,9.212
		S108.575,20.688,108.575,14.741z M117.684,14.741c0-4.979-1.245-6.556-2.999-6.556c-1.726,0-2.999,1.577-2.999,6.556
		s1.273,6.723,2.999,6.723C116.439,21.463,117.684,19.72,117.684,14.741z"/>
	<path fill="#5B5B5B" d="M126.281,15.931c0-4.067-0.99-8.189-3.112-11.73l2.037-0.885c2.348,3.763,3.734,7.746,3.734,12.615
		c0,4.869-1.386,8.853-3.734,12.615l-2.037-0.885C125.292,24.119,126.281,19.997,126.281,15.931z"/>
</g>
<g>
	<path fill="#5B5B5B" d="M56.109,136.797h2.11l3.617,6.379l1.188,2.409h0.071c-0.088-1.161-0.266-2.6-0.266-3.865v-4.923h1.968
		v11.336h-2.11l-3.617-6.379l-1.188-2.41h-0.071c0.089,1.196,0.266,2.565,0.266,3.831v4.958h-1.968V136.797z"/>
	<path fill="#5B5B5B" d="M71,139.415c2.358,0,3.6,1.664,3.6,4.039c0,0.381-0.036,0.728-0.089,0.936h-5.532
		c0.177,1.542,1.17,2.41,2.571,2.41c0.745,0,1.383-0.226,2.021-0.624l0.691,1.248c-0.833,0.537-1.879,0.918-2.979,0.918
		c-2.411,0-4.291-1.647-4.291-4.455C66.993,141.114,68.961,139.415,71,139.415z M72.827,143.125c0-1.353-0.585-2.167-1.773-2.167
		c-1.028,0-1.915,0.745-2.092,2.167H72.827z"/>
	<path fill="#5B5B5B" d="M75.679,139.623h2.057l1.046,4.42c0.177,0.815,0.301,1.612,0.461,2.444h0.071
		c0.159-0.832,0.336-1.646,0.549-2.444l1.135-4.42h1.862l1.152,4.42c0.213,0.815,0.39,1.612,0.585,2.444h0.071
		c0.16-0.832,0.301-1.629,0.461-2.444l1.046-4.42h1.915l-2.216,8.511h-2.429l-1.01-3.969c-0.195-0.798-0.337-1.578-0.532-2.479
		h-0.071c-0.16,0.901-0.319,1.699-0.514,2.496l-0.993,3.952h-2.34L75.679,139.623z"/>
	<path fill="#5B5B5B" d="M95.551,143.921l-3.475-7.124h2.199l1.259,2.895c0.337,0.85,0.656,1.63,1.028,2.496h0.071
		c0.373-0.866,0.727-1.646,1.064-2.496l1.259-2.895h2.146l-3.493,7.124v4.212h-2.057V143.921z"/>
	<path fill="#5B5B5B" d="M105.035,139.415c2.181,0,4.149,1.63,4.149,4.473c0,2.825-1.968,4.455-4.149,4.455
		c-2.164,0-4.131-1.629-4.131-4.455C100.903,141.044,102.871,139.415,105.035,139.415z M105.035,146.712
		c1.276,0,2.057-1.127,2.057-2.825c0-1.716-0.78-2.843-2.057-2.843c-1.277,0-2.039,1.126-2.039,2.843
		C102.996,145.585,103.758,146.712,105.035,146.712z"/>
	<path fill="#5B5B5B" d="M111.203,139.623h1.684l0.142,1.508h0.071c0.621-1.109,1.542-1.716,2.465-1.716
		c0.443,0,0.727,0.052,0.993,0.174l-0.354,1.733c-0.301-0.087-0.532-0.139-0.904-0.139c-0.691,0-1.525,0.468-2.057,1.75v5.2h-2.039
		V139.623z"/>
	<path fill="#5B5B5B" d="M117.814,135.896h2.003v7.645h0.053l3.227-3.918h2.234l-2.979,3.467l3.28,5.044h-2.216l-2.234-3.692
		l-1.365,1.525v2.167h-2.003V135.896z"/>
	<path fill="#5B5B5B" d="M130.772,143.315c0-3.051,0.869-5.547,2.34-7.904l1.277,0.555c-1.33,2.219-1.951,4.802-1.951,7.35
		s0.621,5.131,1.951,7.35l-1.277,0.555C131.641,148.862,130.772,146.366,130.772,143.315z"/>
	<path fill="#5B5B5B" d="M136.462,146.504h2.518v-7.246h-2.074v-1.248c1.117-0.208,1.897-0.485,2.606-0.901h1.525v9.395h2.216v1.629
		h-6.791V146.504z"/>
	<path fill="#5B5B5B" d="M151.372,139.363c-0.408-0.485-1.117-0.832-1.791-0.832c-1.418,0-2.571,1.022-2.66,4.073
		c0.656-0.814,1.631-1.3,2.447-1.3c1.951,0,3.298,1.109,3.298,3.415c0,2.201-1.613,3.623-3.546,3.623
		c-2.216,0-4.096-1.681-4.096-5.391c0-4.281,2.127-6.049,4.433-6.049c1.365,0,2.34,0.555,3.014,1.248L151.372,139.363z
		 M150.769,144.719c0-1.3-0.656-1.959-1.773-1.959c-0.638,0-1.383,0.347-2.021,1.266c0.213,1.958,1.011,2.791,2.11,2.791
		C150.024,146.816,150.769,146.071,150.769,144.719z"/>
	<path fill="#5B5B5B" d="M155.27,145.88c0.426,0.485,1.117,0.832,1.809,0.832c1.418,0,2.571-1.022,2.66-4.073
		c-0.656,0.797-1.649,1.282-2.465,1.282c-1.933,0-3.28-1.109-3.28-3.415c0-2.202,1.613-3.605,3.546-3.605
		c2.199,0,4.078,1.664,4.078,5.374c0,4.281-2.11,6.067-4.433,6.067c-1.348,0-2.34-0.555-3.014-1.248L155.27,145.88z M159.685,141.2
		c-0.213-1.941-1.028-2.773-2.128-2.773c-0.922,0-1.684,0.746-1.684,2.08c0,1.3,0.656,1.976,1.791,1.976
		C158.302,142.483,159.064,142.119,159.685,141.2z"/>
	<path fill="#5B5B5B" d="M165.144,143.315c0-2.548-0.621-5.131-1.95-7.35l1.276-0.555c1.472,2.357,2.341,4.854,2.341,7.904
		s-0.869,5.547-2.341,7.904l-1.276-0.555C164.522,148.446,165.144,145.863,165.144,143.315z"/>
</g>
<g>
	<path fill="#5B5B5B" d="M137.822,164.978h3.311l3.052,8.146l1.112,3.137h0.104l1.086-3.137l3-8.146h3.311v16.545h-2.819v-7.564
		c0-1.543,0.232-3.744,0.388-5.262h-0.104l-1.371,3.77l-2.922,7.514h-1.397l-2.922-7.514l-1.345-3.77h-0.103
		c0.155,1.518,0.388,3.719,0.388,5.262v7.564h-2.768V164.978z"/>
	<path fill="#5B5B5B" d="M161.847,168.797c3.44,0,5.251,2.429,5.251,5.895c0,0.556-0.052,1.062-0.13,1.366h-8.069
		c0.259,2.252,1.707,3.517,3.75,3.517c1.087,0,2.018-0.329,2.949-0.911l1.008,1.822c-1.215,0.784-2.741,1.341-4.345,1.341
		c-3.518,0-6.259-2.403-6.259-6.502C156.002,171.277,158.873,168.797,161.847,168.797z M164.511,174.211
		c0-1.973-0.854-3.162-2.586-3.162c-1.5,0-2.793,1.088-3.052,3.162H164.511z"/>
	<path fill="#5B5B5B" d="M169.939,163.662h2.975v14.825c0,0.708,0.336,0.961,0.646,0.961c0.13,0,0.233,0,0.466-0.05l0.388,2.176
		c-0.362,0.151-0.879,0.253-1.577,0.253c-2.121,0-2.897-1.341-2.897-3.491V163.662z"/>
	<path fill="#5B5B5B" d="M176.947,163.662h2.975v4.604l-0.077,2.075c1.06-0.911,2.379-1.543,3.672-1.543
		c3.182,0,5.018,2.479,5.018,6.3c0,4.275-2.612,6.729-5.431,6.729c-1.164,0-2.405-0.557-3.466-1.569h-0.078l-0.259,1.265h-2.354
		V163.662z M182.482,179.423c1.682,0,2.975-1.468,2.975-4.276c0-2.479-0.828-3.947-2.742-3.947c-0.931,0-1.811,0.456-2.793,1.392
		v5.793C180.827,179.145,181.732,179.423,182.482,179.423z"/>
	<path fill="#5B5B5B" d="M196.731,168.797c3.181,0,6.052,2.378,6.052,6.527c0,4.124-2.871,6.502-6.052,6.502
		c-3.155,0-6.026-2.378-6.026-6.502C190.705,171.176,193.576,168.797,196.731,168.797z M196.731,179.448c1.862,0,3-1.644,3-4.124
		c0-2.505-1.138-4.149-3-4.149s-2.975,1.644-2.975,4.149C193.757,177.804,194.869,179.448,196.731,179.448z"/>
	<path fill="#5B5B5B" d="M205.729,169.101h2.457l0.207,2.201h0.104c0.905-1.619,2.25-2.505,3.596-2.505
		c0.646,0,1.06,0.076,1.448,0.253l-0.518,2.53c-0.439-0.126-0.776-0.203-1.319-0.203c-1.009,0-2.224,0.683-3,2.555v7.59h-2.975
		V169.101z"/>
	<path fill="#5B5B5B" d="M215.375,169.101h2.457l0.207,1.67h0.104c1.139-1.088,2.432-1.974,4.164-1.974
		c2.716,0,3.905,1.796,3.905,4.934v7.792h-2.974v-7.413c0-2.049-0.596-2.808-1.992-2.808c-1.112,0-1.836,0.531-2.896,1.543v8.678
		h-2.975V169.101z"/>
	<path fill="#5B5B5B" d="M234.874,168.797c3.44,0,5.251,2.429,5.251,5.895c0,0.556-0.052,1.062-0.13,1.366h-8.069
		c0.259,2.252,1.707,3.517,3.75,3.517c1.087,0,2.018-0.329,2.949-0.911l1.008,1.822c-1.215,0.784-2.741,1.341-4.345,1.341
		c-3.518,0-6.259-2.403-6.259-6.502C229.029,171.277,231.9,168.797,234.874,168.797z M237.538,174.211
		c0-1.973-0.854-3.162-2.586-3.162c-1.5,0-2.794,1.088-3.052,3.162H237.538z"/>
	<path fill="#5B5B5B" d="M248.371,174.49c0-4.453,1.268-8.096,3.414-11.536l1.862,0.81c-1.939,3.238-2.845,7.008-2.845,10.727
		c0,3.719,0.905,7.489,2.845,10.727l-1.862,0.81C249.639,182.585,248.371,178.942,248.371,174.49z"/>
	<path fill="#5B5B5B" d="M256.673,179.145h3.673V168.57h-3.026v-1.821c1.629-0.304,2.768-0.708,3.802-1.316h2.225v13.712h3.232
		v2.378h-9.905V179.145z"/>
	<path fill="#5B5B5B" d="M270.016,177.728c0.983,0.911,2.198,1.72,3.854,1.72c1.837,0,3.182-1.138,3.182-3.086
		c0-1.923-1.216-3.01-3.026-3.01c-1.06,0-1.655,0.278-2.638,0.911l-1.423-0.886l0.492-7.944h8.793v2.454h-6.207l-0.336,3.896
		c0.698-0.329,1.318-0.531,2.172-0.531c2.819,0,5.173,1.568,5.173,5.035c0,3.517-2.768,5.541-5.793,5.541
		c-2.664,0-4.397-1.038-5.612-2.227L270.016,177.728z"/>
	<path fill="#5B5B5B" d="M283.204,179.145h3.673V168.57h-3.026v-1.821c1.629-0.304,2.768-0.708,3.802-1.316h2.225v13.712h3.232
		v2.378h-9.905V179.145z"/>
	<path fill="#5B5B5B" d="M298.513,174.49c0-3.719-0.905-7.488-2.845-10.727l1.862-0.81c2.146,3.44,3.414,7.083,3.414,11.536
		s-1.268,8.096-3.414,11.537l-1.862-0.81C297.607,181.979,298.513,178.209,298.513,174.49z"/>
</g>
<g>
	<path fill="#5B5B5B" d="M129.459,41.067h4.292c2.773,0,4.806,0.824,4.806,3.235c0,1.246-0.739,2.452-2.3,2.854v0.081
		c1.931,0.321,2.999,1.346,2.999,3.115c0,2.632-2.198,3.858-5.155,3.858h-4.642V41.067z M133.546,46.513
		c1.869,0,2.67-0.703,2.67-1.929c0-1.206-0.883-1.708-2.629-1.708h-1.746v3.637H133.546z M133.854,52.401
		c1.972,0,3.081-0.724,3.081-2.21c0-1.367-1.068-2.01-3.081-2.01h-2.013v4.22H133.854z"/>
	<path fill="#5B5B5B" d="M145.501,44.102c2.731,0,4.169,1.929,4.169,4.683c0,0.442-0.041,0.844-0.103,1.085h-6.408
		c0.205,1.789,1.355,2.793,2.978,2.793c0.862,0,1.602-0.261,2.341-0.724l0.801,1.447c-0.965,0.623-2.177,1.065-3.45,1.065
		c-2.793,0-4.97-1.909-4.97-5.165C140.859,46.071,143.139,44.102,145.501,44.102z M147.616,48.402c0-1.567-0.678-2.512-2.054-2.512
		c-1.191,0-2.218,0.864-2.424,2.512H147.616z"/>
	<path fill="#5B5B5B" d="M151.93,44.343h1.951l0.165,1.749h0.082c0.719-1.286,1.787-1.99,2.855-1.99c0.514,0,0.842,0.061,1.15,0.201
		l-0.411,2.01c-0.349-0.101-0.616-0.161-1.047-0.161c-0.801,0-1.766,0.543-2.382,2.03v6.029h-2.362V44.343z"/>
	<path fill="#5B5B5B" d="M159.592,40.022h2.361v11.776c0,0.563,0.268,0.764,0.514,0.764c0.103,0,0.185,0,0.37-0.04l0.308,1.728
		c-0.287,0.121-0.698,0.201-1.253,0.201c-1.684,0-2.3-1.065-2.3-2.773V40.022z"/>
	<path fill="#5B5B5B" d="M164.891,41.309c0-0.784,0.616-1.327,1.458-1.327s1.458,0.543,1.458,1.327c0,0.764-0.616,1.306-1.458,1.306
		S164.891,42.072,164.891,41.309z M165.157,44.343h2.362v9.867h-2.362V44.343z"/>
	<path fill="#5B5B5B" d="M170.539,44.343h1.951l0.164,1.327h0.083c0.903-0.864,1.931-1.568,3.307-1.568
		c2.156,0,3.101,1.427,3.101,3.919v6.189h-2.361v-5.888c0-1.627-0.473-2.23-1.582-2.23c-0.883,0-1.458,0.422-2.3,1.226v6.893h-2.362
		V44.343z"/>
	<path fill="#5B5B5B" d="M186.335,48.624c0-3.537,1.007-6.431,2.712-9.164l1.479,0.643c-1.541,2.572-2.26,5.567-2.26,8.521
		s0.719,5.948,2.26,8.521l-1.479,0.643C187.342,55.054,186.335,52.16,186.335,48.624z"/>
	<path fill="#5B5B5B" d="M192.928,52.321h2.917v-8.4h-2.403v-1.447c1.294-0.241,2.197-0.563,3.02-1.045h1.766v10.892h2.567v1.889
		h-7.866V52.321z"/>
	<path fill="#5B5B5B" d="M203.465,52.321h2.917v-8.4h-2.403v-1.447c1.294-0.241,2.197-0.563,3.02-1.045h1.766v10.892h2.567v1.889
		h-7.866V52.321z"/>
	<path fill="#5B5B5B" d="M219.568,43.378h-6.183v-1.949h8.771v1.407c-3.061,3.717-3.595,6.39-3.82,11.374h-2.403
		C216.159,49.668,217.042,46.815,219.568,43.378z"/>
	<path fill="#5B5B5B" d="M226.162,48.624c0-2.954-0.719-5.949-2.26-8.521l1.479-0.643c1.704,2.733,2.711,5.627,2.711,9.164
		c0,3.537-1.007,6.431-2.711,9.164l-1.479-0.643C225.443,54.572,226.162,51.578,226.162,48.624z"/>
</g>
<g>
	<path fill="#5B5B5B" d="M7.46,50.935c0.965,0.884,2.259,1.487,3.491,1.487c1.52,0,2.341-0.663,2.341-1.688
		c0-1.085-0.862-1.427-2.074-1.929L9.37,48.021c-1.314-0.542-2.711-1.567-2.711-3.497c0-2.09,1.89-3.698,4.519-3.698
		c1.561,0,3.081,0.643,4.128,1.668l-1.212,1.487c-0.863-0.703-1.767-1.125-2.917-1.125c-1.273,0-2.116,0.583-2.116,1.547
		c0,1.025,1.027,1.407,2.136,1.849l1.828,0.744c1.581,0.663,2.711,1.648,2.711,3.557c0,2.13-1.808,3.898-4.827,3.898
		c-1.807,0-3.574-0.704-4.847-1.929L7.46,50.935z"/>
	<path fill="#5B5B5B" d="M18.49,56.4c1.068,0,1.684-0.703,2.013-1.688l0.185-0.623l-3.964-9.747h2.403l1.746,4.843
		c0.288,0.864,0.575,1.849,0.883,2.773h0.082c0.247-0.905,0.514-1.889,0.76-2.773l1.52-4.843h2.28l-3.656,10.309
		c-0.842,2.231-1.89,3.618-4.087,3.618c-0.555,0-0.945-0.081-1.314-0.201l0.431-1.809C17.956,56.32,18.244,56.4,18.49,56.4z"/>
	<path fill="#5B5B5B" d="M31.677,44.102c1.15,0,1.869,0.422,2.649,1.085l-0.083-1.588v-3.577h2.362V54.21h-1.951l-0.165-1.065
		h-0.082c-0.739,0.723-1.766,1.306-2.855,1.306c-2.526,0-4.148-1.909-4.148-5.165C27.405,46.071,29.479,44.102,31.677,44.102z
		 M32.129,52.542c0.78,0,1.438-0.342,2.115-1.105v-4.602c-0.698-0.603-1.376-0.824-2.054-0.824c-1.294,0-2.341,1.186-2.341,3.256
		C29.849,51.396,30.671,52.542,32.129,52.542z"/>
	<path fill="#5B5B5B" d="M39.606,44.343h1.951l0.165,1.327h0.082c0.904-0.864,1.931-1.568,3.307-1.568
		c2.157,0,3.102,1.427,3.102,3.919v6.189H45.85v-5.888c0-1.627-0.473-2.23-1.582-2.23c-0.883,0-1.458,0.422-2.3,1.226v6.893h-2.362
		V44.343z"/>
	<path fill="#5B5B5B" d="M55.093,44.102c2.731,0,4.169,1.929,4.169,4.683c0,0.442-0.041,0.844-0.103,1.085h-6.408
		c0.205,1.789,1.355,2.793,2.978,2.793c0.862,0,1.602-0.261,2.341-0.724l0.801,1.447c-0.965,0.623-2.177,1.065-3.45,1.065
		c-2.793,0-4.97-1.909-4.97-5.165C50.452,46.071,52.731,44.102,55.093,44.102z M57.208,48.402c0-1.567-0.678-2.512-2.054-2.512
		c-1.191,0-2.218,0.864-2.423,2.512H57.208z"/>
	<path fill="#5B5B5B" d="M62.036,56.4c1.068,0,1.684-0.703,2.013-1.688l0.185-0.623l-3.964-9.747h2.403l1.746,4.843
		c0.288,0.864,0.575,1.849,0.883,2.773h0.082c0.247-0.905,0.514-1.889,0.76-2.773l1.52-4.843h2.28l-3.656,10.309
		c-0.842,2.231-1.89,3.618-4.087,3.618c-0.555,0-0.945-0.081-1.314-0.201l0.431-1.809C61.502,56.32,61.79,56.4,62.036,56.4z"/>
	<path fill="#5B5B5B" d="M75.983,48.624c0-3.537,1.006-6.431,2.711-9.164l1.479,0.643c-1.541,2.572-2.259,5.567-2.259,8.521
		s0.719,5.948,2.259,8.521l-1.479,0.643C76.989,55.054,75.983,52.16,75.983,48.624z"/>
	<path fill="#5B5B5B" d="M82.577,52.321h2.917v-8.4H83.09v-1.447c1.294-0.241,2.198-0.563,3.019-1.045h1.767v10.892h2.567v1.889
		h-7.866V52.321z"/>
	<path fill="#5B5B5B" d="M93.113,52.321h2.916v-8.4h-2.403v-1.447c1.294-0.241,2.198-0.563,3.019-1.045h1.767v10.892h2.567v1.889
		h-7.866V52.321z"/>
	<path fill="#5B5B5B" d="M109.216,43.378h-6.182v-1.949h8.77v1.407c-3.06,3.717-3.594,6.39-3.82,11.374h-2.403
		C105.807,49.668,106.69,46.815,109.216,43.378z"/>
	<path fill="#5B5B5B" d="M115.81,48.624c0-2.954-0.719-5.949-2.259-8.521l1.479-0.643c1.705,2.733,2.711,5.627,2.711,9.164
		c0,3.537-1.006,6.431-2.711,9.164l-1.479-0.643C115.091,54.572,115.81,51.578,115.81,48.624z"/>
</g>
<g>
	<path fill="#5B5B5B" d="M4.387,80.517c0.684,0.652,1.6,1.098,2.472,1.098c1.076,0,1.658-0.49,1.658-1.246
		c0-0.801-0.611-1.053-1.469-1.424l-1.309-0.578c-0.931-0.401-1.919-1.157-1.919-2.581c0-1.542,1.338-2.729,3.199-2.729
		c1.105,0,2.181,0.475,2.923,1.231l-0.858,1.098c-0.611-0.519-1.25-0.831-2.065-0.831c-0.901,0-1.498,0.43-1.498,1.142
		c0,0.756,0.727,1.038,1.512,1.364l1.294,0.549c1.12,0.49,1.919,1.216,1.919,2.625c0,1.572-1.28,2.877-3.417,2.877
		c-1.28,0-2.53-0.52-3.432-1.424L4.387,80.517z"/>
	<path fill="#5B5B5B" d="M11.645,73.413c0-0.578,0.436-0.979,1.032-0.979s1.033,0.4,1.033,0.979c0,0.563-0.437,0.964-1.033,0.964
		S11.645,73.976,11.645,73.413z M11.834,75.652h1.672v7.282h-1.672V75.652z"/>
	<path fill="#5B5B5B" d="M15.645,75.652h1.381l0.116,0.979h0.059c0.64-0.638,1.367-1.157,2.341-1.157
		c1.527,0,2.196,1.053,2.196,2.893v4.568h-1.672v-4.346c0-1.201-0.334-1.646-1.12-1.646c-0.625,0-1.032,0.311-1.628,0.904v5.087
		h-1.672V75.652z"/>
	<path fill="#5B5B5B" d="M24.328,82.697v-0.059c-0.364-0.237-0.64-0.623-0.64-1.216c0-0.564,0.378-1.053,0.785-1.35v-0.06
		c-0.48-0.371-0.931-1.068-0.931-1.928c0-1.676,1.323-2.61,2.821-2.61c0.393,0,0.756,0.074,1.047,0.178h2.559v1.261h-1.309
		c0.232,0.282,0.407,0.727,0.407,1.231c0,1.617-1.192,2.477-2.705,2.477c-0.305,0-0.654-0.059-0.974-0.192
		c-0.218,0.192-0.349,0.371-0.349,0.697c0,0.416,0.291,0.667,1.164,0.667h1.265c1.716,0,2.617,0.534,2.617,1.795
		c0,1.438-1.483,2.565-3.81,2.565c-1.702,0-2.967-0.623-2.967-1.898C23.31,83.646,23.674,83.113,24.328,82.697z M26.539,85.041
		c1.148,0,1.934-0.549,1.934-1.171c0-0.564-0.451-0.727-1.265-0.727h-0.975c-0.393,0-0.698-0.029-0.974-0.104
		c-0.378,0.296-0.553,0.623-0.553,0.964C24.706,84.655,25.404,85.041,26.539,85.041z M27.6,78.084c0-0.904-0.538-1.438-1.236-1.438
		c-0.698,0-1.25,0.519-1.25,1.438c0,0.935,0.553,1.469,1.25,1.469C27.047,79.553,27.6,79.019,27.6,78.084z"/>
	<path fill="#5B5B5B" d="M34.988,78.277c-0.014-0.771-0.334-1.424-1.294-1.424c-0.712,0-1.381,0.327-2.007,0.712l-0.611-1.142
		c0.785-0.504,1.789-0.949,2.923-0.949c1.789,0,2.661,1.112,2.661,3.145v4.316h-1.367l-0.131-0.801h-0.044
		c-0.64,0.549-1.367,0.979-2.21,0.979c-1.251,0-2.123-0.86-2.123-2.136C30.786,79.419,32.065,78.604,34.988,78.277z M33.433,81.778
		c0.582,0,1.032-0.297,1.556-0.801v-1.632c-1.934,0.252-2.574,0.771-2.574,1.498C32.415,81.496,32.836,81.778,33.433,81.778z"/>
	<path fill="#5B5B5B" d="M40.371,83.528v2.284h-1.672v-10.16h1.381l0.117,0.771h0.058c0.596-0.519,1.367-0.949,2.152-0.949
		c1.774,0,2.807,1.454,2.807,3.708c0,2.492-1.469,3.931-3.054,3.931c-0.625,0-1.25-0.297-1.832-0.801L40.371,83.528z M41.81,81.704
		c0.945,0,1.672-0.86,1.672-2.507c0-1.453-0.465-2.313-1.542-2.313c-0.523,0-1.018,0.267-1.57,0.816v3.396
		C40.894,81.541,41.389,81.704,41.81,81.704z"/>
	<path fill="#5B5B5B" d="M49.824,75.474c1.789,0,3.403,1.395,3.403,3.827c0,2.417-1.614,3.812-3.403,3.812
		c-1.774,0-3.388-1.395-3.388-3.812C46.436,76.869,48.05,75.474,49.824,75.474z M49.824,81.718c1.047,0,1.687-0.964,1.687-2.417
		c0-1.468-0.64-2.432-1.687-2.432s-1.672,0.964-1.672,2.432C48.152,80.754,48.777,81.718,49.824,81.718z"/>
	<path fill="#5B5B5B" d="M54.887,75.652h1.381l0.117,1.291h0.058c0.509-0.949,1.265-1.469,2.021-1.469
		c0.364,0,0.596,0.045,0.814,0.148l-0.291,1.483c-0.247-0.074-0.436-0.119-0.741-0.119c-0.567,0-1.251,0.4-1.687,1.498v4.45h-1.672
		V75.652z"/>
	<path fill="#5B5B5B" d="M62.987,75.474c1.934,0,2.952,1.424,2.952,3.456c0,0.326-0.029,0.623-0.073,0.801H61.33
		c0.145,1.32,0.959,2.062,2.108,2.062c0.611,0,1.134-0.193,1.658-0.534l0.567,1.068c-0.683,0.459-1.541,0.786-2.443,0.786
		c-1.978,0-3.519-1.409-3.519-3.812C59.701,76.928,61.315,75.474,62.987,75.474z M64.485,78.648c0-1.157-0.48-1.854-1.454-1.854
		c-0.843,0-1.57,0.638-1.716,1.854H64.485z"/>
	<path fill="#5B5B5B" d="M70.58,78.812c0-2.61,0.712-4.746,1.919-6.763l1.047,0.475c-1.091,1.898-1.6,4.108-1.6,6.289
		s0.509,4.39,1.6,6.289L72.5,85.575C71.292,83.558,70.58,81.422,70.58,78.812z"/>
	<path fill="#5B5B5B" d="M75.249,81.541h2.065v-6.2h-1.702v-1.068c0.917-0.178,1.556-0.415,2.138-0.771H79v8.039h1.818v1.394h-5.569
		V81.541z"/>
	<path fill="#5B5B5B" d="M82.71,81.541h2.065v-6.2h-1.702v-1.068c0.917-0.178,1.556-0.415,2.138-0.771h1.25v8.039h1.818v1.394H82.71
		V81.541z"/>
	<path fill="#5B5B5B" d="M89.677,78.174c0-3.189,1.222-4.85,3.141-4.85s3.141,1.676,3.141,4.85c0,3.188-1.222,4.939-3.141,4.939
		S89.677,81.362,89.677,78.174z M94.359,78.174c0-2.67-0.64-3.515-1.542-3.515c-0.887,0-1.542,0.845-1.542,3.515
		c0,2.669,0.654,3.604,1.542,3.604C93.719,81.778,94.359,80.843,94.359,78.174z"/>
	<path fill="#5B5B5B" d="M98.782,78.812c0-2.18-0.509-4.39-1.6-6.289l1.047-0.475c1.207,2.017,1.919,4.153,1.919,6.763
		s-0.712,4.746-1.919,6.763L97.182,85.1C98.272,83.202,98.782,80.992,98.782,78.812z"/>
</g>
<g>
	<path fill="#5B5B5B" d="M106.419,73.604h3.045c1.967,0,3.41,0.585,3.41,2.297c0,0.885-0.525,1.741-1.632,2.026v0.057
		c1.37,0.229,2.127,0.956,2.127,2.211c0,1.869-1.559,2.739-3.657,2.739h-3.293V73.604z M109.319,77.47
		c1.326,0,1.895-0.499,1.895-1.37c0-0.856-0.627-1.212-1.865-1.212h-1.239v2.582H109.319z M109.538,81.65
		c1.399,0,2.186-0.514,2.186-1.569c0-0.97-0.758-1.427-2.186-1.427h-1.428v2.996H109.538z"/>
	<path fill="#5B5B5B" d="M118.882,78.455c-0.015-0.742-0.335-1.37-1.297-1.37c-0.714,0-1.385,0.314-2.011,0.685l-0.612-1.099
		c0.787-0.485,1.792-0.913,2.929-0.913c1.792,0,2.667,1.07,2.667,3.024v4.152h-1.37l-0.131-0.771h-0.044
		c-0.641,0.528-1.37,0.942-2.215,0.942c-1.253,0-2.127-0.828-2.127-2.055C114.671,79.553,115.953,78.769,118.882,78.455z
		 M117.323,81.822c0.583,0,1.035-0.285,1.56-0.771v-1.569c-1.938,0.243-2.58,0.742-2.58,1.441
		C116.303,81.551,116.726,81.822,117.323,81.822z"/>
	<path fill="#5B5B5B" d="M122.601,75.93h1.384l0.116,1.241h0.059c0.51-0.913,1.268-1.413,2.025-1.413
		c0.364,0,0.598,0.043,0.816,0.143l-0.291,1.427c-0.248-0.071-0.438-0.114-0.744-0.114c-0.568,0-1.253,0.385-1.69,1.441v4.28h-1.676
		V75.93z"/>
	<path fill="#5B5B5B" d="M131.011,75.758c0.918,0,1.618,0.356,2.099,0.813l-0.802,1.042c-0.379-0.328-0.758-0.513-1.209-0.513
		c-1.151,0-1.953,0.927-1.953,2.339c0,1.398,0.787,2.326,1.909,2.326c0.583,0,1.078-0.285,1.472-0.599l0.699,1.042
		c-0.67,0.585-1.53,0.899-2.346,0.899c-1.953,0-3.454-1.341-3.454-3.667C127.427,77.1,129.103,75.758,131.011,75.758z"/>
	<path fill="#5B5B5B" d="M137.105,75.758c1.938,0,2.958,1.37,2.958,3.324c0,0.314-0.029,0.599-0.073,0.771h-4.546
		c0.146,1.27,0.962,1.983,2.113,1.983c0.612,0,1.137-0.186,1.662-0.514l0.568,1.027c-0.685,0.442-1.545,0.756-2.448,0.756
		c-1.982,0-3.526-1.355-3.526-3.667C133.812,77.156,135.429,75.758,137.105,75.758z M138.606,78.812
		c0-1.113-0.481-1.784-1.457-1.784c-0.845,0-1.574,0.614-1.72,1.784H138.606z"/>
	<path fill="#5B5B5B" d="M141.669,72.862h1.676v8.36c0,0.399,0.189,0.542,0.364,0.542c0.073,0,0.131,0,0.262-0.028l0.219,1.227
		c-0.204,0.086-0.496,0.143-0.889,0.143c-1.195,0-1.632-0.756-1.632-1.969V72.862z"/>
	<path fill="#5B5B5B" d="M148.549,75.758c1.792,0,3.41,1.341,3.41,3.681c0,2.326-1.618,3.667-3.41,3.667
		c-1.778,0-3.395-1.341-3.395-3.667C145.154,77.1,146.771,75.758,148.549,75.758z M148.549,81.765c1.049,0,1.69-0.927,1.69-2.326
		c0-1.412-0.641-2.339-1.69-2.339s-1.676,0.927-1.676,2.339C146.873,80.837,147.5,81.765,148.549,81.765z"/>
	<path fill="#5B5B5B" d="M153.624,75.93h1.384l0.116,0.941h0.059c0.641-0.613,1.37-1.113,2.346-1.113c1.53,0,2.2,1.013,2.2,2.782
		v4.394h-1.676v-4.18c0-1.156-0.335-1.583-1.122-1.583c-0.626,0-1.035,0.299-1.632,0.87v4.894h-1.676V75.93z"/>
	<path fill="#5B5B5B" d="M165.692,78.455c-0.015-0.742-0.335-1.37-1.297-1.37c-0.714,0-1.384,0.314-2.011,0.685l-0.612-1.099
		c0.787-0.485,1.793-0.913,2.93-0.913c1.792,0,2.666,1.07,2.666,3.024v4.152h-1.369l-0.132-0.771h-0.043
		c-0.642,0.528-1.37,0.942-2.215,0.942c-1.254,0-2.128-0.828-2.128-2.055C161.481,79.553,162.764,78.769,165.692,78.455z
		 M164.134,81.822c0.583,0,1.034-0.285,1.559-0.771v-1.569c-1.938,0.243-2.579,0.742-2.579,1.441
		C163.113,81.551,163.536,81.822,164.134,81.822z"/>
	<path fill="#5B5B5B" d="M172.458,78.968c0-2.511,0.714-4.565,1.924-6.506l1.049,0.457c-1.093,1.826-1.603,3.952-1.603,6.049
		s0.51,4.223,1.603,6.049l-1.049,0.457C173.172,83.534,172.458,81.479,172.458,78.968z"/>
	<path fill="#5B5B5B" d="M177.137,81.593h2.069V75.63h-1.705v-1.027c0.918-0.171,1.56-0.399,2.143-0.742h1.253v7.732h1.821v1.341
		h-5.581V81.593z"/>
	<path fill="#5B5B5B" d="M184.12,78.355c0-3.067,1.224-4.666,3.147-4.666s3.147,1.612,3.147,4.666c0,3.067-1.224,4.751-3.147,4.751
		S184.12,81.422,184.12,78.355z M188.812,78.355c0-2.568-0.642-3.381-1.545-3.381c-0.889,0-1.545,0.813-1.545,3.381
		c0,2.568,0.656,3.467,1.545,3.467C188.171,81.822,188.812,80.923,188.812,78.355z"/>
	<path fill="#5B5B5B" d="M192.167,80.766c0.554,0.556,1.268,0.999,2.2,0.999c1.006,0,1.705-0.514,1.705-1.37
		c0-0.941-0.612-1.541-2.725-1.541v-1.198c1.821,0,2.419-0.613,2.419-1.455c0-0.756-0.525-1.213-1.37-1.213
		c-0.729,0-1.297,0.342-1.865,0.856l-0.86-1.013c0.787-0.685,1.677-1.142,2.784-1.142c1.777,0,3.001,0.856,3.001,2.397
		c0,1.013-0.611,1.698-1.617,2.083v0.057c1.093,0.285,1.924,1.056,1.924,2.254c0,1.655-1.472,2.625-3.25,2.625
		c-1.501,0-2.491-0.571-3.147-1.284L192.167,80.766z"/>
	<path fill="#5B5B5B" d="M200.724,78.968c0-2.097-0.51-4.223-1.603-6.049l1.049-0.457c1.21,1.94,1.924,3.995,1.924,6.506
		c0,2.511-0.714,4.565-1.924,6.506l-1.049-0.457C200.214,83.191,200.724,81.065,200.724,78.968z"/>
</g>
<g>
	<path fill="#5B5B5B" d="M3.446,201.046h3.045c1.967,0,3.41,0.585,3.41,2.297c0,0.885-0.525,1.741-1.632,2.026v0.057
		c1.37,0.229,2.127,0.956,2.127,2.211c0,1.869-1.559,2.739-3.657,2.739H3.446V201.046z M6.346,204.913
		c1.326,0,1.895-0.499,1.895-1.37c0-0.856-0.627-1.212-1.865-1.212H5.136v2.582H6.346z M6.564,209.093
		c1.399,0,2.186-0.514,2.186-1.569c0-0.97-0.758-1.427-2.186-1.427H5.136v2.996H6.564z"/>
	<path fill="#5B5B5B" d="M15.909,205.897c-0.015-0.742-0.335-1.37-1.297-1.37c-0.714,0-1.385,0.314-2.011,0.685l-0.612-1.099
		c0.787-0.485,1.792-0.913,2.929-0.913c1.792,0,2.667,1.07,2.667,3.024v4.152h-1.37l-0.131-0.771H16.04
		c-0.641,0.528-1.37,0.942-2.215,0.942c-1.253,0-2.127-0.828-2.127-2.055C11.697,206.996,12.979,206.211,15.909,205.897z
		 M14.349,209.264c0.583,0,1.035-0.285,1.56-0.771v-1.569c-1.938,0.243-2.58,0.742-2.58,1.441
		C13.329,208.993,13.752,209.264,14.349,209.264z"/>
	<path fill="#5B5B5B" d="M19.627,203.372h1.384l0.116,1.241h0.059c0.51-0.913,1.268-1.413,2.025-1.413
		c0.364,0,0.598,0.043,0.816,0.143l-0.291,1.427c-0.248-0.071-0.438-0.114-0.744-0.114c-0.568,0-1.253,0.385-1.69,1.441v4.28h-1.676
		V203.372z"/>
	<path fill="#5B5B5B" d="M28.038,203.201c0.918,0,1.618,0.356,2.099,0.813l-0.802,1.042c-0.379-0.328-0.758-0.513-1.209-0.513
		c-1.151,0-1.953,0.927-1.953,2.339c0,1.398,0.787,2.326,1.909,2.326c0.583,0,1.078-0.285,1.472-0.599l0.699,1.042
		c-0.67,0.585-1.53,0.899-2.346,0.899c-1.953,0-3.454-1.341-3.454-3.667C24.453,204.542,26.129,203.201,28.038,203.201z"/>
	<path fill="#5B5B5B" d="M34.131,203.201c1.938,0,2.958,1.37,2.958,3.324c0,0.314-0.029,0.599-0.073,0.771H32.47
		c0.146,1.27,0.962,1.983,2.113,1.983c0.612,0,1.137-0.186,1.662-0.514l0.568,1.027c-0.685,0.442-1.545,0.756-2.448,0.756
		c-1.982,0-3.526-1.355-3.526-3.667C30.838,204.599,32.456,203.201,34.131,203.201z M35.632,206.254
		c0-1.113-0.481-1.784-1.457-1.784c-0.845,0-1.574,0.614-1.72,1.784H35.632z"/>
	<path fill="#5B5B5B" d="M38.696,200.305h1.676v8.36c0,0.399,0.189,0.542,0.364,0.542c0.073,0,0.131,0,0.262-0.028l0.219,1.227
		c-0.204,0.086-0.496,0.143-0.889,0.143c-1.195,0-1.632-0.756-1.632-1.969V200.305z"/>
	<path fill="#5B5B5B" d="M45.575,203.201c1.792,0,3.41,1.341,3.41,3.681c0,2.326-1.618,3.667-3.41,3.667
		c-1.778,0-3.395-1.341-3.395-3.667C42.18,204.542,43.797,203.201,45.575,203.201z M45.575,209.207c1.049,0,1.69-0.927,1.69-2.326
		c0-1.412-0.641-2.339-1.69-2.339s-1.676,0.927-1.676,2.339C43.899,208.28,44.526,209.207,45.575,209.207z"/>
	<path fill="#5B5B5B" d="M50.65,203.372h1.384l0.116,0.941h0.059c0.641-0.613,1.37-1.113,2.346-1.113c1.53,0,2.2,1.013,2.2,2.782
		v4.394H55.08v-4.18c0-1.156-0.335-1.583-1.122-1.583c-0.626,0-1.035,0.299-1.632,0.87v4.894H50.65V203.372z"/>
	<path fill="#5B5B5B" d="M62.719,205.897c-0.015-0.742-0.335-1.37-1.297-1.37c-0.714,0-1.385,0.314-2.011,0.685l-0.612-1.099
		c0.787-0.485,1.792-0.913,2.929-0.913c1.792,0,2.667,1.07,2.667,3.024v4.152h-1.37l-0.131-0.771H62.85
		c-0.641,0.528-1.37,0.942-2.215,0.942c-1.253,0-2.127-0.828-2.127-2.055C58.507,206.996,59.79,206.211,62.719,205.897z
		 M61.159,209.264c0.583,0,1.035-0.285,1.56-0.771v-1.569c-1.938,0.243-2.58,0.742-2.58,1.441
		C60.139,208.993,60.562,209.264,61.159,209.264z"/>
	<path fill="#5B5B5B" d="M69.484,206.411c0-2.511,0.714-4.565,1.923-6.506l1.049,0.457c-1.093,1.826-1.603,3.952-1.603,6.049
		s0.51,4.223,1.603,6.049l-1.049,0.457C70.198,210.976,69.484,208.922,69.484,206.411z"/>
	<path fill="#5B5B5B" d="M74.164,209.036h2.069v-5.963h-1.705v-1.027c0.918-0.171,1.559-0.399,2.142-0.742h1.253v7.732h1.822v1.341
		h-5.582V209.036z"/>
	<path fill="#5B5B5B" d="M81.147,205.797c0-3.067,1.224-4.666,3.147-4.666s3.147,1.612,3.147,4.666c0,3.067-1.224,4.751-3.147,4.751
		S81.147,208.865,81.147,205.797z M85.839,205.797c0-2.568-0.641-3.381-1.544-3.381c-0.889,0-1.544,0.813-1.544,3.381
		c0,2.568,0.656,3.467,1.544,3.467C85.198,209.264,85.839,208.365,85.839,205.797z"/>
	<path fill="#5B5B5B" d="M89.193,208.208c0.554,0.556,1.268,0.999,2.2,0.999c1.005,0,1.705-0.514,1.705-1.37
		c0-0.941-0.612-1.541-2.725-1.541v-1.198c1.821,0,2.419-0.613,2.419-1.455c0-0.756-0.524-1.213-1.37-1.213
		c-0.729,0-1.297,0.342-1.865,0.856l-0.86-1.013c0.787-0.685,1.676-1.142,2.783-1.142c1.778,0,3.002,0.856,3.002,2.397
		c0,1.013-0.612,1.698-1.618,2.083v0.057c1.093,0.285,1.924,1.056,1.924,2.254c0,1.655-1.472,2.625-3.25,2.625
		c-1.5,0-2.492-0.571-3.147-1.284L89.193,208.208z"/>
	<path fill="#5B5B5B" d="M97.75,206.411c0-2.097-0.51-4.223-1.603-6.049l1.049-0.457c1.209,1.94,1.923,3.995,1.923,6.506
		c0,2.511-0.714,4.565-1.923,6.506l-1.049-0.457C97.24,210.634,97.75,208.508,97.75,206.411z"/>
</g>
<g>
	<path fill="#5B5B5B" d="M214.631,72.933h1.881l1.733,4.628l0.632,1.782h0.06l0.617-1.782l1.704-4.628h1.881v9.4h-1.602v-4.298
		c0-0.876,0.132-2.127,0.221-2.99h-0.06l-0.778,2.142l-1.66,4.269h-0.794l-1.66-4.269l-0.765-2.142h-0.059
		c0.088,0.862,0.221,2.113,0.221,2.99v4.298h-1.572V72.933z"/>
	<path fill="#5B5B5B" d="M229.366,77.82c-0.015-0.748-0.338-1.38-1.308-1.38c-0.72,0-1.396,0.316-2.028,0.69l-0.617-1.107
		c0.794-0.489,1.808-0.92,2.954-0.92c1.808,0,2.688,1.078,2.688,3.047v4.183h-1.381l-0.132-0.776h-0.045
		c-0.646,0.532-1.381,0.949-2.233,0.949c-1.264,0-2.146-0.833-2.146-2.07C225.119,78.926,226.413,78.136,229.366,77.82z
		 M227.794,81.212c0.588,0,1.043-0.288,1.572-0.776v-1.581c-1.954,0.245-2.601,0.748-2.601,1.452
		C226.766,80.939,227.191,81.212,227.794,81.212z"/>
	<path fill="#5B5B5B" d="M235.728,75.103c0.822,0,1.337,0.302,1.896,0.776l-0.059-1.136v-2.559h1.689v10.148h-1.396l-0.118-0.762
		h-0.059c-0.529,0.518-1.264,0.934-2.043,0.934c-1.807,0-2.968-1.365-2.968-3.694C232.671,76.512,234.155,75.103,235.728,75.103z
		 M236.051,81.14c0.559,0,1.028-0.245,1.514-0.791v-3.292c-0.5-0.431-0.985-0.589-1.47-0.589c-0.926,0-1.675,0.848-1.675,2.329
		C234.42,80.321,235.007,81.14,236.051,81.14z"/>
	<path fill="#5B5B5B" d="M241.396,75.275h1.396l0.117,1.25h0.059c0.515-0.92,1.279-1.423,2.043-1.423
		c0.367,0,0.603,0.043,0.823,0.144l-0.294,1.438c-0.25-0.072-0.441-0.115-0.75-0.115c-0.573,0-1.264,0.388-1.704,1.452v4.312h-1.69
		V75.275z"/>
	<path fill="#5B5B5B" d="M246.686,73.105c0-0.561,0.44-0.949,1.043-0.949s1.043,0.388,1.043,0.949c0,0.546-0.44,0.935-1.043,0.935
		S246.686,73.651,246.686,73.105z M246.876,75.275h1.69v7.058h-1.69V75.275z"/>
	<path fill="#5B5B5B" d="M253.341,75.103c0.822,0,1.337,0.302,1.896,0.776l-0.059-1.136v-2.559h1.689v10.148h-1.396l-0.118-0.762
		h-0.059c-0.529,0.518-1.264,0.934-2.043,0.934c-1.807,0-2.968-1.365-2.968-3.694C250.284,76.512,251.769,75.103,253.341,75.103z
		 M253.664,81.14c0.559,0,1.028-0.245,1.514-0.791v-3.292c-0.5-0.431-0.985-0.589-1.47-0.589c-0.926,0-1.675,0.848-1.675,2.329
		C252.033,80.321,252.62,81.14,253.664,81.14z"/>
	<path fill="#5B5B5B" d="M262.081,78.337c0-2.53,0.72-4.6,1.939-6.554l1.058,0.46c-1.102,1.84-1.616,3.981-1.616,6.094
		c0,2.113,0.515,4.255,1.616,6.095l-1.058,0.46C262.801,82.937,262.081,80.867,262.081,78.337z"/>
	<path fill="#5B5B5B" d="M266.796,80.982h2.087v-6.008h-1.719v-1.035c0.926-0.173,1.572-0.403,2.16-0.748h1.264v7.791h1.836v1.351
		h-5.628V80.982z"/>
	<path fill="#5B5B5B" d="M273.833,77.719c0-3.091,1.234-4.7,3.174-4.7s3.174,1.624,3.174,4.7c0,3.09-1.234,4.786-3.174,4.786
		S273.833,80.81,273.833,77.719z M278.564,77.719c0-2.587-0.646-3.407-1.558-3.407c-0.896,0-1.558,0.819-1.558,3.407
		c0,2.587,0.661,3.493,1.558,3.493C277.918,81.212,278.564,80.306,278.564,77.719z"/>
	<path fill="#5B5B5B" d="M281.867,80.982h2.087v-6.008h-1.719v-1.035c0.926-0.173,1.572-0.403,2.16-0.748h1.264v7.791h1.836v1.351
		h-5.628V80.982z"/>
	<path fill="#5B5B5B" d="M290.564,78.337c0-2.113-0.514-4.254-1.616-6.094l1.058-0.46c1.22,1.955,1.94,4.024,1.94,6.554
		s-0.721,4.6-1.94,6.555l-1.058-0.46C290.051,82.592,290.564,80.45,290.564,78.337z"/>
</g>
<g>
	<path fill="#5B5B5B" d="M109.475,200.977h1.881l1.734,4.628l0.632,1.782h0.059l0.617-1.782l1.705-4.628h1.881v9.4h-1.602v-4.298
		c0-0.876,0.132-2.127,0.22-2.99h-0.059l-0.779,2.142l-1.661,4.269h-0.793l-1.66-4.269l-0.764-2.142h-0.059
		c0.088,0.862,0.221,2.113,0.221,2.99v4.298h-1.572V200.977z"/>
	<path fill="#5B5B5B" d="M124.21,205.864c-0.015-0.748-0.338-1.38-1.308-1.38c-0.72,0-1.396,0.316-2.028,0.69l-0.617-1.107
		c0.793-0.489,1.807-0.92,2.954-0.92c1.807,0,2.689,1.078,2.689,3.047v4.183h-1.381l-0.132-0.776h-0.044
		c-0.646,0.532-1.381,0.949-2.233,0.949c-1.264,0-2.146-0.833-2.146-2.07C119.964,206.97,121.257,206.18,124.21,205.864z
		 M122.638,209.256c0.588,0,1.043-0.288,1.572-0.776v-1.581c-1.955,0.245-2.601,0.748-2.601,1.452
		C121.609,208.983,122.036,209.256,122.638,209.256z"/>
	<path fill="#5B5B5B" d="M130.571,203.147c0.823,0,1.337,0.302,1.896,0.776l-0.059-1.136v-2.559h1.69v10.148h-1.396l-0.118-0.762
		h-0.059c-0.529,0.518-1.264,0.934-2.042,0.934c-1.808,0-2.968-1.365-2.968-3.694C127.515,204.556,128.999,203.147,130.571,203.147z
		 M130.895,209.184c0.558,0,1.028-0.245,1.513-0.791v-3.292c-0.5-0.431-0.984-0.589-1.469-0.589c-0.926,0-1.675,0.848-1.675,2.329
		C129.263,208.365,129.851,209.184,130.895,209.184z"/>
	<path fill="#5B5B5B" d="M136.241,203.319h1.396l0.118,1.25h0.059c0.514-0.92,1.278-1.423,2.042-1.423
		c0.367,0,0.603,0.043,0.823,0.144l-0.294,1.438c-0.25-0.072-0.441-0.115-0.749-0.115c-0.573,0-1.264,0.388-1.705,1.452v4.312h-1.69
		V203.319z"/>
	<path fill="#5B5B5B" d="M141.529,201.149c0-0.561,0.44-0.949,1.043-0.949s1.043,0.388,1.043,0.949c0,0.546-0.441,0.935-1.043,0.935
		S141.529,201.695,141.529,201.149z M141.72,203.319h1.69v7.058h-1.69V203.319z"/>
	<path fill="#5B5B5B" d="M148.185,203.147c0.823,0,1.337,0.302,1.896,0.776l-0.059-1.136v-2.559h1.69v10.148h-1.396l-0.118-0.762
		h-0.059c-0.529,0.518-1.264,0.934-2.042,0.934c-1.808,0-2.968-1.365-2.968-3.694C145.128,204.556,146.612,203.147,148.185,203.147z
		 M148.508,209.184c0.558,0,1.028-0.245,1.513-0.791v-3.292c-0.5-0.431-0.984-0.589-1.469-0.589c-0.926,0-1.675,0.848-1.675,2.329
		C146.877,208.365,147.465,209.184,148.508,209.184z"/>
	<path fill="#5B5B5B" d="M156.925,206.381c0-2.53,0.72-4.6,1.94-6.554l1.058,0.46c-1.102,1.84-1.616,3.981-1.616,6.094
		c0,2.113,0.514,4.255,1.616,6.095l-1.058,0.46C157.645,210.98,156.925,208.911,156.925,206.381z"/>
	<path fill="#5B5B5B" d="M161.64,209.026h2.087v-6.008h-1.719v-1.035c0.926-0.173,1.572-0.403,2.16-0.748h1.264v7.791h1.836v1.351
		h-5.628V209.026z"/>
	<path fill="#5B5B5B" d="M168.677,205.763c0-3.091,1.234-4.7,3.174-4.7s3.174,1.624,3.174,4.7c0,3.09-1.234,4.786-3.174,4.786
		S168.677,208.854,168.677,205.763z M173.408,205.763c0-2.587-0.646-3.407-1.558-3.407c-0.896,0-1.558,0.819-1.558,3.407
		c0,2.587,0.661,3.493,1.558,3.493C172.762,209.256,173.408,208.35,173.408,205.763z"/>
	<path fill="#5B5B5B" d="M176.712,209.026h2.087v-6.008h-1.719v-1.035c0.926-0.173,1.572-0.403,2.16-0.748h1.264v7.791h1.836v1.351
		h-5.628V209.026z"/>
	<path fill="#5B5B5B" d="M185.409,206.381c0-2.113-0.514-4.254-1.616-6.094l1.058-0.46c1.22,1.955,1.94,4.024,1.94,6.554
		s-0.721,4.6-1.94,6.555l-1.058-0.46C184.896,210.636,185.409,208.494,185.409,206.381z"/>
</g>
<g>
	<path fill="#5B5B5B" d="M245.984,14.212h3.354c2.18,0,3.796,0.745,3.796,3.011c0,2.162-1.646,3.161-3.796,3.161h-1.585v3.578
		h-1.769V14.212z M249.2,18.997c1.479,0,2.195-0.582,2.195-1.774c0-1.223-0.747-1.625-2.195-1.625h-1.447v3.399H249.2z"/>
	<path fill="#5B5B5B" d="M257.475,16.463c2.027,0,3.095,1.431,3.095,3.474c0,0.328-0.03,0.626-0.076,0.805h-4.756
		c0.152,1.327,1.006,2.072,2.21,2.072c0.641,0,1.189-0.194,1.738-0.537l0.595,1.073c-0.717,0.462-1.616,0.79-2.562,0.79
		c-2.073,0-3.688-1.416-3.688-3.831C254.03,17.924,255.722,16.463,257.475,16.463z M259.045,19.653c0-1.163-0.503-1.863-1.524-1.863
		c-0.884,0-1.646,0.641-1.799,1.863H259.045z"/>
	<path fill="#5B5B5B" d="M262.244,16.642h1.448l0.121,1.297h0.062c0.533-0.954,1.326-1.476,2.119-1.476
		c0.381,0,0.625,0.044,0.854,0.149l-0.305,1.491c-0.26-0.074-0.458-0.119-0.778-0.119c-0.594,0-1.311,0.402-1.768,1.506v4.472
		h-1.753V16.642z"/>
	<path fill="#5B5B5B" d="M268.187,17.998h-1.067v-1.282l1.159-0.075l0.213-1.998h1.464v1.998h1.905v1.356h-1.905v3.489
		c0,0.865,0.335,1.282,1.052,1.282c0.259,0,0.563-0.074,0.777-0.164l0.305,1.267c-0.411,0.134-0.93,0.268-1.524,0.268
		c-1.737,0-2.378-1.073-2.378-2.653V17.998z"/>
	<path fill="#5B5B5B" d="M273.429,13.437h1.753v2.713l-0.061,1.416c0.625-0.582,1.372-1.103,2.394-1.103
		c1.601,0,2.302,1.059,2.302,2.907v4.592h-1.754v-4.368c0-1.208-0.351-1.655-1.173-1.655c-0.656,0-1.083,0.313-1.708,0.91v5.113
		h-1.753V13.437z"/>
	<path fill="#5B5B5B" d="M285.117,19.817c0-2.624,0.747-4.771,2.012-6.798l1.098,0.477c-1.144,1.908-1.677,4.129-1.677,6.321
		s0.533,4.413,1.677,6.321l-1.098,0.477C285.864,24.587,285.117,22.441,285.117,19.817z"/>
	<path fill="#5B5B5B" d="M290.542,22.023c0.365,0.417,0.96,0.715,1.555,0.715c1.22,0,2.21-0.879,2.286-3.503
		c-0.563,0.686-1.417,1.103-2.118,1.103c-1.662,0-2.82-0.954-2.82-2.937c0-1.893,1.387-3.101,3.049-3.101
		c1.89,0,3.506,1.431,3.506,4.621c0,3.683-1.814,5.218-3.812,5.218c-1.158,0-2.012-0.477-2.591-1.073L290.542,22.023z
		 M294.337,17.998c-0.183-1.669-0.884-2.385-1.829-2.385c-0.792,0-1.448,0.641-1.448,1.789c0,1.118,0.564,1.7,1.54,1.7
		C293.148,19.102,293.804,18.789,294.337,17.998z"/>
	<path fill="#5B5B5B" d="M298.359,22.023c0.365,0.417,0.96,0.715,1.555,0.715c1.22,0,2.21-0.879,2.286-3.503
		c-0.563,0.686-1.417,1.103-2.118,1.103c-1.662,0-2.82-0.954-2.82-2.937c0-1.893,1.387-3.101,3.049-3.101
		c1.89,0,3.506,1.431,3.506,4.621c0,3.683-1.814,5.218-3.812,5.218c-1.158,0-2.012-0.477-2.591-1.073L298.359,22.023z
		 M302.154,17.998c-0.183-1.669-0.884-2.385-1.829-2.385c-0.792,0-1.448,0.641-1.448,1.789c0,1.118,0.564,1.7,1.54,1.7
		C300.966,19.102,301.621,18.789,302.154,17.998z"/>
	<path fill="#5B5B5B" d="M306.847,19.817c0-2.191-0.533-4.413-1.677-6.321l1.098-0.477c1.265,2.027,2.012,4.174,2.012,6.798
		c0,2.624-0.747,4.771-2.012,6.798l-1.098-0.477C306.313,24.23,306.847,22.008,306.847,19.817z"/>
</g>
<g>
	<path fill="#5B5B5B" d="M236.939,43.911h3.545c2.304,0,4.012,0.787,4.012,3.181c0,2.283-1.74,3.338-4.012,3.338h-1.676v3.779
		h-1.869V43.911z M240.339,48.965c1.563,0,2.32-0.614,2.32-1.874c0-1.291-0.79-1.716-2.32-1.716h-1.53v3.59H240.339z"/>
	<path fill="#5B5B5B" d="M249.084,46.288c2.144,0,3.271,1.512,3.271,3.669c0,0.346-0.032,0.661-0.08,0.85h-5.027
		c0.16,1.401,1.062,2.189,2.336,2.189c0.677,0,1.257-0.205,1.837-0.567l0.628,1.134c-0.757,0.488-1.707,0.834-2.707,0.834
		c-2.191,0-3.898-1.496-3.898-4.047C245.443,47.832,247.231,46.288,249.084,46.288z M250.744,49.658
		c0-1.229-0.531-1.968-1.611-1.968c-0.935,0-1.74,0.677-1.901,1.968H250.744z"/>
	<path fill="#5B5B5B" d="M254.123,46.477h1.531l0.129,1.37h0.064c0.564-1.008,1.402-1.559,2.24-1.559
		c0.402,0,0.66,0.047,0.902,0.158l-0.322,1.575c-0.274-0.079-0.484-0.126-0.822-0.126c-0.629,0-1.386,0.425-1.869,1.59v4.724h-1.854
		V46.477z"/>
	<path fill="#5B5B5B" d="M260.405,47.91h-1.128v-1.354l1.225-0.079l0.226-2.11h1.547v2.11h2.015v1.433h-2.015v3.685
		c0,0.913,0.354,1.354,1.112,1.354c0.273,0,0.596-0.079,0.821-0.173l0.322,1.339c-0.435,0.142-0.983,0.283-1.611,0.283
		c-1.837,0-2.514-1.134-2.514-2.803V47.91z"/>
	<path fill="#5B5B5B" d="M265.945,43.091h1.854v2.866l-0.064,1.496c0.66-0.614,1.45-1.166,2.529-1.166
		c1.692,0,2.434,1.118,2.434,3.071v4.85h-1.854v-4.614c0-1.275-0.37-1.748-1.24-1.748c-0.693,0-1.145,0.331-1.805,0.96v5.401h-1.854
		V43.091z"/>
	<path fill="#5B5B5B" d="M278.299,49.832c0-2.771,0.789-5.039,2.127-7.181l1.16,0.504c-1.209,2.016-1.773,4.362-1.773,6.677
		c0,2.314,0.564,4.661,1.773,6.677l-1.16,0.504C279.088,54.871,278.299,52.603,278.299,49.832z"/>
	<path fill="#5B5B5B" d="M284.033,52.162c0.387,0.441,1.015,0.756,1.643,0.756c1.289,0,2.337-0.929,2.418-3.7
		c-0.597,0.724-1.499,1.165-2.24,1.165c-1.756,0-2.98-1.008-2.98-3.102c0-2,1.466-3.275,3.223-3.275
		c1.998,0,3.705,1.512,3.705,4.881c0,3.89-1.917,5.512-4.027,5.512c-1.225,0-2.127-0.504-2.74-1.134L284.033,52.162z M288.045,47.91
		c-0.193-1.764-0.935-2.52-1.934-2.52c-0.838,0-1.531,0.677-1.531,1.89c0,1.181,0.597,1.795,1.628,1.795
		C286.788,49.076,287.48,48.745,288.045,47.91z"/>
	<path fill="#5B5B5B" d="M292.295,52.162c0.387,0.441,1.015,0.756,1.643,0.756c1.289,0,2.337-0.929,2.418-3.7
		c-0.597,0.724-1.499,1.165-2.24,1.165c-1.756,0-2.98-1.008-2.98-3.102c0-2,1.466-3.275,3.223-3.275
		c1.998,0,3.705,1.512,3.705,4.881c0,3.89-1.917,5.512-4.027,5.512c-1.225,0-2.127-0.504-2.74-1.134L292.295,52.162z M296.307,47.91
		c-0.193-1.764-0.935-2.52-1.934-2.52c-0.838,0-1.531,0.677-1.531,1.89c0,1.181,0.597,1.795,1.628,1.795
		C295.05,49.076,295.742,48.745,296.307,47.91z"/>
	<path fill="#5B5B5B" d="M301.266,49.832c0-2.315-0.563-4.661-1.771-6.677l1.16-0.504c1.337,2.142,2.127,4.409,2.127,7.181
		s-0.79,5.039-2.127,7.181l-1.16-0.504C300.702,54.493,301.266,52.146,301.266,49.832z"/>
</g>
<g>
	<path fill="#5B5B5B" d="M3.35,140.935h1.103v6.151h2.586v1.084H3.35V140.935z"/>
	<path fill="#5B5B5B" d="M7.904,141.067c0-0.432,0.285-0.73,0.675-0.73c0.39,0,0.675,0.299,0.675,0.73
		c0,0.42-0.285,0.719-0.675,0.719C8.189,141.786,7.904,141.488,7.904,141.067z M8.028,142.738h1.093v5.432H8.028V142.738z"/>
	<path fill="#5B5B5B" d="M10.519,142.738h0.903l0.076,0.741h0.038c0.39-0.487,0.846-0.874,1.426-0.874
		c0.684,0,1.074,0.365,1.292,0.974c0.447-0.553,0.913-0.974,1.502-0.974c0.989,0,1.445,0.785,1.445,2.157v3.407h-1.103v-3.241
		c0-0.896-0.228-1.228-0.713-1.228c-0.294,0-0.618,0.221-0.979,0.675v3.794h-1.093v-3.241c0-0.896-0.228-1.228-0.723-1.228
		c-0.285,0-0.618,0.221-0.979,0.675v3.794h-1.093V142.738z"/>
	<path fill="#5B5B5B" d="M21.082,144.696c-0.01-0.575-0.219-1.062-0.846-1.062c-0.466,0-0.903,0.243-1.312,0.531l-0.399-0.852
		c0.513-0.376,1.169-0.708,1.911-0.708c1.169,0,1.74,0.83,1.74,2.345v3.219h-0.894l-0.086-0.597h-0.028
		c-0.418,0.409-0.894,0.73-1.445,0.73c-0.817,0-1.388-0.642-1.388-1.593C18.334,145.547,19.171,144.939,21.082,144.696z
		 M20.065,147.307c0.38,0,0.675-0.221,1.017-0.598v-1.217c-1.265,0.188-1.683,0.575-1.683,1.117
		C19.399,147.096,19.675,147.307,20.065,147.307z"/>
	<path fill="#5B5B5B" d="M25.494,145.094c0-1.947,0.466-3.54,1.255-5.045l0.685,0.354c-0.713,1.416-1.046,3.064-1.046,4.691
		c0,1.626,0.333,3.274,1.046,4.69l-0.685,0.354C25.96,148.634,25.494,147.041,25.494,145.094z"/>
	<path fill="#5B5B5B" d="M31.123,142.207h-2.861v-1.073h4.059v0.774c-1.417,2.046-1.664,3.518-1.768,6.261H29.44
		C29.544,145.669,29.953,144.098,31.123,142.207z"/>
	<path fill="#5B5B5B" d="M33.101,144.618c0-2.378,0.798-3.617,2.053-3.617s2.053,1.25,2.053,3.617c0,2.378-0.798,3.684-2.053,3.684
		S33.101,146.997,33.101,144.618z M36.162,144.618c0-1.991-0.418-2.622-1.008-2.622c-0.58,0-1.008,0.63-1.008,2.622
		s0.428,2.688,1.008,2.688C35.743,147.307,36.162,146.609,36.162,144.618z"/>
	<path fill="#5B5B5B" d="M39.053,145.094c0-1.626-0.333-3.275-1.046-4.691l0.685-0.354c0.789,1.505,1.255,3.098,1.255,5.045
		c0,1.947-0.466,3.54-1.255,5.044l-0.685-0.354C38.72,148.369,39.053,146.72,39.053,145.094z"/>
</g>
<g>
	<path fill="#5B5B5B" d="M3.175,109.674h2.487c1.617,0,2.815,0.553,2.815,2.234c0,1.604-1.221,2.346-2.815,2.346H4.486v2.655H3.175
		V109.674z M5.561,113.225c1.097,0,1.628-0.431,1.628-1.316c0-0.907-0.554-1.206-1.628-1.206H4.486v2.522H5.561z"/>
	<path fill="#5B5B5B" d="M11.7,111.345c1.503,0,2.295,1.062,2.295,2.578c0,0.243-0.022,0.464-0.056,0.597h-3.528
		c0.113,0.985,0.746,1.538,1.64,1.538c0.475,0,0.882-0.144,1.289-0.398l0.441,0.796c-0.531,0.343-1.198,0.586-1.899,0.586
		c-1.538,0-2.736-1.051-2.736-2.843C9.144,112.429,10.399,111.345,11.7,111.345z M12.864,113.712c0-0.863-0.373-1.383-1.131-1.383
		c-0.656,0-1.221,0.476-1.334,1.383H12.864z"/>
	<path fill="#5B5B5B" d="M15.238,111.478h1.074l0.091,0.962h0.045c0.396-0.708,0.984-1.095,1.572-1.095
		c0.283,0,0.463,0.033,0.633,0.11l-0.227,1.106c-0.192-0.055-0.339-0.088-0.576-0.088c-0.441,0-0.973,0.299-1.312,1.117v3.319h-1.3
		V111.478z"/>
	<path fill="#5B5B5B" d="M19.647,112.484h-0.792v-0.951l0.859-0.055l0.158-1.482h1.085v1.482h1.414v1.006h-1.414v2.589
		c0,0.642,0.249,0.951,0.78,0.951c0.192,0,0.418-0.055,0.577-0.122l0.226,0.94c-0.305,0.1-0.689,0.199-1.131,0.199
		c-1.289,0-1.764-0.796-1.764-1.969V112.484z"/>
	<path fill="#5B5B5B" d="M23.536,109.099h1.3v2.013l-0.045,1.051c0.463-0.431,1.018-0.818,1.775-0.818
		c1.188,0,1.708,0.786,1.708,2.157v3.407h-1.3v-3.241c0-0.896-0.26-1.228-0.871-1.228c-0.486,0-0.803,0.232-1.267,0.675v3.794h-1.3
		V109.099z"/>
	<path fill="#5B5B5B" d="M32.208,113.834c0-1.947,0.554-3.54,1.493-5.045l0.814,0.354c-0.848,1.416-1.244,3.064-1.244,4.691
		c0,1.626,0.396,3.274,1.244,4.69l-0.814,0.354C32.762,117.374,32.208,115.781,32.208,113.834z"/>
	<path fill="#5B5B5B" d="M36.233,115.471c0.271,0.31,0.712,0.531,1.153,0.531c0.904,0,1.64-0.653,1.696-2.6
		c-0.418,0.509-1.051,0.819-1.571,0.819c-1.232,0-2.092-0.708-2.092-2.18c0-1.405,1.029-2.301,2.261-2.301
		c1.402,0,2.601,1.062,2.601,3.429c0,2.732-1.346,3.872-2.827,3.872c-0.859,0-1.493-0.354-1.922-0.796L36.233,115.471z
		 M39.048,112.484c-0.136-1.239-0.656-1.77-1.357-1.77c-0.588,0-1.074,0.476-1.074,1.327c0,0.83,0.418,1.261,1.142,1.261
		C38.167,113.303,38.652,113.07,39.048,112.484z"/>
	<path fill="#5B5B5B" d="M42.033,115.471c0.271,0.31,0.712,0.531,1.153,0.531c0.904,0,1.64-0.653,1.696-2.6
		c-0.418,0.509-1.051,0.819-1.571,0.819c-1.232,0-2.092-0.708-2.092-2.18c0-1.405,1.029-2.301,2.261-2.301
		c1.402,0,2.601,1.062,2.601,3.429c0,2.732-1.346,3.872-2.827,3.872c-0.859,0-1.493-0.354-1.922-0.796L42.033,115.471z
		 M44.848,112.484c-0.136-1.239-0.656-1.77-1.357-1.77c-0.588,0-1.074,0.476-1.074,1.327c0,0.83,0.418,1.261,1.142,1.261
		C43.966,113.303,44.452,113.07,44.848,112.484z"/>
	<path fill="#5B5B5B" d="M48.33,113.834c0-1.626-0.396-3.275-1.244-4.691l0.814-0.354c0.938,1.505,1.493,3.098,1.493,5.045
		c0,1.947-0.554,3.54-1.493,5.044l-0.814-0.354C47.934,117.108,48.33,115.46,48.33,113.834z"/>
</g>
<g>
	<path fill="#5B5B5B" d="M140.895,20.958h-3.313l-0.768,2.606h-1.777l3.208-9.63h2.048l3.208,9.63h-1.837L140.895,20.958z
		 M140.503,19.619l-0.347-1.178c-0.316-1.016-0.603-2.121-0.889-3.181h-0.06c-0.271,1.075-0.557,2.165-0.874,3.181l-0.346,1.178
		H140.503z"/>
	<path fill="#5B5B5B" d="M144.569,16.335H146l0.121,0.987h0.06c0.617-0.648,1.34-1.164,2.259-1.164c1.084,0,1.702,0.486,2.048,1.296
		c0.708-0.736,1.446-1.296,2.38-1.296c1.566,0,2.289,1.045,2.289,2.872v4.535h-1.747V19.25c0-1.192-0.361-1.634-1.129-1.634
		c-0.467,0-0.979,0.294-1.551,0.898v5.051h-1.732V19.25c0-1.192-0.362-1.634-1.145-1.634c-0.452,0-0.979,0.294-1.551,0.898v5.051
		h-1.732V16.335z"/>
	<path fill="#5B5B5B" d="M157.339,21.651c0.663,0.5,1.295,0.81,2.048,0.81c0.798,0,1.174-0.368,1.174-0.869
		c0-0.604-0.798-0.869-1.581-1.163c-0.979-0.354-2.079-0.898-2.079-2.106c0-1.266,1.04-2.165,2.696-2.165
		c1.024,0,1.853,0.413,2.455,0.869l-0.798,1.031c-0.513-0.368-1.04-0.619-1.627-0.619c-0.738,0-1.084,0.339-1.084,0.795
		c0,0.575,0.738,0.795,1.536,1.075c1.009,0.368,2.124,0.839,2.124,2.194c0,1.237-1.009,2.238-2.876,2.238
		c-1.009,0-2.078-0.427-2.801-1.001L157.339,21.651z"/>
	<path fill="#5B5B5B" d="M164.011,17.675h-1.055v-1.267l1.146-0.074l0.21-1.973h1.446v1.973h1.883v1.34h-1.883v3.445
		c0,0.854,0.331,1.267,1.039,1.267c0.256,0,0.558-0.074,0.769-0.162l0.301,1.251c-0.406,0.132-0.919,0.265-1.506,0.265
		c-1.717,0-2.35-1.06-2.35-2.621V17.675z"/>
	<path fill="#5B5B5B" d="M171.962,16.158c2.003,0,3.057,1.414,3.057,3.431c0,0.324-0.03,0.618-0.075,0.795h-4.698
		c0.15,1.311,0.993,2.047,2.184,2.047c0.632,0,1.175-0.191,1.717-0.53l0.587,1.061c-0.708,0.456-1.596,0.78-2.53,0.78
		c-2.048,0-3.645-1.399-3.645-3.784C168.558,17.602,170.229,16.158,171.962,16.158z M173.513,19.31c0-1.148-0.497-1.841-1.506-1.841
		c-0.874,0-1.627,0.633-1.777,1.841H173.513z"/>
	<path fill="#5B5B5B" d="M176.676,16.335h1.431l0.12,1.281h0.061c0.527-0.942,1.311-1.458,2.094-1.458
		c0.376,0,0.617,0.044,0.843,0.147l-0.301,1.473c-0.256-0.074-0.452-0.118-0.769-0.118c-0.587,0-1.295,0.398-1.747,1.487v4.417
		h-1.731V16.335z"/>
	<path fill="#5B5B5B" d="M184.822,16.158c0.844,0,1.37,0.31,1.942,0.795l-0.06-1.163v-2.621h1.731v10.396h-1.431l-0.12-0.78h-0.061
		c-0.542,0.53-1.295,0.957-2.094,0.957c-1.853,0-3.042-1.399-3.042-3.784C181.689,17.602,183.211,16.158,184.822,16.158z
		 M185.153,22.343c0.572,0,1.055-0.25,1.552-0.81v-3.372c-0.513-0.442-1.01-0.604-1.507-0.604c-0.948,0-1.717,0.869-1.717,2.386
		C183.481,21.503,184.084,22.343,185.153,22.343z"/>
	<path fill="#5B5B5B" d="M194.672,18.941c-0.016-0.766-0.347-1.414-1.341-1.414c-0.737,0-1.431,0.324-2.078,0.707l-0.633-1.134
		c0.813-0.5,1.853-0.942,3.027-0.942c1.853,0,2.756,1.104,2.756,3.122v4.285h-1.415l-0.136-0.795h-0.045
		c-0.663,0.544-1.416,0.972-2.289,0.972c-1.296,0-2.199-0.854-2.199-2.121C190.319,20.075,191.645,19.265,194.672,18.941z
		 M193.061,22.417c0.603,0,1.069-0.294,1.611-0.795v-1.62c-2.003,0.25-2.666,0.766-2.666,1.487
		C192.006,22.137,192.442,22.417,193.061,22.417z"/>
	<path fill="#5B5B5B" d="M198.512,16.335h1.431l0.12,0.987h0.061c0.617-0.648,1.34-1.164,2.259-1.164
		c1.085,0,1.702,0.486,2.049,1.296c0.707-0.736,1.445-1.296,2.379-1.296c1.566,0,2.289,1.045,2.289,2.872v4.535h-1.747V19.25
		c0-1.192-0.361-1.634-1.129-1.634c-0.467,0-0.979,0.294-1.552,0.898v5.051h-1.731V19.25c0-1.192-0.361-1.634-1.145-1.634
		c-0.452,0-0.979,0.294-1.552,0.898v5.051h-1.731V16.335z"/>
	<path fill="#5B5B5B" d="M214.354,19.472c0-2.592,0.738-4.712,1.988-6.715l1.085,0.471c-1.13,1.885-1.657,4.079-1.657,6.244
		s0.527,4.358,1.657,6.243l-1.085,0.471C215.092,24.184,214.354,22.063,214.354,19.472z"/>
	<path fill="#5B5B5B" d="M219.715,21.651c0.361,0.412,0.949,0.707,1.536,0.707c1.205,0,2.184-0.869,2.259-3.46
		c-0.557,0.678-1.4,1.09-2.093,1.09c-1.642,0-2.786-0.942-2.786-2.901c0-1.87,1.37-3.062,3.012-3.062
		c1.867,0,3.464,1.414,3.464,4.564c0,3.637-1.792,5.154-3.765,5.154c-1.146,0-1.988-0.471-2.561-1.06L219.715,21.651z
		 M223.465,17.675c-0.181-1.649-0.873-2.356-1.808-2.356c-0.783,0-1.431,0.633-1.431,1.767c0,1.104,0.558,1.679,1.521,1.679
		C222.29,18.765,222.938,18.456,223.465,17.675z"/>
	<path fill="#5B5B5B" d="M228.148,18.765v-0.059c-0.738-0.515-1.325-1.207-1.325-2.194c0-1.517,1.234-2.488,2.892-2.488
		c1.717,0,2.816,1.016,2.816,2.533c0,0.927-0.663,1.708-1.28,2.149v0.059c0.889,0.486,1.656,1.178,1.656,2.43
		c0,1.443-1.295,2.547-3.238,2.547c-1.867,0-3.253-1.06-3.253-2.577C226.416,20.001,227.244,19.236,228.148,18.765z M229.699,22.534
		c0.919,0,1.582-0.53,1.582-1.399c0-1.016-1.01-1.384-2.305-1.899c-0.603,0.427-1.039,1.031-1.039,1.752
		C227.938,21.916,228.721,22.534,229.699,22.534z M231.1,16.659c0-0.825-0.526-1.428-1.415-1.428c-0.738,0-1.311,0.471-1.311,1.281
		c0,0.942,0.858,1.355,1.928,1.767C230.813,17.778,231.1,17.248,231.1,16.659z"/>
	<path fill="#5B5B5B" d="M235.828,19.472c0-2.165-0.527-4.359-1.657-6.244l1.085-0.471c1.25,2.003,1.987,4.123,1.987,6.715
		c0,2.591-0.737,4.712-1.987,6.714l-1.085-0.471C235.301,23.83,235.828,21.636,235.828,19.472z"/>
</g>
<g>
	<path fill="#5B5B5B" d="M9.953,178.788l-2.124-3.77H6.323v3.77H4.576v-9.63h3.328c2.048,0,3.615,0.707,3.615,2.856
		c0,1.473-0.783,2.356-1.958,2.753l2.35,4.02H9.953z M6.323,173.664h1.4c1.34,0,2.079-0.56,2.079-1.649
		c0-1.104-0.738-1.487-2.079-1.487h-1.4V173.664z"/>
	<path fill="#5B5B5B" d="M13.25,169.334c0-0.574,0.452-0.972,1.069-0.972c0.617,0,1.069,0.398,1.069,0.972
		c0,0.56-0.452,0.957-1.069,0.957C13.702,170.292,13.25,169.894,13.25,169.334z M13.446,171.558h1.732v7.23h-1.732V171.558z"/>
	<path fill="#5B5B5B" d="M20.419,171.381c1.853,0,3.524,1.384,3.524,3.799c0,2.4-1.672,3.784-3.524,3.784
		c-1.837,0-3.509-1.384-3.509-3.784C16.91,172.765,18.582,171.381,20.419,171.381z M20.419,177.58c1.084,0,1.747-0.957,1.747-2.4
		c0-1.458-0.663-2.415-1.747-2.415s-1.732,0.957-1.732,2.415C18.687,176.623,19.334,177.58,20.419,177.58z"/>
	<path fill="#5B5B5B" d="M31.427,171.381c0.843,0,1.371,0.31,1.943,0.795l-0.061-1.163v-2.621h1.732v10.396h-1.431l-0.121-0.78
		h-0.06c-0.542,0.53-1.295,0.957-2.093,0.957c-1.853,0-3.042-1.399-3.042-3.784C28.294,172.824,29.815,171.381,31.427,171.381z
		 M31.758,177.565c0.572,0,1.054-0.25,1.551-0.81v-3.372c-0.512-0.442-1.009-0.604-1.506-0.604c-0.949,0-1.717,0.869-1.717,2.386
		C30.087,176.726,30.689,177.565,31.758,177.565z"/>
	<path fill="#5B5B5B" d="M40.162,171.381c2.003,0,3.058,1.414,3.058,3.431c0,0.324-0.03,0.618-0.076,0.795h-4.699
		c0.151,1.311,0.994,2.047,2.184,2.047c0.633,0,1.175-0.191,1.717-0.53l0.587,1.061c-0.708,0.456-1.597,0.78-2.53,0.78
		c-2.048,0-3.645-1.399-3.645-3.784C36.758,172.824,38.43,171.381,40.162,171.381z M41.713,174.532c0-1.148-0.497-1.841-1.506-1.841
		c-0.874,0-1.626,0.633-1.777,1.841H41.713z"/>
	<path fill="#5B5B5B" d="M48.429,176.461c0.392,0.707,0.934,1.016,1.536,1.016c0.918,0,1.385-0.486,1.385-1.855v-6.464h1.747v6.611
		c0,1.752-0.874,3.195-2.937,3.195c-1.371,0-2.319-0.56-2.937-1.634L48.429,176.461z"/>
	<path fill="#5B5B5B" d="M59.438,174.164c-0.015-0.766-0.347-1.414-1.34-1.414c-0.738,0-1.431,0.324-2.079,0.707l-0.632-1.134
		c0.813-0.5,1.853-0.942,3.027-0.942c1.853,0,2.756,1.104,2.756,3.122v4.285h-1.416l-0.135-0.795h-0.045
		c-0.663,0.544-1.416,0.972-2.289,0.972c-1.295,0-2.199-0.854-2.199-2.121C55.085,175.298,56.41,174.488,59.438,174.164z
		 M57.826,177.639c0.603,0,1.069-0.294,1.612-0.795v-1.62c-2.003,0.25-2.666,0.766-2.666,1.487
		C56.771,177.359,57.208,177.639,57.826,177.639z"/>
	<path fill="#5B5B5B" d="M63.277,171.558h1.431l0.12,0.972h0.061c0.663-0.633,1.416-1.149,2.425-1.149
		c1.581,0,2.274,1.045,2.274,2.872v4.535h-1.732v-4.314c0-1.192-0.346-1.634-1.16-1.634c-0.647,0-1.069,0.309-1.687,0.898v5.051
		h-1.732V171.558z"/>
	<path fill="#5B5B5B" d="M74.632,171.381c2.003,0,3.058,1.414,3.058,3.431c0,0.324-0.03,0.618-0.076,0.795h-4.699
		c0.151,1.311,0.994,2.047,2.184,2.047c0.633,0,1.175-0.191,1.717-0.53l0.587,1.061c-0.708,0.456-1.597,0.78-2.53,0.78
		c-2.048,0-3.645-1.399-3.645-3.784C71.229,172.824,72.9,171.381,74.632,171.381z M76.184,174.532c0-1.148-0.497-1.841-1.506-1.841
		c-0.874,0-1.626,0.633-1.777,1.841H76.184z"/>
	<path fill="#5B5B5B" d="M79.15,169.334c0-0.574,0.452-0.972,1.069-0.972c0.617,0,1.069,0.398,1.069,0.972
		c0,0.56-0.452,0.957-1.069,0.957C79.602,170.292,79.15,169.894,79.15,169.334z M79.346,171.558h1.732v7.23h-1.732V171.558z"/>
	<path fill="#5B5B5B" d="M83.292,171.558h1.431l0.121,1.281h0.06c0.527-0.942,1.31-1.458,2.093-1.458
		c0.376,0,0.618,0.044,0.843,0.147l-0.301,1.473c-0.256-0.074-0.452-0.118-0.768-0.118c-0.587,0-1.295,0.398-1.747,1.487v4.417
		h-1.732V171.558z"/>
	<path fill="#5B5B5B" d="M91.785,171.381c1.853,0,3.524,1.384,3.524,3.799c0,2.4-1.672,3.784-3.524,3.784
		c-1.837,0-3.509-1.384-3.509-3.784C88.276,172.765,89.947,171.381,91.785,171.381z M91.785,177.58c1.084,0,1.747-0.957,1.747-2.4
		c0-1.458-0.663-2.415-1.747-2.415s-1.732,0.957-1.732,2.415C90.053,176.623,90.7,177.58,91.785,177.58z"/>
	<path fill="#5B5B5B" d="M100.173,174.694c0-2.592,0.738-4.712,1.988-6.715l1.084,0.471c-1.129,1.885-1.657,4.079-1.657,6.244
		s0.527,4.358,1.657,6.243l-1.084,0.471C100.911,179.406,100.173,177.286,100.173,174.694z"/>
	<path fill="#5B5B5B" d="M105.534,176.874c0.361,0.412,0.949,0.707,1.536,0.707c1.205,0,2.184-0.869,2.259-3.46
		c-0.558,0.678-1.401,1.09-2.094,1.09c-1.642,0-2.786-0.942-2.786-2.901c0-1.87,1.371-3.062,3.012-3.062
		c1.868,0,3.464,1.414,3.464,4.564c0,3.637-1.792,5.154-3.765,5.154c-1.145,0-1.988-0.471-2.56-1.06L105.534,176.874z
		 M109.284,172.898c-0.181-1.649-0.874-2.356-1.807-2.356c-0.783,0-1.431,0.633-1.431,1.767c0,1.104,0.557,1.679,1.521,1.679
		C108.109,173.987,108.757,173.678,109.284,172.898z"/>
	<path fill="#5B5B5B" d="M113.967,173.987v-0.059c-0.738-0.515-1.326-1.207-1.326-2.194c0-1.517,1.235-2.488,2.892-2.488
		c1.717,0,2.816,1.016,2.816,2.533c0,0.927-0.663,1.708-1.28,2.149v0.059c0.889,0.486,1.657,1.178,1.657,2.43
		c0,1.443-1.295,2.547-3.238,2.547c-1.868,0-3.253-1.06-3.253-2.577C112.235,175.224,113.063,174.458,113.967,173.987z
		 M115.519,177.757c0.918,0,1.581-0.53,1.581-1.399c0-1.016-1.009-1.384-2.304-1.899c-0.603,0.427-1.039,1.031-1.039,1.752
		C113.756,177.138,114.54,177.757,115.519,177.757z M116.919,171.882c0-0.825-0.527-1.428-1.416-1.428
		c-0.738,0-1.311,0.471-1.311,1.281c0,0.942,0.858,1.355,1.928,1.767C116.633,173.001,116.919,172.471,116.919,171.882z"/>
	<path fill="#5B5B5B" d="M121.647,174.694c0-2.165-0.527-4.359-1.657-6.244l1.084-0.471c1.25,2.003,1.988,4.123,1.988,6.715
		c0,2.591-0.738,4.712-1.988,6.714l-1.084-0.471C121.12,179.053,121.647,176.859,121.647,174.694z"/>
</g>
<g>
	<path fill="#5B5B5B" d="M201.25,207.977c0.708,0.647,1.656,1.089,2.56,1.089c1.115,0,1.718-0.486,1.718-1.237
		c0-0.795-0.633-1.045-1.521-1.414l-1.355-0.574c-0.964-0.397-1.988-1.148-1.988-2.562c0-1.532,1.386-2.709,3.313-2.709
		c1.145,0,2.259,0.471,3.027,1.222l-0.889,1.089c-0.633-0.515-1.295-0.824-2.139-0.824c-0.934,0-1.551,0.427-1.551,1.134
		c0,0.751,0.753,1.031,1.565,1.354l1.341,0.545c1.16,0.486,1.988,1.208,1.988,2.606c0,1.561-1.325,2.856-3.539,2.856
		c-1.326,0-2.621-0.516-3.555-1.414L201.25,207.977z"/>
	<path fill="#5B5B5B" d="M212.996,205.753c-0.016-0.766-0.347-1.414-1.341-1.414c-0.737,0-1.431,0.324-2.078,0.707l-0.633-1.134
		c0.813-0.5,1.853-0.942,3.027-0.942c1.853,0,2.756,1.104,2.756,3.122v4.285h-1.415l-0.136-0.795h-0.045
		c-0.663,0.544-1.416,0.972-2.289,0.972c-1.296,0-2.199-0.854-2.199-2.121C208.644,206.887,209.969,206.077,212.996,205.753z
		 M211.385,209.229c0.603,0,1.069-0.294,1.611-0.795v-1.62c-2.003,0.25-2.666,0.766-2.666,1.487
		C210.33,208.949,210.767,209.229,211.385,209.229z"/>
	<path fill="#5B5B5B" d="M216.837,203.147h1.431l0.12,0.972h0.061c0.663-0.633,1.416-1.149,2.425-1.149
		c1.581,0,2.274,1.046,2.274,2.872v4.535h-1.732v-4.314c0-1.192-0.347-1.634-1.159-1.634c-0.648,0-1.069,0.309-1.688,0.898v5.051
		h-1.731V203.147z"/>
	<path fill="#5B5B5B" d="M225.525,204.487h-1.055v-1.266l1.145-0.074l0.211-1.973h1.446v1.973h1.883v1.34h-1.883v3.446
		c0,0.854,0.331,1.266,1.039,1.266c0.256,0,0.558-0.073,0.769-0.162l0.301,1.251c-0.406,0.132-0.919,0.265-1.506,0.265
		c-1.717,0-2.35-1.06-2.35-2.621V204.487z"/>
	<path fill="#5B5B5B" d="M230.51,200.924c0-0.574,0.452-0.972,1.069-0.972c0.618,0,1.069,0.398,1.069,0.972
		c0,0.56-0.451,0.957-1.069,0.957C230.962,201.881,230.51,201.483,230.51,200.924z M230.706,203.147h1.731v7.23h-1.731V203.147z"/>
	<path fill="#5B5B5B" d="M238.688,205.753c-0.016-0.766-0.347-1.414-1.341-1.414c-0.737,0-1.431,0.324-2.078,0.707l-0.633-1.134
		c0.813-0.5,1.853-0.942,3.027-0.942c1.853,0,2.756,1.104,2.756,3.122v4.285h-1.415l-0.136-0.795h-0.045
		c-0.663,0.544-1.416,0.972-2.289,0.972c-1.296,0-2.199-0.854-2.199-2.121C234.335,206.887,235.66,206.077,238.688,205.753z
		 M237.076,209.229c0.603,0,1.069-0.294,1.611-0.795v-1.62c-2.003,0.25-2.666,0.766-2.666,1.487
		C236.021,208.949,236.458,209.229,237.076,209.229z"/>
	<path fill="#5B5B5B" d="M243.084,210.141v-0.059c-0.376-0.236-0.662-0.619-0.662-1.208c0-0.56,0.392-1.045,0.813-1.34v-0.059
		c-0.497-0.368-0.964-1.06-0.964-1.914c0-1.664,1.37-2.592,2.921-2.592c0.407,0,0.783,0.074,1.085,0.177h2.65v1.252h-1.355
		c0.241,0.28,0.422,0.721,0.422,1.222c0,1.605-1.235,2.459-2.802,2.459c-0.315,0-0.678-0.059-1.009-0.191
		c-0.226,0.191-0.361,0.368-0.361,0.692c0,0.412,0.302,0.663,1.205,0.663h1.311c1.776,0,2.71,0.53,2.71,1.782
		c0,1.428-1.536,2.547-3.945,2.547c-1.762,0-3.072-0.619-3.072-1.885C242.03,211.083,242.406,210.554,243.084,210.141z
		 M245.374,212.468c1.189,0,2.003-0.545,2.003-1.163c0-0.56-0.467-0.722-1.311-0.722h-1.009c-0.407,0-0.724-0.029-1.01-0.103
		c-0.392,0.294-0.572,0.619-0.572,0.957C243.476,212.085,244.199,212.468,245.374,212.468z M246.473,205.562
		c0-0.898-0.557-1.428-1.28-1.428c-0.723,0-1.295,0.515-1.295,1.428c0,0.928,0.572,1.458,1.295,1.458
		C245.9,207.02,246.473,206.49,246.473,205.562z"/>
	<path fill="#5B5B5B" d="M253.146,202.97c1.852,0,3.523,1.384,3.523,3.799c0,2.4-1.672,3.784-3.523,3.784
		c-1.838,0-3.51-1.384-3.51-3.784C249.636,204.354,251.308,202.97,253.146,202.97z M253.146,209.169c1.084,0,1.747-0.957,1.747-2.4
		c0-1.458-0.663-2.415-1.747-2.415c-1.085,0-1.732,0.957-1.732,2.415C251.413,208.212,252.061,209.169,253.146,209.169z"/>
	<path fill="#5B5B5B" d="M261.532,206.284c0-2.592,0.738-4.712,1.988-6.715l1.085,0.471c-1.13,1.885-1.657,4.079-1.657,6.244
		s0.527,4.358,1.657,6.243l-1.085,0.471C262.271,210.996,261.532,208.875,261.532,206.284z"/>
	<path fill="#5B5B5B" d="M266.894,208.463c0.361,0.412,0.949,0.707,1.536,0.707c1.205,0,2.184-0.869,2.259-3.46
		c-0.557,0.678-1.4,1.09-2.093,1.09c-1.642,0-2.786-0.942-2.786-2.901c0-1.87,1.37-3.062,3.012-3.062
		c1.867,0,3.464,1.414,3.464,4.564c0,3.637-1.792,5.154-3.765,5.154c-1.146,0-1.988-0.471-2.561-1.06L266.894,208.463z
		 M270.644,204.487c-0.181-1.649-0.873-2.355-1.808-2.355c-0.783,0-1.431,0.633-1.431,1.767c0,1.104,0.558,1.679,1.521,1.679
		C269.469,205.577,270.116,205.268,270.644,204.487z"/>
	<path fill="#5B5B5B" d="M274.619,208.463c0.361,0.412,0.949,0.707,1.536,0.707c1.205,0,2.184-0.869,2.259-3.46
		c-0.557,0.678-1.4,1.09-2.093,1.09c-1.642,0-2.786-0.942-2.786-2.901c0-1.87,1.37-3.062,3.012-3.062
		c1.867,0,3.464,1.414,3.464,4.564c0,3.637-1.792,5.154-3.765,5.154c-1.146,0-1.988-0.471-2.561-1.06L274.619,208.463z
		 M278.369,204.487c-0.181-1.649-0.873-2.355-1.808-2.355c-0.783,0-1.431,0.633-1.431,1.767c0,1.104,0.558,1.679,1.521,1.679
		C277.194,205.577,277.842,205.268,278.369,204.487z"/>
	<path fill="#5B5B5B" d="M283.008,206.284c0-2.165-0.527-4.359-1.657-6.244l1.085-0.471c1.25,2.003,1.987,4.123,1.987,6.715
		c0,2.591-0.737,4.712-1.987,6.714l-1.085-0.471C282.48,210.642,283.008,208.448,283.008,206.284z"/>
</g>
<g>
	<path fill="#5B5B5B" d="M176.877,145.734c0.708,0.647,1.656,1.089,2.56,1.089c1.115,0,1.718-0.486,1.718-1.237
		c0-0.795-0.633-1.045-1.521-1.414l-1.355-0.574c-0.964-0.397-1.988-1.148-1.988-2.562c0-1.532,1.386-2.709,3.313-2.709
		c1.145,0,2.259,0.471,3.027,1.222l-0.889,1.089c-0.633-0.515-1.295-0.824-2.139-0.824c-0.934,0-1.551,0.427-1.551,1.134
		c0,0.751,0.753,1.031,1.565,1.354l1.341,0.545c1.16,0.486,1.988,1.208,1.988,2.606c0,1.561-1.325,2.856-3.539,2.856
		c-1.326,0-2.621-0.516-3.555-1.414L176.877,145.734z"/>
	<path fill="#5B5B5B" d="M188.623,143.51c-0.016-0.766-0.347-1.414-1.341-1.414c-0.737,0-1.431,0.324-2.078,0.707l-0.633-1.134
		c0.813-0.5,1.853-0.942,3.027-0.942c1.853,0,2.756,1.104,2.756,3.122v4.285h-1.415l-0.136-0.795h-0.045
		c-0.663,0.544-1.416,0.972-2.289,0.972c-1.296,0-2.199-0.854-2.199-2.121C184.271,144.644,185.596,143.834,188.623,143.51z
		 M186.726,137.856c0.783,0,1.28,0.707,1.747,0.707c0.271,0,0.437-0.221,0.542-0.707h0.919c-0.121,1.119-0.633,1.782-1.401,1.782
		c-0.783,0-1.265-0.707-1.747-0.707c-0.271,0-0.437,0.221-0.542,0.707h-0.919C185.445,138.519,185.957,137.856,186.726,137.856z
		 M187.012,146.985c0.603,0,1.069-0.294,1.611-0.795v-1.62c-2.003,0.25-2.666,0.766-2.666,1.487
		C185.957,146.706,186.394,146.985,187.012,146.985z"/>
	<path fill="#5B5B5B" d="M195.491,140.727c1.852,0,3.523,1.384,3.523,3.799c0,2.4-1.672,3.784-3.523,3.784
		c-1.838,0-3.51-1.384-3.51-3.784C191.981,142.111,193.653,140.727,195.491,140.727z M195.491,146.926
		c1.084,0,1.747-0.957,1.747-2.4c0-1.458-0.663-2.415-1.747-2.415c-1.085,0-1.732,0.957-1.732,2.415
		C193.759,145.969,194.406,146.926,195.491,146.926z"/>
	<path fill="#5B5B5B" d="M203.969,138.504h3.313c2.153,0,3.75,0.736,3.75,2.974c0,2.135-1.627,3.122-3.75,3.122h-1.566v3.534h-1.747
		V138.504z M207.146,143.23c1.461,0,2.169-0.574,2.169-1.752c0-1.207-0.738-1.605-2.169-1.605h-1.431v3.357H207.146z"/>
	<path fill="#5B5B5B" d="M216.197,143.51c-0.016-0.766-0.347-1.414-1.341-1.414c-0.737,0-1.431,0.324-2.078,0.707l-0.633-1.134
		c0.813-0.5,1.853-0.942,3.027-0.942c1.853,0,2.756,1.104,2.756,3.122v4.285h-1.415l-0.136-0.795h-0.045
		c-0.663,0.544-1.416,0.972-2.289,0.972c-1.296,0-2.199-0.854-2.199-2.121C211.845,144.644,213.17,143.834,216.197,143.51z
		 M214.586,146.985c0.603,0,1.069-0.294,1.611-0.795v-1.62c-2.003,0.25-2.666,0.766-2.666,1.487
		C213.531,146.706,213.968,146.985,214.586,146.985z"/>
	<path fill="#5B5B5B" d="M219.962,140.904h1.731v4.314c0,1.193,0.347,1.634,1.145,1.634c0.647,0,1.085-0.294,1.642-1.001v-4.948
		h1.732v7.23h-1.416l-0.136-1.06h-0.045c-0.647,0.751-1.37,1.237-2.38,1.237c-1.581,0-2.273-1.045-2.273-2.872V140.904z"/>
	<path fill="#5B5B5B" d="M228.41,137.738h1.731v8.628c0,0.413,0.196,0.56,0.377,0.56c0.075,0,0.136,0,0.271-0.029l0.227,1.266
		c-0.211,0.088-0.513,0.147-0.919,0.147c-1.235,0-1.687-0.78-1.687-2.032V137.738z"/>
	<path fill="#5B5B5B" d="M235.519,140.727c1.852,0,3.523,1.384,3.523,3.799c0,2.4-1.672,3.784-3.523,3.784
		c-1.838,0-3.51-1.384-3.51-3.784C232.009,142.111,233.681,140.727,235.519,140.727z M235.519,146.926
		c1.084,0,1.747-0.957,1.747-2.4c0-1.458-0.663-2.415-1.747-2.415c-1.085,0-1.732,0.957-1.732,2.415
		C233.786,145.969,234.434,146.926,235.519,146.926z"/>
	<path fill="#5B5B5B" d="M243.905,144.041c0-2.592,0.738-4.712,1.988-6.715l1.085,0.471c-1.13,1.885-1.657,4.079-1.657,6.244
		s0.527,4.358,1.657,6.243l-1.085,0.471C244.644,148.752,243.905,146.632,243.905,144.041z"/>
	<path fill="#5B5B5B" d="M249.268,146.22c0.361,0.412,0.949,0.707,1.536,0.707c1.205,0,2.184-0.869,2.259-3.46
		c-0.557,0.678-1.4,1.09-2.093,1.09c-1.642,0-2.786-0.942-2.786-2.901c0-1.87,1.37-3.062,3.012-3.062
		c1.867,0,3.464,1.414,3.464,4.564c0,3.637-1.792,5.154-3.765,5.154c-1.146,0-1.988-0.471-2.561-1.06L249.268,146.22z
		 M253.018,142.244c-0.181-1.649-0.873-2.355-1.808-2.355c-0.783,0-1.431,0.633-1.431,1.767c0,1.104,0.558,1.679,1.521,1.679
		C251.843,143.333,252.49,143.024,253.018,142.244z"/>
	<path fill="#5B5B5B" d="M257.7,143.333v-0.059c-0.738-0.515-1.325-1.207-1.325-2.194c0-1.517,1.234-2.488,2.892-2.488
		c1.717,0,2.816,1.016,2.816,2.533c0,0.927-0.663,1.708-1.28,2.149v0.059c0.889,0.486,1.656,1.178,1.656,2.43
		c0,1.443-1.295,2.547-3.238,2.547c-1.867,0-3.253-1.06-3.253-2.577C255.968,144.57,256.797,143.805,257.7,143.333z
		 M259.251,147.103c0.919,0,1.582-0.53,1.582-1.399c0-1.016-1.01-1.384-2.305-1.899c-0.603,0.427-1.039,1.031-1.039,1.752
		C257.489,146.485,258.272,147.103,259.251,147.103z M260.652,141.228c0-0.825-0.527-1.428-1.416-1.428
		c-0.738,0-1.311,0.471-1.311,1.281c0,0.942,0.858,1.355,1.928,1.767C260.365,142.347,260.652,141.817,260.652,141.228z"/>
	<path fill="#5B5B5B" d="M265.381,144.041c0-2.165-0.527-4.359-1.657-6.244l1.085-0.471c1.25,2.003,1.987,4.123,1.987,6.715
		c0,2.591-0.737,4.712-1.987,6.714l-1.085-0.471C264.854,148.399,265.381,146.205,265.381,144.041z"/>
</g>
</svg>
