<?xml version="1.0" encoding="utf-8"?>
<!-- Generator: Adobe Illustrator 16.0.0, SVG Export Plug-In . SVG Version: 6.00 Build 0)  -->
<!DOCTYPE svg PUBLIC "-//W3C//DTD SVG 1.1//EN" "http://www.w3.org/Graphics/SVG/1.1/DTD/svg11.dtd">
<svg version="1.1" id="Layer_1" xmlns="http://www.w3.org/2000/svg" xmlns:xlink="http://www.w3.org/1999/xlink" x="0px" y="0px"
	 width="305.783px" height="305.119px" viewBox="0 0 305.783 305.119" enable-background="new 0 0 305.783 305.119"
	 xml:space="preserve">
<g>
	<rect x="0.664" fill="#ECE2D9" width="305.119" height="305.119"/>
	<g>
		<path fill="none" stroke="#FFFFFF" stroke-width="8" stroke-linecap="round" stroke-linejoin="round" stroke-miterlimit="10" d="
			M296.415,70.367"/>
	</g>
	<polygon fill="#CCDCA1" points="202.5,141.815 217.155,174.863 236.848,174.863 230.275,145.271 222.21,131.104 	"/>
	<g>
		<g>
			<path fill="#FEF4F1" d="M1.957,166.46c0.543-0.896,0.257-2.062-0.639-2.606l-0.654-0.396v3.884
				C1.183,167.25,1.662,166.947,1.957,166.46z"/>
			<path fill="#FEF4F1" d="M216.472,278.667c0.731-0.061,1.471-0.122,2.222-0.184c1.83-0.15,3.721-0.307,5.662-0.47l4.833,27.44
				h3.852l-4.889-27.764c5.123-0.442,11.182-0.877,17.576-1.289l1.67,5.455l-7.256,0.508c-1.053,0.072-1.834,0.979-1.76,2.025
				c0.072,1.045,0.979,1.833,2.025,1.76l9.577-0.669c0.037-0.002,0.093-0.002,0.11-0.008l5.735-0.401l1.724,14.38l-16.849,1.571
				c-0.003,0-0.006,0-0.009,0c-1.039,0.102-1.801,1.024-1.705,2.064c0.098,1.043,1.022,1.811,2.066,1.713l8.166-0.761l0.15,1.416
				h3.816l-0.188-1.769l6.843-0.638c0.003,0,0.006-0.001,0.008-0.001c0.507-0.049,0.973-0.3,1.292-0.696
				c0.321-0.398,0.468-0.91,0.408-1.418l-2.17-18.106c-0.12-1.004-1.007-1.737-2.016-1.667l-6.085,0.426l-1.662-5.429
				c9.211-0.569,18.849-1.085,27.205-1.504l-0.134,2.885l-10.741-0.496c-0.526-0.022-1.041,0.172-1.417,0.542
				s-0.582,0.879-0.567,1.407l0.126,4.507c0.029,1.047,0.901,1.873,1.949,1.843c0.045-0.001,0.089-0.004,0.134-0.008
				c0.982-0.096,1.738-0.938,1.71-1.941l-0.069-2.465l10.598,0.489c0.502,0.023,0.993-0.154,1.365-0.494
				c0.371-0.338,0.594-0.812,0.617-1.314l0.236-5.144c9.717-0.476,17.102-0.795,18.987-0.875c2.102,0.498,4.146,0.947,6.163,1.354
				v-6.89c-1.656-0.347-3.334-0.724-5.053-1.135c-0.303-0.072-0.614-0.102-0.926-0.089c-0.115,0.005-2.998,0.126-7.646,0.337
				l0.062-46.635l9.91,0.458c0.86,0.12,2.151,0.289,3.653,0.484v-3.826c-1.33-0.173-2.458-0.322-3.218-0.429
				c-0.057-0.007-0.115-0.013-0.174-0.016l-11.956-0.552c-0.014,0-0.029-0.001-0.043-0.002l-7.076-0.327l0.404-8.743
				c0.001-0.017,0.002-0.033,0.002-0.05l0.473-10.233l16.919,4.013c0.558,0.132,1.146,0.005,1.6-0.346
				c0.454-0.352,0.724-0.89,0.735-1.463l0.299-15.559l0.055,0.006c0.026,0.003,0.053,0.005,0.081,0.007l1.074,0.071
				c0.266,0.018,0.542,0.036,0.825,0.055v-4.226c-0.185-0.012-0.37-0.025-0.547-0.037l-1.032-0.068l-0.374-0.04l0.031-1.605
				c0.001-0.048,0.001-0.098-0.002-0.147c-0.002-0.064-0.008-0.127-0.017-0.188l-7.053-56.541c4.679-0.545,8.382-0.501,8.447-0.501
				c0.054,0.001,0.106,0,0.16-0.004l0.386-0.031v-3.384l-0.575,0.046c-1.188-0.012-12.808-0.04-21.341,3.475
				c-5.009,2.062-11.397,2.193-17.064,1.765c-0.306-0.187-0.667-0.291-1.053-0.277c-0.218,0.007-0.422,0.059-0.614,0.134
				c-2.94-0.281-5.616-0.683-7.703-0.997c-1.153-0.174-2.148-0.323-2.973-0.423c-3.231-0.393-5.56,0.37-7.095,1.251
				c-0.458-2.062-1.031-3.703-1.563-4.938c17.367-9.191,42.209-17.425,59.981-22.712v-7.068
				c-17.028,4.992-41.388,12.917-59.774,22.092l-6.627-13.383c18.171-10.247,55.515-34.12,57.403-35.328
				c0.883-0.565,1.141-1.738,0.576-2.621c-0.564-0.882-1.737-1.141-2.621-0.575c-0.456,0.292-37.849,24.196-56.303,34.707
				l-3.1-14.793l10.737,0.496c0.819,0.039,1.505-0.592,1.542-1.406c0.038-0.813-0.592-1.504-1.406-1.542l-11.497-0.53L231.5,59.338
				c4.038-1.096,11.833-1.441,22.671-0.997c0.176,0.093,0.376,0.151,0.588,0.166l20.479,1.367c0.803,0.054,1.498-0.545,1.568-1.345
				c0.069-0.801-0.514-1.51-1.312-1.596c-0.092-0.009-8.996-0.959-19.086-1.447l0.143-3.102l5.011,0.032
				c0.816,0.008,1.48-0.651,1.485-1.465c0.006-0.815-0.651-1.48-1.466-1.485l-8.962-0.059c-0.789-0.008-1.441,0.609-1.483,1.396
				c-0.042,0.787,0.541,1.468,1.325,1.547l1.131,0.115l-0.133,2.893c-11.297-0.428-19.126,0.005-23.29,1.287
				c-0.051,0.016-0.109,0.032-0.163,0.048l-10.775-6.222l5.956-10.106c2.807,0.685,5.604,1.229,8.249,1.537
				c18.624,2.167,22.637,2.232,23.862,0.39c1.023-1.542,3.222-9.337,0.354-12.482c-3.101-3.4-5.309-1.462-5.4-1.378
				c-0.604,0.548-0.647,1.482-0.1,2.085c0.496,0.544,1.305,0.634,1.901,0.241c0.172,0.019,0.674,0.225,1.417,1.041
				c1.389,1.522,0.243,7.154-0.521,8.666c-1.498,0.491-7.738-0.026-13.671-0.651l2.732-19.656l42.494,5.058l-0.035,0.775
				c-0.022,0.487,0.167,0.963,0.52,1.301c0.354,0.337,0.836,0.511,1.32,0.467l16.929-1.552c0.003,0,0.007-0.001,0.009-0.001
				c0.191-0.019,0.37-0.075,0.535-0.152v-3.075c-0.232-0.109-0.488-0.172-0.763-0.163l-12.977,0.465l-2.715-9.852
				c-0.177-0.641-0.712-1.118-1.368-1.219l-43.312-6.692c-0.188-0.1-0.396-0.167-0.62-0.19l-14.36-1.503l0.16-3.491h-3.376
				l-0.138,2.978l-8.629-0.74c-0.351-0.03-0.685,0.051-0.97,0.211l-7.903-2.449h-18.744l13,1.482l-2.534,26.727
				c-6.081-1.572-20.428-2.613-26.007-2.97c0.825-8.663,1.667-17.859,2.331-25.239h-6.773c-0.543,6.021-1.197,13.177-1.86,20.236
				l-0.22-0.224c-0.201-0.205-0.456-0.346-0.736-0.407l-12.009-2.637c-0.779-0.17-1.554,0.309-1.748,1.083l-4.45,17.713
				c-4.674-0.353-8.048-0.616-9.047-0.714c-0.09-0.008-0.179-0.013-0.268-0.019l2.332-9.752l1.967,0.338
				c0.738,0.127,1.452-0.316,1.666-1.033l7.312-24.583h-3.079l-1.933,6.498l-31.962-3.005l0.393-3.493h-2.121l-0.37,3.296
				l-1.954-0.184c-0.772-1.084-1.51-2.118-2.222-3.112h-8.306c0.36,0.5,0.728,1.011,1.107,1.539
				c-0.796-0.163-1.598-0.328-2.396-0.493l0.196-1.046h-2.145l-0.117,0.619c-1.014-0.211-2.006-0.418-2.957-0.619H84.189
				c-0.622,1.346-1.387,3.788-2.418,8.416c-0.602,2.697-1.115,5.358-1.413,6.95l-9.46-1.917c1.293-4.543,2.795-9.096,4.61-13.448
				H68.24c-0.396,1.029-0.779,2.064-1.146,3.104c-2.133-0.751-5.271-1.858-8.806-3.104h-8.872c6.49,2.29,13.092,4.616,16.729,5.899
				c-2.513,7.685-4.307,15.489-5.88,22.55L29.812,18.194c-0.172-0.199-0.4-0.355-0.667-0.44l-5.892-1.879
				c0.588-1.152,1.163-2.383,1.717-3.691c2.01-4.75,3.32-8.774,4.291-11.851h-3.096c-0.923,2.889-2.144,6.517-3.914,10.701
				C17.884,21.362,11.99,26.454,10.332,27.74l-0.509,0.374c-0.646,0.475-0.794,1.377-0.336,2.034
				c0.459,0.657,1.357,0.828,2.025,0.385c0.054-0.035,0.311-0.209,0.728-0.533l4.685-3.446l7.358,4.113L10.236,67.916l-9.572,4.291
				v3.234l11.34-5.083c0.358-0.161,0.639-0.458,0.777-0.826l14.613-38.753c0.081-0.131,0.148-0.271,0.185-0.424l2.135-9.071
				L59.62,31.683c-1.309,5.876-2.565,11.383-4.015,15.639c-4.891,14.37-16.464,36.824-17.268,38.376
				c-0.644,1.083-7.312,12.266-14.667,23.972L0.664,96.759v4.352l20.979,11.771c-4.004,6.31-8.064,12.517-11.35,17.126
				c-3.217-1.278-6.455-2.438-9.629-3.495v7.125c1.8,0.621,3.61,1.274,5.414,1.965c-1.654,2.098-3.495,4.352-5.414,6.667v12.137
				l14.521,6.519c0.312,0.14,0.642,0.189,0.96,0.158c0.655-0.063,1.259-0.468,1.548-1.112c0.43-0.956,0.002-2.079-0.954-2.508
				l-14.525-6.521c3.705-4.419,7.374-8.835,10.345-12.677c7.794,3.456,15.031,7.671,20.164,12.85
				c0.831,0.838,1.689,1.707,2.568,2.598l-7.566,6.632c-0.14-0.008-0.28-0.001-0.418,0.032c-0.39,0.093-0.725,0.34-0.928,0.685
				l-7.391,12.521c-0.579-0.421-1.315-0.897-2.174-1.33c-2.469-1.247-9.993-0.582-11.709,0.721
				c-0.474,0.359-1.053,0.903-1.723,1.535c-0.777,0.731-1.828,1.72-2.719,2.371v3.369c1.533-0.574,3.234-2.172,4.741-3.591
				c0.583-0.549,1.135-1.067,1.47-1.323c0.984-0.635,7.104-1.207,8.609-0.446c1.727,0.872,2.854,1.967,2.862,1.975
				c0.323,0.32,0.769,0.475,1.228,0.415c0.451-0.058,0.851-0.321,1.082-0.713l7.488-12.688c0.436,0.277,0.961,0.611,1.535,0.976
				c-5.049,6.859-9.688,16.758-11.809,22.066c-2.035,5.089-2.907,8.171-3.254,9.601l-3.319,1.346l-10.634-0.099v3.795l5.566,0.051
				c-1.515,3.86-3.528,8.602-5.566,12.873v7.369c3.886-6.868,7.799-16.673,8.965-19.673l1.295-0.525l3.01,0.028l54.799,8.514
				c0.194,0.033,0.395,0.036,0.595,0.005c0.196-0.028,0.384-0.088,0.559-0.173l13.68-6.504c0.489,1.41,1.202,3.897,1.573,7.228
				l-4.355-0.202c-1.048-0.048-1.934,0.761-1.982,1.808c-0.048,1.046,0.761,1.934,1.808,1.983l4.771,0.22
				c0.027,1.868-0.066,3.994-0.371,6.339l-17.034,5.079l-1.597-2.237c-0.608-0.853-1.793-1.05-2.646-0.442
				c-0.853,0.608-1.051,1.793-0.441,2.646l2.353,3.297c0.021,0.03,0.04,0.059,0.062,0.087l10.248,14.361
				c-0.427,0.515-0.872,1.015-1.332,1.498l-17.947-25.268c-0.607-0.854-1.792-1.055-2.646-0.448
				c-0.854,0.607-1.055,1.792-0.448,2.646l18.229,25.666c-8.473,6.932-20.511,9.817-29.56,11.013l2.244-8.575l4.093-6.469
				c0.336-0.531,0.387-1.195,0.136-1.771l-5.816-13.361c-0.419-0.962-1.539-1.402-2.497-0.983c-0.961,0.419-1.401,1.537-0.982,2.497
				l5.415,12.439l-3.036,4.799l-8.42-1.44l-4.566-10.452c-0.42-0.96-1.538-1.398-2.498-0.979s-1.398,1.538-0.979,2.498l4.901,11.218
				l-20.757,0.143c-1.055,0.007-1.891,0.862-1.884,1.91c0.007,1.048,0.862,1.892,1.91,1.884l22.009-0.151
				c1.051-0.007,1.891-0.863,1.884-1.91c0-0.106-0.01-0.21-0.026-0.312l6.995,1.197l-2.163,8.268
				c-5.043,0.457-8.462,0.382-8.574,0.379c-1.051-0.027-1.92,0.795-1.951,1.843c-0.029,1.047,0.795,1.92,1.842,1.951
				c0.303,0.009,5.711,0.147,13.111-0.819l-0.341,7.368c-0.002,0.029-0.003,0.058-0.003,0.087l-0.755,16.34l-5.759-0.265
				c-1.045-0.048-1.934,0.761-1.982,1.808c-0.048,1.047,0.761,1.934,1.808,1.983l20.017,0.923c-2.141,2.573-3.116,4.894-3.397,5.642
				c-7.01-2.115-14.34-3.743-23.052-0.475c-0.084-0.074-0.173-0.144-0.272-0.203L0.664,278.849v4.427l24.323,14.613
				c-8.972,4.334-17.095,6.305-24.323,6.975v0.588h24.039c1.412-0.619,2.829-1.281,4.253-1.991
				c8.847-4.411,15.793-2.245,23.836,0.264c1.88,0.586,3.835,1.193,5.873,1.727h21.801c3.815-0.933,7.721-2.137,11.538-3.315
				c12.479-3.852,24.265-7.489,28.986-0.874c1.021,1.431,2.054,2.827,3.088,4.189h9.212c0.651-1.026,1.373-2.079,2.191-3.161
				c0.9-1.19,1.992-2.476,3.049-3.72c1.665-1.961,3.239-3.814,4.364-5.588c0.148-0.233,0.293-0.465,0.434-0.699
				c4.911-0.13,11.062-0.583,17.086-1.564l2.808,14.732h3.863l-2.938-15.417c1.229-0.251,2.438-0.528,3.619-0.831l3.628,16.248
				h3.888l-3.863-17.305c1.975-0.647,3.812-1.385,5.441-2.225c5.076-2.619,11.297-4.118,19.142-5.208l3.119,13.276
				c0.004,0.015,0.008,0.03,0.011,0.045l2.682,11.416h3.897l-2.544-10.833l6.346-3.116c0.94-0.462,1.328-1.599,0.867-2.54
				c-0.462-0.941-1.598-1.329-2.539-0.867l-5.564,2.732l-2.489-10.597c3.06-0.358,6.345-0.677,9.884-0.989
				c1.943,8.023,4.301,17.6,6.43,26.209h6.951C220.907,296.791,218.484,286.954,216.472,278.667z M245.386,10.258l0.165-1.188
				l40.815,6.307l1.83,6.641l-43.128-5.131L245.386,10.258z M25.154,27.772l-6.961-3.892c1.168-1.498,2.396-3.272,3.609-5.348
				l5.107,1.776L25.154,27.772z M236.603,209.915c-0.423,0.834-0.823,1.622-1.173,2.37c-2.872,6.145-1.625,18.657-1.508,19.759
				l0.06,1.229l-6.581,1.547l-1.373-59.071l17.64,1.859c0.1,14.125-2.49,22.396-5.004,28.05l-2.618-1.373
				c-0.722-0.379-1.604-0.255-2.192,0.308l-4.775,4.563c-0.757,0.724-0.784,1.926-0.06,2.683c0.724,0.758,1.926,0.785,2.682,0.061
				l3.789-3.621l1.536,0.805C236.881,209.368,236.741,209.645,236.603,209.915z M166.192,261.323l0.582,3.003
				c-0.339,0.107-0.678,0.216-1.015,0.326c-8.525,2.756-12.85,1.887-14.977,0.671c-1.71-0.979-2.249-2.363-2.379-2.788
				c0.356-0.456,2.266-2.353,10.047-3.639c12.3-2.031,33.831-8.25,41.507-10.521c1.192,2.513,2.287,4.867,3.194,6.933
				c-6.464,1.234-19.563,3.945-32.73,7.892l-0.504-2.6c-0.199-1.028-1.195-1.701-2.224-1.5
				C166.665,259.299,165.993,260.294,166.192,261.323z M45.367,163.92l-3.445,1.317c-0.327,0.125-0.599,0.362-0.767,0.668
				c-0.006,0.01-0.57,0.958-1.409,1.18c-0.459,0.121-0.964,0.005-1.546-0.354c-0.92-0.565-2.335-1.454-3.804-2.382
				c0.643-0.731,1.28-1.386,1.906-1.935c1.273-1.117,2.609-2.38,3.928-3.683C41.964,160.492,43.677,162.222,45.367,163.92z
				 M41.853,150.766l4.423-3.875l0.231,0.244c-0.926,1.043-2.321,2.597-3.951,4.344C42.32,151.24,42.086,151.002,41.853,150.766z
				 M44.926,153.888c1.587-1.697,2.957-3.22,3.913-4.296l3.594,3.786l-4.36,3.7C46.998,155.991,45.947,154.926,44.926,153.888z
				 M55.049,156.136l0.421,0.443l-3.94,3.982c-0.26-0.261-0.519-0.521-0.777-0.781L55.049,156.136z M64.429,90.453l9.455,0.436
				c0.29,0.552,0.561,1.053,0.793,1.479c0.217,0.703,0.989,3.15,2.317,6.74l-3.163-2.274c-0.184-0.132-0.393-0.218-0.61-0.255
				L64.429,90.453z M67.303,96.053c-2.865-0.702-6.311-1.833-9.104-2.89l0.133-2.992l0.432,0.02c0.431,0.246,0.847,0.5,1.218,0.759
				L67.303,96.053z M73.601,80.727c3.828-0.893,6.608-1.394,7.858-1.604l4.526,6.337c0.011,0.014,0.023,0.027,0.034,0.041
				c0.044,0.058,0.092,0.111,0.144,0.162c0.01,0.01,0.018,0.022,0.028,0.032l3.259,2.998c0.312,0.288,0.751,0.421,1.156,0.381
				l6.88-0.738l-0.154,4.275c-0.011,0.288,0.045,0.575,0.161,0.838l9.305,20.975l-4.812,1.824c-1.447-3.667-2.836-7.047-3.397-7.979
				c-0.506-0.841-2.011-3.34-13.079,1.562c-4.746-10.46-7.231-18.665-7.257-18.75c-0.039-0.128-0.091-0.251-0.155-0.369
				C76.125,87.126,74.083,82.698,73.601,80.727z M74.013,77.602c0.764-3.243,2.012-8.072,2.165-8.665
				c1.202-0.064,2.426-0.129,3.669-0.192l0.588,7.557C79.13,76.528,76.921,76.943,74.013,77.602z M158.275,92.041
				c-0.814-0.038-1.505,0.592-1.542,1.406l-0.268,5.785l-0.61,10.198c-2.111-0.025-5.536-0.246-7.73-0.408l-0.178-3.069
				c4.331-0.119,4.721-0.783,5.016-1.283c0.554-0.941,0.842-5.403,0.855-13.271l17.166,0.105c-0.285,0.612-0.652,1.404-1.128,2.43
				c-1.997,4.303-0.507,15.622-0.008,18.963l-2.017,0.221c-0.042,0.002-0.082,0.007-0.122,0.013l-22.146,2.422
				c-1.632-3.362-3.171-6.527-4.585-9.434l4.053,0.538l0.223,3.825c0.043,0.734,0.62,1.326,1.354,1.385
				c0.334,0.027,8.206,0.659,10.737,0.487c0.758-0.054,1.329-0.643,1.374-1.384l0.693-11.581l0.269-5.804
				C159.718,92.769,159.089,92.078,158.275,92.041z M211.454,55.903l2.233,8.267c0.024,0.095,0.06,0.186,0.104,0.274l1.358,2.721
				l-4.831,1.502c-0.92-6.899-1.708-12.668-1.932-14.295l2.272-4.468l3.629,2.095l-2.458,2.48
				C211.459,54.853,211.316,55.396,211.454,55.903z M205.304,97.494l17.848-4.731l1.402,5.923l-37.075,12.126
				c-1.391-2.867-2.507-5.51-3.392-7.834L205.304,97.494z M183.079,100.19c-1.511-4.402-2.039-7.118-2.048-7.17
				c-0.028-0.146-0.064-0.292-0.111-0.434c-0.053-0.161-0.107-0.329-0.162-0.494l28.62-7.846c0.184,1.443,0.36,2.847,0.525,4.181
				c0.255,2.063,0.667,3.512,1.067,4.511l-6.414,1.701L183.079,100.19z M213.854,92.173c-0.313-0.681-0.756-1.953-1.022-4.109
				c-0.181-1.464-0.376-3.013-0.579-4.607l7.231-1.982l1.988-0.568l1.578,8.828L213.854,92.173z M218.688,78.633l-6.815,1.868
				c-0.379-2.938-0.775-5.96-1.16-8.866l5.772-1.794l4.116,8.246L218.688,78.633z M208.999,81.289l-29.177,7.999
				c-0.042-0.124-0.082-0.245-0.125-0.37c-1.116-3.325-2.409-7.174-3.617-11.288l31.751-5.27
				C208.22,75.295,208.619,78.339,208.999,81.289z M180.448,111.737l-7.663,0.838c-0.651-4.321-1.733-14.208-0.252-17.4l1.247-2.687
				c0.232,0.693,0.455,1.362,0.664,1.999C174.72,95.849,176.208,102.535,180.448,111.737z M182.202,115.362
				c1.008,1.989,2.136,4.067,3.399,6.211c6.378,10.817,8.084,18.592,8.52,21.391c-12.429,7.394-21.09,11.422-28.361,14.521
				c-6.257-13.117-12.799-26.674-18.438-38.308l19.444-2.126l10.023,24.357c0.326,0.792,1.127,1.246,1.938,1.167
				c0.182-0.019,0.362-0.062,0.539-0.135c0.969-0.398,1.431-1.508,1.032-2.477l-9.606-23.343L182.202,115.362z M173.468,244.21
				l0.829,4.268c-6.183,1.576-12.308,2.997-16.945,3.763c-1.273,0.209-2.458,0.447-3.573,0.707l-0.305-4.001L173.468,244.21z
				 M153.182,245.116l-0.383-5.022l19.054-4.206l0.891,4.594L153.182,245.116z M171.213,212.696
				c1.239-0.578,2.337-1.073,3.179-1.448l7.699,18.494l-7.257,1.602L171.213,212.696z M183.572,233.301l1.75,4.202l-8.882,2.104
				l-0.881-4.537L183.572,233.301z M188.369,240.681c0.541-0.128,0.999-0.487,1.252-0.984c0.253-0.496,0.276-1.078,0.062-1.591
				l-12.529-30.099c-0.195-0.467-0.567-0.837-1.035-1.028c-0.469-0.19-0.993-0.187-1.459,0.011c-0.172,0.073-2.174,0.927-4.892,2.19
				l-1.406-3.261c4.161-1.798,8.174-3.407,10.538-4.337c1.926,4.31,3.405,7.762,4.281,10.037c3.688,9.591,8.858,20.307,13.42,29.764
				c0.133,0.276,0.267,0.553,0.399,0.828c-4.217,1.238-11.448,3.319-19.023,5.313l-0.812-4.189L188.369,240.681z M177.798,182.978
				c-2.799-6.01-5.902-12.591-9.137-19.396c4.228-1.806,8.917-3.92,14.5-6.793l5.407,13.868c0.286,0.735,0.96,1.248,1.743,1.331
				l7.268,0.765c-0.16,0.035-0.318,0.084-0.472,0.163L177.798,182.978z M183.176,194.651c-1.157-2.55-2.425-5.307-3.777-8.229
				l7.916-4.125l1.272,2.223c0.521,0.91,1.681,1.225,2.59,0.704c0.909-0.521,1.224-1.68,0.703-2.589l-1.197-2.092l8.18-4.261
				c0.928-0.484,1.289-1.63,0.805-2.56c-0.204-0.392-0.528-0.675-0.901-0.844l13.077,1.378L183.176,194.651z M196.375,168.386
				l11.723-7.546l3.678,9.169L196.375,168.386z M191.638,166.923l-4.723-12.111c4.467-2.402,9.48-5.278,15.227-8.816l4.517,11.257
				L191.638,166.923z M118.032,136.128l-13.521,4.642c-1.426-1.761-2.957-3.722-4.595-5.916c-2.486-3.329-4.903-7.014-7.233-11.024
				l7.132-2.702c1.017,2.628,2.03,5.297,2.846,7.471c0.179,0.477,0.542,0.862,1.008,1.068c0.467,0.207,0.995,0.217,1.47,0.028
				l18.153-7.215c0.974-0.387,1.448-1.491,1.062-2.464s-1.491-1.45-2.463-1.062l-16.359,6.502c-0.537-1.422-1.317-3.474-2.166-5.673
				l6.654-2.521c0.487-0.185,0.878-0.562,1.078-1.043c0.201-0.481,0.195-1.024-0.017-1.501l-9.94-22.408l0.152-4.211l20.773-0.151
				c0.004,0.112,0.014,0.225,0.038,0.339l1.935,8.973l-4.787,0.573c-0.022,0.002-0.045,0.005-0.066,0.007l-8.085,0.967l-4.907-9.427
				c-0.484-0.93-1.631-1.291-2.56-0.807c-0.93,0.484-1.291,1.629-0.808,2.559l5.514,10.592c0.364,0.7,1.143,1.1,1.908,1.008
				l7.839-0.938l2.499,8.261l-6.975,3.08c-0.959,0.424-1.393,1.544-0.97,2.502c0.424,0.958,1.545,1.391,2.503,0.969l8.51-3.76
				c0.876-0.387,1.327-1.367,1.049-2.284l-2.791-9.227l2.931-0.35l3.731,17.309l-2.227,0.501c-0.562,0.127-1.037,0.503-1.29,1.021
				c-0.252,0.519-0.255,1.124-0.007,1.645l21.256,44.707c-0.473,0.253-0.945,0.504-1.429,0.773
				c-1.502,0.835-3.062,1.714-4.674,2.624l-19.937-32.633C119.804,136.173,118.876,135.838,118.032,136.128z M120.24,144.166
				l-8.065,5.382c-1.478-1.563-3.164-3.415-5.071-5.655l10.721-3.682L120.24,144.166z M102.08,67.918
				c8.834-0.173,16.761-0.076,21.623,0.535c-0.219,3.035-0.244,5.777-0.148,8.22l-21.851,1.921l0.464-10.036
				C102.177,68.335,102.141,68.121,102.08,67.918z M123.657,78.634c0.172,2.489,0.465,4.607,0.784,6.344l-23.039,0.168l0.207-4.497
				L123.657,78.634z M143.31,151.029l9.756-4.417c2.152,4.482,4.32,9.006,6.455,13.479c-3.408,1.416-6.57,2.756-9.835,4.348
				L143.31,151.029z M151.421,143.192l-9.741,4.409l-12.184-25.626l1.745-0.394c1.017-0.228,1.657-1.233,1.438-2.25l-5.731-26.581
				C130.023,99.037,140.364,120.21,151.421,143.192z M125.677,55.032c-0.201,1.027-0.412,2.115-0.633,3.272
				c-0.484,2.545-0.836,4.953-1.08,7.221c-8.747-1.053-25.975-0.611-41.32,0.119l0.33-11.056l0.229-4.953l5.405-29.256l31.4,6.361
				c3.593,5.442,5.547,8.996,6.513,12.062C127.955,43.351,127.193,47.255,125.677,55.032z M98.433,68.004
				c-0.031,0.122-0.051,0.249-0.057,0.379L97.598,85.25l-0.004,0.106l-6.637,0.712l-2.184-2.009l2.513-15.822
				C93.685,68.146,96.079,68.067,98.433,68.004z M88.28,68.355l-1.98,12.465l-2.864-4.01l-0.639-8.209
				C84.605,68.515,86.439,68.432,88.28,68.355z M95.55,110.627c0.544,1.118,1.643,3.809,2.886,6.966l-7.634,2.892
				c-1.258-2.309-2.486-4.712-3.686-7.21C90.668,111.735,94.25,110.608,95.55,110.627z M96.876,137.125
				c1.581,2.116,3.062,4.02,4.449,5.741l-14.705,14.758l-2.643-2.501c-0.011-0.01-0.021-0.021-0.032-0.03l-6.223-5.89l2.937-3.85
				c0.344-0.453,0.268-1.098-0.173-1.457l-3.199-2.607l12.373-15.111C91.985,130.146,94.395,133.803,96.876,137.125z
				 M80.034,156.615l-7.264,8.393l-3.935-4.146l6.574-8.624L80.034,156.615z M78.364,144.886l-2.181,2.859l-2.356-2.229l2.126-2.596
				L78.364,144.886z M73.87,150.78l-6.505,8.532l-6.817-7.184l1.133-3.987l4.352-4.78L73.87,150.78z M59.265,146.412
				c-0.154,0.169-0.267,0.371-0.329,0.59l-0.749,2.639l-3.396-3.577l6.629-7.066l1.714,1.622l0.709,0.761L59.265,146.412z
				 M57.503,158.721l5.719,6.025l-3.203,4.202c-2.153-2.088-4.301-4.205-6.402-6.3L57.503,158.721z M64.692,166.296l4.376,4.61
				c0.108,0.261,0.271,0.503,0.5,0.701c0.129,0.112,0.271,0.196,0.418,0.267l10.228,10.777c-0.653,1.023-0.971,2.169-1.058,3.348
				c-5.209-3.984-11.395-9.6-17.609-15.575L64.692,166.296z M75.395,167.773l7.397-8.547l2.562,2.424
				c0.748,0.708,1.923,0.69,2.649-0.039l15.748-15.803c3.754,4.449,6.694,7.443,8.904,9.693c3.349,3.41,4.405,4.559,4.337,6.022
				l-0.088,1.919c-7.165,1.407-23.118,9.561-31.432,14.95L75.395,167.773z M85.887,186.322c1.096-1.03,4.618-3.24,9.017-5.711
				l5.262,9.235c-4.803,1.68-8.833,2.467-11.43,1.793c-0.279-0.083-0.551-0.167-0.812-0.256c-0.259-0.094-0.527-0.201-0.804-0.321
				C86.235,189.194,85.667,187.076,85.887,186.322z M96.748,179.588c7.936-4.35,17.844-9.107,21.814-9.591
				c1.547,1.541,4.303,4.327,7.011,7.77c-7.914,4.326-16.335,8.644-23.399,11.344L96.748,179.588z M123.068,164.963l-0.376-0.374
				c-0.541-0.541-1.207-0.921-1.989-1.142l0.081-1.749c0.147-3.187-1.831-5.2-5.421-8.856c-0.166-0.169-0.336-0.342-0.511-0.52
				l7.367-4.917l14.681,24.029c-1.703,0.964-3.492,1.977-5.342,3.013C128.315,170.189,124.941,166.827,123.068,164.963z
				 M140.749,177.008c2.612-1.479,5.079-2.876,7.408-4.171c4.89-2.719,9.288-4.579,14.269-6.646
				c1.701,3.578,3.365,7.093,4.969,10.494l-28.43,11.543c-0.83-2.85-2.116-5.602-3.622-8.174
				C137.116,179.062,138.917,178.045,140.749,177.008z M168.292,178.595c1.215,2.582,2.39,5.092,3.514,7.504l-12.773,6.656
				l-1.919-5.119c-0.368-0.981-1.461-1.479-2.442-1.11c-0.981,0.368-1.479,1.461-1.11,2.442l2.672,7.127
				c0.191,0.508,0.591,0.91,1.098,1.105c0.278,0.106,0.573,0.145,0.863,0.117c0.239-0.023,0.475-0.093,0.692-0.206l14.521-7.566
				c1.418,3.063,2.738,5.938,3.932,8.571c-4.347,1.71-13.705,5.489-20.03,8.764c-2.973,1.54-10.491,2.344-15.228,2.667
				c-0.889-8.25-1.855-15.56-2.574-19.125c-0.008-0.042-0.02-0.085-0.027-0.127L168.292,178.595z M171.128,232.162l-18.619,4.111
				l-1.095-14.352c2.054-0.506,5.699-1.663,9.937-4.158c1.95-1.147,4.189-2.316,6.326-3.371L171.128,232.162z M202.677,238.451
				c-4.506-9.338-9.61-19.922-13.2-29.254c-0.956-2.487-2.589-6.285-4.71-11.02l31.766-22.601c0.279-0.199,0.487-0.464,0.622-0.761
				l5.067,0.534l0.982,42.229l-13.892,3.405c-1.019,0.25-1.641,1.277-1.392,2.294c0.25,1.018,1.278,1.64,2.294,1.391l13.079-3.205
				l0.332,14.245l-20.004,4.704C203.313,239.769,202.998,239.114,202.677,238.451z M216.043,170.458l-1.74-4.339l7.062-3.076
				c0.961-0.418,1.4-1.536,0.982-2.497c-0.419-0.961-1.537-1.401-2.497-0.981l-6.96,3.031l-7.477-18.638
				c4.865-3.061,10.227-6.575,16.183-10.641l7.546,14.344l3.295,14.652c0.005,0.028,0.011,0.056,0.018,0.083l2.256,10.029
				L216.043,170.458z M242.402,206.596c2.559-5.902,5.111-14.441,5.062-28.588l12.771,1.346l0.176,26.771L242.402,206.596z
				 M260.783,209.911l0.508,11.345l-23.889,0.827c0.133-3.116,0.539-6.206,1.466-8.19c0.324-0.692,0.71-1.454,1.119-2.26
				c0.195-0.385,0.397-0.782,0.604-1.194L260.783,209.911z M245.84,173.598c-0.057-0.01-0.115-0.014-0.173-0.019l-6.974-0.735
				l-2.048-9.108l8.905-0.374l1.304,10.343L245.84,173.598z M277.137,267.881c-11.634,0.581-25.879,1.355-38.048,2.202
				l-0.357-17.359c0-0.018-0.002-0.035-0.002-0.054l-0.65-13.311l6.097-0.703l-1.005,18.008c-0.059,1.046,0.742,1.941,1.789,2
				c0.099,0.006,0.196,0.003,0.292-0.006c0.915-0.09,1.654-0.835,1.708-1.783l1.041-18.66l8.635-0.995l-0.21,9.958
				c-0.021,1.048,0.81,1.915,1.857,1.937c0.077,0.002,0.151-0.001,0.227-0.008c0.943-0.092,1.69-0.877,1.71-1.849l0.221-10.476
				l10.035-1.157l0.677,23.012c0.03,1.048,0.905,1.872,1.952,1.841c0.044-0.001,0.088-0.004,0.131-0.008
				c0.983-0.096,1.739-0.94,1.71-1.944l-0.687-23.336l4.41-0.508L277.137,267.881z M279.439,218.019c0,0.007,0,0.014-0.001,0.021
				c0,0.007-0.001,0.013-0.001,0.021l-0.459,9.96c-0.336-0.068-0.686-0.085-1.041-0.044l-40.188,4.632l-0.039-0.803
				c-0.002-0.038-0.005-0.076-0.009-0.114c-0.138-1.264-0.296-3.396-0.339-5.81l25.976-0.898c0.505-0.017,0.984-0.237,1.329-0.609
				c0.343-0.372,0.523-0.866,0.501-1.372l-0.591-13.189l15.26-0.4L279.439,218.019z M280.511,194.796
				c-0.002,0.025-0.003,0.05-0.004,0.075l-0.495,10.739l-4.65,0.122l0.052-24.779l5.709,0.601L280.511,194.796z M288.425,220.354
				l-0.063,46.986c-2.24,0.104-4.733,0.223-7.416,0.354l2.196-47.584L288.425,220.354z M299.7,197.071l-15.327-3.636l0.529-11.482
				l15.059,1.586L299.7,197.071z M293.035,121.773l7.029,56.36l-0.022,1.174l-8.587-0.905c0.151-0.283,0.237-0.605,0.227-0.948
				l-1.553-55.08C291.095,122.144,292.07,121.945,293.035,121.773z M285.151,123.944c0.396-0.163,0.802-0.315,1.212-0.462
				l1.525,54.08c0.005,0.165,0.038,0.322,0.082,0.474l-2.876-0.303c0-0.013,0.001-0.025,0.001-0.038c0-0.002,0-0.005,0-0.008
				c-0.001-0.036-0.003-0.072-0.006-0.107l-3.441-52.497C282.857,124.78,284.03,124.406,285.151,123.944z M277.891,125.785
				l3.38,51.544l-11.836-1.246c0.071-0.21,0.105-0.437,0.098-0.672l-1.752-49.375C271.054,126.231,274.534,126.226,277.891,125.785z
				 M271.62,180.553l-0.052,25.279l-7.22,0.189c-0.036-0.122-0.085-0.239-0.146-0.349l-0.169-25.919L271.62,180.553z
				 M265.74,175.547c0.002,0.051,0.015,0.099,0.02,0.148l-15.028-1.583l-1.375-10.91l6.474-0.272c0.024,0,0.049-0.001,0.072-0.003
				l9.377-0.394L265.74,175.547z M254.052,124.375c0.776,0.094,1.75,0.242,2.878,0.411c1.938,0.292,4.36,0.655,7.042,0.935
				l1.172,33.019l-8.021,0.337c-1.837-5.382-8.587-25.479-8.978-31.255c-0.043-0.637-0.101-1.248-0.167-1.837
				C248.595,125.378,250.472,123.939,254.052,124.375z M253.168,159.244l-17.369,0.729l-3.011-13.39
				c-0.018-0.077-0.039-0.153-0.066-0.227l14.604-5.462C249.349,147.849,251.88,155.447,253.168,159.244z M246.294,137.231
				l-15.335,5.734l-6.214-11.812c3.377-2.333,6.936-4.837,10.694-7.528c2.091-1.498,4.449-2.982,7.015-4.446
				c0.757,1.852,1.627,4.78,1.905,8.898C244.493,130.048,245.253,133.393,246.294,137.231z M236.057,98.106l6.576,13.281
				c-4.142,2.195-7.908,4.453-11.12,6.753c-12.444,8.91-22.662,15.734-31.249,21.081c-1.001-4.393-3.35-11.743-8.852-21.075
				c-0.786-1.332-1.515-2.638-2.193-3.912l41.867-13.694c0.039-0.012,0.078-0.026,0.116-0.042
				C232.318,100.051,233.981,99.224,236.057,98.106z M231.539,78.03l3.427,16.361c-2.217,1.209-3.977,2.099-5.119,2.563
				l-2.367,0.774l-3.154-17.636L231.539,78.03z M230.932,75.134l-7.444,2.127l-4.147-8.309l3.871-1.203
				c0.593-0.185,1.008-0.721,1.036-1.341l0.2-4.351l3.447-1.421L230.932,75.134z M225.457,58.449l-3.002,1.237
				c-0.53,0.219-0.885,0.724-0.912,1.297l-0.196,4.255l-3.342,1.039l-1.507-3.02l-1.974-7.304l2.405-2.429L225.457,58.449z
				 M217.749,5.969l24.345,2.547l-0.068,1.429l-4.101,29.503c-1.507-0.17-2.922-0.334-4.148-0.477
				c-2.396-0.279-4.927-0.762-7.474-1.369c0.715-2.738,1.693-7.488,0.543-9.562c-0.445-0.804-1.079-1.121-1.533-1.246
				c-2.002-0.551-8.048-0.785-11.113-0.869L217.749,5.969z M205.142,2.285L214.87,5.3l-3.878,21.802
				c-0.076,0.425,0.039,0.863,0.313,1.196s0.681,0.53,1.113,0.538c3.803,0.067,9.953,0.322,11.901,0.752
				c0.344,0.904-0.053,4.071-0.881,7.284c-8.987-2.439-17.646-6.095-20.853-7.631L205.142,2.285z M202.291,32.36
				c3.778,1.724,11.665,4.947,19.927,7.231l-5.542,9.404l-15.134-8.739L202.291,32.36z M174.247,28.51
				c9.089,0.575,21.705,1.725,26.007,3l-0.785,8.279c-3.325-0.24-14.407-1.042-26.145-1.898
				C173.619,34.975,173.929,31.804,174.247,28.51z M172.149,48.819c0.229-1.925,0.497-4.363,0.788-7.152
				c12.493,0.913,24.277,1.764,26.832,1.948l8.33,4.811l-2.109,4.148l-33.977-2.357C172.05,49.748,172.094,49.281,172.149,48.819z
				 M205.563,55.503c0.313,2.298,1.046,7.677,1.88,13.93l-32.176,5.339c-1.925-7.024-3.448-14.62-3.382-21.605L205.563,55.503z
				 M172.464,88.561l-20.113-0.124c-0.396-0.002-0.772,0.152-1.051,0.43c-0.279,0.278-0.436,0.655-0.435,1.049
				c0.013,5.099-0.142,11.061-0.415,12.923c-1.617,0.265-6.42,0.177-11.111-0.086c-3.885-7.974-6.559-13.435-7.181-14.704
				c-0.087-0.242-0.331-0.967-0.618-2.141l39.355-2.157C171.427,85.426,171.955,87.034,172.464,88.561z M169.997,80.844
				l-39.044,2.141c-0.636-3.864-1.1-9.823-0.177-17.615l35.438-0.074C167.131,70.672,168.528,75.976,169.997,80.844z
				 M156.025,20.492l10.184,2.235l1.653,1.682c-0.437,4.587-0.868,9.033-1.269,12.988c-5.193-0.381-10.245-0.754-14.544-1.076
				L156.025,20.492z M151.111,40.057c4.413,0.331,9.677,0.72,15.095,1.118c-0.278,2.664-0.534,4.996-0.755,6.846
				c-0.142,1.185-0.229,2.389-0.275,3.604l-16.367-2.401L151.111,40.057z M165.147,54.604c0.047,2.555,0.267,5.148,0.616,7.741
				l-20.173,0.042l3.055-10.204L165.147,54.604z M148.124,39.832l-5.668,22.562l-11.275,0.023c0.145-0.929,0.306-1.878,0.491-2.853
				c0.219-1.146,0.429-2.224,0.628-3.242c1.353-6.943,2.144-11.439,1.517-15.886c1.585-0.743,3.753-1.481,5.83-1.277
				C140.626,39.255,143.761,39.501,148.124,39.832z M131.386,8.232l15.768,1.482l-3.897,13.104l-12.162-2.092
				C131.922,17.056,131.62,11.207,131.386,8.232z M129.932,23.521l9.233,1.588l-2.496,10.435c-1.357,0.245-2.631,0.671-3.728,1.133
				c-0.989-3.068-2.716-6.414-5.433-10.743C128.364,25.372,129.222,24.593,129.932,23.521z M115.722,6.76l12.682,1.192
				c0.377,4.447,0.515,11.117-0.569,13.294c-0.508,1.021-1.218,1.719-1.923,2.199c-2.122-3.237-4.729-6.998-7.91-11.517
				c-0.85-1.208-1.672-2.373-2.467-3.497L115.722,6.76z M99.634,4.281c2.022,0.416,3.934,0.806,5.471,1.117
				c2.186,3.06,4.636,6.515,7.38,10.413c1.965,2.792,3.681,5.251,5.181,7.446L96.851,19.04L99.634,4.281z M86.873,1.515
				c1.935,0.493,6.35,1.436,10.697,2.339l-2.785,14.768l-11.536-2.338C84.377,10.13,85.926,3.473,86.873,1.515z M61.992,49.495
				c1.672-4.913,3.045-11.089,4.498-17.628c1.063-4.787,2.217-9.976,3.622-15.236l15.603,3.161l-5.433,29.404
				c-0.012,0.066-0.02,0.133-0.022,0.2l-0.234,5.078l-0.338,11.313c-11.085,0.561-20.783,1.233-24.953,1.535
				C57.462,61.286,60.151,54.902,61.992,49.495z M52.531,72.111l1.08-1.746c2.272-0.167,9.483-0.683,18.591-1.206
				c-0.584,2.277-1.803,7.075-2.301,9.43c-0.576,0.146-1.165,0.298-1.773,0.458C62.621,80.505,54,79.307,49.485,78.495
				C50.44,76.529,51.471,74.375,52.531,72.111z M47.496,82.542c0.206-0.415,0.418-0.844,0.639-1.289
				c4.437,0.849,14.265,2.364,20.748,0.648c0.367-0.097,0.728-0.19,1.084-0.282c0.439,1.832,1.401,4.132,2.404,6.246l-12.777-0.589
				c-0.175-0.096-0.35-0.189-0.521-0.282c-2.395-1.275-5.287-2.383-8.598-3.293c-1.316-0.362-2.281-0.604-2.998-0.758L47.496,82.542
				z M36.585,101.643l21.446,13.863c0.282,0.182,0.615,0.262,0.944,0.229c0.082-0.008,0.162-0.023,0.242-0.044
				c0.403-0.109,0.742-0.384,0.932-0.758l4.188-8.262c0.369-0.727,0.078-1.615-0.648-1.983s-1.614-0.078-1.983,0.649l-3.448,6.8
				L38.125,99.123c1.057-1.736,2.014-3.317,2.839-4.687l18.496,11.231c0.284,0.172,0.602,0.238,0.908,0.208
				c0.446-0.044,0.868-0.29,1.118-0.703c0.424-0.697,0.202-1.604-0.494-2.028L42.486,91.907c0.964-1.606,1.569-2.625,1.701-2.846
				c0.032-0.055,0.063-0.11,0.093-0.167c0.105-0.203,0.712-1.373,1.652-3.231c1.036,0.197,5.357,1.081,9.519,2.869
				c-0.002,0.011-0.002,0.021-0.002,0.032l-0.246,5.529c-0.027,0.63,0.348,1.208,0.934,1.438c2.045,0.805,11.796,4.526,16.299,4.098
				l6.521,4.545c1.045,2.583,2.275,5.465,3.696,8.533c1.61,3.475,3.28,6.79,5.001,9.931L71.064,142.9l-8.872-8.397
				c-0.339-0.32-0.764-0.483-1.194-0.507l-0.207-0.222c-0.025-0.027-0.052-0.053-0.078-0.078c-0.21-0.194-4.379-4.022-9.092-6.533
				c0.893-1.135,1.342-2.273,1.338-3.396c-0.006-1.857-1.207-3.033-1.785-3.598c-0.061-0.059-0.113-0.109-0.152-0.152
				c-0.671-0.736-1.796-1.186-2.937-1.174c-0.927,0.009-2.296,0.326-3.552,1.768c-0.924,1.06-1.238,2.402-0.885,3.783
				c0.469,1.829,2.046,3.48,4.02,4.206c4.993,1.837,10.494,6.769,11.004,7.23l0.354,0.38c0.068,0.388,0.251,0.759,0.559,1.05
				l0.306,0.291l-6.552,6.983l-11.631-12.255l-1.117-21.055c-0.001-0.019-0.007-0.036-0.009-0.055
				c-0.004-0.036-0.009-0.072-0.017-0.108c-0.007-0.033-0.016-0.066-0.026-0.098c-0.01-0.032-0.021-0.063-0.034-0.094
				c-0.014-0.032-0.028-0.063-0.046-0.093c-0.015-0.03-0.033-0.058-0.052-0.085c-0.02-0.028-0.039-0.055-0.061-0.081
				c-0.021-0.027-0.045-0.052-0.07-0.076c-0.023-0.024-0.049-0.046-0.074-0.067c-0.026-0.021-0.053-0.041-0.081-0.06
				c-0.031-0.021-0.063-0.039-0.097-0.056c-0.016-0.009-0.029-0.02-0.047-0.028l-6.805-3.126
				C34.367,105.262,35.513,103.396,36.585,101.643z M50.007,123.776c0.002,0.577-0.406,1.302-1.181,2.105
				c-0.048-0.018-0.094-0.034-0.14-0.052c-1.039-0.382-1.956-1.294-2.18-2.168c-0.146-0.572,0.072-0.908,0.25-1.112
				c0.396-0.456,0.815-0.708,1.245-0.749c0.021-0.002,0.042-0.004,0.062-0.005c0.43-0.021,0.731,0.168,0.775,0.209
				c0.07,0.077,0.162,0.168,0.269,0.272C49.582,122.739,50.005,123.202,50.007,123.776z M32.051,109l6.466,2.971l0.953,17.95
				l-1.408-1.485c-0.024-0.026-0.053-0.048-0.077-0.073c0.351-0.437,0.303-1.076-0.122-1.449l-10.99-9.674
				C28.63,114.477,30.378,111.69,32.051,109z M16.637,132.719c2.748-3.918,5.908-8.716,9.088-13.682l9.512,8.373
				c-0.736,0.083-1.431,0.404-1.969,0.926l-8.702,8.429C22.021,135.314,19.361,133.968,16.637,132.719z M30.437,140.47l5.077-4.918
				l9.309,9.808l-4.45,3.901c-0.981-0.995-1.937-1.963-2.858-2.893C35.416,144.25,33.028,142.29,30.437,140.47z M36.772,155.22
				c0.359,0.364,0.725,0.736,1.09,1.107c-1.278,1.265-2.566,2.485-3.783,3.552c-0.853,0.748-1.71,1.642-2.562,2.646
				c-0.674-0.428-1.285-0.817-1.784-1.135L36.772,155.22z M32.534,166.665c1.579,0.998,3.132,1.974,4.119,2.582
				c1.608,0.988,2.981,0.922,3.849,0.692c1.48-0.393,2.449-1.466,2.919-2.115l4.228-1.616c0.143,0.143,0.283,0.283,0.426,0.425
				L37.43,180.814l-10.454-5.221c-0.005-0.003-0.011-0.004-0.017-0.007C28.71,172.374,30.619,169.24,32.534,166.665z
				 M17.621,198.419c0.054-0.124,0.095-0.254,0.117-0.39c0.005-0.03,0.535-3.027,3.265-9.857c1.199-3.001,2.948-6.856,4.97-10.732
				c0.021,0.013,0.04,0.028,0.062,0.039l10.109,5.049l-0.874,1.165c-0.312,0.415-0.438,0.938-0.354,1.449
				c0.086,0.511,0.375,0.965,0.805,1.257l2.449,1.669c-0.205,0.214-0.322,0.51-0.288,0.83l1.355,12.878L17.621,198.419z
				 M45.201,202.704l-3.809-0.592l-1.344-12.763l7.078,4.823L45.201,202.704z M39.498,184.382l11.294-15.048
				c1.737,1.719,3.444,3.391,5.116,5.007l-5.966,7.826c-0.341,0.446-0.271,1.082,0.158,1.444l2.297,1.941l-1.981,2.827
				c-0.012,0.016-0.023,0.032-0.035,0.048l-1.598,2.281L39.498,184.382z M68.762,206.365l-19.804-3.078l2.07-9.173l1.408-2.008
				l19.203,12.891L68.762,206.365z M75.625,203.101l-21.009-14.104l2.707-3.862l3.064,2.346c0.832,0.637,2.022,0.479,2.659-0.354
				c0.638-0.832,0.479-2.023-0.353-2.66l-4.636-3.548c-0.41-0.313-0.926-0.448-1.442-0.369c-0.511,0.079-0.967,0.363-1.265,0.786
				l-1.74,2.482l-1.386-1.171l5.21-6.834c10.135,9.719,18.909,17.252,25.452,20.67c0.002,0.001,0.004,0.002,0.006,0.003
				c1.148,0.692,2.329,1.132,3.501,1.493L75.625,203.101z M70.303,229.248l13.97-4.166c-0.944,4.27-2.601,9.075-5.363,14.227
				c-0.203,0.377-0.413,0.749-0.633,1.113L70.303,229.248z M75.755,249.368c1.481-1.358,2.809-2.806,3.973-4.338
				c0.08-0.089,0.151-0.185,0.213-0.284c0.865-1.167,1.637-2.381,2.312-3.642c10.538-19.65,6.414-34.761,4.764-39.216l4.533-2.156
				c1.184,0.671,2.111,1.67,2.833,3.489c2.724,6.852,8.769,32.299,10.397,47.293c0,0.008,0.002,0.016,0.002,0.024l-4.787,0.104
				l-5.284-44.771c-0.123-1.041-1.078-1.793-2.106-1.662c-1.041,0.122-1.785,1.065-1.662,2.106l5.242,44.409L75.65,251.17
				C75.612,250.495,75.644,249.895,75.755,249.368z M103.433,275.611l-0.499-0.082l-2.491-21.104l5.281-0.115
				c0.557,1.394,1.336,2.682,2.326,3.853c-2.07,0.874-3.673,2.294-3.872,4.614C103.938,264.629,103.321,270.007,103.433,275.611z
				 M46.46,262.029c1.465-0.25,2.977-0.545,4.521-0.891c8.409-1.888,15.468-4.837,20.979-8.725c0.033,0.267,0.072,0.539,0.118,0.817
				c0.01,0.139,0.033,0.273,0.07,0.402c0.561,3.04,1.858,6.758,3.647,11.444l-29.611,2.927L46.46,262.029z M77.211,268.749
				c2.356,6.38,2.151,11.17,1.828,13.433c-2.234-0.153-4.289-0.116-6.177,0.068c-1.293,0.126-2.508,0.321-3.646,0.572l-1.029-13.181
				L77.211,268.749z M45.329,286.576l0.681-14.742l1.758-0.175l0.226,15.041L45.329,286.576z M51.791,286.874l-0.234-15.589
				l12.854-1.271l1.086,13.902c-2.463,0.923-4.468,2.101-6.073,3.31L51.791,286.874z M90.014,295.691
				c-5.489,1.694-11.166,3.446-16.21,4.252c-6.529,1.045-12.125-0.523-17.949-2.33c0.394-0.992,1.805-4.059,5.121-6.812
				c0.175-0.1,0.332-0.226,0.467-0.375c1.67-1.301,3.784-2.503,6.438-3.345c0.123-0.024,0.241-0.062,0.353-0.109
				c3.215-0.962,7.198-1.398,12.114-0.867c0.888,0.094,1.726-0.443,2.006-1.293c0.092-0.28,2.108-6.646-1.252-16.449l0.553-0.055
				c1.043-0.104,1.805-1.032,1.702-2.075c-0.104-1.042-1.031-1.803-2.073-1.702c-0.001,0.001-0.001,0.001-0.002,0.001l-1.567,0.154
				c-1.502-3.903-2.679-7.135-3.375-9.738l20.293-0.441l2.701,22.885c0.099,0.841,0.742,1.514,1.578,1.65l2.73,0.445
				c0.365,3.967,1.236,7.659,3.026,9.856c0.528,0.648,1.048,1.24,1.558,1.791C102.483,291.844,96.203,293.781,90.014,295.691z
				 M100.654,200.729c-0.534-1.344-1.166-2.463-1.861-3.407c8.236-2.277,18.655-7.423,30.639-13.989
				c1.602,2.697,2.888,5.565,3.464,8.421c0.423,2.098,0.992,5.938,1.599,10.833l-6.714,1.553l-0.617-5
				c-0.128-1.04-1.081-1.767-2.115-1.651c-1.04,0.128-1.779,1.076-1.651,2.115l0.876,7.091c0.066,0.534,0.356,1.015,0.797,1.323
				c0.372,0.261,0.823,0.377,1.271,0.333c0.082-0.008,0.163-0.021,0.244-0.04l8.363-1.935c0.633,5.481,1.275,11.884,1.816,18.491
				c0.818,9.991,1.105,16.899,1.117,21.482l-26.391,3.463c0-0.009-0.002-0.019-0.004-0.029c-0.271-2.507-0.67-5.337-1.159-8.346
				l21.53-2.287c1.042-0.111,1.797-1.046,1.686-2.088c-0.109-1.037-1.035-1.789-2.07-1.688c-0.006,0-0.011,0.001-0.017,0.001
				l-21.769,2.312C107.165,223.508,103.071,206.812,100.654,200.729z M137.812,250.187c-0.063,1.404-0.164,2.389-0.28,3.021
				c-2.327,0.911-8.622,2.903-14.474,3.473c-0.938,0.092-1.756,0.133-2.477,0.142c-0.57-0.024-1.135-0.042-1.69-0.051
				c-1.653-0.131-2.485-0.476-2.84-0.676c-1.345-0.76-2.386-1.637-3.138-2.642L137.812,250.187z M133.388,294.205
				c-1.117,1.315-2.272,2.675-3.288,4.018c-0.523,0.693-1.012,1.376-1.477,2.054c-0.719-0.962-1.435-1.939-2.144-2.931
				c-0.761-1.067-1.598-1.973-2.497-2.748c3.997-1.545,8.329-2.804,10.58-2.517c0.169,0.021,0.356,0.042,0.559,0.061
				C134.577,292.805,133.989,293.497,133.388,294.205z M139.229,285.596c-1.623-0.023-2.935-0.096-3.817-0.208
				c-5.489-0.694-14.4,3.012-18.154,4.727c-1.195-0.793-3.168-2.342-5.359-5.031c-1.985-2.435-2.114-12.516-1.111-20.786
				c1.254-0.517,4.116-0.829,7.803-0.782c0.608,0.042,1.247,0.06,1.914,0.055c3.299,0.144,7.08,0.556,10.889,1.328
				c6.873,1.395,9.539,3.128,10.081,3.762C141.781,273.197,142.125,279.096,139.229,285.596z M142.48,259.284
				c-0.334,0.584-0.551,1.165-0.689,1.727c-0.871-0.391-1.823-0.763-2.876-1.113c3.151-1.121,3.626-1.741,3.992-2.223
				c1.023-1.341,2.929-3.838,0.682-32.115c-0.317-3.991-0.7-8.171-1.112-12.233c4.534-0.305,12.781-1.111,16.578-3.077
				c1.747-0.905,3.757-1.858,5.836-2.799l1.451,3.365c-2.301,1.13-4.757,2.405-6.915,3.677c-5.717,3.366-10.239,4.02-10.279,4.025
				c-0.998,0.132-1.72,1.021-1.643,2.025l2.55,33.463C146.251,255.325,143.747,257.07,142.48,259.284z M173.765,279.928
				c-6.65,3.432-18.275,4.998-27.219,5.492c1.756-5.143,1.973-9.843,1.846-13.745c2.822,1.331,6.275,1.8,10.33,1.405
				c2.762-0.271,5.804-0.94,9.113-2.011c15.168-4.908,31.345-8.161,37.746-9.357c0.033,0.135,0.062,0.267,0.086,0.387
				c0.288,1.522,1.18,5.378,2.406,10.513C193.083,273.96,182.364,275.492,173.765,279.928z M212.295,260.842
				c-0.205-1.079-0.635-2.448-1.245-4.066c-0.024-0.071-0.051-0.141-0.079-0.209c-1.027-2.688-2.542-6.049-4.37-9.924l27.716-6.518
				l0.622,12.704l0.36,17.526c-2.788,0.206-5.432,0.414-7.863,0.625c-3.248,0.282-6.343,0.537-9.296,0.779
				c-1.112,0.092-2.199,0.182-3.271,0.271C213.549,266.521,212.587,262.38,212.295,260.842z"/>
		</g>
	</g>
	<g id="Calles_anchas_2_">
		<g>
			<g>
				<path fill="none" stroke="#898989" stroke-width="2" stroke-linejoin="round" d="M173.474,0.333
					c-0.06,0.65-0.119,1.314-0.181,1.99"/>
				<path fill="none" stroke="#898989" stroke-width="2" stroke-linejoin="round" stroke-dasharray="3.9259,3.9259" d="
					M172.939,6.233l-2.965,31.268c-0.441,4.369-0.845,8.161-1.174,10.919c-0.122,1.021-0.144,2.062-0.249,3.109
					c-1.223,12.062,5.528,31.102,5.528,31.102c1.321,4.179,2.635,7.944,3.634,11.003c1.902,10.282,2.786,10.066,5.598,16.25
					c0,0,10.965,18.1,13.184,28.149c0.161,0.73,0.302,1.396,0.425,1.995"/>
				<path fill="none" stroke="#898989" stroke-width="2" stroke-linejoin="round" d="M197.295,141.953
					c0.24,1.294,0.336,1.969,0.336,1.969"/>
			</g>
		</g>
	</g>
	<g>
		<polygon fill="#FEF4F1" points="148.394,72.368 146.435,72.278 146.502,70.809 145.035,70.741 144.966,72.21 143.008,72.12 
			142.941,73.588 144.899,73.678 144.763,76.616 146.232,76.683 146.367,73.746 148.326,73.836 		"/>
	</g>
	<g>
		<polygon fill="#FEF4F1" points="230.987,10.496 228.907,10.4 228.979,8.841 227.421,8.77 227.349,10.328 225.27,10.232 
			225.198,11.791 227.277,11.887 227.133,15.005 228.692,15.077 228.835,11.958 230.915,12.055 		"/>
	</g>
	<g>
		<g>
			<path fill="#FEF4F1" d="M177.143,63.904c0.036-0.789,0.481-1.654,0.99-2.18c-1.247,0.359-2.301,1.639-2.364,3.006
				c-0.078,1.717,1.249,3.173,2.966,3.253c0.929,0.042,1.662-0.167,2.263-0.786c-0.319,0.092-0.567,0.113-0.916,0.097
				C178.364,67.215,177.064,65.621,177.143,63.904z"/>
			<polygon fill="#FEF4F1" points="181.298,62.715 182.321,62.236 182.079,63.339 182.851,64.165 181.726,64.276 181.18,65.265 
				180.726,64.229 179.618,64.016 180.462,63.265 180.323,62.144 			"/>
		</g>
	</g>
	<path fill="#FEF4F1" d="M107.933,40.832l-0.979-0.007l0.001-0.699c0.002-0.925-0.667-1.676-2.342-1.68
		c-1.676-0.003-2.234,0.746-2.237,1.671l-0.001,0.678l-1.17-0.008c0,0-0.51,2.483-0.616,4.38c-0.192,3.45,7.866,3.515,7.866,0.107
		C108.455,43.192,107.933,40.832,107.933,40.832z M102.933,40.799l0.001-0.681c0.001-0.616,0.562-1.116,1.678-1.113
		c1.117,0.001,1.785,0.504,1.784,1.121l-0.001,0.696L102.933,40.799z"/>
	<path fill="#292726" d="M140.921,114.173c0.15,0.277,0.047,0.625-0.23,0.776l-2.235,1.213c-0.278,0.151-0.626,0.047-0.776-0.23
		l-5.319-9.799c-0.151-0.277-0.048-0.625,0.23-0.776l2.234-1.213c0.278-0.151,0.626-0.048,0.776,0.229L140.921,114.173z"/>
	<path fill="#292726" d="M91.509,17.949c0.303,0.088,0.477,0.406,0.389,0.71L91.183,21.1c-0.088,0.304-0.406,0.477-0.71,0.389
		l-10.701-3.13c-0.303-0.088-0.478-0.406-0.389-0.71l0.714-2.44c0.089-0.304,0.407-0.478,0.711-0.39L91.509,17.949z"/>
	<path fill="#292726" d="M84.295,151.917c0.224-0.223,0.587-0.222,0.81,0.002l1.793,1.804c0.223,0.225,0.221,0.587-0.002,0.81
		l-7.91,7.859c-0.223,0.222-0.586,0.221-0.81-0.002l-1.792-1.804c-0.223-0.225-0.222-0.588,0.002-0.811L84.295,151.917z"/>
</g>
<rect x="283.23" y="264.238" fill="#F50057" width="14.963" height="14.964"/>
<rect x="283.23" y="281.384" fill="#F50057" width="14.963" height="14.807"/>
<text transform="matrix(1 0 0 1 287.4526 275.916)" fill="#FFFFFF" font-family="'SourceSansPro-Regular'" font-size="12.5891">+</text>
<text transform="matrix(1 0 0 1 289.0493 291.8516)" fill="#FFFFFF" font-family="'SourceSansPro-Regular'" font-size="12.0407">-</text>
<rect x="10.733" y="281.977" fill="#FFFFFF" width="96" height="15"/>
<text transform="matrix(1 0 0 1 26.7534 291.7998)" fill="#808080" font-family="'SourceSansPro-Regular'" font-size="6.4588">Search as I move the map</text>
<polyline fill="none" stroke="#F50057" stroke-miterlimit="10" points="15.79,289.535 18.715,292.059 23.78,285.895 "/>
<rect x="240.608" y="9.986" fill="#FFFFFF" width="58" height="9"/>
<polygon fill="#666666" points="290.514,14.483 291.858,12.556 293.202,14.483 "/>
<polygon fill="#666666" points="293.202,15.023 291.858,16.951 290.514,15.023 "/>
<g>
	<text transform="matrix(1 0 0 1 245.6499 16.0122)" fill="#666666" font-family="'SourceSansPro-Regular'" font-size="4.9738">Blue Water</text>
</g>
</svg>
