<?xml version="1.0" encoding="utf-8"?>
<!-- Generator: Adobe Illustrator 16.0.0, SVG Export Plug-In . SVG Version: 6.00 Build 0)  -->
<!DOCTYPE svg PUBLIC "-//W3C//DTD SVG 1.1//EN" "http://www.w3.org/Graphics/SVG/1.1/DTD/svg11.dtd">
<svg version="1.1" id="Layer_1" xmlns="http://www.w3.org/2000/svg" xmlns:xlink="http://www.w3.org/1999/xlink" x="0px" y="0px"
	 width="309.108px" height="129.033px" viewBox="0 0 309.108 129.033" enable-background="new 0 0 309.108 129.033"
	 xml:space="preserve">
<rect x="1.166" fill="#FFFFFF" width="306.739" height="40.506"/>
<rect x="1.166" y="44.328" fill="#FFFFFF" width="306.739" height="84.705"/>
<rect x="1.166" y="45.092" fill="#FFFFFF" width="306.739" height="39.743"/>
<text transform="matrix(1 0 0 1 22.5659 115.5332)" fill="#5B5B5B" font-family="'SourceSansPro-Regular'" font-size="21.3997">Microsoft</text>
<text transform="matrix(1 0 0 1 22.5659 72.9917)" fill="#5B5B5B" font-family="'SourceSansPro-Regular'" font-size="21.5829">Micro Beer</text>
<g>
	<text transform="matrix(1 0 0 1 22.5659 29.4189)" fill="#333333" font-family="'SourceSansPro-Semibold'" font-size="21.3997">micro|</text>
</g>
<g>
	<g>
		<path fill="#5B5B5B" d="M285.424,26.385c-4.604,0-8.35-3.498-8.35-7.798c0-4.294,3.745-7.79,8.35-7.79
			c4.602,0,8.352,3.496,8.352,7.79C293.776,22.887,290.026,26.385,285.424,26.385z M285.424,12.99c-3.305,0-5.997,2.512-5.997,5.597
			c0,3.089,2.692,5.603,5.997,5.603c3.307,0,6-2.514,6-5.603C291.424,15.502,288.731,12.99,285.424,12.99z"/>
	</g>
	<g>
		<path fill="#5B5B5B" d="M298.693,32.072c-0.304,0-0.604-0.107-0.833-0.32l-7.775-7.262c-0.459-0.43-0.459-1.123,0-1.553
			c0.461-0.429,1.201-0.429,1.664,0l7.774,7.262c0.457,0.428,0.457,1.121,0,1.553C299.292,31.965,298.993,32.072,298.693,32.072z"/>
	</g>
</g>
</svg>
