<?xml version="1.0" encoding="utf-8"?>
<!-- Generator: Adobe Illustrator 16.0.0, SVG Export Plug-In . SVG Version: 6.00 Build 0)  -->
<!DOCTYPE svg PUBLIC "-//W3C//DTD SVG 1.1//EN" "http://www.w3.org/Graphics/SVG/1.1/DTD/svg11.dtd">
<svg version="1.1" id="Layer_1" xmlns="http://www.w3.org/2000/svg" xmlns:xlink="http://www.w3.org/1999/xlink" x="0px" y="0px"
	 width="280.515px" height="115.486px" viewBox="0 0 280.515 115.486" enable-background="new 0 0 280.515 115.486"
	 xml:space="preserve">
<polygon fill="#FFD600" points="11.697,0 15.312,6.891 23.393,7.996 17.545,13.361 18.926,20.934 11.697,17.357 4.468,20.934 
	5.85,13.361 0,7.996 8.083,6.891 "/>
<polygon fill="#FFD600" points="42.77,0 46.385,6.891 54.467,7.996 48.62,13.361 50,20.934 42.77,17.357 35.542,20.934 
	36.922,13.361 31.073,7.996 39.155,6.891 "/>
<polygon fill="#FFD600" points="73.845,0 77.458,6.891 85.542,7.996 79.693,13.361 81.073,20.934 73.845,17.357 66.616,20.934 
	67.996,13.361 62.148,7.996 70.229,6.891 "/>
<polygon fill="#FFD600" points="104.918,0 108.533,6.891 116.615,7.996 110.766,13.361 112.147,20.934 104.918,17.357 
	97.688,20.934 99.07,13.361 93.221,7.996 101.303,6.891 "/>
<polygon fill="#FFFFFF" points="135.991,0 139.606,6.891 147.688,7.996 141.84,13.361 143.221,20.934 135.991,17.357 
	128.763,20.934 130.143,13.361 124.294,7.996 132.377,6.891 "/>
<polygon fill="#FFD600" points="11.697,30.549 15.312,37.439 23.393,38.545 17.545,43.908 18.926,51.482 11.697,47.906 
	4.468,51.482 5.85,43.908 0,38.545 8.083,37.439 "/>
<polygon fill="#FFD600" points="42.77,30.549 46.385,37.439 54.467,38.545 48.62,43.908 50,51.482 42.77,47.906 35.542,51.482 
	36.922,43.908 31.073,38.545 39.155,37.439 "/>
<polygon fill="#FFD600" points="73.845,30.549 77.458,37.439 85.542,38.545 79.693,43.908 81.073,51.482 73.845,47.906 
	66.616,51.482 67.996,43.908 62.148,38.545 70.229,37.439 "/>
<polygon fill="#FFFFFF" points="104.918,30.549 108.533,37.439 116.615,38.545 110.766,43.908 112.147,51.482 104.918,47.906 
	97.688,51.482 99.07,43.908 93.221,38.545 101.303,37.439 "/>
<polygon fill="#FFFFFF" points="135.991,30.549 139.606,37.439 147.688,38.545 141.84,43.908 143.221,51.482 135.991,47.906 
	128.763,51.482 130.143,43.908 124.294,38.545 132.377,37.439 "/>
<polygon fill="#FFD600" points="11.697,61.096 15.312,67.988 23.393,69.092 17.545,74.456 18.926,82.031 11.697,78.455 
	4.468,82.031 5.85,74.456 0,69.092 8.083,67.988 "/>
<polygon fill="#FFD600" points="42.77,61.096 46.385,67.988 54.467,69.092 48.62,74.456 50,82.031 42.77,78.455 35.542,82.031 
	36.922,74.456 31.073,69.092 39.155,67.988 "/>
<polygon fill="#FFFFFF" points="73.845,61.096 77.458,67.988 85.542,69.092 79.693,74.456 81.073,82.031 73.845,78.455 
	66.616,82.031 67.996,74.456 62.148,69.092 70.229,67.988 "/>
<polygon fill="#FFFFFF" points="104.918,61.096 108.533,67.988 116.615,69.092 110.766,74.456 112.147,82.031 104.918,78.455 
	97.688,82.031 99.07,74.456 93.221,69.092 101.303,67.988 "/>
<polygon fill="#FFFFFF" points="135.991,61.096 139.606,67.988 147.688,69.092 141.84,74.456 143.221,82.031 135.991,78.455 
	128.763,82.031 130.143,74.456 124.294,69.092 132.377,67.988 "/>
<polygon fill="#FFD600" points="11.697,91.644 15.312,98.535 23.393,99.641 17.545,105.004 18.926,112.578 11.697,109.002 
	4.468,112.578 5.85,105.004 0,99.641 8.083,98.535 "/>
<polygon fill="#FFFFFF" points="42.77,91.644 46.385,98.535 54.467,99.641 48.62,105.004 50,112.578 42.77,109.002 35.542,112.578 
	36.922,105.004 31.073,99.641 39.155,98.535 "/>
<polygon fill="#FFFFFF" points="73.845,91.644 77.458,98.535 85.542,99.641 79.693,105.004 81.073,112.578 73.845,109.002 
	66.616,112.578 67.996,105.004 62.148,99.641 70.229,98.535 "/>
<polygon fill="#FFFFFF" points="104.918,91.644 108.533,98.535 116.615,99.641 110.766,105.004 112.147,112.578 104.918,109.002 
	97.688,112.578 99.07,105.004 93.221,99.641 101.303,98.535 "/>
<polygon fill="#FFFFFF" points="135.991,91.644 139.606,98.535 147.688,99.641 141.84,105.004 143.221,112.578 135.991,109.002 
	128.763,112.578 130.143,105.004 124.294,99.641 132.377,98.535 "/>
<g>
	<path fill="#5B5B5B" d="M168.382,15.173h-1.828v3.478h-1.639v-3.478h-6.03v-1.067l5.736-8.062h1.933v7.825h1.828V15.173z
		 M164.915,13.87v-3.656c0-0.672,0.063-1.759,0.105-2.431h-0.084c-0.336,0.613-0.715,1.166-1.093,1.778l-3.131,4.308H164.915z"/>
	<path fill="#5B5B5B" d="M174.66,16.478c0.882,0.672,1.786,1.146,3.005,1.146c1.345,0,2.017-0.672,2.017-1.502
		c0-0.988-1.219-1.423-2.333-1.818c-1.45-0.494-3.046-1.146-3.046-2.767c0-1.541,1.303-2.727,3.509-2.727
		c1.282,0,2.395,0.494,3.173,1.086l-0.82,1.028c-0.693-0.494-1.429-0.85-2.332-0.85c-1.282,0-1.87,0.652-1.87,1.383
		c0,0.909,1.114,1.245,2.269,1.66c1.471,0.514,3.11,1.087,3.11,2.905c0,1.561-1.324,2.865-3.74,2.865
		c-1.45,0-2.837-0.573-3.803-1.324L174.66,16.478z"/>
	<path fill="#5B5B5B" d="M184.029,10.372h-1.513V9.147l1.597-0.099l0.21-2.688h1.45v2.688h2.752v1.324h-2.752v5.335
		c0,1.186,0.399,1.857,1.576,1.857c0.357,0,0.819-0.138,1.156-0.257l0.336,1.225c-0.567,0.178-1.261,0.356-1.891,0.356
		c-2.185,0-2.92-1.304-2.92-3.201V10.372z"/>
	<path fill="#5B5B5B" d="M196.235,12.565c0-1.225-0.441-2.411-2.101-2.411c-1.198,0-2.248,0.514-3.046,1.028l-0.694-1.126
		c0.946-0.573,2.375-1.245,4.013-1.245c2.5,0,3.551,1.561,3.551,3.952v5.889h-1.429l-0.147-1.146h-0.042
		c-0.987,0.751-2.122,1.383-3.383,1.383c-1.723,0-3.004-1.008-3.004-2.727C189.953,14.067,191.886,13.02,196.235,12.565z
		 M193.44,17.584c0.987,0,1.807-0.455,2.794-1.285v-2.667c-3.425,0.395-4.581,1.186-4.581,2.411
		C191.654,17.13,192.432,17.584,193.44,17.584z"/>
	<path fill="#5B5B5B" d="M201.212,9.048h1.429l0.147,1.739h0.063c0.693-1.205,1.744-1.976,2.899-1.976
		c0.441,0,0.756,0.059,1.093,0.197l-0.336,1.423c-0.336-0.099-0.567-0.158-0.987-0.158c-0.861,0-1.891,0.593-2.584,2.213v6.165
		h-1.723V9.048z"/>
	<path fill="#5B5B5B" d="M208.017,16.478c0.882,0.672,1.786,1.146,3.005,1.146c1.345,0,2.017-0.672,2.017-1.502
		c0-0.988-1.219-1.423-2.333-1.818c-1.45-0.494-3.046-1.146-3.046-2.767c0-1.541,1.303-2.727,3.509-2.727
		c1.282,0,2.395,0.494,3.173,1.086l-0.82,1.028c-0.693-0.494-1.429-0.85-2.332-0.85c-1.282,0-1.87,0.652-1.87,1.383
		c0,0.909,1.114,1.245,2.269,1.66c1.471,0.514,3.11,1.087,3.11,2.905c0,1.561-1.324,2.865-3.74,2.865
		c-1.45,0-2.837-0.573-3.803-1.324L208.017,16.478z"/>
	<path fill="#5B5B5B" d="M227.113,12.565c0-1.225-0.441-2.411-2.101-2.411c-1.198,0-2.248,0.514-3.047,1.028l-0.693-1.126
		c0.946-0.573,2.375-1.245,4.013-1.245c2.5,0,3.551,1.561,3.551,3.952v5.889h-1.429l-0.147-1.146h-0.042
		c-0.987,0.751-2.122,1.383-3.383,1.383c-1.723,0-3.004-1.008-3.004-2.727C220.831,14.067,222.764,13.02,227.113,12.565z
		 M224.319,17.584c0.987,0,1.807-0.455,2.794-1.285v-2.667c-3.425,0.395-4.581,1.186-4.581,2.411
		C222.533,17.13,223.31,17.584,224.319,17.584z"/>
	<path fill="#5B5B5B" d="M232.09,9.048h1.429l0.147,1.383h0.063c0.966-0.909,2.017-1.62,3.425-1.62c2.143,0,3.11,1.304,3.11,3.754
		v6.086h-1.723v-5.869c0-1.798-0.588-2.569-1.933-2.569c-1.05,0-1.765,0.514-2.794,1.482v6.956h-1.723V9.048z"/>
	<path fill="#5B5B5B" d="M247.278,8.811c1.177,0,1.954,0.415,2.857,1.106l-0.084-1.64V4.582h1.744v14.069h-1.429l-0.147-1.126
		h-0.063c-0.798,0.731-1.891,1.364-3.088,1.364c-2.563,0-4.224-1.818-4.224-5.019C242.845,10.748,244.946,8.811,247.278,8.811z
		 M247.446,17.525c0.946,0,1.765-0.435,2.605-1.324v-5.019c-0.861-0.731-1.639-1.008-2.479-1.008c-1.639,0-2.942,1.482-2.942,3.675
		C244.631,16.142,245.661,17.525,247.446,17.525z"/>
	<path fill="#5B5B5B" d="M259.334,9.048h1.744v5.869c0,1.798,0.567,2.569,1.912,2.569c1.05,0,1.786-0.494,2.752-1.62V9.048h1.723
		v9.604h-1.429l-0.147-1.502h-0.063c-0.945,1.047-1.954,1.739-3.362,1.739c-2.164,0-3.131-1.304-3.131-3.754V9.048z"/>
	<path fill="#5B5B5B" d="M272.631,19.461v3.241h-1.723V9.048h1.429l0.147,1.106h0.063c0.924-0.731,2.059-1.343,3.257-1.343
		c2.626,0,4.034,1.917,4.034,4.9c0,3.26-2.08,5.177-4.413,5.177c-0.945,0-1.891-0.415-2.836-1.107L272.631,19.461z M275.132,17.525
		c1.681,0,2.92-1.442,2.92-3.813c0-2.114-0.756-3.537-2.689-3.537c-0.861,0-1.723,0.455-2.731,1.304v5.039
		C273.556,17.249,274.459,17.525,275.132,17.525z"/>
</g>
<g>
	<path fill="#5B5B5B" d="M159.956,46.14c0.798,0.791,1.849,1.502,3.425,1.502c1.618,0,2.773-0.909,2.773-2.312
		c0-1.502-1.092-2.51-4.286-2.51v-1.245c2.857,0,3.803-1.028,3.803-2.352c0-1.225-0.883-1.996-2.312-1.996
		c-1.113,0-2.059,0.533-2.857,1.284l-0.924-1.027c1.029-0.909,2.269-1.581,3.845-1.581c2.333,0,4.013,1.166,4.013,3.201
		c0,1.521-0.987,2.49-2.437,3.004v0.079c1.618,0.356,2.899,1.462,2.899,3.201c0,2.233-1.954,3.597-4.413,3.597
		c-2.143,0-3.509-0.85-4.412-1.779L159.956,46.14z"/>
	<path fill="#5B5B5B" d="M174.66,46.574c0.882,0.672,1.786,1.146,3.005,1.146c1.345,0,2.017-0.672,2.017-1.502
		c0-0.988-1.219-1.423-2.333-1.818c-1.45-0.494-3.046-1.146-3.046-2.767c0-1.541,1.303-2.727,3.509-2.727
		c1.282,0,2.395,0.494,3.173,1.086l-0.82,1.028c-0.693-0.494-1.429-0.85-2.332-0.85c-1.282,0-1.87,0.652-1.87,1.383
		c0,0.909,1.114,1.245,2.269,1.66c1.471,0.514,3.11,1.087,3.11,2.905c0,1.561-1.324,2.865-3.74,2.865
		c-1.45,0-2.837-0.573-3.803-1.324L174.66,46.574z"/>
	<path fill="#5B5B5B" d="M184.029,40.469h-1.513v-1.225l1.597-0.099l0.21-2.688h1.45v2.688h2.752v1.324h-2.752v5.335
		c0,1.186,0.399,1.857,1.576,1.857c0.357,0,0.819-0.138,1.156-0.257l0.336,1.225c-0.567,0.178-1.261,0.356-1.891,0.356
		c-2.185,0-2.92-1.304-2.92-3.201V40.469z"/>
	<path fill="#5B5B5B" d="M196.235,42.662c0-1.225-0.441-2.411-2.101-2.411c-1.198,0-2.248,0.514-3.046,1.028l-0.694-1.126
		c0.946-0.573,2.375-1.245,4.013-1.245c2.5,0,3.551,1.561,3.551,3.952v5.889h-1.429l-0.147-1.146h-0.042
		c-0.987,0.751-2.122,1.383-3.383,1.383c-1.723,0-3.004-1.008-3.004-2.727C189.953,44.164,191.886,43.116,196.235,42.662z
		 M193.44,47.681c0.987,0,1.807-0.455,2.794-1.285v-2.667c-3.425,0.395-4.581,1.186-4.581,2.411
		C191.654,47.227,192.432,47.681,193.44,47.681z"/>
	<path fill="#5B5B5B" d="M201.212,39.145h1.429l0.147,1.739h0.063c0.693-1.205,1.744-1.976,2.899-1.976
		c0.441,0,0.756,0.059,1.093,0.197l-0.336,1.423c-0.336-0.099-0.567-0.158-0.987-0.158c-0.861,0-1.891,0.593-2.584,2.213v6.165
		h-1.723V39.145z"/>
	<path fill="#5B5B5B" d="M208.017,46.574c0.882,0.672,1.786,1.146,3.005,1.146c1.345,0,2.017-0.672,2.017-1.502
		c0-0.988-1.219-1.423-2.333-1.818c-1.45-0.494-3.046-1.146-3.046-2.767c0-1.541,1.303-2.727,3.509-2.727
		c1.282,0,2.395,0.494,3.173,1.086l-0.82,1.028c-0.693-0.494-1.429-0.85-2.332-0.85c-1.282,0-1.87,0.652-1.87,1.383
		c0,0.909,1.114,1.245,2.269,1.66c1.471,0.514,3.11,1.087,3.11,2.905c0,1.561-1.324,2.865-3.74,2.865
		c-1.45,0-2.837-0.573-3.803-1.324L208.017,46.574z"/>
	<path fill="#5B5B5B" d="M227.113,42.662c0-1.225-0.441-2.411-2.101-2.411c-1.198,0-2.248,0.514-3.047,1.028l-0.693-1.126
		c0.946-0.573,2.375-1.245,4.013-1.245c2.5,0,3.551,1.561,3.551,3.952v5.889h-1.429l-0.147-1.146h-0.042
		c-0.987,0.751-2.122,1.383-3.383,1.383c-1.723,0-3.004-1.008-3.004-2.727C220.831,44.164,222.764,43.116,227.113,42.662z
		 M224.319,47.681c0.987,0,1.807-0.455,2.794-1.285v-2.667c-3.425,0.395-4.581,1.186-4.581,2.411
		C222.533,47.227,223.31,47.681,224.319,47.681z"/>
	<path fill="#5B5B5B" d="M232.09,39.145h1.429l0.147,1.383h0.063c0.966-0.909,2.017-1.62,3.425-1.62c2.143,0,3.11,1.304,3.11,3.754
		v6.086h-1.723v-5.869c0-1.798-0.588-2.569-1.933-2.569c-1.05,0-1.765,0.514-2.794,1.482v6.956h-1.723V39.145z"/>
	<path fill="#5B5B5B" d="M247.278,38.908c1.177,0,1.954,0.415,2.857,1.106l-0.084-1.64v-3.695h1.744v14.069h-1.429l-0.147-1.126
		h-0.063c-0.798,0.731-1.891,1.364-3.088,1.364c-2.563,0-4.224-1.818-4.224-5.019C242.845,40.844,244.946,38.908,247.278,38.908z
		 M247.446,47.622c0.946,0,1.765-0.435,2.605-1.324v-5.019c-0.861-0.731-1.639-1.008-2.479-1.008c-1.639,0-2.942,1.482-2.942,3.675
		C244.631,46.238,245.661,47.622,247.446,47.622z"/>
	<path fill="#5B5B5B" d="M259.334,39.145h1.744v5.869c0,1.798,0.567,2.569,1.912,2.569c1.05,0,1.786-0.494,2.752-1.62v-6.817h1.723
		v9.604h-1.429l-0.147-1.502h-0.063c-0.945,1.047-1.954,1.739-3.362,1.739c-2.164,0-3.131-1.304-3.131-3.754V39.145z"/>
	<path fill="#5B5B5B" d="M272.631,49.558v3.241h-1.723V39.145h1.429l0.147,1.106h0.063c0.924-0.731,2.059-1.343,3.257-1.343
		c2.626,0,4.034,1.917,4.034,4.9c0,3.26-2.08,5.177-4.413,5.177c-0.945,0-1.891-0.415-2.836-1.107L272.631,49.558z M275.132,47.622
		c1.681,0,2.92-1.442,2.92-3.813c0-2.114-0.756-3.537-2.689-3.537c-0.861,0-1.723,0.455-2.731,1.304v5.039
		C273.556,47.345,274.459,47.622,275.132,47.622z"/>
</g>
<g>
	<path fill="#5B5B5B" d="M159.368,77.264c4.034-3.774,6.304-6.046,6.304-8.082c0-1.442-0.841-2.47-2.542-2.47
		c-1.114,0-2.08,0.672-2.857,1.521l-0.988-0.929c1.114-1.146,2.312-1.917,4.055-1.917c2.479,0,4.013,1.482,4.013,3.715
		c0,2.372-2.29,4.723-5.463,7.845c0.735-0.06,1.555-0.119,2.248-0.119h3.887v1.403h-8.657V77.264z"/>
	<path fill="#5B5B5B" d="M174.66,76.059c0.882,0.672,1.786,1.146,3.005,1.146c1.345,0,2.017-0.672,2.017-1.502
		c0-0.988-1.219-1.423-2.333-1.818c-1.45-0.494-3.046-1.146-3.046-2.767c0-1.541,1.303-2.727,3.509-2.727
		c1.282,0,2.395,0.494,3.173,1.086l-0.82,1.028c-0.693-0.494-1.429-0.85-2.332-0.85c-1.282,0-1.87,0.652-1.87,1.383
		c0,0.909,1.114,1.245,2.269,1.66c1.471,0.514,3.11,1.087,3.11,2.905c0,1.561-1.324,2.865-3.74,2.865
		c-1.45,0-2.837-0.573-3.803-1.324L174.66,76.059z"/>
	<path fill="#5B5B5B" d="M184.029,69.953h-1.513v-1.225l1.597-0.099l0.21-2.688h1.45v2.688h2.752v1.324h-2.752v5.335
		c0,1.186,0.399,1.857,1.576,1.857c0.357,0,0.819-0.138,1.156-0.257l0.336,1.225c-0.567,0.178-1.261,0.356-1.891,0.356
		c-2.185,0-2.92-1.304-2.92-3.201V69.953z"/>
	<path fill="#5B5B5B" d="M196.235,72.146c0-1.225-0.441-2.411-2.101-2.411c-1.198,0-2.248,0.514-3.046,1.028l-0.694-1.126
		c0.946-0.573,2.375-1.245,4.013-1.245c2.5,0,3.551,1.561,3.551,3.952v5.889h-1.429l-0.147-1.146h-0.042
		c-0.987,0.751-2.122,1.383-3.383,1.383c-1.723,0-3.004-1.008-3.004-2.727C189.953,73.648,191.886,72.601,196.235,72.146z
		 M193.44,77.166c0.987,0,1.807-0.455,2.794-1.285v-2.667c-3.425,0.395-4.581,1.186-4.581,2.411
		C191.654,76.711,192.432,77.166,193.44,77.166z"/>
	<path fill="#5B5B5B" d="M201.212,68.629h1.429l0.147,1.739h0.063c0.693-1.205,1.744-1.976,2.899-1.976
		c0.441,0,0.756,0.059,1.093,0.197l-0.336,1.423c-0.336-0.099-0.567-0.158-0.987-0.158c-0.861,0-1.891,0.593-2.584,2.213v6.165
		h-1.723V68.629z"/>
	<path fill="#5B5B5B" d="M208.017,76.059c0.882,0.672,1.786,1.146,3.005,1.146c1.345,0,2.017-0.672,2.017-1.502
		c0-0.988-1.219-1.423-2.333-1.818c-1.45-0.494-3.046-1.146-3.046-2.767c0-1.541,1.303-2.727,3.509-2.727
		c1.282,0,2.395,0.494,3.173,1.086l-0.82,1.028c-0.693-0.494-1.429-0.85-2.332-0.85c-1.282,0-1.87,0.652-1.87,1.383
		c0,0.909,1.114,1.245,2.269,1.66c1.471,0.514,3.11,1.087,3.11,2.905c0,1.561-1.324,2.865-3.74,2.865
		c-1.45,0-2.837-0.573-3.803-1.324L208.017,76.059z"/>
	<path fill="#5B5B5B" d="M227.113,72.146c0-1.225-0.441-2.411-2.101-2.411c-1.198,0-2.248,0.514-3.047,1.028l-0.693-1.126
		c0.946-0.573,2.375-1.245,4.013-1.245c2.5,0,3.551,1.561,3.551,3.952v5.889h-1.429l-0.147-1.146h-0.042
		c-0.987,0.751-2.122,1.383-3.383,1.383c-1.723,0-3.004-1.008-3.004-2.727C220.831,73.648,222.764,72.601,227.113,72.146z
		 M224.319,77.166c0.987,0,1.807-0.455,2.794-1.285v-2.667c-3.425,0.395-4.581,1.186-4.581,2.411
		C222.533,76.711,223.31,77.166,224.319,77.166z"/>
	<path fill="#5B5B5B" d="M232.09,68.629h1.429l0.147,1.383h0.063c0.966-0.909,2.017-1.62,3.425-1.62c2.143,0,3.11,1.304,3.11,3.754
		v6.086h-1.723v-5.869c0-1.798-0.588-2.569-1.933-2.569c-1.05,0-1.765,0.514-2.794,1.482v6.956h-1.723V68.629z"/>
	<path fill="#5B5B5B" d="M247.278,68.392c1.177,0,1.954,0.415,2.857,1.106l-0.084-1.64v-3.695h1.744v14.069h-1.429l-0.147-1.126
		h-0.063c-0.798,0.731-1.891,1.364-3.088,1.364c-2.563,0-4.224-1.818-4.224-5.019C242.845,70.329,244.946,68.392,247.278,68.392z
		 M247.446,77.106c0.946,0,1.765-0.435,2.605-1.324v-5.019c-0.861-0.731-1.639-1.008-2.479-1.008c-1.639,0-2.942,1.482-2.942,3.675
		C244.631,75.723,245.661,77.106,247.446,77.106z"/>
	<path fill="#5B5B5B" d="M259.334,68.629h1.744v5.869c0,1.798,0.567,2.569,1.912,2.569c1.05,0,1.786-0.494,2.752-1.62v-6.817h1.723
		v9.604h-1.429l-0.147-1.502h-0.063c-0.945,1.047-1.954,1.739-3.362,1.739c-2.164,0-3.131-1.304-3.131-3.754V68.629z"/>
	<path fill="#5B5B5B" d="M272.631,79.042v3.241h-1.723V68.629h1.429l0.147,1.106h0.063c0.924-0.731,2.059-1.343,3.257-1.343
		c2.626,0,4.034,1.917,4.034,4.9c0,3.26-2.08,5.177-4.413,5.177c-0.945,0-1.891-0.415-2.836-1.107L272.631,79.042z M275.132,77.106
		c1.681,0,2.92-1.442,2.92-3.813c0-2.114-0.756-3.537-2.689-3.537c-0.861,0-1.723,0.455-2.731,1.304v5.039
		C273.556,76.83,274.459,77.106,275.132,77.106z"/>
</g>
<g>
	<path fill="#5B5B5B" d="M160.187,105.828h3.068v-9.287h-2.438v-1.047c1.219-0.198,2.102-0.514,2.837-0.929h1.324v11.263h2.773
		v1.344h-7.564V105.828z"/>
	<path fill="#5B5B5B" d="M174.66,104.998c0.882,0.672,1.786,1.146,3.005,1.146c1.345,0,2.017-0.672,2.017-1.502
		c0-0.988-1.219-1.423-2.333-1.818c-1.45-0.494-3.046-1.146-3.046-2.767c0-1.541,1.303-2.727,3.509-2.727
		c1.282,0,2.395,0.494,3.173,1.086l-0.82,1.028c-0.693-0.494-1.429-0.85-2.332-0.85c-1.282,0-1.87,0.652-1.87,1.383
		c0,0.909,1.114,1.245,2.269,1.66c1.471,0.514,3.11,1.087,3.11,2.905c0,1.561-1.324,2.865-3.74,2.865
		c-1.45,0-2.837-0.573-3.803-1.324L174.66,104.998z"/>
	<path fill="#5B5B5B" d="M184.029,98.892h-1.513v-1.225l1.597-0.099l0.21-2.688h1.45v2.688h2.752v1.324h-2.752v5.335
		c0,1.186,0.399,1.857,1.576,1.857c0.357,0,0.819-0.138,1.156-0.257l0.336,1.225c-0.567,0.178-1.261,0.356-1.891,0.356
		c-2.185,0-2.92-1.304-2.92-3.201V98.892z"/>
	<path fill="#5B5B5B" d="M196.235,101.085c0-1.225-0.441-2.411-2.101-2.411c-1.198,0-2.248,0.514-3.046,1.028l-0.694-1.126
		c0.946-0.573,2.375-1.245,4.013-1.245c2.5,0,3.551,1.561,3.551,3.952v5.889h-1.429l-0.147-1.146h-0.042
		c-0.987,0.751-2.122,1.383-3.383,1.383c-1.723,0-3.004-1.008-3.004-2.727C189.953,102.587,191.886,101.54,196.235,101.085z
		 M193.44,106.104c0.987,0,1.807-0.455,2.794-1.285v-2.667c-3.425,0.395-4.581,1.186-4.581,2.411
		C191.654,105.65,192.432,106.104,193.44,106.104z"/>
	<path fill="#5B5B5B" d="M201.212,97.568h1.429l0.147,1.739h0.063c0.693-1.205,1.744-1.976,2.899-1.976
		c0.441,0,0.756,0.059,1.093,0.197l-0.336,1.423c-0.336-0.099-0.567-0.158-0.987-0.158c-0.861,0-1.891,0.593-2.584,2.213v6.165
		h-1.723V97.568z"/>
	<path fill="#5B5B5B" d="M218.521,101.085c0-1.225-0.441-2.411-2.101-2.411c-1.198,0-2.248,0.514-3.047,1.028l-0.693-1.126
		c0.946-0.573,2.375-1.245,4.013-1.245c2.5,0,3.551,1.561,3.551,3.952v5.889h-1.429l-0.147-1.146h-0.042
		c-0.987,0.751-2.122,1.383-3.383,1.383c-1.723,0-3.004-1.008-3.004-2.727C212.239,102.587,214.172,101.54,218.521,101.085z
		 M215.727,106.104c0.987,0,1.807-0.455,2.794-1.285v-2.667c-3.425,0.395-4.581,1.186-4.581,2.411
		C213.941,105.65,214.718,106.104,215.727,106.104z"/>
	<path fill="#5B5B5B" d="M223.499,97.568h1.429l0.147,1.383h0.063c0.966-0.909,2.017-1.62,3.425-1.62c2.143,0,3.11,1.304,3.11,3.754
		v6.086h-1.723v-5.869c0-1.798-0.588-2.569-1.933-2.569c-1.05,0-1.765,0.514-2.794,1.482v6.956h-1.723V97.568z"/>
	<path fill="#5B5B5B" d="M238.687,97.331c1.177,0,1.954,0.415,2.857,1.106l-0.084-1.64v-3.695h1.744v14.069h-1.429l-0.147-1.126
		h-0.063c-0.798,0.731-1.891,1.364-3.088,1.364c-2.563,0-4.224-1.818-4.224-5.019C234.253,99.267,236.355,97.331,238.687,97.331z
		 M238.855,106.045c0.946,0,1.765-0.435,2.605-1.324v-5.019c-0.861-0.731-1.639-1.008-2.479-1.008c-1.639,0-2.941,1.482-2.941,3.675
		C236.04,104.662,237.069,106.045,238.855,106.045z"/>
	<path fill="#5B5B5B" d="M250.743,97.568h1.744v5.869c0,1.798,0.567,2.569,1.912,2.569c1.05,0,1.786-0.494,2.752-1.62v-6.817h1.723
		v9.604h-1.429l-0.147-1.502h-0.063c-0.945,1.047-1.954,1.739-3.362,1.739c-2.164,0-3.131-1.304-3.131-3.754V97.568z"/>
	<path fill="#5B5B5B" d="M264.04,107.981v3.241h-1.723V97.568h1.429l0.147,1.106h0.063c0.924-0.731,2.059-1.343,3.257-1.343
		c2.626,0,4.034,1.917,4.034,4.9c0,3.26-2.08,5.177-4.413,5.177c-0.945,0-1.891-0.415-2.836-1.107L264.04,107.981z M266.541,106.045
		c1.681,0,2.92-1.442,2.92-3.813c0-2.114-0.756-3.537-2.689-3.537c-0.861,0-1.723,0.455-2.731,1.304v5.039
		C264.964,105.769,265.868,106.045,266.541,106.045z"/>
</g>
</svg>
