<?xml version="1.0" encoding="UTF-8"?>
<svg width="20px" height="20px" viewBox="0 0 20 20" version="1.1" xmlns="http://www.w3.org/2000/svg" xmlns:xlink="http://www.w3.org/1999/xlink">
    <!-- Generator: sketchtool 52.3 (67297) - http://www.bohemiancoding.com/sketch -->
    <title>D8A6260B-6F46-4E39-B63B-2E2F5DFCEF18@3x</title>
    <desc>Created with sketchtool.</desc>
    <defs>
        <rect id="path-1" x="0" y="0" width="20" height="20" rx="3"></rect>
    </defs>
    <g id="Website" stroke="none" stroke-width="1" fill="none" fill-rule="evenodd" opacity="0.450962612">
        <g id="New-Footer" transform="translate(-586.000000, -632.000000)">
            <g id="Github" transform="translate(586.000000, 632.000000)">
                <g id="github-logo">
                    <mask id="mask-2" fill="white">
                        <use xlink:href="#path-1"></use>
                    </mask>
                    <use id="Mask" fill="#FFFFFF" fill-rule="nonzero" xlink:href="#path-1"></use>
                    <g mask="url(#mask-2)" fill="#0A1221" fill-rule="nonzero" id="Shape">
                        <g transform="translate(3.333333, 4.666667)">
                            <path d="M8.97043478,6.60115942 C8.45014493,6.60115942 8.02811594,7.18463768 8.02811594,7.90492754 C8.02811594,8.62536232 8.45014493,9.20913043 8.97043478,9.20913043 C9.49043478,9.20913043 9.91217391,8.62536232 9.91217391,7.90492754 C9.91231884,7.18463768 9.49043478,6.60115942 8.97043478,6.60115942 Z M12.2502899,3.20753623 C12.3575362,2.94289855 12.3628986,1.43927536 11.7908696,0 C11.7908696,0 10.4782609,0.143913043 8.49231884,1.50666667 C8.07608696,1.39173913 7.37115942,1.3342029 6.66666667,1.3342029 C5.96217391,1.3342029 5.25753623,1.3915942 4.84086957,1.50652174 C2.85492754,0.143913043 1.54275362,0 1.54275362,0 C0.97057971,1.43927536 0.975652174,2.94289855 1.08304348,3.20753623 C0.410724638,3.93753623 0,4.8142029 0,6.01202899 C0,11.2195652 4.32014493,11.3030435 5.41072464,11.3030435 C5.65753623,11.3030435 6.14811594,11.3036232 6.66666667,11.3043478 C7.18521739,11.3036232 7.67608696,11.3030435 7.9226087,11.3030435 C9.01318841,11.3030435 13.3333333,11.2195652 13.3333333,6.01202899 C13.3333333,4.8142029 12.9226087,3.93753623 12.2502899,3.20753623 Z M6.68710145,10.6628986 L6.64637681,10.6628986 C3.91318841,10.6628986 1.78478261,10.3365217 1.78478261,7.68028986 C1.78478261,7.0442029 2.00927536,6.45347826 2.5426087,5.96333333 C3.4326087,5.14652174 4.93782609,5.57913043 6.64637681,5.57913043 C6.65289855,5.57913043 6.65985507,5.57898551 6.66681159,5.57869565 C6.67391304,5.57898551 6.68072464,5.57913043 6.68724638,5.57913043 C8.3957971,5.57913043 9.90144928,5.14666667 10.7910145,5.96333333 C11.3243478,6.45347826 11.5488406,7.0442029 11.5488406,7.68028986 C11.5486957,10.3365217 9.42028986,10.6628986 6.68710145,10.6628986 Z M4.36289855,6.60115942 C3.84289855,6.60115942 3.42115942,7.18463768 3.42115942,7.90492754 C3.42115942,8.62536232 3.84289855,9.20913043 4.36289855,9.20913043 C4.88347826,9.20913043 5.30521739,8.62536232 5.30521739,7.90492754 C5.30507246,7.18463768 4.88333333,6.60115942 4.36289855,6.60115942 Z"></path>
                        </g>
                    </g>
                </g>
            </g>
        </g>
    </g>
</svg>