<?xml version="1.0" encoding="UTF-8"?>
<svg width="20px" height="20px" viewBox="0 0 20 20" version="1.1" xmlns="http://www.w3.org/2000/svg" xmlns:xlink="http://www.w3.org/1999/xlink">
    <!-- Generator: sketchtool 52.3 (67297) - http://www.bohemiancoding.com/sketch -->
    <title>A4C7DBB0-DDA6-43AD-8A8E-8CA4F2DD767E@3x</title>
    <desc>Created with sketchtool.</desc>
    <g id="Website" stroke="none" stroke-width="1" fill="none" fill-rule="evenodd">
        <g id="New-Footer" transform="translate(-1897.000000, -2424.000000)">
            <g id="Group-68" transform="translate(1719.000000, 906.000000)">
                <g id="Group-67" transform="translate(147.000000, 1518.000000)">
                    <g id="Medium" transform="translate(31.000000, 0.000000)">
                        <rect id="Rectangle-Copy-7" fill="#FFFFFF" fill-rule="nonzero" opacity="0.450962612" x="0" y="0" width="20" height="20" rx="3"></rect>
                        <g id="medium-size" transform="translate(3.333333, 5.333333)" fill="#0A1221">
                            <path d="M12.6630028,1.36991047 L11.9642686,1.36991047 C11.7823292,1.36991047 11.3062562,1.56755234 11.3062562,1.73580441 L11.3062562,7.84582231 C11.3062562,8.01449311 11.7823292,8.15277961 11.9642686,8.15277961 L12.6630028,8.15277961 L12.6630028,9.50934298 L8.14047934,9.50934298 L8.14047934,8.15277961 L9.04520386,8.15277961 L9.04520386,1.82188017 L8.88776033,1.82188017 L6.71071625,9.5093168 L5.02515978,9.5093168 L2.87627548,1.82188017 L2.71351928,1.82188017 L2.71351928,8.15275344 L3.61785124,8.15275344 L3.61785124,9.5093168 L0,9.50934298 L0,8.15275344 L0.501772727,8.15275344 C0.698760331,8.15275344 0.904358127,8.01449311 0.904358127,7.84579614 L0.904358127,1.73580441 C0.904358127,1.56752617 0.698786501,1.36991047 0.501772727,1.36991047 L0,1.36991047 L0,0.0131900826 L4.68862948,0.0131900826 L6.21951653,5.43949587 L6.26070937,5.43949587 L7.80669697,0.0131900826 L12.6630028,0.0131900826 L12.6630028,1.36991047 Z" id="Path"></path>
                        </g>
                    </g>
                </g>
            </g>
        </g>
    </g>
</svg>