<?xml version="1.0" encoding="UTF-8"?>
<svg width="20px" height="20px" viewBox="0 0 20 20" version="1.1" xmlns="http://www.w3.org/2000/svg" xmlns:xlink="http://www.w3.org/1999/xlink">
    <!-- Generator: sketchtool 52.3 (67297) - http://www.bohemiancoding.com/sketch -->
    <title>4AB85AF0-C267-491B-B1CD-2429E110EB13@3x</title>
    <desc>Created with sketchtool.</desc>
    <g id="Website" stroke="none" stroke-width="1" fill="none" fill-rule="evenodd">
        <g id="New-Footer" transform="translate(-1251.000000, -2446.000000)">
            <g id="Group-2" transform="translate(1190.000000, 2446.000000)">
                <g id="Twitter-Copy" transform="translate(61.000000, 0.000000)">
                    <rect id="Rectangle-Copy-9" fill="#FFFFFF" fill-rule="nonzero" opacity="0.450962612" x="0" y="0" width="20" height="20" rx="3"></rect>
                    <g id="twitter" transform="translate(4.000000, 5.333333)" fill="#0A1221">
                        <path d="M12.4395912,1.23831306 C12.1587364,1.3628532 11.8671873,1.46110462 11.568026,1.5322352 C11.8976675,1.21898946 12.145515,0.827185726 12.2853414,0.389862125 C12.3252522,0.265013788 12.189648,0.157054339 12.0769116,0.223901054 C11.6607299,0.470762368 11.2124347,0.655954582 10.7444461,0.774392539 C10.7172944,0.781265207 10.6892798,0.78474777 10.6611727,0.78474777 C10.575927,0.78474777 10.4930543,0.753096513 10.4278719,0.695649635 C9.92995783,0.256815896 9.28956691,0.0151321979 8.6247056,0.0151321979 C8.33700892,0.0151321979 8.04653852,0.059974047 7.7613382,0.14842498 C6.87769181,0.422499594 6.19587997,1.15140308 5.98196431,2.0507056 C5.90171127,2.38802109 5.87998378,2.72564477 5.91733658,3.0541768 C5.92162044,3.09193025 5.90377616,3.11828062 5.89277372,3.13063909 C5.87345012,3.15230495 5.84605191,3.16472506 5.81760584,3.16472506 C5.81443147,3.16472506 5.81116464,3.16457097 5.80792863,3.16426277 C3.87365775,2.98455637 2.12941768,2.05267802 0.896497972,0.540321168 C0.833626926,0.46318086 0.713062449,0.472642336 0.662950527,0.558596918 C0.421513382,0.972806164 0.293922141,1.44655799 0.293922141,1.92863098 C0.293922141,2.66742741 0.590741281,3.36366261 1.10631468,3.87122303 C0.889502028,3.81981671 0.679654501,3.73885483 0.484723439,3.63058719 C0.390416869,3.57819465 0.274382806,3.64553447 0.273057583,3.75340146 C0.2595588,4.85093268 0.902137875,5.8275296 1.8647429,6.26728792 C1.84535766,6.2677502 1.82597242,6.26796594 1.80655637,6.26796594 C1.6539708,6.26796594 1.49947445,6.25323439 1.34741281,6.22417194 C1.24121006,6.20389294 1.15198865,6.30464071 1.18496513,6.40760746 C1.49740957,7.38306407 2.33729278,8.10207461 3.34236659,8.2653236 C2.50821573,8.82527656 1.53682725,9.1206472 0.525805353,9.1206472 L0.210618005,9.12046229 C0.113506894,9.12046229 0.0313738848,9.1837648 0.00662611517,9.27782482 C-0.0177518248,9.37046715 0.0271516626,9.46819465 0.109962693,9.51636496 C1.24922303,10.1793771 2.54871208,10.5297908 3.86851095,10.5297908 C5.02376642,10.5297908 6.10440876,10.3005272 7.08045093,9.84841038 C7.97522303,9.43392376 8.7659189,8.84142579 9.43056448,8.08737388 C10.049721,7.38494404 10.5338897,6.57406164 10.8695718,5.67728629 C11.1895669,4.8224558 11.3587024,3.91033252 11.3587024,3.03950689 L11.3587024,2.99802433 C11.3586715,2.85819789 11.4219124,2.72663098 11.5322449,2.63707056 C11.950923,2.29713544 12.3155134,1.89697972 12.6158459,1.44772912 C12.6951436,1.32910624 12.5700795,1.18043471 12.4395912,1.23831306 Z" id="Path"></path>
                    </g>
                </g>
            </g>
        </g>
    </g>
</svg>