<?xml version="1.0" encoding="UTF-8"?>
<svg width="101px" height="120px" viewBox="0 0 101 120" version="1.1" xmlns="http://www.w3.org/2000/svg" xmlns:xlink="http://www.w3.org/1999/xlink">
    <!-- Generator: sketchtool 49.3 (51167) - http://www.bohemiancoding.com/sketch -->
    <title>BD6C64F6-5235-4000-89C2-257471D99627@3x</title>
    <desc>Created with sketchtool.</desc>
    <defs>
        <polygon id="path-1" points="0 120 101 120 101 0 0 0"></polygon>
    </defs>
    <g id="Page-1" stroke="none" stroke-width="1" fill="none" fill-rule="evenodd">
        <g id="Reactive-Maps-Redesign-Page" transform="translate(-156.000000, -5414.000000)">
            <g id="Documentation" transform="translate(55.000000, 5355.000000)">
                <g transform="translate(101.000000, 59.000000)">
                    <rect id="Rectangle-8-Copy-11" fill="#BEFFD2" x="0" y="13" width="88" height="106"></rect>
                    <path d="M22.494855,89.9620073 L22.494855,77.0302722 L27.6884939,77.0302722 C29.3161833,77.0302722 30.352666,77.4085738 30.7904584,78.169037 C31.2319925,78.9295002 31.4565014,80.7131789 31.4565014,83.5154409 C31.4565014,86.2253149 31.2095416,87.9778545 30.7193639,88.7691995 C30.2291862,89.5644047 29.1478017,89.9620073 27.4752105,89.9620073 L22.494855,89.9620073 Z M33.7614593,90.9733848 C34.5921422,89.622308 35,86.5727347 35,81.8323852 C35,78.9295002 34.4873714,76.8990248 33.4583723,75.7370987 C32.4293732,74.5751727 30.6258185,74 28.0551918,74 L19,74 L19,93 L28.1599626,93 C31.0673527,92.9961398 32.9307764,92.3206014 33.7614593,90.9733848 Z" id="Fill-1" fill="#0033FF"></path>
                    <path d="M41.2906236,77.9494283 C41.6968594,77.3386137 43.120619,77.0353563 45.5464269,77.0353563 C47.8909877,77.0353563 49.2760583,77.3198972 49.6977697,77.8925201 C50.1194811,78.4653958 50.3322713,80.3132679 50.3322713,83.4391715 C50.3322713,86.5577402 50.1078744,88.4243287 49.6629495,89.0427311 C49.2180246,89.6613863 47.8716431,89.9686905 45.6276741,89.9686905 C43.2869822,89.9686905 41.8709604,89.6952783 41.3950842,89.1454187 C40.9153391,88.5953062 40.6754665,86.9864485 40.6754665,84.3041759 C40.6793355,80.6772274 40.8805189,78.5642896 41.2906236,77.9494283 M45.2407829,93 C49.0787437,93 51.4968138,92.4458407 52.502731,91.3342341 C53.5009103,90.2190865 54,87.5251794 54,83.2456836 C54,79.3344471 53.5009103,76.8153113 52.5065999,75.6885292 C51.5122895,74.5614941 49.2837961,74 45.8211197,74 C41.9367319,74 39.4915794,74.5690819 38.497269,75.7110395 C37.4990897,76.8529972 37,79.6452923 37,84.0957655 C37,87.8365304 37.5068275,90.2567724 38.5243514,91.3532035 C39.5457442,92.4536814 41.7819754,93 45.2407829,93" id="Fill-3" fill="#0033FF"></path>
                    <path d="M63.1750421,93 C66.4681414,93 68.5955759,92.6206121 69.5573455,91.8577894 C70.5191152,91.0954726 71,89.4145312 71,86.8159769 L71,86.1748113 L67.3952873,86.1748113 L67.4222169,87.0092118 C67.4222169,88.2500632 67.1606155,89.0505717 66.6258716,89.418578 C66.0911277,89.7825375 64.9370041,89.9686905 63.1519596,89.9686905 C60.9514306,89.9686905 59.647271,89.638623 59.2471748,88.982029 C58.8429751,88.3221469 58.6431835,86.2087033 58.6431835,82.6313281 C58.6431835,79.9794066 58.8660575,78.3819305 59.3164222,77.8431996 C59.7665304,77.3044688 61.1053138,77.0353563 63.3325158,77.0353563 C64.9983009,77.0353563 66.0641981,77.2060809 66.5296946,77.5472771 C66.9990382,77.892773 67.2334536,78.6740592 67.2334536,79.8956883 L67.2334536,80.3737171 L70.8422698,80.3737171 L70.8268815,79.9525965 C70.8268815,77.5776281 70.3726697,75.9958334 69.4647592,75.195072 C68.5609522,74.3986102 66.7566723,74 64.0560231,74 C60.3474393,74 57.911982,74.4856165 56.7465737,75.4571025 C55.5809089,76.4318766 55,78.458061 55,81.5422319 C55,86.7777852 55.4270257,89.9990415 56.2885149,91.2017013 C57.150517,92.404361 59.4431193,93 63.1750421,93" id="Fill-5" fill="#0033FF"></path>
                    <mask id="mask-2" fill="white">
                        <use xlink:href="#path-1"></use>
                    </mask>
                    <g id="Clip-8"></g>
                    <path d="M7.51823731,112.5 L82.4672944,112.5 L82.4672944,18.4725 L7.51823731,18.4725 L7.51823731,112.5 Z M89.9855317,112.7775 L101,112.7775 L101,0 L8.28885663,0 L8.28885663,10.9725 L15.8070939,10.9725 L15.8070939,7.5 L93.4817627,7.5 L93.4817627,105.2775 L89.9855317,105.2775 L89.9855317,10.9725 L0,10.9725 L0,120 L89.9855317,120 L89.9855317,112.7775 Z" id="Fill-7" fill="#0033FF" mask="url(#mask-2)"></path>
                </g>
            </g>
        </g>
    </g>
</svg>