<svg xmlns="http://www.w3.org/2000/svg" width="284.334" height="382.481" viewBox="0 0 284.334 382.481"><path fill="none" stroke="#333" stroke-miterlimit="10" d="M114.508 16.424l-5.7 5.364-5.699-5.364m5.698 266.55l5.701 5.363-5.701 5.363m94.005 27.494l5.7 5.364-5.7 5.363m-97.486 26.402l5.7 5.364-5.7 5.363"/><text transform="matrix(1.0627 0 0 1 9.271 293.348)" fill="#5B5B5B" font-family="'SourceSansPro-Regular'" font-size="19.766">opel (538)</text><text transform="matrix(1.0627 0 0 1 9.271 331.761)" fill="#5B5B5B" font-family="'SourceSansPro-Regular'" font-size="19.766">mercedes benz (464)</text><text transform="matrix(1.0627 0 0 1 9.271 370.173)" fill="#5B5B5B" font-family="'SourceSansPro-Regular'" font-size="19.766">audi (456)</text><text transform="matrix(1.0627 0 0 1 9.271 24.462)" fill="#5B5B5B" font-family="'SourceSansPro-Semibold'" font-size="19.766">ford (349)</text><text transform="matrix(1.0627 0 0 1 30.163 62.875)" fill="#5B5B5B" font-family="'SourceSansPro-Regular'" font-size="19.766">fiesta (81)</text><text transform="matrix(1.0627 0 0 1 30.163 101.288)" fill="#5B5B5B" font-family="'SourceSansPro-Regular'" font-size="19.766">focus (76)</text><text transform="matrix(1.0627 0 0 1 30.163 139.7)" fill="#5B5B5B" font-family="'SourceSansPro-Regular'" font-size="19.766">mondeo (52)</text><text transform="matrix(1.0627 0 0 1 30.163 178.112)" fill="#5B5B5B" font-family="'SourceSansPro-Regular'" font-size="19.766">ka (38)</text><text transform="matrix(1.0627 0 0 1 30.163 216.525)" fill="#5B5B5B" font-family="'SourceSansPro-Regular'" font-size="19.766">other (20)</text><text transform="matrix(1.0627 0 0 1 30.163 254.937)" fill="#5B5B5B" font-family="'SourceSansPro-Regular'" font-size="19.766">escort (16)</text></svg>