<svg xmlns="http://www.w3.org/2000/svg" width="284.334" height="382.48" viewBox="0 0 284.334 382.48"><path fill="#333" d="M108.808 22.475l-6.042-5.687.686-.728 5.356 5.042 5.357-5.042.686.728zm.342 271.59l-.686-.729 5.314-4.999-5.314-4.999.686-.728 6.087 5.727zm94.004 38.22l-.685-.728 5.314-4.999-5.314-5 .685-.729 6.088 5.729zm-97.485 37.129l-.686-.728 5.313-4.999-5.313-4.999.686-.729 6.086 5.728z"/><path d="M14.965 283.508c2.5 0 4.728 1.837 4.728 5.059 0 3.181-2.228 5.019-4.728 5.019-2.5 0-4.728-1.838-4.728-5.019.001-3.222 2.228-5.059 4.728-5.059zm0 8.733c1.765 0 2.942-1.481 2.942-3.675 0-2.214-1.177-3.716-2.942-3.716-1.744 0-2.941 1.502-2.941 3.716 0 2.194 1.198 3.675 2.941 3.675zm9.137 1.917v3.24h-1.723v-13.654h1.429l.147 1.106h.063c.924-.731 2.059-1.343 3.257-1.343 2.626 0 4.034 1.916 4.034 4.9 0 3.26-2.08 5.177-4.413 5.177-.945 0-1.891-.415-2.836-1.106l.042 1.68zm2.501-1.937c1.681 0 2.92-1.441 2.92-3.812 0-2.115-.756-3.537-2.689-3.537-.861 0-1.723.454-2.731 1.304v5.038c.923.732 1.827 1.007 2.5 1.007zm11.258-8.713c2.605 0 4.076 1.758 4.076 4.504 0 .336-.021.652-.063.891h-6.892c.126 2.074 1.45 3.379 3.404 3.379.966 0 1.786-.297 2.542-.752l.609 1.067c-.883.534-1.975.988-3.362.988-2.731 0-4.896-1.878-4.896-5.019.001-3.142 2.25-5.058 4.582-5.058zm2.563 4.326c0-1.955-.924-3.043-2.521-3.043-1.429 0-2.731 1.107-2.941 3.043h5.462zm4.031-8.555h1.723v12.251c0 .514.231.712.483.712.105 0 .189 0 .378-.04l.231 1.226c-.231.099-.525.158-.988.158-1.303 0-1.828-.771-1.828-2.174v-12.133zm9.599 8.576c0-3.478 1.029-6.323 2.773-8.972l1.071.475c-1.618 2.51-2.416 5.493-2.416 8.497 0 3.003.798 5.987 2.416 8.497l-1.071.474c-1.744-2.648-2.773-5.494-2.773-8.971zm6.007 2.944c.798.75 1.807 1.442 3.383 1.442 1.639 0 2.941-1.126 2.941-2.886 0-1.738-1.134-2.766-2.857-2.766-.924 0-1.492.276-2.29.771l-.925-.554.441-6.066h6.703v1.403h-5.19l-.357 3.735c.63-.316 1.24-.514 2.059-.514 2.29 0 4.16 1.225 4.16 3.951s-2.185 4.269-4.518 4.269c-2.143 0-3.467-.851-4.391-1.72l.841-1.065zm10.502-.059c.798.79 1.849 1.502 3.425 1.502 1.618 0 2.773-.909 2.773-2.312 0-1.502-1.092-2.51-4.286-2.51v-1.245c2.857 0 3.803-1.028 3.803-2.352 0-1.226-.883-1.995-2.312-1.995-1.113 0-2.059.533-2.857 1.283l-.924-1.027c1.029-.908 2.269-1.58 3.845-1.58 2.333 0 4.013 1.166 4.013 3.201 0 1.521-.987 2.489-2.437 3.003v.079c1.618.355 2.899 1.463 2.899 3.201 0 2.232-1.954 3.597-4.413 3.597-2.143 0-3.509-.851-4.412-1.778l.883-1.067zm12.394-4.011v-.08c-.987-.651-1.87-1.58-1.87-2.904 0-1.937 1.639-3.24 3.803-3.24 2.332 0 3.782 1.402 3.782 3.359 0 1.323-1.03 2.449-1.849 3.043v.078c1.198.652 2.332 1.542 2.332 3.241 0 1.877-1.723 3.359-4.328 3.359-2.521 0-4.392-1.462-4.392-3.458.001-1.64 1.261-2.766 2.522-3.398zm1.912 5.65c1.555 0 2.626-.908 2.626-2.213 0-1.62-1.702-2.213-3.635-2.943-1.071.672-1.87 1.6-1.87 2.746.001 1.402 1.24 2.41 2.879 2.41zm2.311-8.437c0-1.244-.861-2.232-2.332-2.232-1.24 0-2.164.811-2.164 2.035 0 1.502 1.471 2.135 3.088 2.727.904-.751 1.408-1.601 1.408-2.53zm6.049 3.913c0-3.004-.798-5.987-2.417-8.497l1.072-.475c1.744 2.648 2.773 5.494 2.773 8.972s-1.03 6.323-2.773 8.971l-1.072-.474c1.618-2.51 2.417-5.494 2.417-8.497zm-82.234 34.302h1.429l.147 1.384h.063c.882-.91 1.954-1.621 3.173-1.621 1.555 0 2.395.691 2.815 1.838 1.072-1.087 2.122-1.838 3.362-1.838 2.101 0 3.11 1.305 3.11 3.755v6.086H23.37v-5.868c0-1.799-.609-2.569-1.891-2.569-.798 0-1.618.494-2.563 1.481v6.956h-1.723v-5.868c0-1.799-.609-2.569-1.912-2.569-.756 0-1.618.494-2.563 1.481v6.956h-1.723v-9.604zm21.236-.237c2.605 0 4.076 1.759 4.076 4.506 0 .336-.021.652-.063.889h-6.892c.126 2.075 1.45 3.379 3.404 3.379.966 0 1.786-.296 2.542-.75l.609 1.066c-.883.533-1.975.988-3.362.988-2.731 0-4.896-1.877-4.896-5.02.002-3.141 2.25-5.058 4.582-5.058zm2.564 4.328c0-1.957-.924-3.043-2.521-3.043-1.429 0-2.731 1.105-2.941 3.043h5.462zm4.031-4.091h1.429l.147 1.739h.063c.693-1.205 1.744-1.977 2.899-1.977.441 0 .756.06 1.093.197l-.336 1.424c-.336-.1-.567-.158-.987-.158-.861 0-1.891.592-2.584 2.213v6.165h-1.723v-9.603zm11.238-.237c1.345 0 2.29.533 2.983 1.146l-.861 1.047c-.609-.494-1.24-.85-2.059-.85-1.849 0-3.194 1.502-3.194 3.715 0 2.193 1.282 3.676 3.152 3.676.966 0 1.786-.455 2.395-.969l.777 1.067c-.924.771-2.101 1.245-3.319 1.245-2.71 0-4.791-1.838-4.791-5.02 0-3.219 2.291-5.057 4.917-5.057zm8.801 0c2.605 0 4.076 1.759 4.076 4.506 0 .336-.021.652-.063.889h-6.892c.126 2.075 1.45 3.379 3.404 3.379.966 0 1.786-.296 2.542-.75l.609 1.066c-.883.533-1.975.988-3.362.988-2.731 0-4.896-1.877-4.896-5.02.002-3.141 2.25-5.058 4.582-5.058zm2.564 4.328c0-1.957-.924-3.043-2.521-3.043-1.429 0-2.731 1.105-2.941 3.043h5.462zm7.729-4.328c1.177 0 1.954.415 2.857 1.107l-.084-1.641v-3.695h1.744v14.069h-1.429l-.147-1.126h-.063c-.798.73-1.891 1.363-3.088 1.363-2.563 0-4.224-1.818-4.224-5.02 0-3.12 2.102-5.057 4.434-5.057zm.168 8.715c.946 0 1.765-.436 2.605-1.324v-5.02c-.861-.73-1.639-1.008-2.479-1.008-1.639 0-2.942 1.482-2.942 3.676 0 2.292 1.03 3.676 2.816 3.676zm11.615-8.715c2.605 0 4.076 1.759 4.076 4.506 0 .336-.021.652-.063.889h-6.892c.126 2.075 1.45 3.379 3.404 3.379.966 0 1.786-.296 2.542-.75l.609 1.066c-.883.533-1.975.988-3.362.988-2.731 0-4.896-1.877-4.896-5.02.002-3.141 2.25-5.058 4.582-5.058zm2.564 4.328c0-1.957-.924-3.043-2.521-3.043-1.429 0-2.731 1.105-2.941 3.043h5.462zm3.757 3.339c.882.672 1.786 1.146 3.005 1.146 1.345 0 2.017-.672 2.017-1.502 0-.987-1.219-1.423-2.333-1.817-1.45-.494-3.046-1.146-3.046-2.768 0-1.541 1.303-2.727 3.509-2.727 1.282 0 2.395.494 3.173 1.087l-.82 1.028c-.693-.494-1.429-.85-2.332-.85-1.282 0-1.87.651-1.87 1.383 0 .908 1.114 1.244 2.269 1.66 1.471.514 3.11 1.086 3.11 2.904 0 1.561-1.324 2.865-3.74 2.865-1.45 0-2.837-.573-3.803-1.324l.861-1.085zm13.318-11.895h1.723v3.834l-.042 1.738c.924-.771 2.059-1.344 3.194-1.344 2.647 0 4.055 1.917 4.055 4.881 0 3.28-2.08 5.197-4.413 5.197-.945 0-2.017-.436-2.92-1.186h-.063l-.147.948h-1.387v-14.068zm4.223 12.943c1.681 0 2.92-1.443 2.92-3.814 0-2.113-.756-3.537-2.689-3.537-.861 0-1.765.455-2.731 1.305v5.039c.903.73 1.827 1.007 2.5 1.007zm11.258-8.715c2.605 0 4.076 1.759 4.076 4.506 0 .336-.021.652-.063.889h-6.892c.126 2.075 1.45 3.379 3.404 3.379.966 0 1.786-.296 2.542-.75l.609 1.066c-.883.533-1.975.988-3.362.988-2.731 0-4.896-1.877-4.896-5.02.001-3.141 2.25-5.058 4.582-5.058zm2.564 4.328c0-1.957-.924-3.043-2.521-3.043-1.429 0-2.731 1.105-2.941 3.043h5.462zm4.031-4.091h1.429l.147 1.384h.063c.966-.91 2.017-1.621 3.425-1.621 2.143 0 3.11 1.305 3.11 3.755v6.086h-1.723v-5.868c0-1.799-.588-2.569-1.933-2.569-1.05 0-1.765.514-2.794 1.481v6.956h-1.723v-9.604zm10.418 8.734l5.379-7.409h-4.791v-1.324h6.976v.87l-5.379 7.41h5.547v1.323h-7.732v-.87zm14.241-4.623c0-3.479 1.029-6.323 2.773-8.971l1.071.474c-1.618 2.51-2.416 5.493-2.416 8.497s.798 5.987 2.416 8.496l-1.071.475c-1.743-2.648-2.773-5.494-2.773-8.971zm14.497 2.015h-1.828v3.478h-1.64v-3.478h-6.03v-1.067l5.736-8.062h1.934v7.824h1.828v1.305zm-3.468-1.304v-3.655c0-.672.063-1.759.105-2.431h-.084c-.337.613-.715 1.166-1.093 1.778l-3.131 4.308h4.203zm12.435-5.711a3 3 0 0 0-2.206-.987c-1.87 0-3.445 1.363-3.529 5.354.84-.968 2.037-1.58 3.131-1.58 2.311 0 3.823 1.304 3.823 3.893 0 2.41-1.807 4.051-3.972 4.051-2.626 0-4.622-2.016-4.622-6.066 0-5.059 2.438-7.016 5.106-7.016 1.449 0 2.479.574 3.235 1.344l-.966 1.007zm-.42 6.68c0-1.641-.819-2.668-2.479-2.668-.84 0-1.891.475-2.795 1.66.211 2.45 1.24 3.773 2.941 3.773 1.325 0 2.333-1.105 2.333-2.765zm12.331.335h-1.828v3.478h-1.64v-3.478h-6.03v-1.067l5.736-8.062h1.934v7.824h1.828v1.305zm-3.467-1.304v-3.655c0-.672.063-1.759.105-2.431h-.084c-.337.613-.715 1.166-1.093 1.778l-3.131 4.308h4.203zm7.266-.711c0-3.004-.798-5.987-2.416-8.497l1.072-.474c1.743 2.647 2.773 5.492 2.773 8.971 0 3.478-1.03 6.323-2.773 8.971l-1.072-.475c1.618-2.509 2.416-5.492 2.416-8.496zM16.772 364.087c0-1.226-.441-2.411-2.101-2.411-1.198 0-2.248.514-3.046 1.027l-.694-1.126c.946-.573 2.375-1.245 4.013-1.245 2.5 0 3.551 1.562 3.551 3.952v5.889h-1.429l-.147-1.146h-.042c-.987.75-2.122 1.383-3.383 1.383-1.723 0-3.004-1.008-3.004-2.727 0-2.095 1.933-3.142 6.282-3.596zm-2.794 5.019c.987 0 1.807-.454 2.794-1.284v-2.667c-3.425.395-4.581 1.186-4.581 2.41.001 1.087.779 1.541 1.787 1.541zm7.624-8.536h1.744v5.868c0 1.799.567 2.569 1.912 2.569 1.05 0 1.786-.493 2.752-1.62v-6.817h1.723v9.604h-1.429l-.147-1.502h-.063c-.945 1.048-1.954 1.739-3.362 1.739-2.164 0-3.131-1.305-3.131-3.754v-6.087zm15.272-.238c1.177 0 1.954.415 2.857 1.107l-.084-1.641v-3.695h1.744v14.069h-1.429l-.147-1.126h-.063c-.798.73-1.891 1.363-3.088 1.363-2.563 0-4.224-1.818-4.224-5.02 0-3.12 2.102-5.057 4.434-5.057zm.168 8.715c.946 0 1.765-.436 2.605-1.324v-5.02c-.861-.73-1.639-1.008-2.479-1.008-1.639 0-2.942 1.482-2.942 3.676 0 2.292 1.03 3.676 2.816 3.676zm7.476-11.501c0-.632.525-1.047 1.198-1.047s1.198.415 1.198 1.047c0 .612-.525 1.048-1.198 1.048s-1.198-.436-1.198-1.048zm.315 3.024h1.723v9.604h-1.723v-9.604zm9.41 4.11c0-3.479 1.029-6.323 2.773-8.971l1.071.474c-1.618 2.51-2.416 5.493-2.416 8.497s.798 5.987 2.416 8.496l-1.071.475c-1.744-2.648-2.773-5.494-2.773-8.971zm14.496 2.016h-1.828v3.478h-1.639v-3.478h-6.03v-1.067l5.736-8.062h1.933v7.824h1.828v1.305zm-3.467-1.305v-3.655c0-.672.063-1.759.105-2.431h-.084c-.336.613-.715 1.166-1.093 1.778l-3.131 4.308h4.203zm5.417 2.233c.798.751 1.807 1.442 3.383 1.442 1.639 0 2.941-1.127 2.941-2.885 0-1.739-1.134-2.767-2.857-2.767-.924 0-1.492.276-2.29.771l-.925-.553.441-6.066h6.703v1.402h-5.19l-.357 3.734c.63-.316 1.24-.514 2.059-.514 2.29 0 4.16 1.226 4.16 3.952 0 2.728-2.185 4.269-4.518 4.269-2.143 0-3.467-.85-4.391-1.719l.841-1.066zm17.457-7.944a3 3 0 0 0-2.206-.987c-1.87 0-3.446 1.363-3.53 5.354.84-.968 2.038-1.58 3.131-1.58 2.311 0 3.824 1.304 3.824 3.893 0 2.41-1.807 4.051-3.971 4.051-2.626 0-4.623-2.016-4.623-6.066 0-5.059 2.438-7.016 5.106-7.016 1.45 0 2.479.574 3.236 1.344l-.967 1.007zm-.419 6.68c0-1.641-.819-2.668-2.479-2.668-.84 0-1.891.475-2.794 1.66.21 2.45 1.24 3.773 2.941 3.773 1.323 0 2.332-1.105 2.332-2.765zm5.69-1.68c0-3.004-.798-5.987-2.417-8.497l1.072-.474c1.744 2.647 2.773 5.492 2.773 8.971 0 3.478-1.03 6.323-2.773 8.971L91 373.176c1.619-2.509 2.417-5.492 2.417-8.496zM16.079 12.311a3.001 3.001 0 0 0-1.135-.237c-.84 0-1.303.514-1.303 1.64v1.047h2.018v1.798h-2.018v7.904h-2.416v-7.904H9.839V14.86l1.387-.099v-1.008c0-2.016.987-3.478 3.425-3.478.735 0 1.429.158 1.891.336l-.463 1.7zm5.398 2.213c2.584 0 4.917 1.857 4.917 5.098 0 3.221-2.333 5.079-4.917 5.079-2.563 0-4.896-1.857-4.896-5.079 0-3.241 2.333-5.098 4.896-5.098zm0 8.319c1.513 0 2.437-1.285 2.437-3.221 0-1.956-.924-3.241-2.437-3.241s-2.417 1.285-2.417 3.241c.001 1.936.904 3.221 2.417 3.221zm7.308-8.082h1.996l.168 1.719h.084c.735-1.265 1.828-1.957 2.92-1.957.525 0 .861.06 1.177.198l-.42 1.976a3.56 3.56 0 0 0-1.072-.158c-.819 0-1.807.534-2.437 1.996v5.928h-2.417v-9.702zm11.365-.237c1.177 0 1.912.415 2.71 1.067l-.084-1.562v-3.517h2.416v13.951h-1.996l-.168-1.047h-.084c-.756.711-1.807 1.285-2.92 1.285-2.584 0-4.245-1.877-4.245-5.079.001-3.162 2.123-5.098 4.371-5.098zm.463 8.299c.798 0 1.471-.336 2.164-1.087v-4.525c-.714-.593-1.408-.81-2.101-.81-1.324 0-2.396 1.166-2.396 3.201 0 2.095.841 3.221 2.333 3.221zm12.033-3.853c0-3.478 1.03-6.323 2.774-9.011l1.513.632c-1.576 2.529-2.312 5.474-2.312 8.378s.735 5.849 2.312 8.378l-1.513.633c-1.744-2.687-2.774-5.532-2.774-9.01zm6.848 2.49c.799.771 1.828 1.383 3.173 1.383 1.45 0 2.458-.711 2.458-1.897 0-1.304-.882-2.134-3.929-2.134v-1.66c2.626 0 3.488-.85 3.488-2.016 0-1.047-.756-1.68-1.975-1.68-1.05 0-1.87.474-2.689 1.186l-1.24-1.403c1.135-.949 2.417-1.581 4.013-1.581 2.563 0 4.329 1.186 4.329 3.32 0 1.403-.883 2.352-2.333 2.885v.079c1.576.396 2.773 1.462 2.773 3.122 0 2.292-2.122 3.636-4.685 3.636-2.165 0-3.593-.791-4.539-1.779l1.156-1.461zm19.348-.238h-1.681v3.241h-2.27v-3.241h-5.904v-1.541l5.294-7.786h2.879v7.568h1.681v1.759zm-3.95-1.758v-2.845c0-.731.063-1.877.105-2.608h-.084c-.336.652-.714 1.284-1.092 1.956l-2.438 3.498h3.509zm6.783 2.43a3.01 3.01 0 0 0 2.144.949c1.681 0 3.046-1.166 3.151-4.644-.777.909-1.954 1.462-2.92 1.462-2.29 0-3.887-1.265-3.887-3.893 0-2.51 1.912-4.11 4.202-4.11 2.605 0 4.833 1.897 4.833 6.126 0 4.88-2.5 6.916-5.253 6.916-1.597 0-2.773-.632-3.572-1.423l1.302-1.383zm5.232-5.335c-.252-2.213-1.219-3.161-2.521-3.161-1.092 0-1.996.85-1.996 2.371 0 1.482.778 2.252 2.123 2.252.755 0 1.658-.415 2.394-1.462zm6.468 2.411c0-2.905-.735-5.849-2.312-8.378l1.513-.632c1.744 2.688 2.773 5.533 2.773 9.011 0 3.478-1.03 6.323-2.773 9.01l-1.513-.632c1.577-2.53 2.312-5.474 2.312-8.379zM36.487 50.13a3.022 3.022 0 0 0-1.155-.237c-.967 0-1.429.632-1.429 1.857v1.521h2.164v1.324h-2.164v8.279H32.18v-8.279h-1.387V53.37l1.387-.099V51.75c0-1.956.945-3.181 2.983-3.181.63 0 1.24.138 1.702.316l-.378 1.245zm1.217.118c0-.632.525-1.047 1.198-1.047s1.198.415 1.198 1.047c0 .613-.525 1.047-1.198 1.047s-1.198-.434-1.198-1.047zm.316 3.024h1.723v9.604H38.02v-9.604zm8.99-.237c2.605 0 4.076 1.758 4.076 4.505 0 .336-.021.652-.063.89h-6.892c.126 2.075 1.45 3.379 3.404 3.379.966 0 1.786-.296 2.542-.751l.609 1.067c-.883.534-1.975.988-3.362.988-2.731 0-4.896-1.877-4.896-5.019.002-3.143 2.25-5.059 4.582-5.059zm2.564 4.327c0-1.956-.924-3.043-2.521-3.043-1.429 0-2.731 1.106-2.941 3.043h5.462zm3.758 3.339c.882.672 1.786 1.146 3.005 1.146 1.345 0 2.017-.672 2.017-1.502 0-.988-1.219-1.423-2.333-1.818-1.45-.494-3.046-1.146-3.046-2.767 0-1.541 1.303-2.727 3.509-2.727 1.282 0 2.395.494 3.173 1.086l-.82 1.028c-.693-.494-1.429-.85-2.332-.85-1.282 0-1.87.652-1.87 1.383 0 .909 1.114 1.245 2.269 1.66 1.471.514 3.11 1.087 3.11 2.905 0 1.561-1.324 2.865-3.74 2.865-1.45 0-2.837-.573-3.803-1.324l.861-1.085zm9.368-6.105h-1.513v-1.225l1.597-.099.21-2.688h1.45v2.688h2.752v1.324h-2.752v5.335c0 1.186.399 1.857 1.576 1.857.357 0 .819-.138 1.156-.257l.336 1.225c-.567.178-1.261.356-1.891.356-2.185 0-2.92-1.304-2.92-3.201v-5.315zm12.205 2.193c0-1.225-.441-2.411-2.101-2.411-1.198 0-2.248.514-3.046 1.028l-.694-1.126c.946-.573 2.375-1.245 4.013-1.245 2.5 0 3.551 1.561 3.551 3.952v5.889H75.2l-.147-1.146h-.043c-.987.751-2.122 1.383-3.383 1.383-1.723 0-3.004-1.008-3.004-2.727 0-2.095 1.933-3.143 6.282-3.597zm-2.794 5.019c.987 0 1.807-.455 2.794-1.285v-2.667c-3.425.395-4.581 1.186-4.581 2.411.001 1.087.779 1.541 1.787 1.541zm12.014-4.426c0-3.478 1.029-6.323 2.773-8.971l1.071.474c-1.618 2.51-2.416 5.493-2.416 8.497 0 3.003.798 5.987 2.416 8.497l-1.071.474c-1.744-2.648-2.773-5.493-2.773-8.971zm8.024-1.126v-.079c-.987-.652-1.87-1.581-1.87-2.905 0-1.937 1.639-3.241 3.803-3.241 2.332 0 3.782 1.403 3.782 3.359 0 1.324-1.03 2.45-1.849 3.043v.079c1.198.652 2.332 1.542 2.332 3.241 0 1.877-1.723 3.359-4.328 3.359-2.521 0-4.392-1.462-4.392-3.458 0-1.64 1.261-2.766 2.522-3.398zm1.912 5.651c1.555 0 2.626-.909 2.626-2.213 0-1.621-1.702-2.213-3.635-2.944-1.071.672-1.87 1.601-1.87 2.747.001 1.402 1.24 2.41 2.879 2.41zm2.311-8.438c0-1.245-.861-2.233-2.332-2.233-1.24 0-2.164.81-2.164 2.035 0 1.502 1.471 2.134 3.088 2.727.904-.75 1.408-1.6 1.408-2.529zm4.493 8.062h3.068v-9.287h-2.438v-1.047c1.219-.198 2.102-.514 2.837-.929h1.324v11.263h2.773v1.344h-7.564v-1.344zm11.995-4.149c0-3.004-.798-5.987-2.417-8.497l1.072-.474c1.744 2.648 2.773 5.493 2.773 8.971 0 3.478-1.03 6.323-2.773 8.971l-1.072-.474c1.619-2.51 2.417-5.494 2.417-8.497zM36.487 88.543a3.022 3.022 0 0 0-1.155-.237c-.967 0-1.429.632-1.429 1.857v1.521h2.164v1.324h-2.164v8.279H32.18v-8.279h-1.387v-1.225l1.387-.099v-1.521c0-1.956.945-3.181 2.983-3.181.63 0 1.24.138 1.702.316l-.378 1.245zm5.293 2.905c2.5 0 4.728 1.837 4.728 5.059 0 3.181-2.227 5.019-4.728 5.019-2.5 0-4.728-1.838-4.728-5.019.001-3.222 2.228-5.059 4.728-5.059zm0 8.734c1.765 0 2.942-1.482 2.942-3.675 0-2.213-1.177-3.715-2.942-3.715-1.744 0-2.941 1.502-2.941 3.715 0 2.193 1.198 3.675 2.941 3.675zm11.574-8.734c1.345 0 2.29.533 2.983 1.146l-.861 1.047c-.609-.494-1.24-.85-2.059-.85-1.849 0-3.194 1.502-3.194 3.715 0 2.193 1.282 3.675 3.152 3.675.966 0 1.786-.455 2.395-.968l.777 1.067c-.924.771-2.101 1.245-3.319 1.245-2.71 0-4.791-1.838-4.791-5.019.001-3.221 2.291-5.058 4.917-5.058zm5.271.237h1.744v5.869c0 1.798.567 2.569 1.912 2.569 1.05 0 1.786-.494 2.752-1.62v-6.817h1.723v9.604h-1.429l-.147-1.502h-.063c-.945 1.047-1.954 1.739-3.362 1.739-2.164 0-3.131-1.304-3.131-3.754v-6.088zm11.301 7.43c.882.672 1.786 1.146 3.005 1.146 1.345 0 2.017-.672 2.017-1.502 0-.988-1.219-1.423-2.333-1.818-1.45-.494-3.046-1.146-3.046-2.767 0-1.541 1.303-2.727 3.509-2.727 1.282 0 2.395.494 3.173 1.086l-.82 1.028c-.693-.494-1.429-.85-2.332-.85-1.282 0-1.87.652-1.87 1.383 0 .909 1.114 1.245 2.269 1.66 1.471.514 3.11 1.087 3.11 2.905 0 1.561-1.324 2.865-3.74 2.865-1.45 0-2.837-.573-3.803-1.324l.861-1.085zm13.317-3.32c0-3.478 1.029-6.323 2.773-8.971l1.071.474c-1.618 2.51-2.416 5.493-2.416 8.497 0 3.003.798 5.987 2.416 8.497l-1.071.474c-1.744-2.648-2.773-5.493-2.773-8.971zm12.247-5.711h-6.682v-1.403h8.636v1.008c-3.173 3.813-3.824 6.679-4.055 11.599h-1.786c.231-4.742 1.24-7.746 3.887-11.204zm11.217.712a2.997 2.997 0 0 0-2.206-.988c-1.87 0-3.446 1.363-3.53 5.355.84-.968 2.038-1.581 3.131-1.581 2.311 0 3.824 1.304 3.824 3.893 0 2.411-1.807 4.051-3.971 4.051-2.626 0-4.623-2.016-4.623-6.066 0-5.059 2.438-7.015 5.106-7.015 1.45 0 2.479.573 3.236 1.344l-.967 1.007zm-.42 6.679c0-1.64-.819-2.668-2.479-2.668-.84 0-1.891.475-2.794 1.66.21 2.45 1.24 3.774 2.941 3.774 1.323 0 2.332-1.106 2.332-2.766zm5.691-1.68c0-3.004-.798-5.987-2.417-8.497l1.072-.474c1.744 2.648 2.773 5.493 2.773 8.971 0 3.478-1.03 6.323-2.773 8.971l-1.072-.474c1.619-2.51 2.417-5.493 2.417-8.497zm-80.092 34.302h1.429l.147 1.383h.063c.882-.909 1.954-1.62 3.173-1.62 1.555 0 2.395.691 2.815 1.837 1.072-1.087 2.122-1.837 3.362-1.837 2.101 0 3.11 1.304 3.11 3.754v6.086h-1.723v-5.869c0-1.798-.609-2.569-1.891-2.569-.798 0-1.618.494-2.563 1.482v6.956h-1.723v-5.869c0-1.798-.609-2.569-1.912-2.569-.756 0-1.618.494-2.563 1.482v6.956h-1.723v-9.603zm21.384-.237c2.5 0 4.728 1.837 4.728 5.059 0 3.181-2.228 5.019-4.728 5.019-2.5 0-4.728-1.838-4.728-5.019 0-3.221 2.228-5.059 4.728-5.059zm0 8.734c1.765 0 2.942-1.482 2.942-3.675 0-2.213-1.177-3.715-2.942-3.715-1.744 0-2.941 1.502-2.941 3.715 0 2.193 1.197 3.675 2.941 3.675zm7.414-8.497h1.429l.147 1.383h.063c.966-.909 2.017-1.62 3.425-1.62 2.143 0 3.11 1.304 3.11 3.754v6.086h-1.723v-5.869c0-1.798-.588-2.569-1.933-2.569-1.05 0-1.765.514-2.794 1.482v6.956h-1.723v-9.603zm15.188-.237c1.177 0 1.954.415 2.857 1.106l-.084-1.64v-3.695h1.744V139.7H78.96l-.147-1.126h-.063c-.798.731-1.891 1.364-3.088 1.364-2.563 0-4.224-1.818-4.224-5.019 0-3.123 2.102-5.059 4.434-5.059zm.168 8.714c.946 0 1.765-.435 2.605-1.324v-5.019c-.861-.731-1.639-1.008-2.479-1.008-1.639 0-2.942 1.482-2.942 3.675 0 2.293 1.03 3.676 2.816 3.676zm11.615-8.714c2.605 0 4.076 1.758 4.076 4.505 0 .336-.021.652-.063.89h-6.892c.126 2.075 1.45 3.379 3.404 3.379.966 0 1.786-.296 2.542-.751l.609 1.067c-.883.534-1.975.988-3.362.988-2.731 0-4.896-1.877-4.896-5.019.002-3.142 2.25-5.059 4.582-5.059zm2.564 4.327c0-1.956-.924-3.043-2.521-3.043-1.429 0-2.731 1.106-2.941 3.043h5.462zm8.001-4.327c2.5 0 4.728 1.837 4.728 5.059 0 3.181-2.228 5.019-4.728 5.019-2.5 0-4.728-1.838-4.728-5.019.001-3.221 2.228-5.059 4.728-5.059zm0 8.734c1.765 0 2.942-1.482 2.942-3.675 0-2.213-1.177-3.715-2.942-3.715-1.744 0-2.941 1.502-2.941 3.715 0 2.193 1.198 3.675 2.941 3.675zm11.657-4.387c0-3.478 1.029-6.323 2.773-8.971l1.071.474c-1.618 2.51-2.416 5.493-2.416 8.497 0 3.003.798 5.987 2.416 8.497l-1.071.474c-1.744-2.647-2.773-5.493-2.773-8.971zm6.007 2.945c.798.75 1.807 1.442 3.383 1.442 1.639 0 2.941-1.126 2.941-2.885 0-1.739-1.134-2.766-2.857-2.766-.924 0-1.492.276-2.29.771l-.925-.553.441-6.066h6.703v1.403h-5.19l-.357 3.735c.63-.316 1.24-.514 2.059-.514 2.29 0 4.16 1.225 4.16 3.952s-2.185 4.269-4.518 4.269c-2.143 0-3.467-.85-4.391-1.719l.841-1.069zm9.914 1.58c4.034-3.774 6.304-6.046 6.304-8.082 0-1.442-.841-2.47-2.542-2.47-1.114 0-2.08.672-2.857 1.521l-.988-.929c1.114-1.146 2.312-1.917 4.055-1.917 2.479 0 4.013 1.482 4.013 3.715 0 2.372-2.29 4.723-5.463 7.845.735-.06 1.555-.119 2.248-.119h3.887v1.403h-8.657v-.967zm12.814-4.525c0-3.004-.798-5.987-2.417-8.497l1.072-.474c1.744 2.648 2.773 5.493 2.773 8.971 0 3.478-1.03 6.323-2.773 8.971l-1.072-.474c1.619-2.509 2.417-5.493 2.417-8.497zM31.886 164.043h1.702v9.524h.063l4.35-5.059h1.912l-3.425 3.854 3.887 5.75h-1.891l-2.983-4.624-1.912 2.095v2.529h-1.702v-14.069zm15.966 7.984c0-1.225-.441-2.411-2.101-2.411-1.198 0-2.248.514-3.046 1.028l-.694-1.126c.946-.573 2.375-1.245 4.013-1.245 2.5 0 3.551 1.561 3.551 3.952v5.889h-1.429l-.147-1.146h-.042c-.987.751-2.122 1.383-3.383 1.383-1.723 0-3.004-1.008-3.004-2.727-.001-2.096 1.932-3.143 6.282-3.597zm-2.795 5.019c.987 0 1.807-.455 2.794-1.285v-2.667c-3.425.395-4.581 1.186-4.581 2.411.001 1.086.779 1.541 1.787 1.541zm12.014-4.427c0-3.478 1.029-6.323 2.773-8.971l1.071.474c-1.618 2.51-2.416 5.493-2.416 8.497 0 3.003.798 5.987 2.416 8.497l-1.071.474c-1.743-2.647-2.773-5.493-2.773-8.971zm6.07 2.885c.798.791 1.849 1.502 3.425 1.502 1.618 0 2.773-.909 2.773-2.312 0-1.502-1.092-2.51-4.286-2.51v-1.245c2.857 0 3.803-1.028 3.803-2.352 0-1.225-.883-1.996-2.312-1.996-1.113 0-2.059.533-2.857 1.284l-.924-1.027c1.029-.909 2.269-1.581 3.845-1.581 2.333 0 4.013 1.166 4.013 3.201 0 1.521-.987 2.49-2.437 3.003v.079c1.618.356 2.899 1.462 2.899 3.201 0 2.233-1.954 3.597-4.413 3.597-2.143 0-3.509-.85-4.412-1.779l.883-1.065zm12.394-4.011v-.079c-.987-.652-1.87-1.581-1.87-2.905 0-1.937 1.639-3.241 3.803-3.241 2.332 0 3.782 1.403 3.782 3.359 0 1.324-1.03 2.45-1.849 3.043v.079c1.198.652 2.332 1.542 2.332 3.241 0 1.877-1.723 3.359-4.328 3.359-2.521 0-4.392-1.462-4.392-3.458 0-1.639 1.261-2.766 2.522-3.398zm1.912 5.651c1.555 0 2.626-.909 2.626-2.213 0-1.621-1.702-2.213-3.635-2.944-1.071.672-1.87 1.601-1.87 2.747 0 1.402 1.24 2.41 2.879 2.41zm2.311-8.437c0-1.245-.861-2.233-2.332-2.233-1.24 0-2.164.81-2.164 2.035 0 1.502 1.471 2.134 3.088 2.727.904-.751 1.408-1.601 1.408-2.529zm6.048 3.912c0-3.004-.798-5.987-2.417-8.497l1.072-.474c1.744 2.648 2.773 5.493 2.773 8.971 0 3.478-1.03 6.323-2.773 8.971l-1.072-.474c1.619-2.509 2.417-5.493 2.417-8.497zm-49.949 34.067c2.5 0 4.728 1.837 4.728 5.059 0 3.181-2.228 5.019-4.728 5.019-2.5 0-4.728-1.838-4.728-5.019 0-3.222 2.228-5.059 4.728-5.059zm0 8.733c1.765 0 2.942-1.481 2.942-3.675 0-2.214-1.177-3.716-2.942-3.716-1.744 0-2.941 1.502-2.941 3.716 0 2.194 1.197 3.675 2.941 3.675zm7.708-7.173h-1.513v-1.225l1.597-.1.21-2.688h1.45v2.688h2.752v1.324h-2.752v5.335c0 1.186.399 1.857 1.576 1.857.357 0 .819-.138 1.156-.257l.336 1.225c-.567.178-1.261.356-1.891.356-2.185 0-2.92-1.304-2.92-3.201v-5.314zm6.806-5.79h1.723v3.833l-.063 1.977c.966-.869 1.996-1.58 3.404-1.58 2.143 0 3.11 1.304 3.11 3.754v6.086h-1.723v-5.869c0-1.798-.588-2.568-1.933-2.568-1.05 0-1.765.514-2.794 1.482v6.955h-1.723v-14.07zm15.25 4.23c2.605 0 4.076 1.758 4.076 4.504 0 .336-.021.652-.063.891h-6.892c.126 2.074 1.45 3.379 3.404 3.379.966 0 1.786-.297 2.542-.752l.609 1.067c-.883.534-1.975.988-3.362.988-2.731 0-4.896-1.878-4.896-5.019.001-3.142 2.25-5.058 4.582-5.058zm2.563 4.326c0-1.955-.924-3.043-2.521-3.043-1.429 0-2.731 1.107-2.941 3.043h5.462zm4.031-4.09h1.429l.147 1.738h.063c.693-1.205 1.744-1.975 2.899-1.975.441 0 .756.059 1.093.197l-.336 1.422c-.336-.098-.567-.158-.987-.158-.861 0-1.891.594-2.584 2.214v6.165h-1.723v-9.603zm11.532 4.11c0-3.478 1.029-6.323 2.773-8.972l1.071.475c-1.618 2.51-2.416 5.493-2.416 8.497 0 3.003.798 5.987 2.416 8.497l-1.071.474c-1.744-2.647-2.773-5.493-2.773-8.971zm5.482 4.525c4.034-3.773 6.304-6.046 6.304-8.082 0-1.441-.841-2.469-2.542-2.469-1.114 0-2.08.672-2.857 1.521l-.988-.93c1.114-1.146 2.312-1.916 4.055-1.916 2.479 0 4.013 1.481 4.013 3.715 0 2.371-2.29 4.723-5.463 7.845.735-.06 1.555-.118 2.248-.118h3.887v1.402h-8.657v-.968zm10.523-5.374c0-4.229 1.618-6.501 4.308-6.501 2.668 0 4.286 2.271 4.286 6.501 0 4.229-1.618 6.58-4.286 6.58-2.69 0-4.308-2.352-4.308-6.58zm6.913 0c0-3.695-1.051-5.197-2.605-5.197-1.576 0-2.626 1.502-2.626 5.197 0 3.694 1.05 5.276 2.626 5.276 1.554 0 2.605-1.582 2.605-5.276zm5.816.849c0-3.004-.798-5.987-2.417-8.497l1.072-.475c1.744 2.648 2.773 5.494 2.773 8.972s-1.03 6.323-2.773 8.971l-1.072-.474c1.619-2.509 2.417-5.494 2.417-8.497zM35.71 245.096c2.605 0 4.076 1.759 4.076 4.506 0 .336-.021.652-.063.889h-6.892c.126 2.075 1.45 3.379 3.404 3.379.966 0 1.786-.296 2.542-.75l.609 1.066c-.883.533-1.975.988-3.362.988-2.731 0-4.896-1.877-4.896-5.02.001-3.141 2.25-5.058 4.582-5.058zm2.563 4.328c0-1.957-.924-3.043-2.521-3.043-1.429 0-2.731 1.105-2.941 3.043h5.462zm3.758 3.339c.882.672 1.786 1.146 3.005 1.146 1.345 0 2.017-.672 2.017-1.502 0-.987-1.219-1.423-2.333-1.817-1.45-.494-3.046-1.146-3.046-2.768 0-1.541 1.303-2.727 3.509-2.727 1.282 0 2.395.494 3.173 1.087l-.82 1.028c-.693-.494-1.429-.85-2.332-.85-1.282 0-1.87.651-1.87 1.383 0 .908 1.114 1.244 2.269 1.66 1.471.514 3.11 1.086 3.11 2.904 0 1.561-1.324 2.865-3.74 2.865-1.45 0-2.837-.573-3.803-1.324l.861-1.085zm13.235-7.667c1.345 0 2.29.533 2.983 1.146l-.861 1.047c-.609-.494-1.24-.85-2.059-.85-1.849 0-3.194 1.502-3.194 3.715 0 2.193 1.282 3.676 3.152 3.676.966 0 1.786-.455 2.395-.969l.777 1.067c-.924.771-2.101 1.245-3.319 1.245-2.71 0-4.791-1.838-4.791-5.02 0-3.219 2.29-5.057 4.917-5.057zm8.947 0c2.5 0 4.728 1.838 4.728 5.059 0 3.182-2.228 5.02-4.728 5.02-2.5 0-4.728-1.838-4.728-5.02.001-3.221 2.228-5.059 4.728-5.059zm0 8.734c1.765 0 2.942-1.482 2.942-3.676 0-2.213-1.177-3.715-2.942-3.715-1.744 0-2.941 1.502-2.941 3.715 0 2.194 1.198 3.676 2.941 3.676zm7.414-8.497h1.429l.147 1.739h.063c.693-1.205 1.744-1.977 2.899-1.977.441 0 .756.06 1.093.197l-.336 1.424c-.336-.1-.567-.158-.987-.158-.861 0-1.891.592-2.584 2.213v6.165h-1.723v-9.603zm7.582 1.324h-1.513v-1.226l1.597-.099.21-2.688h1.45v2.688h2.752v1.324h-2.752v5.335c0 1.186.399 1.857 1.576 1.857.357 0 .819-.139 1.156-.257l.336 1.226c-.567.178-1.261.355-1.891.355-2.185 0-2.92-1.305-2.92-3.201v-5.314zm11.049 2.787c0-3.479 1.029-6.323 2.773-8.971l1.071.474c-1.618 2.51-2.416 5.493-2.416 8.497s.798 5.987 2.416 8.496l-1.071.475c-1.743-2.648-2.773-5.494-2.773-8.971zm6.301 4.149h3.068v-9.287h-2.438v-1.048c1.219-.197 2.102-.514 2.837-.928h1.324v11.263h2.773v1.344h-7.564v-1.344zm17.163-9.149a3 3 0 0 0-2.206-.987c-1.87 0-3.446 1.363-3.53 5.354.84-.968 2.038-1.58 3.131-1.58 2.311 0 3.824 1.304 3.824 3.893 0 2.41-1.807 4.051-3.971 4.051-2.626 0-4.622-2.016-4.622-6.066 0-5.059 2.437-7.016 5.105-7.016 1.45 0 2.479.574 3.236 1.344l-.967 1.007zm-.42 6.679c0-1.641-.819-2.668-2.479-2.668-.84 0-1.891.475-2.794 1.66.21 2.45 1.24 3.773 2.941 3.773 1.323.001 2.332-1.105 2.332-2.765zm5.691-1.679c0-3.004-.798-5.987-2.417-8.497l1.072-.474c1.744 2.647 2.773 5.492 2.773 8.971 0 3.478-1.03 6.323-2.773 8.971l-1.072-.475c1.619-2.509 2.417-5.492 2.417-8.496z" fill="#5B5B5B"/></svg>