<svg xmlns="http://www.w3.org/2000/svg" width="258.812" height="147.77" viewBox="0 0 258.812 147.77"><text transform="matrix(1.0627 0 0 1 9.393 24.426)" fill="#5B5B5B" font-family="'SourceSansPro-Bold'" font-size="22.207">TOPICS</text><path fill="#FFF" d="M30.949 135.396c0 2.485-2.139 4.5-4.778 4.5H14.836c-2.639 0-4.778-2.015-4.778-4.5v-10.658c0-2.486 2.139-4.498 4.778-4.498H26.17c2.639 0 4.778 2.012 4.778 4.498v10.658z"/><text transform="matrix(1.0627 0 0 1 46.044 137.576)" fill="#5B5B5B" font-family="'SourceSansPro-Regular'" font-size="19.766">Travel</text><text transform="matrix(1.0627 0 0 1 46.044 102.75)" fill="#5B5B5B" font-family="'SourceSansPro-Regular'" font-size="19.766">Social</text><path fill="#FFF" d="M30.949 66.6c0 2.485-2.139 4.499-4.778 4.499H14.836c-2.639 0-4.778-2.014-4.778-4.499V55.938c0-2.484 2.139-4.496 4.778-4.496H26.17c2.639 0 4.778 2.012 4.778 4.496V66.6z"/><text transform="matrix(1.0627 0 0 1 46.044 67.921)" fill="#5B5B5B" font-family="'SourceSansPro-Regular'" font-size="19.766">Outdoors</text><path fill="none" stroke="#333" stroke-width="2" stroke-linecap="round" stroke-linejoin="round" stroke-miterlimit="10" d="M11.833 96.759l6.855 5.562 11.857-13.583"/></svg>