<svg xmlns="http://www.w3.org/2000/svg" width="427.143" height="102.819" viewBox="0 0 427.143 102.819"><path opacity=".2" fill="#B3B3B3" d="M199.231 0h72.638v66.127h-72.638zM126.59 32.701h72.641v33.426H126.59zM53.864 54.68h72.64v10.805h-72.64zm218.005-11.451h72.642v22.897h-72.642z"/><path fill="none" stroke="#5B5B5B" stroke-width="3" stroke-miterlimit="10" d="M6.371 66.527h410.925"/><path fill="#333" d="M3.038 94.568c0-4.66 1.677-7.164 4.464-7.164 2.765 0 4.442 2.504 4.442 7.164s-1.677 7.251-4.442 7.251c-2.788 0-4.464-2.591-4.464-7.251zm7.163 0c0-4.072-1.088-5.727-2.7-5.727-1.633 0-2.722 1.655-2.722 5.727s1.088 5.814 2.722 5.814c1.612 0 2.7-1.742 2.7-5.814zm396.969 5.509h3.179V89.843h-2.526v-1.154c1.263-.218 2.177-.566 2.939-1.023h1.372v12.412h2.875v1.48h-7.839v-1.481zm10.061-5.509c0-4.66 1.677-7.164 4.464-7.164 2.765 0 4.442 2.504 4.442 7.164s-1.677 7.251-4.442 7.251c-2.787 0-4.464-2.591-4.464-7.251zm7.164 0c0-4.072-1.088-5.727-2.7-5.727-1.633 0-2.722 1.655-2.722 5.727s1.088 5.814 2.722 5.814c1.611 0 2.7-1.742 2.7-5.814z"/><path fill="#5B5B5B" d="M0 67.623a8.073 8.073 0 0 1 8.074-8.07 8.07 8.07 0 0 1 8.067 8.07c0 4.459-3.611 8.074-8.067 8.074A8.074 8.074 0 0 1 0 67.623z"/><path fill="#FFD600" d="M336.439 67.623a8.072 8.072 0 0 1 8.071-8.07 8.073 8.073 0 0 1 0 16.144 8.073 8.073 0 0 1-8.071-8.074zm-311.426 0a8.071 8.071 0 0 1 8.071-8.07 8.072 8.072 0 0 1 0 16.144 8.072 8.072 0 0 1-8.071-8.074z"/><path fill="#5B5B5B" d="M410 67.623a8.071 8.071 0 0 1 16.142 0c0 4.459-3.614 8.074-8.068 8.074A8.075 8.075 0 0 1 410 67.623z"/><path fill="none" stroke="#FFD600" stroke-width="5" stroke-miterlimit="10" d="M32.957 67.096h312.451"/></svg>