<svg xmlns="http://www.w3.org/2000/svg" width="280.515" height="115.486" viewBox="0 0 280.515 115.486"><path fill="#FFD600" d="M11.697 0l3.615 6.891 8.081 1.105-5.848 5.365 1.381 7.573-7.229-3.577-7.229 3.577 1.382-7.573L0 7.996l8.083-1.105zM42.77 0l3.615 6.891 8.082 1.105-5.847 5.365L50 20.934l-7.23-3.577-7.228 3.577 1.38-7.573-5.849-5.365 8.082-1.105zm31.075 0l3.613 6.891 8.084 1.105-5.849 5.365 1.38 7.573-7.228-3.577-7.229 3.577 1.38-7.573-5.848-5.365 8.081-1.105zm31.073 0l3.615 6.891 8.082 1.105-5.849 5.365 1.381 7.573-7.229-3.577-7.23 3.577 1.382-7.573-5.849-5.365 8.082-1.105z"/><path fill="#FFF" d="M135.991 0l3.615 6.891 8.082 1.105-5.848 5.365 1.381 7.573-7.23-3.577-7.228 3.577 1.38-7.573-5.849-5.365 8.083-1.105z"/><path fill="#FFD600" d="M11.697 30.549l3.615 6.89 8.081 1.106-5.848 5.363 1.381 7.574-7.229-3.576-7.229 3.576 1.382-7.574L0 38.545l8.083-1.106zm31.073 0l3.615 6.89 8.082 1.106-5.847 5.363L50 51.482l-7.23-3.576-7.228 3.576 1.38-7.574-5.849-5.363 8.082-1.106zm31.075 0l3.613 6.89 8.084 1.106-5.849 5.363 1.38 7.574-7.228-3.576-7.229 3.576 1.38-7.574-5.848-5.363 8.081-1.106z"/><path fill="#FFF" d="M104.918 30.549l3.615 6.89 8.082 1.106-5.849 5.363 1.381 7.574-7.229-3.576-7.23 3.576 1.382-7.574-5.849-5.363 8.082-1.106zm31.073 0l3.615 6.89 8.082 1.106-5.848 5.363 1.381 7.574-7.23-3.576-7.228 3.576 1.38-7.574-5.849-5.363 8.083-1.106z"/><path fill="#FFD600" d="M11.697 61.096l3.615 6.892 8.081 1.104-5.848 5.364 1.381 7.575-7.229-3.576-7.229 3.576 1.382-7.575L0 69.092l8.083-1.104zm31.073 0l3.615 6.892 8.082 1.104-5.847 5.364L50 82.031l-7.23-3.576-7.228 3.576 1.38-7.575-5.849-5.364 8.082-1.104z"/><path fill="#FFF" d="M73.845 61.096l3.613 6.892 8.084 1.104-5.849 5.364 1.38 7.575-7.228-3.576-7.229 3.576 1.38-7.575-5.848-5.364 8.081-1.104zm31.073 0l3.615 6.892 8.082 1.104-5.849 5.364 1.381 7.575-7.229-3.576-7.23 3.576 1.382-7.575-5.849-5.364 8.082-1.104zm31.073 0l3.615 6.892 8.082 1.104-5.848 5.364 1.381 7.575-7.23-3.576-7.228 3.576 1.38-7.575-5.849-5.364 8.083-1.104z"/><path fill="#FFD600" d="M11.697 91.644l3.615 6.891 8.081 1.106-5.848 5.363 1.381 7.574-7.229-3.576-7.229 3.576 1.382-7.574L0 99.641l8.083-1.106z"/><path fill="#FFF" d="M42.77 91.644l3.615 6.891 8.082 1.106-5.847 5.363 1.38 7.574-7.23-3.576-7.228 3.576 1.38-7.574-5.849-5.363 8.082-1.106zm31.075 0l3.613 6.891 8.084 1.106-5.849 5.363 1.38 7.574-7.228-3.576-7.229 3.576 1.38-7.574-5.848-5.363 8.081-1.106zm31.073 0l3.615 6.891 8.082 1.106-5.849 5.363 1.381 7.574-7.229-3.576-7.23 3.576 1.382-7.574-5.849-5.363 8.082-1.106zm31.073 0l3.615 6.891 8.082 1.106-5.848 5.363 1.381 7.574-7.23-3.576-7.228 3.576 1.38-7.574-5.849-5.363 8.083-1.106z"/><path d="M168.382 15.173h-1.828v3.478h-1.639v-3.478h-6.03v-1.067l5.736-8.062h1.933v7.825h1.828v1.304zm-3.467-1.303v-3.656c0-.672.063-1.759.105-2.431h-.084c-.336.613-.715 1.166-1.093 1.778l-3.131 4.308h4.203zm9.745 2.608c.882.672 1.786 1.146 3.005 1.146 1.345 0 2.017-.672 2.017-1.502 0-.988-1.219-1.423-2.333-1.818-1.45-.494-3.046-1.146-3.046-2.767 0-1.541 1.303-2.727 3.509-2.727 1.282 0 2.395.494 3.173 1.086l-.82 1.028c-.693-.494-1.429-.85-2.332-.85-1.282 0-1.87.652-1.87 1.383 0 .909 1.114 1.245 2.269 1.66 1.471.514 3.11 1.087 3.11 2.905 0 1.561-1.324 2.865-3.74 2.865-1.45 0-2.837-.573-3.803-1.324l.861-1.085zm9.369-6.106h-1.513V9.147l1.597-.099.21-2.688h1.45v2.688h2.752v1.324h-2.752v5.335c0 1.186.399 1.857 1.576 1.857.357 0 .819-.138 1.156-.257l.336 1.225c-.567.178-1.261.356-1.891.356-2.185 0-2.92-1.304-2.92-3.201v-5.315zm12.206 2.193c0-1.225-.441-2.411-2.101-2.411-1.198 0-2.248.514-3.046 1.028l-.694-1.126c.946-.573 2.375-1.245 4.013-1.245 2.5 0 3.551 1.561 3.551 3.952v5.889h-1.429l-.147-1.146h-.042c-.987.751-2.122 1.383-3.383 1.383-1.723 0-3.004-1.008-3.004-2.727 0-2.095 1.933-3.142 6.282-3.597zm-2.795 5.019c.987 0 1.807-.455 2.794-1.285v-2.667c-3.425.395-4.581 1.186-4.581 2.411.001 1.087.779 1.541 1.787 1.541zm7.772-8.536h1.429l.147 1.739h.063c.693-1.205 1.744-1.976 2.899-1.976.441 0 .756.059 1.093.197l-.336 1.423c-.336-.099-.567-.158-.987-.158-.861 0-1.891.593-2.584 2.213v6.165h-1.723V9.048zm6.805 7.43c.882.672 1.786 1.146 3.005 1.146 1.345 0 2.017-.672 2.017-1.502 0-.988-1.219-1.423-2.333-1.818-1.45-.494-3.046-1.146-3.046-2.767 0-1.541 1.303-2.727 3.509-2.727 1.282 0 2.395.494 3.173 1.086l-.82 1.028c-.693-.494-1.429-.85-2.332-.85-1.282 0-1.87.652-1.87 1.383 0 .909 1.114 1.245 2.269 1.66 1.471.514 3.11 1.087 3.11 2.905 0 1.561-1.324 2.865-3.74 2.865-1.45 0-2.837-.573-3.803-1.324l.861-1.085zm19.096-3.913c0-1.225-.441-2.411-2.101-2.411-1.198 0-2.248.514-3.047 1.028l-.693-1.126c.946-.573 2.375-1.245 4.013-1.245 2.5 0 3.551 1.561 3.551 3.952v5.889h-1.429l-.147-1.146h-.042c-.987.751-2.122 1.383-3.383 1.383-1.723 0-3.004-1.008-3.004-2.727 0-2.095 1.933-3.142 6.282-3.597zm-2.794 5.019c.987 0 1.807-.455 2.794-1.285v-2.667c-3.425.395-4.581 1.186-4.581 2.411.001 1.087.778 1.541 1.787 1.541zm7.771-8.536h1.429l.147 1.383h.063c.966-.909 2.017-1.62 3.425-1.62 2.143 0 3.11 1.304 3.11 3.754v6.086h-1.723v-5.869c0-1.798-.588-2.569-1.933-2.569-1.05 0-1.765.514-2.794 1.482v6.956h-1.723V9.048zm15.188-.237c1.177 0 1.954.415 2.857 1.106l-.084-1.64V4.582h1.744v14.069h-1.429l-.147-1.126h-.063c-.798.731-1.891 1.364-3.088 1.364-2.563 0-4.224-1.818-4.224-5.019.001-3.122 2.102-5.059 4.434-5.059zm.168 8.714c.946 0 1.765-.435 2.605-1.324v-5.019c-.861-.731-1.639-1.008-2.479-1.008-1.639 0-2.942 1.482-2.942 3.675.001 2.293 1.031 3.676 2.816 3.676zm11.888-8.477h1.744v5.869c0 1.798.567 2.569 1.912 2.569 1.05 0 1.786-.494 2.752-1.62V9.048h1.723v9.604h-1.429l-.147-1.502h-.063c-.945 1.047-1.954 1.739-3.362 1.739-2.164 0-3.131-1.304-3.131-3.754V9.048zm13.297 10.413v3.241h-1.723V9.048h1.429l.147 1.106h.063c.924-.731 2.059-1.343 3.257-1.343 2.626 0 4.034 1.917 4.034 4.9 0 3.26-2.08 5.177-4.413 5.177-.945 0-1.891-.415-2.836-1.107l.042 1.68zm2.501-1.936c1.681 0 2.92-1.442 2.92-3.813 0-2.114-.756-3.537-2.689-3.537-.861 0-1.723.455-2.731 1.304v5.039c.924.731 1.827 1.007 2.5 1.007zM159.956 46.14c.798.791 1.849 1.502 3.425 1.502 1.618 0 2.773-.909 2.773-2.312 0-1.502-1.092-2.51-4.286-2.51v-1.245c2.857 0 3.803-1.028 3.803-2.352 0-1.225-.883-1.996-2.312-1.996-1.113 0-2.059.533-2.857 1.284l-.924-1.027c1.029-.909 2.269-1.581 3.845-1.581 2.333 0 4.013 1.166 4.013 3.201 0 1.521-.987 2.49-2.437 3.004v.079c1.618.356 2.899 1.462 2.899 3.201 0 2.233-1.954 3.597-4.413 3.597-2.143 0-3.509-.85-4.412-1.779l.883-1.066zm14.704.434c.882.672 1.786 1.146 3.005 1.146 1.345 0 2.017-.672 2.017-1.502 0-.988-1.219-1.423-2.333-1.818-1.45-.494-3.046-1.146-3.046-2.767 0-1.541 1.303-2.727 3.509-2.727 1.282 0 2.395.494 3.173 1.086l-.82 1.028c-.693-.494-1.429-.85-2.332-.85-1.282 0-1.87.652-1.87 1.383 0 .909 1.114 1.245 2.269 1.66 1.471.514 3.11 1.087 3.11 2.905 0 1.561-1.324 2.865-3.74 2.865-1.45 0-2.837-.573-3.803-1.324l.861-1.085zm9.369-6.105h-1.513v-1.225l1.597-.099.21-2.688h1.45v2.688h2.752v1.324h-2.752v5.335c0 1.186.399 1.857 1.576 1.857.357 0 .819-.138 1.156-.257l.336 1.225c-.567.178-1.261.356-1.891.356-2.185 0-2.92-1.304-2.92-3.201v-5.315zm12.206 2.193c0-1.225-.441-2.411-2.101-2.411-1.198 0-2.248.514-3.046 1.028l-.694-1.126c.946-.573 2.375-1.245 4.013-1.245 2.5 0 3.551 1.561 3.551 3.952v5.889h-1.429l-.147-1.146h-.042c-.987.751-2.122 1.383-3.383 1.383-1.723 0-3.004-1.008-3.004-2.727 0-2.095 1.933-3.143 6.282-3.597zm-2.795 5.019c.987 0 1.807-.455 2.794-1.285v-2.667c-3.425.395-4.581 1.186-4.581 2.411.001 1.087.779 1.541 1.787 1.541zm7.772-8.536h1.429l.147 1.739h.063c.693-1.205 1.744-1.976 2.899-1.976.441 0 .756.059 1.093.197l-.336 1.423c-.336-.099-.567-.158-.987-.158-.861 0-1.891.593-2.584 2.213v6.165h-1.723v-9.603zm6.805 7.429c.882.672 1.786 1.146 3.005 1.146 1.345 0 2.017-.672 2.017-1.502 0-.988-1.219-1.423-2.333-1.818-1.45-.494-3.046-1.146-3.046-2.767 0-1.541 1.303-2.727 3.509-2.727 1.282 0 2.395.494 3.173 1.086l-.82 1.028c-.693-.494-1.429-.85-2.332-.85-1.282 0-1.87.652-1.87 1.383 0 .909 1.114 1.245 2.269 1.66 1.471.514 3.11 1.087 3.11 2.905 0 1.561-1.324 2.865-3.74 2.865-1.45 0-2.837-.573-3.803-1.324l.861-1.085zm19.096-3.912c0-1.225-.441-2.411-2.101-2.411-1.198 0-2.248.514-3.047 1.028l-.693-1.126c.946-.573 2.375-1.245 4.013-1.245 2.5 0 3.551 1.561 3.551 3.952v5.889h-1.429l-.147-1.146h-.042c-.987.751-2.122 1.383-3.383 1.383-1.723 0-3.004-1.008-3.004-2.727 0-2.095 1.933-3.143 6.282-3.597zm-2.794 5.019c.987 0 1.807-.455 2.794-1.285v-2.667c-3.425.395-4.581 1.186-4.581 2.411.001 1.087.778 1.541 1.787 1.541zm7.771-8.536h1.429l.147 1.383h.063c.966-.909 2.017-1.62 3.425-1.62 2.143 0 3.11 1.304 3.11 3.754v6.086h-1.723v-5.869c0-1.798-.588-2.569-1.933-2.569-1.05 0-1.765.514-2.794 1.482v6.956h-1.723v-9.603zm15.188-.237c1.177 0 1.954.415 2.857 1.106l-.084-1.64v-3.695h1.744v14.069h-1.429l-.147-1.126h-.063c-.798.731-1.891 1.364-3.088 1.364-2.563 0-4.224-1.818-4.224-5.019.001-3.123 2.102-5.059 4.434-5.059zm.168 8.714c.946 0 1.765-.435 2.605-1.324v-5.019c-.861-.731-1.639-1.008-2.479-1.008-1.639 0-2.942 1.482-2.942 3.675.001 2.292 1.031 3.676 2.816 3.676zm11.888-8.477h1.744v5.869c0 1.798.567 2.569 1.912 2.569 1.05 0 1.786-.494 2.752-1.62v-6.817h1.723v9.604h-1.429l-.147-1.502h-.063c-.945 1.047-1.954 1.739-3.362 1.739-2.164 0-3.131-1.304-3.131-3.754v-6.088zm13.297 10.413v3.241h-1.723V39.145h1.429l.147 1.106h.063c.924-.731 2.059-1.343 3.257-1.343 2.626 0 4.034 1.917 4.034 4.9 0 3.26-2.08 5.177-4.413 5.177-.945 0-1.891-.415-2.836-1.107l.042 1.68zm2.501-1.936c1.681 0 2.92-1.442 2.92-3.813 0-2.114-.756-3.537-2.689-3.537-.861 0-1.723.455-2.731 1.304v5.039c.924.73 1.827 1.007 2.5 1.007zM159.368 77.264c4.034-3.774 6.304-6.046 6.304-8.082 0-1.442-.841-2.47-2.542-2.47-1.114 0-2.08.672-2.857 1.521l-.988-.929c1.114-1.146 2.312-1.917 4.055-1.917 2.479 0 4.013 1.482 4.013 3.715 0 2.372-2.29 4.723-5.463 7.845.735-.06 1.555-.119 2.248-.119h3.887v1.403h-8.657v-.967zm15.292-1.205c.882.672 1.786 1.146 3.005 1.146 1.345 0 2.017-.672 2.017-1.502 0-.988-1.219-1.423-2.333-1.818-1.45-.494-3.046-1.146-3.046-2.767 0-1.541 1.303-2.727 3.509-2.727 1.282 0 2.395.494 3.173 1.086l-.82 1.028c-.693-.494-1.429-.85-2.332-.85-1.282 0-1.87.652-1.87 1.383 0 .909 1.114 1.245 2.269 1.66 1.471.514 3.11 1.087 3.11 2.905 0 1.561-1.324 2.865-3.74 2.865-1.45 0-2.837-.573-3.803-1.324l.861-1.085zm9.369-6.106h-1.513v-1.225l1.597-.099.21-2.688h1.45v2.688h2.752v1.324h-2.752v5.335c0 1.186.399 1.857 1.576 1.857.357 0 .819-.138 1.156-.257l.336 1.225c-.567.178-1.261.356-1.891.356-2.185 0-2.92-1.304-2.92-3.201v-5.315zm12.206 2.193c0-1.225-.441-2.411-2.101-2.411-1.198 0-2.248.514-3.046 1.028l-.694-1.126c.946-.573 2.375-1.245 4.013-1.245 2.5 0 3.551 1.561 3.551 3.952v5.889h-1.429l-.147-1.146h-.042c-.987.751-2.122 1.383-3.383 1.383-1.723 0-3.004-1.008-3.004-2.727 0-2.095 1.933-3.142 6.282-3.597zm-2.795 5.02c.987 0 1.807-.455 2.794-1.285v-2.667c-3.425.395-4.581 1.186-4.581 2.411.001 1.086.779 1.541 1.787 1.541zm7.772-8.537h1.429l.147 1.739h.063c.693-1.205 1.744-1.976 2.899-1.976.441 0 .756.059 1.093.197l-.336 1.423c-.336-.099-.567-.158-.987-.158-.861 0-1.891.593-2.584 2.213v6.165h-1.723v-9.603zm6.805 7.43c.882.672 1.786 1.146 3.005 1.146 1.345 0 2.017-.672 2.017-1.502 0-.988-1.219-1.423-2.333-1.818-1.45-.494-3.046-1.146-3.046-2.767 0-1.541 1.303-2.727 3.509-2.727 1.282 0 2.395.494 3.173 1.086l-.82 1.028c-.693-.494-1.429-.85-2.332-.85-1.282 0-1.87.652-1.87 1.383 0 .909 1.114 1.245 2.269 1.66 1.471.514 3.11 1.087 3.11 2.905 0 1.561-1.324 2.865-3.74 2.865-1.45 0-2.837-.573-3.803-1.324l.861-1.085zm19.096-3.913c0-1.225-.441-2.411-2.101-2.411-1.198 0-2.248.514-3.047 1.028l-.693-1.126c.946-.573 2.375-1.245 4.013-1.245 2.5 0 3.551 1.561 3.551 3.952v5.889h-1.429l-.147-1.146h-.042c-.987.751-2.122 1.383-3.383 1.383-1.723 0-3.004-1.008-3.004-2.727 0-2.095 1.933-3.142 6.282-3.597zm-2.794 5.02c.987 0 1.807-.455 2.794-1.285v-2.667c-3.425.395-4.581 1.186-4.581 2.411.001 1.086.778 1.541 1.787 1.541zm7.771-8.537h1.429l.147 1.383h.063c.966-.909 2.017-1.62 3.425-1.62 2.143 0 3.11 1.304 3.11 3.754v6.086h-1.723v-5.869c0-1.798-.588-2.569-1.933-2.569-1.05 0-1.765.514-2.794 1.482v6.956h-1.723v-9.603zm15.188-.237c1.177 0 1.954.415 2.857 1.106l-.084-1.64v-3.695h1.744v14.069h-1.429l-.147-1.126h-.063c-.798.731-1.891 1.364-3.088 1.364-2.563 0-4.224-1.818-4.224-5.019.001-3.122 2.102-5.059 4.434-5.059zm.168 8.714c.946 0 1.765-.435 2.605-1.324v-5.019c-.861-.731-1.639-1.008-2.479-1.008-1.639 0-2.942 1.482-2.942 3.675.001 2.293 1.031 3.676 2.816 3.676zm11.888-8.477h1.744v5.869c0 1.798.567 2.569 1.912 2.569 1.05 0 1.786-.494 2.752-1.62V68.63h1.723v9.604h-1.429l-.147-1.502h-.063c-.945 1.047-1.954 1.739-3.362 1.739-2.164 0-3.131-1.304-3.131-3.754v-6.088zm13.297 10.413v3.241h-1.723V68.629h1.429l.147 1.106h.063c.924-.731 2.059-1.343 3.257-1.343 2.626 0 4.034 1.917 4.034 4.9 0 3.26-2.08 5.177-4.413 5.177-.945 0-1.891-.415-2.836-1.107l.042 1.68zm2.501-1.936c1.681 0 2.92-1.442 2.92-3.813 0-2.114-.756-3.537-2.689-3.537-.861 0-1.723.455-2.731 1.304v5.039c.924.731 1.827 1.007 2.5 1.007zm-114.945 28.722h3.068v-9.287h-2.438v-1.047c1.219-.198 2.102-.514 2.837-.929h1.324v11.263h2.773v1.344h-7.564v-1.344zm14.473-.83c.882.672 1.786 1.146 3.005 1.146 1.345 0 2.017-.672 2.017-1.502 0-.988-1.219-1.423-2.333-1.818-1.45-.494-3.046-1.146-3.046-2.767 0-1.541 1.303-2.727 3.509-2.727 1.282 0 2.395.494 3.173 1.086l-.82 1.028c-.693-.494-1.429-.85-2.332-.85-1.282 0-1.87.652-1.87 1.383 0 .909 1.114 1.245 2.269 1.66 1.471.514 3.11 1.087 3.11 2.905 0 1.561-1.324 2.865-3.74 2.865-1.45 0-2.837-.573-3.803-1.324l.861-1.085zm9.369-6.106h-1.513v-1.225l1.597-.099.21-2.688h1.45v2.688h2.752v1.324h-2.752v5.335c0 1.186.399 1.857 1.576 1.857.357 0 .819-.138 1.156-.257l.336 1.225c-.567.178-1.261.356-1.891.356-2.185 0-2.92-1.304-2.92-3.201v-5.315zm12.206 2.193c0-1.225-.441-2.411-2.101-2.411-1.198 0-2.248.514-3.046 1.028l-.694-1.126c.946-.573 2.375-1.245 4.013-1.245 2.5 0 3.551 1.561 3.551 3.952v5.889h-1.429l-.147-1.146h-.042c-.987.751-2.122 1.383-3.383 1.383-1.723 0-3.004-1.008-3.004-2.727 0-2.095 1.933-3.142 6.282-3.597zm-2.795 5.019c.987 0 1.807-.455 2.794-1.285v-2.667c-3.425.395-4.581 1.186-4.581 2.411.001 1.087.779 1.541 1.787 1.541zm7.772-8.536h1.429l.147 1.739h.063c.693-1.205 1.744-1.976 2.899-1.976.441 0 .756.059 1.093.197l-.336 1.423c-.336-.099-.567-.158-.987-.158-.861 0-1.891.593-2.584 2.213v6.165h-1.723v-9.603zm17.309 3.517c0-1.225-.441-2.411-2.101-2.411-1.198 0-2.248.514-3.047 1.028l-.693-1.126c.946-.573 2.375-1.245 4.013-1.245 2.5 0 3.551 1.561 3.551 3.952v5.889h-1.429l-.147-1.146h-.042c-.987.751-2.122 1.383-3.383 1.383-1.723 0-3.004-1.008-3.004-2.727 0-2.095 1.933-3.142 6.282-3.597zm-2.794 5.019c.987 0 1.807-.455 2.794-1.285v-2.667c-3.425.395-4.581 1.186-4.581 2.411.001 1.087.778 1.541 1.787 1.541zm7.772-8.536h1.429l.147 1.383h.063c.966-.909 2.017-1.62 3.425-1.62 2.143 0 3.11 1.304 3.11 3.754v6.086h-1.723v-5.869c0-1.798-.588-2.569-1.933-2.569-1.05 0-1.765.514-2.794 1.482v6.956H223.5v-9.603zm15.188-.237c1.177 0 1.954.415 2.857 1.106l-.084-1.64v-3.695h1.744v14.069h-1.429l-.147-1.126h-.063c-.798.731-1.891 1.364-3.088 1.364-2.563 0-4.224-1.818-4.224-5.019 0-3.123 2.102-5.059 4.434-5.059zm.168 8.714c.946 0 1.765-.435 2.605-1.324v-5.019c-.861-.731-1.639-1.008-2.479-1.008-1.639 0-2.941 1.482-2.941 3.675 0 2.293 1.029 3.676 2.815 3.676zm11.888-8.477h1.744v5.869c0 1.798.567 2.569 1.912 2.569 1.05 0 1.786-.494 2.752-1.62v-6.817h1.723v9.604h-1.429l-.147-1.502h-.063c-.945 1.047-1.954 1.739-3.362 1.739-2.164 0-3.131-1.304-3.131-3.754v-6.088zm13.297 10.413v3.241h-1.723V97.568h1.429l.147 1.106h.063c.924-.731 2.059-1.343 3.257-1.343 2.626 0 4.034 1.917 4.034 4.9 0 3.26-2.08 5.177-4.413 5.177-.945 0-1.891-.415-2.836-1.107l.042 1.68zm2.501-1.936c1.681 0 2.92-1.442 2.92-3.813 0-2.114-.756-3.537-2.689-3.537-.861 0-1.723.455-2.731 1.304v5.039c.923.731 1.827 1.007 2.5 1.007z" fill="#5B5B5B"/></svg>