<svg xmlns="http://www.w3.org/2000/svg" width="309.109" height="129.033" viewBox="0 0 309.109 129.033"><path fill="#FFF" d="M1.166 0h306.74v40.506H1.166zm0 44.328h306.74v84.705H1.166z"/><path fill="#FFF" d="M1.166 45.092h306.74v39.743H1.166z"/><path d="M24.491 101.499h2.097l2.717 7.53 1.027 2.867h.085l.984-2.867 2.695-7.53h2.097v14.034h-1.689v-7.723c0-1.241.128-2.909.235-4.15h-.086l-1.134 3.123-2.695 7.338h-1.006l-2.717-7.338-1.112-3.123h-.085c.085 1.241.235 2.909.235 4.15v7.723h-1.647v-14.034zm15.066.364c0-.685.534-1.134 1.219-1.134s1.22.449 1.22 1.134c0 .663-.535 1.134-1.22 1.134s-1.219-.471-1.219-1.134zm.32 3.273h1.755v10.397h-1.755v-10.397zm9.5-.256c1.369 0 2.332.577 3.037 1.24l-.877 1.134c-.62-.534-1.262-.92-2.097-.92-1.882 0-3.251 1.626-3.251 4.022 0 2.374 1.305 3.979 3.209 3.979.983 0 1.818-.492 2.438-1.048l.791 1.155c-.94.834-2.139 1.348-3.38 1.348-2.76 0-4.877-1.989-4.877-5.434.001-3.487 2.332-5.476 5.007-5.476zm5.521.256h1.455l.149 1.883h.064c.706-1.305 1.775-2.139 2.952-2.139.449 0 .771.064 1.112.214l-.342 1.54c-.343-.107-.578-.171-1.006-.171-.877 0-1.925.642-2.631 2.396v6.675h-1.755v-10.398zm11.256-.256c2.545 0 4.813 1.989 4.813 5.477 0 3.444-2.269 5.434-4.813 5.434-2.546 0-4.813-1.989-4.813-5.434 0-3.488 2.267-5.477 4.813-5.477zm0 9.455c1.797 0 2.994-1.604 2.994-3.979 0-2.396-1.197-4.022-2.994-4.022-1.776 0-2.995 1.626-2.995 4.022 0 2.374 1.219 3.979 2.995 3.979zm7.278-1.155c.898.728 1.818 1.241 3.059 1.241 1.369 0 2.054-.728 2.054-1.626 0-1.069-1.24-1.54-2.374-1.968-1.477-.535-3.103-1.241-3.103-2.995 0-1.669 1.326-2.952 3.572-2.952 1.306 0 2.439.535 3.23 1.177l-.834 1.112c-.706-.535-1.455-.92-2.375-.92-1.305 0-1.903.706-1.903 1.497 0 .984 1.134 1.348 2.311 1.797 1.497.557 3.166 1.177 3.166 3.145 0 1.69-1.348 3.103-3.809 3.103-1.476 0-2.888-.62-3.872-1.434l.878-1.177zm13.287-8.3c2.545 0 4.813 1.989 4.813 5.477 0 3.444-2.269 5.434-4.813 5.434-2.546 0-4.813-1.989-4.813-5.434-.001-3.488 2.267-5.477 4.813-5.477zm0 9.455c1.797 0 2.994-1.604 2.994-3.979 0-2.396-1.197-4.022-2.994-4.022-1.776 0-2.995 1.626-2.995 4.022 0 2.374 1.218 3.979 2.995 3.979zm18.23 1.07c-.578.192-1.284.385-1.926.385-2.225 0-2.974-1.412-2.974-3.466v-5.755h-3.723v8.964h-1.754v-8.964H93.16v-1.326l1.412-.107v-1.646c0-2.118.963-3.444 3.038-3.444.642 0 1.262.149 1.732.343l-.385 1.348a2.914 2.914 0 0 0-1.177-.258c-.984 0-1.455.686-1.455 2.012v1.646h3.809l.214-2.908h1.454v2.908h2.824v1.434h-2.824v5.776c0 1.283.428 2.011 1.626 2.011.364 0 .835-.149 1.177-.278l.344 1.325zM24.507 58.838h2.114l2.74 7.595 1.036 2.891h.086l.992-2.891 2.719-7.595h2.114v14.154h-1.705v-7.789c0-1.251.13-2.934.237-4.186h-.086l-1.144 3.15-2.719 7.4H29.88l-2.74-7.4-1.122-3.15h-.086c.086 1.251.237 2.935.237 4.186v7.789h-1.661V58.838zm15.194.367c0-.69.54-1.144 1.23-1.144s1.229.453 1.229 1.144c0 .669-.539 1.144-1.229 1.144s-1.23-.475-1.23-1.144zm.324 3.301h1.769v10.486h-1.769V62.506zm9.581-.258c1.381 0 2.352.583 3.064 1.251l-.885 1.144c-.626-.54-1.273-.928-2.114-.928-1.899 0-3.28 1.64-3.28 4.056 0 2.396 1.316 4.014 3.236 4.014.993 0 1.834-.496 2.46-1.058l.798 1.165c-.949.842-2.157 1.359-3.408 1.359-2.783 0-4.92-2.007-4.92-5.48.001-3.517 2.353-5.523 5.049-5.523zm5.57.258h1.467l.151 1.899h.064c.712-1.316 1.791-2.158 2.978-2.158.453 0 .776.064 1.122.215l-.346 1.554c-.345-.107-.582-.173-1.014-.173-.885 0-1.942.647-2.654 2.417v6.731h-1.769V62.506zm11.35-.258c2.568 0 4.855 2.006 4.855 5.523 0 3.474-2.287 5.48-4.855 5.48-2.567 0-4.854-2.007-4.854-5.48 0-3.517 2.287-5.523 4.854-5.523zm0 9.536c1.812 0 3.021-1.618 3.021-4.014 0-2.416-1.209-4.056-3.021-4.056-1.79 0-3.021 1.64-3.021 4.056.001 2.396 1.231 4.014 3.021 4.014zm12.153-12.946h4.208c2.869 0 4.854.971 4.854 3.452 0 1.403-.799 2.654-2.46 3.085v.086c2.071.324 3.279 1.446 3.279 3.388 0 2.783-2.2 4.143-5.372 4.143h-4.51V58.838zm3.883 6.042c2.417 0 3.409-.863 3.409-2.438 0-1.532-1.122-2.179-3.322-2.179h-2.18v4.618h2.093zm.368 6.688c2.438 0 3.862-.885 3.862-2.805 0-1.748-1.381-2.546-3.862-2.546h-2.46v5.351h2.46zm12.194-9.32c2.675 0 4.186 1.92 4.186 4.919 0 .366-.021.712-.064.971h-7.077c.129 2.266 1.488 3.689 3.495 3.689.992 0 1.834-.323 2.61-.82l.626 1.165c-.906.583-2.028 1.079-3.452 1.079-2.805 0-5.027-2.05-5.027-5.48s2.308-5.523 4.703-5.523zm2.632 4.725c0-2.136-.949-3.323-2.589-3.323-1.467 0-2.805 1.209-3.021 3.323h5.61zm8.073-4.725c2.675 0 4.186 1.92 4.186 4.919 0 .366-.021.712-.064.971h-7.077c.129 2.266 1.488 3.689 3.495 3.689.992 0 1.834-.323 2.61-.82l.626 1.165c-.906.583-2.028 1.079-3.452 1.079-2.805 0-5.027-2.05-5.027-5.48s2.308-5.523 4.703-5.523zm2.632 4.725c0-2.136-.949-3.323-2.589-3.323-1.467 0-2.805 1.209-3.021 3.323h5.61zm4.146-4.467h1.467l.151 1.899h.064c.712-1.316 1.791-2.158 2.978-2.158.453 0 .776.064 1.122.215l-.346 1.554c-.345-.107-.582-.173-1.014-.173-.885 0-1.942.647-2.654 2.417v6.731h-1.769V62.506z" fill="#5B5B5B"/><path d="M24.127 18.915h2.032l.171 1.434h.085c.877-.941 1.904-1.69 3.209-1.69 1.541 0 2.417.706 2.91 1.883 1.005-1.069 2.053-1.883 3.38-1.883 2.225 0 3.251 1.519 3.251 4.172v6.589h-2.481v-6.27c0-1.732-.514-2.374-1.604-2.374-.663 0-1.391.428-2.203 1.305v7.338h-2.46V23.15c0-1.732-.513-2.374-1.626-2.374-.642 0-1.39.428-2.203 1.305v7.338h-2.46V18.915zm17.762-3.23c0-.834.643-1.412 1.52-1.412s1.519.578 1.519 1.412c0 .813-.642 1.391-1.519 1.391s-1.52-.578-1.52-1.391zm.278 3.23h2.46v10.504h-2.46V18.915zm10.185-.257c1.348 0 2.375.535 3.081 1.22l-1.177 1.562c-.557-.492-1.112-.771-1.775-.771-1.69 0-2.867 1.391-2.867 3.509 0 2.097 1.155 3.487 2.803 3.487.855 0 1.583-.428 2.16-.898l1.027 1.562c-.984.877-2.246 1.348-3.444 1.348-2.867 0-5.07-2.011-5.07-5.498-.001-3.51 2.459-5.521 5.262-5.521zm5.307.257h2.032l.171 1.861h.086c.749-1.369 1.861-2.118 2.974-2.118.535 0 .877.064 1.198.214l-.428 2.14a3.437 3.437 0 0 0-1.092-.171c-.834 0-1.839.577-2.481 2.16v6.418h-2.46V18.915zm12.069-.257c2.632 0 5.006 2.011 5.006 5.52 0 3.487-2.374 5.498-5.006 5.498-2.609 0-4.984-2.011-4.984-5.498-.001-3.509 2.374-5.52 4.984-5.52zm0 9.007c1.541 0 2.481-1.391 2.481-3.487 0-2.118-.94-3.509-2.481-3.509-1.54 0-2.46 1.391-2.46 3.509 0 2.096.92 3.487 2.46 3.487zm7.791-14.29h1.646v21.393h-1.646V13.375z" fill="#333"/><path fill="#5B5B5B" d="M285.423 26.385c-4.604 0-8.35-3.498-8.35-7.798 0-4.294 3.745-7.79 8.35-7.79 4.603 0 8.353 3.496 8.353 7.79 0 4.3-3.75 7.798-8.353 7.798zm0-13.395c-3.305 0-5.996 2.512-5.996 5.597 0 3.089 2.691 5.603 5.996 5.603 3.308 0 6-2.514 6-5.603 0-3.085-2.692-5.597-6-5.597z"/><path fill="#5B5B5B" d="M298.693 32.072c-.304 0-.604-.107-.833-.32l-7.774-7.262a1.048 1.048 0 0 1 0-1.553 1.237 1.237 0 0 1 1.664 0l7.773 7.262a1.051 1.051 0 0 1 0 1.553 1.22 1.22 0 0 1-.83.32z"/></svg>