<svg xmlns="http://www.w3.org/2000/svg" width="284.334" height="142.617" viewBox="0 0 284.334 142.617"><path fill="#FFF" d="M0 0h284.334v38.461H0zm0 42.59h284.334v100.143H0z"/><path d="M24.147 12.804h1.825v12.104h6.311v1.469h-8.135V12.804zm14.404 3.269c2.617 0 4.948 1.924 4.948 5.297 0 3.332-2.331 5.255-4.948 5.255-2.616 0-4.947-1.924-4.947-5.255 0-3.373 2.331-5.297 4.947-5.297zm0 9.145c1.847 0 3.079-1.552 3.079-3.849 0-2.317-1.231-3.89-3.079-3.89-1.825 0-3.078 1.572-3.078 3.89 0 2.298 1.254 3.849 3.078 3.849zm6.402-8.897H46.8l1.583 5.814c.242.952.439 1.862.638 2.793h.088c.242-.931.461-1.862.726-2.793l1.649-5.814h1.759l1.671 5.814c.264.952.506 1.862.748 2.793h.088c.242-.931.44-1.842.66-2.793l1.561-5.814h1.715l-2.858 10.056h-2.199l-1.54-5.4c-.264-.952-.461-1.883-.726-2.896h-.088c-.242 1.014-.461 1.965-.748 2.917l-1.495 5.38h-2.111l-2.968-10.057zm20.98-.248c2.727 0 4.266 1.842 4.266 4.718 0 .352-.022.683-.066.931H62.92c.132 2.172 1.517 3.538 3.562 3.538 1.011 0 1.869-.311 2.661-.786l.638 1.117c-.924.559-2.067 1.034-3.518 1.034-2.858 0-5.124-1.965-5.124-5.255s2.353-5.297 4.794-5.297zm2.682 4.531c0-2.048-.967-3.186-2.639-3.186-1.495 0-2.858 1.159-3.078 3.186h5.717zm3.939 3.497c.923.704 1.869 1.2 3.145 1.2 1.407 0 2.111-.703 2.111-1.572 0-1.035-1.275-1.49-2.441-1.903-1.517-.518-3.188-1.2-3.188-2.897 0-1.614 1.363-2.855 3.672-2.855 1.341 0 2.506.518 3.32 1.138l-.858 1.076c-.726-.517-1.495-.89-2.44-.89-1.341 0-1.957.683-1.957 1.449 0 .952 1.166 1.303 2.375 1.738 1.54.538 3.254 1.138 3.254 3.042 0 1.635-1.385 3-3.914 3-1.518 0-2.969-.6-3.98-1.386l.901-1.14zm9.808-6.393h-1.583v-1.283l1.671-.104.22-2.814h1.518v2.814h2.88v1.386h-2.88v5.586c0 1.242.417 1.945 1.649 1.945.374 0 .857-.145 1.209-.269l.352 1.283c-.594.186-1.319.372-1.979.372-2.287 0-3.056-1.365-3.056-3.352v-5.564zm11.744-4.904h4.419c3.188 0 5.321 1.014 5.321 3.993 0 2.855-2.155 4.2-5.321 4.2H95.93v5.38h-1.825V12.804zm4.2 6.786c2.506 0 3.716-.869 3.716-2.793 0-1.965-1.231-2.607-3.716-2.607h-2.375v5.4h2.375zm8.293-3.269h1.495l.154 1.821h.066c.726-1.262 1.825-2.069 3.034-2.069.462 0 .792.062 1.144.207l-.352 1.49c-.352-.104-.593-.166-1.033-.166-.901 0-1.979.621-2.705 2.317v6.456h-1.803V16.321zm7.301-3.166c0-.662.55-1.097 1.253-1.097s1.253.435 1.253 1.097c0 .642-.55 1.097-1.253 1.097s-1.253-.455-1.253-1.097zm.33 3.166h1.803v10.056h-1.803V16.321zm9.764-.248c1.407 0 2.396.559 3.122 1.2l-.901 1.097c-.638-.517-1.297-.89-2.155-.89-1.935 0-3.342 1.572-3.342 3.89 0 2.297 1.341 3.849 3.298 3.849 1.011 0 1.869-.476 2.506-1.014l.814 1.117c-.968.807-2.199 1.303-3.474 1.303-2.836 0-5.014-1.924-5.014-5.255 0-3.373 2.397-5.297 5.146-5.297zm9.214 0c2.727 0 4.266 1.842 4.266 4.718 0 .352-.022.683-.066.931h-7.212c.132 2.172 1.517 3.538 3.562 3.538 1.011 0 1.869-.311 2.661-.786l.638 1.117c-.924.559-2.067 1.034-3.518 1.034-2.858 0-5.124-1.965-5.124-5.255s2.353-5.297 4.793-5.297zm2.683 4.531c0-2.048-.967-3.186-2.639-3.186-1.495 0-2.858 1.159-3.078 3.186h5.717zm8.842-7.8h8.312v1.448h-6.487v4.594h5.497v1.448h-5.497v6.083h-1.825V12.804zm10.36.351c0-.662.549-1.097 1.253-1.097s1.253.435 1.253 1.097c0 .642-.549 1.097-1.253 1.097s-1.253-.455-1.253-1.097zm.33 3.166h1.803v10.056h-1.803V16.321zm5.41 0h1.494l.154 1.821h.066c.725-1.262 1.824-2.069 3.033-2.069.463 0 .792.062 1.145.207l-.353 1.49c-.352-.104-.593-.166-1.033-.166-.901 0-1.979.621-2.704 2.317v6.456h-1.803V16.321zm7.125 7.78c.924.704 1.869 1.2 3.145 1.2 1.407 0 2.111-.703 2.111-1.572 0-1.035-1.275-1.49-2.441-1.903-1.518-.518-3.188-1.2-3.188-2.897 0-1.614 1.363-2.855 3.672-2.855 1.341 0 2.506.518 3.32 1.138l-.858 1.076c-.726-.517-1.495-.89-2.44-.89-1.342 0-1.957.683-1.957 1.449 0 .952 1.166 1.303 2.375 1.738 1.539.538 3.254 1.138 3.254 3.042 0 1.635-1.385 3-3.914 3-1.518 0-2.969-.6-3.979-1.386l.9-1.14zm9.809-6.393h-1.583v-1.283l1.671-.104.22-2.814h1.518v2.814h2.88v1.386h-2.88v5.586c0 1.242.417 1.945 1.649 1.945.373 0 .857-.145 1.209-.269l.352 1.283c-.594.186-1.319.372-1.979.372-2.287 0-3.057-1.365-3.057-3.352v-5.564zM36.708 55.691h1.637v10.863h5.663v1.318h-7.3V55.691zm12.921 2.934c2.348 0 4.439 1.727 4.439 4.754 0 2.99-2.091 4.717-4.439 4.717s-4.439-1.727-4.439-4.717c0-3.027 2.092-4.754 4.439-4.754zm0 8.208c1.657 0 2.762-1.393 2.762-3.454 0-2.08-1.105-3.491-2.762-3.491-1.638 0-2.762 1.411-2.762 3.491 0 2.061 1.125 3.454 2.762 3.454zm5.741-7.985h1.657l1.42 5.218c.217.854.395 1.671.572 2.507h.079c.217-.836.414-1.671.651-2.507l1.479-5.218h1.579l1.5 5.218c.237.854.454 1.671.671 2.507h.079c.217-.836.395-1.653.592-2.507l1.401-5.218h1.539l-2.565 9.025h-1.973l-1.381-4.847c-.237-.854-.414-1.69-.651-2.6h-.079c-.217.91-.415 1.764-.671 2.619l-1.341 4.828h-1.894l-2.664-9.025zm18.821-.223c2.447 0 3.828 1.653 3.828 4.234 0 .315-.02.613-.059.835h-6.471c.118 1.95 1.361 3.175 3.196 3.175.908 0 1.677-.278 2.388-.706l.572 1.003c-.829.501-1.854.928-3.157.928-2.564 0-4.597-1.764-4.597-4.717s2.11-4.752 4.3-4.752zm2.407 4.067c0-1.838-.868-2.86-2.368-2.86-1.342 0-2.565 1.04-2.762 2.86h5.13zm3.531 3.139c.829.631 1.677 1.077 2.821 1.077 1.263 0 1.894-.631 1.894-1.411 0-.929-1.144-1.337-2.19-1.708-1.361-.464-2.861-1.077-2.861-2.6 0-1.449 1.223-2.563 3.295-2.563 1.204 0 2.249.464 2.979 1.021l-.77.966c-.651-.464-1.341-.799-2.19-.799-1.203 0-1.756.613-1.756 1.3 0 .854 1.046 1.17 2.131 1.56 1.381.483 2.92 1.021 2.92 2.73 0 1.467-1.243 2.692-3.512 2.692-1.361 0-2.664-.539-3.571-1.244l.81-1.021zm8.799-5.739h-1.42v-1.151l1.5-.093.197-2.525h1.361v2.525h2.584v1.244h-2.584v5.014c0 1.114.375 1.746 1.479 1.746.335 0 .77-.13 1.085-.241l.315 1.151c-.533.167-1.184.334-1.776.334-2.052 0-2.742-1.226-2.742-3.008v-4.996zm10.534-4.401h3.965c2.861 0 4.775.91 4.775 3.584 0 2.562-1.934 3.77-4.775 3.77H101.1v4.828h-1.637V55.691zm3.768 6.091c2.249 0 3.334-.78 3.334-2.507 0-1.764-1.105-2.34-3.334-2.34h-2.13v4.847h2.13zm7.437-2.934h1.342l.138 1.634h.059c.651-1.133 1.638-1.857 2.723-1.857.415 0 .71.056 1.026.186l-.315 1.337c-.316-.093-.533-.148-.927-.148-.809 0-1.776.557-2.427 2.08v5.794h-1.618v-9.026zm6.55-2.841c0-.594.493-.984 1.125-.984s1.125.39 1.125.984c0 .576-.494.984-1.125.984s-1.125-.408-1.125-.984zm.296 2.841h1.618v9.025h-1.618v-9.025zm8.76-.223c1.263 0 2.15.501 2.801 1.077l-.809.984c-.572-.464-1.164-.798-1.934-.798-1.736 0-2.999 1.411-2.999 3.491 0 2.062 1.204 3.454 2.959 3.454.908 0 1.677-.427 2.249-.91l.73 1.002c-.868.725-1.973 1.17-3.117 1.17-2.545 0-4.498-1.727-4.498-4.717.001-3.026 2.152-4.753 4.618-4.753zm8.266 0c2.447 0 3.828 1.653 3.828 4.234 0 .315-.02.613-.059.835h-6.471c.118 1.95 1.361 3.175 3.196 3.175.908 0 1.677-.278 2.388-.706l.572 1.003c-.829.501-1.854.928-3.157.928-2.564 0-4.597-1.764-4.597-4.717s2.11-4.752 4.3-4.752zm2.407 4.067c0-1.838-.868-2.86-2.368-2.86-1.342 0-2.565 1.04-2.762 2.86h5.13zm7.93-7.001h7.457v1.3h-5.82v4.123h4.934v1.3h-4.934v5.459h-1.637V55.691zm9.291.316c0-.594.494-.984 1.125-.984s1.125.39 1.125.984c0 .576-.494.984-1.125.984s-1.125-.408-1.125-.984zm.297 2.841h1.617v9.025h-1.617v-9.025zm4.852 0h1.342l.138 1.634h.06c.651-1.133 1.638-1.857 2.723-1.857.415 0 .71.056 1.026.186l-.316 1.337a2.825 2.825 0 0 0-.927-.148c-.81 0-1.776.557-2.427 2.08v5.794h-1.618v-9.026zm6.392 6.983c.829.631 1.678 1.077 2.822 1.077 1.262 0 1.894-.631 1.894-1.411 0-.929-1.144-1.337-2.19-1.708-1.361-.464-2.86-1.077-2.86-2.6 0-1.449 1.224-2.563 3.295-2.563 1.204 0 2.249.464 2.979 1.021l-.77.966c-.651-.464-1.342-.799-2.19-.799-1.203 0-1.756.613-1.756 1.3 0 .854 1.046 1.17 2.131 1.56 1.382.483 2.92 1.021 2.92 2.73 0 1.467-1.243 2.692-3.512 2.692-1.361 0-2.663-.539-3.571-1.244l.808-1.021zm8.799-5.739h-1.42v-1.151l1.5-.093.197-2.525h1.361v2.525h2.584v1.244h-2.584v5.014c0 1.114.374 1.746 1.479 1.746.336 0 .77-.13 1.086-.241l.315 1.151c-.532.167-1.184.334-1.776.334-2.051 0-2.742-1.226-2.742-3.008v-4.996zM36.708 88.524h1.637v5.106h6.018v-5.106h1.657v12.182h-1.657v-5.738h-6.018v5.738h-1.637V88.524zm12.408.316c0-.594.493-.984 1.125-.984s1.125.391 1.125.984c0 .576-.494.984-1.125.984s-1.125-.408-1.125-.984zm.296 2.842h1.618v9.024h-1.618v-9.024zm5.524 8.709v-.074c-.474-.279-.848-.762-.848-1.467 0-.762.552-1.355 1.045-1.672v-.074c-.631-.482-1.243-1.355-1.243-2.433 0-1.968 1.657-3.213 3.61-3.213.533 0 1.006.093 1.361.224h3.334v1.17h-1.973c.454.408.789 1.096.789 1.856 0 1.931-1.559 3.138-3.512 3.138a3.539 3.539 0 0 1-1.44-.314c-.335.277-.611.575-.611 1.076 0 .576.395.984 1.697.984H59c2.229 0 3.354.65 3.354 2.154 0 1.672-1.875 3.119-4.854 3.119-2.348 0-3.966-.872-3.966-2.432.001-.761.534-1.486 1.402-2.042zm2.802 3.416c1.835 0 3.038-.891 3.038-1.838 0-.836-.69-1.114-1.933-1.114h-1.658a4.96 4.96 0 0 1-1.243-.148c-.69.464-.986 1.003-.986 1.522 0 .965 1.045 1.578 2.782 1.578zm1.795-9.136c0-1.318-.908-2.099-2.032-2.099s-2.032.78-2.032 2.099.927 2.153 2.032 2.153 2.032-.835 2.032-2.153zm4.675-7.187h1.618v3.603l-.06 1.856c.908-.816 1.875-1.485 3.196-1.485 2.013 0 2.92 1.226 2.92 3.528v5.72h-1.618v-5.515c0-1.69-.552-2.414-1.815-2.414-.987 0-1.657.482-2.624 1.393v6.536h-1.618V87.484zm14.323 3.974c2.447 0 3.828 1.653 3.828 4.234 0 .315-.02.612-.059.835h-6.471c.118 1.95 1.361 3.176 3.196 3.176.908 0 1.677-.278 2.388-.705l.57 1.002c-.829.502-1.854.929-3.157.929-2.564 0-4.597-1.765-4.597-4.717s2.112-4.754 4.302-4.754zm2.407 4.067c0-1.839-.868-2.86-2.368-2.86-1.342 0-2.565 1.04-2.762 2.86h5.13zm3.531 3.139c.829.631 1.677 1.076 2.821 1.076 1.263 0 1.894-.631 1.894-1.411 0-.929-1.144-1.337-2.19-1.708-1.361-.465-2.861-1.078-2.861-2.6 0-1.449 1.223-2.563 3.295-2.563 1.204 0 2.249.464 2.979 1.021l-.77.966c-.651-.465-1.341-.799-2.19-.799-1.203 0-1.756.613-1.756 1.301 0 .854 1.046 1.17 2.131 1.559 1.381.483 2.92 1.021 2.92 2.73 0 1.467-1.243 2.692-3.512 2.692-1.361 0-2.664-.538-3.571-1.244l.81-1.02zm8.799-5.738h-1.42v-1.152l1.5-.092.197-2.525h1.361v2.525h2.584v1.244h-2.584v5.014c0 1.113.375 1.745 1.479 1.745.335 0 .77-.13 1.085-.241l.315 1.151c-.533.167-1.184.334-1.776.334-2.052 0-2.742-1.226-2.742-3.009v-4.994zm10.535-4.402h3.965c2.861 0 4.775.909 4.775 3.584 0 2.562-1.934 3.77-4.775 3.77h-2.328v4.828h-1.637V88.524zm3.768 6.091c2.249 0 3.334-.78 3.334-2.507 0-1.765-1.105-2.34-3.334-2.34h-2.131v4.847h2.131zm7.437-2.933h1.342l.138 1.634h.059c.651-1.133 1.638-1.857 2.723-1.857.415 0 .71.056 1.026.187l-.315 1.336c-.316-.092-.533-.148-.927-.148-.809 0-1.776.558-2.427 2.08v5.794h-1.618v-9.026zm6.549-2.842c0-.594.493-.984 1.125-.984s1.125.391 1.125.984c0 .576-.494.984-1.125.984s-1.125-.408-1.125-.984zm.296 2.842h1.618v9.024h-1.618v-9.024zm8.76-.224c1.263 0 2.15.501 2.801 1.077l-.809.984c-.572-.465-1.164-.799-1.934-.799-1.736 0-2.999 1.412-2.999 3.491 0 2.062 1.204 3.454 2.959 3.454.908 0 1.677-.427 2.249-.91l.73 1.003c-.868.725-1.973 1.17-3.117 1.17-2.545 0-4.498-1.728-4.498-4.717.001-3.025 2.151-4.753 4.618-4.753zm8.265 0c2.447 0 3.828 1.653 3.828 4.234 0 .315-.02.612-.059.835h-6.471c.118 1.95 1.361 3.176 3.196 3.176.908 0 1.677-.278 2.388-.705l.572 1.002c-.829.502-1.854.929-3.157.929-2.564 0-4.597-1.765-4.597-4.717s2.11-4.754 4.3-4.754zm2.408 4.067c0-1.839-.868-2.86-2.368-2.86-1.342 0-2.565 1.04-2.762 2.86h5.13zm7.93-7.001h7.458v1.3h-5.82v4.123h4.933v1.299h-4.933v5.46h-1.638V88.524zm9.291.316c0-.594.494-.984 1.125-.984s1.125.391 1.125.984c0 .576-.494.984-1.125.984s-1.125-.408-1.125-.984zm.297 2.842h1.617v9.024h-1.617v-9.024zm4.852 0h1.342l.138 1.634h.06c.651-1.133 1.638-1.857 2.723-1.857.415 0 .71.056 1.026.187l-.316 1.336c-.315-.092-.532-.148-.927-.148-.81 0-1.776.558-2.427 2.08v5.794h-1.618v-9.026zm6.392 6.982c.829.631 1.678 1.076 2.822 1.076 1.262 0 1.894-.631 1.894-1.411 0-.929-1.144-1.337-2.19-1.708-1.361-.465-2.86-1.078-2.86-2.6 0-1.449 1.224-2.563 3.295-2.563 1.204 0 2.249.464 2.979 1.021l-.77.966c-.651-.465-1.342-.799-2.19-.799-1.203 0-1.756.613-1.756 1.301 0 .854 1.046 1.17 2.131 1.559 1.382.483 2.92 1.021 2.92 2.73 0 1.467-1.243 2.692-3.512 2.692-1.361 0-2.663-.538-3.571-1.244l.808-1.02zm8.799-5.738h-1.42v-1.152l1.5-.092.197-2.525h1.361v2.525h2.584v1.244h-2.584v5.014c0 1.113.374 1.745 1.479 1.745.336 0 .77-.13 1.086-.241l.315 1.151c-.532.167-1.184.334-1.776.334-2.051 0-2.742-1.226-2.742-3.009v-4.994zM36.708 121.358h1.933l2.506 6.536.947 2.488h.079l.908-2.488 2.486-6.536H47.5v12.182h-1.559v-6.704c0-1.076.118-2.525.217-3.602h-.079l-1.046 2.711-2.486 6.369h-.927l-2.506-6.369-1.026-2.711h-.079c.079 1.076.217 2.525.217 3.602v6.704h-1.519v-12.182zm17.913 2.934c2.348 0 4.439 1.728 4.439 4.754 0 2.989-2.091 4.717-4.439 4.717s-4.439-1.728-4.439-4.717c0-3.026 2.091-4.754 4.439-4.754zm0 8.208c1.657 0 2.762-1.393 2.762-3.454 0-2.079-1.105-3.491-2.762-3.491-1.638 0-2.762 1.412-2.762 3.491-.001 2.061 1.124 3.454 2.762 3.454zm6.707-1.002c.829.631 1.677 1.076 2.821 1.076 1.263 0 1.894-.631 1.894-1.411 0-.929-1.144-1.337-2.19-1.708-1.361-.465-2.861-1.078-2.861-2.6 0-1.449 1.223-2.563 3.295-2.563 1.204 0 2.249.464 2.979 1.021l-.77.966c-.651-.465-1.341-.799-2.19-.799-1.203 0-1.756.613-1.756 1.301 0 .854 1.046 1.17 2.131 1.559 1.381.483 2.92 1.021 2.92 2.73 0 1.467-1.243 2.692-3.512 2.692-1.361 0-2.664-.538-3.571-1.244l.81-1.02zm8.798-5.738h-1.42v-1.152l1.5-.092.197-2.525h1.361v2.525h2.584v1.244h-2.584v5.014c0 1.113.375 1.745 1.479 1.745.335 0 .77-.13 1.085-.241l.315 1.151c-.533.167-1.184.334-1.776.334-2.052 0-2.742-1.226-2.742-3.009v-4.994zm17.638 7.78l-3.117-5.144h-2.348v5.144h-1.637v-12.182h4.044c2.644 0 4.538.892 4.538 3.417 0 1.894-1.144 3.045-2.9 3.453l3.275 5.312h-1.855zm-5.465-6.407h2.17c2.012 0 3.137-.779 3.137-2.357 0-1.598-1.125-2.173-3.137-2.173h-2.17v4.53zm14.895.687c0-1.151-.414-2.266-1.973-2.266-1.125 0-2.111.482-2.861.966l-.651-1.059c.888-.538 2.229-1.17 3.769-1.17 2.348 0 3.334 1.468 3.334 3.714v5.534h-1.341l-.138-1.077h-.04c-.927.705-1.993 1.3-3.176 1.3-1.618 0-2.821-.946-2.821-2.562-.001-1.968 1.814-2.952 5.898-3.38zm-2.624 4.717c.927 0 1.697-.427 2.624-1.207v-2.507c-3.216.372-4.301 1.114-4.301 2.266 0 1.021.73 1.448 1.677 1.448zm7.576-6.777h-1.42v-1.152l1.5-.092.197-2.525h1.361v2.525h2.584v1.244h-2.584v5.014c0 1.113.375 1.745 1.479 1.745.335 0 .77-.13 1.085-.241l.315 1.151c-.533.167-1.184.334-1.776.334-2.052 0-2.742-1.226-2.742-3.009v-4.994zm9.785-1.468c2.447 0 3.828 1.653 3.828 4.234 0 .315-.02.612-.059.835h-6.471c.118 1.95 1.361 3.176 3.196 3.176.908 0 1.677-.278 2.388-.705l.572 1.002c-.829.502-1.854.929-3.157.929-2.564 0-4.597-1.765-4.597-4.717s2.11-4.754 4.3-4.754zm2.407 4.067c0-1.839-.868-2.86-2.368-2.86-1.342 0-2.565 1.04-2.762 2.86h5.13zm7.26-4.067c1.105 0 1.835.39 2.683 1.04l-.079-1.541v-3.473h1.638v13.222h-1.341l-.138-1.059h-.06c-.75.687-1.775 1.281-2.9 1.281-2.407 0-3.966-1.708-3.966-4.717 0-2.933 1.973-4.753 4.163-4.753zm.157 8.189c.888 0 1.657-.408 2.446-1.244v-4.717c-.809-.687-1.539-.946-2.328-.946-1.539 0-2.762 1.393-2.762 3.453.001 2.155.968 3.454 2.644 3.454zm137.15-114.227l5.944-8.02 5.941 8.02zM270.79 20.5l-5.941 8.021-5.944-8.021z" fill="#5B5B5B"/><path fill="#333" d="M18.136 67.105a.498.498 0 0 1-.315-.112l-5.437-4.412a.5.5 0 0 1 .63-.776l5.062 4.108 9.089-10.409a.5.5 0 0 1 .753.658l-9.406 10.772a.497.497 0 0 1-.376.171z"/></svg>