<svg xmlns="http://www.w3.org/2000/svg" width="309.108" height="129.033" viewBox="0 0 309.108 129.033"><path fill="#FFF" d="M1.619-.863h307.093v40.417H1.619zm0 44.23h307.093v84.517H1.619z"/><path fill="#FFF" d="M1.619 44.129h307.093v39.655H1.619z"/><text transform="translate(24.134 71.967)"><tspan x="0" y="0" fill="#5B5B5B" font-family="'SourceSansPro-Regular'" font-size="21.535">ama </tspan><tspan x="44.254" y="0" fill="#5B5B5B" font-family="'SourceSansPro-Bold'" font-size="21.535">in All Categories</tspan></text><text transform="translate(24.134 111.03)"><tspan x="0" y="0" fill="#5B5B5B" font-family="'SourceSansPro-Regular'" font-size="21.535">ama </tspan><tspan x="44.254" y="0" fill="#5B5B5B" font-family="'SourceSansPro-Bold'" font-size="21.535">in audi</tspan></text><text transform="translate(24.134 24.377)" fill="#5B5B5B" font-family="'SourceSansPro-Semibold'" font-size="21.352">ama</text><path fill="#5B5B5B" d="M286.278 22.463c-4.593 0-8.329-3.49-8.329-7.779 0-4.285 3.736-7.773 8.329-7.773 4.594 0 8.334 3.488 8.334 7.773 0 4.289-3.74 7.779-8.334 7.779zm0-13.363c-3.297 0-5.982 2.506-5.982 5.584 0 3.082 2.686 5.59 5.982 5.59 3.302 0 5.989-2.508 5.989-5.59.001-3.079-2.687-5.584-5.989-5.584z"/><path fill="#5B5B5B" d="M299.52 28.138a1.21 1.21 0 0 1-.83-.319l-7.76-7.246a1.046 1.046 0 0 1 0-1.549c.46-.428 1.2-.428 1.66 0l7.758 7.246a1.048 1.048 0 0 1 0 1.549 1.222 1.222 0 0 1-.828.319z"/><path fill="none" stroke="#999" stroke-miterlimit="10" d="M264.577 12.461l-9.187 9.188m9.187 0l-9.187-9.188"/></svg>