<svg xmlns="http://www.w3.org/2000/svg" width="426.202" height="246.219" viewBox="0 0 426.202 246.219"><path fill="#FFF" d="M1.036.463h424.166v38.559H1.036z"/><path fill="#FFD600" d="M0 0h105v39H0z"/><path fill="#FFF" d="M1.036 41.592h424.166v204.627H1.036z"/><path d="M246.563 21.385c0-4.887 2.676-7.842 6.516-7.842s6.539 2.979 6.539 7.842c0 4.91-2.699 7.981-6.539 7.981s-6.516-3.072-6.516-7.981zm11.03 0c0-3.793-1.792-6.143-4.514-6.143s-4.514 2.35-4.514 6.143c0 3.816 1.792 6.283 4.514 6.283s4.514-2.467 4.514-6.283zm7.025 8.656v3.816h-1.908v-16.08h1.582l.163 1.303h.07c1.024-.861 2.28-1.583 3.607-1.583 2.909 0 4.468 2.257 4.468 5.771 0 3.839-2.304 6.097-4.887 6.097-1.047 0-2.094-.489-3.142-1.303l.047 1.979zm2.769-2.28c1.861 0 3.234-1.699 3.234-4.491 0-2.49-.838-4.166-2.979-4.166-.954 0-1.908.536-3.025 1.536v5.934c1.024.861 2.025 1.187 2.77 1.187zm12.469-10.262c2.886 0 4.515 2.071 4.515 5.306 0 .396-.023.768-.07 1.047h-7.633c.14 2.443 1.606 3.979 3.77 3.979 1.07 0 1.978-.349 2.815-.884l.675 1.256c-.977.628-2.188 1.164-3.723 1.164-3.025 0-5.422-2.21-5.422-5.911 0-3.7 2.49-5.957 5.073-5.957zm2.839 5.096c0-2.304-1.024-3.583-2.792-3.583-1.583 0-3.025 1.303-3.258 3.583h6.05zm4.465-10.076h1.908v14.427c0 .605.256.837.535.837.116 0 .209 0 .419-.046l.256 1.443c-.256.116-.582.186-1.094.186-1.443 0-2.024-.908-2.024-2.56V12.519zM146.926 24.434h-5.562l-1.466 4.654h-1.978l5.166-15.265h2.187l5.166 15.265h-2.071l-1.442-4.654zm-.489-1.559l-.721-2.327a110.262 110.262 0 0 1-1.536-5.143h-.093a87.16 87.16 0 0 1-1.513 5.143l-.721 2.327h4.584zm5.675-5.097h1.932v6.911c0 2.118.628 3.025 2.117 3.025 1.164 0 1.978-.582 3.048-1.908v-8.028h1.908v11.309h-1.582l-.163-1.769h-.07c-1.047 1.233-2.164 2.048-3.723 2.048-2.397 0-3.467-1.536-3.467-4.421v-7.167zm16.914-.279c1.303 0 2.164.489 3.165 1.303l-.093-1.932v-4.35h1.931v16.568h-1.582l-.163-1.326h-.07c-.884.861-2.094 1.605-3.42 1.605-2.839 0-4.677-2.141-4.677-5.911 0-3.676 2.326-5.957 4.909-5.957zm.187 10.262c1.047 0 1.955-.512 2.885-1.559v-5.911c-.954-.861-1.815-1.187-2.746-1.187-1.815 0-3.257 1.746-3.257 4.329 0 2.699 1.14 4.328 3.118 4.328zm8.281-13.543c0-.745.582-1.233 1.326-1.233s1.327.489 1.327 1.233c0 .721-.582 1.233-1.327 1.233s-1.326-.512-1.326-1.233zm.349 3.56h1.908v11.309h-1.908V17.778zM35.19 13.914h9.563v2.885H38.61v3.514h5.259v2.885H38.61v5.887h-3.42V13.914zm11.632.14c0-1.047.837-1.769 1.978-1.769 1.163 0 1.978.722 1.978 1.769s-.814 1.792-1.978 1.792c-1.14 0-1.978-.745-1.978-1.792zm.28 3.49h3.42v11.542h-3.42V17.544zm12.494 4.119c-.07-1.024-.582-1.676-1.815-1.676-.978 0-1.955.396-3.072 1.047l-1.21-2.257c1.466-.884 3.118-1.512 4.933-1.512 2.955 0 4.584 1.675 4.584 5.212v6.608h-2.792l-.256-1.187h-.07c-.977.861-2.071 1.466-3.374 1.466-2.094 0-3.42-1.536-3.42-3.491 0-2.418 1.931-3.745 6.492-4.21zm-1.908 5.049c.791 0 1.303-.372 1.908-.978V23.71c-2.443.326-3.234 1.024-3.234 1.908-.001.745.511 1.094 1.326 1.094zm8.723-6.492h-1.583v-2.537l1.769-.139.396-3.072h2.839v3.072h2.769v2.676h-2.769v4.631c0 1.303.582 1.838 1.489 1.838.373 0 .792-.116 1.094-.232l.535 2.49c-.605.186-1.442.419-2.56.419-2.862 0-3.979-1.792-3.979-4.468V20.22zm284.421-6.399h8.796v1.629h-6.864v5.166h5.817v1.629h-5.817v6.841h-1.932V13.821zm15.378 3.677c2.769 0 5.235 2.164 5.235 5.957 0 3.747-2.466 5.911-5.235 5.911s-5.236-2.164-5.236-5.911c.001-3.793 2.467-5.957 5.236-5.957zm0 10.285c1.955 0 3.258-1.745 3.258-4.328 0-2.606-1.303-4.375-3.258-4.375-1.932 0-3.258 1.769-3.258 4.375.001 2.583 1.327 4.328 3.258 4.328zm8.212-10.006h1.582l.163 2.048h.07c.768-1.419 1.931-2.327 3.211-2.327.488 0 .837.07 1.21.233l-.373 1.675c-.372-.116-.628-.186-1.094-.186-.954 0-2.094.698-2.862 2.606v7.26h-1.908V17.777zm11.935-.279c1.303 0 2.164.489 3.165 1.303l-.093-1.932v-4.351h1.931v16.568h-1.582l-.163-1.326h-.07c-.884.861-2.094 1.605-3.42 1.605-2.839 0-4.677-2.141-4.677-5.911 0-3.676 2.326-5.956 4.909-5.956zm.187 10.262c1.047 0 1.955-.512 2.885-1.559V20.29c-.954-.861-1.815-1.187-2.746-1.187-1.815 0-3.257 1.746-3.257 4.329 0 2.699 1.14 4.328 3.118 4.328zM14.065 53.126h2.283v5.631c0 1.975.617 2.653 1.743 2.653 1.126 0 1.774-.679 1.774-2.653v-5.631h2.19v5.399c0 3.378-1.373 4.844-3.965 4.844-2.607 0-4.026-1.465-4.026-4.844v-5.399zm10.319 0h2.329l2.623 4.998.987 2.222h.062c-.093-1.064-.278-2.484-.278-3.672v-3.548h2.16v10.058h-2.33l-2.622-5.014-.987-2.19h-.062c.093 1.11.278 2.453.278 3.641v3.563h-2.16V53.126zm10.257 0h2.268v4.119h.062l2.993-4.119h2.499l-3.039 4.011 3.594 6.047h-2.483l-2.453-4.242-1.172 1.542v2.7h-2.268V53.126zm9.47 0h2.329l2.623 4.998.987 2.222h.062c-.093-1.064-.278-2.484-.278-3.672v-3.548h2.16v10.058h-2.33l-2.622-5.014-.987-2.19h-.062c.093 1.11.278 2.453.278 3.641v3.563h-2.16V53.126zm9.779 4.983c0-3.286 1.852-5.168 4.566-5.168 2.715 0 4.566 1.897 4.566 5.168 0 3.286-1.851 5.26-4.566 5.26-2.715.001-4.566-1.974-4.566-5.26zm6.803 0c0-2.006-.864-3.209-2.237-3.209s-2.237 1.203-2.237 3.209c0 2.021.864 3.301 2.237 3.301s2.237-1.28 2.237-3.301zm3.253-4.983h2.33l.694 4.705c.123 1.049.277 2.113.401 3.178h.062c.201-1.064.401-2.129.602-3.178l1.08-4.705h1.928l1.08 4.705c.201 1.018.401 2.098.602 3.178h.062c.139-1.08.277-2.144.417-3.178l.694-4.705h2.175l-1.79 10.058h-2.854l-.987-4.566a33.943 33.943 0 0 1-.401-2.329h-.062c-.123.74-.247 1.558-.417 2.329l-.941 4.566h-2.808l-1.867-10.058zm13.512 0h2.329l2.623 4.998.987 2.222h.062c-.093-1.064-.278-2.484-.278-3.672v-3.548h2.16v10.058h-2.33l-2.622-5.014-.987-2.19h-.062c.093 1.11.278 2.453.278 3.641v3.563h-2.16V53.126zm-63.13 18.448h3.101c2.237 0 3.733.756 3.733 2.978 0 2.129-1.512 3.132-3.733 3.132h-1.82v4.011h-1.281V71.574zm2.946 5.06c1.759 0 2.607-.648 2.607-2.083 0-1.465-.864-1.944-2.607-1.944h-1.666v4.026h1.666zm5.707-2.438h1.28v4.582c0 1.404.417 2.005 1.404 2.005.771 0 1.311-.386 2.021-1.265v-5.322h1.265v7.498h-1.049l-.108-1.172h-.046c-.694.817-1.435 1.357-2.468 1.357-1.589 0-2.298-1.018-2.298-2.931v-4.752zm8.498 0h1.049l.108 1.08h.046c.709-.709 1.481-1.265 2.515-1.265 1.573 0 2.283 1.019 2.283 2.931v4.751h-1.265v-4.582c0-1.404-.432-2.006-1.419-2.006-.771 0-1.296.401-2.052 1.157v5.43h-1.265v-7.496zm8.653 1.034h-1.111v-.957l1.172-.077.154-2.098h1.064v2.098h2.021v1.034h-2.021v4.166c0 .925.293 1.45 1.157 1.45.262 0 .602-.108.848-.2l.247.956c-.417.139-.926.278-1.388.278-1.604 0-2.145-1.018-2.145-2.499V75.23zm7.759-1.219c1.836 0 3.471 1.435 3.471 3.949 0 2.484-1.635 3.918-3.471 3.918s-3.471-1.435-3.471-3.918c0-2.514 1.635-3.949 3.471-3.949zm0 6.819c1.296 0 2.16-1.157 2.16-2.87 0-1.728-.864-2.9-2.16-2.9-1.28 0-2.16 1.172-2.16 2.9 0 1.713.88 2.87 2.16 2.87zm-33.563 9.253h2.53c3.116 0 4.782 1.805 4.782 5.014 0 3.225-1.666 5.106-4.721 5.106h-2.592v-10.12zm2.437 9.071c2.36 0 3.548-1.497 3.548-4.058 0-2.545-1.188-3.964-3.548-3.964h-1.157v8.022h1.157zm6.818-6.449h1.28v4.582c0 1.404.417 2.005 1.404 2.005.771 0 1.311-.386 2.021-1.265v-5.322h1.265v7.498h-1.049l-.108-1.172h-.046c-.694.817-1.435 1.357-2.468 1.357-1.589 0-2.298-1.018-2.298-2.931v-4.752zm11.552-.185c.987 0 1.682.417 2.191.895l-.633.817c-.447-.386-.91-.663-1.512-.663-1.357 0-2.345 1.172-2.345 2.9 0 1.712.941 2.87 2.314 2.87.709 0 1.311-.355 1.759-.756l.57.833c-.679.602-1.542.972-2.437.972-1.99 0-3.518-1.435-3.518-3.918.001-2.515 1.683-3.95 3.611-3.95zm8.067 2.931c0-.957-.324-1.882-1.542-1.882-.879 0-1.651.401-2.237.802l-.509-.879c.694-.448 1.743-.972 2.946-.972 1.836 0 2.607 1.219 2.607 3.085v4.597h-1.049l-.108-.895h-.031c-.725.586-1.558 1.08-2.484 1.08-1.265 0-2.206-.787-2.206-2.129 0-1.634 1.42-2.452 4.613-2.807zM41.15 99.37c.725 0 1.327-.355 2.052-1.003v-2.083c-2.515.309-3.363.926-3.363 1.882 0 .849.571 1.204 1.311 1.204zm5.923-5.631h-1.111v-.957l1.172-.077.154-2.098h1.064v2.098h2.021v1.034h-2.021v4.166c0 .925.293 1.45 1.157 1.45.262 0 .602-.108.848-.2l.247.956c-.417.139-.926.278-1.388.278-1.604 0-2.145-1.018-2.145-2.499v-4.151zm7.759-1.219c1.836 0 3.471 1.435 3.471 3.949 0 2.484-1.635 3.918-3.471 3.918s-3.471-1.435-3.471-3.918c0-2.514 1.635-3.949 3.471-3.949zm0 6.819c1.296 0 2.16-1.157 2.16-2.87 0-1.728-.864-2.9-2.16-2.9-1.28 0-2.16 1.172-2.16 2.9 0 1.713.88 2.87 2.16 2.87zm-40.89 17.383c.586.586 1.327 1.126 2.483 1.126 1.204 0 2.16-.879 2.16-2.252 0-1.357-.833-2.16-2.098-2.16-.679 0-1.096.216-1.682.602l-.679-.432.324-4.736h4.921v1.095H15.56l-.262 2.916c.463-.247.91-.401 1.512-.401 1.682 0 3.055.957 3.055 3.085s-1.604 3.332-3.317 3.332c-1.574 0-2.545-.663-3.224-1.342l.618-.833zm7.342-2.962c0-3.301 1.188-5.075 3.163-5.075 1.959 0 3.147 1.774 3.147 5.075s-1.188 5.137-3.147 5.137c-1.975 0-3.163-1.836-3.163-5.137zm5.075 0c0-2.885-.771-4.057-1.913-4.057-1.157 0-1.928 1.172-1.928 4.057s.771 4.119 1.928 4.119c1.142 0 1.913-1.234 1.913-4.119zm2.59 0c0-3.301 1.188-5.075 3.163-5.075 1.959 0 3.147 1.774 3.147 5.075s-1.188 5.137-3.147 5.137c-1.975 0-3.163-1.836-3.163-5.137zm5.075 0c0-2.885-.771-4.057-1.913-4.057-1.157 0-1.928 1.172-1.928 4.057s.771 4.119 1.928 4.119c1.142 0 1.913-1.234 1.913-4.119zm-19.696 13.341h1.512l1.959 5.43.741 2.067h.062l.709-2.067 1.944-5.43h1.512v10.12h-1.219v-5.569c0-.895.093-2.098.17-2.993h-.062l-.817 2.252-1.944 5.292h-.725l-1.959-5.292-.802-2.252h-.062c.062.895.169 2.098.169 2.993v5.569h-1.188v-10.12zm10.859.262c0-.494.386-.818.879-.818s.879.324.879.818c0 .478-.385.817-.879.817s-.879-.339-.879-.817zm.231 2.36h1.265v7.498h-1.265v-7.498zm3.593 5.801c.648.524 1.311.895 2.206.895.987 0 1.481-.524 1.481-1.172 0-.771-.895-1.111-1.712-1.419-1.064-.385-2.237-.895-2.237-2.16 0-1.203.957-2.129 2.576-2.129.941 0 1.759.386 2.33.849l-.602.802c-.509-.386-1.049-.664-1.712-.664-.941 0-1.373.509-1.373 1.08 0 .709.817.972 1.666 1.296 1.08.401 2.283.848 2.283 2.268 0 1.219-.972 2.237-2.746 2.237-1.064 0-2.083-.447-2.792-1.034l.632-.849zm9.718-5.986c.987 0 1.682.417 2.191.895l-.633.817c-.447-.386-.91-.663-1.512-.663-1.357 0-2.345 1.172-2.345 2.9 0 1.712.941 2.87 2.314 2.87.709 0 1.311-.355 1.759-.756l.571.833c-.679.602-1.543.972-2.438.972-1.99 0-3.518-1.435-3.518-3.918.001-2.515 1.682-3.95 3.611-3.95zm-20.282 34.458c1.25 0 2.298.617 2.978 1.311l-1.25 1.404c-.509-.463-1.002-.756-1.697-.756-1.404 0-2.499 1.219-2.499 3.24 0 2.067.957 3.271 2.438 3.271.817 0 1.419-.355 1.913-.895l1.25 1.373c-.833.972-1.944 1.481-3.193 1.481-2.607 0-4.736-1.774-4.736-5.152-.002-3.334 2.204-5.277 4.796-5.277zm3.608 5.168c0-3.286 1.852-5.168 4.566-5.168 2.715 0 4.566 1.897 4.566 5.168 0 3.286-1.851 5.26-4.566 5.26-2.714 0-4.566-1.975-4.566-5.26zm6.803 0c0-2.006-.864-3.209-2.237-3.209s-2.237 1.203-2.237 3.209c0 2.021.864 3.301 2.237 3.301s2.237-1.281 2.237-3.301zm4.225-4.983h2.329l2.623 4.998.987 2.222h.062c-.093-1.064-.278-2.484-.278-3.672v-3.548h2.16v10.058h-2.33l-2.622-5.014-.987-2.19h-.062c.093 1.11.278 2.453.278 3.641v3.563h-2.16v-10.058zm8.961 0h2.406l1.204 4.689c.309 1.096.509 2.114.817 3.224h.062c.293-1.11.509-2.128.802-3.224l1.188-4.689h2.314l-3.023 10.058h-2.73l-3.04-10.058zm9.872 0h6.294v1.913h-4.026v2.021h3.425v1.897h-3.425v2.314h4.181v1.913h-6.448v-10.058zm13.897 10.058l-1.928-3.625h-1.25v3.625h-2.268v-10.058h3.625c2.129 0 3.872.74 3.872 3.131 0 1.481-.709 2.422-1.79 2.9l2.283 4.026h-2.544zm-3.177-5.43h1.172c1.188 0 1.836-.509 1.836-1.497s-.648-1.327-1.836-1.327h-1.172v2.824zm8.884-2.716h-2.761v-1.913h7.806v1.913h-2.761v8.146H71.52v-8.146zm6.617-1.912h2.268v10.058h-2.268v-10.058zm4.642 0h3.44c2.083 0 3.703.571 3.703 2.499 0 .895-.509 1.867-1.682 2.175v.062c1.435.262 2.175 1.018 2.175 2.36 0 2.052-1.728 2.962-3.903 2.962h-3.733v-10.058zm3.332 4.057c1.111 0 1.589-.478 1.589-1.234s-.509-1.064-1.573-1.064h-1.08v2.298h1.064zm.216 4.242c1.234 0 1.867-.463 1.867-1.373 0-.879-.617-1.265-1.867-1.265h-1.28v2.638h1.28zm5.784-8.299h2.268v8.145h3.98v1.913h-6.248v-10.058zm7.99 0h6.294v1.913h-4.026v2.021h3.425v1.897h-3.425v2.314h4.181v1.913h-6.448v-10.058zm-86.359 23.46c0-3.239 1.774-5.199 4.319-5.199s4.335 1.975 4.335 5.199c0 3.255-1.79 5.292-4.335 5.292s-4.319-2.037-4.319-5.292zm7.312 0c0-2.514-1.188-4.072-2.993-4.072s-2.993 1.558-2.993 4.072c0 2.53 1.188 4.166 2.993 4.166s2.993-1.636 2.993-4.166zm3.608-1.357h-1.111v-.957l1.172-.077.154-2.098h1.064v2.098h2.021v1.034h-2.021v4.166c0 .925.293 1.45 1.157 1.45.262 0 .602-.108.848-.2l.247.956c-.417.139-.926.278-1.388.278-1.604 0-2.145-1.018-2.145-2.499v-4.151zm4.997-4.52h1.265v2.993l-.046 1.543c.709-.679 1.465-1.234 2.499-1.234 1.573 0 2.283 1.019 2.283 2.931v4.751h-1.265v-4.582c0-1.404-.432-2.006-1.419-2.006-.771 0-1.296.401-2.052 1.157v5.43h-1.265v-10.983zm11.198 3.301c1.913 0 2.993 1.373 2.993 3.518 0 .262-.016.509-.046.694h-5.06c.093 1.62 1.064 2.638 2.5 2.638.709 0 1.311-.231 1.866-.586l.448.833c-.648.417-1.45.771-2.468.771-2.006 0-3.595-1.465-3.595-3.918-.001-2.453 1.65-3.95 3.362-3.95zm1.882 3.378c0-1.527-.679-2.375-1.851-2.375-1.049 0-2.005.864-2.16 2.375h4.011zm2.961-3.193h1.049l.108 1.358h.046c.509-.941 1.28-1.543 2.129-1.543.324 0 .555.046.802.154l-.247 1.111a2.104 2.104 0 0 0-.725-.124c-.632 0-1.388.463-1.897 1.728v4.813H45.7v-7.497zm-31.758 24.017c.586.586 1.327 1.126 2.483 1.126 1.204 0 2.16-.879 2.16-2.252 0-1.357-.833-2.16-2.098-2.16-.679 0-1.096.216-1.682.602l-.679-.432.324-4.736h4.921v1.095H15.56l-.262 2.916c.463-.247.91-.401 1.512-.401 1.682 0 3.055.957 3.055 3.085s-1.604 3.332-3.317 3.332c-1.574 0-2.545-.663-3.224-1.342l.618-.833zm7.342-2.962c0-3.301 1.188-5.075 3.163-5.075 1.959 0 3.147 1.774 3.147 5.075s-1.188 5.137-3.147 5.137c-1.975 0-3.163-1.836-3.163-5.137zm5.075 0c0-2.885-.771-4.057-1.913-4.057-1.157 0-1.928 1.172-1.928 4.057s.771 4.119 1.928 4.119c1.142 0 1.913-1.235 1.913-4.119zm2.59 0c0-3.301 1.188-5.075 3.163-5.075 1.959 0 3.147 1.774 3.147 5.075s-1.188 5.137-3.147 5.137c-1.975 0-3.163-1.836-3.163-5.137zm5.075 0c0-2.885-.771-4.057-1.913-4.057-1.157 0-1.928 1.172-1.928 4.057s.771 4.119 1.928 4.119c1.142 0 1.913-1.235 1.913-4.119zm-19.696 13.341h3.101c2.237 0 3.733.756 3.733 2.977 0 2.129-1.512 3.132-3.733 3.132h-1.82v4.011h-1.281v-10.12zm2.946 5.06c1.759 0 2.607-.648 2.607-2.083 0-1.465-.864-1.944-2.607-1.944h-1.666v4.026h1.666zm5.707-2.438h1.28v4.582c0 1.404.417 2.005 1.404 2.005.771 0 1.311-.386 2.021-1.265v-5.322h1.265v7.498h-1.049l-.108-1.172h-.046c-.694.817-1.435 1.357-2.468 1.357-1.589 0-2.298-1.018-2.298-2.931v-4.752zm8.498 0h1.049l.108 1.08h.046c.709-.709 1.481-1.265 2.515-1.265 1.573 0 2.283 1.018 2.283 2.931v4.751h-1.265v-4.582c0-1.404-.432-2.006-1.419-2.006-.771 0-1.296.401-2.052 1.157v5.43h-1.265v-7.496zm8.653 1.034h-1.111v-.957l1.172-.077.154-2.098h1.064v2.098h2.021v1.034h-2.021v4.166c0 .925.293 1.45 1.157 1.45.262 0 .602-.108.848-.2l.247.956c-.417.139-.926.278-1.388.278-1.604 0-2.145-1.018-2.145-2.499v-4.151zm7.759-1.219c1.836 0 3.471 1.435 3.471 3.949 0 2.484-1.635 3.918-3.471 3.918s-3.471-1.435-3.471-3.918c0-2.514 1.635-3.949 3.471-3.949zm0 6.819c1.296 0 2.16-1.157 2.16-2.87 0-1.728-.864-2.9-2.16-2.9-1.28 0-2.16 1.172-2.16 2.9 0 1.713.88 2.87 2.16 2.87zm76.382-175.776h2.268v8.145h3.98v1.913h-6.248V53.126zm7.99 0h2.268v10.058h-2.268V53.126zm4.642 0h2.406l1.682 4.52.602 1.759h.062l.602-1.759 1.635-4.52h2.391v10.058h-2.114v-3.687c0-.987.185-2.453.293-3.425h-.062l-.833 2.33-1.542 3.903h-.91l-1.543-3.903-.802-2.33h-.062c.108.972.278 2.438.278 3.425v3.687h-2.083V53.126zm11.275 4.983c0-3.286 1.852-5.168 4.566-5.168 2.715 0 4.566 1.897 4.566 5.168 0 3.286-1.851 5.26-4.566 5.26-2.715.001-4.566-1.974-4.566-5.26zm6.803 0c0-2.006-.864-3.209-2.237-3.209s-2.237 1.203-2.237 3.209c0 2.021.864 3.301 2.237 3.301s2.237-1.28 2.237-3.301zm4.163-4.983h2.283v5.631c0 1.975.617 2.653 1.743 2.653 1.126 0 1.774-.679 1.774-2.653v-5.631h2.19v5.399c0 3.378-1.373 4.844-3.965 4.844-2.607 0-4.026-1.465-4.026-4.844v-5.399zm10.812 7.235c.725.617 1.65 1.049 2.483 1.049.941 0 1.404-.371 1.404-.972 0-.632-.571-.833-1.45-1.203l-1.311-.555c-1.034-.417-2.021-1.281-2.021-2.746 0-1.666 1.481-2.993 3.579-2.993 1.157 0 2.375.463 3.24 1.327l-1.157 1.435c-.663-.509-1.28-.802-2.083-.802-.787 0-1.28.339-1.28.91 0 .617.663.833 1.527 1.188l1.296.524c1.219.494 1.99 1.312 1.99 2.73 0 1.666-1.389 3.116-3.795 3.116-1.312 0-2.7-.494-3.718-1.45l1.296-1.558zm7.928-7.235h2.268v10.058h-2.268V53.126zm4.643 0h2.329l2.623 4.998.987 2.222h.062c-.093-1.064-.278-2.484-.278-3.672v-3.548h2.16v10.058h-2.33l-2.622-5.014-.987-2.19h-.062c.093 1.11.278 2.453.278 3.641v3.563h-2.16V53.126zm10.257 0h6.294v1.913h-4.026v2.021h3.425v1.897h-3.425v2.314h4.181v1.913h-6.448V53.126zm-68.282 26.362c.725.756 1.743 1.265 2.792 1.265 1.327 0 2.113-.664 2.113-1.651 0-1.034-.725-1.357-1.681-1.79l-1.45-.632c-.957-.401-2.052-1.126-2.052-2.607 0-1.543 1.342-2.685 3.178-2.685 1.204 0 2.268.509 2.993 1.25l-.694.833c-.617-.586-1.358-.957-2.299-.957-1.126 0-1.882.571-1.882 1.481 0 .972.879 1.342 1.682 1.681l1.435.617c1.172.509 2.083 1.203 2.083 2.7 0 1.604-1.312 2.885-3.44 2.885a4.91 4.91 0 0 1-3.548-1.496l.77-.894zm8.298-4.258h-1.111v-.957l1.172-.077.154-2.098h1.064v2.098h2.021v1.034h-2.021v4.166c0 .925.293 1.45 1.157 1.45.262 0 .602-.108.848-.2l.247.956c-.417.139-.926.278-1.388.278-1.604 0-2.145-1.018-2.145-2.499V75.23zm4.766-3.394c0-.494.386-.818.879-.818s.879.324.879.818c0 .478-.385.817-.879.817s-.879-.339-.879-.817zm.232 2.36h1.265v7.498H137.8v-7.498zm3.794-3.486h1.265v9.564c0 .401.17.556.355.556.077 0 .139 0 .278-.031l.169.956c-.169.077-.386.124-.725.124-.956 0-1.342-.602-1.342-1.697V70.71zm6.848 3.301c1.836 0 3.471 1.435 3.471 3.949 0 2.484-1.635 3.918-3.471 3.918s-3.471-1.435-3.471-3.918c0-2.514 1.635-3.949 3.471-3.949zm0 6.819c1.296 0 2.16-1.157 2.16-2.87 0-1.728-.864-2.9-2.16-2.9-1.28 0-2.16 1.172-2.16 2.9.001 1.713.88 2.87 2.16 2.87zm-24.555 14.266c0-3.239 1.774-5.199 4.319-5.199s4.335 1.975 4.335 5.199c0 3.255-1.79 5.292-4.335 5.292s-4.319-2.036-4.319-5.292zm7.312 0c0-2.514-1.188-4.072-2.993-4.072s-2.993 1.558-2.993 4.072c0 2.53 1.188 4.166 2.993 4.166 1.806 0 2.993-1.636 2.993-4.166zm3.608-1.357h-1.111v-.957l1.172-.077.154-2.098h1.064v2.098h2.021v1.034h-2.021v4.166c0 .925.293 1.45 1.157 1.45.262 0 .602-.108.848-.2l.247.956c-.417.139-.926.278-1.388.278-1.604 0-2.145-1.018-2.145-2.499v-4.151zm4.998-4.52h1.265v2.993l-.046 1.543c.709-.679 1.465-1.234 2.499-1.234 1.573 0 2.283 1.019 2.283 2.931v4.751h-1.265v-4.582c0-1.404-.432-2.006-1.419-2.006-.771 0-1.296.401-2.052 1.157v5.43h-1.265V89.219zm11.198 3.301c1.913 0 2.993 1.373 2.993 3.518 0 .262-.016.509-.046.694h-5.06c.093 1.62 1.064 2.638 2.5 2.638.709 0 1.311-.231 1.866-.586l.448.833c-.648.417-1.45.771-2.468.771-2.006 0-3.595-1.465-3.595-3.918-.001-2.453 1.65-3.95 3.362-3.95zm1.882 3.378c0-1.527-.679-2.375-1.851-2.375-1.049 0-2.005.864-2.16 2.375h4.011zm2.961-3.193h1.049l.108 1.358h.046c.509-.941 1.28-1.543 2.129-1.543.324 0 .555.046.802.154l-.247 1.111a2.104 2.104 0 0 0-.725-.124c-.632 0-1.388.463-1.897 1.728v4.813h-1.265v-7.497zm-31.373 15.887h3.101c2.237 0 3.733.756 3.733 2.977 0 2.129-1.512 3.132-3.733 3.132h-1.82v4.011h-1.281v-10.12zm2.947 5.06c1.759 0 2.607-.648 2.607-2.083 0-1.465-.864-1.944-2.607-1.944h-1.666v4.026h1.666zm5.706-2.438h1.28v4.582c0 1.404.417 2.005 1.404 2.005.771 0 1.311-.386 2.021-1.265v-5.322h1.265v7.498h-1.049l-.108-1.172h-.046c-.694.817-1.435 1.357-2.468 1.357-1.589 0-2.298-1.018-2.298-2.931v-4.752zm8.499 0h1.049l.108 1.08h.046c.709-.709 1.481-1.265 2.515-1.265 1.573 0 2.283 1.018 2.283 2.931v4.751h-1.265v-4.582c0-1.404-.432-2.006-1.419-2.006-.771 0-1.296.401-2.052 1.157v5.43h-1.265v-7.496zm8.653 1.034h-1.111v-.957l1.172-.077.154-2.098h1.064v2.098h2.021v1.034h-2.021v4.166c0 .925.293 1.45 1.157 1.45.262 0 .602-.108.848-.2l.247.956c-.417.139-.926.278-1.388.278-1.604 0-2.145-1.018-2.145-2.499v-4.151zm7.759-1.219c1.836 0 3.471 1.435 3.471 3.949 0 2.484-1.635 3.918-3.471 3.918s-3.471-1.435-3.471-3.918c-.001-2.514 1.635-3.949 3.471-3.949zm0 6.819c1.296 0 2.16-1.157 2.16-2.87 0-1.728-.864-2.9-2.16-2.9-1.28 0-2.16 1.172-2.16 2.9 0 1.713.879 2.87 2.16 2.87zm-33.564 9.253h3.008c2.052 0 3.471.694 3.471 2.468 0 1.003-.571 1.898-1.759 2.206v.062c1.481.231 2.345 1.034 2.345 2.422 0 1.99-1.573 2.962-3.841 2.962h-3.225v-10.12zm2.777 4.319c1.728 0 2.438-.617 2.438-1.743 0-1.096-.802-1.558-2.375-1.558h-1.558v3.301h1.495zm.262 4.783c1.743 0 2.762-.633 2.762-2.005 0-1.25-.987-1.82-2.762-1.82h-1.758v3.826h1.758zm5.907-6.48h1.049l.108 1.358h.046c.509-.941 1.28-1.543 2.129-1.543.324 0 .555.046.802.154l-.247 1.111a2.104 2.104 0 0 0-.725-.124c-.632 0-1.388.463-1.897 1.728v4.813h-1.265v-7.497zm9.209 2.746c0-.957-.324-1.882-1.542-1.882-.879 0-1.651.401-2.237.802l-.509-.879c.694-.447 1.743-.972 2.946-.972 1.836 0 2.607 1.219 2.607 3.085v4.597h-1.049l-.108-.895h-.031c-.725.586-1.558 1.08-2.484 1.08-1.265 0-2.206-.787-2.206-2.129 0-1.634 1.42-2.452 4.613-2.807zm-2.052 3.919c.725 0 1.327-.355 2.052-1.003v-2.083c-2.515.309-3.363.926-3.363 1.882 0 .849.57 1.204 1.311 1.204zm4.627-6.665h1.312l1.419 4.258c.216.741.463 1.497.694 2.206h.062c.216-.709.463-1.465.679-2.206l1.419-4.258h1.25l-2.653 7.498h-1.481l-2.701-7.498zm11.137-.185c1.836 0 3.471 1.435 3.471 3.949 0 2.484-1.635 3.918-3.471 3.918s-3.471-1.435-3.471-3.918c0-2.514 1.635-3.949 3.471-3.949zm0 6.819c1.296 0 2.16-1.157 2.16-2.87 0-1.728-.864-2.9-2.16-2.9-1.28 0-2.16 1.172-2.16 2.9 0 1.713.88 2.87 2.16 2.87zm-32.067 27.824h3.44c2.083 0 3.703.571 3.703 2.499 0 .895-.509 1.867-1.682 2.175v.062c1.435.262 2.175 1.018 2.175 2.36 0 2.052-1.728 2.962-3.903 2.962h-3.733v-10.058zm3.332 4.057c1.111 0 1.589-.478 1.589-1.234s-.509-1.064-1.573-1.064h-1.08v2.298h1.064zm.216 4.242c1.234 0 1.867-.463 1.867-1.373 0-.879-.617-1.265-1.867-1.265h-1.28v2.638h1.28zm5.721-8.299h2.283v5.631c0 1.975.617 2.653 1.743 2.653 1.126 0 1.774-.679 1.774-2.653v-5.631h2.19v5.399c0 3.378-1.373 4.844-3.965 4.844-2.607 0-4.026-1.465-4.026-4.844v-5.399zm10.813 7.235c.725.617 1.65 1.049 2.483 1.049.941 0 1.404-.371 1.404-.972 0-.632-.571-.833-1.45-1.203l-1.311-.555c-1.034-.417-2.021-1.281-2.021-2.746 0-1.666 1.481-2.993 3.579-2.993 1.157 0 2.375.463 3.24 1.327l-1.157 1.435c-.663-.509-1.28-.802-2.083-.802-.787 0-1.28.339-1.28.91 0 .617.663.833 1.527 1.188l1.296.524c1.219.494 1.99 1.312 1.99 2.73 0 1.666-1.389 3.116-3.795 3.116-1.312 0-2.7-.494-3.718-1.45l1.296-1.558zm-19.882 11.211h2.53c3.116 0 4.782 1.805 4.782 5.014 0 3.225-1.666 5.106-4.721 5.106h-2.592v-10.12zm2.438 9.072c2.36 0 3.548-1.497 3.548-4.058 0-2.545-1.188-3.964-3.548-3.964h-1.157v8.022h1.157zm6.817-6.449h1.28v4.582c0 1.404.417 2.005 1.404 2.005.771 0 1.311-.386 2.021-1.265v-5.322h1.265v7.498h-1.049l-.108-1.172h-.046c-.694.817-1.435 1.357-2.468 1.357-1.589 0-2.298-1.018-2.298-2.931v-4.752zm11.553-.185c.987 0 1.682.417 2.191.895l-.633.817c-.447-.386-.91-.663-1.512-.663-1.357 0-2.345 1.172-2.345 2.9 0 1.712.941 2.87 2.314 2.87.709 0 1.311-.355 1.759-.756l.57.833c-.679.602-1.542.972-2.437.972-1.99 0-3.518-1.435-3.518-3.918.001-2.515 1.683-3.95 3.611-3.95zm8.067 2.931c0-.957-.324-1.882-1.542-1.882-.879 0-1.651.401-2.237.802l-.509-.879c.694-.448 1.743-.972 2.946-.972 1.836 0 2.607 1.219 2.607 3.085v4.597h-1.049l-.108-.895h-.031c-.725.586-1.558 1.08-2.484 1.08-1.265 0-2.206-.787-2.206-2.129 0-1.635 1.419-2.452 4.613-2.807zm-2.052 3.919c.725 0 1.327-.355 2.052-1.003v-2.083c-2.515.309-3.363.926-3.363 1.882 0 .849.57 1.204 1.311 1.204zm5.922-5.631h-1.111v-.957l1.172-.077.154-2.098h1.064v2.098h2.021v1.034h-2.021v4.166c0 .925.293 1.45 1.157 1.45.262 0 .602-.108.848-.2l.247.956c-.417.139-.926.278-1.388.278-1.604 0-2.145-1.018-2.145-2.499v-4.151zm7.76-1.219c1.836 0 3.471 1.435 3.471 3.949 0 2.484-1.635 3.918-3.471 3.918s-3.471-1.435-3.471-3.918c-.001-2.514 1.635-3.949 3.471-3.949zm0 6.819c1.296 0 2.16-1.157 2.16-2.87 0-1.728-.864-2.9-2.16-2.9-1.28 0-2.16 1.172-2.16 2.9 0 1.713.879 2.87 2.16 2.87zm-41.091 14.266c0-3.239 1.774-5.199 4.319-5.199s4.335 1.975 4.335 5.199c0 3.255-1.79 5.292-4.335 5.292s-4.319-2.036-4.319-5.292zm7.312 0c0-2.514-1.188-4.072-2.993-4.072s-2.993 1.558-2.993 4.072c0 2.53 1.188 4.166 2.993 4.166 1.806 0 2.993-1.635 2.993-4.166zm3.608-1.357h-1.111v-.957l1.172-.077.154-2.098h1.064v2.098h2.021v1.034h-2.021v4.166c0 .925.293 1.45 1.157 1.45.262 0 .602-.108.848-.2l.247.956c-.417.139-.926.278-1.388.278-1.604 0-2.145-1.018-2.145-2.499v-4.151zm4.998-4.52h1.265v2.993l-.046 1.543c.709-.679 1.465-1.234 2.499-1.234 1.573 0 2.283 1.018 2.283 2.931v4.751h-1.265v-4.582c0-1.404-.432-2.006-1.419-2.006-.771 0-1.296.401-2.052 1.157v5.43h-1.265v-10.983zm11.198 3.301c1.913 0 2.993 1.373 2.993 3.518 0 .262-.016.509-.046.694h-5.06c.093 1.62 1.064 2.638 2.5 2.638.709 0 1.311-.231 1.866-.586l.448.833c-.648.417-1.45.771-2.468.771-2.006 0-3.595-1.465-3.595-3.918-.001-2.453 1.65-3.95 3.362-3.95zm1.882 3.379c0-1.527-.679-2.375-1.851-2.375-1.049 0-2.005.864-2.16 2.375h4.011zm2.961-3.194h1.049l.108 1.358h.046c.509-.941 1.28-1.543 2.129-1.543.324 0 .555.046.802.154l-.247 1.111a2.104 2.104 0 0 0-.725-.124c-.632 0-1.388.463-1.897 1.728v4.813h-1.265v-7.497zm-31.373 15.887h1.512l1.959 5.43.741 2.067h.062l.709-2.067 1.944-5.43h1.512v10.12h-1.219v-5.569c0-.895.093-2.098.17-2.993h-.062l-.817 2.252-1.944 5.292h-.725l-1.959-5.292-.802-2.252h-.062c.062.895.169 2.098.169 2.993v5.569h-1.188v-10.12zm10.859.262c0-.494.386-.818.879-.818s.879.324.879.818c0 .478-.385.817-.879.817s-.879-.339-.879-.817zm.231 2.36h1.265v7.498h-1.265v-7.498zm3.594 5.801c.648.524 1.311.895 2.206.895.987 0 1.481-.524 1.481-1.172 0-.771-.895-1.111-1.712-1.419-1.064-.385-2.237-.895-2.237-2.16 0-1.203.957-2.129 2.576-2.129.941 0 1.759.386 2.33.849l-.602.802c-.509-.386-1.049-.664-1.712-.664-.941 0-1.373.509-1.373 1.08 0 .709.817.972 1.666 1.296 1.08.401 2.283.848 2.283 2.268 0 1.219-.972 2.237-2.746 2.237-1.064 0-2.083-.447-2.792-1.034l.632-.849zm9.717-5.986c.987 0 1.682.417 2.191.895l-.633.817c-.447-.386-.91-.663-1.512-.663-1.357 0-2.345 1.172-2.345 2.9 0 1.712.941 2.87 2.314 2.87.709 0 1.311-.355 1.759-.756l.571.833c-.679.602-1.543.972-2.438.972-1.99 0-3.518-1.435-3.518-3.918.001-2.515 1.683-3.95 3.611-3.95zm79.055-161.722c.725.617 1.65 1.049 2.483 1.049.941 0 1.404-.371 1.404-.972 0-.632-.571-.833-1.45-1.203l-1.311-.555c-1.034-.417-2.021-1.281-2.021-2.746 0-1.666 1.481-2.993 3.579-2.993 1.157 0 2.375.463 3.24 1.327l-1.157 1.435c-.663-.509-1.28-.802-2.083-.802-.787 0-1.28.339-1.28.91 0 .617.663.833 1.527 1.188l1.296.524c1.219.494 1.99 1.312 1.99 2.73 0 1.666-1.388 3.116-3.795 3.116-1.312 0-2.7-.494-3.718-1.45l1.296-1.558zm7.927-7.235h3.671c2.175 0 3.934.802 3.934 3.24 0 2.36-1.805 3.409-3.934 3.409h-1.404v3.409h-2.268V53.126zm3.533 4.844c1.25 0 1.851-.555 1.851-1.604s-.648-1.435-1.851-1.435h-1.265v3.039h1.265zm5.336.139c0-3.286 1.852-5.168 4.566-5.168 2.715 0 4.566 1.897 4.566 5.168 0 3.286-1.851 5.26-4.566 5.26-2.715.001-4.566-1.974-4.566-5.26zm6.803 0c0-2.006-.864-3.209-2.237-3.209s-2.237 1.203-2.237 3.209c0 2.021.864 3.301 2.237 3.301s2.237-1.28 2.237-3.301zm9.67 5.076l-1.928-3.625h-1.25v3.625h-2.268V53.126h3.625c2.129 0 3.872.74 3.872 3.131 0 1.481-.709 2.422-1.79 2.9l2.283 4.026h-2.544zm-3.177-5.431h1.172c1.188 0 1.836-.509 1.836-1.497s-.648-1.327-1.836-1.327h-1.172v2.824zm8.884-2.714h-2.761v-1.913h7.806v1.913h-2.761v8.145h-2.283V55.04zm6.879 5.321c.725.617 1.65 1.049 2.483 1.049.941 0 1.404-.371 1.404-.972 0-.632-.571-.833-1.45-1.203l-1.311-.555c-1.034-.417-2.021-1.281-2.021-2.746 0-1.666 1.481-2.993 3.579-2.993 1.157 0 2.375.463 3.24 1.327l-1.157 1.435c-.663-.509-1.28-.802-2.083-.802-.787 0-1.28.339-1.28.91 0 .617.663.833 1.527 1.188l1.296.524c1.219.494 1.99 1.312 1.99 2.73 0 1.666-1.388 3.116-3.795 3.116-1.312 0-2.7-.494-3.718-1.45l1.296-1.558zm-46.688 19.343c.586.586 1.327 1.126 2.483 1.126 1.204 0 2.16-.879 2.16-2.252 0-1.357-.833-2.16-2.098-2.16-.679 0-1.096.216-1.682.602l-.679-.432.324-4.736h4.921v1.095h-3.811l-.262 2.916c.463-.247.91-.401 1.512-.401 1.682 0 3.055.957 3.055 3.085s-1.604 3.332-3.317 3.332c-1.574 0-2.545-.663-3.224-1.342l.618-.833zm7.341-2.962c0-3.301 1.188-5.075 3.163-5.075 1.959 0 3.147 1.774 3.147 5.075s-1.188 5.137-3.147 5.137c-1.975 0-3.163-1.836-3.163-5.137zm5.075 0c0-2.885-.771-4.057-1.913-4.057-1.157 0-1.928 1.172-1.928 4.057s.771 4.119 1.928 4.119c1.142 0 1.913-1.235 1.913-4.119zm2.591 0c0-3.301 1.188-5.075 3.163-5.075 1.959 0 3.147 1.774 3.147 5.075s-1.188 5.137-3.147 5.137c-1.975 0-3.163-1.836-3.163-5.137zm5.075 0c0-2.885-.771-4.057-1.913-4.057-1.157 0-1.928 1.172-1.928 4.057s.771 4.119 1.928 4.119c1.142 0 1.913-1.235 1.913-4.119zm-20.283 18.354c0-3.239 1.774-5.199 4.319-5.199s4.335 1.975 4.335 5.199c0 3.255-1.79 5.292-4.335 5.292s-4.319-2.036-4.319-5.292zm7.312 0c0-2.514-1.188-4.072-2.993-4.072s-2.993 1.558-2.993 4.072c0 2.53 1.188 4.166 2.993 4.166 1.806 0 2.993-1.636 2.993-4.166zm3.608-1.357h-1.111v-.957l1.172-.077.154-2.098h1.064v2.098h2.021v1.034h-2.021v4.166c0 .925.293 1.45 1.157 1.45.262 0 .602-.108.848-.2l.247.956c-.417.139-.926.278-1.388.278-1.604 0-2.145-1.018-2.145-2.499v-4.151zm4.997-4.52h1.265v2.993l-.046 1.543c.709-.679 1.465-1.234 2.499-1.234 1.573 0 2.283 1.019 2.283 2.931v4.751h-1.265v-4.582c0-1.404-.432-2.006-1.419-2.006-.771 0-1.296.401-2.052 1.157v5.43h-1.265V89.219zm11.199 3.301c1.913 0 2.993 1.373 2.993 3.518 0 .262-.016.509-.046.694h-5.06c.093 1.62 1.064 2.638 2.5 2.638.709 0 1.311-.231 1.866-.586l.448.833c-.648.417-1.45.771-2.468.771-2.006 0-3.595-1.465-3.595-3.918-.002-2.453 1.649-3.95 3.362-3.95zm1.882 3.378c0-1.527-.679-2.375-1.851-2.375-1.049 0-2.005.864-2.16 2.375h4.011zm2.961-3.193h1.049l.108 1.358h.046c.509-.941 1.28-1.543 2.129-1.543.324 0 .555.046.802.154l-.247 1.111a2.104 2.104 0 0 0-.725-.124c-.632 0-1.388.463-1.897 1.728v4.813h-1.265v-7.497zm-31.342 23.801c.725.756 1.743 1.265 2.792 1.265 1.327 0 2.113-.664 2.113-1.651 0-1.034-.725-1.357-1.681-1.79l-1.45-.632c-.957-.401-2.052-1.126-2.052-2.607 0-1.543 1.342-2.685 3.178-2.685 1.204 0 2.268.509 2.993 1.25l-.694.833c-.617-.586-1.358-.957-2.299-.957-1.126 0-1.882.571-1.882 1.481 0 .972.879 1.342 1.682 1.681l1.435.617c1.172.509 2.083 1.204 2.083 2.7 0 1.604-1.312 2.885-3.44 2.885a4.91 4.91 0 0 1-3.548-1.496l.77-.894zm8.298-4.258h-1.111v-.957l1.172-.077.154-2.098h1.064v2.098h2.021v1.034h-2.021v4.166c0 .925.293 1.45 1.157 1.45.262 0 .602-.108.848-.2l.247.956c-.417.139-.926.278-1.388.278-1.604 0-2.145-1.018-2.145-2.499v-4.151zm4.766-3.394c0-.494.386-.818.879-.818s.879.324.879.818c0 .478-.385.817-.879.817s-.879-.338-.879-.817zm.232 2.36h1.265v7.498h-1.265v-7.498zm3.794-3.486h1.265v9.564c0 .401.17.556.355.556.077 0 .139 0 .278-.031l.169.956c-.169.077-.386.124-.725.124-.956 0-1.342-.602-1.342-1.697v-9.472zm6.848 3.301c1.836 0 3.471 1.435 3.471 3.949 0 2.484-1.635 3.918-3.471 3.918s-3.471-1.435-3.471-3.918c0-2.514 1.635-3.949 3.471-3.949zm0 6.819c1.296 0 2.16-1.157 2.16-2.87 0-1.728-.864-2.9-2.16-2.9-1.28 0-2.16 1.172-2.16 2.9.001 1.713.88 2.87 2.16 2.87zm-24.169 27.824h6.294v1.913h-4.026v2.021h3.425v1.897h-3.425v2.314h4.181v1.913h-6.448v-10.058zm9.1 7.235c.725.617 1.65 1.049 2.483 1.049.941 0 1.404-.371 1.404-.972 0-.632-.571-.833-1.45-1.203l-1.311-.555c-1.034-.417-2.021-1.281-2.021-2.746 0-1.666 1.481-2.993 3.579-2.993 1.157 0 2.375.463 3.24 1.327l-1.157 1.435c-.663-.509-1.28-.802-2.083-.802-.787 0-1.28.339-1.28.91 0 .617.663.833 1.527 1.188l1.296.524c1.219.494 1.99 1.312 1.99 2.73 0 1.666-1.388 3.116-3.795 3.116-1.312 0-2.7-.494-3.718-1.45l1.296-1.558zm9.578-5.323h-2.761v-1.913h7.806v1.913h-2.761v8.146h-2.283v-8.146zm10.72 5.755h-3.07l-.617 2.391h-2.314l3.147-10.058h2.73l3.147 10.058h-2.407l-.616-2.391zm-.462-1.774l-.231-.926c-.278-1.003-.556-2.19-.818-3.24h-.062c-.247 1.064-.509 2.237-.787 3.24l-.247.926h2.145zm5.922-3.981h-2.761v-1.913h7.806v1.913h-2.761v8.146h-2.283v-8.146zm6.617-1.912h6.294v1.913h-4.026v2.021h3.425v1.897h-3.425v2.314h4.181v1.913h-6.448v-10.058zm15.979-.185c1.25 0 2.298.617 2.978 1.311l-1.25 1.404c-.509-.463-1.002-.756-1.697-.756-1.404 0-2.499 1.219-2.499 3.24 0 2.067.957 3.271 2.438 3.271.817 0 1.419-.355 1.913-.895l1.25 1.373c-.833.972-1.943 1.481-3.193 1.481-2.607 0-4.736-1.774-4.736-5.152-.001-3.333 2.205-5.277 4.796-5.277zm9.378 7.852h-3.07l-.617 2.391h-2.314l3.147-10.058h2.73l3.147 10.058h-2.407l-.616-2.391zm-.463-1.774l-.231-.926c-.278-1.003-.556-2.19-.818-3.24h-.062c-.247 1.064-.509 2.237-.787 3.24l-.247.926h2.145zm10.026 4.165l-1.928-3.625h-1.25v3.625h-2.268v-10.058h3.625c2.129 0 3.872.74 3.872 3.131 0 1.481-.709 2.422-1.79 2.9l2.283 4.026h-2.544zm-3.178-5.43h1.172c1.188 0 1.836-.509 1.836-1.497s-.648-1.327-1.836-1.327h-1.172v2.824zm-72.986 21.733c.725.756 1.743 1.265 2.792 1.265 1.327 0 2.113-.664 2.113-1.651 0-1.034-.725-1.357-1.681-1.79l-1.45-.632c-.957-.401-2.052-1.126-2.052-2.607 0-1.543 1.342-2.685 3.178-2.685 1.204 0 2.268.509 2.993 1.25l-.694.833c-.617-.586-1.358-.957-2.299-.957-1.126 0-1.882.571-1.882 1.481 0 .972.879 1.342 1.682 1.681l1.435.617c1.172.509 2.083 1.203 2.083 2.7 0 1.604-1.312 2.885-3.44 2.885a4.91 4.91 0 0 1-3.548-1.496l.77-.894zm8.298-4.258h-1.111v-.957l1.172-.077.154-2.098h1.064v2.098h2.021v1.034h-2.021v4.166c0 .925.293 1.45 1.157 1.45.262 0 .602-.108.848-.2l.247.956c-.417.139-.926.278-1.388.278-1.604 0-2.145-1.018-2.145-2.499v-4.151zm4.766-3.394c0-.494.386-.818.879-.818s.879.324.879.818c0 .478-.385.817-.879.817s-.879-.339-.879-.817zm.232 2.36h1.265v7.498h-1.265v-7.498zm3.794-3.486h1.265v9.564c0 .401.17.556.355.556.077 0 .139 0 .278-.031l.169.956c-.169.077-.386.124-.725.124-.956 0-1.342-.602-1.342-1.697v-9.472zm6.848 3.301c1.836 0 3.471 1.435 3.471 3.949 0 2.484-1.635 3.918-3.471 3.918s-3.471-1.435-3.471-3.918c0-2.514 1.635-3.949 3.471-3.949zm0 6.819c1.296 0 2.16-1.157 2.16-2.87 0-1.728-.864-2.9-2.16-2.9-1.28 0-2.16 1.172-2.16 2.9.001 1.713.88 2.87 2.16 2.87zm-23.969 9.252h2.53c3.116 0 4.782 1.805 4.782 5.014 0 3.225-1.666 5.106-4.721 5.106h-2.592v-10.12zm2.437 9.072c2.36 0 3.548-1.497 3.548-4.058 0-2.545-1.188-3.964-3.548-3.964h-1.157v8.022h1.157zm6.818-6.449h1.28v4.582c0 1.404.417 2.005 1.404 2.005.771 0 1.311-.386 2.021-1.265v-5.322h1.265v7.498h-1.049l-.108-1.172h-.046c-.694.817-1.435 1.357-2.468 1.357-1.589 0-2.298-1.018-2.298-2.931v-4.752zm11.553-.185c.987 0 1.682.417 2.191.895l-.633.817c-.447-.386-.91-.663-1.512-.663-1.357 0-2.345 1.172-2.345 2.9 0 1.712.941 2.87 2.314 2.87.709 0 1.311-.355 1.759-.756l.57.833c-.679.602-1.542.972-2.437.972-1.99 0-3.518-1.435-3.518-3.918.001-2.515 1.682-3.95 3.611-3.95zm8.066 2.931c0-.957-.324-1.882-1.542-1.882-.879 0-1.651.401-2.237.802l-.509-.879c.694-.448 1.743-.972 2.946-.972 1.836 0 2.607 1.219 2.607 3.085v4.597h-1.049l-.108-.895h-.031c-.725.586-1.558 1.08-2.484 1.08-1.265 0-2.206-.787-2.206-2.129.001-1.635 1.42-2.452 4.613-2.807zm-2.051 3.919c.725 0 1.327-.355 2.052-1.003v-2.083c-2.515.309-3.363.926-3.363 1.882 0 .849.57 1.204 1.311 1.204zm5.922-5.631h-1.111v-.957l1.172-.077.154-2.098h1.064v2.098h2.021v1.034h-2.021v4.166c0 .925.293 1.45 1.157 1.45.262 0 .602-.108.848-.2l.247.956c-.417.139-.926.278-1.388.278-1.604 0-2.145-1.018-2.145-2.499v-4.151zm7.759-1.219c1.836 0 3.471 1.435 3.471 3.949 0 2.484-1.635 3.918-3.471 3.918s-3.471-1.435-3.471-3.918c0-2.514 1.635-3.949 3.471-3.949zm0 6.819c1.296 0 2.16-1.157 2.16-2.87 0-1.728-.864-2.9-2.16-2.9-1.28 0-2.16 1.172-2.16 2.9.001 1.713.88 2.87 2.16 2.87zm-41.09 14.266c0-3.239 1.774-5.199 4.319-5.199s4.335 1.975 4.335 5.199c0 3.255-1.79 5.292-4.335 5.292s-4.319-2.036-4.319-5.292zm7.312 0c0-2.514-1.188-4.072-2.993-4.072s-2.993 1.558-2.993 4.072c0 2.53 1.188 4.166 2.993 4.166 1.806 0 2.993-1.635 2.993-4.166zm3.608-1.357h-1.111v-.957l1.172-.077.154-2.098h1.064v2.098h2.021v1.034h-2.021v4.166c0 .925.293 1.45 1.157 1.45.262 0 .602-.108.848-.2l.247.956c-.417.139-.926.278-1.388.278-1.604 0-2.145-1.018-2.145-2.499v-4.151zm4.997-4.52h1.265v2.993l-.046 1.543c.709-.679 1.465-1.234 2.499-1.234 1.573 0 2.283 1.018 2.283 2.931v4.751h-1.265v-4.582c0-1.404-.432-2.006-1.419-2.006-.771 0-1.296.401-2.052 1.157v5.43h-1.265v-10.983zm11.199 3.301c1.913 0 2.993 1.373 2.993 3.518 0 .262-.016.509-.046.694h-5.06c.093 1.62 1.064 2.638 2.5 2.638.709 0 1.311-.231 1.866-.586l.448.833c-.648.417-1.45.771-2.468.771-2.006 0-3.595-1.465-3.595-3.918-.002-2.453 1.649-3.95 3.362-3.95zm1.882 3.379c0-1.527-.679-2.375-1.851-2.375-1.049 0-2.005.864-2.16 2.375h4.011zm2.961-3.194h1.049l.108 1.358h.046c.509-.941 1.28-1.543 2.129-1.543.324 0 .555.046.802.154l-.247 1.111a2.104 2.104 0 0 0-.725-.124c-.632 0-1.388.463-1.897 1.728v4.813h-1.265v-7.497zm72.552-144.684c.725.617 1.65 1.049 2.483 1.049.941 0 1.404-.371 1.404-.972 0-.632-.571-.833-1.45-1.203l-1.311-.555c-1.034-.417-2.021-1.281-2.021-2.746 0-1.666 1.481-2.993 3.579-2.993 1.157 0 2.375.463 3.24 1.327l-1.157 1.435c-.663-.509-1.28-.802-2.083-.802-.787 0-1.28.339-1.28.91 0 .617.663.833 1.527 1.188l1.296.524c1.219.494 1.99 1.312 1.99 2.73 0 1.666-1.388 3.116-3.795 3.116-1.312 0-2.7-.494-3.718-1.45l1.296-1.558zm7.928-7.235h2.406l1.682 4.52.602 1.759h.062l.602-1.759 1.635-4.52h2.391v10.058H346.6v-3.687c0-.987.185-2.453.293-3.425h-.062l-.833 2.33-1.542 3.903h-.91l-1.543-3.903-.802-2.33h-.062c.108.972.278 2.438.278 3.425v3.687h-2.083V51.84zm16.473 7.667h-3.07l-.617 2.391h-2.314l3.147-10.058h2.73l3.147 10.058h-2.407l-.616-2.391zm-.462-1.774l-.231-.926c-.278-1.003-.556-2.19-.818-3.24h-.062c-.247 1.064-.509 2.237-.787 3.24l-.247.926h2.145zm4.58-5.893h2.268v8.145h3.98v1.913h-6.248V51.84zm7.99 0h2.268v8.145h3.98v1.913h-6.248V51.84zm15.517-.185c1.25 0 2.298.617 2.978 1.311l-1.25 1.404c-.509-.463-1.002-.756-1.697-.756-1.404 0-2.499 1.219-2.499 3.24 0 2.067.957 3.271 2.438 3.271.817 0 1.419-.355 1.913-.895l1.25 1.373c-.833.972-1.943 1.481-3.193 1.481-2.607 0-4.736-1.774-4.736-5.152-.002-3.333 2.204-5.277 4.796-5.277zm9.377 7.852h-3.07l-.617 2.391h-2.314l3.147-10.058h2.73l3.147 10.058h-2.407l-.616-2.391zm-.462-1.774l-.231-.926c-.278-1.003-.556-2.19-.818-3.24h-.062c-.247 1.064-.509 2.237-.787 3.24l-.247.926h2.145zm10.025 4.165l-1.928-3.625h-1.25v3.625h-2.268V51.84h3.625c2.129 0 3.872.74 3.872 3.131 0 1.481-.709 2.422-1.79 2.9l2.283 4.026h-2.544zm-3.178-5.43h1.172c1.188 0 1.836-.509 1.836-1.497s-.648-1.327-1.836-1.327h-1.172v2.824zm-68.236 13.82h3.101c2.237 0 3.733.756 3.733 2.977 0 2.129-1.512 3.132-3.733 3.132h-1.82v4.011h-1.281v-10.12zm2.947 5.059c1.759 0 2.607-.648 2.607-2.083 0-1.465-.864-1.944-2.607-1.944h-1.666v4.026h1.666zm5.707-2.437h1.28v4.582c0 1.404.417 2.005 1.404 2.005.771 0 1.311-.386 2.021-1.265V72.91h1.265v7.498h-1.049l-.108-1.172h-.046c-.694.817-1.435 1.357-2.468 1.357-1.589 0-2.298-1.018-2.298-2.931V72.91zm8.498 0h1.049l.108 1.08h.046c.709-.709 1.481-1.265 2.515-1.265 1.573 0 2.283 1.018 2.283 2.931v4.751h-1.265v-4.582c0-1.404-.432-2.006-1.419-2.006-.771 0-1.296.401-2.052 1.157v5.43h-1.265V72.91zm8.653 1.033h-1.111v-.957l1.172-.077.154-2.098h1.064v2.098h2.021v1.034h-2.021v4.166c0 .925.293 1.45 1.157 1.45.262 0 .602-.108.848-.2l.247.956c-.417.139-.926.278-1.388.278-1.604 0-2.145-1.018-2.145-2.499v-4.151zm7.759-1.218c1.836 0 3.471 1.435 3.471 3.949 0 2.484-1.635 3.918-3.471 3.918s-3.471-1.435-3.471-3.918c0-2.514 1.635-3.949 3.471-3.949zm0 6.818c1.296 0 2.16-1.157 2.16-2.87 0-1.728-.864-2.9-2.16-2.9-1.28 0-2.16 1.172-2.16 2.9 0 1.713.88 2.87 2.16 2.87zm-33.564 9.253h3.101c2.237 0 3.733.756 3.733 2.977 0 2.129-1.512 3.132-3.733 3.132h-1.82v4.011h-1.281v-10.12zm2.947 5.06c1.759 0 2.607-.648 2.607-2.083 0-1.465-.864-1.944-2.607-1.944h-1.666v4.026h1.666zm9.394.309c0-.957-.324-1.882-1.542-1.882-.879 0-1.651.401-2.237.802l-.509-.879c.694-.447 1.743-.972 2.946-.972 1.836 0 2.607 1.219 2.607 3.085v4.597h-1.049l-.108-.895h-.031c-.725.586-1.558 1.08-2.484 1.08-1.265 0-2.206-.787-2.206-2.129 0-1.635 1.419-2.452 4.613-2.807zm-2.052 3.918c.725 0 1.327-.355 2.052-1.003v-2.083c-2.515.309-3.363.926-3.363 1.882 0 .849.57 1.204 1.311 1.204zm5.707-6.665h1.049l.108 1.08h.046c.709-.709 1.481-1.265 2.515-1.265 1.573 0 2.283 1.018 2.283 2.931v4.751h-1.265v-4.582c0-1.404-.432-2.006-1.419-2.006-.771 0-1.296.401-2.052 1.157v5.43h-1.265v-7.496zm11.151-.185c.864 0 1.435.324 2.098.864l-.062-1.281v-2.885h1.28v10.984h-1.049l-.108-.879h-.046c-.586.571-1.389 1.064-2.268 1.064-1.882 0-3.101-1.419-3.101-3.918.002-2.436 1.544-3.949 3.256-3.949zm.124 6.804c.694 0 1.296-.339 1.913-1.034v-3.918c-.633-.571-1.204-.787-1.82-.787-1.204 0-2.16 1.157-2.16 2.87 0 1.789.755 2.869 2.067 2.869zm9.964-3.872c0-.957-.324-1.882-1.542-1.882-.879 0-1.651.401-2.237.802l-.509-.879c.694-.447 1.743-.972 2.946-.972 1.836 0 2.607 1.219 2.607 3.085v4.597h-1.049l-.108-.895h-.031c-.725.586-1.558 1.08-2.484 1.08-1.265 0-2.206-.787-2.206-2.129 0-1.635 1.42-2.452 4.613-2.807zm-2.052 3.918c.725 0 1.327-.355 2.052-1.003v-2.083c-2.515.309-3.363.926-3.363 1.882 0 .849.571 1.204 1.311 1.204zm-35.768 14.236c0-3.239 1.774-5.199 4.319-5.199s4.335 1.975 4.335 5.199c0 3.255-1.79 5.292-4.335 5.292s-4.319-2.037-4.319-5.292zm7.312 0c0-2.514-1.188-4.072-2.993-4.072s-2.993 1.558-2.993 4.072c0 2.53 1.188 4.166 2.993 4.166 1.805-.001 2.993-1.636 2.993-4.166zm3.607-1.358h-1.111v-.957l1.172-.077.154-2.098h1.064v2.098h2.021v1.034h-2.021v4.166c0 .925.293 1.45 1.157 1.45.262 0 .602-.108.848-.2l.247.956c-.417.139-.926.278-1.388.278-1.604 0-2.145-1.018-2.145-2.499v-4.151zm4.998-4.52h1.265v2.993l-.046 1.543c.709-.679 1.465-1.234 2.499-1.234 1.573 0 2.283 1.019 2.283 2.931v4.751h-1.265v-4.582c0-1.404-.432-2.006-1.419-2.006-.771 0-1.296.401-2.052 1.157v5.43h-1.265v-10.983zm11.198 3.302c1.913 0 2.993 1.373 2.993 3.518 0 .262-.016.509-.046.694h-5.06c.093 1.62 1.064 2.638 2.5 2.638.709 0 1.311-.231 1.866-.586l.448.833c-.648.417-1.45.771-2.468.771-2.006 0-3.595-1.465-3.595-3.918-.001-2.454 1.65-3.95 3.362-3.95zm1.882 3.378c0-1.527-.679-2.375-1.851-2.375-1.049 0-2.005.864-2.16 2.375h4.011zm2.961-3.193h1.049l.108 1.358h.046c.509-.941 1.28-1.543 2.129-1.543.324 0 .555.046.802.154l-.247 1.111a2.104 2.104 0 0 0-.725-.124c-.632 0-1.388.463-1.897 1.728v4.813h-1.265v-7.497zm-31.341 23.8c.725.756 1.743 1.265 2.792 1.265 1.327 0 2.113-.664 2.113-1.651 0-1.034-.725-1.357-1.681-1.79l-1.45-.632c-.957-.401-2.052-1.126-2.052-2.607 0-1.543 1.342-2.685 3.178-2.685 1.204 0 2.268.509 2.993 1.25l-.694.833c-.617-.586-1.358-.957-2.299-.957-1.126 0-1.882.571-1.882 1.481 0 .972.879 1.342 1.682 1.681l1.435.617c1.172.509 2.083 1.203 2.083 2.7 0 1.604-1.312 2.885-3.44 2.885a4.91 4.91 0 0 1-3.548-1.496l.77-.894zm10.889-5.477c1.913 0 2.993 1.373 2.993 3.518 0 .262-.016.509-.046.694h-5.06c.093 1.62 1.064 2.638 2.5 2.638.709 0 1.311-.231 1.866-.586l.448.833c-.648.417-1.45.771-2.468.771-2.006 0-3.595-1.465-3.595-3.918-.001-2.453 1.65-3.95 3.362-3.95zm1.882 3.379c0-1.527-.679-2.375-1.851-2.375-1.049 0-2.005.864-2.16 2.375h4.011zm2.73-5.553c0-.494.386-.818.879-.818s.879.324.879.818c0 .478-.385.817-.879.817s-.879-.339-.879-.817zm.231 2.36h1.265v7.498h-1.265v-7.498zm6.848-.186c.987 0 1.682.417 2.191.895l-.633.817c-.447-.386-.91-.663-1.512-.663-1.357 0-2.345 1.172-2.345 2.9 0 1.712.941 2.87 2.314 2.87.709 0 1.311-.355 1.759-.756l.571.833c-.679.602-1.543.972-2.438.972-1.99 0-3.518-1.435-3.518-3.918.001-2.514 1.683-3.95 3.611-3.95zm6.463 0c1.913 0 2.993 1.373 2.993 3.518 0 .262-.016.509-.046.694h-5.06c.093 1.62 1.064 2.638 2.5 2.638.709 0 1.311-.231 1.866-.586l.448.833c-.648.417-1.45.771-2.468.771-2.006 0-3.595-1.465-3.595-3.918-.001-2.453 1.65-3.95 3.362-3.95zm1.882 3.379c0-1.527-.679-2.375-1.851-2.375-1.049 0-2.005.864-2.16 2.375h4.011zm2.961-3.193h1.049l.108 1.08h.046c.709-.709 1.481-1.265 2.515-1.265 1.573 0 2.283 1.019 2.283 2.931v4.751h-1.265v-4.582c0-1.404-.432-2.006-1.419-2.006-.771 0-1.296.401-2.052 1.157v5.43h-1.265v-7.496zm8.653 1.033h-1.111v-.957l1.172-.077.154-2.098h1.064v2.098h2.021v1.034h-2.021v4.166c0 .925.293 1.45 1.157 1.45.262 0 .602-.108.848-.2l.247.956c-.417.139-.926.278-1.388.278-1.604 0-2.145-1.018-2.145-2.499v-4.151zm7.759-1.219c1.836 0 3.471 1.435 3.471 3.949 0 2.484-1.635 3.918-3.471 3.918s-3.471-1.435-3.471-3.918c-.001-2.513 1.635-3.949 3.471-3.949zm0 6.819c1.296 0 2.16-1.157 2.16-2.87 0-1.728-.864-2.9-2.16-2.9-1.28 0-2.16 1.172-2.16 2.9 0 1.713.879 2.87 2.16 2.87zm-51.008 32.807c0-3.286 1.852-5.168 4.566-5.168 2.715 0 4.566 1.897 4.566 5.168 0 3.286-1.851 5.26-4.566 5.26s-4.566-1.974-4.566-5.26zm6.803 0c0-2.006-.864-3.209-2.237-3.209s-2.237 1.203-2.237 3.209c0 2.021.864 3.301 2.237 3.301s2.237-1.281 2.237-3.301zm5.876-3.07h-2.761v-1.913h7.806v1.913h-2.761v8.145h-2.283v-8.145zm6.617-1.913h2.268v3.872h3.471v-3.872h2.283v10.058h-2.283v-4.196h-3.471v4.196h-2.268v-10.058zm10.396 0h6.294v1.913h-4.026v2.021h3.425v1.897h-3.425v2.314h4.181v1.913h-6.448v-10.058zm13.897 10.058l-1.928-3.625h-1.25v3.625h-2.268v-10.058h3.625c2.129 0 3.872.74 3.872 3.131 0 1.481-.709 2.422-1.79 2.9l2.283 4.026h-2.544zm-3.178-5.43h1.172c1.188 0 1.836-.509 1.836-1.497s-.648-1.327-1.836-1.327h-1.172v2.824zm-39.733 13.819h2.53c3.116 0 4.782 1.805 4.782 5.013 0 3.225-1.666 5.106-4.721 5.106h-2.592v-10.119zm2.438 9.071c2.36 0 3.548-1.497 3.548-4.058 0-2.545-1.188-3.964-3.548-3.964h-1.157v8.022h1.157zm6.817-6.449h1.28v4.582c0 1.404.417 2.005 1.404 2.005.771 0 1.311-.386 2.021-1.265v-5.322h1.265v7.498h-1.049l-.108-1.172h-.046c-.694.817-1.435 1.357-2.468 1.357-1.589 0-2.298-1.018-2.298-2.931v-4.752zm11.553-.185c.987 0 1.682.417 2.191.895l-.633.817c-.447-.386-.91-.663-1.512-.663-1.357 0-2.345 1.172-2.345 2.9 0 1.712.941 2.87 2.314 2.87.709 0 1.311-.355 1.759-.756l.57.833c-.679.602-1.542.972-2.437.972-1.99 0-3.518-1.435-3.518-3.918.001-2.515 1.683-3.95 3.611-3.95zm8.067 2.931c0-.957-.324-1.882-1.542-1.882-.879 0-1.651.401-2.237.802l-.509-.879c.694-.447 1.743-.972 2.946-.972 1.836 0 2.607 1.219 2.607 3.085v4.597h-1.049l-.108-.895h-.031c-.725.586-1.558 1.08-2.484 1.08-1.265 0-2.206-.787-2.206-2.129 0-1.634 1.42-2.452 4.613-2.807zm-2.052 3.919c.725 0 1.327-.355 2.052-1.003v-2.083c-2.515.309-3.363.926-3.363 1.882 0 .849.571 1.204 1.311 1.204zm5.923-5.631h-1.111v-.957l1.172-.077.154-2.098h1.064v2.098h2.021v1.034h-2.021v4.166c0 .925.293 1.45 1.157 1.45.262 0 .602-.108.848-.2l.247.956c-.417.139-.926.278-1.388.278-1.604 0-2.145-1.018-2.145-2.499v-4.151zm7.759-1.219c1.836 0 3.471 1.435 3.471 3.949 0 2.484-1.635 3.918-3.471 3.918s-3.471-1.435-3.471-3.918c0-2.514 1.635-3.949 3.471-3.949zm0 6.819c1.296 0 2.16-1.157 2.16-2.87 0-1.728-.864-2.9-2.16-2.9-1.28 0-2.16 1.172-2.16 2.9 0 1.713.88 2.87 2.16 2.87zm-41.09 14.267c0-3.239 1.774-5.199 4.319-5.199s4.335 1.975 4.335 5.199c0 3.255-1.79 5.292-4.335 5.292s-4.319-2.037-4.319-5.292zm7.312 0c0-2.514-1.188-4.072-2.993-4.072s-2.993 1.558-2.993 4.072c0 2.53 1.188 4.166 2.993 4.166 1.805-.001 2.993-1.636 2.993-4.166zm3.607-1.358h-1.111v-.957l1.172-.077.154-2.098h1.064v2.098h2.021v1.034h-2.021v4.166c0 .925.293 1.45 1.157 1.45.262 0 .602-.108.848-.2l.247.956c-.417.139-.926.278-1.388.278-1.604 0-2.145-1.018-2.145-2.499v-4.151zm4.998-4.52h1.265v2.993l-.046 1.543c.709-.679 1.465-1.234 2.499-1.234 1.573 0 2.283 1.019 2.283 2.931v4.751h-1.265v-4.582c0-1.404-.432-2.006-1.419-2.006-.771 0-1.296.401-2.052 1.157v5.43h-1.265v-10.983zm11.198 3.302c1.913 0 2.993 1.373 2.993 3.518 0 .262-.016.509-.046.694h-5.06c.093 1.62 1.064 2.638 2.5 2.638.709 0 1.311-.231 1.866-.586l.448.833c-.648.417-1.45.771-2.468.771-2.006 0-3.595-1.465-3.595-3.918-.001-2.454 1.65-3.95 3.362-3.95zm1.882 3.378c0-1.527-.679-2.375-1.851-2.375-1.049 0-2.005.864-2.16 2.375h4.011zm2.961-3.193h1.049l.108 1.358h.046c.509-.941 1.28-1.543 2.129-1.543.324 0 .555.046.802.154l-.247 1.111a2.104 2.104 0 0 0-.725-.124c-.632 0-1.388.463-1.897 1.728v4.813h-1.265v-7.497z" fill="#5B5B5B"/></svg>