<svg xmlns="http://www.w3.org/2000/svg" width="309.109" height="129.033" viewBox="0 0 309.109 129.033"><path fill="#FFF" d="M1.619-.863h307.093v40.417H1.619zm0 44.23h307.093v84.517H1.619z"/><path fill="#FFF" d="M1.619 44.129h307.093v39.655H1.619z"/><path d="M31.82 65.336c0-1.335-.452-2.627-2.153-2.627-1.227 0-2.304.56-3.122 1.119l-.71-1.227c.969-.625 2.433-1.357 4.112-1.357 2.562 0 3.639 1.701 3.639 4.306v6.416h-1.464l-.151-1.249h-.043c-1.012.818-2.175 1.508-3.466 1.508-1.766 0-3.079-1.099-3.079-2.972-.001-2.281 1.98-3.422 6.437-3.917zm-2.863 5.468c1.012 0 1.852-.495 2.863-1.399v-2.906c-3.509.431-4.693 1.292-4.693 2.627-.001 1.183.796 1.678 1.83 1.678zm7.968-9.301h1.464l.15 1.507h.065c.903-.99 2.002-1.765 3.251-1.765 1.593 0 2.454.753 2.885 2.002 1.098-1.185 2.175-2.002 3.444-2.002 2.153 0 3.187 1.421 3.187 4.091v6.631h-1.766v-6.395c0-1.959-.624-2.799-1.938-2.799-.818 0-1.657.538-2.626 1.615v7.578h-1.766v-6.395c0-1.959-.625-2.799-1.96-2.799-.774 0-1.657.538-2.626 1.615v7.578h-1.766V61.503zm23.774 3.833c0-1.335-.452-2.627-2.153-2.627-1.228 0-2.304.56-3.122 1.119l-.71-1.227c.969-.625 2.433-1.357 4.112-1.357 2.562 0 3.639 1.701 3.639 4.306v6.416H61l-.15-1.249h-.043c-1.012.818-2.175 1.508-3.467 1.508-1.765 0-3.078-1.099-3.078-2.972 0-2.281 1.98-3.422 6.437-3.917zm-2.864 5.468c1.013 0 1.853-.495 2.864-1.399v-2.906c-3.51.431-4.693 1.292-4.693 2.627 0 1.183.796 1.678 1.829 1.678zm11.694-12.746c0-.969.775-1.636 1.83-1.636 1.077 0 1.83.667 1.83 1.636 0 .969-.753 1.658-1.83 1.658-1.055 0-1.83-.689-1.83-1.658zm.258 3.23h3.165v10.679h-3.165V61.288zm5.943 0h2.583l.215 1.356h.086c.904-.861 1.981-1.615 3.424-1.615 2.325 0 3.315 1.637 3.315 4.307v6.631h-3.165v-6.223c0-1.55-.409-2.023-1.313-2.023-.796 0-1.292.366-1.98 1.033v7.213H75.73V61.288zm23.644 7.342H95.09l-.861 3.337H91l4.392-14.038h3.812l4.392 14.038h-3.358l-.864-3.337zm-.645-2.477l-.323-1.291c-.388-1.4-.775-3.058-1.142-4.522h-.086c-.345 1.486-.71 3.122-1.098 4.522l-.345 1.291h2.994zm6.138-9.279h3.165V68.78c0 .668.302.883.56.883.129 0 .216 0 .388-.043l.388 2.347c-.345.15-.883.259-1.594.259-2.174 0-2.906-1.422-2.906-3.574V56.874zm6.159 0h3.165V68.78c0 .668.302.883.56.883.129 0 .216 0 .388-.043l.388 2.347c-.345.15-.883.259-1.594.259-2.174 0-2.906-1.422-2.906-3.574V56.874zm16.925.797c1.744 0 3.208.861 4.155 1.83l-1.744 1.959c-.711-.646-1.399-1.055-2.368-1.055-1.959 0-3.488 1.701-3.488 4.521 0 2.885 1.335 4.564 3.402 4.564 1.141 0 1.98-.495 2.669-1.249l1.744 1.916c-1.162 1.356-2.713 2.067-4.456 2.067-3.639 0-6.61-2.477-6.61-7.191 0-4.649 3.079-7.362 6.696-7.362zm11.865 7.428c-.064-.947-.538-1.55-1.679-1.55-.904 0-1.809.365-2.843.969l-1.119-2.089c1.356-.818 2.885-1.399 4.564-1.399 2.734 0 4.241 1.551 4.241 4.823v6.114h-2.583l-.237-1.098h-.064c-.904.796-1.916 1.356-3.122 1.356-1.938 0-3.165-1.422-3.165-3.229.001-2.239 1.788-3.467 6.007-3.897zm-1.765 4.672c.732 0 1.206-.345 1.766-.904v-1.873c-2.261.302-2.992.947-2.992 1.766-.001.688.473 1.011 1.226 1.011zm8.077-6.007h-1.464v-2.347l1.636-.129.366-2.842h2.627v2.842h2.562v2.476h-2.562v4.284c0 1.206.538 1.701 1.378 1.701.345 0 .731-.107 1.012-.215l.495 2.304c-.56.172-1.335.388-2.368.388-2.648 0-3.682-1.658-3.682-4.134v-4.328zm12.016-2.735c3.035 0 4.543 2.218 4.543 5.124 0 .561-.066 1.077-.131 1.335h-6.395c.281 1.615 1.357 2.325 2.777 2.325.797 0 1.529-.236 2.305-.71l1.055 1.916c-1.098.754-2.52 1.206-3.789 1.206-3.057 0-5.404-2.067-5.404-5.599 0-3.465 2.477-5.597 5.039-5.597zm1.852 4.5c0-1.228-.518-2.089-1.787-2.089-.99 0-1.852.668-2.068 2.089h3.855zm5.535 6.115v-.086c-.559-.366-.99-.926-.99-1.809 0-.775.518-1.528 1.205-2.002v-.086a3.422 3.422 0 0 1-1.441-2.777c0-2.562 2.109-3.854 4.414-3.854.602 0 1.184.086 1.656.259h3.898v2.304h-1.701c.193.322.344.84.344 1.399 0 2.454-1.852 3.596-4.197 3.596a4.26 4.26 0 0 1-1.293-.216c-.279.237-.387.431-.387.797 0 .538.43.797 1.615.797h1.721c2.627 0 4.07.796 4.07 2.713 0 2.217-2.305 3.832-5.965 3.832-2.496 0-4.477-.818-4.477-2.713 0-.884.538-1.594 1.528-2.154zm3.445 2.885c1.422 0 2.455-.582 2.455-1.313 0-.668-.582-.84-1.637-.84h-1.098c-.732 0-1.164-.043-1.508-.129-.387.344-.582.667-.582 1.055.001.797.948 1.227 2.37 1.227zm1.205-9.645c0-1.12-.623-1.723-1.463-1.723s-1.465.581-1.465 1.723c0 1.184.625 1.786 1.465 1.786s1.463-.603 1.463-1.786zm10.188-3.855c2.691 0 5.188 2.046 5.188 5.598 0 3.553-2.496 5.599-5.188 5.599-2.713 0-5.211-2.046-5.211-5.599 0-3.552 2.498-5.598 5.211-5.598zm0 8.634c1.291 0 1.959-1.185 1.959-3.036s-.668-3.035-1.959-3.035c-1.314 0-1.959 1.184-1.959 3.035s.644 3.036 1.959 3.036zm7.365-8.375h2.584l.215 1.873h.086c.775-1.443 1.938-2.132 3.035-2.132.604 0 .969.086 1.271.215l-.518 2.735a3.976 3.976 0 0 0-1.162-.173c-.797 0-1.787.517-2.348 1.959v6.201h-3.164V61.288zm8.312-3.23c0-.969.775-1.636 1.83-1.636 1.076 0 1.83.667 1.83 1.636 0 .969-.754 1.658-1.83 1.658-1.054 0-1.83-.689-1.83-1.658zm.258 3.23h3.166v10.679h-3.166V61.288zm10.358-.259c3.035 0 4.543 2.218 4.543 5.124 0 .561-.064 1.077-.129 1.335h-6.395c.279 1.615 1.355 2.325 2.777 2.325.797 0 1.529-.236 2.303-.71l1.057 1.916c-1.1.754-2.52 1.206-3.791 1.206-3.057 0-5.402-2.067-5.402-5.599 0-3.465 2.474-5.597 5.037-5.597zm1.851 4.5c0-1.228-.516-2.089-1.787-2.089-.99 0-1.852.668-2.066 2.089h3.853zm5.363 3.23c.969.732 1.852 1.119 2.756 1.119.947 0 1.357-.344 1.357-.904 0-.71-1.076-1.033-2.176-1.464-1.291-.495-2.82-1.378-2.82-3.144 0-1.98 1.615-3.337 4.092-3.337 1.637 0 2.842.667 3.768 1.356l-1.422 1.895c-.775-.56-1.506-.904-2.26-.904-.818 0-1.205.302-1.205.84 0 .689.99.947 2.088 1.356 1.355.495 2.885 1.249 2.885 3.208 0 1.938-1.529 3.445-4.393 3.445-1.398 0-3.014-.604-4.09-1.486l1.42-1.98zM31.82 104.398c0-1.335-.452-2.627-2.153-2.627-1.227 0-2.304.56-3.122 1.119l-.71-1.227c.969-.625 2.433-1.356 4.112-1.356 2.562 0 3.639 1.7 3.639 4.306v6.416h-1.464l-.151-1.249h-.043c-1.012.818-2.175 1.508-3.466 1.508-1.766 0-3.079-1.099-3.079-2.972-.001-2.282 1.98-3.422 6.437-3.918zm-2.863 5.468c1.012 0 1.852-.495 2.863-1.399v-2.906c-3.509.431-4.693 1.292-4.693 2.627-.001 1.183.796 1.678 1.83 1.678zm7.968-9.301h1.464l.15 1.507h.065c.903-.99 2.002-1.765 3.251-1.765 1.593 0 2.454.753 2.885 2.002 1.098-1.185 2.175-2.002 3.444-2.002 2.153 0 3.187 1.421 3.187 4.091v6.631h-1.766v-6.395c0-1.959-.624-2.799-1.938-2.799-.818 0-1.657.538-2.626 1.615v7.578h-1.766v-6.395c0-1.959-.625-2.799-1.96-2.799-.774 0-1.657.538-2.626 1.615v7.578h-1.766v-10.462zm23.774 3.833c0-1.335-.452-2.627-2.153-2.627-1.228 0-2.304.56-3.122 1.119l-.71-1.227c.969-.625 2.433-1.356 4.112-1.356 2.562 0 3.639 1.7 3.639 4.306v6.416H61l-.15-1.249h-.043c-1.012.818-2.175 1.508-3.467 1.508-1.765 0-3.078-1.099-3.078-2.972 0-2.282 1.98-3.422 6.437-3.918zm-2.864 5.468c1.013 0 1.853-.495 2.864-1.399v-2.906c-3.51.431-4.693 1.292-4.693 2.627 0 1.183.796 1.678 1.829 1.678zM69.529 97.12c0-.969.775-1.636 1.83-1.636 1.077 0 1.83.667 1.83 1.636 0 .97-.753 1.658-1.83 1.658-1.055 0-1.83-.688-1.83-1.658zm.258 3.231h3.165v10.679h-3.165v-10.679zm5.943 0h2.583l.215 1.356h.086c.904-.861 1.981-1.615 3.424-1.615 2.325 0 3.315 1.637 3.315 4.307v6.631h-3.165v-6.223c0-1.55-.409-2.023-1.313-2.023-.796 0-1.292.366-1.98 1.033v7.213H75.73v-10.679zm22.416 3.81c-.064-.947-.538-1.55-1.679-1.55-.904 0-1.809.365-2.843.969l-1.119-2.089c1.356-.818 2.885-1.399 4.564-1.399 2.734 0 4.241 1.551 4.241 4.823v6.114h-2.583l-.237-1.098h-.064c-.904.796-1.916 1.356-3.122 1.356-1.938 0-3.165-1.422-3.165-3.229.001-2.239 1.788-3.466 6.007-3.897zm-1.765 4.672c.732 0 1.206-.345 1.766-.904v-1.873c-2.261.302-2.992.947-2.992 1.766-.001.689.473 1.011 1.226 1.011zm7.539-8.482h3.165v6.222c0 1.529.409 2.024 1.335 2.024.796 0 1.27-.345 1.895-1.185v-7.062h3.165v10.679h-2.584l-.237-1.485h-.064c-.904 1.076-1.895 1.744-3.358 1.744-2.325 0-3.315-1.637-3.315-4.307v-6.63zm16.214-.259c1.185 0 1.896.431 2.627 1.12l-.129-1.637v-3.639h3.165v15.093h-2.584l-.215-1.055h-.086c-.754.753-1.809 1.313-2.843 1.313-2.647 0-4.37-2.11-4.37-5.599 0-3.486 2.175-5.596 4.435-5.596zm.754 8.612c.689 0 1.228-.259 1.744-.969v-4.371a2.529 2.529 0 0 0-1.766-.688c-1.012 0-1.916.947-1.916 2.971 0 2.11.71 3.057 1.938 3.057zm7.452-11.584c0-.969.775-1.636 1.83-1.636 1.077 0 1.83.667 1.83 1.636 0 .97-.753 1.658-1.83 1.658-1.055 0-1.83-.688-1.83-1.658zm.259 3.231h3.165v10.679h-3.165v-10.679zM31.413 17.674c-.021-1.11-.491-2.049-1.9-2.049-1.046 0-2.028.47-2.946 1.024l-.896-1.644c1.153-.726 2.625-1.367 4.291-1.367 2.626 0 3.907 1.601 3.907 4.526v6.212h-2.007l-.192-1.152h-.064c-.939.789-2.007 1.408-3.245 1.408-1.836 0-3.117-1.238-3.117-3.073 0-2.242 1.879-3.415 6.169-3.885zm-2.284 5.038c.854 0 1.516-.427 2.284-1.152v-2.349c-2.839.363-3.778 1.11-3.778 2.156 0 .94.619 1.345 1.494 1.345zm7.73-8.816h2.027l.171 1.431h.086c.875-.939 1.899-1.687 3.202-1.687 1.536 0 2.412.705 2.902 1.878 1.004-1.067 2.05-1.878 3.373-1.878 2.221 0 3.245 1.516 3.245 4.163v6.575H49.39v-6.255c0-1.729-.512-2.369-1.601-2.369-.662 0-1.388.427-2.199 1.302v7.322h-2.455v-6.255c0-1.729-.512-2.369-1.622-2.369-.641 0-1.388.427-2.198 1.302v7.322H36.86V13.896zm23.721 3.778c-.021-1.11-.491-2.049-1.899-2.049-1.047 0-2.028.47-2.946 1.024l-.896-1.644c1.152-.726 2.626-1.367 4.291-1.367 2.625 0 3.906 1.601 3.906 4.526v6.212h-2.007l-.192-1.152h-.063c-.939.789-2.007 1.408-3.245 1.408-1.836 0-3.116-1.238-3.116-3.073-.002-2.242 1.876-3.415 6.167-3.885zm-2.284 5.038c.854 0 1.516-.427 2.284-1.152v-2.349c-2.839.363-3.778 1.11-3.778 2.156 0 .94.619 1.345 1.494 1.345zm227.982-.249c-4.593 0-8.329-3.49-8.329-7.779 0-4.285 3.736-7.773 8.329-7.773 4.595 0 8.334 3.488 8.334 7.773 0 4.289-3.739 7.779-8.334 7.779zm0-13.363c-3.297 0-5.981 2.506-5.981 5.584 0 3.082 2.686 5.59 5.981 5.59 3.302 0 5.989-2.508 5.989-5.59.001-3.079-2.687-5.584-5.989-5.584z" fill="#5B5B5B"/><path fill="#5B5B5B" d="M299.52 28.138a1.21 1.21 0 0 1-.83-.319l-7.76-7.246a1.046 1.046 0 0 1 0-1.549c.46-.428 1.2-.428 1.659 0l7.759 7.246a1.048 1.048 0 0 1 0 1.549 1.222 1.222 0 0 1-.828.319z"/><path fill="#999" d="M264.223 12.106l.707.707L255.743 22l-.708-.707z"/><path fill="#999" d="M255.747 12.101l9.187 9.187-.707.707-9.187-9.187z"/></svg>