<svg xmlns="http://www.w3.org/2000/svg" width="258.812" height="147.77" viewBox="0 0 258.812 147.77"><path d="M14.209 12.704H9.984V9.951h11.944v2.753h-4.226v11.723h-3.494V12.704zm8.731 4.419c0-4.729 2.833-7.438 6.987-7.438s6.987 2.73 6.987 7.438c0 4.729-2.833 7.571-6.987 7.571-4.155 0-6.987-2.842-6.987-7.571zm10.409 0c0-2.886-1.322-4.618-3.422-4.618-2.101 0-3.423 1.732-3.423 4.618 0 2.908 1.322 4.751 3.423 4.751s3.422-1.843 3.422-4.751zm6.464-7.172h5.618c3.329 0 6.02 1.155 6.02 4.663 0 3.397-2.762 4.906-6.02 4.906h-2.148v4.907h-3.47V9.951zm5.406 6.972c1.912 0 2.833-.799 2.833-2.309s-.991-2.065-2.833-2.065h-1.936v4.374h1.936zm8.895-6.972h3.47v14.476h-3.47V9.951zm13.713-.266c1.912 0 3.517.888 4.556 1.887l-1.912 2.02c-.779-.666-1.534-1.088-2.597-1.088-2.148 0-3.824 1.754-3.824 4.663 0 2.975 1.463 4.707 3.729 4.707 1.251 0 2.172-.511 2.927-1.288l1.912 1.976c-1.275 1.398-2.975 2.131-4.887 2.131-3.989 0-7.247-2.553-7.247-7.416.002-4.794 3.377-7.592 7.343-7.592zm7.455 10.679c1.109.888 2.526 1.51 3.8 1.51 1.44 0 2.148-.533 2.148-1.398 0-.911-.874-1.199-2.219-1.732l-2.006-.799c-1.582-.6-3.092-1.843-3.092-3.952 0-2.398 2.266-4.307 5.477-4.307 1.77 0 3.635.666 4.957 1.909l-1.771 2.065c-1.015-.733-1.959-1.155-3.187-1.155-1.204 0-1.959.489-1.959 1.31 0 .888 1.015 1.199 2.337 1.709l1.983.755c1.865.71 3.045 1.887 3.045 3.93 0 2.398-2.125 4.485-5.807 4.485-2.006 0-4.131-.71-5.689-2.087l1.983-2.243z" fill="#5B5B5B"/><path fill="#FFF" d="M30.949 135.396c0 2.485-2.139 4.5-4.778 4.5H14.836c-2.639 0-4.777-2.015-4.777-4.5v-10.658c0-2.485 2.139-4.497 4.777-4.497H26.17c2.64 0 4.778 2.012 4.778 4.497l.001 10.658z"/><path d="M50.792 125.996h-4.16v-1.383h10.085v1.383h-4.16v11.58h-1.765v-11.58zm7.267 1.977h1.429l.147 1.738h.063c.693-1.205 1.744-1.975 2.899-1.975.441 0 .756.059 1.093.197l-.336 1.422c-.336-.098-.567-.158-.987-.158-.861 0-1.891.594-2.584 2.214v6.165H58.06v-9.603zm12.542 3.517c0-1.225-.441-2.411-2.101-2.411-1.198 0-2.248.515-3.047 1.028l-.693-1.127c.946-.573 2.375-1.244 4.013-1.244 2.5 0 3.551 1.561 3.551 3.951v5.889h-1.429l-.147-1.146h-.042c-.987.752-2.122 1.384-3.383 1.384-1.723 0-3.004-1.008-3.004-2.728 0-2.094 1.933-3.141 6.282-3.596zm-2.795 5.02c.987 0 1.807-.455 2.794-1.285v-2.668c-3.425.396-4.581 1.186-4.581 2.411.001 1.087.779 1.542 1.787 1.542zm6.3-8.537h1.786l1.933 5.454c.294.948.63 1.917.945 2.825h.084c.294-.908.63-1.877.925-2.825l1.933-5.454h1.702l-3.614 9.604h-2.017l-3.677-9.604zm15.02-.236c2.605 0 4.076 1.758 4.076 4.504 0 .336-.021.652-.063.891h-6.892c.126 2.074 1.45 3.379 3.404 3.379.966 0 1.786-.297 2.542-.752l.609 1.067c-.883.534-1.975.988-3.362.988-2.731 0-4.896-1.878-4.896-5.019.002-3.142 2.25-5.058 4.582-5.058zm2.564 4.326c0-1.955-.924-3.043-2.521-3.043-1.429 0-2.731 1.107-2.941 3.043h5.462zm4.031-8.556h1.723v12.251c0 .514.231.712.483.712.105 0 .189 0 .378-.04l.231 1.226c-.231.099-.525.158-.988.158-1.303 0-1.828-.771-1.828-2.174v-12.133zM47.977 99.924c.987.969 2.374 1.621 3.803 1.621 1.807 0 2.878-.85 2.878-2.115 0-1.323-.988-1.738-2.291-2.291l-1.975-.811c-1.302-.514-2.794-1.443-2.794-3.34 0-1.976 1.828-3.438 4.329-3.438 1.639 0 3.088.651 4.076 1.6l-.946 1.067c-.84-.751-1.849-1.226-3.13-1.226-1.534 0-2.563.731-2.563 1.897 0 1.245 1.198 1.72 2.29 2.153l1.954.791c1.597.652 2.836 1.541 2.836 3.458 0 2.056-1.786 3.695-4.686 3.695-1.933 0-3.635-.751-4.833-1.917l1.052-1.144zm14.977-7.014c2.5 0 4.728 1.837 4.728 5.059 0 3.181-2.228 5.019-4.728 5.019-2.5 0-4.728-1.838-4.728-5.019.001-3.222 2.228-5.059 4.728-5.059zm0 8.734c1.765 0 2.942-1.481 2.942-3.675 0-2.214-1.177-3.716-2.942-3.716-1.744 0-2.941 1.502-2.941 3.716 0 2.193 1.198 3.675 2.941 3.675zm11.574-8.734c1.345 0 2.29.533 2.983 1.146l-.861 1.048c-.609-.494-1.24-.851-2.059-.851-1.849 0-3.194 1.502-3.194 3.716 0 2.193 1.282 3.675 3.152 3.675.966 0 1.786-.454 2.395-.968l.777 1.066c-.924.771-2.101 1.245-3.319 1.245-2.71 0-4.791-1.838-4.791-5.019 0-3.221 2.291-5.058 4.917-5.058zm5.103-2.787c0-.633.525-1.047 1.198-1.047s1.198.414 1.198 1.047c0 .613-.525 1.047-1.198 1.047s-1.198-.433-1.198-1.047zm.315 3.024h1.723v9.604h-1.723v-9.604zm10.945 3.517c0-1.225-.441-2.411-2.101-2.411-1.198 0-2.248.515-3.047 1.028l-.693-1.127c.946-.573 2.375-1.244 4.013-1.244 2.5 0 3.551 1.561 3.551 3.951v5.889h-1.429l-.147-1.146h-.042c-.987.752-2.122 1.384-3.383 1.384-1.723 0-3.004-1.008-3.004-2.728 0-2.094 1.933-3.142 6.282-3.596zm-2.795 5.02c.987 0 1.807-.455 2.794-1.285v-2.668c-3.425.396-4.581 1.186-4.581 2.411.001 1.087.779 1.542 1.787 1.542zm7.772-13.003h1.723v12.251c0 .514.231.712.483.712.105 0 .189 0 .378-.04l.231 1.226c-.231.099-.525.158-.988.158-1.303 0-1.828-.771-1.828-2.174V88.681z" fill="#5B5B5B"/><path fill="#FFF" d="M30.949 66.6c0 2.485-2.139 4.499-4.778 4.499H14.836c-2.639 0-4.777-2.014-4.777-4.499V55.938c0-2.483 2.139-4.496 4.777-4.496H26.17c2.64 0 4.778 2.013 4.778 4.496l.001 10.662z"/><path d="M47.136 61.382c0-4.15 2.416-6.659 5.883-6.659s5.904 2.529 5.904 6.659c0 4.169-2.437 6.778-5.904 6.778-3.467-.001-5.883-2.609-5.883-6.778zm9.959 0c0-3.221-1.618-5.217-4.076-5.217-2.458 0-4.076 1.996-4.076 5.217 0 3.241 1.618 5.335 4.076 5.335 2.459 0 4.076-2.095 4.076-5.335zm4.472-3.063h1.744v5.869c0 1.798.567 2.569 1.912 2.569 1.05 0 1.786-.494 2.752-1.62V58.32h1.723v9.604h-1.429l-.147-1.502h-.063c-.945 1.047-1.954 1.739-3.362 1.739-2.164 0-3.131-1.304-3.131-3.754v-6.088zm11.867 1.324h-1.513v-1.225l1.597-.099.21-2.688h1.45v2.688h2.752v1.324h-2.752v5.335c0 1.186.399 1.857 1.576 1.857.357 0 .819-.138 1.156-.257l.336 1.225c-.567.178-1.261.356-1.891.356-2.185 0-2.92-1.304-2.92-3.201v-5.315zm10.294-1.561c1.177 0 1.954.415 2.857 1.106l-.084-1.64v-3.695h1.744v14.069h-1.429l-.147-1.126h-.063c-.798.731-1.891 1.364-3.088 1.364-2.563 0-4.224-1.818-4.224-5.019.001-3.123 2.102-5.059 4.434-5.059zm.168 8.714c.946 0 1.765-.435 2.605-1.324v-5.019c-.861-.731-1.639-1.008-2.479-1.008-1.639 0-2.941 1.482-2.941 3.675 0 2.292 1.03 3.676 2.815 3.676zm11.762-8.714c2.5 0 4.728 1.837 4.728 5.059 0 3.181-2.228 5.019-4.728 5.019-2.5 0-4.728-1.838-4.728-5.019.001-3.222 2.228-5.059 4.728-5.059zm0 8.734c1.765 0 2.942-1.482 2.942-3.675 0-2.213-1.177-3.715-2.942-3.715-1.744 0-2.941 1.502-2.941 3.715 0 2.193 1.198 3.675 2.941 3.675zm11.385-8.734c2.5 0 4.728 1.837 4.728 5.059 0 3.181-2.228 5.019-4.728 5.019-2.5 0-4.728-1.838-4.728-5.019.001-3.222 2.228-5.059 4.728-5.059zm0 8.734c1.765 0 2.942-1.482 2.942-3.675 0-2.213-1.177-3.715-2.942-3.715-1.744 0-2.941 1.502-2.941 3.715 0 2.193 1.198 3.675 2.941 3.675zm7.414-8.497h1.429l.147 1.739h.063c.693-1.205 1.744-1.976 2.899-1.976.441 0 .756.059 1.093.197l-.336 1.423c-.336-.099-.567-.158-.987-.158-.861 0-1.891.593-2.584 2.213v6.165h-1.723v-9.603zm6.805 7.429c.882.672 1.786 1.146 3.005 1.146 1.345 0 2.017-.672 2.017-1.502 0-.988-1.219-1.423-2.333-1.818-1.45-.494-3.046-1.146-3.046-2.767 0-1.541 1.303-2.727 3.509-2.727 1.282 0 2.395.494 3.173 1.086l-.82 1.028c-.693-.494-1.429-.85-2.332-.85-1.282 0-1.87.652-1.87 1.383 0 .909 1.114 1.245 2.269 1.66 1.471.514 3.11 1.087 3.11 2.905 0 1.561-1.324 2.865-3.74 2.865-1.45 0-2.837-.573-3.803-1.324l.861-1.085z" fill="#5B5B5B"/><path fill="#333" d="M18.688 103.321a.99.99 0 0 1-.629-.224l-6.855-5.562a.998.998 0 0 1-.146-1.406.997.997 0 0 1 1.406-.146l6.106 4.954L29.791 88.08a1 1 0 1 1 1.507 1.314l-11.856 13.583a.998.998 0 0 1-.754.344z"/></svg>