<svg xmlns="http://www.w3.org/2000/svg" width="258.812" height="292.434" viewBox="0 0 258.812 292.434"><path fill="#FFF" d="M258.812 289.517a2.917 2.917 0 0 1-2.915 2.916H3.642a2.914 2.914 0 0 1-2.911-2.916V2.913A2.912 2.912 0 0 1 3.642 0h252.255a2.916 2.916 0 0 1 2.915 2.913v286.604z"/><path fill="#FFD600" d="M258.812 2.913A2.916 2.916 0 0 0 255.897 0H3.642A2.912 2.912 0 0 0 .731 2.913v77.24h258.081V2.913z"/><path d="M21.461 45.457h-4.995v-2.59h13.055v2.59h-4.995v14.694h-3.065V45.457zm10.675-3.964h3.039v4.81l-.105 2.511c1.083-1.03 2.378-1.956 4.148-1.956 2.775 0 3.991 1.876 3.991 5.154v8.14H40.17v-7.743c0-2.141-.608-2.934-2.035-2.934-1.137 0-1.877.555-2.96 1.612v9.064h-3.039V41.493zm14.613 5.682h3.039v7.744c0 2.141.608 2.934 2.009 2.934 1.137 0 1.903-.529 2.881-1.798v-8.879h3.039v12.976h-2.484l-.237-1.902h-.079c-1.137 1.348-2.405 2.22-4.176 2.22-2.775 0-3.991-1.877-3.991-5.153v-8.142zm14.136 16.121c1.691-.66 2.669-1.85 2.669-3.197h-.237c-1.031 0-1.956-.688-1.956-1.877 0-1.136.925-1.876 2.035-1.876 1.427 0 2.272 1.163 2.272 3.118 0 2.59-1.506 4.599-4.122 5.497l-.661-1.665zm21.669-7.823H76.74l-1.348 4.678h-3.118l5.629-17.284h3.595l5.629 17.284h-3.225l-1.348-4.678zm-.686-2.405l-.608-2.114c-.555-1.823-1.057-3.806-1.56-5.708h-.105c-.476 1.929-.978 3.885-1.532 5.708l-.608 2.114h4.413zm10.173 8.14v4.07h-3.039V47.175h2.51l.212 1.374h.105c1.084-.925 2.484-1.691 3.911-1.691 3.225 0 5.102 2.59 5.102 6.607 0 4.44-2.67 7.004-5.551 7.004-1.136 0-2.272-.528-3.329-1.428l.079 2.167zm2.616-3.25c1.718 0 3.039-1.533 3.039-4.467 0-2.59-.846-4.123-2.802-4.123-.951 0-1.85.476-2.854 1.454v6.052c.952.793 1.85 1.084 2.617 1.084zm9.248-10.783h2.511l.211 2.299h.105c.925-1.691 2.3-2.617 3.674-2.617.66 0 1.084.08 1.479.264l-.528 2.643c-.449-.132-.793-.211-1.348-.211-1.03 0-2.272.714-3.065 2.669v7.929h-3.039V47.175zm15.299 10.492h3.753V46.62h-3.093v-1.903c1.665-.317 2.828-.74 3.885-1.375h2.273v14.324h3.304v2.484h-10.122v-2.483zm13.687-1.533c1.004 1.031 2.299 1.851 3.99 1.851 1.824 0 3.093-.951 3.093-2.537 0-1.744-1.11-2.854-4.942-2.854v-2.22c3.304 0 4.387-1.137 4.387-2.696 0-1.401-.951-2.247-2.483-2.247-1.322 0-2.353.634-3.383 1.586l-1.56-1.876c1.427-1.269 3.039-2.114 5.048-2.114 3.224 0 5.444 1.585 5.444 4.44 0 1.876-1.11 3.145-2.934 3.858v.105c1.981.529 3.488 1.956 3.488 4.176 0 3.065-2.669 4.863-5.894 4.863-2.722 0-4.52-1.058-5.709-2.379l1.455-1.956zM16.274 25.594c2.367-2.354 3.699-3.772 3.699-5.042 0-.9-.493-1.541-1.492-1.541-.653 0-1.221.419-1.677.949l-.58-.58c.653-.715 1.356-1.195 2.379-1.195 1.455 0 2.355.925 2.355 2.317 0 1.479-1.344 2.947-3.206 4.895.432-.036.912-.073 1.319-.073h2.281v.875h-5.08v-.605zm6.178-3.353c0-2.638.949-4.056 2.527-4.056 1.566 0 2.515 1.418 2.515 4.056 0 2.639-.949 4.106-2.515 4.106-1.577 0-2.527-1.467-2.527-4.106zm4.057 0c0-2.306-.616-3.242-1.529-3.242-.924 0-1.541.937-1.541 3.242s.617 3.292 1.541 3.292c.912 0 1.529-.986 1.529-3.292zm2.503 3.12h1.801v-5.795h-1.431v-.653c.715-.124 1.233-.321 1.664-.58h.777v7.028h1.627v.838h-4.438v-.838zm9.618-6.152h-3.921v-.876h5.067v.629c-1.861 2.38-2.243 4.167-2.379 7.237h-1.048c.135-2.959.727-4.833 2.281-6.99zm66.879 79.895h-3.454l-.911 2.89h-1.228l3.208-9.479h1.358l3.208 9.479h-1.286l-.895-2.89zm-.304-.969l-.448-1.444a69.602 69.602 0 0 1-.954-3.194h-.058a54.297 54.297 0 0 1-.939 3.194l-.448 1.444h2.847zm4.901 4.452v2.369h-1.185v-9.984h.983l.101.809h.044c.636-.534 1.416-.982 2.239-.982 1.807 0 2.774 1.401 2.774 3.584 0 2.384-1.431 3.786-3.034 3.786-.65 0-1.301-.304-1.951-.81l.029 1.228zm1.72-1.416c1.155 0 2.008-1.056 2.008-2.789 0-1.546-.52-2.587-1.85-2.587-.592 0-1.185.332-1.878.954v3.685c.636.534 1.257.737 1.72.737zm5.116-6.2h.983l.101 1.271h.044c.477-.882 1.199-1.445 1.993-1.445.304 0 .521.044.752.145l-.231 1.04a1.994 1.994 0 0 0-.679-.115c-.593 0-1.301.434-1.777 1.618v4.509h-1.186v-7.023zm4.799-2.211c0-.463.361-.766.824-.766.462 0 .823.303.823.766 0 .448-.361.766-.823.766-.463 0-.824-.317-.824-.766zm.217 2.211h1.186v7.022h-1.186v-7.022zm3.555-3.266h1.186v8.959c0 .375.158.52.332.52.072 0 .13 0 .26-.028l.159.896c-.159.072-.361.116-.679.116-.896 0-1.258-.564-1.258-1.59v-8.873zm5.999 9.581c2.774-2.76 4.335-4.422 4.335-5.91 0-1.055-.578-1.807-1.748-1.807-.767 0-1.431.492-1.966 1.113l-.679-.68c.766-.838 1.589-1.401 2.788-1.401 1.706 0 2.761 1.084 2.761 2.717 0 1.733-1.575 3.453-3.758 5.736a19.352 19.352 0 0 1 1.547-.087h2.673v1.026h-5.953v-.707zm7.242-3.931c0-3.092 1.112-4.754 2.962-4.754 1.836 0 2.948 1.662 2.948 4.754 0 3.093-1.112 4.812-2.948 4.812-1.85.001-2.962-1.719-2.962-4.812zm4.754 0c0-2.702-.723-3.8-1.792-3.8-1.083 0-1.806 1.098-1.806 3.8s.723 3.858 1.806 3.858c1.069.001 1.792-1.156 1.792-3.858zm2.935 3.656h2.109v-6.792h-1.676v-.766c.838-.145 1.445-.376 1.95-.679h.911v8.236h1.907v.982h-5.202v-.981zm11.274-7.21h-4.595v-1.025h5.939v.736c-2.183 2.789-2.63 4.885-2.789 8.482h-1.229c.16-3.468.853-5.664 2.674-8.193zM25.884 132.653c.538.561 1.293.938 2.071.938.984 0 1.568-.492 1.568-1.225 0-.767-.538-1.007-1.247-1.327l-1.076-.47c-.71-.297-1.522-.835-1.522-1.934 0-1.145.996-1.991 2.357-1.991.893 0 1.683.378 2.22.927l-.515.618c-.458-.435-1.007-.71-1.706-.71-.835 0-1.396.424-1.396 1.099 0 .722.652.996 1.248 1.248l1.064.457c.87.378 1.545.893 1.545 2.003 0 1.19-.973 2.141-2.552 2.141a3.644 3.644 0 0 1-2.632-1.11l.573-.664zm32.515-5.871h1.122l1.454 4.029.549 1.533h.046l.526-1.533 1.442-4.029h1.122v7.508h-.904v-4.131c0-.664.069-1.557.126-2.221h-.046l-.606 1.671-1.442 3.926h-.538l-1.453-3.926-.595-1.671h-.046c.046.664.126 1.557.126 2.221v4.131h-.881v-7.508zm36.295.802h-2.266v-.802h5.493v.802h-2.266v6.706h-.961v-6.706zm29.885-.802h.984l.79 4.086c.137.812.297 1.613.435 2.426h.046c.172-.812.355-1.625.526-2.426l1.042-4.086h.87l1.041 4.086c.184.79.367 1.613.55 2.426h.046c.137-.812.274-1.625.424-2.426l.789-4.086h.916l-1.557 7.508h-1.145l-1.133-4.521a45.08 45.08 0 0 1-.366-1.705h-.046c-.114.584-.252 1.121-.377 1.705l-1.11 4.521h-1.133l-1.592-7.508zm37.397.802h-2.267v-.802h5.493v.802h-2.266v6.706h-.961v-6.706zm32.326-.802h4.326v.802h-3.377v2.54h2.861v.802h-2.861v3.364h-.949v-7.508zm33.437 5.871c.538.561 1.294.938 2.071.938.984 0 1.568-.492 1.568-1.225 0-.767-.538-1.007-1.248-1.327l-1.075-.47c-.71-.297-1.522-.835-1.522-1.934 0-1.145.996-1.991 2.357-1.991.893 0 1.683.378 2.221.927l-.516.618c-.457-.435-1.007-.71-1.705-.71-.835 0-1.396.424-1.396 1.099 0 .722.652.996 1.248 1.248l1.064.457c.869.378 1.545.893 1.545 2.003 0 1.19-.973 2.141-2.553 2.141a3.646 3.646 0 0 1-2.632-1.11l.573-.664zm.063 24.936h1.67v-5.379h-1.326v-.606c.663-.114 1.144-.297 1.545-.538h.721v6.523h1.51v.778h-4.119v-.778zM25.501 180.121c2.197-2.186 3.433-3.502 3.433-4.681 0-.836-.458-1.431-1.385-1.431-.606 0-1.133.389-1.557.881l-.538-.537c.606-.664 1.259-1.11 2.208-1.11 1.351 0 2.186.858 2.186 2.151 0 1.373-1.248 2.735-2.976 4.543.4-.034.847-.068 1.225-.068h2.117v.812h-4.715v-.56zm33.964-.95c.435.458 1.007.87 1.865.87.881 0 1.511-.526 1.511-1.339 0-.87-.595-1.454-2.334-1.454v-.721c1.556 0 2.071-.595 2.071-1.361 0-.71-.481-1.156-1.259-1.156-.607 0-1.122.309-1.557.744l-.503-.596c.561-.526 1.236-.915 2.094-.915 1.27 0 2.186.675 2.186 1.854 0 .882-.538 1.442-1.328 1.739v.046c.881.206 1.579.848 1.579 1.854 0 1.293-1.064 2.083-2.403 2.083-1.167 0-1.911-.492-2.403-1.03l.481-.618zm38.233-.503h-.996v2.014h-.892v-2.014h-3.285v-.618l3.125-4.67h1.053v4.532h.996v.756zm-1.888-.756v-2.117c0-.389.034-1.019.057-1.407h-.046c-.183.354-.389.675-.595 1.029l-1.705 2.495h2.289zm30.905 1.293c.435.436.984.836 1.843.836.893 0 1.602-.652 1.602-1.671 0-1.007-.618-1.603-1.556-1.603-.504 0-.812.16-1.248.446l-.503-.32.24-3.514h3.651v.812h-2.827l-.194 2.163c.343-.183.675-.297 1.122-.297 1.248 0 2.265.709 2.265 2.288 0 1.58-1.189 2.473-2.46 2.473-1.167 0-1.888-.492-2.392-.996l.457-.617zm37.464-4.601a1.593 1.593 0 0 0-1.201-.572c-1.02 0-1.877.79-1.924 3.102.459-.561 1.111-.915 1.705-.915 1.26 0 2.084.755 2.084 2.254 0 1.396-.984 2.347-2.164 2.347-1.43 0-2.518-1.168-2.518-3.514 0-2.93 1.328-4.062 2.781-4.062.79 0 1.351.332 1.763.778l-.526.582zm-.228 3.868c0-.949-.447-1.545-1.352-1.545-.457 0-1.029.275-1.521.962.114 1.419.676 2.186 1.602 2.186.721 0 1.271-.641 1.271-1.603zm33.447-4.28h-3.639v-.812h4.703v.584c-1.729 2.209-2.083 3.868-2.209 6.718h-.973c.127-2.747.677-4.487 2.118-6.49zm31.342 2.655v-.046c-.537-.377-1.018-.915-1.018-1.682 0-1.122.893-1.877 2.071-1.877 1.271 0 2.06.812 2.06 1.945 0 .767-.561 1.419-1.007 1.763v.046c.652.377 1.271.893 1.271 1.876 0 1.088-.938 1.946-2.357 1.946-1.373 0-2.393-.848-2.393-2.003 0-.949.687-1.601 1.373-1.968zm1.042 3.274c.847 0 1.431-.526 1.431-1.282 0-.938-.927-1.281-1.98-1.705-.583.39-1.018.927-1.018 1.591 0 .812.674 1.396 1.567 1.396zm1.259-4.887c0-.721-.469-1.293-1.27-1.293-.676 0-1.18.469-1.18 1.179 0 .869.801 1.235 1.683 1.579.492-.435.767-.927.767-1.465zM26.153 201.771c.298.354.744.584 1.202.584 1.03 0 1.9-.802 1.934-3.136-.458.583-1.11.938-1.716.938-1.259 0-2.071-.756-2.071-2.255 0-1.396.984-2.346 2.151-2.346 1.442 0 2.518 1.167 2.518 3.513 0 2.93-1.328 4.063-2.781 4.063a2.334 2.334 0 0 1-1.763-.768l.526-.593zm3.112-3.296c-.125-1.419-.687-2.174-1.613-2.174-.709 0-1.271.641-1.271 1.602 0 .95.446 1.545 1.351 1.545.469 0 1.042-.274 1.533-.973zm27.48 3.743h1.67v-5.379h-1.327v-.606c.664-.114 1.144-.297 1.545-.538h.721v6.523h1.511v.778h-4.12v-.778zm5.29-2.896c0-2.449.881-3.765 2.346-3.765 1.454 0 2.334 1.315 2.334 3.765s-.881 3.812-2.334 3.812c-1.465 0-2.346-1.363-2.346-3.812zm3.765 0c0-2.14-.572-3.01-1.419-3.01-.858 0-1.431.87-1.431 3.01 0 2.141.572 3.056 1.431 3.056.847 0 1.419-.915 1.419-3.056zm24.589 2.896h1.67v-5.379h-1.327v-.606c.664-.114 1.144-.297 1.545-.538h.721v6.523h1.511v.778h-4.12v-.778zm5.691 0h1.67v-5.379h-1.327v-.606c.664-.114 1.144-.297 1.545-.538h.721v6.523h1.511v.778h-4.12v-.778zm27.95 0h1.67v-5.379h-1.327v-.606c.664-.114 1.144-.297 1.545-.538h.721v6.523h1.511v.778h-4.12v-.778zm5.244.217c2.197-2.186 3.434-3.502 3.434-4.681 0-.836-.458-1.431-1.385-1.431-.606 0-1.133.389-1.557.881l-.538-.537c.606-.664 1.259-1.11 2.208-1.11 1.351 0 2.186.858 2.186 2.151 0 1.373-1.247 2.735-2.975 4.543.4-.034.846-.068 1.225-.068h2.116v.812h-4.715v-.56zm62.04-.217h1.67v-5.379h-1.326v-.606c.663-.114 1.144-.297 1.545-.538h.721v6.523h1.51v.778h-4.119v-.778zm10.155-1.236h-.996v2.014h-.893v-2.014h-3.285v-.618l3.125-4.67h1.053v4.532h.996v.756zm-1.889-.756v-2.117c0-.389.034-1.019.057-1.407h-.045c-.184.354-.389.675-.596 1.029l-1.705 2.495h2.289zm25.377 1.992h1.67v-5.379h-1.326v-.606c.663-.114 1.144-.297 1.545-.538h.721v6.523h1.51v.778h-4.119v-.778zm5.53-.699c.435.436.984.836 1.843.836.893 0 1.602-.652 1.602-1.671 0-1.007-.617-1.603-1.556-1.603-.504 0-.812.16-1.247.446l-.504-.32.24-3.514h3.65v.812h-2.826l-.195 2.163c.344-.183.676-.297 1.122-.297 1.247 0 2.266.709 2.266 2.288 0 1.58-1.19 2.473-2.46 2.473-1.168 0-1.889-.492-2.393-.996l.458-.617zM23.101 224.532h1.67v-5.379h-1.327v-.606c.664-.114 1.144-.297 1.545-.538h.721v6.523h1.511v.778h-4.12v-.778zm9.353-5.299a1.591 1.591 0 0 0-1.201-.572c-1.019 0-1.877.79-1.923 3.102.458-.561 1.11-.915 1.705-.915 1.259 0 2.083.755 2.083 2.254 0 1.396-.984 2.347-2.163 2.347-1.43 0-2.518-1.168-2.518-3.514 0-2.93 1.328-4.062 2.781-4.062.79 0 1.35.332 1.762.778l-.526.582zm-.229 3.868c0-.949-.446-1.545-1.351-1.545-.458 0-1.03.275-1.522.962.114 1.419.675 2.186 1.602 2.186.722 0 1.271-.641 1.271-1.603zm24.52 1.431h1.67v-5.379h-1.327v-.606c.664-.114 1.144-.297 1.545-.538h.721v6.523h1.511v.778h-4.12v-.778zm8.929-5.711h-3.639v-.812h4.704v.584c-1.729 2.209-2.083 3.868-2.209 6.718h-.973c.126-2.747.675-4.487 2.117-6.49zm24.715 5.711h1.67v-5.379h-1.327v-.606c.664-.114 1.144-.297 1.545-.538h.721v6.523h1.511v.778h-4.12v-.778zm6.629-3.056v-.046c-.538-.377-1.019-.915-1.019-1.682 0-1.122.893-1.877 2.072-1.877 1.27 0 2.06.812 2.06 1.945 0 .767-.561 1.419-1.007 1.763v.046c.652.377 1.27.893 1.27 1.876 0 1.088-.938 1.946-2.357 1.946-1.373 0-2.392-.848-2.392-2.003 0-.949.687-1.601 1.373-1.968zm1.042 3.274c.847 0 1.43-.526 1.43-1.282 0-.938-.927-1.281-1.979-1.705-.583.39-1.019.927-1.019 1.591 0 .812.675 1.396 1.568 1.396zm1.259-4.887c0-.721-.469-1.293-1.27-1.293-.675 0-1.179.469-1.179 1.179 0 .869.801 1.235 1.682 1.579.492-.435.767-.927.767-1.465zm24.711 4.669h1.67v-5.379h-1.327v-.606c.664-.114 1.144-.297 1.545-.538h.721v6.523h1.511v.778h-4.12v-.778zm5.897-.446c.298.354.744.584 1.202.584 1.029 0 1.899-.802 1.934-3.136-.457.583-1.109.938-1.717.938-1.258 0-2.071-.756-2.071-2.255 0-1.396.984-2.346 2.151-2.346 1.442 0 2.519 1.167 2.519 3.513 0 2.93-1.328 4.063-2.781 4.063a2.334 2.334 0 0 1-1.763-.768l.526-.593zm3.112-3.296c-.125-1.419-.686-2.174-1.613-2.174-.709 0-1.27.641-1.27 1.602 0 .95.445 1.545 1.35 1.545.469-.001 1.042-.275 1.533-.973zm24.187 3.96c2.197-2.186 3.434-3.502 3.434-4.681 0-.836-.459-1.431-1.385-1.431-.607 0-1.134.389-1.557.881l-.538-.537c.606-.664 1.259-1.11 2.208-1.11 1.352 0 2.187.858 2.187 2.151 0 1.373-1.247 2.735-2.976 4.543.4-.034.847-.068 1.225-.068h2.117v.812h-4.715v-.56zm5.737-3.114c0-2.449.881-3.765 2.346-3.765 1.454 0 2.335 1.315 2.335 3.765s-.881 3.812-2.335 3.812c-1.465 0-2.346-1.362-2.346-3.812zm3.765 0c0-2.14-.572-3.01-1.42-3.01-.857 0-1.43.87-1.43 3.01 0 2.141.572 3.056 1.43 3.056.848 0 1.42-.915 1.42-3.056zm24.14 3.114c2.197-2.186 3.433-3.502 3.433-4.681 0-.836-.457-1.431-1.385-1.431-.605 0-1.133.389-1.557.881l-.537-.537c.606-.664 1.259-1.11 2.209-1.11 1.35 0 2.186.858 2.186 2.151 0 1.373-1.248 2.735-2.976 4.543.4-.034.847-.068 1.225-.068h2.117v.812h-4.715v-.56zm6.138-.218h1.67v-5.379h-1.327v-.606c.663-.114 1.144-.297 1.545-.538h.721v6.523h1.511v.778h-4.119v-.778zm27.504.218c2.197-2.186 3.433-3.502 3.433-4.681 0-.836-.457-1.431-1.385-1.431-.605 0-1.133.389-1.557.881l-.537-.537c.606-.664 1.259-1.11 2.209-1.11 1.35 0 2.186.858 2.186 2.151 0 1.373-1.248 2.735-2.976 4.543.4-.034.847-.068 1.225-.068h2.117v.812h-4.715v-.56zm5.691 0c2.197-2.186 3.434-3.502 3.434-4.681 0-.836-.458-1.431-1.385-1.431-.606 0-1.133.389-1.557.881l-.537-.537c.605-.664 1.258-1.11 2.208-1.11 1.351 0 2.186.858 2.186 2.151 0 1.373-1.247 2.735-2.976 4.543.4-.034.848-.068 1.225-.068h2.117v.812h-4.715v-.56zM22.655 247.063c2.197-2.186 3.433-3.502 3.433-4.681 0-.836-.458-1.431-1.385-1.431-.606 0-1.133.389-1.557.881l-.538-.537c.606-.664 1.259-1.11 2.208-1.11 1.351 0 2.186.858 2.186 2.151 0 1.373-1.248 2.735-2.976 4.543.4-.034.847-.068 1.225-.068h2.117v.812h-4.715v-.56zm6.011-.95c.435.458 1.007.87 1.865.87.881 0 1.511-.526 1.511-1.339 0-.87-.595-1.454-2.334-1.454v-.721c1.556 0 2.071-.595 2.071-1.361 0-.71-.481-1.156-1.259-1.156-.607 0-1.122.309-1.557.744l-.503-.596c.561-.526 1.236-.915 2.094-.915 1.271 0 2.186.675 2.186 1.854 0 .882-.538 1.442-1.327 1.739v.046c.881.206 1.579.848 1.579 1.854 0 1.293-1.064 2.083-2.403 2.083-1.167 0-1.911-.492-2.403-1.03l.48-.618zm27.633.95c2.197-2.186 3.433-3.502 3.433-4.681 0-.836-.458-1.431-1.385-1.431-.606 0-1.133.389-1.557.881l-.538-.537c.606-.664 1.259-1.11 2.208-1.11 1.351 0 2.186.858 2.186 2.151 0 1.373-1.248 2.735-2.976 4.543.4-.034.847-.068 1.225-.068h2.117v.812h-4.715v-.56zm10.6-1.453h-.996v2.014h-.893v-2.014h-3.285v-.618l3.125-4.67h1.053v4.532h.996v.756zm-1.889-.756v-2.117c0-.389.034-1.019.057-1.407h-.046c-.183.354-.389.675-.595 1.029l-1.706 2.495h2.29zm24.933 2.209c2.197-2.186 3.433-3.502 3.433-4.681 0-.836-.458-1.431-1.385-1.431-.606 0-1.133.389-1.557.881l-.538-.537c.606-.664 1.259-1.11 2.208-1.11 1.351 0 2.186.858 2.186 2.151 0 1.373-1.248 2.735-2.976 4.543.4-.034.847-.068 1.225-.068h2.117v.812h-4.715v-.56zm5.977-.916c.435.436.984.836 1.843.836.893 0 1.602-.652 1.602-1.671 0-1.007-.618-1.603-1.556-1.603-.504 0-.812.16-1.248.446l-.503-.32.24-3.514h3.65v.812h-2.827l-.194 2.163c.343-.183.675-.297 1.122-.297 1.247 0 2.266.709 2.266 2.288 0 1.58-1.19 2.473-2.46 2.473-1.167 0-1.888-.492-2.392-.996l.457-.617zm27.664.916c2.197-2.186 3.433-3.502 3.433-4.681 0-.836-.458-1.431-1.385-1.431-.606 0-1.133.389-1.557.881l-.538-.537c.606-.664 1.259-1.11 2.208-1.11 1.351 0 2.186.858 2.186 2.151 0 1.373-1.248 2.735-2.976 4.543.4-.034.847-.068 1.225-.068h2.117v.812h-4.715v-.56zm9.799-5.516a1.591 1.591 0 0 0-1.201-.572c-1.019 0-1.877.79-1.923 3.102.458-.561 1.11-.915 1.705-.915 1.259 0 2.083.755 2.083 2.254 0 1.396-.984 2.347-2.163 2.347-1.431 0-2.518-1.168-2.518-3.514 0-2.93 1.327-4.062 2.78-4.062.79 0 1.351.332 1.763.778l-.526.582zm-.229 3.868c0-.949-.446-1.545-1.351-1.545-.458 0-1.03.275-1.522.962.115 1.419.676 2.186 1.603 2.186.721-.001 1.27-.641 1.27-1.603zm24.072 1.648c2.197-2.186 3.434-3.502 3.434-4.681 0-.836-.459-1.431-1.385-1.431-.607 0-1.134.389-1.557.881l-.538-.537c.606-.664 1.259-1.11 2.208-1.11 1.352 0 2.187.858 2.187 2.151 0 1.373-1.247 2.735-2.976 4.543.4-.034.847-.068 1.225-.068h2.117v.812h-4.715v-.56zm9.375-5.928h-3.639v-.812h4.704v.584c-1.729 2.209-2.083 3.868-2.209 6.718h-.974c.128-2.747.677-4.488 2.118-6.49zm24.267 5.928c2.197-2.186 3.433-3.502 3.433-4.681 0-.836-.457-1.431-1.385-1.431-.605 0-1.133.389-1.557.881l-.537-.537c.606-.664 1.259-1.11 2.209-1.11 1.35 0 2.186.858 2.186 2.151 0 1.373-1.248 2.735-2.976 4.543.4-.034.847-.068 1.225-.068h2.117v.812h-4.715v-.56zm7.075-3.273v-.046c-.537-.377-1.019-.915-1.019-1.682 0-1.122.894-1.877 2.071-1.877 1.271 0 2.061.812 2.061 1.945 0 .767-.561 1.419-1.008 1.763v.046c.652.377 1.271.893 1.271 1.876 0 1.088-.938 1.946-2.357 1.946-1.373 0-2.392-.848-2.392-2.003 0-.95.687-1.602 1.373-1.968zm1.041 3.273c.848 0 1.431-.526 1.431-1.282 0-.938-.927-1.281-1.979-1.705-.584.39-1.019.927-1.019 1.591 0 .812.675 1.396 1.567 1.396zm1.26-4.886c0-.721-.47-1.293-1.271-1.293-.675 0-1.179.469-1.179 1.179 0 .869.801 1.235 1.682 1.579.493-.435.768-.927.768-1.465zm24.266 4.886c2.197-2.186 3.433-3.502 3.433-4.681 0-.836-.457-1.431-1.385-1.431-.605 0-1.133.389-1.557.881l-.537-.537c.606-.664 1.259-1.11 2.209-1.11 1.35 0 2.186.858 2.186 2.151 0 1.373-1.248 2.735-2.976 4.543.4-.034.847-.068 1.225-.068h2.117v.812h-4.715v-.56zm6.343-.664c.298.354.744.584 1.201.584 1.031 0 1.9-.802 1.935-3.136-.458.583-1.11.938-1.716.938-1.26 0-2.072-.756-2.072-2.255 0-1.396.984-2.346 2.152-2.346 1.441 0 2.518 1.167 2.518 3.513 0 2.93-1.328 4.063-2.781 4.063a2.336 2.336 0 0 1-1.763-.768l.526-.593zm3.114-3.296c-.126-1.419-.688-2.174-1.613-2.174-.71 0-1.271.641-1.271 1.602 0 .95.447 1.545 1.352 1.545.467 0 1.039-.274 1.532-.973zM22.975 267.84c.435.458 1.007.87 1.865.87.881 0 1.511-.526 1.511-1.339 0-.87-.595-1.454-2.334-1.454v-.721c1.556 0 2.071-.595 2.071-1.361 0-.71-.481-1.156-1.259-1.156-.607 0-1.122.309-1.557.744l-.503-.596c.561-.526 1.236-.915 2.094-.915 1.27 0 2.186.675 2.186 1.854 0 .882-.538 1.442-1.328 1.739v.046c.881.206 1.579.848 1.579 1.854 0 1.293-1.064 2.083-2.403 2.083-1.167 0-1.911-.492-2.403-1.03l.481-.618zm5.416-2.163c0-2.449.881-3.765 2.346-3.765 1.454 0 2.334 1.315 2.334 3.765s-.881 3.812-2.334 3.812c-1.464-.001-2.346-1.363-2.346-3.812zm3.765 0c0-2.14-.572-3.01-1.419-3.01-.858 0-1.431.87-1.431 3.01 0 2.141.572 3.056 1.431 3.056.847-.001 1.419-.916 1.419-3.056z" fill="#5B5B5B"/><circle fill="#FFE94D" cx="162.459" cy="199.972" r="10.597"/><path d="M157.673 202.218h1.671v-5.379h-1.328v-.606c.664-.114 1.145-.297 1.545-.538h.721v6.523h1.512v.778h-4.12v-.778zm5.565-.733c.434.458 1.006.87 1.865.87.881 0 1.51-.526 1.51-1.339 0-.87-.595-1.454-2.334-1.454v-.721c1.557 0 2.071-.595 2.071-1.361 0-.71-.481-1.156-1.259-1.156-.607 0-1.121.309-1.557.744l-.504-.596c.561-.526 1.236-.915 2.095-.915 1.271 0 2.186.675 2.186 1.854 0 .882-.538 1.442-1.327 1.739v.046c.881.206 1.579.848 1.579 1.854 0 1.293-1.064 2.083-2.403 2.083-1.167 0-1.911-.492-2.403-1.03l.481-.618z" fill="#5B5B5B"/><path fill="#333" d="M240.92 101.303l-.707-.707 2.919-2.919-3.17-3.17.707-.707 3.877 3.877zm-222.043-.001L15 97.425l3.625-3.625.707.707-2.918 2.918 3.17 3.169z"/></svg>