<svg xmlns="http://www.w3.org/2000/svg" width="309.108" height="216.201" viewBox="0 0 309.108 216.201"><path opacity=".3" fill="#FFE94D" d="M298.441 82.602c0 2.566-1.577 4.646-3.522 4.646h-83.646c-1.946 0-3.523-2.08-3.523-4.646V73.07c0-2.566 1.577-4.648 3.523-4.648h83.646c1.945 0 3.522 2.082 3.522 4.648v9.532zM123.932 54.869c0 3.508-2.155 6.352-4.814 6.352H4.815C2.157 61.221 0 58.377 0 54.869V41.846c0-3.508 2.157-6.352 4.815-6.352h114.302c2.659 0 4.814 2.844 4.814 6.352v13.023z"/><path d="M60.23 114.962c1.401 1.283 3.278 2.158 5.066 2.158 2.205 0 3.397-.962 3.397-2.449 0-1.575-1.251-2.07-3.01-2.799l-2.682-1.137c-1.907-.788-3.934-2.274-3.934-5.074 0-3.033 2.742-5.366 6.556-5.366 2.265 0 4.47.933 5.99 2.42l-1.758 2.158c-1.251-1.021-2.562-1.633-4.231-1.633-1.848 0-3.069.846-3.069 2.245 0 1.487 1.49 2.042 3.099 2.683l2.652 1.079c2.294.962 3.934 2.391 3.934 5.161 0 3.091-2.623 5.657-7.003 5.657-2.623 0-5.186-1.021-7.033-2.799l2.026-2.304zm23.249-4.403c-.03-1.516-.686-2.799-2.652-2.799-1.46 0-2.831.642-4.112 1.4l-1.252-2.246c1.609-.991 3.666-1.866 5.99-1.866 3.665 0 5.453 2.187 5.453 6.182v8.485h-2.801l-.268-1.575h-.089c-1.311 1.079-2.801 1.925-4.53 1.925-2.562 0-4.351-1.691-4.351-4.199-.001-3.061 2.621-4.665 8.612-5.307zm-3.189 6.882c1.192 0 2.116-.583 3.189-1.575v-3.208c-3.964.496-5.275 1.516-5.275 2.945 0 1.284.864 1.838 2.086 1.838zm10.791-12.043h2.831l.238 1.925h.12c1.311-1.254 2.801-2.275 4.798-2.275 3.129 0 4.5 2.071 4.5 5.687v8.981h-3.427v-8.544c0-2.362-.686-3.236-2.295-3.236-1.281 0-2.116.612-3.337 1.778v10.002h-3.427v-14.318zm23.1-4.753h11.771v2.857h-8.314v5.395h7.093v2.858h-7.093v7.96h-3.457v-19.07zm14.308 4.753h2.831l.239 2.537h.119c1.043-1.866 2.592-2.887 4.142-2.887.745 0 1.222.088 1.669.292l-.596 2.916c-.506-.146-.894-.233-1.52-.233-1.163 0-2.563.787-3.457 2.945v8.748h-3.427v-14.318zm18.3 5.161c-.03-1.516-.686-2.799-2.652-2.799-1.46 0-2.831.642-4.112 1.4l-1.252-2.246c1.609-.991 3.666-1.866 5.99-1.866 3.665 0 5.453 2.187 5.453 6.182v8.485h-2.801l-.268-1.575h-.089c-1.311 1.079-2.801 1.925-4.53 1.925-2.563 0-4.351-1.691-4.351-4.199-.001-3.061 2.621-4.665 8.612-5.307zm-3.189 6.882c1.192 0 2.116-.583 3.189-1.575v-3.208c-3.963.496-5.275 1.516-5.275 2.945 0 1.284.864 1.838 2.086 1.838zm10.791-12.043h2.831l.238 1.925h.12c1.311-1.254 2.801-2.275 4.797-2.275 3.129 0 4.5 2.071 4.5 5.687v8.981h-3.427v-8.544c0-2.362-.686-3.236-2.295-3.236-1.281 0-2.116.612-3.337 1.778v10.002h-3.427v-14.318zm23.069-.35c1.877 0 3.308.729 4.291 1.662l-1.639 2.129c-.775-.671-1.55-1.05-2.474-1.05-2.354 0-3.993 1.896-3.993 4.782 0 2.857 1.609 4.753 3.904 4.753 1.191 0 2.205-.583 3.01-1.225l1.43 2.128c-1.37 1.196-3.129 1.837-4.798 1.837-3.993 0-7.062-2.741-7.062-7.494 0-4.781 3.427-7.522 7.331-7.522zm7.006-4.053c0-1.137.894-1.925 2.116-1.925s2.115.788 2.115 1.925c0 1.108-.894 1.895-2.115 1.895-1.223 0-2.116-.787-2.116-1.895zm.388 4.403h3.427v14.317h-3.427v-14.317zm7.958 10.527c1.312.991 2.563 1.604 4.053 1.604 1.58 0 2.325-.729 2.325-1.72 0-1.196-1.58-1.721-3.13-2.304-1.937-.7-4.112-1.779-4.112-4.17 0-2.508 2.057-4.287 5.335-4.287 2.026 0 3.665.817 4.857 1.721l-1.58 2.041c-1.013-.729-2.056-1.225-3.218-1.225-1.461 0-2.146.671-2.146 1.575 0 1.137 1.461 1.575 3.04 2.128 1.997.729 4.202 1.662 4.202 4.345 0 2.45-1.997 4.433-5.692 4.433-1.996 0-4.112-.846-5.543-1.983l1.609-2.158zm19.075-10.877c1.877 0 3.308.729 4.291 1.662l-1.639 2.129c-.775-.671-1.55-1.05-2.474-1.05-2.354 0-3.993 1.896-3.993 4.782 0 2.857 1.609 4.753 3.904 4.753 1.191 0 2.205-.583 3.01-1.225l1.43 2.128c-1.37 1.196-3.129 1.837-4.798 1.837-3.993 0-7.062-2.741-7.062-7.494 0-4.781 3.426-7.522 7.331-7.522zm12.668 0c3.666 0 6.974 2.741 6.974 7.523 0 4.753-3.308 7.494-6.974 7.494-3.636 0-6.943-2.741-6.943-7.494-.001-4.782 3.307-7.523 6.943-7.523zm0 12.276c2.146 0 3.457-1.896 3.457-4.753 0-2.887-1.312-4.782-3.457-4.782s-3.427 1.896-3.427 4.782c0 2.858 1.281 4.753 3.427 4.753zm16.604-5.715c0-5.132 1.46-9.331 3.934-13.297l2.146.933c-2.235 3.732-3.278 8.078-3.278 12.364 0 4.287 1.043 8.631 3.278 12.364l-2.146.933c-2.474-3.966-3.934-8.165-3.934-13.297zm8.495 6.153c5.274-4.986 8.582-8.252 8.582-11.081 0-1.954-1.103-3.208-3.129-3.208-1.46 0-2.682.962-3.695 2.07l-1.907-1.866c1.729-1.808 3.457-2.858 6.05-2.858 3.636 0 5.989 2.246 5.989 5.686 0 3.295-3.129 6.678-6.884 10.556.983-.088 2.235-.204 3.159-.204h4.648v2.857h-12.813v-1.952zm15.29 0c5.274-4.986 8.582-8.252 8.582-11.081 0-1.954-1.103-3.208-3.129-3.208-1.46 0-2.682.962-3.695 2.07l-1.907-1.866c1.729-1.808 3.457-2.858 6.05-2.858 3.636 0 5.989 2.246 5.989 5.686 0 3.295-3.129 6.678-6.884 10.556.983-.088 2.235-.204 3.159-.204h4.648v2.857h-12.813v-1.952zm18.807-7.553v-.117c-1.46-1.021-2.622-2.391-2.622-4.345 0-3.003 2.443-4.928 5.722-4.928 3.397 0 5.572 2.012 5.572 5.016 0 1.837-1.311 3.382-2.532 4.257v.117c1.758.962 3.277 2.333 3.277 4.811 0 2.858-2.562 5.045-6.406 5.045-3.695 0-6.438-2.1-6.438-5.103 0-2.303 1.639-3.819 3.427-4.753zm3.07 7.465c1.817 0 3.129-1.05 3.129-2.771 0-2.012-1.997-2.741-4.56-3.761-1.192.846-2.057 2.041-2.057 3.47.001 1.838 1.551 3.062 3.488 3.062zm2.771-11.634c0-1.633-1.043-2.829-2.801-2.829-1.46 0-2.593.933-2.593 2.537 0 1.866 1.699 2.683 3.814 3.499 1.014-.991 1.58-2.041 1.58-3.207zm9.36 5.569c0-4.286-1.043-8.631-3.278-12.364l2.146-.933c2.474 3.966 3.934 8.165 3.934 13.297 0 5.132-1.46 9.331-3.934 13.297l-2.146-.933c2.235-3.733 3.278-8.077 3.278-12.364zM5.194 5.529h6.224c4.045 0 7.044 1.383 7.044 5.588 0 4.012-3.056 5.865-7.044 5.865H8.476v6.639H5.194V5.529zm5.969 8.88c2.744 0 4.074-1.079 4.074-3.292 0-2.268-1.386-3.015-4.074-3.015H8.476v6.307h2.687zm17 .526c-.028-1.438-.651-2.656-2.518-2.656-1.386 0-2.688.608-3.904 1.328l-1.188-2.13c1.528-.94 3.48-1.771 5.687-1.771 3.479 0 5.177 2.075 5.177 5.865v8.05h-2.659l-.254-1.494h-.085c-1.245 1.023-2.659 1.826-4.3 1.826-2.433 0-4.13-1.604-4.13-3.984-.002-2.905 2.488-4.426 8.174-5.034zm-3.027 6.528c1.132 0 2.009-.553 3.027-1.494v-3.043c-3.763.47-5.007 1.438-5.007 2.794 0 1.218.82 1.743 1.98 1.743zm10.238-11.425h2.688l.227 2.407h.113c.99-1.771 2.461-2.739 3.932-2.739.708 0 1.16.083 1.584.276l-.566 2.767c-.481-.138-.849-.221-1.443-.221-1.104 0-2.433.747-3.282 2.794v8.299h-3.253V10.038zm10.183-4.177c0-1.079.849-1.826 2.009-1.826s2.008.747 2.008 1.826c0 1.051-.849 1.798-2.008 1.798-1.161 0-2.009-.747-2.009-1.798zm.367 4.177h3.253v13.583h-3.253V10.038zm7.553 9.987c1.245.94 2.433 1.521 3.848 1.521 1.499 0 2.207-.692 2.207-1.632 0-1.134-1.5-1.632-2.971-2.186-1.839-.664-3.904-1.688-3.904-3.956 0-2.379 1.952-4.066 5.064-4.066 1.923 0 3.479.774 4.611 1.632l-1.5 1.937c-.962-.692-1.952-1.162-3.055-1.162-1.386 0-2.037.636-2.037 1.494 0 1.079 1.386 1.494 2.886 2.02 1.896.692 3.989 1.577 3.989 4.122 0 2.324-1.896 4.205-5.403 4.205-1.896 0-3.904-.802-5.262-1.881l1.527-2.048zm17.96-4.094c0-4.869 1.386-8.853 3.734-12.615l2.037.885c-2.122 3.541-3.112 7.663-3.112 11.73 0 4.066.99 8.188 3.112 11.729l-2.037.885c-2.348-3.762-3.734-7.746-3.734-12.614zm9.08 5.09h4.018V9.457h-3.31V7.465c1.782-.332 3.027-.775 4.159-1.438h2.433v14.994h3.536v2.601H80.517v-2.601zm16.829-6.418v-.111c-1.386-.968-2.489-2.268-2.489-4.122 0-2.85 2.32-4.675 5.432-4.675 3.225 0 5.29 1.909 5.29 4.758 0 1.743-1.245 3.209-2.405 4.039v.111c1.669.913 3.112 2.213 3.112 4.564 0 2.711-2.433 4.786-6.083 4.786-3.508 0-6.111-1.992-6.111-4.841.001-2.186 1.557-3.624 3.254-4.509zm2.914 7.082c1.726 0 2.97-.996 2.97-2.628 0-1.909-1.896-2.601-4.328-3.569-1.132.802-1.952 1.937-1.952 3.292 0 1.743 1.471 2.905 3.31 2.905zm2.631-11.039c0-1.549-.99-2.683-2.659-2.683-1.386 0-2.461.885-2.461 2.407 0 1.771 1.613 2.545 3.621 3.319.962-.94 1.499-1.936 1.499-3.043zm5.684 4.095c0-5.948 2.376-9.046 6.11-9.046s6.11 3.126 6.11 9.046c0 5.948-2.376 9.212-6.11 9.212s-6.11-3.265-6.11-9.212zm9.109 0c0-4.979-1.245-6.556-2.999-6.556-1.726 0-2.999 1.577-2.999 6.556s1.273 6.723 2.999 6.723c1.754-.001 2.999-1.744 2.999-6.723zm8.597 1.19c0-4.067-.99-8.189-3.112-11.73l2.037-.885c2.348 3.763 3.734 7.746 3.734 12.615s-1.386 8.853-3.734 12.615l-2.037-.885c2.123-3.542 3.112-7.664 3.112-11.73zM56.109 136.797h2.11l3.617 6.379 1.188 2.409h.071c-.088-1.161-.266-2.6-.266-3.865v-4.923h1.968v11.336h-2.11l-3.617-6.379-1.188-2.41h-.071c.089 1.196.266 2.565.266 3.831v4.958h-1.968v-11.336zM71 139.415c2.358 0 3.6 1.664 3.6 4.039a4.2 4.2 0 0 1-.089.936h-5.532c.177 1.542 1.17 2.41 2.571 2.41.745 0 1.383-.226 2.021-.624l.691 1.248c-.833.537-1.879.918-2.979.918-2.411 0-4.291-1.647-4.291-4.455.001-2.773 1.969-4.472 4.008-4.472zm1.827 3.71c0-1.353-.585-2.167-1.773-2.167-1.028 0-1.915.745-2.092 2.167h3.865zm2.852-3.502h2.057l1.046 4.42c.177.815.301 1.612.461 2.444h.071c.159-.832.336-1.646.549-2.444l1.135-4.42h1.862l1.152 4.42c.213.815.39 1.612.585 2.444h.071c.16-.832.301-1.629.461-2.444l1.046-4.42h1.915l-2.216 8.511h-2.429l-1.01-3.969c-.195-.798-.337-1.578-.532-2.479h-.071c-.16.901-.319 1.699-.514 2.496l-.993 3.952h-2.34l-2.306-8.511zm19.872 4.298l-3.475-7.124h2.199l1.259 2.895c.337.85.656 1.63 1.028 2.496h.071c.373-.866.727-1.646 1.064-2.496l1.259-2.895h2.146l-3.493 7.124v4.212h-2.057v-4.212zm9.484-4.506c2.181 0 4.149 1.63 4.149 4.473 0 2.825-1.968 4.455-4.149 4.455-2.164 0-4.131-1.629-4.131-4.455-.001-2.844 1.967-4.473 4.131-4.473zm0 7.297c1.276 0 2.057-1.127 2.057-2.825 0-1.716-.78-2.843-2.057-2.843s-2.039 1.126-2.039 2.843c0 1.698.762 2.825 2.039 2.825zm6.168-7.089h1.684l.142 1.508h.071c.621-1.109 1.542-1.716 2.465-1.716.443 0 .727.052.993.174l-.354 1.733a2.893 2.893 0 0 0-.904-.139c-.691 0-1.525.468-2.057 1.75v5.2h-2.039v-8.51zm6.611-3.727h2.003v7.645h.053l3.227-3.918h2.234l-2.979 3.467 3.28 5.044h-2.216l-2.234-3.692-1.365 1.525v2.167h-2.003v-12.238zm12.958 7.419c0-3.051.869-5.547 2.34-7.904l1.277.555c-1.33 2.219-1.951 4.802-1.951 7.35s.621 5.131 1.951 7.35l-1.277.555c-1.471-2.359-2.34-4.855-2.34-7.906zm5.69 3.189h2.518v-7.246h-2.074v-1.248c1.117-.208 1.897-.485 2.606-.901h1.525v9.395h2.216v1.629h-6.791v-1.629zm14.91-7.141a2.458 2.458 0 0 0-1.791-.832c-1.418 0-2.571 1.022-2.66 4.073.656-.814 1.631-1.3 2.447-1.3 1.951 0 3.298 1.109 3.298 3.415 0 2.201-1.613 3.623-3.546 3.623-2.216 0-4.096-1.681-4.096-5.391 0-4.281 2.127-6.049 4.433-6.049 1.365 0 2.34.555 3.014 1.248l-1.099 1.213zm-.603 5.356c0-1.3-.656-1.959-1.773-1.959-.638 0-1.383.347-2.021 1.266.213 1.958 1.011 2.791 2.11 2.791.939-.001 1.684-.746 1.684-2.098zm4.501 1.161c.426.485 1.117.832 1.809.832 1.418 0 2.571-1.022 2.66-4.073-.656.797-1.649 1.282-2.465 1.282-1.933 0-3.28-1.109-3.28-3.415 0-2.202 1.613-3.605 3.546-3.605 2.199 0 4.078 1.664 4.078 5.374 0 4.281-2.11 6.067-4.433 6.067-1.348 0-2.34-.555-3.014-1.248l1.099-1.214zm4.415-4.68c-.213-1.941-1.028-2.773-2.128-2.773-.922 0-1.684.746-1.684 2.08 0 1.3.656 1.976 1.791 1.976.638 0 1.4-.364 2.021-1.283zm5.459 2.115c0-2.548-.621-5.131-1.95-7.35l1.276-.555c1.472 2.357 2.341 4.854 2.341 7.904s-.869 5.547-2.341 7.904l-1.276-.555c1.328-2.217 1.95-4.8 1.95-7.348zm-27.322 21.663h3.311l3.052 8.146 1.112 3.137h.104l1.086-3.137 3-8.146h3.311v16.545h-2.819v-7.564c0-1.543.232-3.744.388-5.262h-.104l-1.371 3.77-2.922 7.514h-1.397l-2.922-7.514-1.345-3.77h-.103c.155 1.518.388 3.719.388 5.262v7.564h-2.768v-16.545zm24.025 3.819c3.44 0 5.251 2.429 5.251 5.895 0 .556-.052 1.062-.13 1.366h-8.069c.259 2.252 1.707 3.517 3.75 3.517 1.087 0 2.018-.329 2.949-.911l1.008 1.822c-1.215.784-2.741 1.341-4.345 1.341-3.518 0-6.259-2.403-6.259-6.502 0-4.048 2.871-6.528 5.845-6.528zm2.664 5.414c0-1.973-.854-3.162-2.586-3.162-1.5 0-2.793 1.088-3.052 3.162h5.638zm5.428-10.549h2.975v14.825c0 .708.336.961.646.961.13 0 .233 0 .466-.05l.388 2.176c-.362.151-.879.253-1.577.253-2.121 0-2.897-1.341-2.897-3.491v-14.674zm7.008 0h2.975v4.604l-.077 2.075c1.06-.911 2.379-1.543 3.672-1.543 3.182 0 5.018 2.479 5.018 6.3 0 4.275-2.612 6.729-5.431 6.729-1.164 0-2.405-.557-3.466-1.569h-.078l-.259 1.265h-2.354v-17.861zm5.535 15.761c1.682 0 2.975-1.468 2.975-4.276 0-2.479-.828-3.947-2.742-3.947-.931 0-1.811.456-2.793 1.392v5.793c.905.76 1.81 1.038 2.56 1.038zm14.249-10.626c3.181 0 6.052 2.378 6.052 6.527 0 4.124-2.871 6.502-6.052 6.502-3.155 0-6.026-2.378-6.026-6.502 0-4.148 2.871-6.527 6.026-6.527zm0 10.651c1.862 0 3-1.644 3-4.124 0-2.505-1.138-4.149-3-4.149s-2.975 1.644-2.975 4.149c.001 2.48 1.113 4.124 2.975 4.124zm8.998-10.347h2.457l.207 2.201h.104c.905-1.619 2.25-2.505 3.596-2.505.646 0 1.06.076 1.448.253l-.518 2.53c-.439-.126-.776-.203-1.319-.203-1.009 0-2.224.683-3 2.555v7.59h-2.975v-12.421zm9.646 0h2.457l.207 1.67h.104c1.139-1.088 2.432-1.974 4.164-1.974 2.716 0 3.905 1.796 3.905 4.934v7.792h-2.974v-7.413c0-2.049-.596-2.808-1.992-2.808-1.112 0-1.836.531-2.896 1.543v8.678h-2.975v-12.422zm19.499-.304c3.44 0 5.251 2.429 5.251 5.895 0 .556-.052 1.062-.13 1.366h-8.069c.259 2.252 1.707 3.517 3.75 3.517 1.087 0 2.018-.329 2.949-.911l1.008 1.822c-1.215.784-2.741 1.341-4.345 1.341-3.518 0-6.259-2.403-6.259-6.502 0-4.048 2.871-6.528 5.845-6.528zm2.664 5.414c0-1.973-.854-3.162-2.586-3.162-1.5 0-2.794 1.088-3.052 3.162h5.638zm10.833.279c0-4.453 1.268-8.096 3.414-11.536l1.862.81c-1.939 3.238-2.845 7.008-2.845 10.727 0 3.719.905 7.489 2.845 10.727l-1.862.81c-2.146-3.443-3.414-7.086-3.414-11.538zm8.302 4.655h3.673V168.57h-3.026v-1.821c1.629-.304 2.768-.708 3.802-1.316h2.225v13.712h3.232v2.378h-9.905v-2.378zm13.343-1.417c.983.911 2.198 1.72 3.854 1.72 1.837 0 3.182-1.138 3.182-3.086 0-1.923-1.216-3.01-3.026-3.01-1.06 0-1.655.278-2.638.911l-1.423-.886.492-7.944h8.793v2.454h-6.207l-.336 3.896c.698-.329 1.318-.531 2.172-.531 2.819 0 5.173 1.568 5.173 5.035 0 3.517-2.768 5.541-5.793 5.541-2.664 0-4.397-1.038-5.612-2.227l1.369-1.873zm13.188 1.417h3.673V168.57h-3.026v-1.821c1.629-.304 2.768-.708 3.802-1.316h2.225v13.712h3.232v2.378h-9.905v-2.378zm15.309-4.655c0-3.719-.905-7.488-2.845-10.727l1.862-.81c2.146 3.44 3.414 7.083 3.414 11.536s-1.268 8.096-3.414 11.537l-1.862-.81c1.939-3.237 2.845-7.007 2.845-10.726zM129.459 41.067h4.292c2.773 0 4.806.824 4.806 3.235 0 1.246-.739 2.452-2.3 2.854v.081c1.931.321 2.999 1.346 2.999 3.115 0 2.632-2.198 3.858-5.155 3.858h-4.642V41.067zm4.087 5.446c1.869 0 2.67-.703 2.67-1.929 0-1.206-.883-1.708-2.629-1.708h-1.746v3.637h1.705zm.308 5.888c1.972 0 3.081-.724 3.081-2.21 0-1.367-1.068-2.01-3.081-2.01h-2.013v4.22h2.013zm11.647-8.299c2.731 0 4.169 1.929 4.169 4.683 0 .442-.041.844-.103 1.085h-6.408c.205 1.789 1.355 2.793 2.978 2.793.862 0 1.602-.261 2.341-.724l.801 1.447c-.965.623-2.177 1.065-3.45 1.065-2.793 0-4.97-1.909-4.97-5.165 0-3.215 2.28-5.184 4.642-5.184zm2.115 4.3c0-1.567-.678-2.512-2.054-2.512-1.191 0-2.218.864-2.424 2.512h4.478zm4.314-4.059h1.951l.165 1.749h.082c.719-1.286 1.787-1.99 2.855-1.99.514 0 .842.061 1.15.201l-.411 2.01a3.345 3.345 0 0 0-1.047-.161c-.801 0-1.766.543-2.382 2.03v6.029h-2.362v-9.868zm7.662-4.321h2.361v11.776c0 .563.268.764.514.764.103 0 .185 0 .37-.04l.308 1.728c-.287.121-.698.201-1.253.201-1.684 0-2.3-1.065-2.3-2.773V40.022zm5.299 1.287c0-.784.616-1.327 1.458-1.327s1.458.543 1.458 1.327c0 .764-.616 1.306-1.458 1.306s-1.458-.543-1.458-1.306zm.266 3.034h2.362v9.867h-2.362v-9.867zm5.382 0h1.951l.164 1.327h.083c.903-.864 1.931-1.568 3.307-1.568 2.156 0 3.101 1.427 3.101 3.919v6.189h-2.361v-5.888c0-1.627-.473-2.23-1.582-2.23-.883 0-1.458.422-2.3 1.226v6.893h-2.362v-9.868zm15.796 4.281c0-3.537 1.007-6.431 2.712-9.164l1.479.643c-1.541 2.572-2.26 5.567-2.26 8.521s.719 5.948 2.26 8.521l-1.479.643c-1.705-2.734-2.712-5.628-2.712-9.164zm6.593 3.697h2.917v-8.4h-2.403v-1.447c1.294-.241 2.197-.563 3.02-1.045h1.766v10.892h2.567v1.889h-7.866v-1.889zm10.537 0h2.917v-8.4h-2.403v-1.447c1.294-.241 2.197-.563 3.02-1.045h1.766v10.892h2.567v1.889h-7.866v-1.889zm16.103-8.943h-6.183v-1.949h8.771v1.407c-3.061 3.717-3.595 6.39-3.82 11.374h-2.403c.226-4.542 1.109-7.395 3.635-10.832zm6.594 5.246c0-2.954-.719-5.949-2.26-8.521l1.479-.643c1.704 2.733 2.711 5.627 2.711 9.164s-1.007 6.431-2.711 9.164l-1.479-.643c1.541-2.573 2.26-5.567 2.26-8.521zM7.46 50.935c.965.884 2.259 1.487 3.491 1.487 1.52 0 2.341-.663 2.341-1.688 0-1.085-.862-1.427-2.074-1.929l-1.848-.784c-1.314-.542-2.711-1.567-2.711-3.497 0-2.09 1.89-3.698 4.519-3.698 1.561 0 3.081.643 4.128 1.668l-1.212 1.487c-.863-.703-1.767-1.125-2.917-1.125-1.273 0-2.116.583-2.116 1.547 0 1.025 1.027 1.407 2.136 1.849l1.828.744c1.581.663 2.711 1.648 2.711 3.557 0 2.13-1.808 3.898-4.827 3.898-1.807 0-3.574-.704-4.847-1.929l1.398-1.587zM18.49 56.4c1.068 0 1.684-.703 2.013-1.688l.185-.623-3.964-9.747h2.403l1.746 4.843c.288.864.575 1.849.883 2.773h.082c.247-.905.514-1.889.76-2.773l1.52-4.843h2.28l-3.656 10.309c-.842 2.231-1.89 3.618-4.087 3.618-.555 0-.945-.081-1.314-.201l.431-1.809c.184.061.472.141.718.141zm13.187-12.298c1.15 0 1.869.422 2.649 1.085l-.083-1.588v-3.577h2.362V54.21h-1.951l-.165-1.065h-.082c-.739.723-1.766 1.306-2.855 1.306-2.526 0-4.148-1.909-4.148-5.165.001-3.215 2.075-5.184 4.273-5.184zm.452 8.44c.78 0 1.438-.342 2.115-1.105v-4.602c-.698-.603-1.376-.824-2.054-.824-1.294 0-2.341 1.186-2.341 3.256 0 2.129.822 3.275 2.28 3.275zm7.477-8.199h1.951l.165 1.327h.082c.904-.864 1.931-1.568 3.307-1.568 2.157 0 3.102 1.427 3.102 3.919v6.189H45.85v-5.888c0-1.627-.473-2.23-1.582-2.23-.883 0-1.458.422-2.3 1.226v6.893h-2.362v-9.868zm15.487-.241c2.731 0 4.169 1.929 4.169 4.683 0 .442-.041.844-.103 1.085h-6.408c.205 1.789 1.355 2.793 2.978 2.793.862 0 1.602-.261 2.341-.724l.801 1.447c-.965.623-2.177 1.065-3.45 1.065-2.793 0-4.97-1.909-4.97-5.165.001-3.215 2.28-5.184 4.642-5.184zm2.115 4.3c0-1.567-.678-2.512-2.054-2.512-1.191 0-2.218.864-2.423 2.512h4.477zm4.828 7.998c1.068 0 1.684-.703 2.013-1.688l.185-.623-3.964-9.747h2.403l1.746 4.843c.288.864.575 1.849.883 2.773h.082c.247-.905.514-1.889.76-2.773l1.52-4.843h2.28l-3.656 10.309c-.842 2.231-1.89 3.618-4.087 3.618-.555 0-.945-.081-1.314-.201l.431-1.809c.184.061.472.141.718.141zm13.947-7.776c0-3.537 1.006-6.431 2.711-9.164l1.479.643c-1.541 2.572-2.259 5.567-2.259 8.521s.719 5.948 2.259 8.521l-1.479.643c-1.705-2.734-2.711-5.628-2.711-9.164zm6.594 3.697h2.917v-8.4H83.09v-1.447c1.294-.241 2.198-.563 3.019-1.045h1.767v10.892h2.567v1.889h-7.866v-1.889zm10.536 0h2.916v-8.4h-2.403v-1.447c1.294-.241 2.198-.563 3.019-1.045h1.767v10.892h2.567v1.889h-7.866v-1.889zm16.103-8.943h-6.182v-1.949h8.77v1.407c-3.06 3.717-3.594 6.39-3.82 11.374h-2.403c.226-4.542 1.109-7.395 3.635-10.832zm6.594 5.246c0-2.954-.719-5.949-2.259-8.521l1.479-.643c1.705 2.733 2.711 5.627 2.711 9.164s-1.006 6.431-2.711 9.164l-1.479-.643c1.54-2.573 2.259-5.567 2.259-8.521zM4.387 80.517c.684.652 1.6 1.098 2.472 1.098 1.076 0 1.658-.49 1.658-1.246 0-.801-.611-1.053-1.469-1.424l-1.309-.578c-.931-.401-1.919-1.157-1.919-2.581 0-1.542 1.338-2.729 3.199-2.729a4.16 4.16 0 0 1 2.923 1.231l-.858 1.098c-.611-.519-1.25-.831-2.065-.831-.901 0-1.498.43-1.498 1.142 0 .756.727 1.038 1.512 1.364l1.294.549c1.12.49 1.919 1.216 1.919 2.625 0 1.572-1.28 2.877-3.417 2.877a4.88 4.88 0 0 1-3.432-1.424l.99-1.171zm7.258-7.104c0-.578.436-.979 1.032-.979s1.033.4 1.033.979c0 .563-.437.964-1.033.964s-1.032-.401-1.032-.964zm.189 2.239h1.672v7.282h-1.672v-7.282zm3.811 0h1.381l.116.979h.059c.64-.638 1.367-1.157 2.341-1.157 1.527 0 2.196 1.053 2.196 2.893v4.568h-1.672v-4.346c0-1.201-.334-1.646-1.12-1.646-.625 0-1.032.311-1.628.904v5.087h-1.672v-7.282zm8.683 7.045v-.059c-.364-.237-.64-.623-.64-1.216 0-.564.378-1.053.785-1.35v-.06a2.476 2.476 0 0 1-.931-1.928c0-1.676 1.323-2.61 2.821-2.61.393 0 .756.074 1.047.178h2.559v1.261H28.66c.232.282.407.727.407 1.231 0 1.617-1.192 2.477-2.705 2.477-.305 0-.654-.059-.974-.192-.218.192-.349.371-.349.697 0 .416.291.667 1.164.667h1.265c1.716 0 2.617.534 2.617 1.795 0 1.438-1.483 2.565-3.81 2.565-1.702 0-2.967-.623-2.967-1.898.002-.609.366-1.142 1.02-1.558zm2.211 2.344c1.148 0 1.934-.549 1.934-1.171 0-.564-.451-.727-1.265-.727h-.975c-.393 0-.698-.029-.974-.104-.378.296-.553.623-.553.964 0 .652.698 1.038 1.833 1.038zm1.061-6.957c0-.904-.538-1.438-1.236-1.438s-1.25.519-1.25 1.438c0 .935.553 1.469 1.25 1.469.683 0 1.236-.534 1.236-1.469zm7.388.193c-.014-.771-.334-1.424-1.294-1.424-.712 0-1.381.327-2.007.712l-.611-1.142c.785-.504 1.789-.949 2.923-.949 1.789 0 2.661 1.112 2.661 3.145v4.316h-1.367l-.131-.801h-.044c-.64.549-1.367.979-2.21.979-1.251 0-2.123-.86-2.123-2.136.001-1.558 1.28-2.373 4.203-2.7zm-1.555 3.501c.582 0 1.032-.297 1.556-.801v-1.632c-1.934.252-2.574.771-2.574 1.498 0 .653.421.935 1.018.935zm6.938 1.75v2.284h-1.672v-10.16h1.381l.117.771h.058c.596-.519 1.367-.949 2.152-.949 1.774 0 2.807 1.454 2.807 3.708 0 2.492-1.469 3.931-3.054 3.931-.625 0-1.25-.297-1.832-.801l.043 1.216zm1.439-1.824c.945 0 1.672-.86 1.672-2.507 0-1.453-.465-2.313-1.542-2.313-.523 0-1.018.267-1.57.816v3.396c.524.445 1.019.608 1.44.608zm8.014-6.23c1.789 0 3.403 1.395 3.403 3.827 0 2.417-1.614 3.812-3.403 3.812-1.774 0-3.388-1.395-3.388-3.812 0-2.432 1.614-3.827 3.388-3.827zm0 6.244c1.047 0 1.687-.964 1.687-2.417 0-1.468-.64-2.432-1.687-2.432s-1.672.964-1.672 2.432c0 1.453.625 2.417 1.672 2.417zm5.063-6.066h1.381l.117 1.291h.058c.509-.949 1.265-1.469 2.021-1.469.364 0 .596.045.814.148l-.291 1.483a2.293 2.293 0 0 0-.741-.119c-.567 0-1.251.4-1.687 1.498v4.45h-1.672v-7.282zm8.1-.178c1.934 0 2.952 1.424 2.952 3.456 0 .326-.029.623-.073.801H61.33c.145 1.32.959 2.062 2.108 2.062.611 0 1.134-.193 1.658-.534l.567 1.068c-.683.459-1.541.786-2.443.786-1.978 0-3.519-1.409-3.519-3.812 0-2.373 1.614-3.827 3.286-3.827zm1.498 3.174c0-1.157-.48-1.854-1.454-1.854-.843 0-1.57.638-1.716 1.854h3.17zm6.095.164c0-2.61.712-4.746 1.919-6.763l1.047.475c-1.091 1.898-1.6 4.108-1.6 6.289s.509 4.39 1.6 6.289l-1.046.473c-1.208-2.017-1.92-4.153-1.92-6.763zm4.669 2.729h2.065v-6.2h-1.702v-1.068c.917-.178 1.556-.415 2.138-.771H79v8.039h1.818v1.394h-5.569v-1.394zm7.461 0h2.065v-6.2h-1.702v-1.068c.917-.178 1.556-.415 2.138-.771h1.25v8.039h1.818v1.394H82.71v-1.394zm6.967-3.367c0-3.189 1.222-4.85 3.141-4.85s3.141 1.676 3.141 4.85c0 3.188-1.222 4.939-3.141 4.939s-3.141-1.751-3.141-4.939zm4.682 0c0-2.67-.64-3.515-1.542-3.515-.887 0-1.542.845-1.542 3.515 0 2.669.654 3.604 1.542 3.604.902 0 1.542-.935 1.542-3.604zm4.423.638c0-2.18-.509-4.39-1.6-6.289l1.047-.475c1.207 2.017 1.919 4.153 1.919 6.763s-.712 4.746-1.919 6.763l-1.047-.474c1.09-1.898 1.6-4.108 1.6-6.288zm7.637-5.208h3.045c1.967 0 3.41.585 3.41 2.297 0 .885-.525 1.741-1.632 2.026v.057c1.37.229 2.127.956 2.127 2.211 0 1.869-1.559 2.739-3.657 2.739h-3.293v-9.33zm2.9 3.866c1.326 0 1.895-.499 1.895-1.37 0-.856-.627-1.212-1.865-1.212h-1.239v2.582h1.209zm.219 4.18c1.399 0 2.186-.514 2.186-1.569 0-.97-.758-1.427-2.186-1.427h-1.428v2.996h1.428zm9.344-3.195c-.015-.742-.335-1.37-1.297-1.37-.714 0-1.385.314-2.011.685l-.612-1.099c.787-.485 1.792-.913 2.929-.913 1.792 0 2.667 1.07 2.667 3.024v4.152h-1.37l-.131-.771h-.044c-.641.528-1.37.942-2.215.942-1.253 0-2.127-.828-2.127-2.055 0-1.497 1.282-2.281 4.211-2.595zm-1.559 3.367c.583 0 1.035-.285 1.56-.771v-1.569c-1.938.243-2.58.742-2.58 1.441 0 .628.423.899 1.02.899zm5.278-5.892h1.384l.116 1.241h.059c.51-.913 1.268-1.413 2.025-1.413.364 0 .598.043.816.143l-.291 1.427a2.401 2.401 0 0 0-.744-.114c-.568 0-1.253.385-1.69 1.441v4.28H122.6V75.93zm8.41-.172c.918 0 1.618.356 2.099.813l-.802 1.042c-.379-.328-.758-.513-1.209-.513-1.151 0-1.953.927-1.953 2.339 0 1.398.787 2.326 1.909 2.326.583 0 1.078-.285 1.472-.599l.699 1.042c-.67.585-1.53.899-2.346.899-1.953 0-3.454-1.341-3.454-3.667.001-2.34 1.677-3.682 3.585-3.682zm6.094 0c1.938 0 2.958 1.37 2.958 3.324 0 .314-.029.599-.073.771h-4.546c.146 1.27.962 1.983 2.113 1.983.612 0 1.137-.186 1.662-.514l.568 1.027c-.685.442-1.545.756-2.448.756-1.982 0-3.526-1.355-3.526-3.667-.001-2.282 1.616-3.68 3.292-3.68zm1.501 3.054c0-1.113-.481-1.784-1.457-1.784-.845 0-1.574.614-1.72 1.784h3.177zm3.063-5.95h1.676v8.36c0 .399.189.542.364.542.073 0 .131 0 .262-.028l.219 1.227c-.204.086-.496.143-.889.143-1.195 0-1.632-.756-1.632-1.969v-8.275zm6.88 2.896c1.792 0 3.41 1.341 3.41 3.681 0 2.326-1.618 3.667-3.41 3.667-1.778 0-3.395-1.341-3.395-3.667 0-2.339 1.617-3.681 3.395-3.681zm0 6.007c1.049 0 1.69-.927 1.69-2.326 0-1.412-.641-2.339-1.69-2.339s-1.676.927-1.676 2.339c0 1.398.627 2.326 1.676 2.326zm5.075-5.835h1.384l.116.941h.059c.641-.613 1.37-1.113 2.346-1.113 1.53 0 2.2 1.013 2.2 2.782v4.394h-1.676v-4.18c0-1.156-.335-1.583-1.122-1.583-.626 0-1.035.299-1.632.87v4.894h-1.676V75.93zm12.068 2.525c-.015-.742-.335-1.37-1.297-1.37-.714 0-1.384.314-2.011.685l-.612-1.099c.787-.485 1.793-.913 2.93-.913 1.792 0 2.666 1.07 2.666 3.024v4.152h-1.369l-.132-.771h-.043c-.642.528-1.37.942-2.215.942-1.254 0-2.128-.828-2.128-2.055 0-1.497 1.283-2.281 4.211-2.595zm-1.558 3.367c.583 0 1.034-.285 1.559-.771v-1.569c-1.938.243-2.579.742-2.579 1.441-.001.628.422.899 1.02.899zm8.324-2.854c0-2.511.714-4.565 1.924-6.506l1.049.457c-1.093 1.826-1.603 3.952-1.603 6.049s.51 4.223 1.603 6.049l-1.049.457c-1.21-1.94-1.924-3.995-1.924-6.506zm4.679 2.625h2.069V75.63h-1.705v-1.027c.918-.171 1.56-.399 2.143-.742h1.253v7.732h1.821v1.341h-5.581v-1.341zm6.983-3.238c0-3.067 1.224-4.666 3.147-4.666s3.147 1.612 3.147 4.666c0 3.067-1.224 4.751-3.147 4.751s-3.147-1.684-3.147-4.751zm4.692 0c0-2.568-.642-3.381-1.545-3.381-.889 0-1.545.813-1.545 3.381 0 2.568.656 3.467 1.545 3.467.904 0 1.545-.899 1.545-3.467zm3.355 2.411c.554.556 1.268.999 2.2.999 1.006 0 1.705-.514 1.705-1.37 0-.941-.612-1.541-2.725-1.541v-1.198c1.821 0 2.419-.613 2.419-1.455 0-.756-.525-1.213-1.37-1.213-.729 0-1.297.342-1.865.856l-.86-1.013c.787-.685 1.677-1.142 2.784-1.142 1.777 0 3.001.856 3.001 2.397 0 1.013-.611 1.698-1.617 2.083v.057c1.093.285 1.924 1.056 1.924 2.254 0 1.655-1.472 2.625-3.25 2.625-1.501 0-2.491-.571-3.147-1.284l.801-1.055zm8.557-1.798c0-2.097-.51-4.223-1.603-6.049l1.049-.457c1.21 1.94 1.924 3.995 1.924 6.506s-.714 4.565-1.924 6.506l-1.049-.457c1.093-1.826 1.603-3.952 1.603-6.049zM3.446 201.046h3.045c1.967 0 3.41.585 3.41 2.297 0 .885-.525 1.741-1.632 2.026v.057c1.37.229 2.127.956 2.127 2.211 0 1.869-1.559 2.739-3.657 2.739H3.446v-9.33zm2.9 3.867c1.326 0 1.895-.499 1.895-1.37 0-.856-.627-1.212-1.865-1.212h-1.24v2.582h1.21zm.218 4.18c1.399 0 2.186-.514 2.186-1.569 0-.97-.758-1.427-2.186-1.427H5.136v2.996h1.428zm9.345-3.196c-.015-.742-.335-1.37-1.297-1.37-.714 0-1.385.314-2.011.685l-.612-1.099c.787-.485 1.792-.913 2.929-.913 1.792 0 2.667 1.07 2.667 3.024v4.152h-1.37l-.131-.771h-.044c-.641.528-1.37.942-2.215.942-1.253 0-2.127-.828-2.127-2.055-.001-1.496 1.281-2.281 4.211-2.595zm-1.56 3.367c.583 0 1.035-.285 1.56-.771v-1.569c-1.938.243-2.58.742-2.58 1.441 0 .628.423.899 1.02.899zm5.278-5.892h1.384l.116 1.241h.059c.51-.913 1.268-1.413 2.025-1.413.364 0 .598.043.816.143l-.291 1.427a2.401 2.401 0 0 0-.744-.114c-.568 0-1.253.385-1.69 1.441v4.28h-1.676v-7.005zm8.411-.171c.918 0 1.618.356 2.099.813l-.802 1.042c-.379-.328-.758-.513-1.209-.513-1.151 0-1.953.927-1.953 2.339 0 1.398.787 2.326 1.909 2.326.583 0 1.078-.285 1.472-.599l.699 1.042c-.67.585-1.53.899-2.346.899-1.953 0-3.454-1.341-3.454-3.667 0-2.341 1.676-3.682 3.585-3.682zm6.093 0c1.938 0 2.958 1.37 2.958 3.324 0 .314-.029.599-.073.771H32.47c.146 1.27.962 1.983 2.113 1.983.612 0 1.137-.186 1.662-.514l.568 1.027c-.685.442-1.545.756-2.448.756-1.982 0-3.526-1.355-3.526-3.667-.001-2.282 1.617-3.68 3.292-3.68zm1.501 3.053c0-1.113-.481-1.784-1.457-1.784-.845 0-1.574.614-1.72 1.784h3.177zm3.064-5.949h1.676v8.36c0 .399.189.542.364.542.073 0 .131 0 .262-.028l.219 1.227c-.204.086-.496.143-.889.143-1.195 0-1.632-.756-1.632-1.969v-8.275zm6.879 2.896c1.792 0 3.41 1.341 3.41 3.681 0 2.326-1.618 3.667-3.41 3.667-1.778 0-3.395-1.341-3.395-3.667 0-2.34 1.617-3.681 3.395-3.681zm0 6.006c1.049 0 1.69-.927 1.69-2.326 0-1.412-.641-2.339-1.69-2.339s-1.676.927-1.676 2.339c0 1.399.627 2.326 1.676 2.326zm5.075-5.835h1.384l.116.941h.059c.641-.613 1.37-1.113 2.346-1.113 1.53 0 2.2 1.013 2.2 2.782v4.394H55.08v-4.18c0-1.156-.335-1.583-1.122-1.583-.626 0-1.035.299-1.632.87v4.894H50.65v-7.005zm12.069 2.525c-.015-.742-.335-1.37-1.297-1.37-.714 0-1.385.314-2.011.685l-.612-1.099c.787-.485 1.792-.913 2.929-.913 1.792 0 2.667 1.07 2.667 3.024v4.152h-1.37l-.131-.771h-.044c-.641.528-1.37.942-2.215.942-1.253 0-2.127-.828-2.127-2.055-.001-1.496 1.282-2.281 4.211-2.595zm-1.56 3.367c.583 0 1.035-.285 1.56-.771v-1.569c-1.938.243-2.58.742-2.58 1.441 0 .628.423.899 1.02.899zm8.325-2.853c0-2.511.714-4.565 1.923-6.506l1.049.457c-1.093 1.826-1.603 3.952-1.603 6.049s.51 4.223 1.603 6.049l-1.049.457c-1.209-1.941-1.923-3.995-1.923-6.506zm4.68 2.625h2.069v-5.963h-1.705v-1.027c.918-.171 1.559-.399 2.142-.742h1.253v7.732h1.822v1.341h-5.582v-1.341zm6.983-3.239c0-3.067 1.224-4.666 3.147-4.666s3.147 1.612 3.147 4.666c0 3.067-1.224 4.751-3.147 4.751s-3.147-1.683-3.147-4.751zm4.692 0c0-2.568-.641-3.381-1.544-3.381-.889 0-1.544.813-1.544 3.381 0 2.568.656 3.467 1.544 3.467.903 0 1.544-.899 1.544-3.467zm3.354 2.411c.554.556 1.268.999 2.2.999 1.005 0 1.705-.514 1.705-1.37 0-.941-.612-1.541-2.725-1.541v-1.198c1.821 0 2.419-.613 2.419-1.455 0-.756-.524-1.213-1.37-1.213-.729 0-1.297.342-1.865.856l-.86-1.013c.787-.685 1.676-1.142 2.783-1.142 1.778 0 3.002.856 3.002 2.397 0 1.013-.612 1.698-1.618 2.083v.057c1.093.285 1.924 1.056 1.924 2.254 0 1.655-1.472 2.625-3.25 2.625-1.5 0-2.492-.571-3.147-1.284l.802-1.055zm8.557-1.797c0-2.097-.51-4.223-1.603-6.049l1.049-.457c1.209 1.94 1.923 3.995 1.923 6.506s-.714 4.565-1.923 6.506l-1.049-.457c1.093-1.826 1.603-3.952 1.603-6.049zM214.631 72.933h1.881l1.733 4.628.632 1.782h.06l.617-1.782 1.704-4.628h1.881v9.4h-1.602v-4.298c0-.876.132-2.127.221-2.99h-.06l-.778 2.142-1.66 4.269h-.794l-1.66-4.269-.765-2.142h-.059c.088.862.221 2.113.221 2.99v4.298h-1.572v-9.4zm14.735 4.887c-.015-.748-.338-1.38-1.308-1.38-.72 0-1.396.316-2.028.69l-.617-1.107c.794-.489 1.808-.92 2.954-.92 1.808 0 2.688 1.078 2.688 3.047v4.183h-1.381l-.132-.776h-.045c-.646.532-1.381.949-2.233.949-1.264 0-2.146-.833-2.146-2.07.001-1.51 1.295-2.3 4.248-2.616zm-1.572 3.392c.588 0 1.043-.288 1.572-.776v-1.581c-1.954.245-2.601.748-2.601 1.452.001.632.426.905 1.029.905zm7.934-6.109c.822 0 1.337.302 1.896.776l-.059-1.136v-2.559h1.689v10.148h-1.396l-.118-.762h-.059c-.529.518-1.264.934-2.043.934-1.807 0-2.968-1.365-2.968-3.694.001-2.298 1.485-3.707 3.058-3.707zm.323 6.037c.559 0 1.028-.245 1.514-.791v-3.292c-.5-.431-.985-.589-1.47-.589-.926 0-1.675.848-1.675 2.329 0 1.524.587 2.343 1.631 2.343zm5.345-5.865h1.396l.117 1.25h.059c.515-.92 1.279-1.423 2.043-1.423.367 0 .603.043.823.144l-.294 1.438a2.405 2.405 0 0 0-.75-.115c-.573 0-1.264.388-1.704 1.452v4.312h-1.69v-7.058zm5.29-2.17c0-.561.44-.949 1.043-.949s1.043.388 1.043.949c0 .546-.44.935-1.043.935s-1.043-.389-1.043-.935zm.19 2.17h1.69v7.058h-1.69v-7.058zm6.465-.172c.822 0 1.337.302 1.896.776l-.059-1.136v-2.559h1.689v10.148h-1.396l-.118-.762h-.059c-.529.518-1.264.934-2.043.934-1.807 0-2.968-1.365-2.968-3.694.001-2.298 1.486-3.707 3.058-3.707zm.323 6.037c.559 0 1.028-.245 1.514-.791v-3.292c-.5-.431-.985-.589-1.47-.589-.926 0-1.675.848-1.675 2.329 0 1.524.587 2.343 1.631 2.343zm8.417-2.803c0-2.53.72-4.6 1.939-6.554l1.058.46c-1.102 1.84-1.616 3.981-1.616 6.094 0 2.113.515 4.255 1.616 6.095l-1.058.46c-1.219-1.955-1.939-4.025-1.939-6.555zm4.715 2.645h2.087v-6.008h-1.719v-1.035c.926-.173 1.572-.403 2.16-.748h1.264v7.791h1.836v1.351h-5.628v-1.351zm7.037-3.263c0-3.091 1.234-4.7 3.174-4.7s3.174 1.624 3.174 4.7c0 3.09-1.234 4.786-3.174 4.786s-3.174-1.695-3.174-4.786zm4.731 0c0-2.587-.646-3.407-1.558-3.407-.896 0-1.558.819-1.558 3.407 0 2.587.661 3.493 1.558 3.493.912 0 1.558-.906 1.558-3.493zm3.303 3.263h2.087v-6.008h-1.719v-1.035c.926-.173 1.572-.403 2.16-.748h1.264v7.791h1.836v1.351h-5.628v-1.351zm8.697-2.645c0-2.113-.514-4.254-1.616-6.094l1.058-.46c1.22 1.955 1.94 4.024 1.94 6.554s-.721 4.6-1.94 6.555l-1.058-.46c1.103-1.84 1.616-3.982 1.616-6.095zm-181.089 122.64h1.881l1.734 4.628.632 1.782h.059l.617-1.782 1.705-4.628h1.881v9.4h-1.602v-4.298c0-.876.132-2.127.22-2.99h-.059l-.779 2.142-1.661 4.269h-.793l-1.66-4.269-.764-2.142h-.059c.088.862.221 2.113.221 2.99v4.298h-1.572v-9.4zm14.735 4.887c-.015-.748-.338-1.38-1.308-1.38-.72 0-1.396.316-2.028.69l-.617-1.107c.793-.489 1.807-.92 2.954-.92 1.807 0 2.689 1.078 2.689 3.047v4.183h-1.381l-.132-.776h-.044c-.646.532-1.381.949-2.233.949-1.264 0-2.146-.833-2.146-2.07 0-1.51 1.293-2.3 4.246-2.616zm-1.572 3.392c.588 0 1.043-.288 1.572-.776v-1.581c-1.955.245-2.601.748-2.601 1.452 0 .632.427.905 1.029.905zm7.933-6.109c.823 0 1.337.302 1.896.776l-.059-1.136v-2.559h1.69v10.148h-1.396l-.118-.762h-.059c-.529.518-1.264.934-2.042.934-1.808 0-2.968-1.365-2.968-3.694 0-2.298 1.484-3.707 3.056-3.707zm.324 6.037c.558 0 1.028-.245 1.513-.791v-3.292c-.5-.431-.984-.589-1.469-.589-.926 0-1.675.848-1.675 2.329-.001 1.524.587 2.343 1.631 2.343zm5.346-5.865h1.396l.118 1.25h.059c.514-.92 1.278-1.423 2.042-1.423.367 0 .603.043.823.144l-.294 1.438a2.404 2.404 0 0 0-.749-.115c-.573 0-1.264.388-1.705 1.452v4.312h-1.69v-7.058zm5.288-2.17c0-.561.44-.949 1.043-.949s1.043.388 1.043.949c0 .546-.441.935-1.043.935s-1.043-.389-1.043-.935zm.191 2.17h1.69v7.058h-1.69v-7.058zm6.465-.172c.823 0 1.337.302 1.896.776l-.059-1.136v-2.559h1.69v10.148h-1.396l-.118-.762h-.059c-.529.518-1.264.934-2.042.934-1.808 0-2.968-1.365-2.968-3.694-.001-2.298 1.483-3.707 3.056-3.707zm.323 6.037c.558 0 1.028-.245 1.513-.791v-3.292c-.5-.431-.984-.589-1.469-.589-.926 0-1.675.848-1.675 2.329 0 1.524.588 2.343 1.631 2.343zm8.417-2.803c0-2.53.72-4.6 1.94-6.554l1.058.46c-1.102 1.84-1.616 3.981-1.616 6.094 0 2.113.514 4.255 1.616 6.095l-1.058.46c-1.22-1.956-1.94-4.025-1.94-6.555zm4.715 2.645h2.087v-6.008h-1.719v-1.035c.926-.173 1.572-.403 2.16-.748h1.264v7.791h1.836v1.351h-5.628v-1.351zm7.037-3.263c0-3.091 1.234-4.7 3.174-4.7s3.174 1.624 3.174 4.7c0 3.09-1.234 4.786-3.174 4.786s-3.174-1.695-3.174-4.786zm4.731 0c0-2.587-.646-3.407-1.558-3.407-.896 0-1.558.819-1.558 3.407 0 2.587.661 3.493 1.558 3.493.912 0 1.558-.906 1.558-3.493zm3.304 3.263h2.087v-6.008h-1.719v-1.035c.926-.173 1.572-.403 2.16-.748h1.264v7.791h1.836v1.351h-5.628v-1.351zm8.697-2.645c0-2.113-.514-4.254-1.616-6.094l1.058-.46c1.22 1.955 1.94 4.024 1.94 6.554s-.721 4.6-1.94 6.555l-1.058-.46c1.103-1.84 1.616-3.982 1.616-6.095zm60.575-192.169h3.354c2.18 0 3.796.745 3.796 3.011 0 2.162-1.646 3.161-3.796 3.161h-1.585v3.578h-1.769v-9.75zm3.216 4.785c1.479 0 2.195-.582 2.195-1.774 0-1.223-.747-1.625-2.195-1.625h-1.447v3.399h1.447zm8.275-2.534c2.027 0 3.095 1.431 3.095 3.474 0 .328-.03.626-.076.805h-4.756c.152 1.327 1.006 2.072 2.21 2.072.641 0 1.189-.194 1.738-.537l.595 1.073c-.717.462-1.616.79-2.562.79-2.073 0-3.688-1.416-3.688-3.831-.001-2.385 1.691-3.846 3.444-3.846zm1.57 3.19c0-1.163-.503-1.863-1.524-1.863-.884 0-1.646.641-1.799 1.863h3.323zm3.199-3.011h1.448l.121 1.297h.062c.533-.954 1.326-1.476 2.119-1.476.381 0 .625.044.854.149l-.305 1.491a2.521 2.521 0 0 0-.778-.119c-.594 0-1.311.402-1.768 1.506v4.472h-1.753v-7.32zm5.943 1.356h-1.067v-1.282l1.159-.075.213-1.998h1.464v1.998h1.905v1.356h-1.905v3.489c0 .865.335 1.282 1.052 1.282.259 0 .563-.074.777-.164l.305 1.267a4.88 4.88 0 0 1-1.524.268c-1.737 0-2.378-1.073-2.378-2.653v-3.488zm5.242-4.561h1.753v2.713l-.061 1.416c.625-.582 1.372-1.103 2.394-1.103 1.601 0 2.302 1.059 2.302 2.907v4.592h-1.754v-4.368c0-1.208-.351-1.655-1.173-1.655-.656 0-1.083.313-1.708.91v5.113h-1.753V13.437zm11.688 6.38c0-2.624.747-4.771 2.012-6.798l1.098.477c-1.144 1.908-1.677 4.129-1.677 6.321s.533 4.413 1.677 6.321l-1.098.477c-1.265-2.028-2.012-4.174-2.012-6.798zm5.425 2.206c.365.417.96.715 1.555.715 1.22 0 2.21-.879 2.286-3.503-.563.686-1.417 1.103-2.118 1.103-1.662 0-2.82-.954-2.82-2.937 0-1.893 1.387-3.101 3.049-3.101 1.89 0 3.506 1.431 3.506 4.621 0 3.683-1.814 5.218-3.812 5.218-1.158 0-2.012-.477-2.591-1.073l.945-1.043zm3.795-4.025c-.183-1.669-.884-2.385-1.829-2.385-.792 0-1.448.641-1.448 1.789 0 1.118.564 1.7 1.54 1.7.548 0 1.204-.313 1.737-1.104zm4.022 4.025c.365.417.96.715 1.555.715 1.22 0 2.21-.879 2.286-3.503-.563.686-1.417 1.103-2.118 1.103-1.662 0-2.82-.954-2.82-2.937 0-1.893 1.387-3.101 3.049-3.101 1.89 0 3.506 1.431 3.506 4.621 0 3.683-1.814 5.218-3.812 5.218-1.158 0-2.012-.477-2.591-1.073l.945-1.043zm3.795-4.025c-.183-1.669-.884-2.385-1.829-2.385-.792 0-1.448.641-1.448 1.789 0 1.118.564 1.7 1.54 1.7.549 0 1.204-.313 1.737-1.104zm4.693 1.819c0-2.191-.533-4.413-1.677-6.321l1.098-.477c1.265 2.027 2.012 4.174 2.012 6.798 0 2.624-.747 4.771-2.012 6.798l-1.098-.477c1.143-1.908 1.677-4.13 1.677-6.321zm-69.908 24.094h3.545c2.304 0 4.012.787 4.012 3.181 0 2.283-1.74 3.338-4.012 3.338h-1.676v3.779h-1.869V43.911zm3.4 5.054c1.563 0 2.32-.614 2.32-1.874 0-1.291-.79-1.716-2.32-1.716h-1.53v3.59h1.53zm8.745-2.677c2.144 0 3.271 1.512 3.271 3.669 0 .346-.032.661-.08.85h-5.027c.16 1.401 1.062 2.189 2.336 2.189.677 0 1.257-.205 1.837-.567l.628 1.134c-.757.488-1.707.834-2.707.834-2.191 0-3.898-1.496-3.898-4.047-.001-2.518 1.787-4.062 3.64-4.062zm1.66 3.37c0-1.229-.531-1.968-1.611-1.968-.935 0-1.74.677-1.901 1.968h3.512zm3.379-3.181h1.531l.129 1.37h.064c.564-1.008 1.402-1.559 2.24-1.559.402 0 .66.047.902.158l-.322 1.575a2.637 2.637 0 0 0-.822-.126c-.629 0-1.386.425-1.869 1.59v4.724h-1.854v-7.732zm6.282 1.433h-1.128v-1.354l1.225-.079.226-2.11h1.547v2.11h2.015v1.433h-2.015v3.685c0 .913.354 1.354 1.112 1.354.273 0 .596-.079.821-.173l.322 1.339c-.435.142-.983.283-1.611.283-1.837 0-2.514-1.134-2.514-2.803V47.91zm5.54-4.819h1.854v2.866l-.064 1.496c.66-.614 1.45-1.166 2.529-1.166 1.692 0 2.434 1.118 2.434 3.071v4.85h-1.854v-4.614c0-1.275-.37-1.748-1.24-1.748-.693 0-1.145.331-1.805.96v5.401h-1.854V43.091zm12.354 6.741c0-2.771.789-5.039 2.127-7.181l1.16.504c-1.209 2.016-1.773 4.362-1.773 6.677 0 2.314.564 4.661 1.773 6.677l-1.16.504c-1.338-2.142-2.127-4.41-2.127-7.181zm5.734 2.33c.387.441 1.015.756 1.643.756 1.289 0 2.337-.929 2.418-3.7-.597.724-1.499 1.165-2.24 1.165-1.756 0-2.98-1.008-2.98-3.102 0-2 1.466-3.275 3.223-3.275 1.998 0 3.705 1.512 3.705 4.881 0 3.89-1.917 5.512-4.027 5.512-1.225 0-2.127-.504-2.74-1.134l.998-1.103zm4.012-4.252c-.193-1.764-.935-2.52-1.934-2.52-.838 0-1.531.677-1.531 1.89 0 1.181.597 1.795 1.628 1.795.58.001 1.272-.33 1.837-1.165zm4.25 4.252c.387.441 1.015.756 1.643.756 1.289 0 2.337-.929 2.418-3.7-.597.724-1.499 1.165-2.24 1.165-1.756 0-2.98-1.008-2.98-3.102 0-2 1.466-3.275 3.223-3.275 1.998 0 3.705 1.512 3.705 4.881 0 3.89-1.917 5.512-4.027 5.512-1.225 0-2.127-.504-2.74-1.134l.998-1.103zm4.012-4.252c-.193-1.764-.935-2.52-1.934-2.52-.838 0-1.531.677-1.531 1.89 0 1.181.597 1.795 1.628 1.795.58.001 1.272-.33 1.837-1.165zm4.959 1.922c0-2.315-.563-4.661-1.771-6.677l1.16-.504c1.337 2.142 2.127 4.409 2.127 7.181s-.79 5.039-2.127 7.181l-1.16-.504c1.207-2.016 1.771-4.363 1.771-6.677zM3.35 140.935h1.103v6.151h2.586v1.084H3.35v-7.235zm4.554.132c0-.432.285-.73.675-.73.39 0 .675.299.675.73 0 .42-.285.719-.675.719-.39 0-.675-.298-.675-.719zm.124 1.671h1.093v5.432H8.028v-5.432zm2.491 0h.903l.076.741h.038c.39-.487.846-.874 1.426-.874.684 0 1.074.365 1.292.974.447-.553.913-.974 1.502-.974.989 0 1.445.785 1.445 2.157v3.407h-1.103v-3.241c0-.896-.228-1.228-.713-1.228-.294 0-.618.221-.979.675v3.794h-1.093v-3.241c0-.896-.228-1.228-.723-1.228-.285 0-.618.221-.979.675v3.794h-1.093v-5.431zm10.563 1.958c-.01-.575-.219-1.062-.846-1.062-.466 0-.903.243-1.312.531l-.399-.852c.513-.376 1.169-.708 1.911-.708 1.169 0 1.74.83 1.74 2.345v3.219h-.894l-.086-.597h-.028c-.418.409-.894.73-1.445.73-.817 0-1.388-.642-1.388-1.593-.001-1.162.836-1.77 2.747-2.013zm-1.017 2.611c.38 0 .675-.221 1.017-.598v-1.217c-1.265.188-1.683.575-1.683 1.117 0 .487.276.698.666.698zm5.429-2.213c0-1.947.466-3.54 1.255-5.045l.685.354c-.713 1.416-1.046 3.064-1.046 4.691 0 1.626.333 3.274 1.046 4.69l-.685.354c-.789-1.504-1.255-3.097-1.255-5.044zm5.629-2.887h-2.861v-1.073h4.059v.774c-1.417 2.046-1.664 3.518-1.768 6.261H29.44c.104-2.5.513-4.071 1.683-5.962zm1.978 2.411c0-2.378.798-3.617 2.053-3.617s2.053 1.25 2.053 3.617c0 2.378-.798 3.684-2.053 3.684s-2.053-1.305-2.053-3.684zm3.061 0c0-1.991-.418-2.622-1.008-2.622-.58 0-1.008.63-1.008 2.622s.428 2.688 1.008 2.688c.589.001 1.008-.697 1.008-2.688zm2.891.476c0-1.626-.333-3.275-1.046-4.691l.685-.354c.789 1.505 1.255 3.098 1.255 5.045s-.466 3.54-1.255 5.044l-.685-.354c.713-1.415 1.046-3.064 1.046-4.69zm-35.878-35.42h2.487c1.617 0 2.815.553 2.815 2.234 0 1.604-1.221 2.346-2.815 2.346H4.486v2.655H3.175v-7.235zm2.386 3.551c1.097 0 1.628-.431 1.628-1.316 0-.907-.554-1.206-1.628-1.206H4.486v2.522h1.075zm6.139-1.88c1.503 0 2.295 1.062 2.295 2.578 0 .243-.022.464-.056.597h-3.528c.113.985.746 1.538 1.64 1.538.475 0 .882-.144 1.289-.398l.441.796c-.531.343-1.198.586-1.899.586-1.538 0-2.736-1.051-2.736-2.843-.002-1.77 1.253-2.854 2.554-2.854zm1.164 2.367c0-.863-.373-1.383-1.131-1.383-.656 0-1.221.476-1.334 1.383h2.465zm2.374-2.234h1.074l.091.962h.045c.396-.708.984-1.095 1.572-1.095.283 0 .463.033.633.11l-.227 1.106a1.858 1.858 0 0 0-.576-.088c-.441 0-.973.299-1.312 1.117v3.319h-1.3v-5.431zm4.409 1.006h-.792v-.951l.859-.055.158-1.482h1.085v1.482h1.414v1.006h-1.414v2.589c0 .642.249.951.78.951.192 0 .418-.055.577-.122l.226.94c-.305.1-.689.199-1.131.199-1.289 0-1.764-.796-1.764-1.969v-2.588zm3.889-3.385h1.3v2.013l-.045 1.051c.463-.431 1.018-.818 1.775-.818 1.188 0 1.708.786 1.708 2.157v3.407h-1.3v-3.241c0-.896-.26-1.228-.871-1.228-.486 0-.803.232-1.267.675v3.794h-1.3v-7.81zm8.672 4.735c0-1.947.554-3.54 1.493-5.045l.814.354c-.848 1.416-1.244 3.064-1.244 4.691 0 1.626.396 3.274 1.244 4.69l-.814.354c-.939-1.504-1.493-3.097-1.493-5.044zm4.025 1.637c.271.31.712.531 1.153.531.904 0 1.64-.653 1.696-2.6-.418.509-1.051.819-1.571.819-1.232 0-2.092-.708-2.092-2.18 0-1.405 1.029-2.301 2.261-2.301 1.402 0 2.601 1.062 2.601 3.429 0 2.732-1.346 3.872-2.827 3.872a2.61 2.61 0 0 1-1.922-.796l.701-.774zm2.815-2.987c-.136-1.239-.656-1.77-1.357-1.77-.588 0-1.074.476-1.074 1.327 0 .83.418 1.261 1.142 1.261.408.001.893-.232 1.289-.818zm2.985 2.987c.271.31.712.531 1.153.531.904 0 1.64-.653 1.696-2.6-.418.509-1.051.819-1.571.819-1.232 0-2.092-.708-2.092-2.18 0-1.405 1.029-2.301 2.261-2.301 1.402 0 2.601 1.062 2.601 3.429 0 2.732-1.346 3.872-2.827 3.872a2.61 2.61 0 0 1-1.922-.796l.701-.774zm2.815-2.987c-.136-1.239-.656-1.77-1.357-1.77-.588 0-1.074.476-1.074 1.327 0 .83.418 1.261 1.142 1.261.407.001.893-.232 1.289-.818zm3.482 1.35c0-1.626-.396-3.275-1.244-4.691l.814-.354c.938 1.505 1.493 3.098 1.493 5.045s-.554 3.54-1.493 5.044l-.814-.354c.848-1.416 1.244-3.064 1.244-4.69zm92.565-92.876h-3.313l-.768 2.606h-1.777l3.208-9.63h2.048l3.208 9.63h-1.837l-.769-2.606zm-.392-1.339l-.347-1.178c-.316-1.016-.603-2.121-.889-3.181h-.06a60.477 60.477 0 0 1-.874 3.181l-.346 1.178h2.516zm4.066-3.284H146l.121.987h.06c.617-.648 1.34-1.164 2.259-1.164 1.084 0 1.702.486 2.048 1.296.708-.736 1.446-1.296 2.38-1.296 1.566 0 2.289 1.045 2.289 2.872v4.535h-1.747V19.25c0-1.192-.361-1.634-1.129-1.634-.467 0-.979.294-1.551.898v5.051h-1.732V19.25c0-1.192-.362-1.634-1.145-1.634-.452 0-.979.294-1.551.898v5.051h-1.732v-7.23zm12.77 5.316c.663.5 1.295.81 2.048.81.798 0 1.174-.368 1.174-.869 0-.604-.798-.869-1.581-1.163-.979-.354-2.079-.898-2.079-2.106 0-1.266 1.04-2.165 2.696-2.165 1.024 0 1.853.413 2.455.869l-.798 1.031c-.513-.368-1.04-.619-1.627-.619-.738 0-1.084.339-1.084.795 0 .575.738.795 1.536 1.075 1.009.368 2.124.839 2.124 2.194 0 1.237-1.009 2.238-2.876 2.238-1.009 0-2.078-.427-2.801-1.001l.813-1.089zm6.672-3.976h-1.055v-1.267l1.146-.074.21-1.973h1.446v1.973h1.883v1.34h-1.883v3.445c0 .854.331 1.267 1.039 1.267.256 0 .558-.074.769-.162l.301 1.251a4.833 4.833 0 0 1-1.506.265c-1.717 0-2.35-1.06-2.35-2.621v-3.444zm7.951-1.517c2.003 0 3.057 1.414 3.057 3.431 0 .324-.03.618-.075.795h-4.698c.15 1.311.993 2.047 2.184 2.047.632 0 1.175-.191 1.717-.53l.587 1.061c-.708.456-1.596.78-2.53.78-2.048 0-3.645-1.399-3.645-3.784-.001-2.356 1.67-3.8 3.403-3.8zm1.551 3.152c0-1.148-.497-1.841-1.506-1.841-.874 0-1.627.633-1.777 1.841h3.283zm3.163-2.975h1.431l.12 1.281h.061c.527-.942 1.311-1.458 2.094-1.458.376 0 .617.044.843.147l-.301 1.473a2.459 2.459 0 0 0-.769-.118c-.587 0-1.295.398-1.747 1.487v4.417h-1.731v-7.229zm8.146-.177c.844 0 1.37.31 1.942.795l-.06-1.163v-2.621h1.731v10.396h-1.431l-.12-.78h-.061c-.542.53-1.295.957-2.094.957-1.853 0-3.042-1.399-3.042-3.784.002-2.356 1.524-3.8 3.135-3.8zm.331 6.185c.572 0 1.055-.25 1.552-.81v-3.372c-.513-.442-1.01-.604-1.507-.604-.948 0-1.717.869-1.717 2.386 0 1.56.603 2.4 1.672 2.4zm9.519-3.402c-.016-.766-.347-1.414-1.341-1.414-.737 0-1.431.324-2.078.707l-.633-1.134c.813-.5 1.853-.942 3.027-.942 1.853 0 2.756 1.104 2.756 3.122v4.285h-1.415l-.136-.795h-.045c-.663.544-1.416.972-2.289.972-1.296 0-2.199-.854-2.199-2.121 0-1.546 1.326-2.356 4.353-2.68zm-1.611 3.476c.603 0 1.069-.294 1.611-.795v-1.62c-2.003.25-2.666.766-2.666 1.487 0 .648.436.928 1.055.928zm5.451-6.082h1.431l.12.987h.061c.617-.648 1.34-1.164 2.259-1.164 1.085 0 1.702.486 2.049 1.296.707-.736 1.445-1.296 2.379-1.296 1.566 0 2.289 1.045 2.289 2.872v4.535h-1.747V19.25c0-1.192-.361-1.634-1.129-1.634-.467 0-.979.294-1.552.898v5.051h-1.731V19.25c0-1.192-.361-1.634-1.145-1.634-.452 0-.979.294-1.552.898v5.051h-1.731v-7.23zm15.842 3.137c0-2.592.738-4.712 1.988-6.715l1.085.471c-1.13 1.885-1.657 4.079-1.657 6.244s.527 4.358 1.657 6.243l-1.085.471c-1.25-2.002-1.988-4.123-1.988-6.714zm5.361 2.179a2.12 2.12 0 0 0 1.536.707c1.205 0 2.184-.869 2.259-3.46-.557.678-1.4 1.09-2.093 1.09-1.642 0-2.786-.942-2.786-2.901 0-1.87 1.37-3.062 3.012-3.062 1.867 0 3.464 1.414 3.464 4.564 0 3.637-1.792 5.154-3.765 5.154-1.146 0-1.988-.471-2.561-1.06l.934-1.032zm3.75-3.976c-.181-1.649-.873-2.356-1.808-2.356-.783 0-1.431.633-1.431 1.767 0 1.104.558 1.679 1.521 1.679.543 0 1.191-.309 1.718-1.09zm4.683 1.09v-.059c-.738-.515-1.325-1.207-1.325-2.194 0-1.517 1.234-2.488 2.892-2.488 1.717 0 2.816 1.016 2.816 2.533 0 .927-.663 1.708-1.28 2.149v.059c.889.486 1.656 1.178 1.656 2.43 0 1.443-1.295 2.547-3.238 2.547-1.867 0-3.253-1.06-3.253-2.577 0-1.164.828-1.929 1.732-2.4zm1.551 3.769c.919 0 1.582-.53 1.582-1.399 0-1.016-1.01-1.384-2.305-1.899-.603.427-1.039 1.031-1.039 1.752.001.928.784 1.546 1.762 1.546zm1.401-5.875c0-.825-.526-1.428-1.415-1.428-.738 0-1.311.471-1.311 1.281 0 .942.858 1.355 1.928 1.767.511-.501.798-1.031.798-1.62zm4.728 2.813c0-2.165-.527-4.359-1.657-6.244l1.085-.471c1.25 2.003 1.987 4.123 1.987 6.715 0 2.591-.737 4.712-1.987 6.714l-1.085-.471c1.13-1.885 1.657-4.079 1.657-6.243zM9.953 178.788l-2.124-3.77H6.323v3.77H4.576v-9.63h3.328c2.048 0 3.615.707 3.615 2.856 0 1.473-.783 2.356-1.958 2.753l2.35 4.02H9.953zm-3.63-5.124h1.4c1.34 0 2.079-.56 2.079-1.649 0-1.104-.738-1.487-2.079-1.487h-1.4v3.136zm6.927-4.33c0-.574.452-.972 1.069-.972s1.069.398 1.069.972c0 .56-.452.957-1.069.957-.617.001-1.069-.397-1.069-.957zm.196 2.224h1.732v7.23h-1.732v-7.23zm6.973-.177c1.853 0 3.524 1.384 3.524 3.799 0 2.4-1.672 3.784-3.524 3.784-1.837 0-3.509-1.384-3.509-3.784 0-2.415 1.672-3.799 3.509-3.799zm0 6.199c1.084 0 1.747-.957 1.747-2.4 0-1.458-.663-2.415-1.747-2.415s-1.732.957-1.732 2.415c0 1.443.647 2.4 1.732 2.4zm11.008-6.199c.843 0 1.371.31 1.943.795l-.061-1.163v-2.621h1.732v10.396H33.61l-.121-.78h-.06c-.542.53-1.295.957-2.093.957-1.853 0-3.042-1.399-3.042-3.784 0-2.357 1.521-3.8 3.133-3.8zm.331 6.184c.572 0 1.054-.25 1.551-.81v-3.372c-.512-.442-1.009-.604-1.506-.604-.949 0-1.717.869-1.717 2.386.001 1.561.603 2.4 1.672 2.4zm8.404-6.184c2.003 0 3.058 1.414 3.058 3.431 0 .324-.03.618-.076.795h-4.699c.151 1.311.994 2.047 2.184 2.047.633 0 1.175-.191 1.717-.53l.587 1.061c-.708.456-1.597.78-2.53.78-2.048 0-3.645-1.399-3.645-3.784 0-2.357 1.672-3.8 3.404-3.8zm1.551 3.151c0-1.148-.497-1.841-1.506-1.841-.874 0-1.626.633-1.777 1.841h3.283zm6.716 1.929c.392.707.934 1.016 1.536 1.016.918 0 1.385-.486 1.385-1.855v-6.464h1.747v6.611c0 1.752-.874 3.195-2.937 3.195-1.371 0-2.319-.56-2.937-1.634l1.206-.869zm11.009-2.297c-.015-.766-.347-1.414-1.34-1.414-.738 0-1.431.324-2.079.707l-.632-1.134c.813-.5 1.853-.942 3.027-.942 1.853 0 2.756 1.104 2.756 3.122v4.285h-1.416l-.135-.795h-.045c-.663.544-1.416.972-2.289.972-1.295 0-2.199-.854-2.199-2.121-.001-1.546 1.324-2.356 4.352-2.68zm-1.612 3.475c.603 0 1.069-.294 1.612-.795v-1.62c-2.003.25-2.666.766-2.666 1.487-.001.648.436.928 1.054.928zm5.451-6.081h1.431l.12.972h.061c.663-.633 1.416-1.149 2.425-1.149 1.581 0 2.274 1.045 2.274 2.872v4.535h-1.732v-4.314c0-1.192-.346-1.634-1.16-1.634-.647 0-1.069.309-1.687.898v5.051h-1.732v-7.231zm11.355-.177c2.003 0 3.058 1.414 3.058 3.431 0 .324-.03.618-.076.795h-4.699c.151 1.311.994 2.047 2.184 2.047.633 0 1.175-.191 1.717-.53l.587 1.061c-.708.456-1.597.78-2.53.78-2.048 0-3.645-1.399-3.645-3.784.001-2.357 1.672-3.8 3.404-3.8zm1.552 3.151c0-1.148-.497-1.841-1.506-1.841-.874 0-1.626.633-1.777 1.841h3.283zm2.966-5.198c0-.574.452-.972 1.069-.972s1.069.398 1.069.972c0 .56-.452.957-1.069.957-.617.001-1.069-.397-1.069-.957zm.196 2.224h1.732v7.23h-1.732v-7.23zm3.946 0h1.431l.121 1.281h.06c.527-.942 1.31-1.458 2.093-1.458.376 0 .618.044.843.147l-.301 1.473a2.457 2.457 0 0 0-.768-.118c-.587 0-1.295.398-1.747 1.487v4.417h-1.732v-7.229zm8.493-.177c1.853 0 3.524 1.384 3.524 3.799 0 2.4-1.672 3.784-3.524 3.784-1.837 0-3.509-1.384-3.509-3.784 0-2.415 1.671-3.799 3.509-3.799zm0 6.199c1.084 0 1.747-.957 1.747-2.4 0-1.458-.663-2.415-1.747-2.415s-1.732.957-1.732 2.415c0 1.443.647 2.4 1.732 2.4zm8.388-2.886c0-2.592.738-4.712 1.988-6.715l1.084.471c-1.129 1.885-1.657 4.079-1.657 6.244s.527 4.358 1.657 6.243l-1.084.471c-1.25-2.002-1.988-4.122-1.988-6.714zm5.361 2.18a2.12 2.12 0 0 0 1.536.707c1.205 0 2.184-.869 2.259-3.46-.558.678-1.401 1.09-2.094 1.09-1.642 0-2.786-.942-2.786-2.901 0-1.87 1.371-3.062 3.012-3.062 1.868 0 3.464 1.414 3.464 4.564 0 3.637-1.792 5.154-3.765 5.154-1.145 0-1.988-.471-2.56-1.06l.934-1.032zm3.75-3.976c-.181-1.649-.874-2.356-1.807-2.356-.783 0-1.431.633-1.431 1.767 0 1.104.557 1.679 1.521 1.679.542-.001 1.19-.31 1.717-1.09zm4.683 1.089v-.059c-.738-.515-1.326-1.207-1.326-2.194 0-1.517 1.235-2.488 2.892-2.488 1.717 0 2.816 1.016 2.816 2.533 0 .927-.663 1.708-1.28 2.149v.059c.889.486 1.657 1.178 1.657 2.43 0 1.443-1.295 2.547-3.238 2.547-1.868 0-3.253-1.06-3.253-2.577 0-1.163.828-1.929 1.732-2.4zm1.552 3.77c.918 0 1.581-.53 1.581-1.399 0-1.016-1.009-1.384-2.304-1.899-.603.427-1.039 1.031-1.039 1.752-.001.927.783 1.546 1.762 1.546zm1.4-5.875c0-.825-.527-1.428-1.416-1.428-.738 0-1.311.471-1.311 1.281 0 .942.858 1.355 1.928 1.767.513-.501.799-1.031.799-1.62zm4.728 2.812c0-2.165-.527-4.359-1.657-6.244l1.084-.471c1.25 2.003 1.988 4.123 1.988 6.715 0 2.591-.738 4.712-1.988 6.714l-1.084-.471c1.13-1.884 1.657-4.078 1.657-6.243zm79.603 33.283c.708.647 1.656 1.089 2.56 1.089 1.115 0 1.718-.486 1.718-1.237 0-.795-.633-1.045-1.521-1.414l-1.355-.574c-.964-.397-1.988-1.148-1.988-2.562 0-1.532 1.386-2.709 3.313-2.709 1.145 0 2.259.471 3.027 1.222l-.889 1.089c-.633-.515-1.295-.824-2.139-.824-.934 0-1.551.427-1.551 1.134 0 .751.753 1.031 1.565 1.354l1.341.545c1.16.486 1.988 1.208 1.988 2.606 0 1.561-1.325 2.856-3.539 2.856a5.166 5.166 0 0 1-3.555-1.414l1.025-1.161zm11.746-2.224c-.016-.766-.347-1.414-1.341-1.414-.737 0-1.431.324-2.078.707l-.633-1.134c.813-.5 1.853-.942 3.027-.942 1.853 0 2.756 1.104 2.756 3.122v4.285h-1.415l-.136-.795h-.045c-.663.544-1.416.972-2.289.972-1.296 0-2.199-.854-2.199-2.121.001-1.546 1.326-2.356 4.353-2.68zm-1.611 3.476c.603 0 1.069-.294 1.611-.795v-1.62c-2.003.25-2.666.766-2.666 1.487 0 .648.437.928 1.055.928zm5.452-6.082h1.431l.12.972h.061c.663-.633 1.416-1.149 2.425-1.149 1.581 0 2.274 1.046 2.274 2.872v4.535h-1.732v-4.314c0-1.192-.347-1.634-1.159-1.634-.648 0-1.069.309-1.688.898v5.051h-1.731v-7.231zm8.688 1.34h-1.055v-1.266l1.145-.074.211-1.973h1.446v1.973h1.883v1.34h-1.883v3.446c0 .854.331 1.266 1.039 1.266.256 0 .558-.073.769-.162l.301 1.251a4.833 4.833 0 0 1-1.506.265c-1.717 0-2.35-1.06-2.35-2.621v-3.445zm4.985-3.563c0-.574.452-.972 1.069-.972.618 0 1.069.398 1.069.972 0 .56-.451.957-1.069.957-.617 0-1.069-.398-1.069-.957zm.196 2.223h1.731v7.23h-1.731v-7.23zm7.982 2.606c-.016-.766-.347-1.414-1.341-1.414-.737 0-1.431.324-2.078.707l-.633-1.134c.813-.5 1.853-.942 3.027-.942 1.853 0 2.756 1.104 2.756 3.122v4.285h-1.415l-.136-.795h-.045c-.663.544-1.416.972-2.289.972-1.296 0-2.199-.854-2.199-2.121 0-1.546 1.325-2.356 4.353-2.68zm-1.612 3.476c.603 0 1.069-.294 1.611-.795v-1.62c-2.003.25-2.666.766-2.666 1.487 0 .648.437.928 1.055.928zm6.008.912v-.059a1.355 1.355 0 0 1-.662-1.208c0-.56.392-1.045.813-1.34v-.059a2.424 2.424 0 0 1-.964-1.914c0-1.664 1.37-2.592 2.921-2.592.407 0 .783.074 1.085.177h2.65v1.252h-1.355c.241.28.422.721.422 1.222 0 1.605-1.235 2.459-2.802 2.459-.315 0-.678-.059-1.009-.191-.226.191-.361.368-.361.692 0 .412.302.663 1.205.663h1.311c1.776 0 2.71.53 2.71 1.782 0 1.428-1.536 2.547-3.945 2.547-1.762 0-3.072-.619-3.072-1.885-.001-.604.375-1.133 1.053-1.546zm2.29 2.327c1.189 0 2.003-.545 2.003-1.163 0-.56-.467-.722-1.311-.722h-1.009c-.407 0-.724-.029-1.01-.103-.392.294-.572.619-.572.957.001.648.724 1.031 1.899 1.031zm1.099-6.906c0-.898-.557-1.428-1.28-1.428s-1.295.515-1.295 1.428c0 .928.572 1.458 1.295 1.458.707 0 1.28-.53 1.28-1.458zm6.673-2.592c1.852 0 3.523 1.384 3.523 3.799 0 2.4-1.672 3.784-3.523 3.784-1.838 0-3.51-1.384-3.51-3.784 0-2.415 1.672-3.799 3.51-3.799zm0 6.199c1.084 0 1.747-.957 1.747-2.4 0-1.458-.663-2.415-1.747-2.415-1.085 0-1.732.957-1.732 2.415-.001 1.443.647 2.4 1.732 2.4zm8.386-2.885c0-2.592.738-4.712 1.988-6.715l1.085.471c-1.13 1.885-1.657 4.079-1.657 6.244s.527 4.358 1.657 6.243l-1.085.471c-1.249-2.002-1.988-4.123-1.988-6.714zm5.362 2.179a2.12 2.12 0 0 0 1.536.707c1.205 0 2.184-.869 2.259-3.46-.557.678-1.4 1.09-2.093 1.09-1.642 0-2.786-.942-2.786-2.901 0-1.87 1.37-3.062 3.012-3.062 1.867 0 3.464 1.414 3.464 4.564 0 3.637-1.792 5.154-3.765 5.154-1.146 0-1.988-.471-2.561-1.06l.934-1.032zm3.75-3.976c-.181-1.649-.873-2.355-1.808-2.355-.783 0-1.431.633-1.431 1.767 0 1.104.558 1.679 1.521 1.679.543-.001 1.19-.31 1.718-1.091zm3.975 3.976a2.12 2.12 0 0 0 1.536.707c1.205 0 2.184-.869 2.259-3.46-.557.678-1.4 1.09-2.093 1.09-1.642 0-2.786-.942-2.786-2.901 0-1.87 1.37-3.062 3.012-3.062 1.867 0 3.464 1.414 3.464 4.564 0 3.637-1.792 5.154-3.765 5.154-1.146 0-1.988-.471-2.561-1.06l.934-1.032zm3.75-3.976c-.181-1.649-.873-2.355-1.808-2.355-.783 0-1.431.633-1.431 1.767 0 1.104.558 1.679 1.521 1.679.543-.001 1.191-.31 1.718-1.091zm4.639 1.797c0-2.165-.527-4.359-1.657-6.244l1.085-.471c1.25 2.003 1.987 4.123 1.987 6.715 0 2.591-.737 4.712-1.987 6.714l-1.085-.471c1.129-1.885 1.657-4.079 1.657-6.243zm-106.131-60.55c.708.647 1.656 1.089 2.56 1.089 1.115 0 1.718-.486 1.718-1.237 0-.795-.633-1.045-1.521-1.414l-1.355-.574c-.964-.397-1.988-1.148-1.988-2.562 0-1.532 1.386-2.709 3.313-2.709 1.145 0 2.259.471 3.027 1.222l-.889 1.089c-.633-.515-1.295-.824-2.139-.824-.934 0-1.551.427-1.551 1.134 0 .751.753 1.031 1.565 1.354l1.341.545c1.16.486 1.988 1.208 1.988 2.606 0 1.561-1.325 2.856-3.539 2.856a5.166 5.166 0 0 1-3.555-1.414l1.025-1.161zm11.746-2.224c-.016-.766-.347-1.414-1.341-1.414-.737 0-1.431.324-2.078.707l-.633-1.134c.813-.5 1.853-.942 3.027-.942 1.853 0 2.756 1.104 2.756 3.122v4.285h-1.415l-.136-.795h-.045c-.663.544-1.416.972-2.289.972-1.296 0-2.199-.854-2.199-2.121.001-1.546 1.326-2.356 4.353-2.68zm-1.897-5.654c.783 0 1.28.707 1.747.707.271 0 .437-.221.542-.707h.919c-.121 1.119-.633 1.782-1.401 1.782-.783 0-1.265-.707-1.747-.707-.271 0-.437.221-.542.707h-.919c.12-1.119.632-1.782 1.401-1.782zm.286 9.129c.603 0 1.069-.294 1.611-.795v-1.62c-2.003.25-2.666.766-2.666 1.487 0 .649.437.928 1.055.928zm8.479-6.258c1.852 0 3.523 1.384 3.523 3.799 0 2.4-1.672 3.784-3.523 3.784-1.838 0-3.51-1.384-3.51-3.784 0-2.415 1.672-3.799 3.51-3.799zm0 6.199c1.084 0 1.747-.957 1.747-2.4 0-1.458-.663-2.415-1.747-2.415-1.085 0-1.732.957-1.732 2.415 0 1.443.647 2.4 1.732 2.4zm8.478-8.422h3.313c2.153 0 3.75.736 3.75 2.974 0 2.135-1.627 3.122-3.75 3.122h-1.566v3.534h-1.747v-9.63zm3.177 4.726c1.461 0 2.169-.574 2.169-1.752 0-1.207-.738-1.605-2.169-1.605h-1.431v3.357h1.431zm9.051.28c-.016-.766-.347-1.414-1.341-1.414-.737 0-1.431.324-2.078.707l-.633-1.134c.813-.5 1.853-.942 3.027-.942 1.853 0 2.756 1.104 2.756 3.122v4.285h-1.415l-.136-.795h-.045c-.663.544-1.416.972-2.289.972-1.296 0-2.199-.854-2.199-2.121.001-1.546 1.326-2.356 4.353-2.68zm-1.611 3.475c.603 0 1.069-.294 1.611-.795v-1.62c-2.003.25-2.666.766-2.666 1.487 0 .649.437.928 1.055.928zm5.376-6.081h1.731v4.314c0 1.193.347 1.634 1.145 1.634.647 0 1.085-.294 1.642-1.001v-4.948h1.732v7.23h-1.416l-.136-1.06h-.045c-.647.751-1.37 1.237-2.38 1.237-1.581 0-2.273-1.045-2.273-2.872v-4.534zm8.448-3.166h1.731v8.628c0 .413.196.56.377.56.075 0 .136 0 .271-.029l.227 1.266c-.211.088-.513.147-.919.147-1.235 0-1.687-.78-1.687-2.032v-8.54zm7.109 2.989c1.852 0 3.523 1.384 3.523 3.799 0 2.4-1.672 3.784-3.523 3.784-1.838 0-3.51-1.384-3.51-3.784 0-2.415 1.672-3.799 3.51-3.799zm0 6.199c1.084 0 1.747-.957 1.747-2.4 0-1.458-.663-2.415-1.747-2.415-1.085 0-1.732.957-1.732 2.415-.001 1.443.647 2.4 1.732 2.4zm8.386-2.885c0-2.592.738-4.712 1.988-6.715l1.085.471c-1.13 1.885-1.657 4.079-1.657 6.244s.527 4.358 1.657 6.243l-1.085.471c-1.249-2.003-1.988-4.123-1.988-6.714zm5.363 2.179a2.12 2.12 0 0 0 1.536.707c1.205 0 2.184-.869 2.259-3.46-.557.678-1.4 1.09-2.093 1.09-1.642 0-2.786-.942-2.786-2.901 0-1.87 1.37-3.062 3.012-3.062 1.867 0 3.464 1.414 3.464 4.564 0 3.637-1.792 5.154-3.765 5.154-1.146 0-1.988-.471-2.561-1.06l.934-1.032zm3.75-3.976c-.181-1.649-.873-2.355-1.808-2.355-.783 0-1.431.633-1.431 1.767 0 1.104.558 1.679 1.521 1.679.543-.002 1.19-.311 1.718-1.091zm4.682 1.089v-.059c-.738-.515-1.325-1.207-1.325-2.194 0-1.517 1.234-2.488 2.892-2.488 1.717 0 2.816 1.016 2.816 2.533 0 .927-.663 1.708-1.28 2.149v.059c.889.486 1.656 1.178 1.656 2.43 0 1.443-1.295 2.547-3.238 2.547-1.867 0-3.253-1.06-3.253-2.577 0-1.163.829-1.928 1.732-2.4zm1.551 3.77c.919 0 1.582-.53 1.582-1.399 0-1.016-1.01-1.384-2.305-1.899-.603.427-1.039 1.031-1.039 1.752 0 .928.783 1.546 1.762 1.546zm1.401-5.875c0-.825-.527-1.428-1.416-1.428-.738 0-1.311.471-1.311 1.281 0 .942.858 1.355 1.928 1.767.512-.501.799-1.031.799-1.62zm4.729 2.813c0-2.165-.527-4.359-1.657-6.244l1.085-.471c1.25 2.003 1.987 4.123 1.987 6.715 0 2.591-.737 4.712-1.987 6.714l-1.085-.471c1.13-1.885 1.657-4.079 1.657-6.243z" fill="#5B5B5B"/></svg>