<svg xmlns="http://www.w3.org/2000/svg" width="258.812" height="292.433" viewBox="0 0 258.812 292.433"><path fill="#FFF" d="M258.812 289.517a2.916 2.916 0 0 1-2.915 2.916H3.642a2.914 2.914 0 0 1-2.911-2.916V2.913A2.912 2.912 0 0 1 3.642 0h252.255a2.914 2.914 0 0 1 2.915 2.913v286.604z"/><path fill="#FFD600" d="M258.812 2.913A2.914 2.914 0 0 0 255.897 0H3.642A2.912 2.912 0 0 0 .731 2.913v77.24h258.081V2.913z"/><text transform="translate(15.78 60.15)" fill="#5B5B5B" font-family="'SourceSansPro-Semibold'" font-size="26.425">Thu, Apr 13</text><text transform="translate(15.782 26.2)" fill="#5B5B5B" font-family="'SourceSansPro-Regular'" font-size="12.332">2017</text><text transform="translate(99.873 101.994)" fill="#5B5B5B" font-family="'SourceSansPro-Regular'" font-size="14.454">April 2017</text><text transform="translate(24.831 134.29)" fill="#5B5B5B" font-family="'SourceSansPro-Regular'" font-size="11.451">S</text><text transform="translate(57.37 134.29)" fill="#5B5B5B" font-family="'SourceSansPro-Regular'" font-size="11.451">M</text><text transform="translate(92.107 134.29)" fill="#5B5B5B" font-family="'SourceSansPro-Regular'" font-size="11.451">T</text><text transform="translate(124.317 134.29)" fill="#5B5B5B" font-family="'SourceSansPro-Regular'" font-size="11.451">W</text><text transform="translate(159.39 134.29)" fill="#5B5B5B" font-family="'SourceSansPro-Regular'" font-size="11.451">T</text><text transform="translate(193.273 134.29)" fill="#5B5B5B" font-family="'SourceSansPro-Regular'" font-size="11.451">F</text><text transform="translate(226.687 134.29)" fill="#5B5B5B" font-family="'SourceSansPro-Regular'" font-size="11.451">S</text><text transform="translate(226.898 158.367)" fill="#5B5B5B" font-family="'SourceSansPro-Regular'" font-size="11.451">1</text><text transform="translate(25.043 180.682)" fill="#5B5B5B" font-family="'SourceSansPro-Regular'" font-size="11.451">2</text><text transform="translate(58.687 180.682)" fill="#5B5B5B" font-family="'SourceSansPro-Regular'" font-size="11.451">3</text><text transform="translate(92.331 180.682)" fill="#5B5B5B" font-family="'SourceSansPro-Regular'" font-size="11.451">4</text><text transform="translate(125.972 180.682)" fill="#5B5B5B" font-family="'SourceSansPro-Regular'" font-size="11.451">5</text><text transform="translate(159.613 180.682)" fill="#5B5B5B" font-family="'SourceSansPro-Regular'" font-size="11.451">6</text><text transform="translate(193.256 180.682)" fill="#5B5B5B" font-family="'SourceSansPro-Regular'" font-size="11.451">7</text><text transform="translate(226.898 180.682)" fill="#5B5B5B" font-family="'SourceSansPro-Regular'" font-size="11.451">8</text><text transform="translate(25.043 202.996)" fill="#5B5B5B" font-family="'SourceSansPro-Regular'" font-size="11.451">9</text><text transform="translate(55.84 202.996)" fill="#5B5B5B" font-family="'SourceSansPro-Regular'" font-size="11.451">10</text><text transform="translate(89.485 202.996)" fill="#5B5B5B" font-family="'SourceSansPro-Regular'" font-size="11.451">11</text><text transform="translate(123.126 202.996)" fill="#5B5B5B" font-family="'SourceSansPro-Regular'" font-size="11.451">12</text><text transform="translate(190.41 202.996)" fill="#5B5B5B" font-family="'SourceSansPro-Regular'" font-size="11.451">14</text><text transform="translate(224.053 202.996)" fill="#5B5B5B" font-family="'SourceSansPro-Regular'" font-size="11.451">15</text><text transform="translate(22.197 225.31)" fill="#5B5B5B" font-family="'SourceSansPro-Regular'" font-size="11.451">16</text><text transform="translate(55.84 225.31)" fill="#5B5B5B" font-family="'SourceSansPro-Regular'" font-size="11.451">17</text><text transform="translate(89.485 225.31)" fill="#5B5B5B" font-family="'SourceSansPro-Regular'" font-size="11.451">18</text><text transform="translate(123.126 225.31)" fill="#5B5B5B" font-family="'SourceSansPro-Regular'" font-size="11.451">19</text><text transform="translate(156.768 225.31)" fill="#5B5B5B" font-family="'SourceSansPro-Regular'" font-size="11.451">20</text><text transform="translate(190.41 225.31)" fill="#5B5B5B" font-family="'SourceSansPro-Regular'" font-size="11.451">21</text><text transform="translate(224.053 225.31)" fill="#5B5B5B" font-family="'SourceSansPro-Regular'" font-size="11.451">22</text><text transform="translate(22.197 247.624)" fill="#5B5B5B" font-family="'SourceSansPro-Regular'" font-size="11.451">23</text><text transform="translate(55.84 247.624)" fill="#5B5B5B" font-family="'SourceSansPro-Regular'" font-size="11.451">24</text><text transform="translate(89.485 247.624)" fill="#5B5B5B" font-family="'SourceSansPro-Regular'" font-size="11.451">25</text><text transform="translate(123.126 247.624)" fill="#5B5B5B" font-family="'SourceSansPro-Regular'" font-size="11.451">26</text><text transform="translate(156.768 247.624)" fill="#5B5B5B" font-family="'SourceSansPro-Regular'" font-size="11.451">27</text><text transform="translate(190.41 247.624)" fill="#5B5B5B" font-family="'SourceSansPro-Regular'" font-size="11.451">28</text><text transform="translate(224.053 247.624)" fill="#5B5B5B" font-family="'SourceSansPro-Regular'" font-size="11.451">29</text><text transform="translate(22.197 269.35)" fill="#5B5B5B" font-family="'SourceSansPro-Regular'" font-size="11.451">30</text><circle fill="#FFE94D" cx="162.459" cy="199.972" r="10.597"/><text transform="translate(156.768 202.996)" fill="#5B5B5B" font-family="'SourceSansPro-Regular'" font-size="11.451">13</text><path fill="none" stroke="#333" stroke-miterlimit="10" d="M240.566 100.95l3.273-3.273-3.524-3.524m-221.337 0l-3.271 3.272 3.523 3.523"/></svg>