<svg xmlns="http://www.w3.org/2000/svg" width="427.143" height="102.818" viewBox="0 0 427.143 102.818"><path opacity=".2" fill="#B3B3B3" d="M199.231 0h72.638v66.127h-72.638zM126.59 32.701h72.641v33.426H126.59zM53.864 54.68h72.64v10.805h-72.64zm218.005-11.451h72.642v22.897h-72.642z"/><path fill="#5B5B5B" d="M6.371 65.027h410.925v3H6.371z"/><path fill="#333" d="M3.038 94.568c0-4.659 1.677-7.164 4.464-7.164 2.765 0 4.442 2.505 4.442 7.164 0 4.66-1.677 7.251-4.442 7.251-2.788 0-4.464-2.591-4.464-7.251zm7.163 0c0-4.071-1.088-5.727-2.7-5.727-1.633 0-2.722 1.655-2.722 5.727s1.088 5.814 2.722 5.814c1.612 0 2.7-1.742 2.7-5.814zm396.969 5.509h3.179V89.843h-2.525v-1.154c1.263-.218 2.177-.565 2.938-1.022h1.372v12.412h2.875v1.479h-7.839v-1.481zm10.061-5.509c0-4.659 1.677-7.164 4.464-7.164 2.765 0 4.441 2.505 4.441 7.164 0 4.66-1.677 7.251-4.441 7.251-2.787 0-4.464-2.591-4.464-7.251zm7.164 0c0-4.071-1.088-5.727-2.699-5.727-1.634 0-2.723 1.655-2.723 5.727s1.088 5.814 2.723 5.814c1.61 0 2.699-1.742 2.699-5.814z"/><path fill="#5B5B5B" d="M0 67.623a8.073 8.073 0 0 1 8.074-8.07 8.07 8.07 0 0 1 8.067 8.07c0 4.459-3.611 8.073-8.067 8.073A8.072 8.072 0 0 1 0 67.623z"/><path fill="#FFD600" d="M336.439 67.623a8.071 8.071 0 1 1 8.07 8.073c-4.456.001-8.07-3.614-8.07-8.073zm-311.426 0a8.071 8.071 0 0 1 8.071-8.07 8.072 8.072 0 0 1 0 16.143 8.07 8.07 0 0 1-8.071-8.073z"/><path fill="#5B5B5B" d="M410 67.623a8.073 8.073 0 0 1 8.074-8.07c4.454 0 8.067 3.615 8.067 8.07 0 4.459-3.613 8.073-8.067 8.073A8.073 8.073 0 0 1 410 67.623z"/><path fill="#FFD600" d="M32.957 64.596h312.451v5H32.957z"/></svg>