<svg xmlns="http://www.w3.org/2000/svg" width="305.783" height="305.119" viewBox="0 0 305.783 305.119"><path fill="#ECE2D9" d="M.664 0h305.119v305.119H.664z"/><path fill="#CCDCA1" d="M202.5 141.815l14.655 33.048h19.693l-6.573-29.592-8.065-14.167z"/><g fill="#FEF4F1"><path d="M1.957 166.46a1.898 1.898 0 0 0-.639-2.606l-.654-.396v3.884a1.889 1.889 0 0 0 1.293-.882z"/><path d="M216.472 278.667l2.222-.184c1.83-.15 3.721-.307 5.662-.47l4.833 27.44h3.852l-4.889-27.764c5.123-.442 11.182-.877 17.576-1.289l1.67 5.455-7.256.508a1.89 1.89 0 0 0-1.76 2.025 1.896 1.896 0 0 0 2.025 1.76l9.577-.669c.037-.002.093-.002.11-.008l5.735-.401 1.724 14.38-16.849 1.571h-.009a1.898 1.898 0 0 0 .361 3.777l8.166-.761.15 1.416h3.816l-.188-1.769 6.843-.638.008-.001c.507-.049.973-.3 1.292-.696.321-.398.468-.91.408-1.418l-2.17-18.106a1.898 1.898 0 0 0-2.016-1.667l-6.085.426-1.662-5.429c9.211-.569 18.849-1.085 27.205-1.504l-.134 2.885-10.741-.496a1.898 1.898 0 0 0-1.984 1.949l.126 4.507a1.896 1.896 0 0 0 2.083 1.835 1.898 1.898 0 0 0 1.71-1.941l-.069-2.465 10.598.489a1.898 1.898 0 0 0 1.982-1.808l.236-5.144c9.717-.476 17.102-.795 18.987-.875 2.102.498 4.146.947 6.163 1.354v-6.89a183.804 183.804 0 0 1-5.053-1.135 3.391 3.391 0 0 0-.926-.089c-.115.005-2.998.126-7.646.337l.062-46.635 9.91.458c.86.12 2.151.289 3.653.484v-3.826c-1.33-.173-2.458-.322-3.218-.429a2.443 2.443 0 0 0-.174-.016l-11.956-.552a.619.619 0 0 1-.043-.002l-7.076-.327.404-8.743.002-.05.473-10.233 16.919 4.013a1.898 1.898 0 0 0 2.335-1.809l.299-15.559.055.006.081.007 1.074.071.825.055v-4.226l-.547-.037-1.032-.068-.374-.04.031-1.605a1.808 1.808 0 0 0-.002-.147 1.641 1.641 0 0 0-.017-.188l-7.053-56.541c4.679-.545 8.382-.501 8.447-.501.054.001.106 0 .16-.004l.386-.031v-3.384l-.575.046c-1.188-.012-12.808-.04-21.341 3.475-5.009 2.062-11.397 2.193-17.064 1.765a1.842 1.842 0 0 0-1.667-.143c-2.94-.281-5.616-.683-7.703-.997a110.311 110.311 0 0 0-2.973-.423c-3.231-.393-5.56.37-7.095 1.251-.458-2.062-1.031-3.703-1.563-4.938 17.367-9.191 42.209-17.425 59.981-22.712v-7.068c-17.028 4.992-41.388 12.917-59.774 22.092l-6.627-13.383c18.171-10.247 55.515-34.12 57.403-35.328a1.897 1.897 0 1 0-2.045-3.196c-.456.292-37.849 24.196-56.303 34.707l-3.1-14.793 10.737.496a1.476 1.476 0 0 0 .136-2.948l-11.497-.53-3.209-15.34c4.038-1.096 11.833-1.441 22.671-.997.176.093.376.151.588.166l20.479 1.367a1.477 1.477 0 0 0 .256-2.941c-.092-.009-8.996-.959-19.086-1.447l.143-3.102 5.011.032a1.475 1.475 0 1 0 .019-2.95l-8.962-.059a1.475 1.475 0 1 0-.158 2.943l1.131.115-.133 2.893c-11.297-.428-19.126.005-23.29 1.287l-.163.048-10.775-6.222 5.956-10.106c2.807.685 5.604 1.229 8.249 1.537 18.624 2.167 22.637 2.232 23.862.39 1.023-1.542 3.222-9.337.354-12.482-3.101-3.4-5.309-1.462-5.4-1.378a1.476 1.476 0 0 0 1.801 2.326c.172.019.674.225 1.417 1.041 1.389 1.522.243 7.154-.521 8.666-1.498.491-7.738-.026-13.671-.651l2.732-19.656 42.494 5.058-.035.775a1.697 1.697 0 0 0 1.84 1.768l16.929-1.552.009-.001a1.65 1.65 0 0 0 .535-.152v-3.075a1.654 1.654 0 0 0-.763-.163l-12.977.465-2.715-9.852a1.686 1.686 0 0 0-1.368-1.219l-43.312-6.692a1.68 1.68 0 0 0-.62-.19l-14.36-1.503.16-3.491h-3.376l-.138 2.978-8.629-.74a1.682 1.682 0 0 0-.97.211L208.811.334h-18.744l13 1.482-2.534 26.727c-6.081-1.572-20.428-2.613-26.007-2.97.825-8.663 1.667-17.859 2.331-25.239h-6.773a5612.707 5612.707 0 0 1-1.86 20.236l-.22-.224a1.466 1.466 0 0 0-.736-.407l-12.009-2.637a1.477 1.477 0 0 0-1.748 1.083l-4.45 17.713c-4.674-.353-8.048-.616-9.047-.714-.09-.008-.179-.013-.268-.019l2.332-9.752 1.967.338a1.476 1.476 0 0 0 1.666-1.033L153.023.335h-3.079l-1.933 6.498-31.962-3.005.393-3.493h-2.121l-.37 3.296-1.954-.184a1404.89 1404.89 0 0 0-2.222-3.112h-8.306l1.107 1.539-2.396-.493.196-1.046h-2.145l-.117.619a974.742 974.742 0 0 1-2.957-.619H84.189c-.622 1.346-1.387 3.788-2.418 8.416a212.5 212.5 0 0 0-1.413 6.95l-9.46-1.917c1.293-4.543 2.795-9.096 4.61-13.448H68.24a117.671 117.671 0 0 0-1.146 3.104L58.288.336h-8.872c6.49 2.29 13.092 4.616 16.729 5.899-2.513 7.685-4.307 15.489-5.88 22.55L29.812 18.194a1.47 1.47 0 0 0-.667-.44l-5.892-1.879a57.154 57.154 0 0 0 1.717-3.691c2.01-4.75 3.32-8.774 4.291-11.851h-3.096c-.923 2.889-2.144 6.517-3.914 10.701-4.367 10.328-10.261 15.42-11.919 16.706l-.509.374a1.476 1.476 0 0 0 1.689 2.419c.054-.035.311-.209.728-.533l4.685-3.446 7.358 4.113-14.047 37.249-9.572 4.291v3.234l11.34-5.083c.358-.161.639-.458.777-.826l14.613-38.753c.081-.131.148-.271.185-.424l2.135-9.071L59.62 31.683c-1.309 5.876-2.565 11.383-4.015 15.639-4.891 14.37-16.464 36.824-17.268 38.376A1295.599 1295.599 0 0 1 23.67 109.67L.664 96.759v4.352l20.979 11.771c-4.004 6.31-8.064 12.517-11.35 17.126a181.19 181.19 0 0 0-9.629-3.495v7.125c1.8.621 3.61 1.274 5.414 1.965a356.447 356.447 0 0 1-5.414 6.667v12.137l14.521 6.519a1.895 1.895 0 0 0 2.508-.954 1.897 1.897 0 0 0-.954-2.508l-14.525-6.521c3.705-4.419 7.374-8.835 10.345-12.677 7.794 3.456 15.031 7.671 20.164 12.85.831.838 1.689 1.707 2.568 2.598l-7.566 6.632a1.435 1.435 0 0 0-.418.032c-.39.093-.725.34-.928.685l-7.391 12.521a15.876 15.876 0 0 0-2.174-1.33c-2.469-1.247-9.993-.582-11.709.721-.474.359-1.053.903-1.723 1.535-.777.731-1.828 1.72-2.719 2.371v3.369c1.533-.574 3.234-2.172 4.741-3.591.583-.549 1.135-1.067 1.47-1.323.984-.635 7.104-1.207 8.609-.446a12.7 12.7 0 0 1 2.862 1.975 1.474 1.474 0 0 0 2.31-.298l7.488-12.688 1.535.976c-5.049 6.859-9.688 16.758-11.809 22.066-2.035 5.089-2.907 8.171-3.254 9.601l-3.319 1.346-10.634-.099v3.795l5.566.051c-1.515 3.86-3.528 8.602-5.566 12.873v7.369c3.886-6.868 7.799-16.673 8.965-19.673l1.295-.525 3.01.028 54.799 8.514c.194.033.395.036.595.005.196-.028.384-.088.559-.173l13.68-6.504c.489 1.41 1.202 3.897 1.573 7.228l-4.355-.202a1.899 1.899 0 0 0-.174 3.791l4.771.22a44.18 44.18 0 0 1-.371 6.339l-17.034 5.079-1.597-2.237a1.897 1.897 0 1 0-3.087 2.204l2.353 3.297c.021.03.04.059.062.087l10.248 14.361a29.174 29.174 0 0 1-1.332 1.498l-17.947-25.268a1.898 1.898 0 0 0-3.094 2.198L71.81 247.79c-8.473 6.932-20.511 9.817-29.56 11.013l2.244-8.575 4.093-6.469a1.897 1.897 0 0 0 .136-1.771l-5.816-13.361a1.897 1.897 0 1 0-3.479 1.514l5.415 12.439-3.036 4.799-8.42-1.44-4.566-10.452a1.898 1.898 0 0 0-3.477 1.519l4.901 11.218-20.757.143a1.892 1.892 0 0 0-1.884 1.91 1.896 1.896 0 0 0 1.91 1.884l22.009-.151a1.895 1.895 0 0 0 1.858-2.222l6.995 1.197-2.163 8.268c-5.043.457-8.462.382-8.574.379a1.898 1.898 0 0 0-.109 3.794c.303.009 5.711.147 13.111-.819l-.341 7.368a1.264 1.264 0 0 0-.003.087l-.755 16.34-5.759-.265a1.898 1.898 0 0 0-.174 3.791l20.017.923c-2.141 2.573-3.116 4.894-3.397 5.642-7.01-2.115-14.34-3.743-23.052-.475a1.833 1.833 0 0 0-.272-.203L.664 278.849v4.427l24.323 14.613c-8.972 4.334-17.095 6.305-24.323 6.975v.588h24.039a95.067 95.067 0 0 0 4.253-1.991c8.847-4.411 15.793-2.245 23.836.264 1.88.586 3.835 1.193 5.873 1.727h21.801c3.815-.933 7.721-2.137 11.538-3.315 12.479-3.852 24.265-7.489 28.986-.874a175.617 175.617 0 0 0 3.088 4.189h9.212a46.788 46.788 0 0 1 2.191-3.161c.9-1.19 1.992-2.476 3.049-3.72 1.665-1.961 3.239-3.814 4.364-5.588.148-.233.293-.465.434-.699 4.911-.13 11.062-.583 17.086-1.564l2.808 14.732h3.863l-2.938-15.417a74.831 74.831 0 0 0 3.619-.831l3.628 16.248h3.888l-3.863-17.305c1.975-.647 3.812-1.385 5.441-2.225 5.076-2.619 11.297-4.118 19.142-5.208l3.119 13.276.011.045 2.682 11.416h3.897l-2.544-10.833 6.346-3.116a1.896 1.896 0 1 0-1.672-3.407l-5.564 2.732-2.489-10.597c3.06-.358 6.345-.677 9.884-.989a5916.62 5916.62 0 0 0 6.43 26.209h6.951a6129.027 6129.027 0 0 1-6.581-26.783zm28.914-268.409l.165-1.188 40.815 6.307 1.83 6.641-43.128-5.131.318-6.629zM25.154 27.772l-6.961-3.892a48.4 48.4 0 0 0 3.609-5.348l5.107 1.776-1.755 7.464zm211.449 182.143c-.423.834-.823 1.622-1.173 2.37-2.872 6.145-1.625 18.657-1.508 19.759l.06 1.229-6.581 1.547-1.373-59.071 17.64 1.859c.1 14.125-2.49 22.396-5.004 28.05l-2.618-1.373a1.895 1.895 0 0 0-2.192.308l-4.775 4.563a1.898 1.898 0 0 0 2.622 2.744l3.789-3.621 1.536.805-.423.831zm-70.411 51.408l.582 3.003c-.339.107-.678.216-1.015.326-8.525 2.756-12.85 1.887-14.977.671-1.71-.979-2.249-2.363-2.379-2.788.356-.456 2.266-2.353 10.047-3.639 12.3-2.031 33.831-8.25 41.507-10.521a269.75 269.75 0 0 1 3.194 6.933c-6.464 1.234-19.563 3.945-32.73 7.892l-.504-2.6a1.897 1.897 0 1 0-3.725.723zM45.367 163.92l-3.445 1.317a1.477 1.477 0 0 0-.767.668c-.006.01-.57.958-1.409 1.18-.459.121-.964.005-1.546-.354-.92-.565-2.335-1.454-3.804-2.382a21.26 21.26 0 0 1 1.906-1.935 92.704 92.704 0 0 0 3.928-3.683c1.734 1.761 3.447 3.491 5.137 5.189zm-3.514-13.154l4.423-3.875.231.244a240.01 240.01 0 0 1-3.951 4.344l-.703-.713zm3.073 3.122a229.904 229.904 0 0 0 3.913-4.296l3.594 3.786-4.36 3.7a1660.753 1660.753 0 0 1-3.147-3.19zm10.123 2.248l.421.443-3.94 3.982-.777-.781 4.296-3.644zm9.38-65.683l9.455.436c.29.552.561 1.053.793 1.479.217.703.989 3.15 2.317 6.74l-3.163-2.274a1.47 1.47 0 0 0-.61-.255l-8.792-6.126zm2.874 5.6c-2.865-.702-6.311-1.833-9.104-2.89l.133-2.992.432.02c.431.246.847.5 1.218.759l7.321 5.103zm6.298-15.326c3.828-.893 6.608-1.394 7.858-1.604l4.526 6.337.034.041c.044.058.092.111.144.162l.028.032 3.259 2.998c.312.288.751.421 1.156.381l6.88-.738-.154 4.275a1.9 1.9 0 0 0 .161.838l9.305 20.975-4.812 1.824c-1.447-3.667-2.836-7.047-3.397-7.979-.506-.841-2.011-3.34-13.079 1.562-4.746-10.46-7.231-18.665-7.257-18.75a1.988 1.988 0 0 0-.155-.369c-1.973-3.586-4.015-8.014-4.497-9.985zm.412-3.125c.764-3.243 2.012-8.072 2.165-8.665 1.202-.064 2.426-.129 3.669-.192l.588 7.557c-1.305.226-3.514.641-6.422 1.3zm84.262 14.439a1.475 1.475 0 0 0-1.542 1.406l-.268 5.785-.61 10.198c-2.111-.025-5.536-.246-7.73-.408l-.178-3.069c4.331-.119 4.721-.783 5.016-1.283.554-.941.842-5.403.855-13.271l17.166.105-1.128 2.43c-1.997 4.303-.507 15.622-.008 18.963l-2.017.221a1.198 1.198 0 0 0-.122.013l-22.146 2.422c-1.632-3.362-3.171-6.527-4.585-9.434l4.053.538.223 3.825c.043.734.62 1.326 1.354 1.385.334.027 8.206.659 10.737.487a1.466 1.466 0 0 0 1.374-1.384l.693-11.581.269-5.804a1.476 1.476 0 0 0-1.406-1.544zm53.179-36.138l2.233 8.267c.024.095.06.186.104.274l1.358 2.721-4.831 1.502c-.92-6.899-1.708-12.668-1.932-14.295l2.272-4.468 3.629 2.095-2.458 2.48c-.37.374-.513.917-.375 1.424zm-6.15 41.591l17.848-4.731 1.402 5.923-37.075 12.126a97.4 97.4 0 0 1-3.392-7.834l21.217-5.484zm-22.225 2.696c-1.511-4.402-2.039-7.118-2.048-7.17a3.452 3.452 0 0 0-.111-.434l-.162-.494 28.62-7.846c.184 1.443.36 2.847.525 4.181.255 2.063.667 3.512 1.067 4.511l-6.414 1.701-21.477 5.551zm30.775-8.017c-.313-.681-.756-1.953-1.022-4.109a1278.71 1278.71 0 0 0-.579-4.607l7.231-1.982 1.988-.568 1.578 8.828-9.196 2.438zm4.834-13.54l-6.815 1.868c-.379-2.938-.775-5.96-1.16-8.866l5.772-1.794 4.116 8.246-1.913.546zm-9.689 2.656l-29.177 7.999-.125-.37c-1.116-3.325-2.409-7.174-3.617-11.288l31.751-5.27c.389 2.935.788 5.979 1.168 8.929zm-28.551 30.448l-7.663.838c-.651-4.321-1.733-14.208-.252-17.4l1.247-2.687c.232.693.455 1.362.664 1.999.276 1.362 1.764 8.048 6.004 17.25zm1.754 3.625a111.878 111.878 0 0 0 3.399 6.211c6.378 10.817 8.084 18.592 8.52 21.391-12.429 7.394-21.09 11.422-28.361 14.521a6975.305 6975.305 0 0 0-18.438-38.308l19.444-2.126 10.023 24.357a1.899 1.899 0 0 0 2.477 1.032 1.897 1.897 0 0 0 1.032-2.477l-9.606-23.343 11.51-1.258zm-8.734 128.848l.829 4.268c-6.183 1.576-12.308 2.997-16.945 3.763a54.763 54.763 0 0 0-3.573.707l-.305-4.001 19.994-4.737zm-20.286.906l-.383-5.022 19.054-4.206.891 4.594-19.562 4.634zm18.031-32.42a199.761 199.761 0 0 1 3.179-1.448l7.699 18.494-7.257 1.602-3.621-18.648zm12.359 20.605l1.75 4.202-8.882 2.104-.881-4.537 8.013-1.769zm4.797 7.38a1.896 1.896 0 0 0 1.314-2.575l-12.529-30.099a1.9 1.9 0 0 0-2.494-1.017c-.172.073-2.174.927-4.892 2.19l-1.406-3.261a358.228 358.228 0 0 1 10.538-4.337c1.926 4.31 3.405 7.762 4.281 10.037 3.688 9.591 8.858 20.307 13.42 29.764l.399.828a729.742 729.742 0 0 1-19.023 5.313l-.812-4.189 11.204-2.654zm-10.571-57.703a2751.666 2751.666 0 0 0-9.137-19.396c4.228-1.806 8.917-3.92 14.5-6.793l5.407 13.868a2.11 2.11 0 0 0 1.743 1.331l7.268.765c-.16.035-.318.084-.472.163l-19.309 10.062zm5.378 11.673c-1.157-2.55-2.425-5.307-3.777-8.229l7.916-4.125 1.272 2.223a1.898 1.898 0 1 0 3.293-1.885l-1.197-2.092 8.18-4.261a1.899 1.899 0 0 0 .805-2.56 1.877 1.877 0 0 0-.901-.844l13.077 1.378-28.668 20.395zm13.199-26.265l11.723-7.546 3.678 9.169-15.401-1.623zm-4.737-1.463l-4.723-12.111c4.467-2.402 9.48-5.278 15.227-8.816l4.517 11.257-15.021 9.67zm-73.606-30.795l-13.521 4.642a190.107 190.107 0 0 1-4.595-5.916c-2.486-3.329-4.903-7.014-7.233-11.024l7.132-2.702a810.936 810.936 0 0 1 2.846 7.471 1.895 1.895 0 0 0 2.478 1.096l18.153-7.215a1.898 1.898 0 0 0-1.401-3.526l-16.359 6.502a848.812 848.812 0 0 0-2.166-5.673l6.654-2.521a1.896 1.896 0 0 0 1.061-2.544l-9.94-22.408.152-4.211 20.773-.151c.004.112.014.225.038.339l1.935 8.973-4.787.573-.066.007-8.085.967-4.907-9.427a1.898 1.898 0 0 0-3.368 1.752l5.514 10.592c.364.7 1.143 1.1 1.908 1.008l7.839-.938 2.499 8.261-6.975 3.08a1.898 1.898 0 1 0 1.533 3.471l8.51-3.76a1.896 1.896 0 0 0 1.049-2.284l-2.791-9.227 2.931-.35 3.731 17.309-2.227.501a1.898 1.898 0 0 0-1.297 2.666l21.256 44.707c-.473.253-.945.504-1.429.773a828.916 828.916 0 0 0-4.674 2.624l-19.937-32.633a1.892 1.892 0 0 0-2.234-.804zm2.208 8.038l-8.065 5.382a144.19 144.19 0 0 1-5.071-5.655l10.721-3.682 2.415 3.955zm-18.16-76.248c8.834-.173 16.761-.076 21.623.535a73.878 73.878 0 0 0-.148 8.22l-21.851 1.921.464-10.036a1.943 1.943 0 0 0-.088-.64zm21.577 10.716c.172 2.489.465 4.607.784 6.344l-23.039.168.207-4.497 22.048-2.015zm19.653 72.395l9.756-4.417c2.152 4.482 4.32 9.006 6.455 13.479-3.408 1.416-6.57 2.756-9.835 4.348l-6.376-13.41zm8.111-7.837l-9.741 4.409-12.184-25.626 1.745-.394a1.896 1.896 0 0 0 1.438-2.25l-5.731-26.581a9269.992 9269.992 0 0 1 24.473 50.442zm-25.744-88.16a731.603 731.603 0 0 0-.633 3.272 90.429 90.429 0 0 0-1.08 7.221c-8.747-1.053-25.975-.611-41.32.119l.33-11.056.229-4.953 5.405-29.256 31.4 6.361c3.593 5.442 5.547 8.996 6.513 12.062 1.434 4.549.672 8.453-.844 16.23zM98.433 68.004a1.894 1.894 0 0 0-.057.379l-.778 16.867-.004.106-6.637.712-2.184-2.009 2.513-15.822c2.399-.091 4.793-.17 7.147-.233zm-10.153.351L86.3 80.82l-2.864-4.01-.639-8.209a959.03 959.03 0 0 1 5.483-.246zm7.27 42.272c.544 1.118 1.643 3.809 2.886 6.966l-7.634 2.892a158.756 158.756 0 0 1-3.686-7.21c3.552-1.54 7.134-2.667 8.434-2.648zm1.326 26.498a198.063 198.063 0 0 0 4.449 5.741L86.62 157.624l-2.643-2.501-.032-.03-6.223-5.89 2.937-3.85a1.056 1.056 0 0 0-.173-1.457l-3.199-2.607 12.373-15.111c2.325 3.968 4.735 7.625 7.216 10.947zm-16.842 19.49l-7.264 8.393-3.935-4.146 6.574-8.624 4.625 4.377zm-1.67-11.729l-2.181 2.859-2.356-2.229 2.126-2.596 2.411 1.966zm-4.494 5.894l-6.505 8.532-6.817-7.184 1.133-3.987 4.352-4.78 7.837 7.419zm-14.605-4.368a1.472 1.472 0 0 0-.329.59l-.749 2.639-3.396-3.577 6.629-7.066 1.714 1.622.709.761-4.578 5.031zm-1.762 12.309l5.719 6.025-3.203 4.202a648.587 648.587 0 0 1-6.402-6.3l3.886-3.927zm7.189 7.575l4.376 4.61c.108.261.271.503.5.701.129.112.271.196.418.267l10.228 10.777c-.653 1.023-.971 2.169-1.058 3.348-5.209-3.984-11.395-9.6-17.609-15.575l3.145-4.128zm10.703 1.477l7.397-8.547 2.562 2.424c.748.708 1.923.69 2.649-.039l15.748-15.803c3.754 4.449 6.694 7.443 8.904 9.693 3.349 3.41 4.405 4.559 4.337 6.022l-.088 1.919c-7.165 1.407-23.118 9.561-31.432 14.95l-10.077-10.619zm10.492 18.549c1.096-1.03 4.618-3.24 9.017-5.711l5.262 9.235c-4.803 1.68-8.833 2.467-11.43 1.793a21.699 21.699 0 0 1-.812-.256 14.294 14.294 0 0 1-.804-.321c-.885-1.868-1.453-3.986-1.233-4.74zm10.861-6.734c7.936-4.35 17.844-9.107 21.814-9.591 1.547 1.541 4.303 4.327 7.011 7.77-7.914 4.326-16.335 8.644-23.399 11.344l-5.426-9.523zm26.32-14.625l-.376-.374c-.541-.541-1.207-.921-1.989-1.142l.081-1.749c.147-3.187-1.831-5.2-5.421-8.856l-.511-.52 7.367-4.917 14.681 24.029c-1.703.964-3.492 1.977-5.342 3.013-3.243-4.258-6.617-7.62-8.49-9.484zm17.681 12.045c2.612-1.479 5.079-2.876 7.408-4.171 4.89-2.719 9.288-4.579 14.269-6.646 1.701 3.578 3.365 7.093 4.969 10.494l-28.43 11.543c-.83-2.85-2.116-5.602-3.622-8.174 1.773-.992 3.574-2.009 5.406-3.046zm27.543 1.587c1.215 2.582 2.39 5.092 3.514 7.504l-12.773 6.656-1.919-5.119a1.896 1.896 0 1 0-3.552 1.332l2.672 7.127a1.902 1.902 0 0 0 1.961 1.222c.239-.023.475-.093.692-.206l14.521-7.566c1.418 3.063 2.738 5.938 3.932 8.571-4.347 1.71-13.705 5.489-20.03 8.764-2.973 1.54-10.491 2.344-15.228 2.667-.889-8.25-1.855-15.56-2.574-19.125-.008-.042-.02-.085-.027-.127l28.811-11.7zm2.836 53.567l-18.619 4.111-1.095-14.352c2.054-.506 5.699-1.663 9.937-4.158 1.95-1.147 4.189-2.316 6.326-3.371l3.451 17.77zm31.549 6.289c-4.506-9.338-9.61-19.922-13.2-29.254-.956-2.487-2.589-6.285-4.71-11.02l31.766-22.601c.279-.199.487-.464.622-.761l5.067.534.982 42.229-13.892 3.405a1.897 1.897 0 1 0 .902 3.685l13.079-3.205.332 14.245-20.004 4.704c-.308-.643-.623-1.298-.944-1.961zm13.366-67.993l-1.74-4.339 7.062-3.076a1.897 1.897 0 1 0-1.515-3.478l-6.96 3.031-7.477-18.638c4.865-3.061 10.227-6.575 16.183-10.641l7.546 14.344 3.295 14.652c.005.028.011.056.018.083l2.256 10.029-18.668-1.967zm26.359 36.138c2.559-5.902 5.111-14.441 5.062-28.588l12.771 1.346.176 26.771-18.009.471zm18.381 3.315l.508 11.345-23.889.827c.133-3.116.539-6.206 1.466-8.19.324-.692.71-1.454 1.119-2.26.195-.385.397-.782.604-1.194l20.192-.528zm-14.943-36.313c-.057-.01-.115-.014-.173-.019l-6.974-.735-2.048-9.108 8.905-.374 1.304 10.343-1.014-.107zm31.297 94.283c-11.634.581-25.879 1.355-38.048 2.202l-.357-17.359-.002-.054-.65-13.311 6.097-.703-1.005 18.008a1.897 1.897 0 1 0 3.789.211l1.041-18.66 8.635-.995-.21 9.958a1.898 1.898 0 0 0 3.794.08l.221-10.476 10.035-1.157.677 23.012a1.897 1.897 0 1 0 3.793-.111l-.687-23.336 4.41-.508-1.533 33.199zm2.302-49.862l-.001.021-.001.021-.459 9.96a3.319 3.319 0 0 0-1.041-.044l-40.188 4.632-.039-.803a2.187 2.187 0 0 0-.009-.114c-.138-1.264-.296-3.396-.339-5.81l25.976-.898a1.903 1.903 0 0 0 1.329-.609c.343-.372.523-.866.501-1.372l-.591-13.189 15.26-.4-.398 8.605zm1.072-23.223l-.004.075-.495 10.739-4.65.122.052-24.779 5.709.601-.612 13.242zm7.914 25.558l-.063 46.986c-2.24.104-4.733.223-7.416.354l2.196-47.584 5.283.244zm11.275-23.283l-15.327-3.636.529-11.482 15.059 1.586-.261 13.532zm-6.665-75.298l7.029 56.36-.022 1.174-8.587-.905c.151-.283.237-.605.227-.948l-1.553-55.08c.966-.23 1.941-.429 2.906-.601zm-7.884 2.171c.396-.163.802-.315 1.212-.462l1.525 54.08c.005.165.038.322.082.474l-2.876-.303.001-.038v-.008a1.865 1.865 0 0 0-.006-.107l-3.441-52.497a25.381 25.381 0 0 0 3.503-1.139zm-7.26 1.841l3.38 51.544-11.836-1.246c.071-.21.105-.437.098-.672l-1.752-49.375c3.273.195 6.753.19 10.11-.251zm-6.271 54.768l-.052 25.279-7.22.189a1.728 1.728 0 0 0-.146-.349l-.169-25.919 7.587.8zm-5.88-5.006c.002.051.015.099.02.148l-15.028-1.583-1.375-10.91 6.474-.272a.849.849 0 0 0 .072-.003l9.377-.394.46 13.014zm-11.688-51.172c.776.094 1.75.242 2.878.411 1.938.292 4.36.655 7.042.935l1.172 33.019-8.021.337c-1.837-5.382-8.587-25.479-8.978-31.255a41.61 41.61 0 0 0-.167-1.837c.617-.607 2.494-2.046 6.074-1.61zm-.884 34.869l-17.369.729-3.011-13.39a1.967 1.967 0 0 0-.066-.227l14.604-5.462c2.023 6.955 4.554 14.553 5.842 18.35zm-6.874-22.013l-15.335 5.734-6.214-11.812a775.75 775.75 0 0 0 10.694-7.528c2.091-1.498 4.449-2.982 7.015-4.446.757 1.852 1.627 4.78 1.905 8.898.134 1.971.894 5.316 1.935 9.154zm-10.237-39.125l6.576 13.281c-4.142 2.195-7.908 4.453-11.12 6.753-12.444 8.91-22.662 15.734-31.249 21.081-1.001-4.393-3.35-11.743-8.852-21.075a101.8 101.8 0 0 1-2.193-3.912l41.867-13.694c.039-.012.078-.026.116-.042 1.116-.447 2.779-1.274 4.855-2.392zm-4.518-20.076l3.427 16.361c-2.217 1.209-3.977 2.099-5.119 2.563l-2.367.774-3.154-17.636 7.213-2.062zm-.607-2.896l-7.444 2.127-4.147-8.309 3.871-1.203a1.476 1.476 0 0 0 1.036-1.341l.2-4.351 3.447-1.421 3.037 14.498zm-5.475-16.685l-3.002 1.237c-.53.219-.885.724-.912 1.297l-.196 4.255-3.342 1.039-1.507-3.02-1.974-7.304 2.405-2.429 8.528 4.925zm-7.708-52.48l24.345 2.547-.068 1.429-4.101 29.503c-1.507-.17-2.922-.334-4.148-.477-2.396-.279-4.927-.762-7.474-1.369.715-2.738 1.693-7.488.543-9.562-.445-.804-1.079-1.121-1.533-1.246-2.002-.551-8.048-.785-11.113-.869l3.549-19.956zm-12.607-3.684L214.87 5.3l-3.878 21.802a1.476 1.476 0 0 0 1.426 1.734c3.803.067 9.953.322 11.901.752.344.904-.053 4.071-.881 7.284-8.987-2.439-17.646-6.095-20.853-7.631l2.557-26.956zm-2.851 30.075c3.778 1.724 11.665 4.947 19.927 7.231l-5.542 9.404-15.134-8.739.749-7.896zm-28.044-3.85c9.089.575 21.705 1.725 26.007 3l-.785 8.279c-3.325-.24-14.407-1.042-26.145-1.898.295-2.916.605-6.087.923-9.381zm-2.098 20.309c.229-1.925.497-4.363.788-7.152 12.493.913 24.277 1.764 26.832 1.948l8.33 4.811-2.109 4.148-33.977-2.357c.037-.469.081-.936.136-1.398zm33.414 6.684c.313 2.298 1.046 7.677 1.88 13.93l-32.176 5.339c-1.925-7.024-3.448-14.62-3.382-21.605l33.678 2.336zm-33.099 33.058l-20.113-.124a1.473 1.473 0 0 0-1.486 1.479c.013 5.099-.142 11.061-.415 12.923-1.617.265-6.42.177-11.111-.086a7612.721 7612.721 0 0 0-7.181-14.704 22.42 22.42 0 0 1-.618-2.141l39.355-2.157c.532 1.675 1.06 3.283 1.569 4.81zm-2.467-7.717l-39.044 2.141c-.636-3.864-1.1-9.823-.177-17.615l35.438-.074c.917 5.376 2.314 10.68 3.783 15.548zm-13.972-60.352l10.184 2.235 1.653 1.682c-.437 4.587-.868 9.033-1.269 12.988a9934.94 9934.94 0 0 1-14.544-1.076l3.976-15.829zm-4.914 19.565c4.413.331 9.677.72 15.095 1.118a481.627 481.627 0 0 1-.755 6.846 44.452 44.452 0 0 0-.275 3.604l-16.367-2.401 2.302-9.167zm14.036 14.547c.047 2.555.267 5.148.616 7.741l-20.173.042 3.055-10.204 16.502 2.421zm-17.023-14.772l-5.668 22.562-11.275.023c.145-.929.306-1.878.491-2.853.219-1.146.429-2.224.628-3.242 1.353-6.943 2.144-11.439 1.517-15.886 1.585-.743 3.753-1.481 5.83-1.277.979.096 4.114.342 8.477.673zm-16.738-31.6l15.768 1.482-3.897 13.104-12.162-2.092c.827-3.67.525-9.519.291-12.494zm-1.454 15.289l9.233 1.588-2.496 10.435c-1.357.245-2.631.671-3.728 1.133-.989-3.068-2.716-6.414-5.433-10.743a8.457 8.457 0 0 0 2.424-2.413zM115.722 6.76l12.682 1.192c.377 4.447.515 11.117-.569 13.294a5.706 5.706 0 0 1-1.923 2.199c-2.122-3.237-4.729-6.998-7.91-11.517-.85-1.208-1.672-2.373-2.467-3.497l.187-1.671zM99.634 4.281c2.022.416 3.934.806 5.471 1.117 2.186 3.06 4.636 6.515 7.38 10.413a671.048 671.048 0 0 1 5.181 7.446L96.851 19.04l2.783-14.759zM86.873 1.515c1.935.493 6.35 1.436 10.697 2.339l-2.785 14.768-11.536-2.338c1.128-6.154 2.677-12.811 3.624-14.769zm-24.881 47.98c1.672-4.913 3.045-11.089 4.498-17.628 1.063-4.787 2.217-9.976 3.622-15.236l15.603 3.161-5.433 29.404c-.012.066-.02.133-.022.2l-.234 5.078-.338 11.313a1200.533 1200.533 0 0 0-24.953 1.535c2.727-6.036 5.416-12.42 7.257-17.827zm-9.461 22.616l1.08-1.746c2.272-.167 9.483-.683 18.591-1.206-.584 2.277-1.803 7.075-2.301 9.43-.576.146-1.165.298-1.773.458-5.507 1.458-14.128.26-18.643-.552.955-1.966 1.986-4.12 3.046-6.384zm-5.035 10.431l.639-1.289c4.437.849 14.265 2.364 20.748.648.367-.097.728-.19 1.084-.282.439 1.832 1.401 4.132 2.404 6.246l-12.777-.589c-.175-.096-.35-.189-.521-.282-2.395-1.275-5.287-2.383-8.598-3.293a56.784 56.784 0 0 0-2.998-.758l.019-.401zm-10.911 19.101l21.446 13.863a1.47 1.47 0 0 0 1.186.185c.403-.109.742-.384.932-.758l4.188-8.262a1.475 1.475 0 1 0-2.631-1.334l-3.448 6.8-20.133-13.014c1.057-1.736 2.014-3.317 2.839-4.687l18.496 11.231a1.47 1.47 0 0 0 2.026-.495 1.476 1.476 0 0 0-.494-2.028L42.486 91.907c.964-1.606 1.569-2.625 1.701-2.846.032-.055.063-.11.093-.167.105-.203.712-1.373 1.652-3.231 1.036.197 5.357 1.081 9.519 2.869-.002.011-.002.021-.002.032l-.246 5.529c-.027.63.348 1.208.934 1.438 2.045.805 11.796 4.526 16.299 4.098l6.521 4.545a188.906 188.906 0 0 0 3.696 8.533 165.27 165.27 0 0 0 5.001 9.931L71.064 142.9l-8.872-8.397a1.878 1.878 0 0 0-1.194-.507l-.207-.222a1.912 1.912 0 0 0-.078-.078c-.21-.194-4.379-4.022-9.092-6.533.893-1.135 1.342-2.273 1.338-3.396-.006-1.857-1.207-3.033-1.785-3.598-.061-.059-.113-.109-.152-.152-.671-.736-1.796-1.186-2.937-1.174-.927.009-2.296.326-3.552 1.768-.924 1.06-1.238 2.402-.885 3.783.469 1.829 2.046 3.48 4.02 4.206 4.993 1.837 10.494 6.769 11.004 7.23l.354.38c.068.388.251.759.559 1.05l.306.291-6.552 6.983-11.631-12.255-1.117-21.055c-.001-.019-.007-.036-.009-.055a1.01 1.01 0 0 0-.123-.393.666.666 0 0 0-.052-.085c-.02-.028-.039-.055-.061-.081a.932.932 0 0 0-.322-.259c-.016-.009-.029-.02-.047-.028l-6.805-3.126c1.195-1.935 2.341-3.801 3.413-5.554zm13.422 22.133c.002.577-.406 1.302-1.181 2.105l-.14-.052c-1.039-.382-1.956-1.294-2.18-2.168-.146-.572.072-.908.25-1.112.396-.456.815-.708 1.245-.749l.062-.005c.43-.021.731.168.775.209.07.077.162.168.269.272.475.463.898.926.9 1.5zM32.051 109l6.466 2.971.953 17.95-1.408-1.485c-.024-.026-.053-.048-.077-.073a1.051 1.051 0 0 0-.122-1.449l-10.99-9.674a977.872 977.872 0 0 0 5.178-8.24zm-15.414 23.719c2.748-3.918 5.908-8.716 9.088-13.682l9.512 8.373a3.368 3.368 0 0 0-1.969.926l-8.702 8.429a101.134 101.134 0 0 0-7.929-4.046zm13.8 7.751l5.077-4.918 9.309 9.808-4.45 3.901c-.981-.995-1.937-1.963-2.858-2.893-2.099-2.118-4.487-4.078-7.078-5.898zm6.335 14.75l1.09 1.107a87.453 87.453 0 0 1-3.783 3.552c-.853.748-1.71 1.642-2.562 2.646l-1.784-1.135 7.039-6.17zm-4.238 11.445c1.579.998 3.132 1.974 4.119 2.582 1.608.988 2.981.922 3.849.692 1.48-.393 2.449-1.466 2.919-2.115l4.228-1.616.426.425-10.645 14.181-10.454-5.221-.017-.007c1.751-3.212 3.66-6.346 5.575-8.921zm-14.913 31.754c.054-.124.095-.254.117-.39.005-.03.535-3.027 3.265-9.857 1.199-3.001 2.948-6.856 4.97-10.732.021.013.04.028.062.039l10.109 5.049-.874 1.165a1.897 1.897 0 0 0 .451 2.706l2.449 1.669c-.205.214-.322.51-.288.83l1.355 12.878-21.616-3.357zm27.58 4.285l-3.809-.592-1.344-12.763 7.078 4.823-1.925 8.532zm-5.703-18.322l11.294-15.048a606.756 606.756 0 0 0 5.116 5.007l-5.966 7.826a1.053 1.053 0 0 0 .158 1.444l2.297 1.941-1.981 2.827-.035.048-1.598 2.281-9.285-6.326zm29.264 21.983l-19.804-3.078 2.07-9.173 1.408-2.008 19.203 12.891-2.877 1.368zm6.863-3.264l-21.009-14.104 2.707-3.862 3.064 2.346a1.897 1.897 0 1 0 2.306-3.014l-4.636-3.548a1.895 1.895 0 0 0-2.707.417l-1.74 2.482-1.386-1.171 5.21-6.834c10.135 9.719 18.909 17.252 25.452 20.67l.006.003c1.148.692 2.329 1.132 3.501 1.493l-10.768 5.122zm-5.322 26.147l13.97-4.166c-.944 4.27-2.601 9.075-5.363 14.227-.203.377-.413.749-.633 1.113l-7.974-11.174zm5.452 20.12a32.896 32.896 0 0 0 3.973-4.338c.08-.089.151-.185.213-.284a29.468 29.468 0 0 0 2.312-3.642c10.538-19.65 6.414-34.761 4.764-39.216l4.533-2.156c1.184.671 2.111 1.67 2.833 3.489 2.724 6.852 8.769 32.299 10.397 47.293l.002.024-4.787.104-5.284-44.771c-.123-1.041-1.078-1.793-2.106-1.662a1.896 1.896 0 0 0-1.662 2.106l5.242 44.409-20.535.446c-.038-.675-.006-1.275.105-1.802zm27.678 26.243l-.499-.082-2.491-21.104 5.281-.115a13.985 13.985 0 0 0 2.326 3.853c-2.07.874-3.673 2.294-3.872 4.614-.24 1.852-.857 7.23-.745 12.834zM46.46 262.029a89.684 89.684 0 0 0 4.521-.891c8.409-1.888 15.468-4.837 20.979-8.725.033.267.072.539.118.817.01.139.033.273.07.402.561 3.04 1.858 6.758 3.647 11.444l-29.611 2.927.276-5.974zm30.751 6.72c2.356 6.38 2.151 11.17 1.828 13.433a37.325 37.325 0 0 0-6.177.068 30.783 30.783 0 0 0-3.646.572l-1.029-13.181 9.024-.892zm-31.882 17.827l.681-14.742 1.758-.175.226 15.041-2.665-.124zm6.462.298l-.234-15.589 12.854-1.271 1.086 13.902a24.114 24.114 0 0 0-6.073 3.31l-7.633-.352zm38.223 8.817c-5.489 1.694-11.166 3.446-16.21 4.252-6.529 1.045-12.125-.523-17.949-2.33.394-.992 1.805-4.059 5.121-6.812.175-.1.332-.226.467-.375 1.67-1.301 3.784-2.503 6.438-3.345.123-.024.241-.062.353-.109 3.215-.962 7.198-1.398 12.114-.867a1.901 1.901 0 0 0 2.006-1.293c.092-.28 2.108-6.646-1.252-16.449l.553-.055a1.898 1.898 0 0 0-.371-3.777l-.002.001-1.567.154c-1.502-3.903-2.679-7.135-3.375-9.738l20.293-.441 2.701 22.885a1.895 1.895 0 0 0 1.578 1.65l2.73.445c.365 3.967 1.236 7.659 3.026 9.856.528.648 1.048 1.24 1.558 1.791-5.743.71-12.023 2.647-18.212 4.557zm10.64-94.962c-.534-1.344-1.166-2.463-1.861-3.407 8.236-2.277 18.655-7.423 30.639-13.989 1.602 2.697 2.888 5.565 3.464 8.421.423 2.098.992 5.938 1.599 10.833l-6.714 1.553-.617-5c-.128-1.04-1.081-1.767-2.115-1.651a1.898 1.898 0 0 0-1.651 2.115l.876 7.091a1.898 1.898 0 0 0 2.312 1.616l8.363-1.935a569.64 569.64 0 0 1 1.816 18.491c.818 9.991 1.105 16.899 1.117 21.482l-26.391 3.463c0-.009-.002-.019-.004-.029-.271-2.507-.67-5.337-1.159-8.346l21.53-2.287a1.898 1.898 0 0 0-.384-3.776l-.017.001-21.769 2.312c-2.523-14.179-6.617-30.875-9.034-36.958zm37.158 49.458c-.063 1.404-.164 2.389-.28 3.021-2.327.911-8.622 2.903-14.474 3.473a29.01 29.01 0 0 1-2.477.142 65.533 65.533 0 0 0-1.69-.051c-1.653-.131-2.485-.476-2.84-.676-1.345-.76-2.386-1.637-3.138-2.642l24.899-3.267zm-4.424 44.018c-1.117 1.315-2.272 2.675-3.288 4.018a55.655 55.655 0 0 0-1.477 2.054 170.496 170.496 0 0 1-2.144-2.931 15.442 15.442 0 0 0-2.497-2.748c3.997-1.545 8.329-2.804 10.58-2.517.169.021.356.042.559.061-.544.663-1.132 1.355-1.733 2.063zm5.841-8.609c-1.623-.023-2.935-.096-3.817-.208-5.489-.694-14.4 3.012-18.154 4.727-1.195-.793-3.168-2.342-5.359-5.031-1.985-2.435-2.114-12.516-1.111-20.786 1.254-.517 4.116-.829 7.803-.782.608.042 1.247.06 1.914.055a71.41 71.41 0 0 1 10.889 1.328c6.873 1.395 9.539 3.128 10.081 3.762.306 4.536.65 10.435-2.246 16.935zm3.251-26.312a6.65 6.65 0 0 0-.689 1.727 30.48 30.48 0 0 0-2.876-1.113c3.151-1.121 3.626-1.741 3.992-2.223 1.023-1.341 2.929-3.838.682-32.115-.317-3.991-.7-8.171-1.112-12.233 4.534-.305 12.781-1.111 16.578-3.077 1.747-.905 3.757-1.858 5.836-2.799l1.451 3.365c-2.301 1.13-4.757 2.405-6.915 3.677-5.717 3.366-10.239 4.02-10.279 4.025a1.897 1.897 0 0 0-1.643 2.025l2.55 33.463c-3.804 1.319-6.308 3.064-7.575 5.278zm31.285 20.644c-6.65 3.432-18.275 4.998-27.219 5.492 1.756-5.143 1.973-9.843 1.846-13.745 2.822 1.331 6.275 1.8 10.33 1.405 2.762-.271 5.804-.94 9.113-2.011 15.168-4.908 31.345-8.161 37.746-9.357.033.135.062.267.086.387.288 1.522 1.18 5.378 2.406 10.513-14.99 1.348-25.709 2.88-34.308 7.316zm38.53-19.086c-.205-1.079-.635-2.448-1.245-4.066a3.466 3.466 0 0 0-.079-.209c-1.027-2.688-2.542-6.049-4.37-9.924l27.716-6.518.622 12.704.36 17.526c-2.788.206-5.432.414-7.863.625-3.248.282-6.343.537-9.296.779l-3.271.271c-1.32-5.509-2.282-9.65-2.574-11.188z"/></g><g fill="none" stroke="#898989" stroke-width="2" stroke-linejoin="round"><path d="M173.474.333l-.181 1.99"/><path stroke-dasharray="3.9259,3.9259" d="M172.939 6.233l-2.965 31.268A652.512 652.512 0 0 1 168.8 48.42c-.122 1.021-.144 2.062-.249 3.109-1.223 12.062 5.528 31.102 5.528 31.102 1.321 4.179 2.635 7.944 3.634 11.003 1.902 10.282 2.786 10.066 5.598 16.25 0 0 10.965 18.1 13.184 28.149.161.73.302 1.396.425 1.995"/><path d="M197.295 141.953a53.16 53.16 0 0 1 .336 1.969"/></g><path fill="#FEF4F1" d="M148.394 72.368l-1.959-.09.067-1.469-1.467-.068-.069 1.469-1.958-.09-.067 1.468 1.958.09-.136 2.938 1.469.067.135-2.937 1.959.09zm82.593-61.872l-2.08-.096.072-1.559-1.558-.071-.072 1.558-2.079-.096-.072 1.559 2.079.096-.144 3.118 1.559.072.143-3.119 2.08.097zm-53.844 53.408c.036-.789.481-1.654.99-2.18-1.247.359-2.301 1.639-2.364 3.006a3.115 3.115 0 0 0 2.966 3.253c.929.042 1.662-.167 2.263-.786a2.578 2.578 0 0 1-.916.097c-1.718-.079-3.018-1.673-2.939-3.39zm4.155-1.189l1.023-.479-.242 1.103.772.826-1.125.111-.546.989-.454-1.036-1.108-.213.844-.751-.139-1.121zm-73.365-21.883l-.979-.007.001-.699c.002-.925-.667-1.676-2.342-1.68-1.676-.003-2.234.746-2.237 1.671l-.001.678-1.17-.008s-.51 2.483-.616 4.38c-.192 3.45 7.866 3.515 7.866.107 0-2.082-.522-4.442-.522-4.442zm-5-.033l.001-.681c.001-.616.562-1.116 1.678-1.113 1.117.001 1.785.504 1.784 1.121l-.001.696-3.462-.023z"/><path fill="#292726" d="M140.921 114.173a.574.574 0 0 1-.23.776l-2.235 1.213a.573.573 0 0 1-.776-.23l-5.319-9.799a.572.572 0 0 1 .23-.776l2.234-1.213a.572.572 0 0 1 .776.229l5.32 9.8zM91.509 17.949a.573.573 0 0 1 .389.71l-.715 2.441a.572.572 0 0 1-.71.389l-10.701-3.13a.572.572 0 0 1-.389-.71l.714-2.44a.574.574 0 0 1 .711-.39l10.701 3.13zm-7.214 133.968a.573.573 0 0 1 .81.002l1.793 1.804a.574.574 0 0 1-.002.81l-7.91 7.859a.575.575 0 0 1-.81-.002l-1.792-1.804a.574.574 0 0 1 .002-.811l7.909-7.858z"/><path fill="#F50057" d="M283.23 264.238h14.963v14.964H283.23zm0 17.146h14.963v14.807H283.23z"/><text transform="translate(287.453 275.916)" fill="#FFF" font-family="'SourceSansPro-Regular'" font-size="12.589">+</text><text transform="translate(289.05 291.852)" fill="#FFF" font-family="'SourceSansPro-Regular'" font-size="12.041">-</text><path fill="#FFF" d="M10.733 281.977h96v15h-96z"/><text transform="translate(26.753 291.8)" fill="gray" font-family="'SourceSansPro-Regular'" font-size="6.459">Search as I move the map</text><path fill="none" stroke="#F50057" stroke-miterlimit="10" d="M15.79 289.535l2.925 2.524 5.065-6.164"/><path fill="#FFF" d="M240.608 9.986h58v9h-58z"/><path fill="#666" d="M290.514 14.483l1.344-1.927 1.344 1.927zm2.688.54l-1.344 1.928-1.344-1.928z"/><text transform="translate(245.65 16.012)" fill="#666" font-family="'SourceSansPro-Regular'" font-size="4.974">Blue Water</text></svg>