<svg xmlns="http://www.w3.org/2000/svg" width="309.108" height="129.033" viewBox="0 0 309.108 129.033"><path fill="#FFF" d="M1.166 0h306.739v40.506H1.166zm0 44.328h306.739v84.705H1.166z"/><path fill="#FFF" d="M1.166 45.092h306.739v39.743H1.166z"/><text transform="translate(22.566 115.533)" fill="#5B5B5B" font-family="'SourceSansPro-Regular'" font-size="21.4">Microsoft</text><text transform="translate(22.566 72.992)" fill="#5B5B5B" font-family="'SourceSansPro-Regular'" font-size="21.583">Micro Beer</text><text transform="translate(22.566 29.419)" fill="#333" font-family="'SourceSansPro-Semibold'" font-size="21.4">micro|</text><path fill="#5B5B5B" d="M285.424 26.385c-4.604 0-8.35-3.498-8.35-7.798 0-4.294 3.745-7.79 8.35-7.79 4.602 0 8.352 3.496 8.352 7.79 0 4.3-3.75 7.798-8.352 7.798zm0-13.395c-3.305 0-5.997 2.512-5.997 5.597 0 3.089 2.692 5.603 5.997 5.603 3.307 0 6-2.514 6-5.603 0-3.085-2.693-5.597-6-5.597z"/><path fill="#5B5B5B" d="M298.693 32.072c-.304 0-.604-.107-.833-.32l-7.775-7.262a1.048 1.048 0 0 1 0-1.553 1.237 1.237 0 0 1 1.664 0l7.774 7.262a1.051 1.051 0 0 1 0 1.553c-.231.213-.53.32-.83.32z"/></svg>