<?xml version="1.0" encoding="utf-8"?>
<!-- Generator: Adobe Illustrator 16.0.0, SVG Export Plug-In . SVG Version: 6.00 Build 0)  -->
<!DOCTYPE svg PUBLIC "-//W3C//DTD SVG 1.1//EN" "http://www.w3.org/Graphics/SVG/1.1/DTD/svg11.dtd">
<svg version="1.1" id="Layer_1" xmlns="http://www.w3.org/2000/svg" xmlns:xlink="http://www.w3.org/1999/xlink" x="0px" y="0px"
	 width="401.98px" height="600px" viewBox="0 0 401.98 600" enable-background="new 0 0 401.98 600" xml:space="preserve">
<path fill="#FFFFFF" enable-background="new    " d="M283.561,130.689c0.822-7.395-7.344-14.857-24.437-20.387
	c-31.539-10.21-81.997-10.21-113.532,0c-17.096,5.533-25.266,12.993-24.439,20.387l0.271,10.722
	c-2.167,7.598,5.251,15.464,22.647,21.402c31.992,10.92,84.58,10.92,116.57,0c17.395-5.929,24.815-13.799,22.651-21.402
	L283.561,130.689z"/>
<path fill="#FFFFFF" enable-background="new    " d="M129.895,259.647L14.686,460.553c0,0-9.41,13.582-5.151,32.539
	C20.7,542.744,92.762,594.652,201.962,594.652c0.088,0,0.435,0,0.522,0c109.207,0,181.266-51.908,192.43-101.562
	c4.26-18.957-5.155-32.539-5.155-32.539L274.557,259.647V156.34c0,0-4.996,3.456-15.531,6.964
	c-6.678,2.223-15.575,4.427-26.674,5.902c-8.248,1.095-17.715,1.789-28.393,1.789c-54.562,0-74.064-14.808-74.064-14.808V259.647
	L129.895,259.647z"/>
<path fill="#3C1EF9" d="M186.248,53.779c0,8.032-6.515,14.544-14.55,14.544c-8.031,0-14.541-6.512-14.541-14.544
	c0-8.034,6.509-14.545,14.541-14.545C179.733,39.234,186.248,45.745,186.248,53.779z"/>
<path fill="#AAD7FF" d="M239.043,74.122c0,6.327-5.127,11.452-11.453,11.452c-6.32,0-11.449-5.125-11.449-11.452
	c0-6.324,5.129-11.449,11.449-11.449C233.917,62.673,239.043,67.798,239.043,74.122z"/>
<path fill="#9000EF" d="M221.171,12.035c0,5.777-4.687,10.457-10.46,10.457c-5.775,0-10.453-4.68-10.453-10.457
	c0-5.774,4.678-10.453,10.453-10.453S221.171,6.26,221.171,12.035z"/>
<linearGradient id="SVGID_1_" gradientUnits="userSpaceOnUse" x1="208.3574" y1="333.0723" x2="208.3574" y2="401.4307" gradientTransform="matrix(1 0 0 -1 -6 505)">
	<stop  offset="0" style="stop-color:#00F0ED"/>
	<stop  offset="0.0085" style="stop-color:#01EFED"/>
	<stop  offset="0.662" style="stop-color:#2EC8E3"/>
	<stop  offset="0.9903" style="stop-color:#40B9DF"/>
</linearGradient>
<path opacity="0.3" fill="url(#SVGID_1_)" enable-background="new    " d="M283.561,131.613c0.822-7.395-7.344-14.857-24.437-20.387
	c-31.539-10.21-81.997-10.21-113.532,0c-17.096,5.533-25.266,12.993-24.439,20.387l0.27,10.722
	c-2.167,7.598,5.251,15.464,22.647,21.402c31.993,10.92,84.581,10.92,116.571,0c17.395-5.929,24.815-13.799,22.651-21.402
	L283.561,131.613z"/>
<g opacity="0.2">
	
		<linearGradient id="SVGID_2_" gradientUnits="userSpaceOnUse" x1="126.6084" y1="374.4033" x2="289.3115" y2="374.4033" gradientTransform="matrix(1 0 0 -1 -6 505)">
		<stop  offset="0" style="stop-color:#00F0ED"/>
		<stop  offset="0.0085" style="stop-color:#01EFED"/>
		<stop  offset="0.662" style="stop-color:#2EC8E3"/>
		<stop  offset="0.9903" style="stop-color:#40B9DF"/>
	</linearGradient>
	<path fill="url(#SVGID_2_)" d="M201.96,114.29c20.263,0,39.248,2.532,53.463,7.133c11.505,3.727,15.947,7.606,17.001,9.178
		c-1.006,1.48-5.127,5.107-15.642,8.69c-14.179,4.843-34.164,7.618-54.823,7.618c-20.663,0-40.645-2.775-54.825-7.618
		c-10.512-3.583-14.63-7.209-15.64-8.694c1.054-1.569,5.502-5.447,17.001-9.174C162.71,116.822,181.696,114.29,201.96,114.29
		 M201.96,103.565c-20.499,0-40.996,2.558-56.764,7.661c-31.981,10.351-33.052,27.453-1.523,38.213
		c15.999,5.458,37.144,8.19,58.288,8.19c21.148,0,42.289-2.732,58.283-8.19c31.525-10.747,30.467-27.862-1.518-38.213
		C242.958,106.123,222.459,103.565,201.96,103.565L201.96,103.565z"/>
</g>
<linearGradient id="SVGID_3_" gradientUnits="userSpaceOnUse" x1="208.2246" y1="-90.5757" x2="208.2246" y2="786.354" gradientTransform="matrix(1 0 0 -1 -6 505)">
	<stop  offset="0" style="stop-color:#00F0ED"/>
	<stop  offset="0.0085" style="stop-color:#01EFED"/>
	<stop  offset="0.662" style="stop-color:#2EC8E3"/>
	<stop  offset="0.9903" style="stop-color:#40B9DF"/>
</linearGradient>
<path opacity="0.3" fill="url(#SVGID_3_)" enable-background="new    " d="M129.895,260.571L14.686,461.477
	c0,0-9.41,13.582-5.152,32.539C20.7,543.668,92.761,595.576,201.962,595.576c0.088,0,0.435,0,0.522,0
	c109.207,0,181.266-51.908,192.43-101.562c4.26-18.957-5.155-32.539-5.155-32.539L274.557,260.571V157.264
	c0,0-4.996,3.456-15.531,6.964c-6.678,2.223-15.575,4.427-26.674,5.902c-8.248,1.095-17.715,1.789-28.393,1.789
	c-54.563,0-74.064-14.808-74.064-14.808V260.571L129.895,260.571z"/>
<linearGradient id="SVGID_4_" gradientUnits="userSpaceOnUse" x1="208.2246" y1="-63.9536" x2="208.2246" y2="395.2144" gradientTransform="matrix(1 0 0 -1 -6 505)">
	<stop  offset="0" style="stop-color:#9000EF"/>
	<stop  offset="1" style="stop-color:#3C1EF9"/>
</linearGradient>
<path fill="url(#SVGID_4_)" d="M354.503,460.065l-52.946-105.958c0,0-10.328,26.478-50.521,27.465
	c-29.94,0.734-48.953-19.358-77.085-33.271c-30.639-15.154-61.604-9.553-71.058,5.809l-52.95,105.956c0,0-7.644,11.027-4.185,26.421
	c9.071,40.319,67.582,82.468,156.256,82.468c0.068,0,0.141-0.004,0.215-0.004c0.069,0,0.139,0.004,0.207,0.004
	c88.678,0,147.188-42.147,156.254-82.468C362.151,471.094,354.503,460.065,354.503,460.065z"/>
<linearGradient id="SVGID_5_" gradientUnits="userSpaceOnUse" x1="3475.8916" y1="164.3149" x2="3743.1008" y2="-298.5049" gradientTransform="matrix(-1 0 0 -1 3754.332 505)">
	<stop  offset="0" style="stop-color:#9000EF"/>
	<stop  offset="1" style="stop-color:#3C1EF9"/>
</linearGradient>
<path fill="url(#SVGID_5_)" d="M50.079,460.065l52.944-105.958c0,0,37.644,35.955,91.743,35.955
	c98.83,0,106.923-35.955,106.923-35.955l52.949,105.958c0,0,7.644,11.027,4.187,26.421c-9.071,40.319-67.582,82.468-156.255,82.468
	c-0.07,0-0.144-0.004-0.215-0.004c-0.072,0-0.138,0.004-0.209,0.004c-88.675,0-147.187-42.147-156.252-82.468
	C42.432,471.094,50.079,460.065,50.079,460.065z"/>
<linearGradient id="SVGID_6_" gradientUnits="userSpaceOnUse" x1="157.2207" y1="99.7197" x2="144.3095" y2="77.357" gradientTransform="matrix(1 0 0 -1 -6 505)">
	<stop  offset="0" style="stop-color:#9CEBFF"/>
	<stop  offset="0.4994" style="stop-color:#B2F6FF"/>
	<stop  offset="0.9903" style="stop-color:#C4FFFF"/>
</linearGradient>
<path fill="url(#SVGID_6_)" d="M157.676,416.463c0,7.129-5.784,12.907-12.911,12.907s-12.911-5.778-12.911-12.907
	c0-7.13,5.784-12.912,12.911-12.912S157.676,409.333,157.676,416.463z"/>
<path fill="#FF145B" d="M249.812,310.751c0,4.487-3.646,8.126-8.127,8.126c-4.488,0-8.125-3.639-8.125-8.126
	c0-4.483,3.637-8.124,8.125-8.124C246.167,302.627,249.812,306.268,249.812,310.751z"/>
<path fill="#9000EF" d="M191.741,225.306c0,4.66-3.775,8.431-8.432,8.431c-4.654,0-8.431-3.771-8.431-8.431
	c0-4.657,3.777-8.431,8.431-8.431C187.965,216.875,191.741,220.648,191.741,225.306z"/>
</svg>
