<svg width="42" height="42" viewBox="0 0 42 42" xmlns="http://www.w3.org/2000/svg"><title>Slice Copy</title><g fill="none" fill-rule="evenodd"><path stroke-opacity=".012" stroke="#000" stroke-width="0" d="M2 3h35.34v35.34H2z"/><g stroke="#3EB0EF" stroke-linecap="round" stroke-linejoin="round"><path d="M36.696 19.202v12.475c0 1.956-.986 2.935-2.957 2.935H5.649c-1.972 0-2.957-.979-2.957-2.935V9.663c0-.81.288-1.502.866-2.075.577-.573 1.274-.86 2.09-.86h28.09c1.972 0 2.958.979 2.958 2.935M5.194 14.066h20.413"/><path d="M6.656 10.089c.334 0 .5.167.5.5 0 .333-.166.5-.5.5-.333 0-.5-.167-.5-.5 0-.138.05-.256.147-.354.097-.097.215-.146.353-.146M10.092 10.089c.333 0 .5.167.5.5 0 .333-.167.5-.5.5-.334 0-.5-.167-.5-.5 0-.138.048-.256.146-.354.098-.097.215-.146.354-.146M13.527 10.089c.333 0 .5.167.5.5 0 .333-.167.5-.5.5-.333 0-.5-.167-.5-.5 0-.138.049-.256.146-.354.098-.097.216-.146.354-.146M30.078 23.063l-5.174 1.467 1.478-5.136 8.844-8.779c1.232-1.184 2.454-1.174 3.667.03 1.212 1.203 1.222 2.416.03 3.639l-8.845 8.779zM34.119 11.716l3.696 3.669M26.382 19.394l3.696 3.669M7.127 19.936h6.653M7.127 24.339h11.088M7.127 28.741h23.655"/></g></g></svg>