<?xml version="1.0" encoding="UTF-8"?>
<svg width="16px" height="15px" viewBox="0 0 16 15" version="1.1" xmlns="http://www.w3.org/2000/svg" xmlns:xlink="http://www.w3.org/1999/xlink">
    <!-- Generator: sketchtool 53.2 (72643) - https://sketchapp.com -->
    <title>97C4D579-B3BD-45FB-A782-BC79C2F515E1</title>
    <desc>Created with sketchtool.</desc>
    <g id="Docs" stroke="none" stroke-width="1" fill="none" fill-rule="evenodd">
        <g id="Docs-Icon" transform="translate(-58.000000, -30.000000)">
            <g id="analytics" transform="translate(54.000000, 25.000000)">
                <path d="M1,0 L23,0 C23.5522847,-1.01453063e-16 24,0.44771525 24,1 L24,23 C24,23.5522847 23.5522847,24 23,24 L1,24 C0.44771525,24 6.76353751e-17,23.5522847 0,23 L0,1 C-6.76353751e-17,0.44771525 0.44771525,1.01453063e-16 1,0 Z" id="Rectangle-14"></path>
                <polygon id="Fill-1" fill="#54666D" points="5.33333333 7.39734732 5.3392931 19.2233209 6.22222222 19.2233209 6.21626245 7.39734732"></polygon>
                <polygon id="Fill-2" fill="#54666D" points="4 17.7392443 4 18.5223578 20 18.5168774 20 17.7339596"></polygon>
                <polygon id="Fill-3" fill="#54666D" points="8.88796229 12.8946651 7.55555556 12.8949937 7.55648216 17.5628126 8.88888889 17.562484"></polygon>
                <polygon id="Fill-4" fill="#54666D" points="11.4659245 10.2810624 10.1333333 10.2816312 10.1340755 17.6167227 11.4666667 17.6161539"></polygon>
                <polygon id="Fill-5" fill="#54666D" points="13.7773875 11.9029102 12.4444444 11.9038254 12.4449323 17.571375 13.7777778 17.5704598"></polygon>
                <polygon id="Fill-5" fill="#54666D" points="16.0884986 9.47013849 14.7555556 9.47145742 14.7560434 17.6393966 16.0888889 17.6380776"></polygon>
                <polygon id="Fill-5" fill="#54666D" points="18.7551653 13.709572 17.4222222 13.7102065 17.4227101 17.6393966 18.7555556 17.6387621"></polygon>
                <polyline id="Path-3" stroke="#54666D" stroke-width="0.5" fill-rule="nonzero" transform="translate(12.337502, 8.224026) rotate(-3.000000) translate(-12.337502, -8.224026) " points="6.59138862 10.646932 10.6574412 7.0478723 14.606931 8.01294262 18.0836144 5.80112079"></polyline>
                <ellipse id="Oval" fill="#54666D" fill-rule="nonzero" transform="translate(6.988862, 10.726050) rotate(-3.000000) translate(-6.988862, -10.726050) " cx="6.988862" cy="10.7260501" rx="1" ry="1"></ellipse>
                <ellipse id="Oval-Copy-5" fill="#54666D" fill-rule="nonzero" transform="translate(10.847949, 7.189721) rotate(-3.000000) translate(-10.847949, -7.189721) " cx="10.847949" cy="7.18972059" rx="1" ry="1"></ellipse>
                <ellipse id="Oval-Copy-6" fill="#54666D" fill-rule="nonzero" transform="translate(14.769119, 7.828390) rotate(-3.000000) translate(-14.769119, -7.828390) " cx="14.7691193" cy="7.82838952" rx="1" ry="1"></ellipse>
                <ellipse id="Oval-Copy-7" fill="#54666D" fill-rule="nonzero" transform="translate(18.005221, 5.733545) rotate(-3.000000) translate(-18.005221, -5.733545) " cx="18.0052208" cy="5.73354488" rx="1" ry="1"></ellipse>
            </g>
        </g>
    </g>
</svg>
