<svg width="42" height="42" viewBox="0 0 42 42" xmlns="http://www.w3.org/2000/svg"><title>Slice Copy 4</title><g fill="none" fill-rule="evenodd"><path d="M27.53 30.882v5.806c0 1.248-1.01 2.259-2.258 2.259-1.247 0-2.258-1.011-2.258-2.259v-5.806h-5.672v5.806c0 1.248-1.012 2.259-2.259 2.259-1.247 0-2.258-1.011-2.258-2.259v-5.806h-.111c-1.551 0-2.8-1.271-2.8-2.85V13.353c0-.087.006-.174.013-.26h20.504c.008.086.01.173.01.26v14.679c0 1.578-1.249 2.85-2.8 2.85h-.11zM5.78 14.4c1.247 0 1.763 1.011 1.763 2.258v9.689c0 1.247-.516 2.258-1.763 2.258-1.247 0-1.754-1.011-1.754-2.258v-9.689c0-1.247.507-2.258 1.754-2.258zM34.57 14.4c1.247 0 1.76 1.011 1.76 2.258v9.689c0 1.247-.513 2.258-1.76 2.258-1.247 0-1.758-1.011-1.758-2.258v-9.689c0-1.247.51-2.258 1.758-2.258z" stroke="#A5C639"/><path d="M9.993 13.13c.063-4.51 3.998-8.206 9.05-8.693h2.27c5.051.487 8.986 4.184 9.049 8.692H9.993z" stroke="#A5C639"/><path d="M10.779 2.001l2.382 4.127M29.577 2l-2.383 4.127" stroke="#A4C639" stroke-linecap="round" stroke-linejoin="round"/><path d="M17.144 9.089c.002.63-.52 1.142-1.166 1.144-.645.002-1.17-.508-1.171-1.138v-.006c-.002-.63.52-1.143 1.165-1.145.645-.001 1.17.508 1.172 1.138v.007zm8.721 0c.002.63-.52 1.142-1.165 1.144-.645.002-1.17-.508-1.171-1.138v-.006c-.002-.63.52-1.143 1.165-1.145.645-.001 1.17.508 1.171 1.138v.007z" stroke="#A5C639" fill-rule="nonzero"/></g></svg>