<?xml version="1.0" encoding="UTF-8"?>
<svg width="14px" height="14px" viewBox="0 0 14 14" version="1.1" xmlns="http://www.w3.org/2000/svg" xmlns:xlink="http://www.w3.org/1999/xlink">
    <!-- Generator: sketchtool 53.2 (72643) - https://sketchapp.com -->
    <title>DA4A651E-9D7F-4ED1-976B-329377288E42</title>
    <desc>Created with sketchtool.</desc>
    <g id="Docs" stroke="none" stroke-width="1" fill="none" fill-rule="evenodd">
        <g id="Docs-Icon" transform="translate(-143.000000, -30.000000)">
            <g id="buildingUI" transform="translate(138.000000, 25.000000)">
                <path d="M1,0 L23,0 C23.5522847,-1.01453063e-16 24,0.44771525 24,1 L24,23 C24,23.5522847 23.5522847,24 23,24 L1,24 C0.44771525,24 6.76353751e-17,23.5522847 0,23 L0,1 C-6.76353751e-17,0.44771525 0.44771525,1.01453063e-16 1,0 Z" id="Rectangle-14"></path>
                <polygon id="Fill-26" fill="#54666D" points="8.04347826 12.2625 19 12.2625 19 11.65 8.04347826 11.65"></polygon>
                <polygon id="Fill-27" fill="#54666D" points="8.04347826 13.4875 19 13.4875 19 12.875 8.04347826 12.875"></polygon>
                <polygon id="Fill-28" fill="#54666D" points="8.04347826 11.0375 12.9130435 11.0375 12.9130435 10.425 8.04347826 10.425"></polygon>
                <polygon id="Fill-29" fill="#54666D" points="5.60869565 13.425 7.43478261 13.425 7.43478261 10.425 5.60869565 10.425"></polygon>
                <polygon id="Fill-26" fill="#54666D" points="8.04347826 7.2625 19 7.2625 19 6.65 8.04347826 6.65"></polygon>
                <polygon id="Fill-27" fill="#54666D" points="8.04347826 8.4875 19 8.4875 19 7.875 8.04347826 7.875"></polygon>
                <polygon id="Fill-28" fill="#54666D" points="8.04347826 6.0375 12.9130435 6.0375 12.9130435 5.425 8.04347826 5.425"></polygon>
                <polygon id="Fill-29" fill="#54666D" points="5.60869565 8.425 7.43478261 8.425 7.43478261 5.425 5.60869565 5.425"></polygon>
                <polygon id="Fill-26" fill="#54666D" points="8.04347826 17.1625 19 17.1625 19 16.55 8.04347826 16.55"></polygon>
                <polygon id="Fill-27" fill="#54666D" points="8.04347826 18.3875 19 18.3875 19 17.775 8.04347826 17.775"></polygon>
                <polygon id="Fill-28" fill="#54666D" points="8.04347826 15.9375 12.9130435 15.9375 12.9130435 15.325 8.04347826 15.325"></polygon>
                <polygon id="Fill-29" fill="#54666D" points="5.60869565 18.325 7.43478261 18.325 7.43478261 15.325 5.60869565 15.325"></polygon>
            </g>
        </g>
    </g>
</svg>