<svg width="28" height="28" viewBox="0 0 28 28" xmlns="http://www.w3.org/2000/svg">
    <g fill="none" fill-rule="evenodd">
        <path stroke-opacity=".012" stroke="#000" stroke-width="0" d="M0 0h28v28H0z"/>
        <g stroke="#738A94" stroke-linecap="round" stroke-linejoin="round">
            <path d="M1.167.583v5.834c0 1.555.777 2.333 2.333 2.333h2.333c1.556 0 2.334-.778 2.334-2.333V.583"/>
            <path d="M1.167 4.667v21c0 1.283 1.05 1.75 2.333 1.75h2.333c1.284 0 2.334-.467 2.334-1.75v-21M10.5.583v5.834c0 1.555.778 2.333 2.333 2.333h2.334c1.555 0 2.333-.778 2.333-2.333V.583"/>
            <path d="M10.5 4.667v21c0 1.283 1.05 1.75 2.333 1.75h2.334c1.283 0 2.333-.467 2.333-1.75v-21M19.833.583v5.834c0 1.555.778 2.333 2.334 2.333H24.5c1.556 0 2.333-.778 2.333-2.333V.583"/>
            <path d="M19.833 4.667v21c0 1.283 1.05 1.75 2.334 1.75H24.5c1.283 0 2.333-.467 2.333-1.75v-21M8.167 22.75h-7M8.167 20.417h-7M17.5 22.75h-7M17.5 20.417h-7M26.833 22.75h-7M26.833 20.417h-7M8.167 15.75h-7M8.167 13.417h-7M17.5 15.75h-7M17.5 13.417h-7M26.833 15.75h-7M26.833 13.417h-7M3.5 6.417V1.75M5.833 6.417V1.75M12.833 6.417V1.75M15.167 6.417V1.75M22.167 6.417V1.75M24.5 6.417V1.75"/>
        </g>
    </g>
</svg>
