<svg xmlns="http://www.w3.org/2000/svg" width="24" height="24" viewBox="0 0 24 24">
<path d="M18.628 4.006C17.337 1.562 14.769 0 12 0 8.223 0 5.059 2.819 4.573 6.512 2.124 6.321 0 8.297 0 10.75c0 2.177 1.19 3.219 2.188 3.709 1.049.515 2.101.541 2.301.541l14.575-.004C19.114 14.989 24 14.298 24 9.5c0-2.99-2.399-5.431-5.372-5.494zM19 14H4.494l-.005.5V14C4.132 14 1 13.909 1 10.75c0-1.792 1.455-3.251 3.244-3.251.225 0 .451.024.675.07.142.03.29-.004.406-.092.115-.088.187-.222.196-.368C5.723 3.684 8.569 1 12 1c2.493 0 4.797 1.461 5.868 3.723.086.18.226.301.471.285l.171-.003C20.985 5.005 23 7.022 23 9.5c0 3.912-3.899 4.482-4 4.5zm0 3H5c-1.654 0-3 1.346-3 3s1.346 3 3 3h14c1.654 0 3-1.346 3-3s-1.346-3-3-3zm-5.199 1h1.586l-4 4H9.801l4-4zm-5.414 4H6.801l4-4h1.586l-4 4zM5 18h1.387l-3.07 3.07C3.118 20.76 3 20.395 3 20c0-1.103.898-2 2-2zm-.949 3.75L7.801 18h1.586l-4 4H5c-.345 0-.665-.096-.949-.25zM19 22h-6.199l4-4H19c1.103 0 2 .897 2 2s-.897 2-2 2z"
/></svg>