<svg width="36" height="36" viewBox="0 0 36 36" xmlns="http://www.w3.org/2000/svg"><g fill-rule="nonzero" stroke="#3EB0EF" fill="none"><path d="M27.72 11.98l-.053.065c-.54.607-.834 1.808-.749 2.838.082.736.327 1.429.695 1.944l.34.476-.523.262c-.155.077-.286.137-.587.271-.287.128-.41.184-.612.28-.784.26-1.598.374-2.512.374H1.562l-.012.075c-.168 1.59.09 3.243.721 4.669l.415.726v.08c1.905 3.075 5.304 4.696 9.438 4.696 8.015 0 14.036-3.573 16.887-10.415l.135-.323.349.015c2.16.094 3.74-.557 4.518-2.111l.005-.007-.012-.008c-.95-.584-2.354-.716-3.62-.378l-.554.147-.07-.568c-.144-1.148-.84-2.182-1.996-3.072l-.046-.037z"/><path d="M18.511 14.13h-2.4v2.4h2.4v-2.4zM18.511 9.859h-2.4v2.4h2.4v-2.4zM18.511 5.5h-2.4v2.4h2.4V5.5zM22.696 14.13h-2.4v2.4h2.4v-2.4zM10.055 14.13h-2.4v2.4h2.4v-2.4zM14.327 14.13h-2.4v2.4h2.4v-2.4zM5.87 14.13h-2.4v2.4h2.4v-2.4zM14.327 9.859h-2.4v2.4h2.4v-2.4zM10.055 9.859h-2.4v2.4h2.4v-2.4z"/></g></svg>