<?xml version="1.0" encoding="UTF-8"?>
<svg width="14px" height="14px" viewBox="0 0 14 14" version="1.1" xmlns="http://www.w3.org/2000/svg" xmlns:xlink="http://www.w3.org/1999/xlink">
    <!-- Generator: sketchtool 53.2 (72643) - https://sketchapp.com -->
    <title>AB4E2864-5749-4624-99A7-AA8887F3CDB3</title>
    <desc>Created with sketchtool.</desc>
    <g id="Docs" stroke="none" stroke-width="1" fill="none" fill-rule="evenodd">
        <g id="Docs-Icon" transform="translate(-227.000000, -30.000000)" fill="#151617" fill-rule="nonzero">
            <g id="gettingStarted" transform="translate(222.000000, 25.000000)">
                <path d="M15.6193461,11.9600073 C15.594019,12.5182556 15.1827255,12.9818101 14.77737,12.9009108 C14.7754311,12.9009108 14.773371,12.9009108 14.7713109,12.9009108 C14.3223295,12.9016293 13.9579337,12.4705494 13.9574489,11.9381659 C13.972718,11.4043453 14.3460813,10.9836115 14.7963956,10.9926642 C15.2453768,10.9952506 15.6435827,11.4451543 15.6193461,11.9600073 Z" id="Path"></path>
                <path d="M8.39965466,17.369628 C8.56894665,17.3755194 8.73835982,17.3712086 8.93358488,17.3712086 L8.93358488,18.8259593 C7.72018422,19.069232 6.72067072,18.660712 6.47539728,17.4444921 C6.39141779,16.9973187 6.33979403,16.5423857 6.32088956,16.0847227 C6.29483531,15.600189 6.33991522,15.1101949 6.30877131,14.6265234 C6.22248935,13.2956363 6.07707031,12.8412781 5,12.7783404 L5,11.1219881 C5.07719327,11.1005778 5.15547718,11.0847715 5.23424583,11.074282 C5.82476829,11.0397955 6.07367721,10.8251178 6.20576616,10.1353901 C6.26587269,9.74784926 6.30150036,9.3555666 6.31204323,8.96170338 C6.3588197,8.20012903 6.34221769,7.42619705 6.44922185,6.67698032 C6.60385077,5.59353303 7.17110618,5.06718457 8.10808949,5.00827032 C8.37469106,4.99131452 8.64214089,5.00568384 8.94424894,5.00568384 L8.94424894,6.49262185 C8.81991567,6.50311145 8.70600409,6.52452176 8.59281961,6.52049834 C7.82924849,6.49276554 7.78974299,6.80113131 7.73399903,7.55063543 C7.69921964,8.02065613 7.74720792,8.49872366 7.72018422,8.97032499 C7.69194869,9.4396272 7.63899192,9.90648662 7.56167747,10.3680295 C7.45152255,11.0369217 7.10469816,11.5343878 6.62408825,11.9565587 C7.55707253,12.6764619 7.66322843,13.795114 7.72381969,14.9310094 C7.75641779,15.5414184 7.74151234,16.1561383 7.79374202,16.7635297 C7.83445934,17.2349874 7.98908825,17.3552586 8.39965466,17.369628 Z" id="Path"></path>
                <path d="M9.18600808,10.9926642 C9.19085538,10.9926642 9.1955815,10.9926642 9.2004288,10.9926642 C9.64650172,11.0014295 10.0022936,11.4372511 9.99490143,11.9663297 C9.99490143,11.9837166 9.99441669,12.0009599 9.99356849,12.018203 C9.96848365,12.5352114 9.59475676,12.9300806 9.15874201,12.900336 C9.14117055,12.9007671 9.12372026,12.900336 9.1061488,12.8993302 C8.66213601,12.8731781 8.32003773,12.4251424 8.34209296,11.8986503 C8.36414818,11.3721581 8.7419953,10.966512 9.18600808,10.9926642 Z" id="Path"></path>
                <path d="M11.9658141,10.9926642 C12.4536949,10.9882096 12.777737,11.3631054 12.7802819,11.9350046 C12.7829479,12.522279 12.4757502,12.898037 11.9910201,12.9004797 C11.4980495,12.9030663 11.1735227,12.5333434 11.1708567,11.9648928 C11.1694025,11.9358668 11.169039,11.9068408 11.169766,11.8778147 C11.1834597,11.3727328 11.5398575,10.9764267 11.9658141,10.9926642 Z" id="Path"></path>
                <path d="M17.7859685,10.2681627 C17.915755,10.8429357 18.1684206,11.0449684 18.6787203,11.0725576 C18.7623363,11.0771558 18.8455886,11.0939679 18.9602273,11.1090557 L18.9602273,12.764977 C18.8981819,12.7891175 18.834561,12.8072228 18.7699707,12.8190057 C18.0861377,12.869442 17.7744563,13.202092 17.7053822,14.0151084 C17.6612718,14.5341285 17.6649072,15.0588965 17.6346116,15.5797846 C17.6218875,16.1516837 17.5780194,16.7220024 17.5032497,17.2871481 C17.3287469,18.3111063 16.7896059,18.8219359 15.898793,18.8842988 C15.6120752,18.9044158 15.3232973,18.88746 15.0141606,18.88746 L15.0141606,17.4074193 C15.1805442,17.3952054 15.3274175,17.3783932 15.4746542,17.3742262 C16.0068879,17.3591383 16.1950844,17.1556687 16.2211386,16.5288786 C16.24998,15.8403005 16.262583,15.1508601 16.2885161,14.4621383 C16.3262039,13.4666312 16.5560871,12.5773136 17.3381991,11.9564149 C16.890672,11.5780705 16.5313658,11.1198327 16.4382977,10.5019516 C16.3257191,9.7530223 16.2893643,8.98756817 16.2287731,8.22814922 C16.198841,7.84851159 16.2002952,7.46556901 16.1690301,7.08621877 C16.1353414,6.67669293 15.898066,6.53501136 15.5837185,6.525815 C15.4036412,6.52064204 15.2228369,6.52480915 14.9925901,6.52480915 L14.9925901,5.07954219 C16.4618071,4.79028763 17.4767108,5.3699463 17.5709908,7.03678827 C17.6104963,7.73671822 17.6046795,8.4399531 17.6424885,9.13988309 C17.6590904,9.5206702 17.7070787,9.89858356 17.7859685,10.2681627 Z" id="Path"></path>
            </g>
        </g>
    </g>
</svg>