<svg width="42" height="42" viewBox="0 0 42 42" xmlns="http://www.w3.org/2000/svg"><title>Slice Copy 7</title><g fill="none" fill-rule="evenodd"><path stroke-opacity=".012" stroke="#000" stroke-width="0" d="M1 1h40v40H1z"/><g stroke="#738A94"><path d="M7 22.543v-5.814C7 9.7 13.266 4.005 20.995 4.005 28.733 4.007 35 9.707 35 16.738v5.805m0 5.766v5.634C35 36.704 32.91 38 30.333 38s-4.666-1.296-4.666-4.057C25.667 36.704 23.577 38 21 38s-4.667-1.296-4.667-4.057c0 2.761-2.089 4.057-4.666 4.057C9.089 38 7 36.704 7 33.943v-5.634" stroke-linecap="round" stroke-linejoin="round"/><path d="M21 19.902c.363-.583.788-1.129 1.307-1.568 1.067-.928 2.476-1.34 3.85-1.334 1.468-.007 2.892.566 4.1 1.412 1.466 1.006 2.656 2.366 3.977 3.555.638.547 1.393 1.11 2.263 1.032.575-.063 1.17-.374 1.456-.92.265-.52.19-1.118.021-1.674-.362-1.195-1.424-1.804-.897-1.993.929-.331 2.258.374 2.83 1.092.616.757 1.189 1.972 1.08 3.625-.068 1.029-.576 2.53-1.224 3.317-.758.924-1.876 1.443-3 1.68-2.007.428-4.102.07-5.994-.699-2.24-.925-4.327-2.234-6.636-2.984-.691-.283-1.425-.441-2.163-.515l-.12-.008c-.289-.002-.571-.01-.85-.013-.279.003-.561.01-.85.013l-.12.008c-.738.074-1.472.232-2.163.515-2.309.75-4.396 2.059-6.636 2.984-1.892.77-3.987 1.127-5.995.7-1.123-.238-2.24-.757-2.998-1.681-.65-.787-1.157-2.288-1.225-3.317-.109-1.653.464-2.868 1.08-3.625.572-.718 1.901-1.423 2.83-1.092.527.189-.535.798-.897 1.993-.169.556-.244 1.155.02 1.675.288.545.882.856 1.457.919.87.079 1.624-.485 2.263-1.032 1.321-1.189 2.51-2.549 3.976-3.555 1.209-.846 2.633-1.419 4.102-1.412 1.373-.006 2.781.406 3.849 1.334.52.44.944.985 1.307 1.568z" stroke-linecap="round" stroke-linejoin="round"/><path d="M19 14.5c0 .275-.222.5-.499.5-.276 0-.5-.222-.501-.497V14.5c0-.275.222-.5.499-.5.276 0 .5.222.501.497v.003zM24 14.5c0 .275-.222.5-.499.5-.276 0-.5-.222-.501-.497V14.5c0-.275.222-.5.499-.5.276 0 .5.222.501.497v.003z" stroke-width="1.2" fill-rule="nonzero"/></g></g></svg>