<svg width="42" height="42" viewBox="0 0 42 42" xmlns="http://www.w3.org/2000/svg"><g fill="none" fill-rule="evenodd"><path stroke-opacity=".012" stroke="#000" stroke-width="0" d="M2 2h38v38H2z"/><g stroke="#343F44" stroke-linecap="round" stroke-linejoin="round"><path d="M13.875 14.667l3.958 3.958-3.958 3.958M22.583 19.417h6.334"/><path d="M4.375 5.167h33.25c1.056 0 1.583.527 1.583 1.583v28.5c0 1.056-.527 1.583-1.583 1.583H4.375c-1.056 0-1.583-.527-1.583-1.583V6.75c0-1.056.527-1.583 1.583-1.583z"/><path d="M6.75 8.333h28.5c.528 0 .792.264.792.792v23.75c0 .528-.264.792-.792.792H6.75c-.528 0-.792-.264-.792-.792V9.125c0-.528.264-.792.792-.792z"/></g></g></svg>