<?xml version="1.0" encoding="UTF-8"?>
<svg width="21px" height="9px" viewBox="0 0 21 9" version="1.1" xmlns="http://www.w3.org/2000/svg" xmlns:xlink="http://www.w3.org/1999/xlink">
    <!-- Generator: sketchtool 53.2 (72643) - https://sketchapp.com -->
    <title>64A16711-F5EC-4C16-A27F-6282CCEC9D25</title>
    <desc>Created with sketchtool.</desc>
    <g id="Docs" stroke="none" stroke-width="1" fill="none" fill-rule="evenodd">
        <g id="Docs-Icon" transform="translate(-139.000000, -158.000000)">
            <g id="go-bw" transform="translate(138.000000, 151.000000)">
                <path d="M1,0 L23,0 C23.5522847,-1.01453063e-16 24,0.44771525 24,1 L24,23 C24,23.5522847 23.5522847,24 23,24 L1,24 C0.44771525,24 6.76353751e-17,23.5522847 0,23 L0,1 C-6.76353751e-17,0.44771525 0.44771525,1.01453063e-16 1,0 Z" id="Rectangle-14"></path>
                <path d="M2.97973957,10.1104896 C2.93913043,10.1104896 2.92897815,10.0895809 2.94928272,10.0582179 L3.16248069,9.7759505 C3.18278526,9.74458746 3.23354668,9.72367876 3.27415582,9.72367876 L6.8985213,9.72367876 C6.93913043,9.72367876 6.94928272,9.7550418 6.92897815,9.78640485 L6.75638932,10.0582179 C6.73608475,10.0895809 6.68532333,10.120944 6.65486648,10.120944 L2.97973957,10.1104896 L2.97973957,10.1104896 Z M1.97959539,11.1157168 C1.93913043,11.1157168 1.9290142,11.0948081 1.94924667,11.0634451 L2.16168769,10.7811777 C2.18192017,10.7498146 2.23250136,10.7289059 2.27296632,10.7289059 L6.88597128,10.7289059 C6.92643623,10.7289059 6.94666871,10.760269 6.93655247,10.791632 L6.85562256,11.0425364 C6.84550632,11.0843538 6.80504137,11.1052625 6.76457641,11.1052625 L1.97959539,11.1157168 L1.97959539,11.1157168 Z M3.97376247,12.1104896 C3.93913043,12.1104896 3.93047243,12.0791266 3.94778844,12.0477636 L4.06900056,11.7864048 C4.08631658,11.7550418 4.12094862,11.7236788 4.15558065,11.7236788 L5.88718238,11.7236788 C5.92181442,11.7236788 5.93913043,11.7550418 5.93913043,11.7968592 L5.92181442,12.0477636 C5.92181442,12.0895809 5.88718238,12.120944 5.86120836,12.120944 L3.97376247,12.1104896 L3.97376247,12.1104896 Z M14.5970954,10.1631305 C13.9441194,10.3304001 13.4984374,10.4558523 12.8558261,10.6231218 C12.7003556,10.6649392 12.6899909,10.6753936 12.5552498,10.5185783 C12.3997793,10.3408544 12.2857676,10.2258566 12.068109,10.1213131 C11.415133,9.79722832 10.7828864,9.89131746 10.1920986,10.2781283 C9.48729908,10.7381197 9.12453463,11.4176523 9.13489933,12.2644545 C9.14526403,13.1008023 9.71532244,13.7907893 10.5341336,13.9057871 C11.2389331,13.9998763 11.8297209,13.7489719 12.2961323,13.2158002 C12.3894146,13.1008023 12.4723322,12.9753502 12.5759792,12.8289893 L10.5755924,12.8289893 C10.3579337,12.8289893 10.3061103,12.6930828 10.3786631,12.5153588 C10.5134042,12.191274 10.762157,11.6476479 10.9072628,11.3758349 C10.9383569,11.3131088 11.0109097,11.2085653 11.1663802,11.2085653 L14.9391304,11.2085653 C14.918401,11.4908327 14.918401,11.7731001 14.8769422,12.0553675 C14.7629306,12.8080806 14.4830837,13.4980676 14.027037,14.1044197 C13.2807787,15.0975828 12.306497,15.7143894 11.0730979,15.8816589 C10.0573575,16.0175655 9.11416994,15.8189328 8.28499406,15.191672 C7.51800638,14.6062285 7.08268905,13.8326067 6.96867737,12.8708067 C6.83393629,11.7312827 7.16560664,10.7067566 7.84967673,9.80768267 C8.58557032,8.8354283 9.55985197,8.21862176 10.7517923,7.99908045 C11.7260739,7.82135653 12.6588968,7.93635436 13.4984374,8.5113435 C14.0477664,8.87724569 14.4416249,9.3790544 14.7007424,9.98540659 C14.7629306,10.0794957 14.7214718,10.1317675 14.5970954,10.1631305 Z" id="Shape" fill="#54666D" fill-rule="nonzero"></path>
                <path d="M18.0792361,15.9223114 C17.2788981,15.9012055 16.5489195,15.6268294 15.9332748,14.9936537 C15.4143744,14.4554544 15.0889622,13.769514 14.9834231,12.9569386 C14.8251145,11.7644577 15.0977571,10.7091649 15.6958119,9.76995425 C16.3378413,8.75687315 17.1117945,8.22922674 18.1583904,8.00761525 C19.0554725,7.81766254 19.8997851,7.92319182 20.6649435,8.54581459 C21.3597424,9.11567271 21.7906936,9.88603646 21.9050276,10.8991176 C22.0545413,12.3237629 21.7115393,13.484585 20.8936115,14.4765602 C20.3131465,15.1836064 19.6007578,15.6268294 18.7828299,15.827335 C18.545367,15.8800997 18.3079041,15.8906526 18.0792361,15.9223114 L18.0792361,15.9223114 Z M19.9391304,11.7008881 C19.9313672,11.5654823 19.9313672,11.4613239 19.9158406,11.3571656 C19.7761018,10.3259978 19.0696445,9.74271101 18.3321341,9.9718594 C17.6101502,10.190592 17.1443542,10.8051263 16.9735623,11.7842148 C16.8338235,12.59665 17.1288277,13.4195011 17.6877829,13.7528078 C18.1147626,14.0027879 18.5417423,13.9715404 18.9531955,13.6903128 C19.5664936,13.2632635 19.9003141,12.59665 19.9391304,11.7008881 L19.9391304,11.7008881 Z" id="Shape" fill="#54666D" fill-rule="nonzero"></path>
            </g>
        </g>
    </g>
</svg>