<?xml version="1.0" encoding="UTF-8"?>
<svg width="24px" height="24px" viewBox="0 0 24 24" version="1.1" xmlns="http://www.w3.org/2000/svg" xmlns:xlink="http://www.w3.org/1999/xlink">
    <!-- Generator: sketchtool 53.2 (72643) - https://sketchapp.com -->
    <title>CF70C792-9A60-4574-998C-981D4D7F7BAB</title>
    <desc>Created with sketchtool.</desc>
    <g id="Docs" stroke="none" stroke-width="1" fill="none" fill-rule="evenodd">
        <g id="Docs-Icon" transform="translate(-180.000000, -67.000000)">
            <g id="Go" transform="translate(180.000000, 67.000000)">
                <path d="M1,0 L23,0 C23.5522847,-1.01453063e-16 24,0.44771525 24,1 L24,23 C24,23.5522847 23.5522847,24 23,24 L1,24 C0.44771525,24 6.76353751e-17,23.5522847 0,23 L0,1 C-6.76353751e-17,0.44771525 0.44771525,1.01453063e-16 1,0 Z" id="Rectangle-14" fill="#E5EFFA"></path>
                <path d="M4.40869565,10.1628205 C4.37391304,10.1628205 4.36521739,10.1448718 4.3826087,10.1179487 L4.56521739,9.87564103 C4.5826087,9.84871795 4.62608696,9.83076923 4.66086957,9.83076923 L7.76521739,9.83076923 C7.8,9.83076923 7.80869565,9.85769231 7.79130435,9.88461538 L7.64347826,10.1179487 C7.62608696,10.1448718 7.5826087,10.1717949 7.55652174,10.1717949 L4.40869565,10.1628205 L4.40869565,10.1628205 Z M3.09565217,10.9884615 C3.06086957,10.9884615 3.05217391,10.9705128 3.06956522,10.9435897 L3.25217391,10.7012821 C3.26956522,10.674359 3.31304348,10.6564103 3.34782609,10.6564103 L7.31304348,10.6564103 C7.34782609,10.6564103 7.36521739,10.6833333 7.35652174,10.7102564 L7.28695652,10.925641 C7.27826087,10.9615385 7.24347826,10.9794872 7.20869565,10.9794872 L3.09565217,10.9884615 L3.09565217,10.9884615 Z M5.2,11.8141026 C5.16521739,11.8141026 5.15652174,11.7871795 5.17391304,11.7602564 L5.29565217,11.5358974 C5.31304348,11.5089744 5.34782609,11.4820513 5.3826087,11.4820513 L7.12173913,11.4820513 C7.15652174,11.4820513 7.17391304,11.5089744 7.17391304,11.5448718 L7.15652174,11.7602564 C7.15652174,11.7961538 7.12173913,11.8230769 7.09565217,11.8230769 L5.2,11.8141026 L5.2,11.8141026 Z M14.226087,10.0012821 C13.6782609,10.1448718 13.3043478,10.2525641 12.7652174,10.3961538 C12.6347826,10.4320513 12.626087,10.4410256 12.5130435,10.3064103 C12.3826087,10.1538462 12.2869565,10.0551282 12.1043478,9.96538462 C11.5565217,9.68717949 11.026087,9.76794872 10.5304348,10.1 C9.93913043,10.4948718 9.63478261,11.0782051 9.64347826,11.8051282 C9.65217391,12.5230769 10.1304348,13.1153846 10.8173913,13.2141026 C11.4086957,13.2948718 11.9043478,13.0794872 12.2956522,12.6217949 C12.373913,12.5230769 12.4434783,12.4153846 12.5304348,12.2897436 L10.8521739,12.2897436 C10.6695652,12.2897436 10.626087,12.1730769 10.6869565,12.0205128 C10.8,11.7423077 11.0086957,11.275641 11.1304348,11.0423077 C11.1565217,10.9884615 11.2173913,10.8987179 11.3478261,10.8987179 L14.5130435,10.8987179 C14.4956522,11.1410256 14.4956522,11.3833333 14.4608696,11.625641 C14.3652174,12.2717949 14.1304348,12.8641026 13.7478261,13.3846154 C13.1217391,14.2371795 12.3043478,14.7666667 11.2695652,14.9102564 C10.4173913,15.0269231 9.62608696,14.8564103 8.93043478,14.3179487 C8.28695652,13.8153846 7.92173913,13.1512821 7.82608696,12.325641 C7.71304348,11.3474359 7.99130435,10.4679487 8.56521739,9.69615385 C9.1826087,8.86153846 10,8.33205128 11,8.14358974 C11.8173913,7.99102564 12.6,8.08974359 13.3043478,8.58333333 C13.7652174,8.8974359 14.0956522,9.32820513 14.3130435,9.84871795 C14.3652174,9.92948718 14.3304348,9.97435897 14.226087,10.0012821 Z" id="Shape" fill="#2DBCAF" fill-rule="nonzero"></path>
                <path d="M17.1043478,14.9641026 C16.3130435,14.9461538 15.5913043,14.7128205 14.9826087,14.174359 C14.4695652,13.7166667 14.1478261,13.1333333 14.0434783,12.4423077 C13.8869565,11.4282051 14.1565217,10.5307692 14.7478261,9.73205128 C15.3826087,8.87051282 16.1478261,8.42179487 17.1826087,8.23333333 C18.0695652,8.07179487 18.9043478,8.16153846 19.6608696,8.69102564 C20.3478261,9.17564103 20.773913,9.83076923 20.8869565,10.6923077 C21.0347826,11.9038462 20.6956522,12.8910256 19.8869565,13.7346154 C19.3130435,14.3358974 18.6086957,14.7128205 17.8,14.8833333 C17.5652174,14.9282051 17.3304348,14.9371795 17.1043478,14.9641026 L17.1043478,14.9641026 Z M19.173913,11.3384615 C19.1652174,11.2217949 19.1652174,11.1320513 19.1478261,11.0423077 C18.9913043,10.1538462 18.2,9.65128205 17.373913,9.84871795 C16.5652174,10.0371795 16.0434783,10.5666667 15.8521739,11.4102564 C15.6956522,12.1102564 16.026087,12.8192308 16.6521739,13.1064103 C17.1304348,13.3217949 17.6086957,13.2948718 18.0695652,13.0525641 C18.7565217,12.6846154 19.1304348,12.1102564 19.173913,11.3384615 L19.173913,11.3384615 Z" id="Shape" fill="#2DBCAF" fill-rule="nonzero"></path>
            </g>
        </g>
    </g>
</svg>