<?xml version="1.0" encoding="UTF-8"?>
<svg width="12px" height="14px" viewBox="0 0 12 14" version="1.1" xmlns="http://www.w3.org/2000/svg" xmlns:xlink="http://www.w3.org/1999/xlink">
    <!-- Generator: sketchtool 53.2 (72643) - https://sketchapp.com -->
    <title>303C7123-7379-4905-B8EC-D84FC24A76BE</title>
    <desc>Created with sketchtool.</desc>
    <g id="Docs" stroke="none" stroke-width="1" fill="none" fill-rule="evenodd">
        <g id="Docs-Icon" transform="translate(-18.000000, -114.000000)" fill-rule="nonzero">
            <g id="golang" transform="translate(12.000000, 109.000000)">
                <path d="M17.8985075,6.87027027 C17.4985075,6.12972973 16.5313433,6.78378378 16.2865672,6.55135135 C15.0328358,5.38378378 13.5164179,5.09189189 12.3283582,5.03783784 C12.3283582,5.03783784 11.7910448,5.03783784 11.6716418,5.03783784 C10.4776119,5.06486486 8.96119403,5.37837838 7.71343284,6.55135135 C7.46865672,6.78378378 6.49552239,6.12972973 6.10149254,6.87027027 C5.64179104,7.73513514 7.03880597,7.82162162 6.96716418,8.20540541 C6.82985075,8.8972973 6.91940299,9.92432432 7.02686567,10.9351351 C7.19402985,12.6486486 5.77910448,16.7513514 8.72238806,18.4 C9.27761194,18.7135135 10.7761194,18.8864865 12.0776119,18.9135135 L12.0776119,18.9135135 C12.0776119,18.9135135 12.0835821,18.9135135 12.0835821,18.9135135 C12.0835821,18.9135135 12.0895522,18.9135135 12.0895522,18.9135135 L12.0895522,18.9135135 C13.3910448,18.8864865 14.7104478,18.7135135 15.2656716,18.4 C18.2149254,16.7513514 16.8,12.6486486 16.9731343,10.9351351 C17.0746269,9.92432432 17.1641791,8.8972973 17.0328358,8.20540541 C16.961194,7.82162162 18.358209,7.72972973 17.8985075,6.87027027 Z" id="Path" fill="#8CC5E7"></path>
                <g id="Group" transform="translate(12.507463, 7.378378)">
                    <path d="M1.5641791,0.0162162162 C-0.429850746,0.227027027 -0.16119403,2.10810811 0.608955224,2.71891892 C2.04179104,3.85405405 3.53432836,2.71891892 3.36716418,1.57297297 C3.21791045,0.47027027 2.18507463,-0.0486486486 1.5641791,0.0162162162 Z" id="Path" fill="#E0DEDC"></path>
                    <ellipse id="Oval" fill="#111212" cx="1.70149254" cy="1.63783784" rx="1" ry="1"></ellipse>
                    <ellipse id="Oval" fill="#FFFFFF" cx="1.52238806" cy="1.37297297" rx="1" ry="1"></ellipse>
                </g>
                <g id="Group" transform="translate(10.716418, 10.135135)">
                    <path d="M1.28358209,0.108108108 C0.328358209,0.237837838 -0.0119402985,0.486486486 0.0597014925,0.875675676 C0.179104478,1.51351351 2.42985075,1.44324324 2.50149254,0.908108108 C2.56119403,0.448648649 1.65970149,0.0594594595 1.28358209,0.108108108 Z" id="Path" fill="#B8937F"></path>
                    <path d="M0.668656716,0.367567568 C0.507462687,0.897297297 1.9641791,0.816216216 1.92835821,0.475675676 C1.91044776,0.275675676 1.71343284,0.0216216216 1.19402985,0.0324324324 C0.991044776,0.0378378378 0.740298507,0.118918919 0.668656716,0.367567568 Z" id="Path" fill="#000000"></path>
                    <path d="M0.71641791,1.22702703 C0.662686567,1.24864865 0.573134328,1.77837838 0.847761194,1.80540541 C1.03283582,1.82162162 1.54029851,1.87567568 1.65970149,1.80540541 C1.89253731,1.67027027 1.86865672,1.34594595 1.73731343,1.26486486 C1.51641791,1.13513514 0.776119403,1.2 0.71641791,1.22702703 Z" id="Path" fill="#E0DEDC"></path>
                </g>
                <g id="Group" transform="translate(8.089552, 7.378378)">
                    <path d="M1.82686567,0.0162162162 C3.82089552,0.227027027 3.55223881,2.10810811 2.78208955,2.71891892 C1.34925373,3.85405405 -0.143283582,2.71891892 0.023880597,1.57297297 C0.179104478,0.47027027 1.2119403,-0.0486486486 1.82686567,0.0162162162 Z" id="Path" fill="#E0DEDC"></path>
                    <ellipse id="Oval" fill="#111212" cx="1.69552239" cy="1.63783784" rx="1" ry="1"></ellipse>
                    <ellipse id="Oval" fill="#FFFFFF" cx="1.87462687" cy="1.37297297" rx="1" ry="1"></ellipse>
                </g>
                <path d="M17.080597,14.5513514 C17.7373134,14.5567568 17.4149254,13.2810811 17.0089552,13.5351351 C16.8119403,13.6594595 16.7761194,13.9459459 16.7761194,14.1891892 C16.7761194,14.3243243 16.8955224,14.5459459 17.080597,14.5513514 Z" id="Path" fill="#B8937F"></path>
                <path d="M6.91343284,14.5513514 C6.25671642,14.5567568 6.57910448,13.2810811 6.98507463,13.5351351 C7.18208955,13.6594595 7.21791045,13.9459459 7.21791045,14.1891892 C7.21791045,14.3243243 7.09850746,14.5459459 6.91343284,14.5513514 Z" id="Path" fill="#B8937F"></path>
                <path d="M15.8328358,18.4702703 C15.4746269,17.9891892 15.1522388,18.3621622 14.6328358,18.6 C14.3880597,18.7135135 15.038806,19.1189189 15.7671642,18.8162162 C15.958209,18.7351351 15.9522388,18.627027 15.8328358,18.4702703 Z" id="Path" fill="#B8937F"></path>
                <path d="M8.16119403,18.5243243 C8.51940299,18.0432432 8.84179104,18.4162162 9.36119403,18.6540541 C9.60597015,18.7675676 8.95522388,19.172973 8.22686567,18.8702703 C8.0358209,18.7891892 8.04179104,18.6810811 8.16119403,18.5243243 Z" id="Path" fill="#B8937F"></path>
                <path d="M16.7820896,7 C16.7462687,7.11351351 16.9074627,7.0972973 16.9671642,7.44864865 C16.9910448,7.57837838 17.5044776,7.25945946 17.2955224,7.02702703 C17.1223881,6.83243243 16.8119403,6.88648649 16.7820896,7 Z" id="Path" fill="#3C89BF"></path>
                <path d="M7.2119403,7 C7.24776119,7.11351351 7.08656716,7.0972973 7.02686567,7.44864865 C7.00298507,7.57837838 6.48955224,7.25945946 6.69850746,7.02702703 C6.86567164,6.83243243 7.1761194,6.88648649 7.2119403,7 Z" id="Path" fill="#3C89BF"></path>
            </g>
        </g>
    </g>
</svg>