<?xml version="1.0" encoding="UTF-8"?>
<svg width="24px" height="24px" viewBox="0 0 24 24" version="1.1" xmlns="http://www.w3.org/2000/svg" xmlns:xlink="http://www.w3.org/1999/xlink">
    <!-- Generator: sketchtool 53.2 (72643) - https://sketchapp.com -->
    <title>90D34E0C-7139-4462-9C30-E0508CCE6439</title>
    <desc>Created with sketchtool.</desc>
    <g id="Docs" stroke="none" stroke-width="1" fill="none" fill-rule="evenodd">
        <g id="Docs-Icon" transform="translate(-12.000000, -193.000000)">
            <g id="golang-bw" transform="translate(12.000000, 193.000000)">
                <path d="M1,0 L23,0 C23.5522847,-1.01453063e-16 24,0.44771525 24,1 L24,23 C24,23.5522847 23.5522847,24 23,24 L1,24 C0.44771525,24 6.76353751e-17,23.5522847 0,23 L0,1 C-6.76353751e-17,0.44771525 0.44771525,1.01453063e-16 1,0 Z" id="Rectangle-14" fill="#E5EFFA"></path>
                <path d="M7.10036887,12.7109285 C7.1238064,13.132803 7.55349415,12.9374907 7.74880677,12.8085846 C7.93240062,12.6796785 7.98708814,12.7851471 8.00271315,12.5390537 C8.01443191,12.3749914 8.03396316,12.2109291 8.02615067,12.050773 C7.7449005,12.0234293 7.44021283,12.0898354 7.20974395,12.2538978 C7.09255637,12.3359289 6.86989999,12.6054598 7.10036887,12.7109285" id="Path" stroke="#151617" stroke-width="0.2" stroke-linecap="round"></path>
                <path d="M7.10036887,12.7171786 C7.16677517,12.6921786 7.23318147,12.6755119 7.27224397,12.6171786" id="Path" stroke="#151617" stroke-width="0.2" fill="#C6B198" stroke-linecap="round"></path>
                <path d="M8.0964632,7.67577811 C6.44802476,7.22265365 7.67458797,5.16406232 8.99880749,6.01171758 L8.0964632,7.67577811 Z" id="Path" stroke="#151617" stroke-width="0.2" stroke-linecap="round"></path>
                <path d="M15.4284987,5.85546775 C16.733187,4.9570313 17.9128752,6.98437268 16.3972493,7.49609083 L15.4284987,5.85546775 Z" id="Path" stroke="#151617" stroke-width="0.2" stroke-linecap="round"></path>
                <path d="M15.7097489,17.9140474 C16.0417803,18.1132659 16.6472494,18.7226402 16.1472492,19.0195148 C15.6706864,19.4492018 15.4050612,18.5468591 14.983186,18.4218593 C15.1628736,18.1835783 15.3933425,17.9609223 15.7097489,17.9140474 Z" id="Path" stroke="#151617" stroke-width="0.2" stroke-linecap="round"></path>
                <path d="M16.1472492,19.0195148 C16.0769366,18.8749837 16.0495928,18.7070152 15.928499,18.5898278" id="Path" stroke="#151617" stroke-width="0.2" stroke-linecap="round"></path>
                <path d="M9.78396419,18.6015465 C9.39333897,18.6601402 9.17458885,19.0038898 8.8503699,19.1796709 C8.54177597,19.3593582 8.42458841,19.1210772 8.39724464,19.0742022 C8.35036962,19.054671 8.35427585,19.0937335 8.28005705,19.0195148 C7.99880689,18.5820153 8.57693223,18.2617032 8.87771367,18.0429535 C9.2995889,17.9609223 9.56130781,18.3163906 9.78396419,18.6015465 Z" id="Path" stroke="#151617" stroke-width="0.2" stroke-linecap="round"></path>
                <path d="M8.39724464,19.0742022 C8.41286965,18.9062337 8.54958846,18.7968588 8.6120885,18.6523277" id="Path" stroke="#151617" stroke-width="0.2" stroke-linecap="round"></path>
                <path d="M8.16677521,7.10937593 C7.94802521,6.99609393 7.78786821,6.84374993 7.92068121,6.59374993 C8.04568121,6.36718793 8.27224421,6.39062593 8.49099421,6.50390693 L8.16677521,7.10937593 Z" id="Path" fill="#151617"></path>
                <path d="M16.0534942,6.89453193 C16.2683372,6.78124993 16.4284942,6.62890693 16.2956812,6.37890693 C16.1745872,6.15234393 15.9441182,6.17578193 15.7253682,6.28906293 L16.0534942,6.89453193 Z" id="Path" fill="#151617"></path>
                <path d="M17.5495937,12.656241 C17.5300624,13.0820218 17.1003747,12.8867095 16.9050621,12.7538972 C16.717562,12.6288973 16.6667807,12.7304597 16.6472494,12.4843662 C16.6394369,12.3203039 16.6199057,12.1601479 16.6277182,11.9960855 C16.9089683,11.9687418 17.213656,12.035148 17.4441249,12.1992103 C17.5613125,12.2851477 17.7839688,12.5507724 17.5495937,12.656241" id="Path" stroke="#151617" stroke-width="0.2" stroke-linecap="round"></path>
                <path d="M17.5495937,12.6624911 C17.4870937,12.6416578 17.4206874,12.6208245 17.3777186,12.5624911" id="Path" stroke="#151617" stroke-width="0.2" fill="#C6B198" stroke-linecap="round"></path>
                <path d="M12.1628718,5 C13.8113103,5 15.3620924,5.2304685 16.1667804,6.78906041 C16.8933433,8.53124587 16.6355307,10.4140562 16.7449057,12.257804 C16.842562,13.8398334 17.0495934,15.6679562 16.3034992,17.1367045 C15.5144363,18.6796715 13.5456851,19.0663897 11.9245904,19.0117023 C10.6511522,18.9648274 9.11208881,18.5585778 8.39333838,17.4179542 C7.54958789,16.078112 7.94802561,14.0859269 8.01052565,12.5976473 C8.08083821,10.8320244 7.52224412,9.06249525 8.11208822,7.33593478 C8.72536982,5.54296813 10.3816208,5.14062483 12.1628718,5" id="Path" stroke="#151617" stroke-width="0.2" stroke-linecap="round"></path>
                <path d="M12.4519345,7.17577871 C12.7488097,8.86718298 15.5691238,8.41796476 15.1628736,6.71484175 C14.7995921,5.18359356 12.3542782,5.60937431 12.4519345,7.17577871" id="Path" stroke="#151617" stroke-width="0.2" stroke-linecap="round"></path>
                <path d="M9.08474504,7.44921588 C9.471464,8.92187042 11.8738092,8.54296461 11.7839654,7.06640383 C11.6745903,5.30078091 8.71755733,5.64062427 9.08474504,7.44921588" id="Path" stroke="#151617" stroke-width="0.2" stroke-linecap="round"></path>
                <path d="M12.7917784,9.20312009 C12.7956847,9.42186982 12.8425597,9.67186954 12.7995909,9.90233801 C12.7449034,10.0117129 12.6316221,10.0195254 12.5339658,10.0624941 C12.4011532,10.0429628 12.2878719,9.95702545 12.2331844,9.83593183 C12.2019343,9.5664009 12.2488094,9.30858872 12.2566219,9.04296401 L12.7917784,9.20312009 Z" id="Path" stroke="#151617" stroke-width="0.2" stroke-linecap="round" stroke-linejoin="round"></path>
                <path d="M10.1550562,7.20703193 C10.1550562,6.96874993 9.97146221,6.77734393 9.74880621,6.77734393 C9.52224421,6.77734393 9.34255621,6.96874993 9.34255621,7.20703193 C9.34255621,7.44531293 9.52224421,7.64062593 9.74880621,7.64062593 C9.97146221,7.64062593 10.1550562,7.44531293 10.1550562,7.20703193 Z" id="Path" fill="#151617"></path>
                <path d="M10.0300562,7.30468793 C10.0300562,7.24609393 9.98708721,7.19531293 9.93240021,7.19531293 C9.88161821,7.19531293 9.83865021,7.24609393 9.83865021,7.30468793 C9.83865021,7.36718793 9.88161821,7.41406293 9.93240021,7.41406293 C9.98708721,7.41406293 10.0300562,7.36718793 10.0300562,7.30468793 Z" id="Path" fill="#E5EFFA"></path>
                <path d="M13.5456812,7.10156293 C13.5456812,6.86328193 13.3699002,6.67187593 13.1472442,6.67187593 C12.9284942,6.67187593 12.7488062,6.86328193 12.7488062,7.10156293 C12.7488062,7.33984393 12.9284942,7.53124993 13.1472442,7.53124993 C13.3699002,7.53124993 13.5456812,7.33984393 13.5456812,7.10156293 Z" id="Path" fill="#151617"></path>
                <path d="M13.4245872,7.19921893 C13.4245872,7.13671893 13.3816182,7.08984393 13.3308372,7.08984393 C13.2761502,7.08984393 13.2370872,7.13671893 13.2370872,7.19921893 C13.2370872,7.25781293 13.2761502,7.30859393 13.3308372,7.30859393 C13.3816182,7.30859393 13.4245872,7.25781293 13.4245872,7.19921893 Z" id="Path" fill="#E5EFFA"></path>
                <path d="M11.6316215,9.1796826 C11.4558402,9.60155711 11.7331841,10.4413999 12.2136531,9.82030687 C12.1784968,9.55468216 12.2253719,9.29686998 12.2331844,9.02733905 L11.6316215,9.1796826 Z" id="Path" stroke="#151617" stroke-width="0.2" stroke-linecap="round"></path>
                <path d="M11.6941215,8.37108982 C11.3620901,8.39843353 11.0925587,8.78124558 11.2644338,9.08593271 C11.4909964,9.488276 11.9988092,9.05077651 12.3152157,9.08983896 C12.6784971,9.09765145 12.9753723,9.46874477 13.2683412,9.16015139 C13.5925602,8.81249554 13.1277161,8.47655843 12.7644347,8.3281211 L11.6941215,8.37108982 Z" id="Path" stroke="#151617" stroke-width="0.2" stroke-linecap="round"></path>
                <path d="M11.6511502,8.35156293 C11.6277122,7.79296893 12.7175562,7.72265693 12.8464622,8.19140693 C12.9753682,8.66015693 11.7058372,8.76953193 11.6511502,8.35156293 C11.6081812,8.01953193 11.6511502,8.35156293 11.6511502,8.35156293 Z" id="Path" fill="#151617"></path>
            </g>
        </g>
    </g>
</svg>