<svg width="42" height="42" viewBox="0 0 42 42" xmlns="http://www.w3.org/2000/svg"><g stroke="#AD26B4" fill="none" fill-rule="evenodd" stroke-linecap="round" stroke-linejoin="round"><path d="M7.357 3.75h8.941c.994 0 1.49.5 1.49 1.5v31.5c0 1-.496 1.5-1.49 1.5h-8.94c-.994 0-1.49-.5-1.49-1.5V5.25c0-1 .496-1.5 1.49-1.5z"/><path d="M9.593 6.75h4.47c.497 0 .745.25.745.75V12c0 .5-.248.75-.745.75h-4.47c-.497 0-.746-.25-.746-.75V7.5c0-.5.249-.75.746-.75zM9.593 15.75h4.47c.497 0 .745.25.745.75V21c0 .5-.248.75-.745.75h-4.47c-.497 0-.746-.25-.746-.75v-4.5c0-.5.249-.75.746-.75zM9.593 24.75h4.47c.497 0 .745.25.745.75V30c0 .5-.248.75-.745.75h-4.47c-.497 0-.746-.25-.746-.75v-4.5c0-.5.249-.75.746-.75zM13.318 34.5c0 1-.497 1.5-1.49 1.5-.994 0-1.49-.5-1.49-1.5s.496-1.5 1.49-1.5c.993 0 1.49.5 1.49 1.5zM17.199 37.97l18.573-21.565c.269-.314.388-.678.356-1.091-.03-.413-.203-.755-.515-1.025l-4.654-4.025M17.789 36.313l9.984-27.108c.345-.937.052-1.58-.88-1.927L20.256 4.8"/></g></svg>