<svg width="42" height="42" viewBox="0 0 42 42" xmlns="http://www.w3.org/2000/svg"><path d="M15.721 16c1.39-.006 2.817.391 3.898 1.286.553.446 1 1.006 1.38 1.602.684-1.1 1.683-2.034 2.914-2.485 1.5-.56 3.197-.522 4.695.028 1.308.475 2.452 1.304 3.49 2.215.811.713 1.562 1.493 2.398 2.18.44.355.914.689 1.455.873.72.245 1.572.014 2.087-.538.476-.517.447-1.41-.078-1.882-.334-.287-.905-.23-1.142.153-.206.303-.09.682.071.975-.43-.312-.86-.748-.859-1.317-.089-.657.4-1.236.987-1.466 1.145-.456 2.58-.063 3.303.94.695.936.75 2.167.63 3.282-.147 1.06-.742 2.048-1.625 2.662-1.239.88-2.81 1.153-4.304 1.134-1.436-.039-2.858-.362-4.189-.896-2.225-.89-4.308-2.121-6.606-2.832-.763-.295-1.574-.454-2.389-.503-.649-.005-1.264-.035-1.877.006-.747.072-1.49.224-2.19.497-2.338.724-4.452 1.986-6.72 2.878-1.915.741-4.036 1.086-6.069.674-1.137-.229-2.269-.73-3.036-1.62-.657-.759-.972-1.773-.941-2.767-.036-.938.17-1.934.794-2.665.58-.692 1.513-1.044 2.41-.966.577.027 1.162.277 1.518.74.28.366.298.867.175 1.295-.15.385-.459.686-.795.916.172-.287.276-.667.073-.968-.25-.4-.863-.44-1.187-.112-.4.41-.484 1.078-.216 1.58.291.525.893.824 1.475.885.88.076 1.645-.467 2.291-.994 1.338-1.147 2.543-2.458 4.027-3.428 1.223-.817 2.665-1.369 4.152-1.362z" stroke="#423426" fill="none" fill-rule="evenodd" stroke-linecap="round" stroke-linejoin="round"/></svg>