<svg width="113" height="127" viewBox="0 0 113 127" xmlns="http://www.w3.org/2000/svg"><g fill="none" fill-rule="evenodd"><path d="M109 81.89V41.836c0-5.209-2.757-10.028-7.244-12.666L64.688 7.376c-5.504-3.235-12.34-3.162-17.773.19L14.014 27.868C8.412 31.325 5 37.438 5 44.023v41.01c0 6.533 3.464 12.574 9.099 15.87l34.287 20.055c4.557 2.667 10.185 2.725 14.799.154 10.012-5.582 27.745-15.463 37.96-21.157 4.846-2.703 7.848-7.817 7.848-13.367V81.89H109z" fill="#FF4088"/><path d="M55.564 0h.09l.082.001h.463l.081.003h.01l.081.004h.01l.081.003h.007l.082.003h.01l.078.003h.01l.079.004h.006l.082.003h.01l.082.007h.01l.079.006h.006l.079.007h.01l.082.006h.006l.079.007h.01l.082.006h.01l.082.007h.01l.081.006h.01l.079.007h.01l.079.007h.01l.081.006h.01l.082.01h.01l.082.01h.007l.078.01h.01l.079.01h.01l.082.01h.01l.081.01h.007l.079.01h.01l.082.009h.01l.078.013.01.003.082.013h.01l.078.014h.007l.082.013h.01l.078.013h.01l.079.013h.007l.082.013h.01l.078.013.01.004.079.013.01.003.078.016h.01l.079.014h.01l.078.016h.01l.082.016h.007l.078.017h.01l.079.016h.006l.082.017.01.003.082.016h.007l.079.02.01.003.078.02h.01l.082.02.006.003.08.016.009.004.079.016.006.003.079.02h.01l.078.02.01.003.079.02.007.003.082.02.006.003.079.02.01.003.078.02h.007l.079.023h.01l.081.02.01.003.079.02h.01l.079.022.01.003.078.023.01.004.079.023.01.003.078.023.007.003.078.023.01.004.079.023.01.003.078.023.01.003.079.026.007.004.078.026h.01l.079.026h.01l.078.026.01.004.079.026.01.003.078.026.007.004.079.026.01.003.078.027.007.003.079.026.006.003.075.027.01.003.076.026.01.003.075.03.01.003.079.03.01.003.075.03.006.003.08.026.006.003.078.03.01.003.079.03.01.003.075.03.01.003.075.033.007.003.079.03.01.003.075.033.01.003.078.033.01.003.079.033.007.003.078.033.007.003.075.033.007.003.075.033.007.003.078.033.007.004.075.032.01.004.076.033.01.003.075.033.007.003.075.036.01.003.075.036.01.004.075.036.007.003.075.036.007.003.075.037.01.003.076.036.01.003.075.036.01.004.075.036.007.003.075.04.007.006.075.036.007.003.072.04.01.003.075.036.007.003.075.04.01.003.072.04.01.006.075.04.01.003.076.04.006.002.072.04.01.006.076.04.006.006.072.043.007.007.072.042.01.003.072.043.007.003.072.043.006.007.072.042.01.007.07.043h.006l37.154 21.85.062.037.007.006.062.036.01.004.059.039.006.006.06.037.006.006.059.036.007.004.059.036.006.003.06.036.006.003.059.036.01.004.059.04.006.002.06.04.009.003.06.036.006.003.059.04.006.006.06.04.006.006.056.036.01.004.058.04.007.002.059.04.007.003.055.04.007.003.056.04.006.002.056.04.006.006.056.04.007.003.056.043.01.006.055.04.007.003.055.04.007.003.056.039.006.007.056.039.007.003.055.04.007.006.056.04.006.006.056.043.01.006.052.043.01.007.056.042.01.004.055.042.007.007.056.042.006.007.053.043.01.006.055.046.01.01.105.085.013.01.105.089.013.01.108.088.014.01.108.089.013.01.105.088.013.013.105.09.013.009.102.092.013.01.101.092.014.01.101.095.013.01.099.091.013.01.102.095.013.014.098.095.013.013.099.095.013.013.095.095.013.013.095.099.013.013.095.099.01.013.095.098.013.013.092.099.013.013.092.098.013.014.092.098.013.013.092.102.013.013.089.105.01.013.091.102.013.013.089.105.013.013.088.105.01.013.089.105.013.014.085.105.01.013.085.105.013.013.086.108.01.013.082.109.01.013.081.108.01.013.082.109.01.016.082.112.01.013.082.108.01.016.078.112.01.013.079.112.01.013.078.111.01.017.076.111.01.017.075.115.01.016.072.112.01.013.072.112.01.013.075.115.01.013.072.115.01.016.069.115.01.016.072.115.01.017.069.114.01.017.068.118.01.013.066.118.01.017.065.118.01.016.066.118.01.017.065.118.006.016.066.122.007.016.062.122.007.016.062.122.01.013.059.124.006.017.063.121.006.017.06.121.009.017.056.124.006.017.056.124.007.017.055.125.007.016.056.125.006.016.053.125.006.016.053.125.006.016.05.128.006.017.05.125.006.016.049.128.006.016.05.128.006.017.05.128.006.016.046.128.006.017.043.128.007.016.042.128.007.017.042.128.007.016.043.131.003.017.04.128.006.016.04.131.002.017.04.131.006.017.04.13.006.017.036.132.007.016.036.131.003.017.033.131.007.02.036.134.003.017.033.134.006.017.03.134.006.017.033.134.003.02.03.135.003.016.03.134.003.017.026.134.004.017.026.134.003.017.026.134.004.017.023.138.003.016.023.135.003.02.023.137.003.02.02.138.003.02.02.134v.013l.01.072v.007l.006.069v.01l.01.069v.006l.01.07v.01l.01.068.003.01.01.069v.01l.007.069.003.006.006.069.004.01.006.069v.01l.007.069.003.01.007.068.003.01.006.07v.009l.007.069v.01l.007.069v.01l.006.068v.01l.007.07v.01l.003.068v.01l.003.072v.01l.007.072v.007l.003.069v.01l.003.068v.01l.004.07v.01l.003.068v.01l.003.072v.01l.003.069v.01l.004.069v.006l.003.07v45.821l-.003.076v.095l-.004.075v.01l-.003.073v.006l-.003.076v.01l-.003.072v.006l-.004.072v.01l-.003.072-.003.01-.004.073v.01l-.003.072v.006l-.003.076v.01l-.007.075v.007l-.006.075v.01l-.007.072v.01l-.003.072v.01l-.007.072v.01l-.006.072v.01l-.007.072v.01l-.006.072-.004.007-.006.075-.003.01-.007.073v.01l-.006.072-.004.01-.01.072v.01l-.01.072v.006l-.01.072v.01l-.01.073-.002.01-.01.075-.004.01-.01.072-.003.01-.01.072v.01l-.01.072v.01l-.01.072-.002.01-.01.072-.004.01-.013.072v.007l-.01.072v.007l-.013.072-.003.01-.01.072-.003.01-.01.072v.006l-.013.073v.006l-.013.072v.007l-.013.072v.01l-.013.069-.004.01-.013.069-.003.01-.013.072-.003.01-.017.072v.007l-.016.072v.006l-.013.07v.01l-.017.071v.007l-.013.072-.003.007-.016.069v.006l-.017.069v.01l-.016.069-.004.01-.016.069-.003.01-.017.068-.003.007-.016.069-.004.006-.016.07-.003.01-.02.068-.003.01-.017.069-.003.01-.02.069v.01l-.02.072-.003.01-.02.069v.01l-.019.068-.003.01-.02.07-.003.009-.02.072-.003.007-.02.069-.003.006-.02.07-.003.009-.023.069-.003.01-.02.069-.003.006-.02.07-.003.009-.02.069-.003.007-.023.068-.003.01-.023.07-.004.01-.023.068-.003.01-.023.069-.003.01-.023.069-.003.006-.023.07-.003.009-.023.069-.004.01-.023.069-.003.006-.023.07-.003.009-.023.069-.003.01-.027.065-.003.01-.023.066-.003.01-.023.065-.003.01-.023.07-.004.009-.026.069-.003.01-.026.065-.004.01-.026.066-.003.01-.026.065-.004.01-.026.066-.003.01-.026.065-.004.01-.026.066-.003.006-.03.066-.003.01-.03.069-.003.01-.026.065-.003.01-.03.066-.003.01-.03.065-.003.01-.03.066-.003.006-.03.066-.002.01-.03.066-.003.006-.03.066-.003.006-.03.066-.003.007-.03.065-.003.007-.032.065-.004.007-.033.062-.003.01-.03.066-.003.006-.032.063-.004.01-.03.065-.002.007-.033.065-.004.01-.032.066-.004.007-.032.062-.004.006-.032.066-.004.01-.033.066-.003.01-.033.065-.006.01-.033.062-.003.007-.033.066-.003.01-.033.065-.003.01-.036.062-.007.007-.036.062-.003.007-.036.062-.004.007-.036.062-.003.007-.036.062-.003.007-.037.062-.003.01-.036.062-.003.007-.036.062-.003.01-.037.062-.006.007-.036.062-.007.007-.036.062-.003.007-.036.062-.003.01-.04.062-.003.007-.036.059-.003.01-.037.059-.006.006-.04.063-.003.01-.039.059-.007.006-.039.06-.003.006-.04.062-.006.01-.04.06-.006.006-.04.059-.003.006-.039.063-.003.006-.04.06-.006.006-.043.06-.003.006-.04.059-.003.006-.042.06-.004.006-.039.059-.007.007-.039.059-.006.006-.043.06-.007.006-.039.059-.003.007-.043.059-.007.01-.039.059-.006.006-.043.06-.007.006-.042.059-.007.006-.042.06-.007.006-.043.06-.003.006-.043.056-.006.006-.043.056-.003.006-.046.056-.006.007-.043.056-.003.006-.043.06-.007.006-.045.059-.007.006-.046.056-.006.007-.046.056-.004.006-.046.056-.006.007-.046.055-.007.007-.046.056-.006.006-.046.056-.007.007-.045.055-.004.007-.046.056-.006.006-.05.056-.006.007-.046.056-.006.006-.046.056-.007.006-.046.056-.006.007-.046.056-.007.006-.046.053-.006.006-.05.056-.006.007-.046.055-.007.007-.049.056-.006.006-.046.056-.007.007-.049.052-.006.007-.05.052-.006.007-.05.052-.006.007-.05.053-.006.006-.049.053-.006.006-.05.053-.006.006-.05.053-.006.006-.05.053-.006.006-.052.053-.007.007-.049.052-.006.007-.05.049-.006.006-.053.053-.01.006-.052.053-.007.007-.052.049-.007.006-.052.053-.007.006-.052.05-.007.006-.052.05-.007.006-.052.05-.007.006-.052.05-.007.006-.052.049-.007.006-.052.05-.007.006-.056.05-.006.003-.053.049-.006.007-.056.049-.006.006-.056.05-.007.003-.055.05-.007.006-.056.046-.01.006-.055.046-.007.007-.056.049-.006.007-.056.049-.007.006-.055.05-.007.006-.056.046-.006.007-.06.046-.006.003-.055.046-.007.006-.056.046-.01.007-.055.046-.007.006-.056.046-.006.007-.056.046-.007.006-.059.046-.006.007-.056.043-.006.006-.06.046-.006.007-.059.046-.007.006-.059.046-.006.007-.06.046-.006.003-.059.043-.006.003-.06.043-.006.003-.059.043-.01.003-.059.043-.006.006-.06.043-.006.006-.059.043-.007.007-.059.042-.01.007-.058.042-.007.004-.062.042-.01.004-.062.042-.007.007-.062.043-.007.006-.062.04-.007.006-.062.043-.007.006-.059.043-.01.007-.062.039-.006.003-.063.04-.01.003-.062.04-.006.006-.063.04-.006.006-.063.04-.006.003-.062.039-.01.003-.063.04-.006.006-.062.04-.01.003-.063.04-.01.006-.062.04-.01.006-.065.04-.007.006-.062.036-.01.003-.062.036-.007.007-.065.04-.01.006-.066.036-.006.006-.063.036-.01.004-.065.036-.01.003-.065.036-.007.004-.062.036-.004.003-38.016 21.204h-.003l-.06.036-.01.004-.062.036-.01.006-.062.033-.01.003-.062.033-.006.003-.063.033-.01.004-.062.032-.01.004-.062.032-.01.004-.062.033-.007.003-.062.033-.007.003-.062.03-.006.003-.066.033-.007.006-.062.033-.006.003-.063.03-.006.003-.063.03-.006.003-.062.033-.007.003-.066.03-.006.003-.062.03-.007.003-.066.03-.006.003-.062.03-.007.002-.062.03-.01.006-.066.03-.006.003-.066.027-.006.003-.066.03-.007.006-.065.03-.01.003-.062.026-.007.003-.065.03-.007.003-.066.026-.006.004-.066.026-.006.003-.066.026-.01.004-.065.026-.01.003-.066.027-.01.003-.062.026-.006.003-.066.023-.007.004-.065.026-.01.003-.066.026-.01.004-.065.026-.01.003-.065.023-.01.004-.066.026-.01.003-.065.023-.007.003-.065.023-.01.004-.066.023-.01.003-.065.023-.01.003-.066.023-.006.003-.066.023-.065.023-.01.004-.07.02-.009.003-.066.02-.006.003-.066.023-.006.003-.07.02-.009.003-.066.02-.01.003-.065.02-.01.003-.069.023-.013.003-.131.04-.016.006-.135.04-.016.003-.135.039-.016.003-.135.036-.016.007-.134.036-.017.003-.134.036-.02.004-.134.033-.017.003-.134.033-.02.003-.134.033-.017.003-.134.03-.017.003-.137.03-.02.003-.138.03-.016.003-.138.026-.016.003-.135.023-.016.003-.135.027-.016.003-.138.023-.016.003-.138.023-.016.003-.138.02-.016.003-.138.02-.016.003-.138.02-.017.003-.137.02-.02.003-.138.017-.016.003-.138.016-.016.004-.138.016-.138.013h-.016l-.138.01-.016.003-.138.01h-.016l-.138.01h-.016l-.138.01-.02.003-.138.01h-.016l-.138.007h-.016l-.138.006h-.02l-.137.003h-.017l-.137.004h-.017l-.137.003h-.486l-.138-.003-.137-.004h-.02l-.138-.003h-.003l-.137-.006-.017-.004-.137-.006h-.017l-.138-.007-.016-.003-.138-.007h-.016l-.138-.01-.016-.003-.138-.013-.02-.003-.137-.013-.02-.004-.138-.013-.016-.003-.138-.013h-.016l-.138-.013-.016-.004-.138-.016h-.02l-.138-.016-.02-.004-.137-.02-.016-.003-.138-.02-.016-.003-.138-.02-.017-.003-.137-.02-.017-.003-.134-.023h-.01l-.138-.026-.017-.003-.135-.026-.016-.004-.135-.026-.016-.003-.135-.026-.02-.004-.136-.026-.016-.003-.135-.03-.02-.006-.134-.03-.016-.003-.135-.033-.018-.007-.134-.032-.017-.007-.134-.036-.017-.003-.134-.036-.016-.007-.135-.036-.016-.007-.135-.036-.016-.006-.135-.04-.02-.006-.134-.04-.016-.006-.135-.04-.016-.006-.134-.04-.017-.003-.13-.043-.013-.003-.07-.023h-.008l-.066-.02-.01-.003-.065-.023-.01-.003-.066-.023-.01-.003-.065-.023-.01-.004-.065-.023-.01-.003-.066-.023-.006-.003-.066-.023-.007-.003-.065-.023-.007-.004-.065-.026-.01-.003-.066-.026-.01-.004-.065-.026-.007-.003-.065-.027-.01-.003-.066-.026-.006-.003-.066-.027-.01-.003-.065-.026-.007-.003-.065-.027-.007-.003-.066-.026-.01-.004-.065-.026-.01-.003-.065-.026-.01-.004-.066-.026-.01-.003-.065-.026-.007-.004-.065-.03-.01-.003-.063-.029-.006-.003-.066-.03-.006-.003-.066-.03-.006-.003-.066-.026-.01-.004-.062-.03-.01-.002-.066-.03-.01-.003-.062-.03-.006-.006-.063-.03-.006-.003-.062-.03-.007-.003-.066-.03-.006-.006-.066-.033-.006-.006-.063-.03-.01-.003-.065-.03-.007-.006-.062-.033-.01-.003-.065-.033-.007-.004-.062-.032-.01-.004-.062-.032-.007-.004-.062-.033-.01-.006-.062-.033-.007-.003-.062-.033-.007-.003-.062-.033-.01-.007-.062-.033-.007-.003-.062-.036-.01-.007-.062-.032-.01-.004-.062-.032-.01-.004-.062-.033-.01-.003-.063-.036-.01-.003-.058-.036-.01-.004-.06-.036-.003-.003-34.366-20.078-.004-.004-.072-.042-.006-.004-.072-.042-.01-.004-.076-.042-.01-.004-.072-.046-.006-.003-.072-.046-.007-.006-.072-.046-.007-.007-.072-.046-.01-.003-.072-.043-.01-.006-.072-.046-.006-.007-.072-.046h.016l-.072-.046-.01-.006-.072-.046-.006-.007-.073-.046-.009-.006-.072-.05-.01-.006-.072-.05-.006-.006-.073-.046-.006-.006-.072-.05-.007-.006-.072-.05-.007-.006-.068-.05-.01-.006-.07-.05-.007-.006-.07-.049-.007-.006-.07-.05-.008-.006-.069-.05-.007-.003-.068-.049-.007-.007-.068-.049-.006-.006-.068-.05-.01-.003-.069-.05-.006-.006-.07-.052-.006-.007-.068-.049-.009-.007-.069-.052-.008-.007-.066-.052-.007-.007-.065-.052-.007-.004-.065-.052-.007-.007-.065-.052-.007-.007-.066-.052-.006-.007-.066-.052-.006-.007-.066-.052-.006-.007-.066-.052-.007-.007-.065-.056-.007-.003-.065-.053-.007-.006-.063-.053-.007-.006-.066-.056-.006-.007-.066-.052-.006-.007L8 101.84l-.006-.003-.065-.052-.006-.007-.063-.052-.006-.007-.062-.056-.007-.006-.062-.056-.007-.007-.062-.056-.007-.006-.062-.056-.007-.006-.062-.056-.006-.007-.063-.059-.006-.003-.063-.056-.01-.007-.06-.059-.007-.006-.062-.056-.007-.007-.06-.059-.007-.006-.06-.06-.006-.006-.059-.059-.006-.006-.063-.06-.006-.006-.062-.06-.007-.003-.06-.059-.006-.006-.059-.06-.006-.006-.06-.059-.006-.006-.059-.06-.006-.006-.06-.06-.006-.006-.059-.059-.007-.006-.055-.06-.007-.006-.059-.06-.006-.006-.06-.062-.006-.007-.056-.062-.006-.007-.056-.062-.007-.006-.059-.063-.006-.006-.056-.063-.007-.006-.055-.063-.007-.006-.056-.063-.006-.006-.056-.063-.006-.006-.056-.062-.003-.007-.053-.062-.006-.007-.056-.062-.007-.007-.059-.066-.006-.006-.056-.063-.007-.006-.055-.066-.007-.006-.052-.063-.004-.006-.052-.063-.007-.006-.052-.066-.007-.006-.056-.066-.006-.007-.053-.062-.006-.006-.056-.063-.006-.006-.053-.063-.006-.006-.053-.066-.006-.007-.053-.065-.007-.007-.052-.065-.007-.007-.052-.066-.007-.006-.052-.066-.003-.006-.05-.066-.006-.007-.05-.065-.003-.007-.049-.065-.006-.007-.05-.069-.006-.007-.05-.065-.006-.007-.049-.065-.003-.007-.05-.069-.003-.006-.049-.07-.003-.006-.05-.066-.003-.006-.049-.066-.006-.006-.05-.07-.006-.006-.05-.069-.006-.01-.046-.069-.006-.006-.046-.07-.007-.006-.046-.069-.006-.006-.046-.07-.003-.006-.046-.069-.007-.01-.046-.068-.006-.007-.046-.069-.007-.006-.046-.07-.006-.006-.046-.069-.007-.006-.042-.07-.004-.006-.042-.069-.007-.01-.046-.069-.006-.01-.046-.068-.004-.007-.045-.072-.004-.01-.042-.069-.007-.007-.043-.068-.006-.007-.043-.072-.006-.01-.043-.069-.003-.007-.043-.072-.003-.006-.043-.07-.006-.01-.043-.071-.007-.01-.042-.072-.007-.01-.04-.072-.006-.007-.042-.072-.004-.007-.039-.072-.003-.007-.04-.072-.003-.01-.04-.072-.006-.01-.04-.072-.002-.01-.04-.075-.003-.007-.04-.072-.003-.01-.039-.072-.003-.01-.04-.072-.003-.01-.036-.075L2.561 95l-.04-.076-.003-.01-.04-.075-.006-.006-.036-.076-.003-.006-.036-.073-.003-.01-.037-.075v.003l-.036-.075-.006-.01-.036-.076-.004-.01-.036-.072-.003-.01-.036-.075-.003-.007-.036-.075-.004-.007-.032-.075-.004-.007-.036-.075-.003-.007-.036-.075-.003-.007-.036-.075-.004-.01-.032-.076-.004-.006-.036-.076-.003-.01-.036-.075-.003-.007-.033-.075-.004-.007-.032-.075-.004-.01-.032-.076-.004-.006-.03-.076-.002-.006-.033-.076-.004-.01-.03-.078-.002-.007-.033-.075-.003-.01-.03-.072-.003-.01-.033-.079-.003-.007-.03-.078-.003-.01-.03-.079-.003-.007-.03-.078-.003-.01-.03-.079-.002-.007-.03-.078-.003-.007-.026-.079-.004-.01-.03-.078-.003-.007-.026-.079-.003-.01-.026-.078-.004-.01-.03-.079-.002-.01-.027-.078-.003-.007-.026-.079-.003-.006-.027-.08-.003-.009-.026-.079-.003-.01-.027-.078-.003-.01-.026-.079-.003-.01-.027-.079-.003-.01-.023-.078-.003-.007-.026-.082-.003-.01-.023-.081-.004-.01-.023-.08L.941 91l-.023-.079-.003-.01-.023-.082-.003-.01-.023-.082-.004-.006-.023-.082-.003-.003-.023-.083-.003-.006-.02-.079-.003-.006-.02-.08v-.006l-.023-.082v-.01l-.02-.078-.003-.01-.02-.08-.003-.009-.02-.082h.004l-.02-.082-.003-.007-.02-.082-.003-.006-.02-.082-.003-.007-.02-.082.004-.003-.02-.082-.003-.01-.02-.082-.003-.01-.016-.082-.004-.01-.02-.082-.003-.007-.016-.082-.003-.01-.017-.081-.003-.01-.016-.082-.017-.082v-.01l-.016-.086v-.01l-.017-.082-.003-.01-.02-.078v-.01l-.016-.089-.003-.01-.017-.085-.003-.01-.013-.082-.003-.01-.013-.082v-.01l-.014-.082v-.01l-.013-.081-.003-.01-.013-.082v.003l-.013-.082v-.007l-.013-.082v-.01l-.013-.082v-.01l-.014-.082v-.006l-.01-.086v-.01l-.01-.081V87.5l-.012-.085-.004-.01-.01-.082v-.01l-.01-.085-.003-.01-.01-.086v-.01l-.01-.085-.003-.01-.01-.085v-.01l-.01-.085-.003-.007-.01-.085-.006-.085v-.01l-.01-.086-.003-.01-.01-.085v-.01l-.006-.085-.004-.01-.006-.085v-.01l-.007-.085v-.01l-.006-.086-.007-.085v-.01l-.006-.085v-.01l-.007-.085v-.106L.02 85.63v-.01l-.004-.085v-.01l-.003-.085-.003-.01-.003-.085v-.092l-.004-.085v-.01L0 85.073V43.518l.003-.082v-.105l.004-.085v-.302l.003-.085v-.007l.003-.085v-.01l.003-.086v-.01l.004-.085v-.006l.003-.086v-.01l.003-.085v-.01l.007-.088v-.01l.006-.086v-.006l.004-.085v-.01l.006-.086v-.01l.003-.085v-.01l.004-.085v-.01l.006-.085v-.01l.007-.085v-.01l.01-.086v-.01l.006-.085.004-.006.006-.086v-.006l.01-.086v-.006l.01-.085.003-.01.01-.086v-.01l.01-.085v-.006l.01-.086v-.006l.01-.086.003-.01.01-.085v-.01l.01-.082v-.01l.01-.085v-.01L.2 40.41l.003-.01.01-.082v-.01l.013-.085v-.01l.01-.085.003-.01.01-.082.004-.01.013-.086.003-.006.013-.085v-.007l.013-.085v-.007l.013-.082.004-.01.013-.082v-.01l.023-.085.003-.01.013-.082v-.01l.016-.082v-.006l.017-.083v-.006l.016-.085.003-.007.017-.082.003-.007.017-.082.003-.01.016-.082.003-.01.017-.081v-.01l.016-.082v-.007l.017-.082.003-.007.016-.082.004-.006.02-.082v-.01l.019-.082.003-.01.017-.082.003-.01.02-.082v-.01l.02-.082.003-.01.02-.082v-.01l.019-.082.003-.006.02-.082v-.007l.02-.082.003-.01.023-.082v-.006l.023-.082v-.007l.023-.082.003-.01.023-.082v-.01l.023-.082.003-.01.023-.079.003-.006.023-.082.004-.008.023-.082.003-.01.023-.08.003-.007.026-.082.004-.007.023-.078.003-.007.023-.08.003-.006.023-.082.003-.01.027-.08.003-.01.026-.078v-.007l.026-.079v-.01l.027-.078.003-.007.026-.079.003-.01.027-.078.003-.01.026-.079.003-.01.027-.078.003-.007.03-.079.003-.006.026-.08.003-.007.026-.079.004-.007.03-.078.002-.007.03-.079v-.006l.03-.08.003-.006.03-.078.003-.01.03-.079.002-.007.03-.078.003-.01.033-.076.003-.006.033-.08.003-.006.033-.078.003-.01.033-.079.003-.01.033-.079.004-.01.032-.078.004-.01.032-.079.004-.01.032-.079.004-.008.033-.075.003-.01.033-.076.003-.01.033-.078.003-.007.036-.079.003-.006.036-.076.004-.006.032-.076.004-.01.036-.075.003-.007.036-.075.003-.007.037-.075.003-.007.036-.075.003-.01.036-.076.003-.006.037-.076.003-.01.036-.075.003-.006.036-.076.004-.007.036-.075.003-.007.036-.075.003-.007.04-.072.003-.006.04-.076.006-.01.04-.075.002-.007.04-.075.003-.01.04-.072.003-.007.039-.072.003-.007.04-.072.003-.01.04-.072.006-.007.04-.072.002-.01.04-.072.006-.006.04-.073.003-.006.04-.072.006-.01.043-.072.003-.007.04-.072.002-.007.043-.072.003-.007.043-.072.003-.006.043-.073.006-.006.043-.072.003-.007.043-.072.007-.007.042-.072.003-.006.043-.073.007-.006.042-.072.004-.007.045-.072.007-.01.046-.072.003-.007.043-.069.006-.006.046-.07.007-.006.043-.072.003-.007.046-.069.003-.006.046-.07.006-.006.046-.072.007-.006.046-.07.003-.01.046-.068.003-.007.046-.069.004-.006.049-.07.006-.006.046-.069.007-.006.049-.07.003-.006.05-.069.003-.006.049-.07.003-.006.05-.069.006-.006.05-.07.002-.006.05-.069.006-.006.05-.066.003-.006.049-.07.006-.006.05-.065.006-.007.05-.066.006-.006.049-.066.007-.006.049-.066.003-.007.05-.065.006-.007.052-.066.007-.006.052-.066.007-.006.052-.066.007-.007.052-.065.007-.007.052-.065.007-.01.052-.066.004-.006.052-.066.007-.007.052-.065.007-.007.052-.062.007-.007.052-.065.007-.007.052-.066.007-.006.056-.063.006-.006.053-.066.006-.006.053-.063.006-.006.053-.066.006-.007.056-.065.003-.007.056-.062.006-.007.056-.062.007-.007.056-.062.006-.007.056-.062.003-.006.056-.063.006-.006.056-.063.007-.006.055-.063.004-.006.056-.063.006-.006.06-.063.002-.006.06-.062.006-.007.062-.06.007-.006.059-.062.006-.007.06-.062.006-.007.059-.059.007-.006.059-.06.006-.006.06-.059.006-.006.062-.06.007-.006.059-.06.006-.006.06-.059.006-.006.059-.06.006-.006.06-.06.006-.006.059-.059.007-.006.059-.06.006-.006.06-.06.006-.006.062-.055.007-.007.062-.056.006-.006.063-.06.006-.006.063-.06.006-.002.062-.056.007-.003.062-.056.007-.007.062-.056.007-.006.062-.056.007-.007.062-.055.007-.004.065-.055.007-.007.065-.056.007-.006.065-.056.007-.007.066-.052.006-.007.066-.052.006-.007.063-.052.006-.007.066-.053.006-.006.066-.053.006-.003.066-.052.007-.007.065-.053.007-.006.065-.053.007-.006.069-.053.006-.006.066-.053.006-.006.07-.053.006-.006.069-.053.006-.006L9.11 25l.006-.003.07-.053.006-.006.065-.053.007-.006.069-.05.006-.006.07-.053.006-.006.069-.05.006-.003.07-.05.009-.006.069-.049.006-.003.07-.05.006-.006.069-.052.006-.004.072-.049.007-.007.069-.049.01-.003.068-.05.007-.003.069-.049.006-.003.073-.05.006-.006.069-.05.007-.002.072-.046.006-.004.07-.049.009-.006.072-.046.007-.007.072-.05.006-.006.073-.046.01-.003.071-.046.007-.007.072-.046.007-.003.072-.046.006-.003.073-.046.006-.003.072-.046.01-.004.072-.042h.004l32.96-20.351.003-.003.069-.043.006-.003.072-.046.01-.007.072-.042.01-.007.072-.043.01-.006.072-.043.01-.003.076-.043.006-.006.072-.043.01-.003.072-.043.007-.003.075-.04.007-.006.075-.04.007-.006.072-.04.01-.003.075-.04.007-.006.072-.04.01-.006.072-.04.01-.006.072-.04.006-.006.076-.04.006-.002.073-.04.01-.003.071-.04.01-.003.076-.04.01-.002.075-.04.007-.003.075-.036.01-.003.075-.037.01-.003.072-.036.01-.003.075-.036.007-.004.075-.036.01-.003.076-.036.01-.007.075-.036.01-.003.075-.036.01-.003.076-.033.01-.004.075-.032.006-.007.076-.033.006-.003.076-.033.01-.006.075-.033.01-.004.075-.032.01-.004.076-.032.01-.004.075-.033.01-.003.075-.033.01-.003.075-.03.01-.003.076-.033.01-.003.078-.033.01-.003.079-.033.01-.006.075-.03.006-.003.08-.03.009-.003.075-.03.007-.003.079-.03.01-.003.078-.026.01-.003.079-.03.01-.003.078-.03.01-.003.079-.026.01-.003.078-.027.01-.003.076-.026.01-.004.078-.026.01-.003.075-.026.01-.004.079-.026.007-.003.078-.026.01-.004.079-.026.01-.003.078-.026.01-.004.079-.023.006-.003.08-.023.009-.003.079-.023h.01l.078-.023.01-.004.079-.023.006-.003.079-.023.007-.003.078-.023.01-.003.079-.023.01-.004.078-.023.01-.003.079-.02.01-.003.078-.02.007-.003.079-.023.008-.003.082-.02h.006l.079-.023h.01l.08-.02.01-.003.082-.02.01-.003.079-.02h.01l.082-.019h.01l.078-.02.01-.003.079-.016.01-.004.078-.02.01-.003.079-.016h.01l.079-.017.01-.003.078-.016h.007L51.09.49l.01-.003.082-.016h.007l.082-.017.006-.003.082-.016.01-.004.082-.016.01-.003.082-.014h.01l.078-.013.01-.003.082-.016.01-.004.082-.013h.01l.079-.013.01-.003.081-.013.01-.004.079-.013h.007l.078-.013h.01l.082-.013.01-.003.082-.013h.01l.082-.014h.01l.081-.013h.01l.082-.01h.01l.079-.01h.01l.082-.01.01-.002.081-.01.007-.004.082-.006H53l.079-.01h.01l.078-.01h.01l.082-.01h.01l.082-.01h.01l.078-.006h.01l.082-.01.01-.003.082-.007.01-.003.082-.007h.01l.08-.006h.01l.082-.007h.01l.082-.003.01-.003.082-.007.006-.003.082-.003h.01l.082-.007h.007l.082-.003h.01L54.44.06h.01l.082-.003h.01l.082-.003.01-.003.082-.004h.01l.082-.003h.01L54.9.042h.01l.081-.004h.01l.082-.003h.007l.082-.003h.101l.082-.003h.19L55.565 0zm-.075 8.862h-.054l-.054.001h-.054l-.055.001-.056.002-.056.001-.055.004-.056.003-.056.003-.052.004-.056.003-.053.003-.052.003-.053.004-.055.003-.053.003-.056.007-.055.006-.053.007-.056.006-.055.007-.056.007-.052.006-.056.007-.053.006-.052.007-.056.006-.052.007-.053.007-.052.006-.053.007-.056.006-.052.01-.052.007-.056.01-.053.01-.052.01-.053.009-.052.01-.053.01-.052.01-.053.006-.055.01-.053.01-.055.01-.053.01-.052.01-.053.01-.052.012-.053.013-.052.014-.053.01-.052.01-.053.012-.052.014-.053.013-.052.013-.053.013-.052.013-.053.013-.052.013-.052.013-.053.014-.052.016-.053.013-.052.017-.05.016-.052.016-.052.017-.053.016-.052.017-.053.016-.049.016-.052.017-.053.02-.052.016-.053.016-.052.02-.053.016-.052.017-.05.016-.052.02-.052.02-.053.02-.05.02-.052.019-.049.02-.049.02-.052.022-.053.02-.052.02-.053.02-.049.022-.05.02-.052.023-.049.023-.049.023-.05.023-.052.023-.049.023-.052.023-.05.023-.049.023-.049.023-.052.023-.05.023-.049.023-.049.026-.05.026-.048.023-.05.026-.049.023-.049.027-.05.026-.048.026-.05.026-.049.027-.049.03-.046.025-.049.027-.046.026-.049.03-.05.029-.048.03-.046.026-.05.03-.045.029-.05.03-.049.029-.052.033-32.924 20.311-.056.036-.052.033-.05.033-.049.033-.049.033-.05.032-.048.033-.05.033-.049.033-.049.033-.05.033-.048.032-.05.037-.045.032-.046.033-.05.033-.045.033-.046.033-.046.032-.046.033-.046.033-.046.033-.046.036-.046.033-.046.036-.046.036-.045.036-.046.036-.046.036-.046.037-.043.036-.046.036-.046.036-.042.036-.046.036-.046.036-.043.036-.046.036-.042.036-.043.037-.043.039-.042.04-.043.035-.042.037-.043.039-.043.04-.042.039-.043.04-.043.039-.042.039-.043.04-.042.039-.043.04-.043.038-.042.04-.04.04-.042.039-.04.042-.042.04-.04.042-.039.04-.04.042-.039.04-.04.042-.038.043-.043.043-.04.04-.039.042-.04.043-.038.042-.037.043-.039.043-.04.042-.039.043-.039.046-.04.043-.035.042-.036.043-.04.046-.036.042-.04.043-.035.046-.036.043-.036.046-.036.046-.037.046-.036.046-.036.046-.036.046-.033.045-.036.046-.036.046-.036.046-.036.046-.033.046-.032.046-.033.046-.033.05-.033.045-.033.046-.032.05-.033.045-.033.046-.033.046-.033.046-.03.05-.032.049-.033.046-.032.049-.03.05-.03.045-.029.05-.03.049-.029.049-.03.05-.032.048-.033.05-.03.049-.03.05-.029.048-.03.05-.029.049-.03.049-.029.05-.03.048-.029.05-.03.049-.029.052-.03.05-.029.049-.03.052-.026.05-.026.052-.026.053-.026.052-.026.05-.027.049-.026.052-.026.05-.026.052-.023.05-.027.052-.026.052-.026.053-.026.052-.027.053-.022.052-.023.053-.023.052-.023.053-.023.052-.023.053-.023.052-.023.053-.023.052-.02.053-.023.053-.023.055-.023.053-.023.052-.023.053-.02.052-.022.056-.023.053-.02.052-.02.056-.02.053-.019.055-.02.053-.02.056-.019.055-.02.056-.016.056-.02.053-.02.055-.016.056-.016.053-.017.056-.02.055-.016.053-.016.052-.016.056-.02.056-.016.056-.017.052-.016.056-.017.056-.016.056-.016.055-.017.056-.013.056-.013.056-.016.056-.014.055-.016.056-.013.056-.013.056-.013.059-.013.056-.014.056-.013.055-.013.056-.013.056-.013.056-.01.056-.013.055-.01.056-.01.06-.01.058-.01.06-.01.059-.009.055-.01.056-.01.06-.01.058-.01.056-.01.056-.009.056-.01.059-.006.059-.007.059-.007.056-.01.059-.01.056-.006.059-.006.059-.007.059-.006.059-.007.059-.007.06-.006.055-.007.059-.006.06-.004.058-.006.06-.007.058-.003.06-.003.058-.003.06-.004.059-.003.059-.003.059-.004.059-.003.059-.003.06-.003.058v.06l-.004.058-.003.06v.058l-.003.06v41.62l.003.06v.177l.003.055.004.06.003.059.003.059.003.059.004.059.003.059.003.059.004.06.006.058.003.06.004.058.003.06.006.055.007.06.007.055.003.06.006.055.007.056.007.056.006.055.007.06.006.055.007.056.006.06.007.058.006.056.007.06.01.055.01.056.01.056.01.055.01.06.009.055.01.056.01.056.01.056.013.055.01.056.01.056.01.056.012.056.013.055.01.056.013.056.013.056.014.056.013.055.013.056.013.056.013.056.013.052.017.053.013.056.013.055.013.056.016.056.013.053.014.055.013.053.016.056.013.052.017.056.016.056.016.052.017.056.016.056.017.052.016.056.02.053.02.052.019.053.02.052.016.053.02.056.02.052.02.053.019.052.02.053.02.052.019.053.02.052.02.053.019.052.023.053.023.052.02.053.02.052.019.053.02.052.02.053.022.052.023.053.023.052.023.053.023.053.023.052.023.053.023.052.023.053.023.052.023.053.023.049.026.052.026.05.026.052.027.05.026.049.026.049.026.05.026.048.027.05.03.049.025.049.027.05.026.049.03.049.029.049.026.05.026.048.027.05.03.049.025.05.03.045.03.05.029.045.03.05.029.049.03.046.029.046.03.046.029.046.03.049.029.05.033.045.03.046.029.05.03.045.029.046.033.046.032.046.033.05.033.045.033.046.033.046.032.046.033.046.033.046.033.046.036.046.036.046.033.046.033.046.032.046.033.046.036.042.036.043.036.046.036.043.036.046.037.042.036.043.036.043.036.042.036.043.036.043.036.042.036.043.036.043.036.042.036.043.04.043.039.042.036.043.04.04.039.042.04.04.038.042.037.043.039.042.04.04.039.04.039.039.04.039.039.043.039.039.04.04.039.039.039.04.04.039.042.039.04.04.039.039.042.04.04.039.039.039.043.04.042.035.043.037.043.039.042.04.043.035.042.037.043.039.043.04.042.035.046.037.046.036.046.036.043.036.042.036.046.036.043.036.046.033.042.036.046.036.046.036.046.036.043.033.046.036.046.033.046.036.045.036.046.033.046.033.05.033.045.033.046.032.046.033.046.033.046.033.046.033.05.033.048.03.05.032.045.033.05.033.049.032.046.03.049.03.049.03.05.029.048.03.05.029.052.03.05.029.048.03.056.032 34.328 20.088.042.027.036.02.04.019.039.02.04.02.035.022.04.02.04.02.038.02.04.022.04.02.039.02.039.02.04.02.039.019.039.02.04.02.039.019.036.02.039.02.04.02.039.015.04.02.038.017.04.016.04.016.039.02.039.02.04.016.039.02.039.016.04.017.039.016.039.017.04.016.039.016.039.017.04.016.039.017.04.013.042.016.039.017.04.016.039.016.04.017.038.013.04.016.04.013.039.014.042.013.04.013.036.013.085.026.082.027.082.023.082.022.082.023.082.023.082.023.082.023.082.023.082.02.082.02.082.02.082.016.082.02.082.016.082.016.082.017.082.013.081.016.082.013.082.014.086.013.082.013.085.01.085.01.085.01.086.006.082.007.085.006.082.007.085.006.085.007.082.006.082.004.082.003.086.003h.42l.085-.003h.085l.085-.003.085-.004.086-.006.085-.007.085-.003.086-.007.085-.006.085-.007.082-.006.085-.01.086-.01.082-.01.085-.01.082-.013.085-.013.082-.013.085-.013.082-.013.082-.017.082-.013.085-.016.082-.017.082-.02.082-.016.082-.02.082-.02.082-.019.082-.02.082-.023.082-.023.082-.023.082-.023.086-.026.039-.013.04-.013.039-.013.042-.013.04-.013.042-.014.04-.013.039-.013.043-.013.039-.013.04-.013.042-.017.04-.013.042-.013.04-.016.039-.013.039-.014.04-.013.042-.016.04-.013.039-.017.039-.016.04-.016.039-.017.039-.016.04-.017.039-.016.04-.017.038-.016.04-.016.04-.02.038-.02.04-.016.04-.02.039-.02.039-.016.04-.02.039-.02.039-.019.036-.02.04-.02.039-.02.039-.019.04-.02.039-.02.04-.019.038-.02.04-.02.036-.019.04-.02.039-.02.042-.022 38.03-21.214.046-.023.042-.023.04-.023.04-.023.038-.023.04-.027.042-.023.04-.023.04-.023.039-.022.039-.027.04-.026.039-.023.039-.023.04-.023.039-.026.039-.026.04-.023.039-.027.039-.023.036-.026.036-.026.036-.026.036-.027.036-.026.04-.026.036-.026.04-.027.035-.026.036-.026.036-.027.036-.026.037-.026.039-.026.036-.03.036-.026.036-.03.036-.026.036-.03.036-.029.036-.03.036-.026.037-.026.036-.03.032-.03.036-.029.037-.03.032-.025.036-.03.036-.033.033-.03.036-.029.033-.03.033-.029.033-.033.036-.03.033-.032.032-.03.033-.033.033-.032.033-.03.033-.033.032-.03.033-.032.033-.033.033-.033.033-.033.029-.032.033-.033.03-.033.032-.033.033-.033.033-.033.03-.032.029-.033.03-.033.029-.033.033-.033.03-.032.029-.033.03-.033.029-.033.03-.033.029-.033.03-.032.029-.037.03-.036.029-.036.03-.033.029-.032.03-.033.029-.036.03-.033.029-.036.026-.033.026-.036.026-.036.027-.033.03-.036.025-.036.027-.036.026-.037.026-.036.026-.036.027-.036.026-.036.026-.036.026-.036.027-.036.026-.036.026-.036.023-.037.023-.039.026-.04.026-.035.023-.037.023-.036.027-.04.026-.035.023-.036.023-.04.023-.04.023-.038.023-.04.023-.036.022-.04.023-.039.023-.036.023-.04.023-.039.023-.039.02-.04.02-.039.023-.04.023-.039.02-.039.022-.04.023-.039.02-.04.02-.038.02-.043.019-.04.023-.039.023-.04.02-.039.019-.04.02-.038.02-.043.02-.04.019-.039.02-.043.02-.039.019-.04.02-.042.02-.043.019-.042.02-.04.016-.04.016-.042.017-.043.016-.042.016-.04.017-.042.016-.043.017-.043.016-.039.016-.043.017-.042.016-.043.017-.043.016-.042.013-.043.013-.043.013-.042.013-.043.017-.043.016-.042.017-.043.016-.043.013-.042.017-.043.013-.043.013-.042.016-.043.013-.043.013-.042.014-.043.013-.043.01-.042.013-.043.013-.043.013-.042.013-.043.01-.043.01-.046.013-.042.01-.043.01-.046.013-.043.01-.042.01-.043.01-.043.009-.046.01-.042.01-.043.006-.046.01-.046.01-.043.006-.046.01-.042.01-.046.01-.046.01-.043.01-.046.006-.046.01-.046.007-.042.01-.043.006-.046.007-.046.006-.046.007-.046.006-.046.007-.046.006-.046.004-.046.006-.042.003-.046.007-.046.007-.043.006-.046.003-.046.004-.046.003-.046.003-.046.007-.046.003-.046.003-.045.004-.046.003-.046.003-.046.003-.046.004-.046.003-.046.003-.046.004-.046.003-.046v-.092l.003-.046V41.071l-.003-.04-.003-.043v-.043l-.004-.043v-.042l-.003-.043v-.043l-.003-.042-.004-.04-.003-.043-.003-.042-.003-.043-.004-.04-.003-.042-.003-.04-.004-.042-.006-.043-.003-.04-.004-.038-.006-.04-.003-.04-.007-.042-.003-.04-.007-.039-.006-.042-.004-.043-.003-.04-.007-.036-.013-.086-.01-.084-.013-.085-.013-.082-.016-.082-.017-.082-.013-.082-.016-.082-.02-.082-.02-.082-.02-.082-.019-.082-.02-.082-.02-.083-.019-.082-.023-.082-.023-.082-.023-.082-.026-.082-.023-.079-.026-.078-.026-.08-.027-.078-.026-.079-.03-.078-.029-.08-.03-.075-.029-.079-.03-.078-.029-.08-.033-.075-.03-.078-.032-.076-.033-.075-.033-.076-.036-.075-.032-.076-.036-.075-.037-.076-.036-.072-.039-.076-.036-.075-.04-.076-.039-.072-.04-.072-.038-.072-.04-.072-.04-.073-.042-.072-.042-.072-.043-.072-.046-.072-.043-.07-.042-.068-.046-.07-.046-.068-.046-.07-.046-.068-.046-.069-.046-.069-.049-.066-.049-.065-.05-.066-.048-.065-.05-.066-.052-.066-.053-.065-.052-.066-.052-.066-.053-.062-.056-.062-.052-.063-.056-.062-.056-.063-.055-.062-.056-.062-.056-.063-.059-.059-.059-.059-.059-.059-.059-.059-.059-.06-.062-.058-.063-.06-.062-.055-.062-.056-.063-.056-.062-.055-.062-.056-.066-.056-.065-.053-.066-.052-.062-.053-.07-.055-.029-.023-.032-.027-.033-.026-.033-.026-.033-.026-.033-.023-.032-.027-.033-.026-.036-.026-.036-.026-.033-.027-.033-.026-.033-.026-.032-.023-.033-.026-.036-.027-.033-.023-.033-.023-.036-.026-.036-.023-.036-.023-.033-.023-.036-.023-.036-.023-.036-.023-.036-.023-.036-.023-.036-.023-.036-.023-.037-.023-.036-.023-.036-.02-.036-.019-.042-.023L62.044 10.64l-.053-.033-.047-.026-.05-.03-.049-.029-.048-.027-.049-.026-.048-.027-.049-.026-.049-.026-.05-.027-.047-.026-.05-.026-.049-.026-.049-.027-.05-.026-.048-.026-.05-.026-.05-.023-.049-.027-.049-.023-.05-.023-.048-.026-.051-.023-.05-.023-.049-.023-.05-.023-.05-.023-.05-.02-.05-.022-.05-.023-.049-.023-.05-.02-.05-.02-.052-.02-.051-.022-.052-.02-.052-.023-.053-.02-.05-.02-.051-.02L60 9.652l-.052-.02-.053-.02-.049-.019-.05-.016-.048-.017-.053-.02-.052-.016-.05-.016-.052-.017-.052-.016-.05-.016-.052-.017-.053-.016-.052-.017-.05-.016-.052-.017-.052-.016-.053-.016-.052-.013-.053-.017-.052-.013-.053-.016-.052-.014-.052-.013-.053-.013-.052-.016-.053-.013-.052-.013-.053-.01-.052-.013-.053-.014-.052-.013-.053-.01-.052-.013-.053-.01-.052-.01-.053-.013-.052-.01-.052-.01-.053-.009-.052-.01-.053-.01-.052-.01-.056-.01-.053-.006-.052-.007-.053-.006L57.5 9l-.052-.01-.053-.01-.052-.006-.056-.01-.053-.006-.052-.01-.053-.007-.052-.006-.052-.007-.053-.006-.052-.007-.056-.007-.053-.003-.052-.006-.053-.007-.052-.003-.052-.004-.053-.003-.052-.003-.053-.003-.056-.004-.055-.003-.053-.003-.052-.004h-.053l-.052-.003-.053-.003h-.055l-.053-.003-.052-.004-.05-.003-.052-.003h-.108l-.053-.004h-.105l-.052.022z" fill="#C9177E"/><path fill="#FFF" d="M31 97V29h14.201v24.769h23.557V29H83v68H68.758V67.267H45.2V97z"/></g></svg>