<?xml version="1.0" encoding="UTF-8"?>
<svg width="14px" height="14px" viewBox="0 0 14 14" version="1.1" xmlns="http://www.w3.org/2000/svg" xmlns:xlink="http://www.w3.org/1999/xlink">
    <!-- Generator: sketchtool 53.2 (72643) - https://sketchapp.com -->
    <title>37D30CF9-6E57-488E-804E-15DB8A535325</title>
    <desc>Created with sketchtool.</desc>
    <g id="Docs" stroke="none" stroke-width="1" fill="none" fill-rule="evenodd">
        <g id="Docs-Icon" transform="translate(-185.000000, -30.000000)" fill-rule="nonzero">
            <g id="importData" transform="translate(180.000000, 25.000000)">
                <path d="M6,5.5 C5.72385763,5.5 5.5,5.72385763 5.5,6 L5.5,18 C5.5,18.2761424 5.72385763,18.5 6,18.5 L18,18.5 C18.2761424,18.5 18.5,18.2761424 18.5,18 L18.5,6 C18.5,5.72385763 18.2761424,5.5 18,5.5 L6,5.5 Z" id="Rectangle-22-Copy" stroke="#151617"></path>
                <path d="M11.139716,9 C11.139716,9 11.139716,9.95043058 11.139716,11.8512917 L9,11.8512917 L11.9166667,14.8333333 L14.8333333,11.8512917 L12.7563832,11.8512917 L12.7563832,9 C11.6786051,9 11.139716,9 11.139716,9 Z" id="Path-5-Copy" fill="#151617"></path>
            </g>
        </g>
    </g>
</svg>