<?xml version="1.0" encoding="UTF-8"?>
<svg width="14px" height="14px" viewBox="0 0 14 14" version="1.1" xmlns="http://www.w3.org/2000/svg" xmlns:xlink="http://www.w3.org/1999/xlink">
    <!-- Generator: sketchtool 53.2 (72643) - https://sketchapp.com -->
    <title>706D569D-507D-4408-B98C-22DD6DC413DC</title>
    <desc>Created with sketchtool.</desc>
    <g id="Docs" stroke="none" stroke-width="1" fill="none" fill-rule="evenodd">
        <g id="Docs-Icon" transform="translate(-101.000000, -114.000000)" fill-rule="nonzero">
            <g id="js" transform="translate(96.000000, 109.000000)">
                <rect id="Rectangle" fill="#F7DF1E" x="5" y="5" width="14" height="14"></rect>
                <path d="M14.4044444,15.9375556 C14.6864444,16.398 15.0533333,16.7364444 15.7022222,16.7364444 C16.2473333,16.7364444 16.5955556,16.464 16.5955556,16.0875556 C16.5955556,15.6364444 16.2377778,15.4766667 15.6377778,15.2142222 L15.3088889,15.0731111 C14.3595556,14.6686667 13.7288889,14.162 13.7288889,13.0908889 C13.7288889,12.1042222 14.4806667,11.3531111 15.6555556,11.3531111 C16.492,11.3531111 17.0933333,11.6442222 17.5266667,12.4064444 L16.5022222,13.0642222 C16.2766667,12.6597778 16.0333333,12.5004444 15.6555556,12.5004444 C15.2702222,12.5004444 15.026,12.7448889 15.026,13.0642222 C15.026,13.4588889 15.2704444,13.6186667 15.8348889,13.8631111 L16.1637778,14.004 C17.2815556,14.4833333 17.9126667,14.972 17.9126667,16.0706667 C17.9126667,17.2551111 16.9822222,17.904 15.7326667,17.904 C14.5108889,17.904 13.7215556,17.3217778 13.3353333,16.5586667 L14.4044444,15.9375556 Z M9.75711111,16.0515556 C9.96377778,16.4182222 10.1517778,16.7282222 10.6037778,16.7282222 C11.036,16.7282222 11.3086667,16.5591111 11.3086667,15.9015556 L11.3086667,11.4282222 L12.6242222,11.4282222 L12.6242222,15.9193333 C12.6242222,17.2815556 11.8255556,17.9015556 10.6597778,17.9015556 C9.60644444,17.9015556 8.99644444,17.3564444 8.68622222,16.6998889 L9.75711111,16.0515556 Z" id="Shape" fill="#000000"></path>
            </g>
        </g>
    </g>
</svg>