<?xml version="1.0" encoding="UTF-8"?>
<svg width="10px" height="7px" viewBox="0 0 10 7" version="1.1" xmlns="http://www.w3.org/2000/svg" xmlns:xlink="http://www.w3.org/1999/xlink">
    <!-- Generator: sketchtool 53.2 (72643) - https://sketchapp.com -->
    <title>0DA45475-4749-4B1D-8616-2E9A8F146F56</title>
    <desc>Created with sketchtool.</desc>
    <g id="Docs" stroke="none" stroke-width="1" fill="none" fill-rule="evenodd">
        <g id="Docs-Icon" transform="translate(-229.000000, -160.000000)" fill="#000000" fill-rule="nonzero">
            <g id="jsBw" transform="translate(222.000000, 151.000000)">
                <path d="M12.7182222,13.5844444 C13.0002222,14.0448889 13.3671111,14.3833333 14.016,14.3833333 C14.5611111,14.3833333 14.9093333,14.1108889 14.9093333,13.7344444 C14.9093333,13.2833333 14.5515556,13.1235556 13.9515556,12.8611111 L13.6226667,12.72 C12.6733333,12.3155556 12.0426667,11.8088889 12.0426667,10.7377778 C12.0426667,9.75111111 12.7944444,9 13.9693333,9 C14.8057778,9 15.4071111,9.29111111 15.8404444,10.0533333 L14.816,10.7111111 C14.5904444,10.3066667 14.3471111,10.1473333 13.9693333,10.1473333 C13.584,10.1473333 13.3397778,10.3917778 13.3397778,10.7111111 C13.3397778,11.1057778 13.5842222,11.2655556 14.1486667,11.51 L14.4775556,11.6508889 C15.5953333,12.1302222 16.2264444,12.6188889 16.2264444,13.7175556 C16.2264444,14.902 15.296,15.5508889 14.0464444,15.5508889 C12.8246667,15.5508889 12.0353333,14.9686667 11.6491111,14.2055556 L12.7182222,13.5844444 Z M8.07088889,13.6984444 C8.27755556,14.0651111 8.46555556,14.3751111 8.91755556,14.3751111 C9.34977778,14.3751111 9.62244444,14.206 9.62244444,13.5484444 L9.62244444,9.07511111 L10.938,9.07511111 L10.938,13.5662222 C10.938,14.9284444 10.1393333,15.5484444 8.97355556,15.5484444 C7.92022222,15.5484444 7.31022222,15.0033333 7,14.3467778 L8.07088889,13.6984444 Z" id="Shape"></path>
            </g>
        </g>
    </g>
</svg>