<svg width="42" height="42" viewBox="0 0 42 42" xmlns="http://www.w3.org/2000/svg"><g fill="none" fill-rule="evenodd"><path stroke-opacity=".012" stroke="#000" stroke-width="0" d="M1 1h40v40H1z"/><g stroke="#FCA00F" stroke-linecap="round" stroke-linejoin="round"><path d="M38.5 20.997c0 4.444-2.222 6.666-6.667 6.666-4.444 0-6.666-2.222-6.666-6.666 0-4.445 2.222-6.667 6.666-6.667 4.445 0 6.667 2.222 6.667 6.667z"/><path d="M35.167 20.997c0 2.222-1.111 3.333-3.334 3.333-2.222 0-3.333-1.111-3.333-3.333 0-2.223 1.111-3.334 3.333-3.334 2.223 0 3.334 1.111 3.334 3.334z"/><path d="M31.612 31c-4.705 5.775-10.566 7.414-17.583 4.917C7.01 33.421 3.503 28.448 3.503 21c0-7.448 3.508-12.42 10.526-14.917C21.046 3.586 26.907 5.225 31.612 11"/><path d="M18.5 17.663l2.5 3.334-2.5 3.333M10.167 20.997H21"/></g></g></svg>