<svg width="32" height="32" viewBox="0 0 32 32" xmlns="http://www.w3.org/2000/svg">
    <g fill="none" fill-rule="evenodd">
        <path stroke-opacity=".012" stroke="#000" stroke-width="0" d="M0 0h32v32H0z"/>
        <g stroke="#738A94" stroke-linecap="round" stroke-linejoin="round">
            <path d="M7.333 16c0 2.222-1.11 3.333-3.333 3.333-2.222 0-3.333-1.11-3.333-3.333 0-2.222 1.11-3.333 3.333-3.333 2.222 0 3.333 1.11 3.333 3.333zM19.333 16c0 2.222-1.11 3.333-3.333 3.333-2.222 0-3.333-1.11-3.333-3.333 0-2.222 1.11-3.333 3.333-3.333 2.222 0 3.333 1.11 3.333 3.333zM31.333 16c0 2.222-1.11 3.333-3.333 3.333-2.222 0-3.333-1.11-3.333-3.333 0-2.222 1.11-3.333 3.333-3.333 2.222 0 3.333 1.11 3.333 3.333z"/>
        </g>
    </g>
</svg>
