<?xml version="1.0" encoding="UTF-8"?>
<svg width="24px" height="24px" viewBox="0 0 24 24" version="1.1" xmlns="http://www.w3.org/2000/svg" xmlns:xlink="http://www.w3.org/1999/xlink">
    <!-- Generator: sketchtool 53.2 (72643) - https://sketchapp.com -->
    <title>C0452E2B-B18D-42B3-B434-226495AD1F47</title>
    <desc>Created with sketchtool.</desc>
    <g id="Docs" stroke="none" stroke-width="1" fill="none" fill-rule="evenodd">
        <g id="Docs-Icon" transform="translate(-54.000000, -193.000000)">
            <g id="php-bw" transform="translate(54.000000, 193.000000)">
                <path d="M1,0 L23,0 C23.5522847,-1.01453063e-16 24,0.44771525 24,1 L24,23 C24,23.5522847 23.5522847,24 23,24 L1,24 C0.44771525,24 6.76353751e-17,23.5522847 0,23 L0,1 C-6.76353751e-17,0.44771525 0.44771525,1.01453063e-16 1,0 Z" id="Rectangle-14" fill="#E5EFFA"></path>
                <path d="M8.95120365,11.7359074 C9.245954,11.7359074 9.46599681,11.8045802 9.60522452,11.9399506 C9.74296198,12.0739321 9.83809318,12.3060617 9.88795521,12.629858 C9.93444588,12.9325123 9.91673399,13.1438395 9.83533256,13.2578827 C9.75209887,13.3743642 9.57214603,13.4334383 9.30048221,13.4334383 L8.82944353,13.4334383 L8.56830913,11.7359074 L8.95120365,11.7359074 Z M7.41056198,9.64485802 C7.38869695,9.64485802 7.36793128,9.6572037 7.3540305,9.67856173 C7.34010528,9.69988889 7.33446191,9.72797531 7.33863947,9.75510494 L8.03069816,14.2535926 C8.03739204,14.2970802 8.06756333,14.3285 8.1026451,14.3285 L9.5942065,14.3285 C10.0629732,14.3285 10.4118853,14.1676975 10.6311952,13.8505062 C10.8516777,13.5316481 10.9197647,13.0859383 10.8335505,12.525784 C10.7984687,12.2975741 10.7381262,12.0856296 10.6542084,11.8958765 C10.570193,11.7059074 10.4591577,11.5301358 10.324132,11.3733457 C10.1625018,11.1822346 9.97956846,11.0436543 9.78090208,10.9621111 C9.58538719,10.8816481 9.3342936,10.8408457 9.03460835,10.8408457 L8.43064496,10.8408457 L8.25816775,9.7197963 C8.25147387,9.67627778 8.22132701,9.64485802 8.18624524,9.64485802 L7.41056198,9.64485802 Z" id="path3486" fill="#151617" fill-rule="nonzero" transform="translate(9.103506, 11.986679) scale(-1, 1) rotate(-180.000000) translate(-9.103506, -11.986679) "></path>
                <path d="M8.8898643,13.3408302 L9.30048709,13.3408302 C9.6283648,13.3408302 9.74225839,13.2499352 9.78095583,13.1957685 C9.84515839,13.1058302 9.85727577,12.9162006 9.81601316,12.6474043 C9.76964464,12.3464784 9.6836992,12.1331142 9.56052214,12.0132994 C9.43441345,11.8906451 9.22939521,11.8284846 8.95120853,11.8284846 L8.65721551,11.8284846 L8.8898643,13.3408302 Z M9.59421138,14.4210772 L8.10262556,14.4210772 C8.03246202,14.4210772 7.97214386,14.3582377 7.95875611,14.2712315 L7.26669742,9.77274383 C7.25834229,9.7184537 7.26962905,9.66231173 7.29745504,9.61962654 C7.32530547,9.57694136 7.36678795,9.55225 7.41056687,9.55225 L8.1862257,9.55225 C8.25641366,9.55225 8.31673182,9.61508951 8.33011957,9.70209568 L8.49106573,10.7482377 L9.03461323,10.7482377 C9.341994,10.7482377 9.60075868,10.7905833 9.80365148,10.874071 C10.0123098,10.9597191 10.2042823,11.1049352 10.3741944,11.3056759 C10.5147169,11.4690093 10.6304672,11.6523426 10.7181716,11.8506451 C10.8059004,12.0490093 10.8689303,12.270213 10.9055023,12.5081142 C10.9962605,13.0977438 10.9225302,13.5699043 10.6863879,13.9113858 C10.452542,14.2495957 10.0850629,14.4210772 9.59421138,14.4210772 L9.59421138,14.4210772 Z M8.47938809,11.6432994 L8.95120853,11.6432994 C9.26393952,11.6432994 9.49688147,11.717713 9.64993667,11.866571 C9.8030163,12.0154599 9.90625832,12.2639475 9.95990704,12.6121574 C10.0112349,12.9464784 9.98785519,13.1824043 9.88976793,13.3198426 C9.79155853,13.4572809 9.59516416,13.5260154 9.30048709,13.5260154 L8.76903254,13.5260154 L8.47938809,11.6432994 L8.47938809,11.6432994 Z M9.59421138,14.235892 C10.0429209,14.235892 10.3702611,14.0871265 10.5760122,13.7895648 C10.7817389,13.4920031 10.8436939,13.0766636 10.7616085,12.5434228 C10.7278215,12.3237623 10.6706793,12.122929 10.5902306,11.9409846 C10.5096842,11.7589167 10.4045122,11.5924352 10.2745436,11.4414784 C10.1196561,11.2583611 9.94759422,11.1278673 9.75826017,11.0501512 C9.56892613,10.9722191 9.32777563,10.9334228 9.03461323,10.9334228 L8.37020953,10.9334228 L8.1862257,9.73743519 L7.41056687,9.73743519 L8.10262556,14.235892 L9.59421138,14.235892 L9.59421138,14.235892 Z" id="path3490" fill="#E5EFFA" fill-rule="nonzero" transform="translate(9.103552, 11.986664) scale(-1, 1) rotate(-180.000000) translate(-9.103552, -11.986664) "></path>
                <path d="M12.6120348,8.44887037 C12.5901454,8.44887037 12.5694041,8.46121605 12.5555033,8.48257407 C12.5415537,8.50390123 12.5359103,8.53195679 12.5400879,8.55911728 L12.8462227,10.5495185 C12.8753435,10.7388086 12.868161,10.8746728 12.8260189,10.9320802 C12.8002207,10.9671728 12.7227281,11.0260309 12.4935972,11.0260309 L11.9389828,11.0260309 L11.554085,8.52380864 C11.5473912,8.48029012 11.5172199,8.44887037 11.4821381,8.44887037 L10.7125868,8.44887037 C10.6906974,8.44887037 10.6699561,8.46121605 10.6560309,8.48257407 C10.6421057,8.50390123 10.6364623,8.53198765 10.6406399,8.55911728 L11.3326986,13.0576049 C11.3393925,13.1010926 11.3695637,13.1325123 11.4046455,13.1325123 L12.1741968,13.1325123 C12.1960863,13.1325123 12.2168275,13.1201667 12.2307527,13.0988395 C12.2446779,13.0774815 12.2503213,13.0494259 12.2461437,13.0222654 L12.0791389,11.9365247 L12.6757732,11.9365247 C13.1302971,11.9365247 13.4385085,11.8352901 13.6180216,11.6270185 C13.8010038,11.4145494 13.8580972,11.0748272 13.7877382,10.6171728 L13.4657481,8.52380864 C13.4590543,8.48029012 13.4289074,8.44887037 13.3938012,8.44887037 L12.6120348,8.44887037 Z" id="path3494" fill="#151617" fill-rule="nonzero" transform="translate(12.228097, 10.790691) scale(-1, 1) rotate(-180.000000) translate(-12.228097, -10.790691) "></path>
                <path d="M12.1741992,13.2250895 L11.404648,13.2250895 C11.33446,13.2250895 11.2741418,13.16225 11.2607541,13.0752438 L10.5686954,8.57675617 C10.5603403,8.52246605 10.571627,8.46632407 10.5994774,8.42363889 C10.6273279,8.3809537 10.6688103,8.35626235 10.7125893,8.35626235 L11.4821405,8.35626235 C11.5523041,8.35626235 11.6126467,8.41910185 11.6260344,8.50610802 L11.9994012,10.9334228 L12.4935997,10.9334228 C12.7223396,10.9334228 12.770345,10.8716944 12.772275,10.8690401 C12.7861513,10.8501821 12.8044007,10.7628364 12.7742782,10.5671574 L12.4681434,8.57675617 C12.4597883,8.52246605 12.471075,8.46632407 12.4989254,8.42363889 C12.5267759,8.3809537 12.5682584,8.35626235 12.6120373,8.35626235 L13.3938037,8.35626235 C13.4639672,8.35626235 13.5243098,8.41910185 13.5376975,8.50610802 L13.8596631,10.5994722 C13.9352257,11.0908611 13.8705834,11.4594722 13.6676173,11.6951512 C13.4739347,11.9198735 13.1495017,12.0291019 12.6757757,12.0291019 L12.1680184,12.0291019 L12.3180931,13.0045648 C12.3264238,13.0588549 12.3151615,13.1150278 12.2873111,13.1576821 C12.2594606,13.2003673 12.2179782,13.2250895 12.1741992,13.2250895 M12.1741992,13.0399043 L11.9902154,11.8439167 L12.6757757,11.8439167 C13.1071397,11.8439167 13.4046751,11.7487932 13.5684307,11.5587932 C13.7321863,11.3686698 13.7812422,11.0606142 13.7157937,10.6347809 L13.3938037,8.54144753 L12.6120373,8.54144753 L12.9181721,10.5318179 C12.9530096,10.7582377 12.9402081,10.9126821 12.879719,10.9950278 C12.8192054,11.0773735 12.6904826,11.118608 12.4935997,11.118608 L11.878545,11.118608 L11.4821405,8.54144753 L10.7125893,8.54144753 L11.404648,13.0399043 L12.1741992,13.0399043" id="path3498" fill="#E5EFFA" fill-rule="nonzero" transform="translate(12.228121, 10.790676) scale(-1, 1) rotate(-180.000000) translate(-12.228121, -10.790676) "></path>
                <path d="M15.0053833,11.7359074 C15.3001336,11.7359074 15.5201765,11.8045802 15.6594042,11.9399506 C15.7971416,12.0739012 15.8922728,12.3060309 15.9421593,12.629858 C15.98865,12.9325123 15.9709381,13.1438395 15.8895122,13.2578827 C15.8062785,13.3743642 15.6263257,13.4334383 15.3546619,13.4334383 L14.8836232,13.4334383 L14.6224888,11.7359074 L15.0053833,11.7359074 Z M13.4647661,9.64485802 C13.442901,9.64485802 13.4221354,9.6572037 13.4082346,9.67856173 C13.3943094,9.69988889 13.3886416,9.72797531 13.3928191,9.75510494 L14.0848778,14.2535926 C14.0915961,14.2970802 14.121743,14.3285 14.1568492,14.3285 L15.6483861,14.3285 C16.1171772,14.3285 16.4660649,14.1676975 16.6853992,13.8505062 C16.9058818,13.531679 16.9739443,13.0859691 16.8877546,12.525784 C16.852624,12.2975741 16.7923058,12.0856296 16.7083881,11.8958765 C16.6243726,11.7059074 16.5133374,11.5301358 16.3783116,11.3733457 C16.2166814,11.1822346 16.0337481,11.0436543 15.8350817,10.9621111 C15.6395668,10.8816481 15.3884732,10.8408457 15.088788,10.8408457 L14.4848002,10.8408457 L14.3123963,9.7197963 C14.3056779,9.67627778 14.2755311,9.64485802 14.2404249,9.64485802 L13.4647661,9.64485802 Z" id="path3502" fill="#151617" fill-rule="nonzero" transform="translate(15.157694, 11.986679) scale(-1, 1) rotate(-180.000000) translate(-15.157694, -11.986679) "></path>
                <path d="M14.9440464,13.3408302 L15.3546692,13.3408302 C15.6825469,13.3408302 15.7964405,13.2499352 15.8351379,13.1957685 C15.8993649,13.1058302 15.9114823,12.9162006 15.8701952,12.6474352 C15.8238267,12.3464784 15.7378569,12.1331142 15.6147042,12.0132994 C15.4885955,11.8906451 15.2835773,11.8284846 15.0053906,11.8284846 L14.711422,11.8284846 L14.9440464,13.3408302 Z M15.6483935,14.4210772 L14.1568321,14.4210772 C14.0866685,14.4210772 14.0263504,14.3582377 14.0129626,14.2712315 L13.3209039,9.77274383 C13.3125488,9.7184537 13.3238356,9.66231173 13.3516616,9.61962654 C13.379512,9.57694136 13.4209945,9.55225 13.4647734,9.55225 L14.2404322,9.55225 C14.3105957,9.55225 14.3709383,9.61508951 14.3843261,9.70209568 L14.5452478,10.7482377 L15.0887953,10.7482377 C15.3961761,10.7482377 15.6549408,10.7905833 15.8578336,10.874071 C16.0664919,10.9597191 16.2585133,11.104966 16.4284253,11.3057377 C16.5689478,11.4690401 16.6846492,11.6523426 16.7723537,11.8506451 C16.8600825,12.0490093 16.9231124,12.270213 16.9596844,12.5081142 C17.0504426,13.0977747 16.9767123,13.5699352 16.74057,13.9114167 C16.5067241,14.2495957 16.1392695,14.4210772 15.6483935,14.4210772 L15.6483935,14.4210772 Z M14.5335946,11.6432994 L15.0053906,11.6432994 C15.3181216,11.6432994 15.5510636,11.717713 15.7041188,11.866571 C15.8572228,12.0154599 15.9604404,12.2639475 16.0140891,12.6121574 C16.0654414,12.9464784 16.0420617,13.1824043 15.94395,13.3198426 C15.8457406,13.4572809 15.6493462,13.5260154 15.3546692,13.5260154 L14.8232146,13.5260154 L14.5335946,11.6432994 L14.5335946,11.6432994 Z M15.6483935,14.235892 C16.0971029,14.235892 16.4244432,14.0871265 16.6301943,13.7895648 C16.8359455,13.4920031 16.897876,13.0766636 16.8157905,12.5434228 C16.7820036,12.3237623 16.7248613,12.122929 16.6444127,11.9409846 C16.5638663,11.7589167 16.4586943,11.5924352 16.3287257,11.4414784 C16.1738382,11.2583611 16.0017763,11.1278673 15.8124423,11.0501512 C15.6231082,10.9722191 15.3819577,10.9334228 15.0887953,10.9334228 L14.4243916,10.9334228 L14.2404322,9.73743519 L13.4647734,9.73743519 L14.1568321,14.235892 L15.6483935,14.235892 L15.6483935,14.235892 Z" id="path3506" fill="#E5EFFA" fill-rule="nonzero" transform="translate(15.157747, 11.986664) scale(-1, 1) rotate(-180.000000) translate(-15.157747, -11.986664) "></path>
            </g>
        </g>
    </g>
</svg>