<?xml version="1.0" encoding="UTF-8"?>
<svg width="15px" height="10px" viewBox="0 0 15 10" version="1.1" xmlns="http://www.w3.org/2000/svg" xmlns:xlink="http://www.w3.org/1999/xlink">
    <!-- Generator: sketchtool 53.2 (72643) - https://sketchapp.com -->
    <title>C0452E2B-B18D-42B3-B434-226495AD1F47</title>
    <desc>Created with sketchtool.</desc>
    <g id="Docs" stroke="none" stroke-width="1" fill="none" fill-rule="evenodd">
        <g id="Docs-Icon" transform="translate(-58.000000, -200.000000)">
            <g id="php-bw" transform="translate(54.000000, 193.000000)">
                <path d="M1,0 L23,0 C23.5522847,-1.01453063e-16 24,0.44771525 24,1 L24,23 C24,23.5522847 23.5522847,24 23,24 L1,24 C0.44771525,24 6.76353751e-17,23.5522847 0,23 L0,1 C-6.76353751e-17,0.44771525 0.44771525,1.01453063e-16 1,0 Z" id="Rectangle-14"></path>
                <path d="M6.53080358,12.3108708 C6.97292912,12.3108708 7.30299333,12.4187853 7.51183489,12.6315101 C7.71844108,12.8420525 7.86113788,13.2068276 7.93593093,13.7156504 C8.00566694,14.19125 7.9790991,14.5233355 7.85699696,14.7025463 C7.73214643,14.8855886 7.46221715,14.9784193 7.05472143,14.9784193 L6.34816341,14.9784193 L5.95646181,12.3108708 L6.53080358,12.3108708 Z M4.21984108,9.02493607 C4.18704354,9.02493607 4.15589504,9.04433642 4.13504386,9.07789903 C4.11415604,9.11141314 4.10569098,9.15554894 4.11195732,9.19818122 L5.15004536,16.2672332 C5.16008617,16.335571 5.20534311,16.3849449 5.25796576,16.3849449 L7.49530786,16.3849449 C8.19845786,16.3849449 8.72182602,16.1322553 9.05079087,15.6338117 C9.3815147,15.1327491 9.48364514,14.4323479 9.35432388,13.5521054 C9.30170123,13.1934899 9.21118734,12.8604343 9.08531074,12.5622509 C8.95928756,12.263728 8.79273467,11.9875154 8.59019611,11.741131 C8.34775081,11.4408135 8.07335081,11.2230445 7.77535123,11.0949052 C7.4820789,10.9684634 7.10543852,10.9043452 6.65591064,10.9043452 L5.74996555,10.9043452 L5.49124974,9.14269621 C5.48120893,9.07430996 5.43598863,9.02493607 5.38336598,9.02493607 L4.21984108,9.02493607 Z" id="path3486" fill="#54666D" fill-rule="nonzero" transform="translate(6.759257, 12.704940) scale(-1, 1) rotate(-180.000000) translate(-6.759257, -12.704940) "></path>
                <path d="M6.43879457,14.8328924 L7.05472875,14.8328924 C7.54654531,14.8328924 7.7173857,14.6900573 7.77543185,14.6049383 C7.8717357,14.4636067 7.88991177,14.1656173 7.82801786,13.7432231 C7.75846508,13.2703395 7.62954692,12.9350529 7.44478132,12.7467725 C7.25561828,12.55403 6.94809093,12.4563492 6.53081091,12.4563492 L6.08982138,12.4563492 L6.43879457,14.8328924 Z M7.49531519,16.5304233 L5.25793645,16.5304233 C5.15269115,16.5304233 5.0622139,16.4316755 5.04213228,16.2949515 L4.00404425,9.22589947 C3.99151155,9.14058642 4.00844168,9.05236332 4.05018068,8.9852866 C4.09195632,8.91820988 4.15418004,8.87940917 4.21984841,8.87940917 L5.38333666,8.87940917 C5.48861861,8.87940917 5.57909585,8.97815697 5.59917747,9.11488095 L5.8405967,10.7588183 L6.65591796,10.7588183 C7.11698912,10.7588183 7.50513613,10.8253616 7.80947534,10.9565564 C8.12246284,11.0911464 8.4104216,11.319343 8.66528965,11.6347928 C8.87607341,11.8914594 9.04969884,12.1795547 9.18125546,12.4911728 C9.31284873,12.802888 9.40739361,13.1504938 9.46225162,13.5243386 C9.5983889,14.4508995 9.48779339,15.192866 9.13357993,15.7294797 C8.78281113,16.2609524 8.23159254,16.5304233 7.49531519,16.5304233 L7.49531519,16.5304233 Z M5.82308025,12.1653439 L6.53081091,12.1653439 C6.99990739,12.1653439 7.34932031,12.2822795 7.57890311,12.5161993 C7.80852256,12.7501675 7.96338559,13.1406481 8.04385867,13.6878351 C8.12085044,14.2131966 8.08578089,14.5839374 7.93865002,14.7999118 C7.79133591,15.0158862 7.49674435,15.1238977 7.05472875,15.1238977 L6.25754692,15.1238977 L5.82308025,12.1653439 L5.82308025,12.1653439 Z M7.49531519,16.239418 C8.1683794,16.239418 8.65938976,16.0056437 8.96801647,15.5380467 C9.27660653,15.0704497 9.36953901,14.4177734 9.24641081,13.5798236 C9.19573036,13.2346429 9.110017,12.9190476 8.98934403,12.6331349 C8.86852448,12.3470282 8.71076647,12.0854145 8.51581348,11.8481966 C8.28348228,11.5604409 8.02538944,11.3553792 7.74138837,11.233254 C7.4573873,11.1107892 7.09566155,11.0498236 6.65591796,11.0498236 L5.65931241,11.0498236 L5.38333666,9.17041446 L4.21984841,9.17041446 L5.25793645,16.239418 L7.49531519,16.239418 L7.49531519,16.239418 Z" id="path3490" fill="#E5EFFA" fill-rule="nonzero" transform="translate(6.759327, 12.704916) scale(-1, 1) rotate(-180.000000) translate(-6.759327, -12.704916) "></path>
                <path d="M12.0220504,7.1455269 C11.9892162,7.1455269 11.9581043,7.16492725 11.9372531,7.19848986 C11.9163287,7.23200397 11.9078636,7.27609127 11.91413,7.31877205 L12.3733322,10.4465454 C12.4170134,10.7440013 12.4062397,10.9575022 12.3430265,11.0477138 C12.3043291,11.1028593 12.1880902,11.1953505 11.8443939,11.1953505 L11.0124724,11.1953505 L10.4351257,7.26328704 C10.4250849,7.19490079 10.3798279,7.1455269 10.3272053,7.1455269 L9.17287835,7.1455269 C9.14004416,7.1455269 9.1089323,7.16492725 9.08804448,7.19848986 C9.06715666,7.23200397 9.0586916,7.27613977 9.06495794,7.31877205 L10.103046,14.3878241 C10.1130868,14.4561618 10.1583437,14.5055357 10.2109664,14.5055357 L11.3652933,14.5055357 C11.3981275,14.5055357 11.4292394,14.4861354 11.4501272,14.4526213 C11.471015,14.4190586 11.4794801,14.3749713 11.4732137,14.3322906 L11.2227064,12.6261265 L12.1176579,12.6261265 C12.7994437,12.6261265 13.2617608,12.4670437 13.5310305,12.1397597 C13.8055038,11.8058796 13.8911438,11.2720304 13.7856054,10.5528593 L13.3026203,7.26328704 C13.2925795,7.19490079 13.2473592,7.1455269 13.1946999,7.1455269 L12.0220504,7.1455269 Z" id="path3494" fill="#54666D" fill-rule="nonzero" transform="translate(11.446144, 10.825531) scale(-1, 1) rotate(-180.000000) translate(-11.446144, -10.825531) "></path>
                <path d="M11.365297,14.6510141 L10.21097,14.6510141 C10.1056881,14.6510141 10.0152109,14.5522663 9.99512924,14.4155423 L8.9570412,7.3464903 C8.94450851,7.26117725 8.96143864,7.17295414 9.00321428,7.10587743 C9.04498992,7.03880071 9.10721364,7 9.17288201,7 L10.3272089,7 C10.4324542,7 10.5229681,7.0987478 10.5430497,7.23547178 L11.1030999,11.0498236 L11.8443976,11.0498236 C12.1875075,11.0498236 12.2595156,10.9528219 12.2624105,10.9486508 C12.2832251,10.9190168 12.3105991,10.7817593 12.2654155,10.4742637 L11.8062132,7.3464903 C11.7936805,7.26117725 11.8106106,7.17295414 11.8523863,7.10587743 C11.8941619,7.03880071 11.9563856,7 12.022054,7 L13.1947036,7 C13.2999489,7 13.3904628,7.0987478 13.4105444,7.23547178 L13.8934928,10.5250441 C14.0068367,11.2972266 13.9098733,11.8764727 13.6054241,12.2468254 C13.3149002,12.5999603 12.8282506,12.7716049 12.1176616,12.7716049 L11.3560257,12.7716049 L11.5811378,14.3044753 C11.5936338,14.3897884 11.5767403,14.47806 11.5349647,14.5450882 C11.4931891,14.6121649 11.4309653,14.6510141 11.365297,14.6510141 M11.365297,14.3600088 L11.0893212,12.4805996 L12.1176616,12.4805996 C12.7647077,12.4805996 13.2110108,12.3311199 13.4566442,12.0325485 C13.7022776,11.7337831 13.7758614,11.2496958 13.6776886,10.5805291 L13.1947036,7.29100529 L12.022054,7.29100529 L12.4812563,10.4187302 C12.5335125,10.7745326 12.5143103,11.017231 12.4235766,11.1466314 C12.3328062,11.2760317 12.1397221,11.3408289 11.8443976,11.3408289 L10.9218156,11.3408289 L10.3272089,7.29100529 L9.17288201,7.29100529 L10.21097,14.3600088 L11.365297,14.3600088" id="path3498" fill="#E5EFFA" fill-rule="nonzero" transform="translate(11.446180, 10.825507) scale(-1, 1) rotate(-180.000000) translate(-11.446180, -10.825507) "></path>
                <path d="M15.612073,12.3108708 C16.0541986,12.3108708 16.3842628,12.4187853 16.5931044,12.6315101 C16.7997105,12.842004 16.9424073,13.2067791 17.017237,13.7156504 C17.086973,14.19125 17.0604052,14.5233355 16.9382664,14.7025463 C16.8134159,14.8855886 16.5434866,14.9784193 16.1359909,14.9784193 L15.4294329,14.9784193 L15.0377313,12.3108708 L15.612073,12.3108708 Z M13.3011472,9.02493607 C13.2683497,9.02493607 13.2372011,9.04433642 13.21635,9.07789903 C13.1954622,9.11141314 13.1869604,9.15554894 13.1932268,9.19818122 L14.2313148,16.2672332 C14.2413923,16.335571 14.2866126,16.3849449 14.3392719,16.3849449 L16.5765773,16.3849449 C17.279764,16.3849449 17.8030955,16.1322553 18.132097,15.6338117 C18.4628208,15.1327976 18.5649146,14.4323964 18.43563,13.5521054 C18.3829341,13.1934899 18.2924568,12.8604343 18.1665802,12.5622509 C18.040557,12.263728 17.8740041,11.9875154 17.6714656,11.741131 C17.4290203,11.4408135 17.1546203,11.2230445 16.8566207,11.0949052 C16.5633484,10.9684634 16.186708,10.9043452 15.7371801,10.9043452 L14.8311984,10.9043452 L14.5725925,9.14269621 C14.562515,9.07430996 14.5172947,9.02493607 14.4646354,9.02493607 L13.3011472,9.02493607 Z" id="path3502" fill="#54666D" fill-rule="nonzero" transform="translate(15.840539, 12.704940) scale(-1, 1) rotate(-180.000000) translate(-15.840539, -12.704940) "></path>
                <path d="M15.5200677,14.8328924 L16.1360019,14.8328924 C16.6278184,14.8328924 16.7986588,14.6900573 16.856705,14.6049383 C16.9530455,14.4636067 16.9712215,14.1656173 16.909291,13.7432716 C16.8397382,13.2703395 16.7107834,12.9350529 16.5260544,12.7467725 C16.3368914,12.55403 16.0293641,12.4563492 15.612084,12.4563492 L15.1711312,12.4563492 L15.5200677,14.8328924 Z M16.5765883,16.5304233 L14.3392462,16.5304233 C14.2340009,16.5304233 14.1435237,16.4316755 14.1234421,16.2949515 L13.085354,9.22589947 C13.0728213,9.14058642 13.0897515,9.05236332 13.1314905,8.9852866 C13.1732661,8.91820988 13.2354898,8.87940917 13.3011582,8.87940917 L14.4646464,8.87940917 C14.5698917,8.87940917 14.6604056,8.97815697 14.6804872,9.11488095 L14.9218698,10.7588183 L15.7371911,10.7588183 C16.1982622,10.7588183 16.5864093,10.8253616 16.8907485,10.9565564 C17.203736,11.0911464 17.491768,11.3193915 17.7466361,11.6348898 C17.9574198,11.8915079 18.130972,12.1795547 18.2625286,12.4911728 C18.3941219,12.802888 18.4886667,13.1504938 18.5435247,13.5243386 C18.679662,14.450948 18.5690665,15.1929145 18.2148531,15.7295282 C17.8640843,16.2609524 17.3129023,16.5304233 16.5765883,16.5304233 L16.5765883,16.5304233 Z M14.90439,12.1653439 L15.612084,12.1653439 C16.0811805,12.1653439 16.4305934,12.2822795 16.6601762,12.5161993 C16.8898323,12.7501675 17.0446587,13.1406481 17.1251318,13.6878351 C17.2021602,14.2131966 17.1670907,14.5839374 17.0199231,14.7999118 C16.872609,15.0158862 16.5780175,15.1238977 16.1360019,15.1238977 L15.33882,15.1238977 L14.90439,12.1653439 L14.90439,12.1653439 Z M16.5765883,16.239418 C17.2496525,16.239418 17.7406629,16.0056437 18.0492896,15.5380467 C18.3579163,15.0704497 18.4508121,14.4177734 18.3276839,13.5798236 C18.2770035,13.2346429 18.1912901,12.9190476 18.0706172,12.6331349 C17.9497976,12.3470282 17.7920396,12.0854145 17.5970866,11.8481966 C17.3647554,11.5604409 17.1066626,11.3553792 16.8226615,11.233254 C16.5386604,11.1107892 16.1769347,11.0498236 15.7371911,11.0498236 L14.7405855,11.0498236 L14.4646464,9.17041446 L13.3011582,9.17041446 L14.3392462,16.239418 L16.5765883,16.239418 L16.5765883,16.239418 Z" id="path3506" fill="#E5EFFA" fill-rule="nonzero" transform="translate(15.840618, 12.704916) scale(-1, 1) rotate(-180.000000) translate(-15.840618, -12.704916) "></path>
            </g>
        </g>
    </g>
</svg>