<?xml version="1.0" encoding="UTF-8"?>
<svg width="14px" height="10px" viewBox="0 0 14 10" version="1.1" xmlns="http://www.w3.org/2000/svg" xmlns:xlink="http://www.w3.org/1999/xlink">
    <!-- Generator: sketchtool 53.2 (72643) - https://sketchapp.com -->
    <title>F72E2B71-A6BE-43B8-B147-CF83B76F72CB</title>
    <desc>Created with sketchtool.</desc>
    <defs>
        <path d="M5.2814359,11.7222222 C5.2814359,9.24311728 8.30557699,7.2333642 12.0358974,7.2333642 L12.0358974,7.2333642 C15.7662179,7.2333642 18.7903834,9.24311728 18.7903834,11.7222222 L18.7903834,11.7222222 C18.7903834,14.2012963 15.7662179,16.2110802 12.0358974,16.2110802 L12.0358974,16.2110802 C8.30557699,16.2110802 5.2814359,14.2012963 5.2814359,11.7222222" id="path-1"></path>
        <radialGradient cx="30.020204%" cy="82.421541%" fx="30.020204%" fy="82.421541%" r="98.7954688%" gradientTransform="translate(0.300202,0.824215),scale(0.664576,1.000000),translate(-0.300202,-0.824215)" id="radialGradient-3">
            <stop stop-color="#AEB2D5" offset="0%"></stop>
            <stop stop-color="#AEB2D5" offset="30%"></stop>
            <stop stop-color="#484C89" offset="75%"></stop>
            <stop stop-color="#484C89" offset="100%"></stop>
        </radialGradient>
        <polygon id="path-4" points="5 16.7222222 19.0717949 16.7222222 19.0717949 6.72222222 5 6.72222222"></polygon>
        <polygon id="path-6" points="5 16.7222222 19.0717949 16.7222222 19.0717949 6.72222222 5 6.72222222"></polygon>
    </defs>
    <g id="Docs" stroke="none" stroke-width="1" fill="none" fill-rule="evenodd">
        <g id="Docs-Icon" transform="translate(-59.000000, -74.000000)">
            <g id="php" transform="translate(54.000000, 67.000000)">
                <mask id="mask-2" fill="white">
                    <use xlink:href="#path-1"></use>
                </mask>
                <g id="path3446" transform="translate(12.035910, 11.722222) scale(-1, 1) rotate(-180.000000) translate(-12.035910, -11.722222) "></g>
                <g id="g3442" mask="url(#mask-2)">
                    <g transform="translate(12.304630, 11.228395) scale(-1, 1) rotate(-180.000000) translate(-12.304630, -11.228395) translate(5.268732, 6.228395)" id="g3448">
                        <g>
                            <g id="g3450" fill="url(#radialGradient-3)" fill-rule="nonzero">
                                <path d="M0.0127037037,4.50617284 C0.0127037037,2.0270679 3.0368448,0.0173148148 6.76716524,0.0173148148 L6.76716524,0.0173148148 C10.4974857,0.0173148148 13.5216512,2.0270679 13.5216512,4.50617284 L13.5216512,4.50617284 C13.5216512,6.98524691 10.4974857,8.99503086 6.76716524,8.99503086 L6.76716524,8.99503086 C3.0368448,8.99503086 0.0127037037,6.98524691 0.0127037037,4.50617284" id="path3462"></path>
                            </g>
                        </g>
                    </g>
                </g>
                <mask id="mask-5" fill="white">
                    <use xlink:href="#path-4"></use>
                </mask>
                <g id="path3470" transform="translate(12.035897, 11.722222) scale(-1, 1) rotate(-180.000000) translate(-12.035897, -11.722222) "></g>
                <g id="g3466" mask="url(#mask-5)">
                    <g transform="translate(12.070798, 10.888889) scale(-1, 1) rotate(-180.000000) translate(-12.070798, -10.888889) translate(5.537464, 5.888889)" id="g3472">
                        <g transform="translate(0.000000, 0.011093)">
                            <path d="M6.49843305,0 C10.0830518,0 12.9890484,1.86052469 12.9890484,4.15558642 C12.9890484,6.45061728 10.0830518,8.31117284 6.49843305,8.31117284 C2.91381432,8.31117284 0.00781766382,6.45061728 0.00781766382,4.15558642 C0.00781766382,1.86052469 2.91381432,0 6.49843305,0" id="path3474" fill="#777BB3" fill-rule="nonzero"></path>
                        </g>
                    </g>
                </g>
                <mask id="mask-7" fill="white">
                    <use xlink:href="#path-6"></use>
                </mask>
                <g id="path3482" transform="translate(12.035897, 11.722222) scale(-1, 1) rotate(-180.000000) translate(-12.035897, -11.722222) "></g>
                <g id="g3478" mask="url(#mask-7)">
                    <g transform="translate(12.775783, 10.549383) scale(-1, 1) rotate(-180.000000) translate(-12.775783, -10.549383) translate(7.247578, 6.660494)">
                        <g id="g3484" transform="translate(0.066802, 0.102056)">
                            <path d="M1.63682336,2.09876543 C1.93157372,2.09876543 2.15161652,2.16743827 2.29084423,2.30280864 C2.4285817,2.43679012 2.52371289,2.66891975 2.57357493,2.99271605 C2.6200656,3.29537037 2.6023537,3.50669753 2.52095228,3.62074074 C2.43771859,3.73722222 2.25776574,3.7962963 1.98610192,3.7962963 L1.51506325,3.7962963 L1.25392885,2.09876543 L1.63682336,2.09876543 Z M0.0961816952,0.00771604938 C0.0743166667,0.00771604938 0.0535509972,0.0200617284 0.0396502137,0.0414197531 C0.025725,0.0627469136 0.0200816239,0.0908333333 0.024259188,0.117962963 L0.716317877,4.61645062 C0.723011752,4.65993827 0.753183048,4.69135802 0.788264815,4.69135802 L2.27982621,4.69135802 C2.74859288,4.69135802 3.09750499,4.53055556 3.31681489,4.2133642 C3.53729744,3.89450617 3.6053844,3.4487963 3.51917023,2.88864198 C3.48408846,2.6604321 3.42374587,2.44848765 3.33982813,2.25873457 C3.25581268,2.06876543 3.14477742,1.89299383 3.00975171,1.7362037 C2.84812151,1.54509259 2.66518818,1.40651235 2.46652179,1.32496914 C2.27100691,1.24450617 2.01991332,1.2037037 1.72022806,1.2037037 L1.11626467,1.2037037 L0.943787464,0.082654321 C0.93709359,0.0391358025 0.906946724,0.00771604938 0.871864957,0.00771604938 L0.0961816952,0.00771604938 Z" id="path3486" fill="#000000" fill-rule="nonzero"></path>
                        </g>
                        <g id="g3488" transform="translate(0.005463, 0.009478)">
                            <path d="M1.63682336,3.7962963 L2.04744615,3.7962963 C2.37532386,3.7962963 2.48921745,3.70540123 2.52791489,3.65123457 C2.59211745,3.5612963 2.60423483,3.37166667 2.56297222,3.10287037 C2.5166037,2.80194444 2.43065826,2.58858025 2.3074812,2.46876543 C2.18137251,2.34611111 1.97635427,2.28395062 1.69816759,2.28395062 L1.40417457,2.28395062 L1.63682336,3.7962963 Z M2.34117044,4.87654321 L0.849584615,4.87654321 C0.779421083,4.87654321 0.71910292,4.8137037 0.705715171,4.72669753 L0.0136564815,0.228209877 C0.00530135328,0.173919753 0.0165881054,0.117777778 0.0444141026,0.0750925926 C0.0722645299,0.0324074074 0.113747009,0.00771604938 0.157525926,0.00771604938 L0.933184758,0.00771604938 C1.00337272,0.00771604938 1.06369088,0.0705555556 1.07707863,0.157561728 L1.23802479,1.2037037 L1.78157229,1.2037037 C2.08895306,1.2037037 2.34771774,1.24604938 2.55061054,1.32953704 C2.75926887,1.41518519 2.95124138,1.56040123 3.12115342,1.76114198 C3.26167593,1.92447531 3.37742621,2.10780864 3.46513063,2.30611111 C3.55285947,2.50447531 3.61588939,2.72567901 3.6524614,2.96358025 C3.74321959,3.55320988 3.66948925,4.02537037 3.43334694,4.36685185 C3.19950107,4.70506173 2.83202201,4.87654321 2.34117044,4.87654321 L2.34117044,4.87654321 Z M1.22634715,2.09876543 L1.69816759,2.09876543 C2.01089858,2.09876543 2.24384053,2.17317901 2.39689573,2.32203704 C2.54997536,2.47092593 2.65321738,2.71941358 2.7068661,3.06762346 C2.75819395,3.40194444 2.73481425,3.63787037 2.63672699,3.77530864 C2.53851759,3.91274691 2.34212322,3.98148148 2.04744615,3.98148148 L1.5159916,3.98148148 L1.22634715,2.09876543 L1.22634715,2.09876543 Z M2.34117044,4.69135802 C2.78987991,4.69135802 3.11722016,4.54259259 3.3229713,4.24503086 C3.52869801,3.94746914 3.59065299,3.53212963 3.50856752,2.99888889 C3.47478056,2.7792284 3.41763832,2.57839506 3.33718967,2.39645062 C3.2566433,2.21438272 3.1514713,2.04790123 3.02150264,1.89694444 C2.86661517,1.71382716 2.69455328,1.58333333 2.50521923,1.50561728 C2.31588519,1.42768519 2.07473469,1.38888889 1.78157229,1.38888889 L1.11716859,1.38888889 L0.933184758,0.192901235 L0.157525926,0.192901235 L0.849584615,4.69135802 L2.34117044,4.69135802 L2.34117044,4.69135802 Z" id="path3490" fill="#FFFFFF" fill-rule="nonzero"></path>
                        </g>
                        <g id="g3492" transform="translate(3.385610, 1.305759)">
                            <path d="M1.97884615,0 C1.9569567,0 1.93621546,0.012345679 1.92231467,0.0337037037 C1.90836503,0.0550308642 1.90272165,0.0830864198 1.90689922,0.110246914 L2.21303405,2.10064815 C2.24215484,2.28993827 2.23497236,2.42580247 2.19283027,2.48320988 C2.16703198,2.51830247 2.08953939,2.57716049 1.86040855,2.57716049 L1.30579416,2.57716049 L0.920896368,0.0749382716 C0.914202493,0.0314197531 0.884031197,0 0.84894943,0 L0.0793981481,0 C0.0575086895,0 0.0367674501,0.012345679 0.0228422365,0.0337037037 C0.00891702279,0.0550308642 0.00327364672,0.083117284 0.00745121083,0.110246914 L0.6995099,4.60873457 C0.706203775,4.65222222 0.736375071,4.68364198 0.771456838,4.68364198 L1.54100812,4.68364198 C1.56289758,4.68364198 1.58363882,4.6712963 1.59756403,4.64996914 C1.61148925,4.62861111 1.61713262,4.60055556 1.61295506,4.57339506 L1.44595021,3.48765432 L2.04258454,3.48765432 C2.4971084,3.48765432 2.8053198,3.38641975 2.98483291,3.17814815 C3.1678151,2.96567901 3.22490848,2.62595679 3.1545495,2.16830247 L2.83255947,0.0749382716 C2.8258656,0.0314197531 2.79571873,0 2.76061254,0 L1.97884615,0 Z" id="path3494" fill="#000000" fill-rule="nonzero"></path>
                        </g>
                        <g id="g3496" transform="translate(3.314228, 1.205466)">
                            <path d="M1.61239316,4.87654321 L0.84284188,4.87654321 C0.772653917,4.87654321 0.712335755,4.8137037 0.698948006,4.72669753 L0.00688931624,0.228209877 C-0.00146581197,0.173919753 0.00982094017,0.117777778 0.0376713675,0.0750925926 C0.0655217949,0.0324074074 0.107004274,0.00771604938 0.150783191,0.00771604938 L0.920334473,0.00771604938 C0.990498006,0.00771604938 1.0508406,0.0705555556 1.06422835,0.157561728 L1.43759509,2.58487654 L1.93179359,2.58487654 C2.16053355,2.58487654 2.20853889,2.52314815 2.21046887,2.52049383 C2.22434523,2.5016358 2.24259459,2.41429012 2.21247215,2.21861111 L1.90633732,0.228209877 C1.89798219,0.173919753 1.90926895,0.117777778 1.93711937,0.0750925926 C1.9649698,0.0324074074 2.00645228,0.00771604938 2.0502312,0.00771604938 L2.83199758,0.00771604938 C2.90216111,0.00771604938 2.9625037,0.0705555556 2.97589145,0.157561728 L3.29785705,2.25092593 C3.37341966,2.74231481 3.30877735,3.11092593 3.10581125,3.34660494 C2.91212863,3.57132716 2.58769558,3.68055556 2.11396959,3.68055556 L1.60621232,3.68055556 L1.75628704,4.65601852 C1.76461774,4.71030864 1.75335541,4.76648148 1.72550499,4.8091358 C1.69765456,4.85182099 1.65617208,4.87654321 1.61239316,4.87654321 M1.61239316,4.69135802 L1.42840933,3.49537037 L2.11396959,3.49537037 C2.54533362,3.49537037 2.84286902,3.40024691 3.00662464,3.21024691 C3.17038027,3.02012346 3.21943611,2.7120679 3.15398761,2.28623457 L2.83199758,0.192901235 L2.0502312,0.192901235 L2.35636603,2.1832716 C2.39120349,2.40969136 2.37840207,2.5641358 2.31791289,2.64648148 C2.25739929,2.72882716 2.12867657,2.77006173 1.93179359,2.77006173 L1.31673889,2.77006173 L0.920334473,0.192901235 L0.150783191,0.192901235 L0.84284188,4.69135802 L1.61239316,4.69135802" id="path3498" fill="#FFFFFF" fill-rule="nonzero"></path>
                        </g>
                        <g id="g3500" transform="translate(6.120982, 0.102056)">
                            <path d="M1.63682336,2.09876543 C1.93157372,2.09876543 2.15161652,2.16743827 2.29084423,2.30280864 C2.4285817,2.43675926 2.52371289,2.66888889 2.57359936,2.99271605 C2.62009003,3.29537037 2.60237813,3.50669753 2.52095228,3.62074074 C2.43771859,3.73722222 2.25776574,3.7962963 1.98610192,3.7962963 L1.51506325,3.7962963 L1.25392885,2.09876543 L1.63682336,2.09876543 Z M0.0962061254,0.00771604938 C0.0743410969,0.00771604938 0.0535754274,0.0200617284 0.0396746439,0.0414197531 C0.0257494302,0.0627469136 0.0200816239,0.0908333333 0.024259188,0.117962963 L0.716317877,4.61645062 C0.723036182,4.65993827 0.753183048,4.69135802 0.788289245,4.69135802 L2.27982621,4.69135802 C2.74861731,4.69135802 3.09750499,4.53055556 3.31683932,4.2133642 C3.53732187,3.89453704 3.6053844,3.44882716 3.51919466,2.88864198 C3.48406403,2.6604321 3.42374587,2.44848765 3.33982813,2.25873457 C3.25581268,2.06876543 3.14477742,1.89299383 3.00975171,1.7362037 C2.84812151,1.54509259 2.66518818,1.40651235 2.46652179,1.32496914 C2.27100691,1.24450617 2.01991332,1.2037037 1.72022806,1.2037037 L1.11624024,1.2037037 L0.943836325,0.082654321 C0.93711802,0.0391358025 0.906971154,0.00771604938 0.871864957,0.00771604938 L0.0962061254,0.00771604938 Z" id="path3502" fill="#000000" fill-rule="nonzero"></path>
                        </g>
                        <g id="g3504" transform="translate(6.059645, 0.009478)">
                            <path d="M1.63682336,3.7962963 L2.04744615,3.7962963 C2.37532386,3.7962963 2.48921745,3.70540123 2.52791489,3.65123457 C2.59214188,3.5612963 2.60425926,3.37166667 2.56297222,3.10290123 C2.5166037,2.80194444 2.43063383,2.58858025 2.3074812,2.46876543 C2.18137251,2.34611111 1.97635427,2.28395062 1.69816759,2.28395062 L1.404199,2.28395062 L1.63682336,3.7962963 Z M2.34117044,4.87654321 L0.849609046,4.87654321 C0.779445513,4.87654321 0.71912735,4.8137037 0.705739601,4.72669753 L0.0136809117,0.228209877 C0.00532578348,0.173919753 0.0166125356,0.117777778 0.0444385328,0.0750925926 C0.0722889601,0.0324074074 0.113771439,0.00771604938 0.157550356,0.00771604938 L0.933209188,0.00771604938 C1.00337272,0.00771604938 1.06371531,0.0705555556 1.07710306,0.157561728 L1.23802479,1.2037037 L1.78157229,1.2037037 C2.08895306,1.2037037 2.34771774,1.24604938 2.55061054,1.32953704 C2.75926887,1.41518519 2.95129024,1.5604321 3.12120228,1.7612037 C3.26172479,1.92450617 3.37742621,2.10780864 3.46513063,2.30611111 C3.55285947,2.50447531 3.61588939,2.72567901 3.6524614,2.96358025 C3.74321959,3.55324074 3.66948925,4.02540123 3.43334694,4.36688272 C3.19950107,4.70506173 2.83204644,4.87654321 2.34117044,4.87654321 L2.34117044,4.87654321 Z M1.22637158,2.09876543 L1.69816759,2.09876543 C2.01089858,2.09876543 2.24384053,2.17317901 2.39689573,2.32203704 C2.54999979,2.47092593 2.65321738,2.71941358 2.7068661,3.06762346 C2.75821838,3.40194444 2.73483868,3.63787037 2.63672699,3.77530864 C2.53851759,3.91274691 2.34212322,3.98148148 2.04744615,3.98148148 L1.5159916,3.98148148 L1.22637158,2.09876543 L1.22637158,2.09876543 Z M2.34117044,4.69135802 C2.78987991,4.69135802 3.11722016,4.54259259 3.3229713,4.24503086 C3.52872244,3.94746914 3.59065299,3.53212963 3.50856752,2.99888889 C3.47478056,2.7792284 3.41763832,2.57839506 3.33718967,2.39645062 C3.2566433,2.21438272 3.1514713,2.04790123 3.02150264,1.89694444 C2.86661517,1.71382716 2.69455328,1.58333333 2.50521923,1.50561728 C2.31588519,1.42768519 2.07473469,1.38888889 1.78157229,1.38888889 L1.11716859,1.38888889 L0.933209188,0.192901235 L0.157550356,0.192901235 L0.849609046,4.69135802 L2.34117044,4.69135802 L2.34117044,4.69135802 Z" id="path3506" fill="#FFFFFF" fill-rule="nonzero"></path>
                        </g>
                    </g>
                </g>
            </g>
        </g>
    </g>
</svg>