<?xml version="1.0" encoding="UTF-8"?>
<svg width="12px" height="12px" viewBox="0 0 12 12" version="1.1" xmlns="http://www.w3.org/2000/svg" xmlns:xlink="http://www.w3.org/1999/xlink">
    <!-- Generator: sketchtool 53.2 (72643) - https://sketchapp.com -->
    <title>927C4E91-FA5E-4C67-9D3B-21D4155D18CF</title>
    <desc>Created with sketchtool.</desc>
    <g id="Docs" stroke="none" stroke-width="1" fill="none" fill-rule="evenodd">
        <g id="Docs-Icon" transform="translate(-102.000000, -199.000000)">
            <g id="python-bw" transform="translate(96.000000, 193.000000)">
                <path d="M1,0 L23,0 C23.5522847,-1.01453063e-16 24,0.44771525 24,1 L24,23 C24,23.5522847 23.5522847,24 23,24 L1,24 C0.44771525,24 6.76353751e-17,23.5522847 0,23 L0,1 C-6.76353751e-17,0.44771525 0.44771525,1.01453063e-16 1,0 Z" id="Rectangle-14"></path>
                <path d="M11.8841556,6.00009762 C11.3930499,6.00235939 10.924055,6.04387295 10.5113877,6.11624806 C9.29572172,6.32911572 9.0750039,6.77466599 9.07500379,7.59633657 L9.07500379,8.68151356 L11.9477717,8.68151356 L11.9477717,9.04323923 L9.07500379,9.04323923 L7.99687879,9.04323923 C7.16197247,9.04323923 6.43090459,9.5406251 6.20223592,10.4868233 C5.93846949,11.5713861 5.92677001,12.2481709 6.20223592,13.3806286 C6.40644252,14.2235863 6.89411554,14.8242125 7.72902165,14.8242127 L8.71674487,14.8242127 L8.71674487,13.5233277 C8.71674487,12.5835151 9.53715315,11.7545226 10.5113877,11.7545224 L13.3808074,11.7545224 C14.1795521,11.7545224 14.8171916,11.102682 14.8171913,10.3076198 L14.8171913,7.59633657 C14.8171913,6.82468995 14.1604077,6.24503277 13.3808074,6.11624806 C12.8873088,6.03482591 12.3752613,5.99783586 11.8841556,6.00009762 Z M10.3305842,6.87288524 C10.6273213,6.87288524 10.8696467,7.11698924 10.8696467,7.41713303 C10.8696464,7.71621296 10.6273213,7.95806223 10.3305842,7.95806223 C10.0327832,7.95806213 9.79152165,7.71621285 9.79152165,7.41713303 C9.79152154,7.11698935 10.0327832,6.87288524 10.3305842,6.87288524 Z" id="path1948" fill="#54666D" fill-rule="nonzero"></path>
                <path d="M15.1754502,9.04323923 L15.1754502,10.3076198 C15.1754502,11.2878769 14.3369615,12.1129294 13.3808074,12.1129295 L10.5113877,12.1129295 C9.72540562,12.1129295 9.0750039,12.779671 9.07500379,13.5598321 L9.07500379,16.271115 C9.07500379,17.0427617 9.75199537,17.4966357 10.5113877,17.7180177 C11.4207446,17.9830382 12.2927703,18.0309341 13.3808074,17.7180177 C14.1040383,17.5104718 14.8171916,17.0927847 14.8171913,16.271115 L14.8171913,15.1859383 L11.9477717,15.1859383 L11.9477717,14.8242127 L14.8171913,14.8242127 L16.2535757,14.8242127 C17.0884821,14.8242127 17.3996024,14.2470012 17.6899585,13.3806286 C17.9898867,12.4887115 17.9771249,11.6309887 17.6899585,10.4868233 C17.4836249,9.66302425 17.0895439,9.04323923 16.2535757,9.04323923 L15.1754502,9.04323923 Z M13.5616109,15.9093897 C13.8594122,15.90939 14.1006734,16.1512393 14.1006734,16.4503186 C14.1006732,16.7504619 13.8594118,16.9945663 13.5616109,16.9945663 C13.2648734,16.9945663 13.0225484,16.7504619 13.0225484,16.4503186 C13.0225487,16.1512393 13.2648731,15.9093897 13.5616109,15.9093897 Z" id="path1950" fill="#54666D" fill-rule="nonzero"></path>
            </g>
        </g>
    </g>
</svg>