<?xml version="1.0" encoding="UTF-8"?>
<svg width="14px" height="14px" viewBox="0 0 14 14" version="1.1" xmlns="http://www.w3.org/2000/svg" xmlns:xlink="http://www.w3.org/1999/xlink">
    <!-- Generator: sketchtool 53.2 (72643) - https://sketchapp.com -->
    <title>A9BE4CDE-E9EE-4B04-9677-469171998586</title>
    <desc>Created with sketchtool.</desc>
    <defs>
        <linearGradient x1="0.079537951%" y1="9.14856261e-08%" x2="74.4819858%" y2="64.1103734%" id="linearGradient-1">
            <stop stop-color="#5A9FD4" offset="0%"></stop>
            <stop stop-color="#306998" offset="100%"></stop>
        </linearGradient>
        <linearGradient x1="49.9999998%" y1="82.2756107%" x2="23.7804724%" y2="44.914431%" id="linearGradient-2">
            <stop stop-color="#FFD43B" offset="0%"></stop>
            <stop stop-color="#FFE873" offset="100%"></stop>
        </linearGradient>
    </defs>
    <g id="Docs" stroke="none" stroke-width="1" fill="none" fill-rule="evenodd">
        <g id="Docs-Icon" transform="translate(-59.000000, -114.000000)" fill-rule="nonzero">
            <g id="python" transform="translate(54.000000, 109.000000)">
                <path d="M11.9387695,5.04930638 C11.3658129,5.0519451 10.8186521,5.1003776 10.337207,5.18481523 C8.91893,5.43316083 8.66142588,5.95296947 8.66142575,6.91158515 L8.66142575,8.17762497 L12.0129883,8.17762497 L12.0129883,8.59963825 L8.66142575,8.59963825 L7.40361325,8.59963825 C6.42955588,8.59963825 5.57664335,9.17992177 5.30986323,10.2838197 C5.00213573,11.5491429 4.98848634,12.3387252 5.30986323,13.6599259 C5.54810426,14.6433765 6.11705613,15.344107 7.09111325,15.3441073 L8.243457,15.3441073 L8.243457,13.8264082 C8.243457,12.7299601 9.2006,11.7628022 10.337207,11.762802 L13.6848633,11.762802 C14.6167321,11.762802 15.3606449,11.0023215 15.3606445,10.0747489 L15.3606445,6.91158515 C15.3606445,6.01133076 14.594397,5.33506404 13.6848633,5.18481523 C13.1091149,5.08982271 12.5117261,5.04666765 11.9387695,5.04930638 Z M10.1262695,6.0675586 C10.4724629,6.0675586 10.7551758,6.3523466 10.7551758,6.70251435 C10.7551755,7.05144094 10.4724629,7.33359842 10.1262695,7.33359842 C9.778835,7.3335983 9.49736325,7.05144081 9.49736325,6.70251435 C9.49736313,6.35234673 9.778835,6.0675586 10.1262695,6.0675586 Z" id="path1948" fill="url(#linearGradient-1)"></path>
                <path d="M15.7786132,8.59963825 L15.7786132,10.0747489 C15.7786132,11.2183822 14.8003764,12.1809434 13.6848632,12.1809436 L10.337207,12.1809436 C9.42022787,12.1809436 8.66142587,12.9588087 8.66142575,13.8689967 L8.66142575,17.03216 C8.66142575,17.9324145 9.45124925,18.4619342 10.337207,18.7202131 C11.3981234,19.0294037 12.4154866,19.0852823 13.6848632,18.7202131 C14.5286326,18.4780763 15.3606449,17.9907747 15.3606445,17.03216 L15.3606445,15.7661205 L12.0129882,15.7661205 L12.0129882,15.3441073 L15.3606445,15.3441073 L17.0364262,15.3441073 C18.0104837,15.3441073 18.3734575,14.6706939 18.7122062,13.6599259 C19.0621225,12.6193559 19.0472337,11.6186793 18.7122062,10.2838197 C18.4714837,9.32272078 18.0117225,8.59963825 17.0364262,8.59963825 L15.7786132,8.59963825 Z M13.8958007,16.6101471 C14.2432355,16.6101475 14.524707,16.892305 14.524707,17.2412308 C14.5247067,17.5913981 14.2432351,17.8761865 13.8958007,17.8761865 C13.549607,17.8761865 13.2668945,17.5913981 13.2668945,17.2412308 C13.2668947,16.892305 13.5496066,16.6101471 13.8958007,16.6101471 Z" id="path1950" fill="url(#linearGradient-2)"></path>
            </g>
        </g>
    </g>
</svg>