<svg width="42" height="42" viewBox="0 0 42 42" xmlns="http://www.w3.org/2000/svg"><title>Slice</title><g fill="none" fill-rule="evenodd"><g fill-rule="nonzero" stroke-linecap="round" stroke-linejoin="round"><path d="M20.424 3.01c-8.39 0-7.866 4.51-7.866 4.51l.01 2.897h8.005v2.003H9.387s-5.368-.608-5.368 7.857 4.686 8.165 4.686 8.165H11.5v-3.928s-.15-4.686 4.611-4.686h7.94s4.462.072 4.462-4.312V8.268s.678-5.259-8.09-5.259zM17.9 5.965c.27.27.422.636.421 1.018 0 .383-.151.75-.421 1.02s-.637.421-1.019.42c-.382.001-.749-.15-1.019-.42-.27-.27-.422-.637-.421-1.02 0-.382.151-.748.421-1.018s.637-.422 1.019-.422c.382 0 .749.151 1.019.422z" stroke="#3773A4"/><path d="M29.4 33.991l-.01-2.798h-8.006V29.09H32.57s5.369.609 5.369-7.856c0-8.466-4.686-8.166-4.686-8.166h-2.797v3.929s.151 4.685-4.61 4.685h-7.941s-4.462-.072-4.462 4.312v7.249s-.677 5.258 8.09 5.258c8.39 0 7.867-4.51 7.867-4.51zm-5.342 1.554c-.27-.27-.422-.637-.422-1.019 0-.382.152-.748.422-1.019.27-.27.637-.422 1.019-.421.382 0 .748.151 1.018.421s.422.637.422 1.02c0 .381-.151.748-.422 1.018-.27.27-.636.422-1.018.421-.382 0-.749-.15-1.02-.421z" stroke="#FFD547"/></g></g></svg>