<?xml version="1.0" encoding="UTF-8"?>
<svg width="14px" height="14px" viewBox="0 0 14 14" version="1.1" xmlns="http://www.w3.org/2000/svg" xmlns:xlink="http://www.w3.org/1999/xlink">
    <!-- Generator: sketchtool 53.2 (72643) - https://sketchapp.com -->
    <title>49C918FE-628A-414F-9BBF-F85CD5C226F3</title>
    <desc>Created with sketchtool.</desc>
    <defs>
        <path d="M9.77244387,-7.28306304e-14 C9.07930209,0.00309642317 8.19529401,0.497340204 7.30451704,1.36811815 L7.30451704,1.36811815 C7.1864061,1.48377866 7.07105136,1.6026722 6.95841227,1.72493538 L6.95841227,1.72493538 C6.88277912,1.64383642 6.80601106,1.56410352 6.72802704,1.48610098 L6.72802704,1.48610098 C5.47233834,0.2334612 4.21377186,-0.294023594 3.45821044,0.197169299 L3.45821044,0.197169299 C2.73341298,0.668372048 2.51903798,2.06790978 2.823962,3.81889155 L2.823962,3.81889155 C2.85419905,3.99233678 2.88840825,4.16468916 2.92654909,4.33626743 L2.92654909,4.33626743 C2.74857204,4.39309591 2.57659376,4.4536583 2.41207341,4.51822783 L2.41207341,4.51822783 C0.940064166,5.09457236 1.03028697e-13,5.99822703 1.03028697e-13,6.93557808 L1.03028697e-13,6.93557808 C1.03028697e-13,7.90366567 1.00905003,8.87466755 2.54238455,9.46335224 L2.54238455,9.46335224 C2.66673745,9.51093698 2.79206313,9.5549244 2.91840211,9.59545112 L2.91840211,9.59545112 C2.87738348,9.78014365 2.84082341,9.96615672 2.8091272,10.153126 L2.8091272,10.153126 C2.51834893,11.8735989 2.74541052,13.2398956 3.46814083,13.7083207 L3.46814083,13.7083207 C4.21458251,14.1918636 5.46739341,13.6947966 6.68741374,12.4967996 L6.68741374,12.4967996 C6.78383993,12.4022221 6.8808741,12.301816 6.97754349,12.196401 L6.97754349,12.196401 C7.09954552,12.3288187 7.22495226,12.4571836 7.35335839,12.581587 L7.35335839,12.581587 C8.22309912,13.422448 9.08505767,13.8942883 9.7674584,13.8974758 L9.7674584,13.8974758 L9.7812799,13.8974758 C10.0205012,13.8963829 10.2373081,13.8371866 10.4243238,13.7156064 L10.4243238,13.7156064 C11.1700359,13.2305608 11.4122566,11.7629929 11.0976859,9.97717634 L11.0976859,9.97717634 C11.0736097,9.8411614 11.0457236,9.70173129 11.0142705,9.55979671 L11.0142705,9.55979671 C11.1023471,9.53047176 11.1887213,9.50037271 11.2728662,9.46908973 L11.2728662,9.46908973 C12.866918,8.87589701 13.9038137,7.91655226 13.9038137,6.93557808 L13.9038137,6.93557808 C13.9038137,5.99490293 12.9335935,5.08537416 11.4317526,4.504385 L11.4317526,4.504385 C11.2837288,4.44746545 11.1344892,4.39450751 10.9842362,4.34601206 L10.9842362,4.34601206 C11.0090013,4.23194529 11.0320642,4.11787853 11.0533436,4.00299212 L11.0533436,4.00299212 C11.3923147,2.15524713 11.1706844,0.666869372 10.4142313,0.176905941 L10.4142313,0.176905941 C10.231593,0.0585588264 10.0195689,0.00109285524 9.78569791,-7.28306304e-14 L9.78569791,-7.28306304e-14 L9.77244387,-7.28306304e-14 Z M8.55011321,3.848854 C8.16805634,3.23781132 7.77213746,2.68204889 7.37479994,2.20101045 L7.37479994,2.20101045 C7.47900832,2.08826421 7.5856081,1.9784778 7.69455875,1.8716512 L7.69455875,1.8716512 C8.72091605,0.867954736 9.68039516,0.47161257 10.1175353,0.754753147 L10.1175353,0.754753147 C10.5831697,1.05669994 10.7641461,2.27309336 10.4715439,3.86847986 L10.4715439,3.86847986 C10.4525343,3.97234664 10.4315791,4.07589467 10.4090837,4.17894182 L10.4090837,4.17894182 C9.83214785,4.02940279 9.20588426,3.91815924 8.55011321,3.848854 L8.55011321,3.848854 Z M3.40685609,3.69079981 C3.14542317,2.19049171 3.31906327,1.05888565 3.75571705,0.774743291 L3.75571705,0.774743291 C4.220865,0.472250069 5.24941104,0.903745745 6.33356731,1.98494386 L6.33356731,1.98494386 C6.4028369,2.05420356 6.47251182,2.12651415 6.5421462,2.2014658 L6.5421462,2.2014658 C6.13832353,2.68860602 5.73904046,3.24359434 5.35771318,3.84803436 L5.35771318,3.84803436 C4.70384714,3.9160646 4.07782674,4.02553226 3.50239057,4.17197486 L3.50239057,4.17197486 C3.46692487,4.012418 3.43510706,3.85181382 3.40685609,3.69079981 L3.40685609,3.69079981 Z M6.95849334,2.67813283 C7.23232913,3.01163582 7.50685397,3.38393517 7.77679866,3.78783625 L7.77679866,3.78783625 C7.22928921,3.75892112 6.68092858,3.75864791 6.13350019,3.78742643 L6.13350019,3.78742643 C6.40368808,3.38735034 6.68028006,3.01546081 6.95849334,2.67813283 L6.95849334,2.67813283 Z M5.69295531,9.42109517 C5.453045,9.02712086 5.22626713,8.62321978 5.01347289,8.21016603 L5.01347289,8.21016603 C4.80165142,7.79925246 4.60389464,7.37941391 4.42044574,6.95160662 L4.42044574,6.95160662 C4.60332719,6.5237538 4.80059758,6.10368756 5.01181107,5.69250078 L5.01181107,5.69250078 C5.01181107,5.69250078 5.44769474,4.87882452 5.6859027,4.48658056 L5.6859027,4.48658056 C6.09941258,4.4516092 6.52333924,4.43330387 6.95200818,4.43330387 L6.95200818,4.43330387 C7.3825416,4.43330387 7.80699518,4.4517458 8.22042399,4.48699039 L8.22042399,4.48699039 C8.45611895,4.87882452 8.6796137,5.27935597 8.8903408,5.68867579 L8.8903408,5.68867579 C9.10216227,6.099134 9.3019862,6.51719666 9.48960992,6.94218074 L9.48960992,6.94218074 C9.30397228,7.37139964 9.1047158,7.79319622 8.89232688,8.20638657 L8.89232688,8.20638657 L8.89224582,8.20638657 C8.68164031,8.61757336 8.45911834,9.0207914 8.22504467,9.41553982 L8.22504467,9.41553982 C7.81258863,9.44878084 7.38627056,9.46581116 6.95200818,9.46581116 L6.95200818,9.46581116 C6.51932655,9.46581116 6.09835874,9.4506478 5.69295531,9.42109517 L5.69295531,9.42109517 Z M3.66293876,4.81530231 C4.05950617,4.71557927 4.48262219,4.63397941 4.9233292,4.57214202 L4.9233292,4.57214202 C4.77583239,4.83051121 4.6337669,5.09306969 4.4970922,5.35908886 L4.4970922,5.35908886 C4.36062016,5.62506251 4.22978209,5.89426918 4.10461855,6.16679995 L4.10461855,6.16679995 C3.93170803,5.70588826 3.7836843,5.25276316 3.66293876,4.81530231 L3.66293876,4.81530231 Z M9.40437063,5.35444423 C9.26834444,5.09074737 9.12741385,4.83028354 8.9816194,4.57341702 L8.9816194,4.57341702 C9.42516367,4.63616513 9.85022523,4.71985962 10.2493056,4.82222373 L10.2493056,4.82222373 C10.1295734,5.25381048 9.98013105,5.70497755 9.80422114,6.16730085 L9.80422114,6.16730085 C9.67573395,5.89335847 9.54234236,5.62255805 9.40437063,5.35444423 L9.40437063,5.35444423 Z M2.73450735,8.83200066 C2.05660569,8.57167344 1.49657178,8.23311599 1.11289362,7.86418628 L1.11289362,7.86418628 C0.768004821,7.53245918 0.593878332,7.20282672 0.593878332,6.93557808 L0.593878332,6.93557808 C0.593878332,6.36679246 1.34862911,5.64136426 2.60760092,5.14825887 L2.60760092,5.14825887 C2.76567664,5.08660363 2.92521152,5.03023051 3.08616504,4.97904846 L3.08616504,4.97904846 C3.26033206,5.61490806 3.48844749,6.27954619 3.76378297,6.95165216 L3.76378297,6.95165216 C3.48484012,7.63414025 3.25327945,8.30938818 3.07777486,8.95257902 L3.07777486,8.95257902 C2.96233905,8.91560409 2.84803815,8.87539612 2.73450735,8.83200066 L2.73450735,8.83200066 Z M10.148502,6.93899325 C10.4256614,6.26784353 10.6538579,5.61058218 10.8251877,4.98897522 L10.8251877,4.98897522 C10.9673747,5.03537604 11.1054681,5.08387149 11.2384138,5.1355089 L11.2384138,5.1355089 C12.5251907,5.63298571 13.3098948,6.36861389 13.3098948,6.93557808 L13.3098948,6.93557808 C13.3098948,7.53942613 12.4622442,8.32332208 11.0861342,8.83559798 L11.0861342,8.83559798 L11.0860531,8.83559798 C11.0100552,8.86392114 10.9319901,8.89133359 10.8525874,8.91783533 L10.8525874,8.91783533 C10.6764749,8.29194803 10.4389965,7.62639919 10.148502,6.93899325 L10.148502,6.93899325 Z M9.4067215,8.53979849 C9.54659825,8.26754093 9.68100314,7.99141284 9.80997672,7.71223387 L9.80997672,7.71223387 C9.99573596,8.18808125 10.1526362,8.64858312 10.2769081,9.08640825 L10.2769081,9.08640825 C9.8736934,9.18968307 9.43837717,9.27305882 8.97995758,9.33471407 L8.97995758,9.33471407 C9.12692747,9.07297524 9.26915509,8.80809445 9.4067215,8.53979849 L9.4067215,8.53979849 Z M3.65462966,9.11518677 C3.7774018,8.66993934 3.92862758,8.20697854 4.10510493,7.73627668 L4.10510493,7.73627668 C4.23103859,8.0091262 4.36236304,8.27860609 4.49952413,8.54435206 L4.49952413,8.54435206 C4.63927928,8.81574444 4.78479001,9.0834029 4.93605632,9.34659887 L4.93605632,9.34659887 C4.48071717,9.28967933 4.051116,9.21222321 3.65462966,9.11518677 L3.65462966,9.11518677 Z M7.7408871,12.0757771 C7.62504597,11.9638506 7.50827259,11.8443195 7.39121549,11.7178215 L7.39121549,11.7178215 C7.78291903,11.2362822 8.1745415,10.6766948 8.55667943,10.0551789 L8.55667943,10.0551789 C9.22882551,9.98815043 9.86372247,9.87845509 10.4397261,9.7289616 L10.4397261,9.7289616 C10.4680176,9.8576453 10.4934718,9.98355133 10.515116,10.1068163 L10.515116,10.1068163 C10.6541416,10.8963587 10.6740429,11.6102663 10.5818321,12.1685788 L10.5818321,12.1685788 C10.4988626,12.669744 10.3325588,13.0042943 10.126574,13.138169 L10.126574,13.138169 C10.0305126,13.2006895 9.91045614,13.2316537 9.77090364,13.2316537 L9.77090364,13.2316537 C9.27397842,13.2316537 8.52984709,12.8385901 7.7408871,12.0757771 L7.7408871,12.0757771 Z M3.76508,13.1301548 C3.3263996,12.8459669 3.1440856,11.7489224 3.39266981,10.2773472 L3.39266981,10.2773472 C3.42221781,10.1036288 3.45618382,9.93068446 3.4942436,9.75887851 L3.4942436,9.75887851 C4.06384312,9.90035773 4.69415993,10.0022209 5.36800837,10.0635574 L5.36800837,10.0635574 C5.75274036,10.6717314 6.15559026,11.2306358 6.56127742,11.7200983 L6.56127742,11.7200983 C6.47526801,11.8140839 6.38682667,11.9053828 6.29643978,11.9942228 L6.29643978,11.9942228 C5.75699624,12.5242121 5.21637727,12.8998811 4.74012349,13.088945 L4.74012349,13.088945 L4.74004242,13.088945 C4.50961666,13.180335 4.30448301,13.2240037 4.13205887,13.2240037 L4.13205887,13.2240037 C3.98407568,13.2240037 3.86020916,13.1918556 3.76508,13.1301548 L3.76508,13.1301548 Z M7.79114707,10.1120529 C7.52039173,10.5256075 7.24704233,10.9033256 6.97511155,11.2402438 L6.97511155,11.2402438 C6.69333144,10.8987721 6.41280783,10.5214182 6.13844512,10.1154225 L6.13844512,10.1154225 C6.40457979,10.1269886 6.67602418,10.1329993 6.95200818,10.1329993 L6.95200818,10.1329993 C7.23540958,10.1329993 7.51540627,10.1258047 7.79114707,10.1120529 L7.79114707,10.1120529 Z" id="path-1"></path>
        <path d="M5.7552783,6.80858586 C5.7552783,7.49895441 6.3149871,8.05870827 7.00544153,8.05870827 L7.00544153,8.05870827 C7.69573273,8.05870827 8.2552783,7.49895441 8.2552783,6.80858586 L8.2552783,6.80858586 C8.2552783,6.11833973 7.69573273,5.55870827 7.00544153,5.55870827 L7.00544153,5.55870827 C6.3149871,5.55870827 5.7552783,6.11833973 5.7552783,6.80858586" id="path-3"></path>
    </defs>
    <g id="Docs" stroke="none" stroke-width="1" fill="none" fill-rule="evenodd">
        <g id="Docs-Icon" transform="translate(-17.000000, -156.000000)">
            <g id="react-bw" transform="translate(12.000000, 151.000000)">
                <path d="M1,0 L23,0 C23.5522847,-1.01453063e-16 24,0.44771525 24,1 L24,23 C24,23.5522847 23.5522847,24 23,24 L1,24 C0.44771525,24 6.76353751e-17,23.5522847 0,23 L0,1 C-6.76353751e-17,0.44771525 0.44771525,1.01453063e-16 1,0 Z" id="Rectangle-14"></path>
                <g id="Group-4" transform="translate(5.000000, 5.036429)">
                    <mask id="mask-2" fill="white">
                        <use xlink:href="#path-1"></use>
                    </mask>
                    <g id="Clip-2"></g>
                    <path d="M9.77244387,-7.28306304e-14 C9.07930209,0.00309642317 8.19529401,0.497340204 7.30451704,1.36811815 L7.30451704,1.36811815 C7.1864061,1.48377866 7.07105136,1.6026722 6.95841227,1.72493538 L6.95841227,1.72493538 C6.88277912,1.64383642 6.80601106,1.56410352 6.72802704,1.48610098 L6.72802704,1.48610098 C5.47233834,0.2334612 4.21377186,-0.294023594 3.45821044,0.197169299 L3.45821044,0.197169299 C2.73341298,0.668372048 2.51903798,2.06790978 2.823962,3.81889155 L2.823962,3.81889155 C2.85419905,3.99233678 2.88840825,4.16468916 2.92654909,4.33626743 L2.92654909,4.33626743 C2.74857204,4.39309591 2.57659376,4.4536583 2.41207341,4.51822783 L2.41207341,4.51822783 C0.940064166,5.09457236 1.03028697e-13,5.99822703 1.03028697e-13,6.93557808 L1.03028697e-13,6.93557808 C1.03028697e-13,7.90366567 1.00905003,8.87466755 2.54238455,9.46335224 L2.54238455,9.46335224 C2.66673745,9.51093698 2.79206313,9.5549244 2.91840211,9.59545112 L2.91840211,9.59545112 C2.87738348,9.78014365 2.84082341,9.96615672 2.8091272,10.153126 L2.8091272,10.153126 C2.51834893,11.8735989 2.74541052,13.2398956 3.46814083,13.7083207 L3.46814083,13.7083207 C4.21458251,14.1918636 5.46739341,13.6947966 6.68741374,12.4967996 L6.68741374,12.4967996 C6.78383993,12.4022221 6.8808741,12.301816 6.97754349,12.196401 L6.97754349,12.196401 C7.09954552,12.3288187 7.22495226,12.4571836 7.35335839,12.581587 L7.35335839,12.581587 C8.22309912,13.422448 9.08505767,13.8942883 9.7674584,13.8974758 L9.7674584,13.8974758 L9.7812799,13.8974758 C10.0205012,13.8963829 10.2373081,13.8371866 10.4243238,13.7156064 L10.4243238,13.7156064 C11.1700359,13.2305608 11.4122566,11.7629929 11.0976859,9.97717634 L11.0976859,9.97717634 C11.0736097,9.8411614 11.0457236,9.70173129 11.0142705,9.55979671 L11.0142705,9.55979671 C11.1023471,9.53047176 11.1887213,9.50037271 11.2728662,9.46908973 L11.2728662,9.46908973 C12.866918,8.87589701 13.9038137,7.91655226 13.9038137,6.93557808 L13.9038137,6.93557808 C13.9038137,5.99490293 12.9335935,5.08537416 11.4317526,4.504385 L11.4317526,4.504385 C11.2837288,4.44746545 11.1344892,4.39450751 10.9842362,4.34601206 L10.9842362,4.34601206 C11.0090013,4.23194529 11.0320642,4.11787853 11.0533436,4.00299212 L11.0533436,4.00299212 C11.3923147,2.15524713 11.1706844,0.666869372 10.4142313,0.176905941 L10.4142313,0.176905941 C10.231593,0.0585588264 10.0195689,0.00109285524 9.78569791,-7.28306304e-14 L9.78569791,-7.28306304e-14 L9.77244387,-7.28306304e-14 Z M8.55011321,3.848854 C8.16805634,3.23781132 7.77213746,2.68204889 7.37479994,2.20101045 L7.37479994,2.20101045 C7.47900832,2.08826421 7.5856081,1.9784778 7.69455875,1.8716512 L7.69455875,1.8716512 C8.72091605,0.867954736 9.68039516,0.47161257 10.1175353,0.754753147 L10.1175353,0.754753147 C10.5831697,1.05669994 10.7641461,2.27309336 10.4715439,3.86847986 L10.4715439,3.86847986 C10.4525343,3.97234664 10.4315791,4.07589467 10.4090837,4.17894182 L10.4090837,4.17894182 C9.83214785,4.02940279 9.20588426,3.91815924 8.55011321,3.848854 L8.55011321,3.848854 Z M3.40685609,3.69079981 C3.14542317,2.19049171 3.31906327,1.05888565 3.75571705,0.774743291 L3.75571705,0.774743291 C4.220865,0.472250069 5.24941104,0.903745745 6.33356731,1.98494386 L6.33356731,1.98494386 C6.4028369,2.05420356 6.47251182,2.12651415 6.5421462,2.2014658 L6.5421462,2.2014658 C6.13832353,2.68860602 5.73904046,3.24359434 5.35771318,3.84803436 L5.35771318,3.84803436 C4.70384714,3.9160646 4.07782674,4.02553226 3.50239057,4.17197486 L3.50239057,4.17197486 C3.46692487,4.012418 3.43510706,3.85181382 3.40685609,3.69079981 L3.40685609,3.69079981 Z M6.95849334,2.67813283 C7.23232913,3.01163582 7.50685397,3.38393517 7.77679866,3.78783625 L7.77679866,3.78783625 C7.22928921,3.75892112 6.68092858,3.75864791 6.13350019,3.78742643 L6.13350019,3.78742643 C6.40368808,3.38735034 6.68028006,3.01546081 6.95849334,2.67813283 L6.95849334,2.67813283 Z M5.69295531,9.42109517 C5.453045,9.02712086 5.22626713,8.62321978 5.01347289,8.21016603 L5.01347289,8.21016603 C4.80165142,7.79925246 4.60389464,7.37941391 4.42044574,6.95160662 L4.42044574,6.95160662 C4.60332719,6.5237538 4.80059758,6.10368756 5.01181107,5.69250078 L5.01181107,5.69250078 C5.01181107,5.69250078 5.44769474,4.87882452 5.6859027,4.48658056 L5.6859027,4.48658056 C6.09941258,4.4516092 6.52333924,4.43330387 6.95200818,4.43330387 L6.95200818,4.43330387 C7.3825416,4.43330387 7.80699518,4.4517458 8.22042399,4.48699039 L8.22042399,4.48699039 C8.45611895,4.87882452 8.6796137,5.27935597 8.8903408,5.68867579 L8.8903408,5.68867579 C9.10216227,6.099134 9.3019862,6.51719666 9.48960992,6.94218074 L9.48960992,6.94218074 C9.30397228,7.37139964 9.1047158,7.79319622 8.89232688,8.20638657 L8.89232688,8.20638657 L8.89224582,8.20638657 C8.68164031,8.61757336 8.45911834,9.0207914 8.22504467,9.41553982 L8.22504467,9.41553982 C7.81258863,9.44878084 7.38627056,9.46581116 6.95200818,9.46581116 L6.95200818,9.46581116 C6.51932655,9.46581116 6.09835874,9.4506478 5.69295531,9.42109517 L5.69295531,9.42109517 Z M3.66293876,4.81530231 C4.05950617,4.71557927 4.48262219,4.63397941 4.9233292,4.57214202 L4.9233292,4.57214202 C4.77583239,4.83051121 4.6337669,5.09306969 4.4970922,5.35908886 L4.4970922,5.35908886 C4.36062016,5.62506251 4.22978209,5.89426918 4.10461855,6.16679995 L4.10461855,6.16679995 C3.93170803,5.70588826 3.7836843,5.25276316 3.66293876,4.81530231 L3.66293876,4.81530231 Z M9.40437063,5.35444423 C9.26834444,5.09074737 9.12741385,4.83028354 8.9816194,4.57341702 L8.9816194,4.57341702 C9.42516367,4.63616513 9.85022523,4.71985962 10.2493056,4.82222373 L10.2493056,4.82222373 C10.1295734,5.25381048 9.98013105,5.70497755 9.80422114,6.16730085 L9.80422114,6.16730085 C9.67573395,5.89335847 9.54234236,5.62255805 9.40437063,5.35444423 L9.40437063,5.35444423 Z M2.73450735,8.83200066 C2.05660569,8.57167344 1.49657178,8.23311599 1.11289362,7.86418628 L1.11289362,7.86418628 C0.768004821,7.53245918 0.593878332,7.20282672 0.593878332,6.93557808 L0.593878332,6.93557808 C0.593878332,6.36679246 1.34862911,5.64136426 2.60760092,5.14825887 L2.60760092,5.14825887 C2.76567664,5.08660363 2.92521152,5.03023051 3.08616504,4.97904846 L3.08616504,4.97904846 C3.26033206,5.61490806 3.48844749,6.27954619 3.76378297,6.95165216 L3.76378297,6.95165216 C3.48484012,7.63414025 3.25327945,8.30938818 3.07777486,8.95257902 L3.07777486,8.95257902 C2.96233905,8.91560409 2.84803815,8.87539612 2.73450735,8.83200066 L2.73450735,8.83200066 Z M10.148502,6.93899325 C10.4256614,6.26784353 10.6538579,5.61058218 10.8251877,4.98897522 L10.8251877,4.98897522 C10.9673747,5.03537604 11.1054681,5.08387149 11.2384138,5.1355089 L11.2384138,5.1355089 C12.5251907,5.63298571 13.3098948,6.36861389 13.3098948,6.93557808 L13.3098948,6.93557808 C13.3098948,7.53942613 12.4622442,8.32332208 11.0861342,8.83559798 L11.0861342,8.83559798 L11.0860531,8.83559798 C11.0100552,8.86392114 10.9319901,8.89133359 10.8525874,8.91783533 L10.8525874,8.91783533 C10.6764749,8.29194803 10.4389965,7.62639919 10.148502,6.93899325 L10.148502,6.93899325 Z M9.4067215,8.53979849 C9.54659825,8.26754093 9.68100314,7.99141284 9.80997672,7.71223387 L9.80997672,7.71223387 C9.99573596,8.18808125 10.1526362,8.64858312 10.2769081,9.08640825 L10.2769081,9.08640825 C9.8736934,9.18968307 9.43837717,9.27305882 8.97995758,9.33471407 L8.97995758,9.33471407 C9.12692747,9.07297524 9.26915509,8.80809445 9.4067215,8.53979849 L9.4067215,8.53979849 Z M3.65462966,9.11518677 C3.7774018,8.66993934 3.92862758,8.20697854 4.10510493,7.73627668 L4.10510493,7.73627668 C4.23103859,8.0091262 4.36236304,8.27860609 4.49952413,8.54435206 L4.49952413,8.54435206 C4.63927928,8.81574444 4.78479001,9.0834029 4.93605632,9.34659887 L4.93605632,9.34659887 C4.48071717,9.28967933 4.051116,9.21222321 3.65462966,9.11518677 L3.65462966,9.11518677 Z M7.7408871,12.0757771 C7.62504597,11.9638506 7.50827259,11.8443195 7.39121549,11.7178215 L7.39121549,11.7178215 C7.78291903,11.2362822 8.1745415,10.6766948 8.55667943,10.0551789 L8.55667943,10.0551789 C9.22882551,9.98815043 9.86372247,9.87845509 10.4397261,9.7289616 L10.4397261,9.7289616 C10.4680176,9.8576453 10.4934718,9.98355133 10.515116,10.1068163 L10.515116,10.1068163 C10.6541416,10.8963587 10.6740429,11.6102663 10.5818321,12.1685788 L10.5818321,12.1685788 C10.4988626,12.669744 10.3325588,13.0042943 10.126574,13.138169 L10.126574,13.138169 C10.0305126,13.2006895 9.91045614,13.2316537 9.77090364,13.2316537 L9.77090364,13.2316537 C9.27397842,13.2316537 8.52984709,12.8385901 7.7408871,12.0757771 L7.7408871,12.0757771 Z M3.76508,13.1301548 C3.3263996,12.8459669 3.1440856,11.7489224 3.39266981,10.2773472 L3.39266981,10.2773472 C3.42221781,10.1036288 3.45618382,9.93068446 3.4942436,9.75887851 L3.4942436,9.75887851 C4.06384312,9.90035773 4.69415993,10.0022209 5.36800837,10.0635574 L5.36800837,10.0635574 C5.75274036,10.6717314 6.15559026,11.2306358 6.56127742,11.7200983 L6.56127742,11.7200983 C6.47526801,11.8140839 6.38682667,11.9053828 6.29643978,11.9942228 L6.29643978,11.9942228 C5.75699624,12.5242121 5.21637727,12.8998811 4.74012349,13.088945 L4.74012349,13.088945 L4.74004242,13.088945 C4.50961666,13.180335 4.30448301,13.2240037 4.13205887,13.2240037 L4.13205887,13.2240037 C3.98407568,13.2240037 3.86020916,13.1918556 3.76508,13.1301548 L3.76508,13.1301548 Z M7.79114707,10.1120529 C7.52039173,10.5256075 7.24704233,10.9033256 6.97511155,11.2402438 L6.97511155,11.2402438 C6.69333144,10.8987721 6.41280783,10.5214182 6.13844512,10.1154225 L6.13844512,10.1154225 C6.40457979,10.1269886 6.67602418,10.1329993 6.95200818,10.1329993 L6.95200818,10.1329993 C7.23540958,10.1329993 7.51540627,10.1258047 7.79114707,10.1120529 L7.79114707,10.1120529 Z" id="Fill-1" stroke="#54666D" stroke-width="2" fill="#595959" mask="url(#mask-2)"></path>
                    <mask id="mask-4" fill="white">
                        <use xlink:href="#path-3"></use>
                    </mask>
                    <g id="Clip-5"></g>
                    <path d="M5.7552783,6.80858586 C5.7552783,7.49895441 6.3149871,8.05870827 7.00544153,8.05870827 L7.00544153,8.05870827 C7.69573273,8.05870827 8.2552783,7.49895441 8.2552783,6.80858586 L8.2552783,6.80858586 C8.2552783,6.11833973 7.69573273,5.55870827 7.00544153,5.55870827 L7.00544153,5.55870827 C6.3149871,5.55870827 5.7552783,6.11833973 5.7552783,6.80858586" id="Fill-4" fill="#54666D" mask="url(#mask-4)"></path>
                </g>
            </g>
        </g>
    </g>
</svg>
