<?xml version="1.0" encoding="UTF-8"?>
<svg width="14px" height="14px" viewBox="0 0 14 14" version="1.1" xmlns="http://www.w3.org/2000/svg" xmlns:xlink="http://www.w3.org/1999/xlink">
    <!-- Generator: sketchtool 53.2 (72643) - https://sketchapp.com -->
    <title>49C918FE-628A-414F-9BBF-F85CD5C226F3</title>
    <desc>Created with sketchtool.</desc>
    <defs>
        <path d="M9.77244387,0.0364285079 C9.07930209,0.039524931 8.19529401,0.533768712 7.30451704,1.40454666 L7.30451704,1.40454666 C7.1864061,1.52020717 7.07105136,1.63910071 6.95841227,1.76136389 L6.95841227,1.76136389 C6.88277912,1.68026493 6.80601106,1.60053203 6.72802704,1.52252949 L6.72802704,1.52252949 C5.47233834,0.269889708 4.21377186,-0.257595086 3.45821044,0.233597807 L3.45821044,0.233597807 C2.73341298,0.704800556 2.51903798,2.10433829 2.823962,3.85532006 L2.823962,3.85532006 C2.85419905,4.02876529 2.88840825,4.20111767 2.92654909,4.37269594 L2.92654909,4.37269594 C2.74857204,4.42952441 2.57659376,4.49008681 2.41207341,4.55465634 L2.41207341,4.55465634 C0.940064166,5.13100087 0,6.03465554 0,6.97200659 L0,6.97200659 C0,7.94009418 1.00905003,8.91109606 2.54238455,9.49978075 L2.54238455,9.49978075 C2.66673745,9.54736548 2.79206313,9.59135291 2.91840211,9.63187962 L2.91840211,9.63187962 C2.87738348,9.81657216 2.84082341,10.0025852 2.8091272,10.1895545 L2.8091272,10.1895545 C2.51834893,11.9100274 2.74541052,13.2763242 3.46814083,13.7447492 L3.46814083,13.7447492 C4.21458251,14.2282921 5.46739341,13.7312251 6.68741374,12.5332281 L6.68741374,12.5332281 C6.78383993,12.4386506 6.8808741,12.3382445 6.97754349,12.2328295 L6.97754349,12.2328295 C7.09954552,12.3652472 7.22495226,12.4936121 7.35335839,12.6180155 L7.35335839,12.6180155 C8.22309912,13.4588765 9.08505767,13.9307168 9.7674584,13.9339043 L9.7674584,13.9339043 L9.7812799,13.9339043 C10.0205012,13.9328114 10.2373081,13.8736151 10.4243238,13.7520349 L10.4243238,13.7520349 C11.1700359,13.2669894 11.4122566,11.7994214 11.0976859,10.0136049 L11.0976859,10.0136049 C11.0736097,9.87758991 11.0457236,9.73815979 11.0142705,9.59622522 L11.0142705,9.59622522 C11.1023471,9.56690027 11.1887213,9.53680122 11.2728662,9.50551824 L11.2728662,9.50551824 C12.866918,8.91232552 13.9038137,7.95298077 13.9038137,6.97200659 L13.9038137,6.97200659 C13.9038137,6.03133144 12.9335935,5.12180267 11.4317526,4.54081351 L11.4317526,4.54081351 C11.2837288,4.48389396 11.1344892,4.43093602 10.9842362,4.38244057 L10.9842362,4.38244057 C11.0090013,4.2683738 11.0320642,4.15430704 11.0533436,4.03942063 L11.0533436,4.03942063 C11.3923147,2.19167564 11.1706844,0.70329788 10.4142313,0.213334449 L10.4142313,0.213334449 C10.231593,0.0949873343 10.0195689,0.0375213631 9.78569791,0.0364285079 L9.78569791,0.0364285079 L9.77244387,0.0364285079 Z M8.55011321,3.88528251 C8.16805634,3.27423982 7.77213746,2.7184774 7.37479994,2.23743895 L7.37479994,2.23743895 C7.47900832,2.12469272 7.5856081,2.01490631 7.69455875,1.90807971 L7.69455875,1.90807971 C8.72091605,0.904383243 9.68039516,0.508041078 10.1175353,0.791181655 L10.1175353,0.791181655 C10.5831697,1.09312845 10.7641461,2.30952186 10.4715439,3.90490837 L10.4715439,3.90490837 C10.4525343,4.00877515 10.4315791,4.11232318 10.4090837,4.21537032 L10.4090837,4.21537032 C9.83214785,4.0658313 9.20588426,3.95458774 8.55011321,3.88528251 L8.55011321,3.88528251 Z M3.40685609,3.72722832 C3.14542317,2.22692022 3.31906327,1.09531416 3.75571705,0.811171799 L3.75571705,0.811171799 C4.220865,0.508678577 5.24941104,0.940174252 6.33356731,2.02137237 L6.33356731,2.02137237 C6.4028369,2.09063207 6.47251182,2.16294265 6.5421462,2.23789431 L6.5421462,2.23789431 C6.13832353,2.72503453 5.73904046,3.28002285 5.35771318,3.88446287 L5.35771318,3.88446287 C4.70384714,3.9524931 4.07782674,4.06196077 3.50239057,4.20840337 L3.50239057,4.20840337 C3.46692487,4.04884651 3.43510706,3.88824232 3.40685609,3.72722832 L3.40685609,3.72722832 Z M6.95849334,2.71456134 C7.23232913,3.04806432 7.50685397,3.42036368 7.77679866,3.82426476 L7.77679866,3.82426476 C7.22928921,3.79534963 6.68092858,3.79507641 6.13350019,3.82385494 L6.13350019,3.82385494 C6.40368808,3.42377885 6.68028006,3.05188932 6.95849334,2.71456134 L6.95849334,2.71456134 Z M5.69295531,9.45752368 C5.453045,9.06354936 5.22626713,8.65964828 5.01347289,8.24659454 L5.01347289,8.24659454 C4.80165142,7.83568097 4.60389464,7.41584242 4.42044574,6.98803513 L4.42044574,6.98803513 C4.60332719,6.5601823 4.80059758,6.14011607 5.01181107,5.72892929 L5.01181107,5.72892929 C5.01181107,5.72892929 5.44769474,4.91525303 5.6859027,4.52300907 L5.6859027,4.52300907 C6.09941258,4.48803771 6.52333924,4.46973238 6.95200818,4.46973238 L6.95200818,4.46973238 C7.3825416,4.46973238 7.80699518,4.48817431 8.22042399,4.52341889 L8.22042399,4.52341889 C8.45611895,4.91525303 8.6796137,5.31578448 8.8903408,5.7251043 L8.8903408,5.7251043 C9.10216227,6.13556251 9.3019862,6.55362517 9.48960992,6.97860925 L9.48960992,6.97860925 C9.30397228,7.40782815 9.1047158,7.82962473 8.89232688,8.24281508 L8.89232688,8.24281508 L8.89224582,8.24281508 C8.68164031,8.65400187 8.45911834,9.05721991 8.22504467,9.45196833 L8.22504467,9.45196833 C7.81258863,9.48520934 7.38627056,9.50223967 6.95200818,9.50223967 L6.95200818,9.50223967 C6.51932655,9.50223967 6.09835874,9.4870763 5.69295531,9.45752368 L5.69295531,9.45752368 Z M3.66293876,4.85173082 C4.05950617,4.75200778 4.48262219,4.67040792 4.9233292,4.60857053 L4.9233292,4.60857053 C4.77583239,4.86693972 4.6337669,5.12949819 4.4970922,5.39551737 L4.4970922,5.39551737 C4.36062016,5.66149101 4.22978209,5.93069769 4.10461855,6.20322846 L4.10461855,6.20322846 C3.93170803,5.74231677 3.7836843,5.28919166 3.66293876,4.85173082 L3.66293876,4.85173082 Z M9.40437063,5.39087274 C9.26834444,5.12717588 9.12741385,4.86671204 8.9816194,4.60984553 L8.9816194,4.60984553 C9.42516367,4.67259363 9.85022523,4.75628813 10.2493056,4.85865224 L10.2493056,4.85865224 C10.1295734,5.29023898 9.98013105,5.74140605 9.80422114,6.20372935 L9.80422114,6.20372935 C9.67573395,5.92978698 9.54234236,5.65898655 9.40437063,5.39087274 L9.40437063,5.39087274 Z M2.73450735,8.86842917 C2.05660569,8.60810195 1.49657178,8.2695445 1.11289362,7.90061479 L1.11289362,7.90061479 C0.768004821,7.56888769 0.593878332,7.23925523 0.593878332,6.97200659 L0.593878332,6.97200659 C0.593878332,6.40322097 1.34862911,5.67779277 2.60760092,5.18468738 L2.60760092,5.18468738 C2.76567664,5.12303213 2.92521152,5.06665902 3.08616504,5.01547696 L3.08616504,5.01547696 C3.26033206,5.65133657 3.48844749,6.31597469 3.76378297,6.98808066 L3.76378297,6.98808066 C3.48484012,7.67056876 3.25327945,8.34581669 3.07777486,8.98900753 L3.07777486,8.98900753 C2.96233905,8.9520326 2.84803815,8.91182463 2.73450735,8.86842917 L2.73450735,8.86842917 Z M10.148502,6.97542176 C10.4256614,6.30427204 10.6538579,5.64701068 10.8251877,5.02540373 L10.8251877,5.02540373 C10.9673747,5.07180454 11.1054681,5.12029999 11.2384138,5.1719374 L11.2384138,5.1719374 C12.5251907,5.66941422 13.3098948,6.4050424 13.3098948,6.97200659 L13.3098948,6.97200659 C13.3098948,7.57585464 12.4622442,8.35975059 11.0861342,8.87202648 L11.0861342,8.87202648 L11.0860531,8.87202648 C11.0100552,8.90034965 10.9319901,8.9277621 10.8525874,8.95426384 L10.8525874,8.95426384 C10.6764749,8.32837654 10.4389965,7.6628277 10.148502,6.97542176 L10.148502,6.97542176 Z M9.4067215,8.576227 C9.54659825,8.30396944 9.68100314,8.02784135 9.80997672,7.74866237 L9.80997672,7.74866237 C9.99573596,8.22450976 10.1526362,8.68501163 10.2769081,9.12283676 L10.2769081,9.12283676 C9.8736934,9.22611158 9.43837717,9.30948733 8.97995758,9.37114258 L8.97995758,9.37114258 C9.12692747,9.10940375 9.26915509,8.84452296 9.4067215,8.576227 L9.4067215,8.576227 Z M3.65462966,9.15161528 C3.7774018,8.70636785 3.92862758,8.24340705 4.10510493,7.77270519 L4.10510493,7.77270519 C4.23103859,8.04555471 4.36236304,8.3150346 4.49952413,8.58078056 L4.49952413,8.58078056 C4.63927928,8.85217295 4.78479001,9.11983141 4.93605632,9.38302738 L4.93605632,9.38302738 C4.48071717,9.32610784 4.051116,9.24865172 3.65462966,9.15161528 L3.65462966,9.15161528 Z M7.7408871,12.1122057 C7.62504597,12.0002791 7.50827259,11.880748 7.39121549,11.75425 L7.39121549,11.75425 C7.78291903,11.2727107 8.1745415,10.7131233 8.55667943,10.0916074 L8.55667943,10.0916074 C9.22882551,10.0245789 9.86372247,9.91488359 10.4397261,9.7653901 L10.4397261,9.7653901 C10.4680176,9.89407381 10.4934718,10.0199798 10.515116,10.1432448 L10.515116,10.1432448 C10.6541416,10.9327872 10.6740429,11.6466949 10.5818321,12.2050073 L10.5818321,12.2050073 C10.4988626,12.7061725 10.3325588,13.0407228 10.126574,13.1745975 L10.126574,13.1745975 C10.0305126,13.237118 9.91045614,13.2680822 9.77090364,13.2680822 L9.77090364,13.2680822 C9.27397842,13.2680822 8.52984709,12.8750186 7.7408871,12.1122057 L7.7408871,12.1122057 Z M3.76508,13.1665833 C3.3263996,12.8823954 3.1440856,11.7853509 3.39266981,10.3137758 L3.39266981,10.3137758 C3.42221781,10.1400573 3.45618382,9.96711297 3.4942436,9.79530702 L3.4942436,9.79530702 C4.06384312,9.93678623 4.69415993,10.0386494 5.36800837,10.0999859 L5.36800837,10.0999859 C5.75274036,10.7081599 6.15559026,11.2670643 6.56127742,11.7565268 L6.56127742,11.7565268 C6.47526801,11.8505124 6.38682667,11.9418113 6.29643978,12.0306513 L6.29643978,12.0306513 C5.75699624,12.5606406 5.21637727,12.9363096 4.74012349,13.1253735 L4.74012349,13.1253735 L4.74004242,13.1253735 C4.50961666,13.2167635 4.30448301,13.2604322 4.13205887,13.2604322 L4.13205887,13.2604322 C3.98407568,13.2604322 3.86020916,13.2282841 3.76508,13.1665833 L3.76508,13.1665833 Z M7.79114707,10.1484814 C7.52039173,10.562036 7.24704233,10.9397541 6.97511155,11.2766723 L6.97511155,11.2766723 C6.69333144,10.9352006 6.41280783,10.5578468 6.13844512,10.151851 L6.13844512,10.151851 C6.40457979,10.1634171 6.67602418,10.1694278 6.95200818,10.1694278 L6.95200818,10.1694278 C7.23540958,10.1694278 7.51540627,10.1622332 7.79114707,10.1484814 L7.79114707,10.1484814 Z" id="path-1"></path>
        <path d="M0.0350364811,1.39837966 C0.0350364811,2.1588562 0.579889514,2.77545394 1.25201793,2.77545394 L1.25201793,2.77545394 C1.92398745,2.77545394 2.46868158,2.1588562 2.46868158,1.39837966 L2.46868158,1.39837966 C2.46868158,0.638037971 1.92398745,0.0215750776 1.25201793,0.0215750776 L1.25201793,0.0215750776 C0.579889514,0.0215750776 0.0350364811,0.638037971 0.0350364811,1.39837966" id="path-3"></path>
    </defs>
    <g id="Docs" stroke="none" stroke-width="1" fill="none" fill-rule="evenodd">
        <g id="Docs-Icon" transform="translate(-17.000000, -156.000000)">
            <g id="reactBw" transform="translate(12.000000, 151.000000)">
                <g id="Group-3" transform="translate(5.000000, 5.000000)">
                    <mask id="mask-2" fill="white">
                        <use xlink:href="#path-1"></use>
                    </mask>
                    <g id="Clip-2"></g>
                    <path d="M9.77244387,0.0364285079 C9.07930209,0.039524931 8.19529401,0.533768712 7.30451704,1.40454666 L7.30451704,1.40454666 C7.1864061,1.52020717 7.07105136,1.63910071 6.95841227,1.76136389 L6.95841227,1.76136389 C6.88277912,1.68026493 6.80601106,1.60053203 6.72802704,1.52252949 L6.72802704,1.52252949 C5.47233834,0.269889708 4.21377186,-0.257595086 3.45821044,0.233597807 L3.45821044,0.233597807 C2.73341298,0.704800556 2.51903798,2.10433829 2.823962,3.85532006 L2.823962,3.85532006 C2.85419905,4.02876529 2.88840825,4.20111767 2.92654909,4.37269594 L2.92654909,4.37269594 C2.74857204,4.42952441 2.57659376,4.49008681 2.41207341,4.55465634 L2.41207341,4.55465634 C0.940064166,5.13100087 0,6.03465554 0,6.97200659 L0,6.97200659 C0,7.94009418 1.00905003,8.91109606 2.54238455,9.49978075 L2.54238455,9.49978075 C2.66673745,9.54736548 2.79206313,9.59135291 2.91840211,9.63187962 L2.91840211,9.63187962 C2.87738348,9.81657216 2.84082341,10.0025852 2.8091272,10.1895545 L2.8091272,10.1895545 C2.51834893,11.9100274 2.74541052,13.2763242 3.46814083,13.7447492 L3.46814083,13.7447492 C4.21458251,14.2282921 5.46739341,13.7312251 6.68741374,12.5332281 L6.68741374,12.5332281 C6.78383993,12.4386506 6.8808741,12.3382445 6.97754349,12.2328295 L6.97754349,12.2328295 C7.09954552,12.3652472 7.22495226,12.4936121 7.35335839,12.6180155 L7.35335839,12.6180155 C8.22309912,13.4588765 9.08505767,13.9307168 9.7674584,13.9339043 L9.7674584,13.9339043 L9.7812799,13.9339043 C10.0205012,13.9328114 10.2373081,13.8736151 10.4243238,13.7520349 L10.4243238,13.7520349 C11.1700359,13.2669894 11.4122566,11.7994214 11.0976859,10.0136049 L11.0976859,10.0136049 C11.0736097,9.87758991 11.0457236,9.73815979 11.0142705,9.59622522 L11.0142705,9.59622522 C11.1023471,9.56690027 11.1887213,9.53680122 11.2728662,9.50551824 L11.2728662,9.50551824 C12.866918,8.91232552 13.9038137,7.95298077 13.9038137,6.97200659 L13.9038137,6.97200659 C13.9038137,6.03133144 12.9335935,5.12180267 11.4317526,4.54081351 L11.4317526,4.54081351 C11.2837288,4.48389396 11.1344892,4.43093602 10.9842362,4.38244057 L10.9842362,4.38244057 C11.0090013,4.2683738 11.0320642,4.15430704 11.0533436,4.03942063 L11.0533436,4.03942063 C11.3923147,2.19167564 11.1706844,0.70329788 10.4142313,0.213334449 L10.4142313,0.213334449 C10.231593,0.0949873343 10.0195689,0.0375213631 9.78569791,0.0364285079 L9.78569791,0.0364285079 L9.77244387,0.0364285079 Z M8.55011321,3.88528251 C8.16805634,3.27423982 7.77213746,2.7184774 7.37479994,2.23743895 L7.37479994,2.23743895 C7.47900832,2.12469272 7.5856081,2.01490631 7.69455875,1.90807971 L7.69455875,1.90807971 C8.72091605,0.904383243 9.68039516,0.508041078 10.1175353,0.791181655 L10.1175353,0.791181655 C10.5831697,1.09312845 10.7641461,2.30952186 10.4715439,3.90490837 L10.4715439,3.90490837 C10.4525343,4.00877515 10.4315791,4.11232318 10.4090837,4.21537032 L10.4090837,4.21537032 C9.83214785,4.0658313 9.20588426,3.95458774 8.55011321,3.88528251 L8.55011321,3.88528251 Z M3.40685609,3.72722832 C3.14542317,2.22692022 3.31906327,1.09531416 3.75571705,0.811171799 L3.75571705,0.811171799 C4.220865,0.508678577 5.24941104,0.940174252 6.33356731,2.02137237 L6.33356731,2.02137237 C6.4028369,2.09063207 6.47251182,2.16294265 6.5421462,2.23789431 L6.5421462,2.23789431 C6.13832353,2.72503453 5.73904046,3.28002285 5.35771318,3.88446287 L5.35771318,3.88446287 C4.70384714,3.9524931 4.07782674,4.06196077 3.50239057,4.20840337 L3.50239057,4.20840337 C3.46692487,4.04884651 3.43510706,3.88824232 3.40685609,3.72722832 L3.40685609,3.72722832 Z M6.95849334,2.71456134 C7.23232913,3.04806432 7.50685397,3.42036368 7.77679866,3.82426476 L7.77679866,3.82426476 C7.22928921,3.79534963 6.68092858,3.79507641 6.13350019,3.82385494 L6.13350019,3.82385494 C6.40368808,3.42377885 6.68028006,3.05188932 6.95849334,2.71456134 L6.95849334,2.71456134 Z M5.69295531,9.45752368 C5.453045,9.06354936 5.22626713,8.65964828 5.01347289,8.24659454 L5.01347289,8.24659454 C4.80165142,7.83568097 4.60389464,7.41584242 4.42044574,6.98803513 L4.42044574,6.98803513 C4.60332719,6.5601823 4.80059758,6.14011607 5.01181107,5.72892929 L5.01181107,5.72892929 C5.01181107,5.72892929 5.44769474,4.91525303 5.6859027,4.52300907 L5.6859027,4.52300907 C6.09941258,4.48803771 6.52333924,4.46973238 6.95200818,4.46973238 L6.95200818,4.46973238 C7.3825416,4.46973238 7.80699518,4.48817431 8.22042399,4.52341889 L8.22042399,4.52341889 C8.45611895,4.91525303 8.6796137,5.31578448 8.8903408,5.7251043 L8.8903408,5.7251043 C9.10216227,6.13556251 9.3019862,6.55362517 9.48960992,6.97860925 L9.48960992,6.97860925 C9.30397228,7.40782815 9.1047158,7.82962473 8.89232688,8.24281508 L8.89232688,8.24281508 L8.89224582,8.24281508 C8.68164031,8.65400187 8.45911834,9.05721991 8.22504467,9.45196833 L8.22504467,9.45196833 C7.81258863,9.48520934 7.38627056,9.50223967 6.95200818,9.50223967 L6.95200818,9.50223967 C6.51932655,9.50223967 6.09835874,9.4870763 5.69295531,9.45752368 L5.69295531,9.45752368 Z M3.66293876,4.85173082 C4.05950617,4.75200778 4.48262219,4.67040792 4.9233292,4.60857053 L4.9233292,4.60857053 C4.77583239,4.86693972 4.6337669,5.12949819 4.4970922,5.39551737 L4.4970922,5.39551737 C4.36062016,5.66149101 4.22978209,5.93069769 4.10461855,6.20322846 L4.10461855,6.20322846 C3.93170803,5.74231677 3.7836843,5.28919166 3.66293876,4.85173082 L3.66293876,4.85173082 Z M9.40437063,5.39087274 C9.26834444,5.12717588 9.12741385,4.86671204 8.9816194,4.60984553 L8.9816194,4.60984553 C9.42516367,4.67259363 9.85022523,4.75628813 10.2493056,4.85865224 L10.2493056,4.85865224 C10.1295734,5.29023898 9.98013105,5.74140605 9.80422114,6.20372935 L9.80422114,6.20372935 C9.67573395,5.92978698 9.54234236,5.65898655 9.40437063,5.39087274 L9.40437063,5.39087274 Z M2.73450735,8.86842917 C2.05660569,8.60810195 1.49657178,8.2695445 1.11289362,7.90061479 L1.11289362,7.90061479 C0.768004821,7.56888769 0.593878332,7.23925523 0.593878332,6.97200659 L0.593878332,6.97200659 C0.593878332,6.40322097 1.34862911,5.67779277 2.60760092,5.18468738 L2.60760092,5.18468738 C2.76567664,5.12303213 2.92521152,5.06665902 3.08616504,5.01547696 L3.08616504,5.01547696 C3.26033206,5.65133657 3.48844749,6.31597469 3.76378297,6.98808066 L3.76378297,6.98808066 C3.48484012,7.67056876 3.25327945,8.34581669 3.07777486,8.98900753 L3.07777486,8.98900753 C2.96233905,8.9520326 2.84803815,8.91182463 2.73450735,8.86842917 L2.73450735,8.86842917 Z M10.148502,6.97542176 C10.4256614,6.30427204 10.6538579,5.64701068 10.8251877,5.02540373 L10.8251877,5.02540373 C10.9673747,5.07180454 11.1054681,5.12029999 11.2384138,5.1719374 L11.2384138,5.1719374 C12.5251907,5.66941422 13.3098948,6.4050424 13.3098948,6.97200659 L13.3098948,6.97200659 C13.3098948,7.57585464 12.4622442,8.35975059 11.0861342,8.87202648 L11.0861342,8.87202648 L11.0860531,8.87202648 C11.0100552,8.90034965 10.9319901,8.9277621 10.8525874,8.95426384 L10.8525874,8.95426384 C10.6764749,8.32837654 10.4389965,7.6628277 10.148502,6.97542176 L10.148502,6.97542176 Z M9.4067215,8.576227 C9.54659825,8.30396944 9.68100314,8.02784135 9.80997672,7.74866237 L9.80997672,7.74866237 C9.99573596,8.22450976 10.1526362,8.68501163 10.2769081,9.12283676 L10.2769081,9.12283676 C9.8736934,9.22611158 9.43837717,9.30948733 8.97995758,9.37114258 L8.97995758,9.37114258 C9.12692747,9.10940375 9.26915509,8.84452296 9.4067215,8.576227 L9.4067215,8.576227 Z M3.65462966,9.15161528 C3.7774018,8.70636785 3.92862758,8.24340705 4.10510493,7.77270519 L4.10510493,7.77270519 C4.23103859,8.04555471 4.36236304,8.3150346 4.49952413,8.58078056 L4.49952413,8.58078056 C4.63927928,8.85217295 4.78479001,9.11983141 4.93605632,9.38302738 L4.93605632,9.38302738 C4.48071717,9.32610784 4.051116,9.24865172 3.65462966,9.15161528 L3.65462966,9.15161528 Z M7.7408871,12.1122057 C7.62504597,12.0002791 7.50827259,11.880748 7.39121549,11.75425 L7.39121549,11.75425 C7.78291903,11.2727107 8.1745415,10.7131233 8.55667943,10.0916074 L8.55667943,10.0916074 C9.22882551,10.0245789 9.86372247,9.91488359 10.4397261,9.7653901 L10.4397261,9.7653901 C10.4680176,9.89407381 10.4934718,10.0199798 10.515116,10.1432448 L10.515116,10.1432448 C10.6541416,10.9327872 10.6740429,11.6466949 10.5818321,12.2050073 L10.5818321,12.2050073 C10.4988626,12.7061725 10.3325588,13.0407228 10.126574,13.1745975 L10.126574,13.1745975 C10.0305126,13.237118 9.91045614,13.2680822 9.77090364,13.2680822 L9.77090364,13.2680822 C9.27397842,13.2680822 8.52984709,12.8750186 7.7408871,12.1122057 L7.7408871,12.1122057 Z M3.76508,13.1665833 C3.3263996,12.8823954 3.1440856,11.7853509 3.39266981,10.3137758 L3.39266981,10.3137758 C3.42221781,10.1400573 3.45618382,9.96711297 3.4942436,9.79530702 L3.4942436,9.79530702 C4.06384312,9.93678623 4.69415993,10.0386494 5.36800837,10.0999859 L5.36800837,10.0999859 C5.75274036,10.7081599 6.15559026,11.2670643 6.56127742,11.7565268 L6.56127742,11.7565268 C6.47526801,11.8505124 6.38682667,11.9418113 6.29643978,12.0306513 L6.29643978,12.0306513 C5.75699624,12.5606406 5.21637727,12.9363096 4.74012349,13.1253735 L4.74012349,13.1253735 L4.74004242,13.1253735 C4.50961666,13.2167635 4.30448301,13.2604322 4.13205887,13.2604322 L4.13205887,13.2604322 C3.98407568,13.2604322 3.86020916,13.2282841 3.76508,13.1665833 L3.76508,13.1665833 Z M7.79114707,10.1484814 C7.52039173,10.562036 7.24704233,10.9397541 6.97511155,11.2766723 L6.97511155,11.2766723 C6.69333144,10.9352006 6.41280783,10.5578468 6.13844512,10.151851 L6.13844512,10.151851 C6.40457979,10.1634171 6.67602418,10.1694278 6.95200818,10.1694278 L6.95200818,10.1694278 C7.23540958,10.1694278 7.51540627,10.1622332 7.79114707,10.1484814 L7.79114707,10.1484814 Z" id="Fill-1" stroke="#151617" stroke-width="2" fill="#151617" mask="url(#mask-2)"></path>
                </g>
                <g id="Group-6" transform="translate(10.720242, 10.573562)">
                    <mask id="mask-4" fill="white">
                        <use xlink:href="#path-3"></use>
                    </mask>
                    <use id="Clip-5" fill="#61DAFB" xlink:href="#path-3"></use>
                    <path d="M0.0350364811,1.39837966 C0.0350364811,2.1588562 0.579889514,2.77545394 1.25201793,2.77545394 L1.25201793,2.77545394 C1.92398745,2.77545394 2.46868158,2.1588562 2.46868158,1.39837966 L2.46868158,1.39837966 C2.46868158,0.638037971 1.92398745,0.0215750776 1.25201793,0.0215750776 L1.25201793,0.0215750776 C0.579889514,0.0215750776 0.0350364811,0.638037971 0.0350364811,1.39837966" id="Fill-4" fill="#151617" mask="url(#mask-4)"></path>
                </g>
            </g>
        </g>
    </g>
</svg>