<svg width="14px" height="14px" viewBox="0 0 14 14" version="1.1" xmlns="http://www.w3.org/2000/svg" xmlns:xlink="http://www.w3.org/1999/xlink">
    <!-- Generator: sketchtool 53.2 (72643) - https://sketchapp.com -->
    <title>49C918FE-628A-414F-9BBF-F85CD5C226F3</title>
    <desc>Created with sketchtool.</desc>
    <defs>
        <path d="M1,0 L23,0 C23.5522847,-1.01453063e-16 24,0.44771525 24,1 L24,23 C24,23.5522847 23.5522847,24 23,24 L1,24 C0.44771525,24 6.76353751e-17,23.5522847 0,23 L0,1 C-6.76353751e-17,0.44771525 0.44771525,1.01453063e-16 1,0 Z" id="path-1"></path>
        <path d="M14.7724439,5.03642851 C14.0793021,5.03952493 13.195294,5.53376871 12.304517,6.40454666 L12.304517,6.40454666 C12.1864061,6.52020717 12.0710514,6.63910071 11.9584123,6.76136389 L11.9584123,6.76136389 C11.8827791,6.68026493 11.8060111,6.60053203 11.728027,6.52252949 L11.728027,6.52252949 C10.4723383,5.26988971 9.21377186,4.74240491 8.45821044,5.23359781 L8.45821044,5.23359781 C7.73341298,5.70480056 7.51903798,7.10433829 7.823962,8.85532006 L7.823962,8.85532006 C7.85419905,9.02876529 7.88840825,9.20111767 7.92654909,9.37269594 L7.92654909,9.37269594 C7.74857204,9.42952441 7.57659376,9.49008681 7.41207341,9.55465634 L7.41207341,9.55465634 C5.94006417,10.1310009 5,11.0346555 5,11.9720066 L5,11.9720066 C5,12.9400942 6.00905003,13.9110961 7.54238455,14.4997807 L7.54238455,14.4997807 C7.66673745,14.5473655 7.79206313,14.5913529 7.91840211,14.6318796 L7.91840211,14.6318796 C7.87738348,14.8165722 7.84082341,15.0025852 7.8091272,15.1895545 L7.8091272,15.1895545 C7.51834893,16.9100274 7.74541052,18.2763242 8.46814083,18.7447492 L8.46814083,18.7447492 C9.21458251,19.2282921 10.4673934,18.7312251 11.6874137,17.5332281 L11.6874137,17.5332281 C11.7838399,17.4386506 11.8808741,17.3382445 11.9775435,17.2328295 L11.9775435,17.2328295 C12.0995455,17.3652472 12.2249523,17.4936121 12.3533584,17.6180155 L12.3533584,17.6180155 C13.2230991,18.4588765 14.0850577,18.9307168 14.7674584,18.9339043 L14.7674584,18.9339043 L14.7812799,18.9339043 C15.0205012,18.9328114 15.2373081,18.8736151 15.4243238,18.7520349 L15.4243238,18.7520349 C16.1700359,18.2669894 16.4122566,16.7994214 16.0976859,15.0136049 L16.0976859,15.0136049 C16.0736097,14.8775899 16.0457236,14.7381598 16.0142705,14.5962252 L16.0142705,14.5962252 C16.1023471,14.5669003 16.1887213,14.5368012 16.2728662,14.5055182 L16.2728662,14.5055182 C17.866918,13.9123255 18.9038137,12.9529808 18.9038137,11.9720066 L18.9038137,11.9720066 C18.9038137,11.0313314 17.9335935,10.1218027 16.4317526,9.54081351 L16.4317526,9.54081351 C16.2837288,9.48389396 16.1344892,9.43093602 15.9842362,9.38244057 L15.9842362,9.38244057 C16.0090013,9.2683738 16.0320642,9.15430704 16.0533436,9.03942063 L16.0533436,9.03942063 C16.3923147,7.19167564 16.1706844,5.70329788 15.4142313,5.21333445 L15.4142313,5.21333445 C15.231593,5.09498733 15.0195689,5.03752136 14.7856979,5.03642851 L14.7856979,5.03642851 L14.7724439,5.03642851 Z M13.5501132,8.88528251 C13.1680563,8.27423982 12.7721375,7.7184774 12.3747999,7.23743895 L12.3747999,7.23743895 C12.4790083,7.12469272 12.5856081,7.01490631 12.6945588,6.90807971 L12.6945588,6.90807971 C13.7209161,5.90438324 14.6803952,5.50804108 15.1175353,5.79118166 L15.1175353,5.79118166 C15.5831697,6.09312845 15.7641461,7.30952186 15.4715439,8.90490837 L15.4715439,8.90490837 C15.4525343,9.00877515 15.4315791,9.11232318 15.4090837,9.21537032 L15.4090837,9.21537032 C14.8321479,9.0658313 14.2058843,8.95458774 13.5501132,8.88528251 L13.5501132,8.88528251 Z M8.40685609,8.72722832 C8.14542317,7.22692022 8.31906327,6.09531416 8.75571705,5.8111718 L8.75571705,5.8111718 C9.220865,5.50867858 10.249411,5.94017425 11.3335673,7.02137237 L11.3335673,7.02137237 C11.4028369,7.09063207 11.4725118,7.16294265 11.5421462,7.23789431 L11.5421462,7.23789431 C11.1383235,7.72503453 10.7390405,8.28002285 10.3577132,8.88446287 L10.3577132,8.88446287 C9.70384714,8.9524931 9.07782674,9.06196077 8.50239057,9.20840337 L8.50239057,9.20840337 C8.46692487,9.04884651 8.43510706,8.88824232 8.40685609,8.72722832 L8.40685609,8.72722832 Z M11.9584933,7.71456134 C12.2323291,8.04806432 12.506854,8.42036368 12.7767987,8.82426476 L12.7767987,8.82426476 C12.2292892,8.79534963 11.6809286,8.79507641 11.1335002,8.82385494 L11.1335002,8.82385494 C11.4036881,8.42377885 11.6802801,8.05188932 11.9584933,7.71456134 L11.9584933,7.71456134 Z M10.6929553,14.4575237 C10.453045,14.0635494 10.2262671,13.6596483 10.0134729,13.2465945 L10.0134729,13.2465945 C9.80165142,12.835681 9.60389464,12.4158424 9.42044574,11.9880351 L9.42044574,11.9880351 C9.60332719,11.5601823 9.80059758,11.1401161 10.0118111,10.7289293 L10.0118111,10.7289293 C10.0118111,10.7289293 10.4476947,9.91525303 10.6859027,9.52300907 L10.6859027,9.52300907 C11.0994126,9.48803771 11.5233392,9.46973238 11.9520082,9.46973238 L11.9520082,9.46973238 C12.3825416,9.46973238 12.8069952,9.48817431 13.220424,9.52341889 L13.220424,9.52341889 C13.4561189,9.91525303 13.6796137,10.3157845 13.8903408,10.7251043 L13.8903408,10.7251043 C14.1021623,11.1355625 14.3019862,11.5536252 14.4896099,11.9786093 L14.4896099,11.9786093 C14.3039723,12.4078281 14.1047158,12.8296247 13.8923269,13.2428151 L13.8923269,13.2428151 L13.8922458,13.2428151 C13.6816403,13.6540019 13.4591183,14.0572199 13.2250447,14.4519683 L13.2250447,14.4519683 C12.8125886,14.4852093 12.3862706,14.5022397 11.9520082,14.5022397 L11.9520082,14.5022397 C11.5193266,14.5022397 11.0983587,14.4870763 10.6929553,14.4575237 L10.6929553,14.4575237 Z M8.66293876,9.85173082 C9.05950617,9.75200778 9.48262219,9.67040792 9.9233292,9.60857053 L9.9233292,9.60857053 C9.77583239,9.86693972 9.6337669,10.1294982 9.4970922,10.3955174 L9.4970922,10.3955174 C9.36062016,10.661491 9.22978209,10.9306977 9.10461855,11.2032285 L9.10461855,11.2032285 C8.93170803,10.7423168 8.7836843,10.2891917 8.66293876,9.85173082 L8.66293876,9.85173082 Z M14.4043706,10.3908727 C14.2683444,10.1271759 14.1274139,9.86671204 13.9816194,9.60984553 L13.9816194,9.60984553 C14.4251637,9.67259363 14.8502252,9.75628813 15.2493056,9.85865224 L15.2493056,9.85865224 C15.1295734,10.290239 14.9801311,10.7414061 14.8042211,11.2037294 L14.8042211,11.2037294 C14.675734,10.929787 14.5423424,10.6589866 14.4043706,10.3908727 L14.4043706,10.3908727 Z M7.73450735,13.8684292 C7.05660569,13.6081019 6.49657178,13.2695445 6.11289362,12.9006148 L6.11289362,12.9006148 C5.76800482,12.5688877 5.59387833,12.2392552 5.59387833,11.9720066 L5.59387833,11.9720066 C5.59387833,11.403221 6.34862911,10.6777928 7.60760092,10.1846874 L7.60760092,10.1846874 C7.76567664,10.1230321 7.92521152,10.066659 8.08616504,10.015477 L8.08616504,10.015477 C8.26033206,10.6513366 8.48844749,11.3159747 8.76378297,11.9880807 L8.76378297,11.9880807 C8.48484012,12.6705688 8.25327945,13.3458167 8.07777486,13.9890075 L8.07777486,13.9890075 C7.96233905,13.9520326 7.84803815,13.9118246 7.73450735,13.8684292 L7.73450735,13.8684292 Z M15.148502,11.9754218 C15.4256614,11.304272 15.6538579,10.6470107 15.8251877,10.0254037 L15.8251877,10.0254037 C15.9673747,10.0718045 16.1054681,10.1203 16.2384138,10.1719374 L16.2384138,10.1719374 C17.5251907,10.6694142 18.3098948,11.4050424 18.3098948,11.9720066 L18.3098948,11.9720066 C18.3098948,12.5758546 17.4622442,13.3597506 16.0861342,13.8720265 L16.0861342,13.8720265 L16.0860531,13.8720265 C16.0100552,13.9003496 15.9319901,13.9277621 15.8525874,13.9542638 L15.8525874,13.9542638 C15.6764749,13.3283765 15.4389965,12.6628277 15.148502,11.9754218 L15.148502,11.9754218 Z M14.4067215,13.576227 C14.5465982,13.3039694 14.6810031,13.0278414 14.8099767,12.7486624 L14.8099767,12.7486624 C14.995736,13.2245098 15.1526362,13.6850116 15.2769081,14.1228368 L15.2769081,14.1228368 C14.8736934,14.2261116 14.4383772,14.3094873 13.9799576,14.3711426 L13.9799576,14.3711426 C14.1269275,14.1094037 14.2691551,13.844523 14.4067215,13.576227 L14.4067215,13.576227 Z M8.65462966,14.1516153 C8.7774018,13.7063678 8.92862758,13.243407 9.10510493,12.7727052 L9.10510493,12.7727052 C9.23103859,13.0455547 9.36236304,13.3150346 9.49952413,13.5807806 L9.49952413,13.5807806 C9.63927928,13.8521729 9.78479001,14.1198314 9.93605632,14.3830274 L9.93605632,14.3830274 C9.48071717,14.3261078 9.051116,14.2486517 8.65462966,14.1516153 L8.65462966,14.1516153 Z M12.7408871,17.1122057 C12.625046,17.0002791 12.5082726,16.880748 12.3912155,16.75425 L12.3912155,16.75425 C12.782919,16.2727107 13.1745415,15.7131233 13.5566794,15.0916074 L13.5566794,15.0916074 C14.2288255,15.0245789 14.8637225,14.9148836 15.4397261,14.7653901 L15.4397261,14.7653901 C15.4680176,14.8940738 15.4934718,15.0199798 15.515116,15.1432448 L15.515116,15.1432448 C15.6541416,15.9327872 15.6740429,16.6466949 15.5818321,17.2050073 L15.5818321,17.2050073 C15.4988626,17.7061725 15.3325588,18.0407228 15.126574,18.1745975 L15.126574,18.1745975 C15.0305126,18.237118 14.9104561,18.2680822 14.7709036,18.2680822 L14.7709036,18.2680822 C14.2739784,18.2680822 13.5298471,17.8750186 12.7408871,17.1122057 L12.7408871,17.1122057 Z M8.76508,18.1665833 C8.3263996,17.8823954 8.1440856,16.7853509 8.39266981,15.3137758 L8.39266981,15.3137758 C8.42221781,15.1400573 8.45618382,14.967113 8.4942436,14.795307 L8.4942436,14.795307 C9.06384312,14.9367862 9.69415993,15.0386494 10.3680084,15.0999859 L10.3680084,15.0999859 C10.7527404,15.7081599 11.1555903,16.2670643 11.5612774,16.7565268 L11.5612774,16.7565268 C11.475268,16.8505124 11.3868267,16.9418113 11.2964398,17.0306513 L11.2964398,17.0306513 C10.7569962,17.5606406 10.2163773,17.9363096 9.74012349,18.1253735 L9.74012349,18.1253735 L9.74004242,18.1253735 C9.50961666,18.2167635 9.30448301,18.2604322 9.13205887,18.2604322 L9.13205887,18.2604322 C8.98407568,18.2604322 8.86020916,18.2282841 8.76508,18.1665833 L8.76508,18.1665833 Z M12.7911471,15.1484814 C12.5203917,15.562036 12.2470423,15.9397541 11.9751116,16.2766723 L11.9751116,16.2766723 C11.6933314,15.9352006 11.4128078,15.5578468 11.1384451,15.151851 L11.1384451,15.151851 C11.4045798,15.1634171 11.6760242,15.1694278 11.9520082,15.1694278 L11.9520082,15.1694278 C12.2354096,15.1694278 12.5154063,15.1622332 12.7911471,15.1484814 L12.7911471,15.1484814 Z" id="path-3"></path>
        <path d="M10.7552783,11.8450144 C10.7552783,12.5353829 11.3149871,13.0951368 12.0054415,13.0951368 L12.0054415,13.0951368 C12.6957327,13.0951368 13.2552783,12.5353829 13.2552783,11.8450144 L13.2552783,11.8450144 C13.2552783,11.1547682 12.6957327,10.5951368 12.0054415,10.5951368 L12.0054415,10.5951368 C11.3149871,10.5951368 10.7552783,11.1547682 10.7552783,11.8450144" id="path-5"></path>
    </defs>
    <g id="Docs" stroke="none" stroke-width="1" fill="none" fill-rule="evenodd">
        <g id="Docs-Icon" transform="translate(-17.000000, -72.000000)">
            <g id="react-bw" transform="translate(12.000000, 67.000000)">
                <g id="Clip-2-+-Fill-1-+-Clip-5-+-Fill-4-Mask">
                    <mask id="mask-2" fill="white">
                        <use xlink:href="#path-1"></use>
                    </mask>
                    <g id="Mask"></g>
                    <mask id="mask-4" fill="white">
                        <use xlink:href="#path-3"></use>
                    </mask>
                    <g id="Clip-2"></g>
                    <path d="M14.7724439,5.03642851 C14.0793021,5.03952493 13.195294,5.53376871 12.304517,6.40454666 L12.304517,6.40454666 C12.1864061,6.52020717 12.0710514,6.63910071 11.9584123,6.76136389 L11.9584123,6.76136389 C11.8827791,6.68026493 11.8060111,6.60053203 11.728027,6.52252949 L11.728027,6.52252949 C10.4723383,5.26988971 9.21377186,4.74240491 8.45821044,5.23359781 L8.45821044,5.23359781 C7.73341298,5.70480056 7.51903798,7.10433829 7.823962,8.85532006 L7.823962,8.85532006 C7.85419905,9.02876529 7.88840825,9.20111767 7.92654909,9.37269594 L7.92654909,9.37269594 C7.74857204,9.42952441 7.57659376,9.49008681 7.41207341,9.55465634 L7.41207341,9.55465634 C5.94006417,10.1310009 5,11.0346555 5,11.9720066 L5,11.9720066 C5,12.9400942 6.00905003,13.9110961 7.54238455,14.4997807 L7.54238455,14.4997807 C7.66673745,14.5473655 7.79206313,14.5913529 7.91840211,14.6318796 L7.91840211,14.6318796 C7.87738348,14.8165722 7.84082341,15.0025852 7.8091272,15.1895545 L7.8091272,15.1895545 C7.51834893,16.9100274 7.74541052,18.2763242 8.46814083,18.7447492 L8.46814083,18.7447492 C9.21458251,19.2282921 10.4673934,18.7312251 11.6874137,17.5332281 L11.6874137,17.5332281 C11.7838399,17.4386506 11.8808741,17.3382445 11.9775435,17.2328295 L11.9775435,17.2328295 C12.0995455,17.3652472 12.2249523,17.4936121 12.3533584,17.6180155 L12.3533584,17.6180155 C13.2230991,18.4588765 14.0850577,18.9307168 14.7674584,18.9339043 L14.7674584,18.9339043 L14.7812799,18.9339043 C15.0205012,18.9328114 15.2373081,18.8736151 15.4243238,18.7520349 L15.4243238,18.7520349 C16.1700359,18.2669894 16.4122566,16.7994214 16.0976859,15.0136049 L16.0976859,15.0136049 C16.0736097,14.8775899 16.0457236,14.7381598 16.0142705,14.5962252 L16.0142705,14.5962252 C16.1023471,14.5669003 16.1887213,14.5368012 16.2728662,14.5055182 L16.2728662,14.5055182 C17.866918,13.9123255 18.9038137,12.9529808 18.9038137,11.9720066 L18.9038137,11.9720066 C18.9038137,11.0313314 17.9335935,10.1218027 16.4317526,9.54081351 L16.4317526,9.54081351 C16.2837288,9.48389396 16.1344892,9.43093602 15.9842362,9.38244057 L15.9842362,9.38244057 C16.0090013,9.2683738 16.0320642,9.15430704 16.0533436,9.03942063 L16.0533436,9.03942063 C16.3923147,7.19167564 16.1706844,5.70329788 15.4142313,5.21333445 L15.4142313,5.21333445 C15.231593,5.09498733 15.0195689,5.03752136 14.7856979,5.03642851 L14.7856979,5.03642851 L14.7724439,5.03642851 Z M13.5501132,8.88528251 C13.1680563,8.27423982 12.7721375,7.7184774 12.3747999,7.23743895 L12.3747999,7.23743895 C12.4790083,7.12469272 12.5856081,7.01490631 12.6945588,6.90807971 L12.6945588,6.90807971 C13.7209161,5.90438324 14.6803952,5.50804108 15.1175353,5.79118166 L15.1175353,5.79118166 C15.5831697,6.09312845 15.7641461,7.30952186 15.4715439,8.90490837 L15.4715439,8.90490837 C15.4525343,9.00877515 15.4315791,9.11232318 15.4090837,9.21537032 L15.4090837,9.21537032 C14.8321479,9.0658313 14.2058843,8.95458774 13.5501132,8.88528251 L13.5501132,8.88528251 Z M8.40685609,8.72722832 C8.14542317,7.22692022 8.31906327,6.09531416 8.75571705,5.8111718 L8.75571705,5.8111718 C9.220865,5.50867858 10.249411,5.94017425 11.3335673,7.02137237 L11.3335673,7.02137237 C11.4028369,7.09063207 11.4725118,7.16294265 11.5421462,7.23789431 L11.5421462,7.23789431 C11.1383235,7.72503453 10.7390405,8.28002285 10.3577132,8.88446287 L10.3577132,8.88446287 C9.70384714,8.9524931 9.07782674,9.06196077 8.50239057,9.20840337 L8.50239057,9.20840337 C8.46692487,9.04884651 8.43510706,8.88824232 8.40685609,8.72722832 L8.40685609,8.72722832 Z M11.9584933,7.71456134 C12.2323291,8.04806432 12.506854,8.42036368 12.7767987,8.82426476 L12.7767987,8.82426476 C12.2292892,8.79534963 11.6809286,8.79507641 11.1335002,8.82385494 L11.1335002,8.82385494 C11.4036881,8.42377885 11.6802801,8.05188932 11.9584933,7.71456134 L11.9584933,7.71456134 Z M10.6929553,14.4575237 C10.453045,14.0635494 10.2262671,13.6596483 10.0134729,13.2465945 L10.0134729,13.2465945 C9.80165142,12.835681 9.60389464,12.4158424 9.42044574,11.9880351 L9.42044574,11.9880351 C9.60332719,11.5601823 9.80059758,11.1401161 10.0118111,10.7289293 L10.0118111,10.7289293 C10.0118111,10.7289293 10.4476947,9.91525303 10.6859027,9.52300907 L10.6859027,9.52300907 C11.0994126,9.48803771 11.5233392,9.46973238 11.9520082,9.46973238 L11.9520082,9.46973238 C12.3825416,9.46973238 12.8069952,9.48817431 13.220424,9.52341889 L13.220424,9.52341889 C13.4561189,9.91525303 13.6796137,10.3157845 13.8903408,10.7251043 L13.8903408,10.7251043 C14.1021623,11.1355625 14.3019862,11.5536252 14.4896099,11.9786093 L14.4896099,11.9786093 C14.3039723,12.4078281 14.1047158,12.8296247 13.8923269,13.2428151 L13.8923269,13.2428151 L13.8922458,13.2428151 C13.6816403,13.6540019 13.4591183,14.0572199 13.2250447,14.4519683 L13.2250447,14.4519683 C12.8125886,14.4852093 12.3862706,14.5022397 11.9520082,14.5022397 L11.9520082,14.5022397 C11.5193266,14.5022397 11.0983587,14.4870763 10.6929553,14.4575237 L10.6929553,14.4575237 Z M8.66293876,9.85173082 C9.05950617,9.75200778 9.48262219,9.67040792 9.9233292,9.60857053 L9.9233292,9.60857053 C9.77583239,9.86693972 9.6337669,10.1294982 9.4970922,10.3955174 L9.4970922,10.3955174 C9.36062016,10.661491 9.22978209,10.9306977 9.10461855,11.2032285 L9.10461855,11.2032285 C8.93170803,10.7423168 8.7836843,10.2891917 8.66293876,9.85173082 L8.66293876,9.85173082 Z M14.4043706,10.3908727 C14.2683444,10.1271759 14.1274139,9.86671204 13.9816194,9.60984553 L13.9816194,9.60984553 C14.4251637,9.67259363 14.8502252,9.75628813 15.2493056,9.85865224 L15.2493056,9.85865224 C15.1295734,10.290239 14.9801311,10.7414061 14.8042211,11.2037294 L14.8042211,11.2037294 C14.675734,10.929787 14.5423424,10.6589866 14.4043706,10.3908727 L14.4043706,10.3908727 Z M7.73450735,13.8684292 C7.05660569,13.6081019 6.49657178,13.2695445 6.11289362,12.9006148 L6.11289362,12.9006148 C5.76800482,12.5688877 5.59387833,12.2392552 5.59387833,11.9720066 L5.59387833,11.9720066 C5.59387833,11.403221 6.34862911,10.6777928 7.60760092,10.1846874 L7.60760092,10.1846874 C7.76567664,10.1230321 7.92521152,10.066659 8.08616504,10.015477 L8.08616504,10.015477 C8.26033206,10.6513366 8.48844749,11.3159747 8.76378297,11.9880807 L8.76378297,11.9880807 C8.48484012,12.6705688 8.25327945,13.3458167 8.07777486,13.9890075 L8.07777486,13.9890075 C7.96233905,13.9520326 7.84803815,13.9118246 7.73450735,13.8684292 L7.73450735,13.8684292 Z M15.148502,11.9754218 C15.4256614,11.304272 15.6538579,10.6470107 15.8251877,10.0254037 L15.8251877,10.0254037 C15.9673747,10.0718045 16.1054681,10.1203 16.2384138,10.1719374 L16.2384138,10.1719374 C17.5251907,10.6694142 18.3098948,11.4050424 18.3098948,11.9720066 L18.3098948,11.9720066 C18.3098948,12.5758546 17.4622442,13.3597506 16.0861342,13.8720265 L16.0861342,13.8720265 L16.0860531,13.8720265 C16.0100552,13.9003496 15.9319901,13.9277621 15.8525874,13.9542638 L15.8525874,13.9542638 C15.6764749,13.3283765 15.4389965,12.6628277 15.148502,11.9754218 L15.148502,11.9754218 Z M14.4067215,13.576227 C14.5465982,13.3039694 14.6810031,13.0278414 14.8099767,12.7486624 L14.8099767,12.7486624 C14.995736,13.2245098 15.1526362,13.6850116 15.2769081,14.1228368 L15.2769081,14.1228368 C14.8736934,14.2261116 14.4383772,14.3094873 13.9799576,14.3711426 L13.9799576,14.3711426 C14.1269275,14.1094037 14.2691551,13.844523 14.4067215,13.576227 L14.4067215,13.576227 Z M8.65462966,14.1516153 C8.7774018,13.7063678 8.92862758,13.243407 9.10510493,12.7727052 L9.10510493,12.7727052 C9.23103859,13.0455547 9.36236304,13.3150346 9.49952413,13.5807806 L9.49952413,13.5807806 C9.63927928,13.8521729 9.78479001,14.1198314 9.93605632,14.3830274 L9.93605632,14.3830274 C9.48071717,14.3261078 9.051116,14.2486517 8.65462966,14.1516153 L8.65462966,14.1516153 Z M12.7408871,17.1122057 C12.625046,17.0002791 12.5082726,16.880748 12.3912155,16.75425 L12.3912155,16.75425 C12.782919,16.2727107 13.1745415,15.7131233 13.5566794,15.0916074 L13.5566794,15.0916074 C14.2288255,15.0245789 14.8637225,14.9148836 15.4397261,14.7653901 L15.4397261,14.7653901 C15.4680176,14.8940738 15.4934718,15.0199798 15.515116,15.1432448 L15.515116,15.1432448 C15.6541416,15.9327872 15.6740429,16.6466949 15.5818321,17.2050073 L15.5818321,17.2050073 C15.4988626,17.7061725 15.3325588,18.0407228 15.126574,18.1745975 L15.126574,18.1745975 C15.0305126,18.237118 14.9104561,18.2680822 14.7709036,18.2680822 L14.7709036,18.2680822 C14.2739784,18.2680822 13.5298471,17.8750186 12.7408871,17.1122057 L12.7408871,17.1122057 Z M8.76508,18.1665833 C8.3263996,17.8823954 8.1440856,16.7853509 8.39266981,15.3137758 L8.39266981,15.3137758 C8.42221781,15.1400573 8.45618382,14.967113 8.4942436,14.795307 L8.4942436,14.795307 C9.06384312,14.9367862 9.69415993,15.0386494 10.3680084,15.0999859 L10.3680084,15.0999859 C10.7527404,15.7081599 11.1555903,16.2670643 11.5612774,16.7565268 L11.5612774,16.7565268 C11.475268,16.8505124 11.3868267,16.9418113 11.2964398,17.0306513 L11.2964398,17.0306513 C10.7569962,17.5606406 10.2163773,17.9363096 9.74012349,18.1253735 L9.74012349,18.1253735 L9.74004242,18.1253735 C9.50961666,18.2167635 9.30448301,18.2604322 9.13205887,18.2604322 L9.13205887,18.2604322 C8.98407568,18.2604322 8.86020916,18.2282841 8.76508,18.1665833 L8.76508,18.1665833 Z M12.7911471,15.1484814 C12.5203917,15.562036 12.2470423,15.9397541 11.9751116,16.2766723 L11.9751116,16.2766723 C11.6933314,15.9352006 11.4128078,15.5578468 11.1384451,15.151851 L11.1384451,15.151851 C11.4045798,15.1634171 11.6760242,15.1694278 11.9520082,15.1694278 L11.9520082,15.1694278 C12.2354096,15.1694278 12.5154063,15.1622332 12.7911471,15.1484814 L12.7911471,15.1484814 Z" id="Fill-1" stroke="#343F44" stroke-width="2" fill="#595959" mask="url(#mask-4)"></path>
                    <mask id="mask-6" fill="white">
                        <use xlink:href="#path-5"></use>
                    </mask>
                    <g id="Clip-5"></g>
                    <path d="M10.7552783,11.8450144 C10.7552783,12.5353829 11.3149871,13.0951368 12.0054415,13.0951368 L12.0054415,13.0951368 C12.6957327,13.0951368 13.2552783,12.5353829 13.2552783,11.8450144 L13.2552783,11.8450144 C13.2552783,11.1547682 12.6957327,10.5951368 12.0054415,10.5951368 L12.0054415,10.5951368 C11.3149871,10.5951368 10.7552783,11.1547682 10.7552783,11.8450144" id="Fill-4" fill="#343F44" mask="url(#mask-6)"></path>
                </g>
            </g>
        </g>
    </g>
</svg>
