<svg width="28" height="26" viewBox="0 0 28 26" xmlns="http://www.w3.org/2000/svg">
    <g fill="none" fill-rule="evenodd">
        <path stroke-opacity=".012" stroke="#000" stroke-width="0" d="M0-1h28v28H0z"/>
        <g stroke="#738A94" stroke-linecap="round" stroke-linejoin="round">
            <path d="M14 5.417c0-2.193 5.663-3.98 12.24-4.084.164-.002.303.054.42.168.115.114.173.253.173.416V20c0 .383-.191.577-.574.583C19.674 20.685 14 22.473 14 24.667c0-2.193-5.674-3.98-12.26-4.084-.382-.006-.573-.2-.573-.583V1.917c0-.163.058-.302.174-.416.116-.114.255-.17.418-.168C8.336 1.437 14 3.224 14 5.417zM14 5.414v19.104M11.083 7.75C8.625 6.906 6.097 6.423 3.5 6.301M16.917 7.75c2.458-.844 4.986-1.327 7.583-1.449M11.083 12.718c-2.459-.843-4.986-1.326-7.583-1.447M11.083 17.667c-2.458-.844-4.986-1.327-7.583-1.45M16.917 12.718c2.459-.843 4.986-1.326 7.583-1.447M16.917 17.667c2.459-.843 4.986-1.326 7.583-1.447"/>
        </g>
    </g>
</svg>
