<svg viewBox="0 0 46 46" xmlns="http://www.w3.org/2000/svg">
    <g fill="none" fill-rule="evenodd">
        <path stroke-opacity=".012" stroke="#000" stroke-width="0" d="M-2-2h48v48H-2z"/>
        <g stroke="#3EB0EF" stroke-linecap="round" stroke-linejoin="round" stroke-width="1.5">
            <path d="M13.866 21h12.268M24 37c0 2.8-4 5-4 5s-4-2.2-4-5 2.73-3 4-3 4 .2 4 3zM20 3V1M26 8l-6-5-6 5c-1.917 1.583-2.584 3.583-2 6l4 15h8l4-15c.584-2.417-.083-4.417-2-6zM13.866 21l-1.704.882c-1.441.746-2.162 1.93-2.162 3.553v5.697c0 .399.176.693.528.881.352.188.694.172 1.026-.049L16 29M26.134 21l1.704.882c1.441.746 2.162 1.93 2.162 3.553v5.697c0 .399-.176.693-.528.881-.352.188-.694.172-1.026-.049L24 29"/>
            <path d="M23 13c0 2-1 3-3 3s-3-1-3-3 1-3 3-3 3 1 3 3zM11 36c-1.898 0-4 1.102-4 3 0 .154-.02.85 0 1H6c-1.395-.036-2.586.44-3.573 1.427C1.44 42.414.964 43.605 1 45M28 36c1.898 0 4 1.102 4 3 0 .154.02.85 0 1h1c1.395-.036 2.586.44 3.573 1.427.987.987 1.463 2.178 1.427 3.573"/>
        </g>
    </g>
</svg>
