<svg width="100" height="100" viewBox="0 0 100 100" xmlns="http://www.w3.org/2000/svg">
    <g fill="none" fill-rule="evenodd">
        <g fill="#FF003D">
            <path d="M49.24 96.905c.404.563.952.845 1.646.845.693 0 1.242-.282 1.645-.845l45.675-63.959c.891-1.258.88-2.508-.033-3.75L78.593 2.738c-.416-.555-.971-.833-1.666-.833H24.852c-.694 0-1.25.278-1.666.833L3.598 29.18c-.913 1.242-.924 2.492-.033 3.75L49.24 96.905z" fill-opacity=".181"/>
            <path d="M46.745 98.249l-.002-.004-45.68-63.98c-1.388-1.962-1.369-4.155.06-6.097L20.716 1.717C21.51.657 22.659.083 23.983.083h52.075c1.324 0 2.473.574 3.275 1.644L98.915 28.19c1.424 1.936 1.444 4.13.05 6.097L53.288 98.25c-.78 1.087-1.933 1.68-3.271 1.68-1.338 0-2.492-.593-3.272-1.68zM50 95.92c.026.037-.03.008.018.008s-.008.029.018-.008l45.67-63.952c.393-.555.39-.862-.009-1.404L76.125 4.117c-.039-.052-.002-.034-.067-.034H23.983c-.065 0-.027-.018-.06.024L4.34 30.543c-.402.548-.405.855-.016 1.403l45.675 63.975z" fill-rule="nonzero"/>
            <path d="M97.93 29.25c1.104 0 2 .895 2 2s-.896 2-2 2H2.1c-1.105 0-2-.895-2-2s.895-2 2-2h95.83z" fill-rule="nonzero"/>
            <path d="M32.855 32.34c-.6.927-1.837 1.193-2.765.594-.928-.6-1.194-1.837-.595-2.765L48.337.999c.788-1.22 2.572-1.22 3.36 0l18.841 29.17c.6.928.333 2.166-.595 2.765-.927.6-2.165.333-2.765-.595L50.017 5.77 32.855 32.34z" fill-rule="nonzero"/>
            <path d="M21.08 2.873c-.3-1.063.317-2.168 1.38-2.468 1.063-.3 2.168.317 2.469 1.38L51.94 97.373c.3 1.063-.318 2.168-1.38 2.468-1.063.3-2.169-.318-2.469-1.38L21.08 2.873z" fill-rule="nonzero"/>
            <path d="M75.105 1.785c.3-1.063 1.405-1.68 2.468-1.38 1.063.3 1.681 1.405 1.38 2.468L51.942 98.461c-.3 1.062-1.405 1.68-2.468 1.38-1.063-.3-1.681-1.405-1.381-2.468L75.105 1.785z" fill-rule="nonzero"/>
        </g>
    </g>
</svg>
