<svg width="28" height="28" viewBox="0 0 28 28" xmlns="http://www.w3.org/2000/svg">
    <g fill="none" fill-rule="evenodd">
        <path stroke-opacity=".012" stroke="#000" stroke-width="0" d="M0 0h28v28H0z"/>
        <g stroke="#738A94" stroke-linecap="round" stroke-linejoin="round">
            <path d="M27.417 7.163c0-.51-.233-.866-.7-1.07L14.467.767c-.311-.135-.623-.135-.934 0L1.283 6.093c-.467.204-.7.56-.7 1.07v13.623c0 .519.24.878.718 1.077l12.816 5.34c.313.13.624.126.933-.015l11.683-5.313c.456-.207.684-.561.684-1.062V7.163zM14.583 12.231L.8 6.488M14.583 12.231l12.622-5.737M8.385 3.009l12.951 6.157"/>
            <path d="M11.083 15.092c0-.254-.116-.433-.35-.534L4.9 12.005c-.193-.084-.377-.069-.553.047-.176.115-.264.278-.264.488v4.56c0 .254.117.432.35.534l5.834 2.553c.192.084.377.068.552-.047.176-.115.264-.277.264-.488v-4.56zM14.583 27.33V12.231"/>
        </g>
    </g>
</svg>
