<?xml version="1.0" encoding="UTF-8"?>
<svg width="206px" height="132px" viewBox="0 0 206 132" version="1.1" xmlns="http://www.w3.org/2000/svg" xmlns:xlink="http://www.w3.org/1999/xlink">
    <!-- Generator: sketchtool 53.2 (72643) - https://sketchapp.com -->
    <title>CAC8AEEF-55E1-4D33-B3D1-9F294B58AF2A</title>
    <desc>Created with sketchtool.</desc>
    <defs>
        <rect id="path-1" x="0" y="0" width="252" height="165"></rect>
    </defs>
    <g id="Docs" stroke="none" stroke-width="1" fill="none" fill-rule="evenodd">
        <g id="Docs-home-page-cards" transform="translate(-459.000000, -141.000000)">
            <g id="searcUI" transform="translate(436.000000, 128.000000)">
                <mask id="mask-2" fill="white">
                    <use xlink:href="#path-1"></use>
                </mask>
                <g id="Mask"></g>
                <polygon id="Fill-7" fill="#1890FF" opacity="0.401381341" mask="url(#mask-2)" points="23 29 104 29 104 18 23 18"></polygon>
                <polygon id="Fill-7-Copy" fill="#1890FF" opacity="0.401381341" mask="url(#mask-2)" points="132 36 229 36 229 13 132 13"></polygon>
                <polygon id="Fill-26" fill="#1890FF" mask="url(#mask-2)" points="153 64 225 64 225 59 153 59"></polygon>
                <polygon id="Fill-27" fill="#1890FF" mask="url(#mask-2)" points="153 71 225 71 225 66 153 66"></polygon>
                <polygon id="Fill-28" fill="#1890FF" mask="url(#mask-2)" points="153 57 185 57 185 52 153 52"></polygon>
                <polygon id="Fill-29" fill="#1890FF" mask="url(#mask-2)" points="132 71 150 71 150 51 132 51"></polygon>
                <polygon id="Fill-26" fill="#1890FF" mask="url(#mask-2)" points="153 88 225 88 225 83 153 83"></polygon>
                <polygon id="Fill-27" fill="#1890FF" mask="url(#mask-2)" points="153 95 225 95 225 90 153 90"></polygon>
                <polygon id="Fill-28" fill="#1890FF" mask="url(#mask-2)" points="153 81 185 81 185 76 153 76"></polygon>
                <polygon id="Fill-29" fill="#1890FF" mask="url(#mask-2)" points="132 95 150 95 150 75 132 75"></polygon>
                <polygon id="Fill-26" fill="#1890FF" mask="url(#mask-2)" points="153 113 225 113 225 108 153 108"></polygon>
                <polygon id="Fill-27" fill="#1890FF" mask="url(#mask-2)" points="153 120 225 120 225 115 153 115"></polygon>
                <polygon id="Fill-28" fill="#1890FF" mask="url(#mask-2)" points="153 106 185 106 185 101 153 101"></polygon>
                <polygon id="Fill-29" fill="#1890FF" mask="url(#mask-2)" points="132 120 150 120 150 100 132 100"></polygon>
                <polygon id="Fill-26" fill="#1890FF" mask="url(#mask-2)" points="153 138 225 138 225 133 153 133"></polygon>
                <polygon id="Fill-27" fill="#1890FF" mask="url(#mask-2)" points="153 145 225 145 225 140 153 140"></polygon>
                <polygon id="Fill-28" fill="#1890FF" mask="url(#mask-2)" points="153 131 185 131 185 126 153 126"></polygon>
                <polygon id="Fill-29" fill="#1890FF" mask="url(#mask-2)" points="132 145 150 145 150 125 132 125"></polygon>
                <path d="M29.5140845,136.5 L101.493259,136.5" id="Line" stroke="#1890FF" stroke-linecap="round" stroke-linejoin="round" mask="url(#mask-2)"></path>
                <path d="M46.5125,136.5 L86.5006389,136.5" id="Line-Copy" stroke="#1890FF" stroke-width="3" stroke-linecap="square" mask="url(#mask-2)"></path>
                <circle id="Oval-13" fill="#1890FF" mask="url(#mask-2)" cx="42.5" cy="136.5" r="4.5"></circle>
                <circle id="Oval-13-Copy" fill="#1890FF" mask="url(#mask-2)" cx="89.5" cy="136.5" r="4.5"></circle>
                <path d="M46.509434,56.5 L99.490566,56.5" id="Line-Copy-3" stroke="#1890FF" stroke-width="7" opacity="0.399966033" stroke-linecap="round" stroke-linejoin="round" mask="url(#mask-2)"></path>
                <path d="M46.509434,68.5 L99.490566,68.5" id="Line-Copy-4" stroke="#1890FF" stroke-width="7" opacity="0.399966033" stroke-linecap="round" stroke-linejoin="round" mask="url(#mask-2)"></path>
                <path d="M46.509434,80.5 L99.490566,80.5" id="Line-Copy-5" stroke="#1890FF" stroke-width="7" opacity="0.399966033" stroke-linecap="round" stroke-linejoin="round" mask="url(#mask-2)"></path>
                <path d="M46.509434,93.5 L99.490566,93.5" id="Line-Copy-6" stroke="#1890FF" stroke-width="7" opacity="0.399966033" stroke-linecap="round" stroke-linejoin="round" mask="url(#mask-2)"></path>
                <path d="M46.509434,105.5 L99.490566,105.5" id="Line-Copy-7" stroke="#1890FF" stroke-width="7" opacity="0.399966033" stroke-linecap="round" stroke-linejoin="round" mask="url(#mask-2)"></path>
                <rect id="Rectangle-17" fill="#1890FF" opacity="0.399966033" mask="url(#mask-2)" x="27" y="52" width="8" height="8" rx="1"></rect>
                <rect id="Rectangle-17-Copy" fill="#1890FF" opacity="0.399966033" mask="url(#mask-2)" x="27" y="64" width="8" height="8" rx="1"></rect>
                <rect id="Rectangle-17-Copy-2" fill="#1890FF" opacity="0.399966033" mask="url(#mask-2)" x="27" y="76" width="8" height="8" rx="1"></rect>
                <rect id="Rectangle-17-Copy-3" fill="#1890FF" opacity="0.399966033" mask="url(#mask-2)" x="27" y="89" width="8" height="8" rx="1"></rect>
                <rect id="Rectangle-17-Copy-4" fill="#1890FF" opacity="0.399966033" mask="url(#mask-2)" x="27" y="101" width="8" height="8" rx="1"></rect>
                <polyline id="Path-8" stroke="#1890FF" mask="url(#mask-2)" points="28 55.8453422 30.7781165 58 34 53"></polyline>
                <polyline id="Path-8-Copy" stroke="#1890FF" mask="url(#mask-2)" points="28 79.8453422 30.7781165 82 34 77"></polyline>
                <g id="Group-4" mask="url(#mask-2)" stroke="#1890FF">
                    <g transform="translate(213.000000, 19.000000)">
                        <ellipse id="Oval-14" cx="4" cy="3.63636364" rx="4" ry="3.63636364"></ellipse>
                        <path d="M6.5,6.81818182 L9.5,10" id="Line-2" stroke-linecap="square"></path>
                    </g>
                </g>
            </g>
        </g>
    </g>
</svg>