<svg width="13px" height="16px" viewBox="0 0 13 16" version="1.1" xmlns="http://www.w3.org/2000/svg" xmlns:xlink="http://www.w3.org/1999/xlink">
    <!-- Generator: sketchtool 53.2 (72643) - https://sketchapp.com -->
    <title>8315F5AB-DD8B-4B59-BC29-4F51E678208E</title>
    <desc>Created with sketchtool.</desc>
    <g id="Docs" stroke="none" stroke-width="1" fill="none" fill-rule="evenodd">
        <g id="Docs-Icon" transform="translate(-101.000000, -29.000000)">
            <g id="security" transform="translate(96.000000, 25.000000)">
                <path d="M16.9214286,7.07808245 L15.3246245,5.14893617 C15.3246245,5.14893617 14.3591994,5.9443163 13.3566654,5.9443163 C12.3539336,5.9444575 11.500033,5.14893617 11.500033,5.14893617 C11.500033,5.14893617 10.6460005,5.9443163 9.64346647,5.9443163 C8.64073469,5.9443163 7.67544139,5.14893617 7.67544139,5.14893617 L6.07857143,7.07808245 C6.07857143,7.07808245 6.90195442,7.55526816 6.90195442,8.6681367 C6.90195442,9.78086403 6.15292109,10.0411664 6.15292109,12.4076094 C6.15292109,16.8227245 11.500033,18.8510638 11.500033,18.8510638 C11.500033,18.8510638 16.8472107,16.8227245 16.8472107,12.4077506 C16.8472107,10.0413076 16.0981115,9.78100523 16.0981115,8.6682779 C16.0979797,7.55526816 16.9214286,7.07808245 16.9214286,7.07808245 Z" id="Stroke-4" stroke="#151617"></path>
                <polygon id="Fill-6" fill="#151617" points="10.6654619 14.1317736 10.6649835 14.131224 10.6644573 14.1317736 9.00024447 12.3934456 9.67658806 11.6870328 10.6650792 12.7192978 13.9316493 9.30769231 14.6080886 10.014205"></polygon>
            </g>
        </g>
    </g>
</svg>
