<?xml version="1.0" encoding="UTF-8"?>
<svg width="14px" height="16px" viewBox="0 0 14 16" version="1.1" xmlns="http://www.w3.org/2000/svg" xmlns:xlink="http://www.w3.org/1999/xlink">
    <!-- Generator: sketchtool 53.2 (72643) - https://sketchapp.com -->
    <title>8315F5AB-DD8B-4B59-BC29-4F51E678208E</title>
    <desc>Created with sketchtool.</desc>
    <g id="Docs" stroke="none" stroke-width="1" fill="none" fill-rule="evenodd">
        <g id="Docs-Icon" transform="translate(-101.000000, -29.000000)">
            <g id="security" transform="translate(96.000000, 25.000000)">
                <path d="M1,0 L23,0 C23.5522847,-1.01453063e-16 24,0.44771525 24,1 L24,23 C24,23.5522847 23.5522847,24 23,24 L1,24 C0.44771525,24 6.76353751e-17,23.5522847 0,23 L0,1 C-6.76353751e-17,0.44771525 0.44771525,1.01453063e-16 1,0 Z" id="Rectangle-14"></path>
                <path d="M17.8285714,6.92914628 L16.0866034,5 C16.0866034,5 15.0334123,5.79538013 13.9397388,5.79538013 C12.8458496,5.79552133 11.9143217,5 11.9143217,5 C11.9143217,5 10.9826499,5.79538013 9.88897641,5.79538013 C8.79508719,5.79538013 7.74203996,5 7.74203996,5 L6,6.92914628 C6,6.92914628 6.89823599,7.40633199 6.89823599,8.51920053 C6.89823599,9.63192786 6.08110872,9.89223023 6.08110872,12.2586732 C6.08110872,16.6737883 11.9143217,18.7021277 11.9143217,18.7021277 C11.9143217,18.7021277 17.7476065,16.6737883 17.7476065,12.2588144 C17.7476065,9.89237143 16.9304073,9.63206906 16.9304073,8.51934173 C16.9302635,7.40633199 17.8285714,6.92914628 17.8285714,6.92914628 Z" id="Stroke-4" stroke="#54666D"></path>
                <polygon id="Fill-6" stroke="#54666D" stroke-width="0.2" fill="#54666D" stroke-linecap="round" stroke-linejoin="round" points="11.0038805 13.9828374 9.18727968 12.2445094 9.92510905 11.5380966 11.003463 12.5703616 14.5669941 9.15875614 15.3049278 9.86526883"></polygon>
            </g>
        </g>
    </g>
</svg>