<svg width="28" height="28" viewBox="0 0 28 28" xmlns="http://www.w3.org/2000/svg">
    <g fill="none" fill-rule="evenodd">
        <path stroke-opacity=".012" stroke="#000" stroke-width="0" d="M0 0h28v28H0z"/>
        <g stroke="#738A94" stroke-linecap="round" stroke-linejoin="round">
            <path d="M13.861 10.617L1.575 22.88c-.976.933-1.09 1.963-.343 3.088.418.59.987.914 1.707.975.72.061 1.336-.164 1.847-.675 0 0 12.366-12.367 12.356-12.374 2.773 1.335 5.319.99 7.638-1.032 2.319-2.023 3.005-4.5 2.06-7.428-.068-.21-.209-.34-.422-.393-.214-.053-.4-.002-.556.152L21.21 9.845c-.138.138-.302.193-.495.165L18.55 9.7c-.288-.04-.453-.205-.495-.494l-.31-2.165c-.028-.193.027-.358.164-.496l4.652-4.65c.155-.157.206-.343.153-.557-.053-.215-.184-.355-.395-.422-2.929-.947-5.405-.26-7.429 2.06-2.023 2.32-2.366 4.868-1.029 7.64z"/>
            <path d="M3.754 24c.092.092.114.198.064.319-.05.12-.14.18-.27.18s-.22-.06-.27-.18c-.049-.12-.028-.227.065-.318.056-.057.125-.086.205-.086.08 0 .15.029.206.086"/>
        </g>
    </g>
</svg>
