<svg viewBox="0 0 46 46" xmlns="http://www.w3.org/2000/svg">
    <g fill="none" fill-rule="evenodd">
        <path stroke-opacity=".012" stroke="#000" stroke-width="0" d="M-1-4h48v48H-1z"/>
        <g stroke="#A4D037" stroke-linecap="round" stroke-linejoin="round" stroke-width="1.5">
            <path d="M5.22 17.5H2.78c-.65 0-1.176-.257-1.577-.77-.4-.513-.521-1.085-.363-1.716l3-12c.253-1.01.9-1.514 1.94-1.514h34.878c1.04 0 1.687.505 1.94 1.514l3 12c.158.631.037 1.203-.363 1.716-.4.513-.926.77-1.577.77H41.22M6.22 13.5h2M10.22 9.5h2M16.22 9.5h2M22.22 9.5h2M28.22 9.5h2M34.22 9.5h2M10.22 5.5h2M16.22 5.5h2M22.22 5.5h2M28.22 5.5h2M34.22 5.5h2M12.22 13.5h22M38.22 13.5h2M15.854 22.424l.564-1.966c.28-.983-.07-1.615-1.053-1.896-.983-.281-1.615.07-1.897 1.052l-.56 1.97"/>
            <path d="M11.222 27.482l1.686-5.898c.24-.96-.116-1.577-1.068-1.85-.952-.272-1.58.063-1.884 1.006l-.84 2.948M16.372 37.5c2.154-2.114 4.388-4.64 4.388-4.64.564-.452.656-.986.276-1.601s-.9-.772-1.556-.469L16 33.096l2.8-9.83c.17-.57.048-1.07-.364-1.5-.413-.43-.908-.57-1.485-.424-.577.147-.944.508-1.101 1.082l-1.682 5.898M7.854 28.112l1.262-4.424c.28-.983-.072-1.614-1.055-1.893-.983-.28-1.614.072-1.893 1.055l-2.8 9.828c-.503 1.745-.17 3.311 1 4.7M30.584 22.424l-.562-1.966c-.242-.96.113-1.577 1.065-1.85.953-.272 1.58.063 1.883 1.006l.56 1.97"/>
            <path d="M35.216 27.482l-1.686-5.898c-.24-.96.116-1.577 1.068-1.85.952-.272 1.58.063 1.884 1.006l.84 2.948M30.066 37.5c-2.154-2.114-4.388-4.64-4.388-4.64-.564-.452-.656-.986-.276-1.601s.9-.772 1.556-.469l3.484 2.306-2.8-9.83c-.17-.57-.048-1.07.364-1.5.413-.43.908-.57 1.485-.424.577.147.944.508 1.101 1.082l1.684 5.898"/>
            <path d="M38.584 28.112l-1.262-4.424c-.182-.576-.064-1.082.352-1.52.416-.437.916-.579 1.5-.425.584.153.95.522 1.098 1.107l2.8 9.828c.503 1.745.17 3.311-1 4.7"/>
        </g>
    </g>
</svg>
