<?xml version="1.0" encoding="UTF-8"?>
<svg width="14px" height="14px" viewBox="0 0 14 14" version="1.1" xmlns="http://www.w3.org/2000/svg" xmlns:xlink="http://www.w3.org/1999/xlink">
    <!-- Generator: sketchtool 53.2 (72643) - https://sketchapp.com -->
    <title>98EF163A-E011-4BC9-A181-F19FB6E3557B</title>
    <desc>Created with sketchtool.</desc>
    <g id="Docs" stroke="none" stroke-width="1" fill="none" fill-rule="evenodd">
        <g id="Docs-Icon" transform="translate(-59.000000, -156.000000)">
            <g id="vue-bw" transform="translate(54.000000, 151.000000)">
                <path d="M1,0 L23,0 C23.5522847,-1.01453063e-16 24,0.44771525 24,1 L24,23 C24,23.5522847 23.5522847,24 23,24 L1,24 C0.44771525,24 6.76353751e-17,23.5522847 0,23 L0,1 C-6.76353751e-17,0.44771525 0.44771525,1.01453063e-16 1,0 Z" id="Rectangle-14"></path>
                <polygon id="Path" fill="#54666D" fill-rule="nonzero" points="11.9718104 13.3516959 7.99552763 5.41747157 7.78630932 5 5 5 5.20917392 5.41763213 11.9718104 18.919766 18.9436208 5 16.1551808 5"></polygon>
                <polygon id="Path" fill="#54666D" fill-rule="nonzero" points="11.9718399 7.37731073 10.7779052 5 10.3624074 5 5 5 5.20881428 5.41754386 10.5718403 5.41754386 11.9718399 8.214269 13.3724131 5.41754386 18.7348656 5.41754386 18.944035 5 13.5812724 5 13.1660033 5"></polygon>
            </g>
        </g>
    </g>
</svg>