<svg width="42" height="42" viewBox="0 0 42 42" xmlns="http://www.w3.org/2000/svg"><g fill="none" fill-rule="evenodd" stroke-linecap="round" stroke-linejoin="round"><path d="M20.442 17.88c-1.457 2.487-2.853 4.896-4.278 7.287-.366.613-.547 1.113-.255 1.893.808 2.155-.331 4.253-2.471 4.822-2.019.537-3.985-.81-4.386-3.004-.354-1.942 1.13-3.846 3.239-4.15.176-.026.357-.029.654-.051l3.207-5.462c-2.017-2.038-3.218-4.419-2.952-7.37.188-2.085.996-3.888 2.472-5.365 2.827-2.83 7.141-3.288 10.47-1.116 3.198 2.086 4.663 6.149 3.414 9.626l-2.93-.807" stroke="#C83A62"/><path d="M26.626 24.755c-1.331-2.397-2.685-4.774-3.974-7.188-.435-.814-.914-1.286-1.894-1.458-1.636-.288-2.692-1.714-2.755-3.311-.062-1.58.855-3.008 2.288-3.564 1.42-.552 3.085-.107 4.04 1.118.78 1.001 1.029 2.128.618 3.363-.114.344-.262.677-.422 1.085l3.106 5.56c5.23-1.641 9.172 1.297 10.587 4.443 1.708 3.8.54 8.3-2.815 10.645-3.444 2.406-7.8 1.995-10.85-1.096l2.394-2.034" stroke="#4A4A4A"/><path d="M17.583 26.886c2.619 0 5.24-.028 7.86.013 1.022.017 1.812-.092 2.582-1.014 1.269-1.518 3.604-1.38 4.97.053 1.396 1.465 1.33 3.822-.148 5.225-1.426 1.354-3.678 1.282-5.012-.177-.274-.301-.49-.658-.761-1.028h-6.297c-.604 2.54-1.908 4.59-4.154 5.894-1.746 1.014-3.629 1.357-5.632 1.026-3.688-.608-6.704-4.005-6.97-7.83-.3-4.332 2.611-8.183 6.491-9.048l.807 2.993" stroke="#4A4A4A"/></g></svg>