<?xml version="1.0" encoding="UTF-8"?>
<svg width="159px" height="113px" viewBox="0 0 159 113" version="1.1" xmlns="http://www.w3.org/2000/svg" xmlns:xlink="http://www.w3.org/1999/xlink">
    <!-- Generator: sketchtool 49.3 (51167) - http://www.bohemiancoding.com/sketch -->
    <title>60F68E32-5455-4BCA-AA6A-A1231A5A41AC</title>
    <desc>Created with sketchtool.</desc>
    <defs></defs>
    <g id="Page-1" stroke="none" stroke-width="1" fill="none" fill-rule="evenodd">
        <g id="Reactive-Maps-//-Tools" transform="translate(-938.000000, -479.000000)">
            <g id="ReactiveMaps" transform="translate(942.000000, 482.000000)">
                <path d="M75.1160131,78.2584556 C95.1933551,56.5523651 105.232026,40.2795588 105.232026,29.4400366 C105.232026,13.1807534 91.7486278,0 75.1160131,0 C58.4833983,0 45,13.1807534 45,29.4400366 C45,40.2795588 55.038671,56.5523651 75.1160131,78.2584556 Z" id="Oval-8" stroke="#FFFFFF" stroke-width="5"></path>
                <circle id="Oval-9" fill="#FFFFFF" cx="75" cy="27" r="7"></circle>
                <polygon id="Path-7" stroke="#FFFFFF" stroke-width="5" points="61.8496094 63 46.9902344 68.4003906 21.3164062 63 0 97.8632812 33.4414063 106.533203 75.03125 97.8632812 116.90625 106.533203 150.869141 97.8632812 131.210938 63 105.0625 68.4003906 87.8076172 63 75.03125 78.3203125"></polygon>
                <path d="M46.4589844,69 L34,106.373047" id="Path-8" stroke="#FFFFFF"></path>
                <path d="M105,68 L116.746094,106.748047" id="Path-9" stroke="#FFFFFF"></path>
            </g>
        </g>
    </g>
</svg>
