<svg xmlns="http://www.w3.org/2000/svg" width="617" height="336" viewBox="0 0 617 336"><path fill="#FFF" d="M0-1.36h617v335.181H0z"/><path opacity=".2" fill="#FEE84E" d="M0 45.995h153.212v288.349H0z"/><path fill="#CDCCCC" d="M12.164 173.996h127.361v9.084H12.164zm0-102.329h127.361v9.084H12.164zm0 158.372h127.361v9.084H12.164z"/><path opacity=".5" fill="none" stroke="#E6E6E5" stroke-width="2" stroke-miterlimit="10" d="M12.911 201.789h124.808"/><path fill="none" stroke="#989898" stroke-width="2" stroke-miterlimit="10" d="M32.708 201.789h86.075"/><path opacity=".5" fill="#E6E6E5" d="M37.881 253.222h80.768v7.674H37.881z"/><path fill="#E6E6E5" d="M30.501 260.149c0 2.469-1.924 4.47-4.298 4.47h-6.167c-2.373 0-4.299-2.001-4.299-4.47v-6.413c0-2.47 1.925-4.466 4.299-4.466h6.167c2.374 0 4.298 1.996 4.298 4.466v6.413z"/><path opacity=".5" fill="#E6E6E5" d="M37.881 277.162h80.768v7.676H37.881z"/><path fill="#E6E6E5" d="M30.501 284.091c0 2.469-1.924 4.471-4.298 4.471h-6.167c-2.373 0-4.299-2.002-4.299-4.471v-6.413c0-2.469 1.925-4.467 4.299-4.467h6.167c2.374 0 4.298 1.998 4.298 4.467v6.413z"/><path opacity=".5" fill="#E6E6E5" d="M37.881 301.104h80.768v7.675H37.881z"/><path fill="#E6E6E5" d="M30.501 308.031c0 2.469-1.924 4.472-4.298 4.472h-6.167c-2.373 0-4.299-2.003-4.299-4.472v-6.412c0-2.47 1.925-4.466 4.299-4.466h6.167c2.374 0 4.298 1.996 4.298 4.466v6.412z"/><ellipse fill="#989898" cx="23.119" cy="256.943" rx="3.58" ry="3.722"/><ellipse fill="#989898" cx="30.505" cy="201.763" rx="2.706" ry="2.814"/><ellipse fill="#989898" cx="116.682" cy="201.763" rx="2.707" ry="2.814"/><path opacity=".3" fill="#CDCCCC" d="M268.496 223.36h282.088v9.176H268.496zm0 12.513h282.088v9.177H268.496z"/><path fill="#CDCCCC" d="M268.496 205.838h104.167v10.847H268.496z"/><path opacity=".3" fill="#CDCCCC" d="M268.496 288.411h282.088v9.177H268.496zm0 12.514h282.088v9.177H268.496z"/><path fill="#CDCCCC" d="M268.496 270.892h104.167v10.846H268.496z"/><path opacity=".3" fill="#CDCCCC" d="M268.496 157.969h282.088v9.177H268.496zm0 12.512h282.088v9.179H268.496z"/><path fill="#CDCCCC" d="M268.496 144.6h104.167v10.846H268.496z"/><path opacity=".3" fill="#CDCCCC" d="M268.496 93.618h282.088v9.176H268.496zm0 12.512h282.088v9.18H268.496z"/><path fill="#CDCCCC" d="M268.496 76.099H379.16v10.844H268.496z"/><path opacity=".5" fill="#71C6A5" d="M203.597 69.423h47.865v49.224h-47.865z"/><path opacity=".5" fill="#71C6A5" d="M251.46 118.646h-47.863V69.423z"/><g fill="#71C6A5"><path opacity=".5" d="M203.597 133.416h47.865v49.224h-47.865z"/><path opacity=".5" d="M251.46 182.64h-47.863v-49.224z"/></g><g fill="#71C6A5"><path opacity=".5" d="M203.597 198.967h47.865v49.224h-47.865z"/><path opacity=".5" d="M251.46 248.189h-47.863v-49.222z"/></g><g fill="#71C6A5"><path opacity=".5" d="M203.597 264.518h47.865v49.223h-47.865z"/><path opacity=".5" d="M251.46 313.74h-47.863v-49.222z"/></g><path opacity=".5" fill="#E6E6E5" d="M43.898 114.811c0 1.083-1.084 2.626-2.126 2.626H24.998c-1.041 0-1.757-1.543-1.757-2.626V97.367c0-1.082.717-1.45 1.757-1.45h16.774c1.041 0 2.126.368 2.126 1.45v17.444zm0 32.931c0 1.082-1.084 2.402-2.126 2.402H24.998c-1.041 0-1.757-1.32-1.757-2.402V130.3c0-1.082.717-1.674 1.757-1.674h16.774c1.041 0 2.126.592 2.126 1.674v17.442zm27.544-32.931c0 1.083-.382 2.626-1.424 2.626H53.245c-1.041 0-1.6-1.543-1.6-2.626V97.367c0-1.082.56-1.45 1.6-1.45h16.773c1.041 0 1.424.368 1.424 1.45v17.444zm0 32.931c0 1.082-.382 2.402-1.424 2.402H53.245c-1.041 0-1.6-1.32-1.6-2.402V130.3c0-1.082.56-1.674 1.6-1.674h16.773c1.041 0 1.424.592 1.424 1.674v17.442zm29.265-32.931c0 1.083-.544 2.626-1.584 2.626H82.347c-1.041 0-2.298-1.543-2.298-2.626V97.367c0-1.082 1.257-1.45 2.298-1.45h16.775c1.041 0 1.584.368 1.584 1.45v17.444zm0 32.931c0 1.082-.544 2.402-1.584 2.402H82.347c-1.041 0-2.298-1.32-2.298-2.402V130.3c0-1.082 1.257-1.674 2.298-1.674h16.775c1.041 0 1.584.592 1.584 1.674v17.442zm28.405-32.931c0 1.083-.703 2.626-1.743 2.626h-16.773c-1.041 0-2.142-1.543-2.142-2.626V97.367c0-1.082 1.1-1.45 2.142-1.45h16.773c1.041 0 1.743.368 1.743 1.45v17.444zm0 32.931c0 1.082-.703 2.402-1.743 2.402h-16.773c-1.041 0-2.142-1.32-2.142-2.402V130.3c0-1.082 1.1-1.674 2.142-1.674h16.773c1.041 0 1.743.592 1.743 1.674v17.442z"/><path fill="#FEE84E" d="M0 0h617v47.341H0z"/><path fill="#FFF" d="M203.597 14.788h311.54v16.516h-311.54z"/><path d="M548.437 19.423c.656 3.75-1.846 7.327-5.583 7.983-3.73.66-7.294-1.855-7.943-5.609-.65-3.761 1.848-7.334 5.589-7.99 3.731-.656 7.288 1.853 7.937 5.616zm-2.074 6.238l5.337 5.86" fill="none" stroke="#034F66" stroke-width="2" stroke-miterlimit="10"/><path d="M41.508 15.433h4.424c2.808 0 4.807.941 4.807 3.209 0 1.498-1.063 2.867-2.978 3.465l-.042.086c1.574.385 2.34 1.241 2.34 2.524 0 3.337-2.851 4.621-6.083 4.621h-5.232l2.764-13.905zm2.723 11.296c1.702 0 2.552-.728 2.552-1.883 0-1.027-.595-1.54-1.872-1.54h-1.574l-.681 3.423h1.575zm.723-5.734c1.659 0 2.297-.685 2.297-1.754 0-.77-.596-1.198-1.872-1.198H44.4l-.596 2.952h1.15zm12.806-2.61c2.595 0 3.531 1.84 3.531 4.064 0 1.07-.426 2.268-.596 2.567h-5.743c.042 1.412.979 2.011 2.212 2.011.596 0 1.319-.342 1.787-.685l1.191 2.14c-.851.599-2.212 1.112-3.956 1.112-2.595 0-4.424-1.754-4.424-4.621 0-3.935 3.148-6.588 5.998-6.588zm.681 4.578c.042-.171.085-.428.085-.685 0-.728-.297-1.284-1.191-1.284-.808 0-1.659.599-2.127 1.968h3.233zm5.191 2.91c.766.898 1.489 1.241 2.127 1.241s1.191-.3 1.191-.728c0-.556-.681-.77-1.787-1.412-1.042-.599-2.042-1.583-2.042-2.995 0-2.054 1.914-3.594 4.296-3.594 1.532 0 2.723.77 3.616 1.711l-1.83 1.754c-.51-.514-1.106-.941-1.787-.941s-1.106.342-1.106.77c0 .599.894.856 1.702 1.327 1.021.556 2.127 1.412 2.127 2.995 0 2.139-1.914 3.594-4.594 3.594-1.234 0-2.936-.685-3.872-2.097l1.959-1.625zm9.7-4.579h-1.361l.51-2.524 1.532-.128.936-2.738H77.8l-.511 2.738h2.297l-.511 2.652h-2.382l-.809 4.022c-.042.257-.042.471-.042.685 0 .642.34.941 1.021.941.255 0 .511-.085.766-.214l.596 2.396a7.748 7.748 0 0 1-2.68.471c-2.254 0-3.19-1.241-3.19-2.995 0-.471.085-.941.17-1.412l.807-3.894zm13.486-5.861h4.552c2.744 0 4.892 1.027 4.892 3.808 0 4.065-3.042 5.562-6.509 5.562H88.35l-.893 4.535h-3.403l2.764-13.905zm3.34 6.674c1.744 0 2.744-.813 2.744-2.353 0-1.112-.745-1.626-2-1.626h-1.234l-.766 3.979h1.256zm8.275-3.465h2.765l-.085 2.096h.085c.808-1.369 2.042-2.353 3.233-2.353.596 0 .936.085 1.149.214l-1.106 2.952c-.297-.171-.766-.171-1.106-.171-.894 0-1.659.556-2.467 1.968l-1.149 5.99h-3.403l2.084-10.696zm8.552 0h3.403l-2.127 10.696h-3.403l2.127-10.696zm.468-2.952c0-1.027.894-1.926 2.042-1.926.894 0 1.787.557 1.787 1.583 0 1.112-.893 1.925-2.042 1.925-.894.001-1.787-.513-1.787-1.582zm10.039 2.695c1.361 0 2.382.685 2.893 1.326l-1.872 2.011c-.383-.385-.723-.599-1.233-.599-1.532 0-2.68 1.797-2.68 3.979 0 1.07.51 1.754 1.531 1.754.638 0 1.064-.3 1.447-.599l1.404 2.097c-.809.599-1.915 1.241-3.616 1.241-2.382 0-4.254-1.626-4.254-4.45-.001-3.594 2.722-6.76 6.38-6.76zm8.786 0c2.595 0 3.531 1.84 3.531 4.064 0 1.07-.426 2.268-.596 2.567h-5.743c.042 1.412.979 2.011 2.212 2.011.596 0 1.319-.342 1.787-.685l1.191 2.14c-.851.599-2.212 1.112-3.956 1.112-2.595 0-4.424-1.754-4.424-4.621 0-3.935 3.148-6.588 5.998-6.588zm.68 4.578c.042-.171.085-.428.085-.685 0-.728-.297-1.284-1.191-1.284-.808 0-1.659.599-2.127 1.968h3.233zM24.501 27.667a1.08 1.08 0 1 0 0 2.162 1.08 1.08 0 0 0 1.074-1.081c0-.597-.481-1.081-1.074-1.081zm10.447-8.259a1.322 1.322 0 0 0-1.078-.529H23.862l.118-1.502a1.444 1.444 0 0 0-1.45-1.573h-3.124a.5.5 0 0 0 0 1.001h3.124a.456.456 0 0 1 .344.144.456.456 0 0 1 .116.308l-.001.042-.701 8.913a.38.38 0 0 0 .106.304.38.38 0 0 0 .292.128h9.945c.637 0 1.176-.423 1.329-1.046l1.239-5.008a1.342 1.342 0 0 0-.251-1.182zm-3.217 8.259a1.08 1.08 0 1 0 0 2.162 1.08 1.08 0 0 0 0-2.162z" fill="#034F66"/></svg>