<svg xmlns="http://www.w3.org/2000/svg" width="617" height="336" viewBox="0 0 617 336"><path fill="#FFF" d="M-3.005-3.134H621v342.756H-3.005z"/><path opacity=".3" fill="#CDCCCC" d="M101.402 258.875h256.559v9.385H101.402zm0 12.796h256.559v9.385H101.402z"/><path fill="#CDCCCC" d="M101.402 240.957H185.9v11.092h-84.498z"/><path opacity=".3" fill="#CDCCCC" d="M101.402 315.714h256.559v9.386H101.402zm0 12.405h256.559v9.385H101.402z"/><path fill="#CDCCCC" d="M101.402 297.801H185.9v11.09h-84.498z"/><path opacity=".3" fill="#CDCCCC" d="M101.402 200.809h256.559v9.386H101.402zm0 12.795h256.559v9.387H101.402z"/><path fill="#CDCCCC" d="M101.402 187.137H185.9v11.092h-84.498z"/><path opacity=".3" fill="#CDCCCC" d="M101.402 135.003h256.559v9.384H101.402zm0 12.795h256.559v9.388H101.402z"/><path fill="#CDCCCC" d="M101.402 117.087h89.767v11.09h-89.767z"/><path fill="#F15F55" d="M-3.501-4h624.005v48.411H-3.501z"/><path d="M258.602 14.16h3.276l1.877 4.985.663 1.957h.073l.663-1.957 1.804-4.985h3.275v12.001h-2.944v-3.545c0-1.219.258-3.083.405-4.283h-.074l-.994 2.806-1.656 4.043h-1.178l-1.656-4.043-.957-2.806h-.074c.147 1.2.405 3.064.405 4.283v3.545h-2.908V14.16zm17.96 2.548c2.724 0 4.012 1.994 4.012 4.468 0 .554-.074 1.034-.129 1.255H275.2c.294 1.182 1.104 1.551 2.135 1.551.625 0 1.214-.185 1.877-.554l1.031 1.883c-.994.702-2.319 1.071-3.35 1.071-2.687 0-4.748-1.772-4.748-4.837 0-2.991 2.171-4.837 4.417-4.837zm1.325 3.803c0-.775-.295-1.403-1.251-1.403-.699 0-1.288.388-1.472 1.403h2.723zm8.353-3.803c2.724 0 4.012 1.994 4.012 4.468 0 .554-.074 1.034-.129 1.255h-5.245c.294 1.182 1.104 1.551 2.135 1.551.625 0 1.214-.185 1.877-.554l1.031 1.883c-.994.702-2.319 1.071-3.35 1.071-2.687 0-4.748-1.772-4.748-4.837.001-2.991 2.172-4.837 4.417-4.837zm1.325 3.803c0-.775-.295-1.403-1.251-1.403-.699 0-1.288.388-1.472 1.403h2.723zm4.453-1.107h-1.214v-2.363l1.398-.111.368-2.4h2.613v2.4h2.098v2.474h-2.098v3.157c0 1.015.516 1.348 1.104 1.348.294 0 .589-.074.81-.148l.479 2.29a6.923 6.923 0 0 1-2.172.333c-2.392 0-3.386-1.514-3.386-3.767v-3.213zm6.881-2.474h3.165v5.28c0 1.182.294 1.477.92 1.477.589 0 .92-.222 1.325-.812V16.93h3.165v9.231h-2.576l-.221-1.219h-.074c-.736.886-1.583 1.44-2.834 1.44-2.024 0-2.871-1.477-2.871-3.767V16.93zm13.875 9.933v2.548h-3.166V16.93h2.577l.221.849h.073c.681-.627 1.583-1.071 2.503-1.071 2.171 0 3.57 1.846 3.57 4.689 0 3.176-1.878 4.985-3.828 4.985-.772 0-1.473-.333-2.061-.923l.111 1.404zm1.178-3.065c.735 0 1.361-.591 1.361-2.363 0-1.514-.441-2.142-1.288-2.142-.479 0-.847.185-1.251.665v3.397c.368.332.773.443 1.178.443zm6.587-9.638h4.306c2.503 0 4.527.628 4.527 2.991 0 1.034-.589 2.215-1.987 2.584v.074c1.692.333 2.539 1.219 2.539 2.807 0 2.474-2.135 3.545-4.711 3.545h-4.674V14.16zm4.232 4.727c1.03 0 1.509-.517 1.509-1.255 0-.739-.479-1.034-1.509-1.034h-1.067v2.29h1.067zm.221 4.837c1.251 0 1.84-.48 1.84-1.366s-.589-1.256-1.84-1.256h-1.288v2.622h1.288zm6.551-10.413h3.165v9.712c0 .628.295.812.516.812.11 0 .184 0 .331-.037l.368 2.326c-.331.148-.847.259-1.546.259-2.135 0-2.834-1.403-2.834-3.471v-9.601zm10.194 6.868c-.073-.665-.479-.96-1.288-.96-.662 0-1.362.259-2.318.776l-1.104-2.068c1.288-.775 2.613-1.219 4.049-1.219 2.392 0 3.827 1.292 3.827 4.32v5.133h-2.576l-.221-.886h-.074c-.735.665-1.545 1.108-2.539 1.108-1.729 0-2.761-1.33-2.761-2.843-.001-1.921 1.472-2.992 5.005-3.361zm-1.14 3.766c.515 0 .81-.258 1.141-.627v-1.255c-1.509.221-1.987.701-1.987 1.218-.001.425.293.664.846.664zm7.065-.812c.847.627 1.602.923 2.245.923.663 0 .92-.185.92-.554 0-.48-.846-.702-1.767-1.071-1.066-.425-2.318-1.219-2.318-2.732 0-1.81 1.473-2.991 3.644-2.991 1.509 0 2.576.609 3.386 1.219l-1.398 1.883c-.662-.48-1.307-.775-1.877-.775-.533 0-.81.148-.81.517 0 .48.81.665 1.729.997 1.104.406 2.355 1.108 2.355 2.77 0 1.735-1.361 3.065-3.938 3.065-1.178 0-2.613-.517-3.57-1.292l1.399-1.959zm8.061-3.729h-1.215v-2.363l1.398-.111.368-2.4h2.613v2.4h2.098v2.474h-2.098v3.157c0 1.015.515 1.348 1.104 1.348.295 0 .589-.074.81-.148l.479 2.29a6.916 6.916 0 0 1-2.171.333c-2.393 0-3.386-1.514-3.386-3.767v-3.213z" fill="#FFF"/><path fill="#F9F9FA" d="M375.425 204.606h141.712v123.228H375.425z"/><path fill="#CDCCCC" d="M387.415 218.325H505.84v10.095H387.415zm15.296 48.504c0 .636-.149 1.151-.784 1.151h-11.758c-.636 0-1.541-.516-1.541-1.151V255.05c0-.638.905-1.152 1.541-1.152h11.758c.635 0 .784.515.784 1.152v11.779zm16.724 0a1.15 1.15 0 0 1-1.15 1.151h-11.783a1.15 1.15 0 0 1-1.15-1.151V255.05a1.15 1.15 0 0 1 1.15-1.152h11.783c.636 0 1.15.515 1.15 1.152v11.779zm17.603-16.725c0 .637-.217 1.153-.852 1.153H424.43c-.636 0-1.475-.517-1.475-1.153v-11.775c0-.639.839-1.154 1.475-1.154h11.756c.635 0 .852.516.852 1.154v11.775zm-.88 16.207c0 .638.507 1.67-.13 1.67h-11.642c-.634 0-1.431-1.033-1.431-1.67v-11.678c0-.637.797-.735 1.431-.735h11.642c.638 0 .13.099.13.735v11.678zm-34.327 16.98c0 .638-.021 1.413-.653 1.413h-11.645c-.634 0-1.785-.776-1.785-1.413v-11.678c0-.638 1.152-.992 1.785-.992h11.645c.633 0 .653.354.653.992v11.678zm-.881 16.571c0 .636-.548 1.566-1.18 1.566h-10.55c-.636 0-1.474-.931-1.474-1.566v-10.58c0-.638.838-1.057 1.474-1.057h10.55c.632 0 1.18.419 1.18 1.057v10.58zm17.605-16.311c0 .637-.181 1.153-.816 1.153h-11.757c-.634 0-1.51-.517-1.51-1.153v-11.776c0-.637.876-1.154 1.51-1.154h11.757c.636 0 .816.518.816 1.154v11.776zm0 17.604c0 .637-.181 1.153-.816 1.153h-11.757c-.634 0-1.51-.517-1.51-1.153v-11.776c0-.639.876-1.153 1.51-1.153h11.757c.636 0 .816.515.816 1.153v11.776zm16.723-17.997c0 .61.67 1.546-.144 1.546h-11.098c-.812 0-1.962-.936-1.962-1.546v-11.872c0-.61 1.149-.665 1.962-.665h11.098c.813 0 .144.055.144.665v11.872zm.88 17.997c0 .637-.515 1.153-1.151 1.153h-11.782c-.635 0-1.15-.517-1.15-1.153v-11.776a1.15 1.15 0 0 1 1.15-1.153h11.782a1.15 1.15 0 0 1 1.151 1.153v11.776zm36.088-51.825c0 .639.266 1.927-.368 1.927h-11.642c-.636 0-2.072-1.289-2.072-1.927v-11.678c0-.637 1.438-.478 2.072-.478h11.642c.634 0 .368-.159.368.478v11.678zm0 17.499a1.15 1.15 0 0 1-1.149 1.151h-11.784a1.15 1.15 0 0 1-1.149-1.151V255.05a1.15 1.15 0 0 1 1.149-1.152h11.784a1.15 1.15 0 0 1 1.149 1.152v11.779zm16.724-16.725c0 .637-.32 1.153-.955 1.153H476.26c-.637 0-1.373-.517-1.373-1.153v-11.775c0-.639.736-1.154 1.373-1.154h11.755c.635 0 .955.516.955 1.154v11.775zm0 16.725a1.15 1.15 0 0 1-1.149 1.151h-11.784a1.15 1.15 0 0 1-1.149-1.151V255.05a1.15 1.15 0 0 1 1.149-1.152h11.784a1.15 1.15 0 0 1 1.149 1.152v11.779zm15.844-18.871c0 .638.325 1.539-.312 1.539h-9.879c-.633 0-3.895-.901-3.895-1.539v-9.909c0-.636 3.262-.874 3.895-.874h9.879c.637 0 .312.238.312.874v9.909zm0 18.353c0 .638.56 1.67-.075 1.67h-11.643c-.635 0-2.366-1.033-2.366-1.67v-11.678c0-.637 1.732-.735 2.366-.735h11.643c.635 0 .075.099.075.735v11.678zm0 17.24c0 .637-.353 1.153-.988 1.153h-11.753c-.637 0-1.342-.517-1.342-1.153v-11.776c0-.637.706-1.154 1.342-1.154h11.753c.636 0 .988.518.988 1.154v11.776zm-34.329-.848c0 .637 1.439 1.121.804 1.121h-10.858c-.634 0-2.267-.485-2.267-1.121v-10.892c0-.638 1.633-1.19 2.267-1.19h10.858c.636 0-.804.553-.804 1.19v10.892zm0 17.257c0 .638 1.439 1.469.804 1.469h-10.858c-.634 0-2.267-.831-2.267-1.469v-10.891c0-.637 1.633-.844 2.267-.844h10.858c.636 0-.804.207-.804.844v10.891zm17.606-17.257c0 .637.03 1.121-.606 1.121h-10.858c-.637 0-2.619-.485-2.619-1.121v-10.892c0-.638 1.982-1.19 2.619-1.19h10.858c.638 0 .606.553.606 1.19v10.892zm0 17.701c0 .808.504 1.904-.31 1.904h-11.089c-.813 0-2.686-1.097-2.686-1.904v-11.156c0-.808 1.872-1.022 2.686-1.022h11.089c.813 0 .31.215.31 1.022v11.156zm16.723.751c0 .637-.353 1.153-.988 1.153h-11.753c-.637 0-1.342-.517-1.342-1.153v-11.776c0-.639.706-1.153 1.342-1.153h11.753c.636 0 .988.515.988 1.153v11.776zM400.95 318.27c0 .637-.548 1.643-1.18 1.643h-10.55c-.636 0-1.474-1.006-1.474-1.643v-10.58c0-.639.838-.98 1.474-.98h10.55c.632 0 1.18.344 1.18.98v10.58zm17.605 1.369c0 .637-.181 1.153-.816 1.153h-11.757c-.634 0-1.51-.517-1.51-1.153v-11.775c0-.639.876-1.154 1.51-1.154h11.757c.636 0 .816.516.816 1.154v11.775zm16.723-1.178c0 .559.67 1.451-.144 1.451h-11.098c-.812 0-1.962-.893-1.962-1.451V307.28c0-.56 1.149-.569 1.962-.569h11.098c.813 0 .144.012.144.569v11.181zm19.365-68.357c0 .637-.253 1.153-.888 1.153H442c-.637 0-1.44-.517-1.44-1.153v-11.775c0-.639.804-1.154 1.44-1.154h11.755c.635 0 .888.516.888 1.154v11.775zm0 16.207c0 .638.45 1.67-.187 1.67h-11.641c-.636 0-2.256-1.033-2.256-1.67v-11.678c0-.637 1.621-.735 2.256-.735h11.641c.637 0 .187.099.187.735v11.678zm-.881 16.847c0 .61.614 1.546-.198 1.546h-11.1c-.812 0-2.784-.936-2.784-1.546v-11.872c0-.61 1.972-.665 2.784-.665h11.1c.812 0 .198.055.198.665v11.872zm0 17.997c0 .637-.251 1.153-.887 1.153h-11.753c-.636 0-1.442-.517-1.442-1.153v-11.776c0-.639.807-1.153 1.442-1.153h11.754c.636 0 .887.515.887 1.153l-.001 11.776zm0 17.306c0 .559.614 1.451-.198 1.451h-11.1c-.812 0-2.784-.893-2.784-1.451V307.28c0-.56 1.972-.569 2.784-.569h11.1c.812 0 .198.012.198.569v11.181zm16.723.787c0 .639 1.031 1.544.396 1.544h-11.643c-.635 0-2.837-.905-2.837-1.544V307.57c0-.637 2.202-.86 2.837-.86h11.643c.635 0-.396.225-.396.86v11.678z"/><path fill="#818181" d="M100.803 36.489h416.333v40.489H100.803z"/><path fill="#FFF" d="M113.899 48.416h187.934v16.89H113.899z"/><path fill="#F15F55" d="M290.249 60.18a4.348 4.348 0 0 1-4.291-3.621 4.38 4.38 0 0 1 3.551-5.063c2.411-.426 4.637 1.212 5.043 3.558a4.378 4.378 0 0 1-3.546 5.061 4.432 4.432 0 0 1-.757.065zm.016-7.75a3.38 3.38 0 0 0-3.321 3.959 3.358 3.358 0 0 0 3.889 2.741 3.376 3.376 0 0 0 2.734-3.904 3.351 3.351 0 0 0-3.302-2.796z"/><path fill="#F15F55" d="M293.248 58.3l3.002 3.289-.739.674-3.002-3.289z"/><path fill="#FFF" d="M12 16.822h82.644v7.785H12z"/><path fill="#989898" d="M323.493 55.853h88.9v4.401h-88.9z"/><path fill="#FFF" d="M432.218 16.822h54.406v7.785h-54.406z"/><ellipse fill="#FFF" cx="591.554" cy="20.714" rx="9.36" ry="9.388"/><ellipse fill="#FFF" cx="562.594" cy="20.714" rx="9.36" ry="9.388"/><path fill="none" stroke="#CDCCCC" stroke-miterlimit="10" d="M100.803 172.479h257.898"/><path fill="#CDCCCC" d="M429.997 48.812h37.848v16.724h-37.848z"/><path fill="#989898" d="M466.966 48.812h38.728v16.724h-38.728z"/><path fill="#CDCCCC" d="M384.834 113.335H505.93v10.149H384.834z"/><path fill="#F15F55" d="M384.834 139.515H505.93v10.15H384.834z"/><path fill="#CDCCCC" d="M384.834 164.559H505.93v10.15H384.834z"/></svg>