<svg xmlns="http://www.w3.org/2000/svg" width="617" height="336" viewBox="0 0 617 336"><path fill="#F4F4F4" d="M0 0h617v336.377H0z"/><path fill="#F05A5E" d="M0 .5h617v43H0z"/><path fill="#FFF" d="M0 118.5h617v218H0z"/><circle fill="#FFF" stroke="#E6E6E6" stroke-miterlimit="10" cx="556.811" cy="21.722" r="9.224"/><path opacity=".3" fill="#CCC" d="M106.018 228.021h266.806v9.146H106.018zm0 12.471h266.806v9.146H106.018z"/><path fill="#CCC" d="M105.271 210.56H221.03v10.81H105.271z"/><path opacity=".2" fill="#F05A5E" d="M56.533 203.907h45.527v49.057H56.533z"/><path opacity=".3" fill="#CCC" d="M106.018 292.854h266.806v9.147H106.018zm0 12.472h266.806v9.146H106.018z"/><path fill="#CCC" d="M105.271 275.396H221.03v10.809H105.271z"/><path opacity=".2" fill="#F05A5E" d="M56.533 268.742h45.527v49.059H56.533z"/><path opacity=".3" fill="#CCC" d="M106.018 162.851h266.806v9.146H106.018zm0 12.471h266.806v9.147H106.018z"/><path fill="#CCC" d="M105.271 149.526H221.03v10.811H105.271z"/><path opacity=".2" fill="#F05A5E" d="M56.533 138.739h45.527v49.056H56.533z"/><path fill="#FFF" stroke="#E6E6E6" stroke-miterlimit="10" d="M153.922 13.075H472.36v16.592H153.922z"/><path d="M490.439 19.2a3.99 3.99 0 0 1-3.248 4.619 3.991 3.991 0 0 1-4.62-3.245 3.995 3.995 0 1 1 7.868-1.374zm-1.206 3.609l3.105 3.389" fill="none" stroke="#E6E6E6" stroke-miterlimit="10"/><text transform="translate(51.61 32.72)" fill="#FFF" font-family="'SourceSansPro-Black'" font-size="24.394">Yelt</text><path fill="none" stroke="#E6E6E6" stroke-miterlimit="10" d="M0 45h617"/><path fill="#FFF" stroke="#E6E6E6" stroke-miterlimit="10" d="M526.5 19h11v9h-11z"/><path fill="#F05A5E" d="M87 55.5h67v4H87zm125 0h66v4h-66zm126 0h66v4h-66zm125 0h66v4h-66z"/><path fill="#CCC" d="M87 66.5h67v4H87zm125 0h66v4h-66zm126 0h66v4h-66zm125 0h66v4h-66zm-376 12h67v3H87zm125 0h66v3h-66zm126 0h66v3h-66zm125 0h66v3h-66z"/><path fill="#FFF" d="M99.135 12.084c-2.215 0-4.013 1.7-4.013 3.796 0 2.877 4.013 6.599 4.013 6.599s4.013-3.722 4.013-6.599c0-2.096-1.797-3.796-4.013-3.796zm0 5.257a1.477 1.477 0 1 1 .002-2.954 1.477 1.477 0 0 1-.002 2.954z"/><path opacity=".3" fill="#CCC" d="M412.843 275.55H556.25v6.445H412.843zm0 16.122H556.25v6.445H412.843zm0 16.432h92.631v6.444h-92.631z"/><path fill="none" d="M412.546 156.7l.039.203v-.208zm135.019-17.721l-.014-.071-.53.071z"/><path fill="#EAEAEA" d="M483.938 200.785l3.024 15.346 13.416-1.715-3.129-15.376zm14.374-2.944l14.384-1.888-3.288-16.667-14.49 1.882zm-11.879-51.677l-1.411-6.664h-13.265l1.701 8.502zm-31.003 4.085l-2.193-10.749h-12.076l2.455 12.436zm-26.137 22.697l-13.238 1.719 2.988 15.3 13.363-1.736zm79.91 5.307l-3.018-15.294-14.587 1.896 3.109 15.281zm-68.557-26.057l-2.532-12.696h-14.433l3.013 14.665zm61.757-8.137l-.953-4.559h-15.12l1.375 6.626zm-30.217 3.981l-1.736-8.54h-14.165l2.113 10.488zM542.63 262.5h13.245l-3.333-16.64-12.78 2.011zm-110.013-73.238L419.244 191l3.279 16.782 13.506-1.771zm106.939 56.782l12.771-1.744-3.272-15.818-12.681 1.631zM441.304 225.5l3.133 15.375 13.251-1.705-3.004-15.381zm99.506-51.354l13.481-1.75-3.077-15.285-13.497 1.754zm-68.1 47.338l3.057 15.362 13.625-1.752-3.027-15.355zm-3.731-18.736l3.043 15.292 13.666-1.746-3.024-15.34zm14.755-2.995l13.306-1.745-3.394-16.673-13.205 1.714zM412 210.146v15.491l12.115-1.511-3.102-15.143zm67.17-26.931l-13.724 1.782 3.327 16.718 13.687-1.794zm54.872-42.265l3.187 15.634 13.502-1.557-3.166-15.527h-.544zm-83.009 64.153l-13.522 1.773 3.093 15.18 13.407-1.713zm-3.475-17.783l-13.668 1.776 3.412 16.747 13.529-1.774zm14.917-1.936l-11.944 1.551 3.272 16.743 12.001-1.574zm-1.611 54.437l3.203 16.403 12.184-1.633-3.25-16.33zm60.066-8.782l13.965-1.795-3.059-15.317-13.933 1.781zm-62.186-64.392l-3.11-15.625-11.816 1.556 3.05 15.61zm65.318 86.882l-4.203-21.292-.062.008zm-22.409-39.277l14.296-1.827-3.048-15.438-14.379 1.886zm-43.76 25.951l-13.245 1.703 3.356 16.473 13.096-1.757zm1.332-71.145l-11.885 1.545 2.989 15.297 11.94-1.55zm43.129 48.636l3.12 15.332 14.181-1.823-3.026-15.332zm14.869-5.432l13.924-1.781-3.092-15.483-13.88 1.822zm-29.582 7.314l3.026 15.355 13.534-1.741-3.12-15.332zm26.331-23.79l13.878-1.82-3.325-16.644-13.844 1.799zm6.812-37.196l-3.142-15.74-13.762 1.813 3.103 15.72zm-15.075 1.958l-3.103-15.717-14.69 1.936 3.19 15.676zm4.769 17.539l13.841-1.799-3.053-15.287-13.806 1.793zm-20.644-15.477l-3.19-15.675-12.982 1.711 3.086 15.664zm-14.358 1.864l-3.087-15.661-13.785 1.817 3.114 15.632zm-34.627-11.504l-13.944 1.836 3.171 15.565 13.82-1.796zm81.209 5.455l13.898-1.805-3.189-15.764-13.853 1.826zm10.363 51.894l14.035-1.794-3.141-15.528-13.987 1.834zm3.747 18.761l12.673-1.63-3.165-15.292-12.566 1.606zm-11.662 20.611l2.424 12.809h14.394l-2.834-14.453zm-1.967-88.856l3.054 15.288 13.942-1.812-3.092-15.281zm16.438-21.335h-5.283l.137.678zm-6.42.585l-.169-.585h-14.212l.532 2.54zM480.725 261.5l-1.127-6.094-.173.452 1.238 6.642h44.961l-.068-1zm48.396-67.702l13.985-1.834-3.362-16.619-13.945 1.811zm-35.686-13.497l-3.112-15.281-13.098 1.701 3.014 15.295zm-57.197 26.742l-13.512 1.772 2.957 15.149 13.647-1.743zm8.13-36.056l-13.802 1.794 3.113 15.282 13.678-1.777zm73.066-28.908l-.567-2.579h-14.109l.918 4.522zm-77.404 83.583l-13.674 1.748 3.008 15.402 13.799-1.775zm-10.463 18.184l3.235 16.57 13.928-1.867-3.355-16.478zm49.397-61.666l-3.013-15.294-13.755 1.786 3.044 15.293zm-12.955 20.958l-12.005 1.576 2.979 15.248 12.067-1.542zm-17.797 56.803l.415 2.559h13.415l-.74-4.051zm16.059-2.154l.817 4.713h12.526l-1.158-6.082zm-3.609-18.999l12.133-1.559-3.06-15.365-12.078 1.545zm33.748 14.483l-.01-.053-5.154.69zm60.089-79.842l-13.479 1.751 3.361 16.618 11.398-1.495.205 1.032-11.395 1.495 3.197 15.531L558 207.064v-23.216l-1.315.167zm-129.37-19.225l-2.757-14.704h-5.802l-4.57.002v16.132zm125.828 62.414l4.555-.643.738 3.437-4.581.649 1.472 6.844 4.859-.618v-15.69l-8.023 1.018zm-56.763 35.566l.174.863-.174-.954-14.759 1.94-3.368-16.066 20.359-2.718-20.453 2.631 3.248 16.311zM558 175.132V155.05l-3.869.859zm0-21.168V139.5h-7.385l3.253 15.63zm-137.043 53.985l-3.425-16.785-5.532.699v17.224zm4.126 19.624l-11.914 1.523 3.012 15.412 11.91-1.531zm.257-72.598l-13.34 1.72v.208l3.291 15.349 13.219-1.717zm6.19 106.141l-3.237-16.841-11.911 1.928 3.105 16.297h5.675zM558 250.123v-22.775l-4.591.589zm-146-17.334v12.18l2.32-.297zm2.78-57.959l-2.26.256-.52-1.148v16.866l5.477-.673zm18.291 87.67h14.248l-.38-1.859zm91.232-14.371l13.98-1.911-3.182-15.941-13.968 1.796zM412 246.03v16.47h6.182l-3.366-16.266zm0-82.442v9.055l1.726-.225z"/><path fill="#FFF" d="M412 139.5v.002l4.57-.002zm138.731 15.463l1.49-.324.134.62 1.457-.096-3.197-15.663h-3.05zm1.898 1.256l-.17-.506.236 1.206-1.481.192 3.077 15.285 1.488-.194.203 1.034-1.483.193 2.186 10.586 1.315-.167v-8.716l-3.923-19.223zm-140.262-.585l-.132.032.146 1.034-.014-.005zm74.277-8.699l-.211-1.032-12.975 1.708.204 1.035zm30.998-4.085l-.208-1.033-13.758 1.814.204 1.032zm15.125-1.994l-.21-1.031-13.849 1.823.206 1.034zm1.275.094l12.979-1.45h-8.044l-5.146.547zm-93.396 10.987l-13.952 1.838.211 1.031 13.944-1.836zm14.988-.915l-.204-1.034-11.814 1.557.202 1.033zm16.755-2.209l-.203-1.033-13.788 1.816.206 1.034zm30.217-3.982l-.203-1.032-14.698 1.935.211 1.033z"/><path fill="#FFF" d="M412 155.634v1.061l13.34-1.72-.357-1.033zm142.077.275l3.923-.859v-1.086l-4.107.907zm-1.448.31l1.392-.31-.209-1.038-1.457.322.104.52zm-76.678 10.667l-.475-2.412-13.758 1.788.478 2.41zm61.766-8.021l13.497-1.754-.483-2.409-13.502 1.753zm-31.532 4.094l-.476-2.411-14.603 1.895.492 2.412zm-15.862 2.061l-.489-2.41-13.086 1.7.477 2.411zm-75.543 9.81l-.762-2.412-2.018.225v1.295l.52 1.148zm14.513-1.884l-.491-2.411-13.219 1.717.472 2.413zm29.451-6.299l-11.876 1.541.472 2.415 11.885-1.545zm48.716-3.853l13.806-1.793-.482-2.411-13.801 1.793zm15.079-1.959l13.904-1.805-.487-2.41-13.898 1.805zm-78.643 7.74l-13.82 1.796.49 2.41 13.802-1.794z"/><path fill="#FFF" d="M552.695 156.919l-.236-1.206-.171-.505.067-.015-.134-.685-1.49.194.483 2.409z"/><path fill="#FFF" d="M552.459 155.713l-.104-.52-.067.015zM447.558 187.32l-.201-1.034-13.678 1.777.211 1.033zm78.241-10.164l13.945-1.811-.209-1.034-13.942 1.812zm-46.835 5.024l-13.724 1.785.206 1.032 13.724-1.782zm14.682-.845l-.211-1.034-13.196 1.715.202 1.033zm-75.966 9.829l-.35-1.033-5.33.673v1.059zm123.34-15.984l13.479-1.751-.208-1.033-13.481 1.75zm-46.102 5.988l14.49-1.882-.205-1.033-14.496 1.883zm-62.512 7.061l-13.363 1.736.201 1.035 13.373-1.738zm29.863-3.879l-11.94 1.55.202 1.035 11.944-1.551zm48.412-5.229l13.844-1.799-.206-1.034-13.841 1.799z"/><path fill="#FFF" d="M555.982 173.236l-.203-1.034-1.488.194.208 1.033zm-41.807 23.584l13.88-1.822-.205-1.032-13.878 1.82zm-31.715 3.101l-13.687 1.794.206 1.033 13.685-1.794zm-46.222 7.122l-.209-1.032-13.506 1.771.203 1.033zm-15.281.906L412 209.087v1.059l9.013-1.163zm62.981-7.164l13.311-1.745-.209-1.032-13.306 1.745zm14.374-2.944l.21 1.032 14.379-1.886-.205-1.034zm57.672-6.506l-.205-1.032-11.398 1.495.208 1.032zm-26.656 3.496l13.987-1.834-.209-1.033-13.985 1.834zm-78.497 9.238l-13.529 1.774.209 1.033 13.522-1.773zm15.178-.931l-.205-1.034-12.001 1.574.201 1.036zm-9.026 16.824l.674 3.447 12.078-1.545-.685-3.444zm29.979-3.831l.679 3.445 13.44-1.718-.703-3.442zm-14.94 1.909l.688 3.444 13.655-1.745-.677-3.445zm76.056-7.961l1.484-.203.415 1.739 8.023-1.018v-3.533l-10.214 1.297zm-14.968 3.685l12.566-1.606-.354-1.705 2.121-.287-.637.083-.35-1.724-14.035 1.794zm-15.887-1.502l.68 3.446 13.933-1.781-.689-3.446zm-62.539 11.527l-.673-3.446-13.407 1.713.7 3.444zm-15.354-1.568l-13.647 1.743.673 3.446 13.674-1.748zm63.024-4.527l14.275-1.823-.68-3.446-14.296 1.827zm-78.239 6.432L412 225.637v.466l.879 2.993 11.91-1.523zm124.726 3.324l4.245-.545-1.417-6.844-2.105.295-.737-3.437 2.13-.301-1.035-5.003-4.246.543zm.214 1.032l3.272 15.818 3.447-.472.214 1.031-3.446 1.001 3.333 16.64h1.025l1.1-1.192v-11.185l-4.646-22.186z"/><path fill="#FFF" d="M547.196 210.166l-1.998.287.414 1.705 4.281-.543-.592-1.739-1.714.203v.001zm9.054 9.246l-.738-3.437-4.555.643.712 3.443z"/><path fill="#FFF" d="M549.564 220.356l2.105-.295-.712-3.443-2.13.301zm-3.108-11.831l1.275-.164-3.142-15.531-1.274.167zm-3.35-16.561l1.275-.166-3.361-16.618-1.276.165zm-7.15-35.344l1.273-.165-3.187-15.767-1.275.168zm3.579 17.691l1.275-.165-3.093-15.281-1.274.165zm-5.704-34.603l-.137-.625h-1.306l.169.819z"/><path fill="#FFF" d="M532.557 139.825l.21 1.031 1.275-.168-.211-1.03zm3.886 19.205l1.274-.165-.488-2.41-1.273.165zm3.092 15.281l.209 1.034 1.276-.165-.21-1.034zm3.78 18.686l1.274-.167-.208-1.032-1.275.166zm3.491 17.252l.637-.083.635-.087-.347-1.718-1.275.164zm1.273-.169l-.001-.001-.635.087zm-23.76-33.792l1.274-.165-3.054-15.288-1.273.166zm-2.261-17.863l-3.144-15.743-1.272.168 3.142 15.74zm5.792 35.541l1.271-.168-3.322-16.642-1.274.166zm3.986 19.961l3.059 15.317 1.273-.164-3.058-15.316zm-.689-3.446l1.274-.162-3.093-15.488-1.273.167zm10.177 52.019h1.306l-2.868-14.894-1.272.441zm-22.616-120.59l-.532-2.41h-1.309l.567 2.708zm19.575 104.308l1.273-.174-3.182-15.931-1.273.164z"/><path fill="#FFF" d="M518.914 142.682l-.206-1.034-1.274.169.208 1.033zm1.87 15.908l.482 2.411 1.273-.166-.481-2.41zm3.741 18.732l1.274-.166-.206-1.033-1.274.165zm3.53 17.676l1.273-.167-.207-1.033-1.271.168zm3.781 18.929l1.274-.163-.689-3.445-1.274.162zm-12.181 17.276l1.275-.164-3.027-15.331-1.274.163zm-6.754-34.216l3.048 15.438 1.274-.163-3.048-15.442zm-3.698-18.734l1.275-.166-3.018-15.293-1.275.165zm-5.527-34.362l-.918-4.391h-1.308l.953 4.689zm3.307 16.492l-3.103-15.72-1.274.168 3.103 15.717zm16.892 88.866l-.214-1.032.642-.088-3.17-16.056-1.274.164 4.203 21.497 1.516 7.766h-.022l.068 1h1.306l-2.424-12.809zm-11.179-53.296l1.276-.167-3.291-16.665-1.273.165z"/><path fill="#FFF" d="M503.88 144.663l-.204-1.032-1.273.168.203 1.032zm3.58 18.131l-.477-2.411-1.274.165.476 2.411zm1.948 16.492l1.273-.165-.203-1.034-1.275.166zm3.493 17.701l1.274-.167-.203-1.034-1.276.167zm3.728 18.884l1.274-.163-.68-3.446-1.274.163zm-28.924-69.875l-1.375-6.496h-1.308l1.411 6.793zm13.376 71.862l3.12 15.332 1.273-.164-3.12-15.332zm-6.374-37.722l-3.109-15.281-1.275.165 3.112 15.281zm-3.601-17.693l-3.19-15.676-1.272.168 3.19 15.675zm2.54 18.892l3.394 16.673 1.272-.167-3.394-16.673zm6.732 33.081l1.275-.164-3.131-15.379-1.273.167z"/><path fill="#FFF" d="M487.916 146.767l-.211-1.033-1.272.169.211 1.032zm3.682 18.088l-.492-2.412-1.272.167.489 2.41zm3.32 16.313l-.211-1.032-1.272.165.211 1.034zm2.331 17.872l1.273-.167-.21-1.032-1.272.167zm3.129 15.376l.703 3.442 1.273-.164-.701-3.442zm-17.714-13.462l3.024 15.34 1.274-.163-3.024-15.346zm-9.206-53.081l-1.701-8.373h-1.307l1.736 8.669zm3.29 16.437l-3.086-15.664-1.273.167 3.087 15.661zm3.693 18.739l-1.271.166 3.29 16.706 1.274-.168zm-.202-1.033l-3.014-15.295-1.274.165 3.013 15.294zm6.126 37.723l3.027 15.355 1.275-.163-3.026-15.355z"/><path fill="#FFF" d="M473.662 148.646l-.204-1.035-1.272.169.203 1.033zm3.563 18.075l-.477-2.411-1.272.164.475 2.412zm3.216 16.328l-.202-1.033-1.275.164.206 1.035zm2.019 16.872l.204 1.033 1.274-.169-.204-1.032zm3.228 16.373l.677 3.445 1.276-.163-.679-3.445zm-13.666 1.746l-3.043-15.292-2.97.39 3.041 15.282zm-6.576-33.043l-2.971.387 3.329 16.72 2.969-.389zm4.289 36.867l3.06 15.365 2.972-.383-3.057-15.362zm-7.539-53.192l-2.971.386 3.044 15.292 2.971-.385zm14.055 85.919l2.97-.4-3.248-16.311-2.972.381zm.205 1.563l1.158 6.346h3.049l-1.238-6.48zm-18.058-106.297l-2.113-10.357h-3.048l2.193 10.88zm3.32 16.405l-3.114-15.632-2.97.392 3.11 15.625z"/><path fill="#FFF" d="M458.604 150.63l-.206-1.034-2.968.392.204 1.034zm3.592 18.042l-.478-2.41-2.974.385.481 2.411zm3.044 15.293l-2.971.385.206 1.034 2.971-.387zm3.533 17.75l-2.969.389.205 1.034 2.97-.39zm.277 16.705l.685 3.444 2.975-.38-.688-3.444zm-11.393 4.989l-2.973.38 3.004 15.381 2.974-.382zm-3.653-18.695l-2.971.389 2.978 15.24 2.972-.381zm3.889 35.489l3.207 16.419 2.967-.398-3.203-16.403zm-14.075-87.625l-2.969.392 3.047 15.605 2.972-.387zm9.985 51.1l-3.272-16.743-2.973.385 3.273 16.749zm7.499 54.509l.74 4.313h3.046l-.817-4.447zm-13.962-87.584l-2.972.384 2.989 15.299 2.972-.386zm-3.724-18.798l-2.455-12.305h-3.047l2.532 12.827z"/><path fill="#FFF" d="M443.818 152.578l-.202-1.033-2.97.392.203 1.033zm3.05 15.61l-2.972.387.472 2.412 2.972-.384zm3.461 17.712l-2.972.386.201 1.034 2.973-.385zm3.474 17.778l-2.972.391.202 1.034 2.971-.389zm3.18 16.284l-2.972.381.673 3.446 2.973-.38zm-10.044 40.149l.38 2.389h1.308l-.415-2.295zm-6.335-38.055l-3.093-15.18-1.273.167 3.092 15.178zm4.044 19.85l-1.273.165 3.355 16.478 1.274-.17zM423.681 139.5h-1.309l3.048 14.704 1.274-.039zm9.998 48.563l-3.113-15.282-1.273.165 3.113 15.283zm-6.774-33.257l-1.273.169 3.17 15.56 1.274-.164zm14.399 70.694l-1.274.162 3.133 15.375 1.274-.162zm-7.414-36.404l-1.273.166 3.412 16.749 1.273-.168z"/><path fill="#FFF" d="M426.694 153.775l-1.274.167.212 1.033 1.273-.169zm3.382 16.596l-1.274.164.491 2.411 1.273-.165zm3.603 17.692l-1.273.166.211 1.033 1.273-.166zm3.623 17.78l-1.273.168.209 1.032 1.273-.167zm3.302 16.213l-1.274.165.7 3.441 1.274-.162zm-14.248 5.354l-1.273.163 3.008 15.404 1.273-.165zm-3.833-19.628L419.244 191l-1.272.164 3.277 16.785zm-6.468-33.117l-1.275.165 2.989 15.301 1.274-.166zm13.512 69.181l-1.274.164 3.237 16.577 1.272-.171zm-6.841-35.031l-1.274.168 2.958 15.143 1.273-.162zm-7.435-36.563L412 156.903v6.685l1.87 8.83z"/><path fill="#FFF" d="M415.583 172.252l-1.273.166.47 2.412 1.275-.165zm3.46 17.713l-1.274.166.203 1.033 1.272-.164zm3.683 18.85l-.203-1.033-1.274.167.203 1.034zm2.957 15.149l-1.273.162.673 3.447 1.273-.163zm-9.502 20.544l-3.012-15.412-.554.034-.615-1.666v5.325l2.613 11.883zm.201 1.562l-1.274.428 3.074 16.002h1.305z"/><path fill="#FFF" d="M412 227.464l.615 1.666.115-.034-.73-2.993zm2.613 17.208l-2.613.297v1.061l2.669-.325zm13.478-1.695l-11.91 1.531.201 1.032 11.911-1.53zm125.263-15.04l4.646-.589v-1.061l-4.832.618zm-95.666 11.233l-13.251 1.705.211 1.031 13.245-1.703zm63.445-7.097l13.968-1.796-.206-1.033-13.965 1.795zm-77.97 8.964l-13.799 1.775.203 1.034 13.808-1.775zm17.701-1.216l12.137-1.56-.206-1.032-12.133 1.559zm75.304-10.741l.206 1.033 12.681-1.631-.214-1.032zm-30.694 3.946l.126.619-1.272.169-.127-.624-13.534 1.741.185.936-1.274.166-.186-.939-13.625 1.752.206 1.034 20.453-2.631 23.349-3.115.022.111.062-.008-.204-1.034z"/><path fill="#FFF" d="M549.055 228.482l4.245-.545-.214-1.032-4.245.545zm-13.954 1.795l1.273-.164-.206-1.033-1.273.164zm-15.446.926l.204 1.034 1.274-.164-.203-1.034zm-15.327 2.611l1.272-.169-.126-.619-1.273.164zm-14.75 2.219l1.274-.166-.185-.936-1.275.163zm-16.577 2.228l2.972-.381-.206-1.034-2.972.383zm-12.339.527l-2.974.382.205 1.033 2.971-.382zm-17.499 2.249l.212 1.034 1.273-.165-.211-1.031zm-13.799 1.775l-1.273.165.202 1.033 1.274-.164zm-14.458 1.86l.202 1.033 1.274-.165-.201-1.032zm124.856 2.405l12.78-1.745-.215-1.032-12.771 1.744zm-15.256 2.085l13.984-1.911-.207-1.033-13.98 1.911zm31.482-4.303l-.214-1.031-3.447.472.215 1.032z"/><path fill="#FFF" d="M538.49 247.251l1.272-.174-.206-1.033-1.273.174zm-14.829.966l.214 1.032.631-.087-.203-1.033zm34.369 13.091l-1.13.256h1.13zm-125.026.133l.002.009.065-.009zm15-3.062l.208 1.031 13.09-1.756-.202-1.032zm41.242-4.471l5.154-.69-.032-.171-.174-.863-14.973 2.007.204 1.035.173-.024-.02-.1zm-64.084 8.592h6.535l-.167-.854zm38.905-6.276l.204 1.034 12.185-1.636-.205-1.031z"/><path fill="#FFF" d="M446.939 260.111l-.209-1.297-13.928 2.265.202 1.421h.067zm29.312-5.52l.205 1.031 2.969-.396-.204-1.035zm-15.151 2.031l.202 1.032 2.969-.396-.204-1.034zm-13.096 1.757l-1.274.17.209 1.032 1.273-.171z"/><path fill="#FFF" d="M431.53 260.69l.167.957h1.307l-.202-1.075z"/><path fill="#F2F2F2" d="M496.426 235.249l-20.359 2.718 3.368 16.066 14.759-1.94.174 1.095.034.312h-.002l.01-.088-5.164.567-9.648 1.464 1.127 6.057h44.831l-1.494-7.766-4.265-21.385z"/><path fill="#EFE4D6" d="M525.578 261.5l-1.516-7.561 1.494 7.561zm-5.803-29.366l-23.349 3.115 23.371-3.004zm-40.197 22.968l.02.1 9.648-1.294zm14.824-1.884l-.034-.171.032.171z"/><path fill="#F05A5E" d="M464.271 180.44c-3.69 0-6.684 2.83-6.684 6.321 0 4.793 6.684 10.989 6.684 10.989s6.683-6.196 6.683-10.989c0-3.49-2.991-6.321-6.683-6.321zm0 8.753a2.46 2.46 0 0 1 0-4.917 2.46 2.46 0 0 1 0 4.917zm7.751 11.493c-3.69 0-6.684 2.829-6.684 6.319 0 4.794 6.684 10.99 6.684 10.99s6.682-6.196 6.682-10.99c0-3.49-2.991-6.319-6.682-6.319zm0 8.752a2.459 2.459 0 1 1 .001-4.917 2.459 2.459 0 0 1-.001 4.917zm5.207-37.843c-3.69 0-6.684 2.829-6.684 6.32 0 4.793 6.684 10.989 6.684 10.989s6.681-6.196 6.681-10.989c0-3.491-2.99-6.32-6.681-6.32zm0 8.753a2.46 2.46 0 0 1 0-4.917 2.458 2.458 0 0 1 0 4.917zm8.971 8.549c-3.689 0-6.683 2.83-6.683 6.321 0 4.793 6.683 10.989 6.683 10.989s6.681-6.196 6.681-10.989c0-3.49-2.989-6.321-6.681-6.321zm0 8.752a2.457 2.457 0 1 1 0-4.915 2.457 2.457 0 1 1 0 4.915zm17.476-.12c-3.689 0-6.683 2.83-6.683 6.321 0 4.793 6.683 10.989 6.683 10.989s6.683-6.196 6.683-10.989c-.001-3.491-2.992-6.321-6.683-6.321zm0 8.752a2.458 2.458 0 1 1 .002-4.916 2.458 2.458 0 0 1-.002 4.916zm3.307-27.4c-3.69 0-6.684 2.83-6.684 6.322 0 4.793 6.684 10.988 6.684 10.988s6.681-6.195 6.681-10.988c0-3.492-2.991-6.322-6.681-6.322zm0 8.753a2.459 2.459 0 1 1 0-4.918 2.459 2.459 0 0 1 0 4.918zm-13.337-23.226c-3.689 0-6.683 2.829-6.683 6.32 0 4.793 6.683 10.99 6.683 10.99s6.681-6.197 6.681-10.99c0-3.492-2.989-6.32-6.681-6.32zm0 8.751a2.458 2.458 0 1 1-.002-4.916 2.458 2.458 0 0 1 .002 4.916z"/><path fill="#CCC" d="M89 93.5h13v13H89zm15 0h12v13h-12zm13 0h13v13h-13zm15 0h13v13h-13zm15 0h13v13h-13zm23 0h46v13h-46zm53 0h45v13h-45z"/><path opacity=".2" fill="#F05A5E" d="M102.643 188.227h-46.11V139.26zm0 64.779h-46.11v-48.967zm0 64.749h-46.11v-48.966z"/></svg>