<svg xmlns="http://www.w3.org/2000/svg" width="617" height="336" viewBox="0 0 617 336"><path fill="#F2F2F2" d="M-1.248.484H617v337.04H-1.248z"/><path opacity=".7" fill="#F2E8CC" d="M85.848 59.387h445.051v273.328H85.848z"/><path opacity=".5" fill="#B3B3B3" d="M95.359 72.396h405.335v4.263H95.359zm0 12.113h352.637v4.263H95.359z"/><path opacity=".9" fill="#E6E6E6" d="M95.359 99.822H272.3v3.312H95.359z"/><path fill="#FF7C24" d="M85 .5h444v28H85z"/><text transform="matrix(1.0803 0 0 1 92.424 19.242)" fill="#FFF" font-family="'SourceSansPro-Black'" font-size="13.848">Hacker N.</text><path fill="#FFF" d="M86.006 27.806h443.958v19.89H86.006z"/><path fill="#FAF9F8" d="M85.848 48.33h444.116v9.945H85.848z"/><path fill="none" stroke="#FFF" stroke-miterlimit="10" d="M90 114h434"/><path opacity=".5" fill="#B3B3B3" d="M95.359 124.327h405.335v4.262H95.359zm0 12.113h352.637v4.263H95.359z"/><path opacity=".9" fill="#E6E6E6" d="M95.359 151.753H272.3v3.311H95.359z"/><path fill="none" stroke="#FFF" stroke-miterlimit="10" d="M90 166h434"/><path opacity=".5" fill="#B3B3B3" d="M95.359 176.257h405.335v4.264H95.359zm0 12.114h352.637v4.264H95.359z"/><path opacity=".9" fill="#E6E6E6" d="M95.359 203.685H272.3v3.311H95.359z"/><path fill="none" stroke="#FFF" stroke-miterlimit="10" d="M90 218h434"/><path opacity=".5" fill="#B3B3B3" d="M95.359 228.188h405.335v4.263H95.359zm0 12.114h352.637v4.264H95.359z"/><path opacity=".9" fill="#E6E6E6" d="M95.359 255.615H272.3v3.311H95.359z"/><path fill="none" stroke="#FFF" stroke-miterlimit="10" d="M90 270h434"/><path opacity=".5" fill="#B3B3B3" d="M95.359 280.119h405.335v4.264H95.359zm0 12.114h352.637v4.263H95.359z"/><path opacity=".9" fill="#E6E6E6" d="M95.359 307.546H272.3v3.312H95.359z"/><path fill="none" stroke="#FFF" stroke-miterlimit="10" d="M90 322h434"/><path fill="none" stroke="#E6E6E6" stroke-miterlimit="10" d="M404.5 33h101v10h-101z"/><path fill="#E6E6E6" d="M500.694 35.5l-2.519 4.039-2.518-4.039zM92 35.5h170v7H92zm293 17h121v3H385z"/></svg>