<svg xmlns="http://www.w3.org/2000/svg" width="617" height="336" viewBox="0 0 617 336"><path fill="#F4F4F4" d="M-1.969-2.016H618v340.58H-1.969z"/><path fill="#FFF" d="M-2.462-1.139h619.971V44.56H-2.462zm155.068 56.908h314.168V336H152.606zm337.036 2.587h111.23v95.709h-111.23zM10.907 73.014h117.026v25.867H10.907z"/><ellipse fill="#E6E6E5" cx="586.61" cy="20.605" rx="9.148" ry="9.246"/><path opacity=".3" fill="#CDCCCC" d="M225.337 203.18H454v8.105H225.337zm0 11.052H454v8.109H225.337z"/><path fill="#CDCCCC" d="M225.634 187.697h106.959v9.584H225.634z"/><path opacity=".2" fill="#F47944" d="M168.596 181.803h42.066v43.488h-42.066z"/><path opacity=".3" fill="#CDCCCC" d="M225.337 260.652H454v8.107H225.337zm0 11.057H454v8.107H225.337z"/><path fill="#CDCCCC" d="M225.634 245.174h106.959v9.582H225.634z"/><path opacity=".2" fill="#F47944" d="M168.596 239.277h42.066v43.488h-42.066z"/><path opacity=".3" fill="#CDCCCC" d="M225.337 145.406H454v8.108H225.337zm0 11.055H454v8.11H225.337z"/><path fill="#CDCCCC" d="M225.634 133.594h106.959v9.583H225.634z"/><path opacity=".2" fill="#F47944" d="M168.596 124.031h42.066v43.487h-42.066z"/><path opacity=".3" fill="#CDCCCC" d="M225.337 88.553H454v8.107H225.337zm0 11.054H454v8.11H225.337zm275.279-12.299h90.868v4.752h-90.868zm0 9.946h90.868v4.754h-90.868zm0 9.163h90.868v4.752h-90.868z"/><path fill="#CDCCCC" d="M225.634 73.074h113.63v9.58h-113.63z"/><path opacity=".2" fill="#F47944" d="M168.596 67.176h42.066v43.489h-42.066z"/><path fill="#FFF" stroke="#E6E6E5" stroke-miterlimit="10" d="M52.308 11.937h200.597v16.634H52.308z"/><path d="M246.59 18.944c.379 2.175-1.063 4.249-3.22 4.631-2.153.383-4.208-1.077-4.582-3.253-.376-2.181 1.065-4.254 3.224-4.634 2.153-.381 4.204 1.074 4.578 3.256zm-1.195 3.618l3.079 3.398m342.241 35.024l7.085 7.325m-7.085 0l7.121-7.199" fill="none" stroke="#989898" stroke-miterlimit="10"/><path opacity=".3" fill="#CDCCCC" d="M225.337 314.4H454v8.107H225.337zm0 11.057H454v8.107H225.337z"/><path fill="#CDCCCC" d="M225.634 298.922h106.959v9.58H225.634z"/><path opacity=".2" fill="#F47944" d="M168.596 293.025h42.066v42.539h-42.066z"/><ellipse fill="#F47944" cx="25.301" cy="20.254" rx="14.394" ry="14.551"/><text transform="matrix(.9892 0 0 1 19.837 25.971)" fill="#FFF" font-family="'SourceSansPro-Bold'" font-size="16.471">H</text><path fill="#CDCCCC" d="M37.486 81.146h83.658v8.961H37.486zM11.988 57.725h29.266v4.619H11.988zm95.931.657h16.895v3.305h-16.895zM37.486 112.93h83.658v8.964H37.486zm463.13-44.103h62.139v8.493h-62.139zM514.979 125h62.14v17.338h-62.14zM37.486 143.713h83.658v8.963H37.486zm-.57 31.221h84.229v8.963H36.916zM18.667 78.188h14.658v14.658H18.667zm0 31.041h14.658v16.382H18.667zm0 31.903h14.658v15.521H18.667zm0 31.042h14.658v15.52H18.667zm18.249 33.969h84.229v8.961H36.916zm-18.249-2.928h14.658v16.381H18.667z"/><path fill="none" stroke="#E6E6E5" stroke-miterlimit="10" d="M-3.462 44.991h619.971"/><path fill="#E6E6E5" d="M544.955 13.519h13.796v14.658h-13.796zm-31.903 0h13.796v14.658h-13.796z"/><path opacity=".2" fill="#F47944" d="M210.467 110.961h-41.871V67.677zm0 56.456h-41.871v-43.285zm0 58.503h-41.871v-43.285zm0 56.746h-41.871v-43.287zm0 53.272h-41.871v-43.286z"/></svg>