<svg xmlns="http://www.w3.org/2000/svg" width="617" height="336" viewBox="0 0 617 336"><path fill="#FFF" d="M0-.321h615.064v335.967H0z"/><path fill="#CDCCCC" d="M60.743 14.366h165.488v9.594H60.743z"/><path opacity=".5" fill="#E6E6E5" d="M33.814 89.394h54.311v5.935H33.814zM12.57 63.33h161.359v5.933H12.57zm0 56.485h161.359v5.935H12.57zm72.229 30.702h14.168v2.966H84.799z"/><path opacity=".5" fill="#E6E6E5" d="M98.967 147.549h14.167v5.933H98.967zm14.168-8.716h14.167v14.649h-14.167z"/><path opacity=".5" fill="#E6E6E5" d="M127.301 141.83h14.167v11.652h-14.167z"/><path opacity=".5" fill="#E6E6E5" d="M141.177 144.227h14.168v9.255h-14.168zm14.168 4.628h14.167v4.627h-14.167zm14.167 2.273h14.167v2.394h-14.167z"/><path fill="#E6E6E5" d="M27.926 94.75c0 1.909-1.534 3.457-3.428 3.457h-4.92c-1.894 0-3.429-1.547-3.429-3.457v-4.958c0-1.91 1.535-3.454 3.429-3.454h4.92c1.893 0 3.428 1.544 3.428 3.454v4.958z"/><path opacity=".5" fill="#E6E6E5" d="M131.958 89.394h54.311v5.935h-54.311z"/><path fill="#E6E6E5" d="M126.07 94.75c0 1.909-1.536 3.457-3.429 3.457h-4.918c-1.894 0-3.429-1.547-3.429-3.457v-4.958c0-1.91 1.536-3.454 3.429-3.454h4.918c1.894 0 3.429 1.544 3.429 3.454v4.958z"/><path opacity=".5" fill="#E6E6E5" d="M229.345 89.394h54.311v5.935h-54.311z"/><path fill="#E6E6E5" d="M223.457 94.75c0 1.909-1.535 3.457-3.429 3.457h-4.919c-1.894 0-3.428-1.547-3.428-3.457v-4.958c0-1.91 1.535-3.454 3.428-3.454h4.919c1.894 0 3.429 1.544 3.429 3.454v4.958z"/><path fill="#E6E6E5" d="M16.301 151.76h261.311v1.765H16.301z" opacity=".5"/><path fill="#F4B0B0" d="M82.61 151.76h142.942v1.765H82.61z"/><ellipse fill="#F4B0B0" cx="22.037" cy="92.272" rx="2.855" ry="2.878"/><ellipse fill="#F4B0B0" cx="82.36" cy="152.51" rx="2.855" ry="2.876"/><ellipse fill="#F4B0B0" cx="225.942" cy="152.51" rx="2.855" ry="2.876"/><path fill="none" stroke="#B4B4B4" stroke-miterlimit="10" d="M53.471 40.141h240.905"/><path d="M279.953 16.04c.641 3.673-1.802 7.173-5.452 7.817-3.645.645-7.125-1.818-7.758-5.492-.637-3.682 1.804-7.181 5.459-7.822 3.644-.644 7.117 1.813 7.751 5.497zm-2.026 6.106l5.212 5.737" fill="none" stroke="#F4B0B0" stroke-width="2" stroke-miterlimit="10"/><path fill="#CDCCCC" d="M60.743 14.366h165.488v9.594H60.743z"/><path fill="#B4B4B4" d="M53.471 39.7h240.905v.882H53.471z"/><path fill="#F4B0B0" d="M273.336 24.841c-3.692 0-6.831-2.66-7.463-6.327-.717-4.151 2.052-8.117 6.176-8.841a7.457 7.457 0 0 1 1.315-.116c3.692 0 6.828 2.663 7.459 6.333.723 4.143-2.043 8.107-6.169 8.835a7.596 7.596 0 0 1-1.318.116zm.027-13.519c-.335 0-.676.03-1.009.089-3.168.556-5.295 3.608-4.743 6.803.486 2.817 2.893 4.862 5.724 4.862.336 0 .677-.03 1.011-.089 3.169-.559 5.294-3.607 4.737-6.796-.484-2.822-2.89-4.869-5.72-4.869z"/><path fill="#F4B0B0" d="M282.498 28.49l-5.211-5.736 1.306-1.187 5.211 5.737zM42.214 35.361v.001c-1.009 1.028-2.673.842-4.943-.551l-4.389-2.692c-2.956-1.808-7.929-1.78-10.858.065l-4.353 2.744c-2.207 1.389-3.848 1.614-4.877.667-1.032-.947-.964-2.614.203-4.955l9.943-19.989c1.187-2.397 3.05-3.632 4.937-3.339 1.5.229 2.859 1.396 3.824 3.285l10.19 19.872c1.168 2.273 1.276 3.92.323 4.892zm-27.586-1.797c.32-.078.877-.294 1.697-.81l4.351-2.744c3.778-2.377 9.718-2.413 13.525-.081l4.393 2.691c.823.504 1.382.714 1.703.789-.052-.328-.219-.904-.664-1.766L29.444 11.771c-.576-1.125-1.286-1.826-1.949-1.927-.759-.118-1.618.619-2.281 1.953L15.27 31.788c-.433.87-.595 1.449-.642 1.776z"/><path fill="none" d="M346.433 335.171l.523-.091h-.54zM300.516 23.487l-.182.033.182 1.224z"/><path fill="#EAEAEA" d="M460.659 170.369l39.757-6.981-4.444-30.973-39.837 7.223zm-7.632-33.182l-4.89-33.209-43.184 7.594 4.875 33.449zm-134.54 27.42l-17.91 3.254v30.623l22.357-3.926zm10.586 71.57l-28.496 5.06v27.877l32.543-5.666zm59.45 60.335l4.456 30.559 39.642-6.898-4.497-30.848zm13.751-184.469l-39.624 6.968 4.91 33.675 39.592-7.18zm-68.153 158.261l-33.544 5.845v33.319l38.322-6.958zm-21.087-142.561l-12.457 2.196v34.905l17.492-3.174zm10.317 69.754l-22.774 4.004v32.7l27.496-4.879zM617.979 34.879V4.306l-41.821 7.696 4.566 29.499zm-187.178 253.96l4.5 30.868 43.486-7.565-4.591-31.178zM577.92 41.977l-4.52-29.481-40.979 7.555 4.224 29.27zm-53.231 226.807l39.838-7.23-4.415-30.595-39.853 6.938zm-133.054-229.7l-4.537-31.123-39.599 7.101 4.541 31.159zm122.654 157.204l39.802-7.058-4.538-31.455-39.789 6.987zm-48.545 8.609l39.62-7.025-4.526-31.543-39.746 6.978zm-7.763-34.058l-4.521-30.715-43.202 7.835 4.444 30.479zm26.93 164.811h40.138l-3.915-27.581-39.237 6.972zm-69.78-154.273l4.619 31.678 43.317-7.682-4.652-31.596zM304.979 54.708l40.833-7.361-4.519-31.166-40.716 7.306v1.257zm166.865 191.618l4.594 31.213 39.332-7.137-4.441-30.95zm-46.074 8.02l4.6 31.554 43.394-7.876-4.598-31.233zm-5.021-34.433l4.022 27.573 43.384-7.552-4.08-27.704zm141.052 3.719l42.497-7.396-4.234-28.125-42.307 7.504zM539.045 84.975l-4.65-32.237-39.688 7.062 4.612 32.161zM372.204 228.524l-40.486 7.18 4.036 27.276 40.449-7.039zM597.317 77.743l-55.17 9.702.02.145zm-101.765 51.731l-4.737-33.001-40 7.034 4.886 33.194zm67.239 101.021l4.411 30.572 42.679-7.745-4.551-30.232zm-184.339-3.079l4.001 27.436 39.638-6.9-4.019-27.562zm126.019-99.56l39.722-7.203-4.722-32.736-39.73 6.985zm-14.077-34.325l-4.613-32.145-40.117 7.14 4.718 32.042zm18.95 68.289l39.783-6.986-4.508-31.241-39.725 7.203zm-61.639-60.781l-4.719-32.038-43.123 7.672 4.659 31.96zm-96.375-15.73l-40.782 7.256 4.697 31.768 40.73-7.163zm5.074 34.801l-40.725 7.163 5.017 33.91 40.618-7.365zm45.441-11.007l-4.659-31.952-39.611 7.047 4.646 31.873zm-40.101 47.654l-40.613 7.365 4.431 29.966 40.585-7.125zm4.832 33.145L326 197.028l4.705 31.819 40.5-7.183zm-29.809 79.936l4.761 32.185 40.324-7.317-4.651-31.906zM350.902 82.37l-4.677-32.083-40.842 7.362 4.729 31.978zm134.456-23.923l-4.647-32.401-40.233 7.252 4.753 32.289zm48.612-8.65l-4.224-29.253-39.624 7.307 4.162 29.008zm52.113 26.921l31.896-5.594v-33.23l-36.805 6.543zm-228.936 4.54l39.611-7.047-4.695-32.186-39.594 7.136zm-56.57-37.942v12.19l1.756-.315zm2.16 14.814l-2.16.395v32.809l6.905-1.23zM617 177.787l-15.306 2.601.12.398 16.165-2.857V74.138l-.979.159zM442.555 66.062l-4.753-32.281-43.061 7.761 4.694 32.191zm-34.975 82.382l-39.592 7.181 4.408 30.239 39.627-6.956zm69.292 132.035l4.594 31.195 39.246-6.828-4.522-31.504zm-93.422-18.767l4.645 31.861 39.6-7.186-4.604-31.576zm-75.548-168.67l-7.325 1.308v32.573l12.038-2.12zm217.21 178.682l4.529 31.566 39.908-6.942-4.598-31.856zm47.115 24.158l42.933-7.474-4.838-32.151-42.696 7.752zM412.452 181.848l-39.628 6.958 4.631 31.749 39.616-7.026zm54.3 29.907l4.081 27.713 39.511-6.878-3.995-27.856zm145.884 41.083l5.343-.956v-30.966l-9.848 1.707zm-5.576-37.069l10.919-1.887v-28.917l-15.114 2.674zm-47.936 8.33l-4.044-28.008-39.807 7.06 4 27.883zm37.523-77.905l-.139.023 1.791 11.899zM389.774 7.481l4.538 31.121 43.057-7.76-3.875-26.314 2.676-.474 3.874 26.304 40.245-7.253-3.364-23.454h-60.154l.431 2.91zm-50.455 298.252l-38.742 6.752v13.396l1.295 9.769h41.8zM501.682 15.656l-1.67-10.515 8.908-1.701 1.677 10.573 17.736-3.27-1.6-11.092h-40.656l2.64 18.396zm92.148 131.037l2.236-.404-2.471.401 5.028 34.073-41.63 7.773-7.041-46.996 6.816 47.215 42.267-7.498zM394.188-.349h-52.032l2.228 8.931zm-54.844 0h-38.767v16.798l41.145-7.384zm139.877 315.712l-43.492 7.71 1.813 12.577h44.623zm50.842-9.132l3.945 27.5 39.931-6.948-3.968-27.495zm-188.1-.984l4.453 30.403h.54l39.773-7.206-4.447-30.514zm273.721-13.9l-42.99 7.473 4.025 27.496 41.26-7.17v-13.099zM588.489-.349h-59.01l1.528 10.598zM543.572 335.65h31.565l-.773-5.357zm-150.167-5.64l.665 4.832-2.976.808h43.701l-1.744-12.251zm224.574-42.219v-32.892l-4.817.873zM583.321 77.189l-4.948-32.276-41.303 7.348 4.653 32.242zm-5.44 258.461h40.098v-13.488l-40.854 7.379zm-213.603 0h23.458l-.58-3.981z"/><path fill="#FFF" d="M300.577 335.65h1.295l-1.295-9.769zm40.708-319.469l-.516-3.439 1.768-.313-.81-3.364-41.15 7.384v7.038zm3.9-4.383l-1.308.394 3.124-.548.498 3.418 39.599-7.101-.501-3.434 2.678-.472.499 3.426 27.428-4.92-.431-2.91h-22.583l-49.804 8.931zm-1.513 323.852l.081.272 2.68-.322-.017.05zm-22.541-171.528l-2.674.485 4.43 29.951 2.675-.47zm-10.583-71.557l-2.677.477 4.697 31.761 2.677-.47zm-5.165-34.916l-2.676.481 4.729 31.974 2.676-.477zm-.404-2.941l-4.402-29.964v18.572l1.742 11.875zm29.111 215.596l4.762 32.206 2.676-.487-4.761-32.185zm-2.372-34.6l-2.677.473 4.033 27.271 2.68-.468zM326 197.028l-2.68.469 4.707 31.825 2.678-.475zm-10.321-69.755l-2.675.47 5.017 33.927 2.675-.487z"/><path fill="#FFF" d="M343.672 335.65h2.744l-4.453-30.403-2.675.63zm.712-327.068l-2.228-8.931h-2.812l2.347 9.414zm.801 3.216l-.801-3.216-2.693.483.837 3.364 1.349-.237zm27.639 177.008l-6.248 1.096 4.629 31.762 6.25-1.109zM352.04 46.221l-4.541-31.159-6.244 1.119 4.542 31.166zm10.61 72.79l-6.246 1.099 4.91 33.708 6.246-1.132zm5.338 36.614l-6.244 1.132 4.403 30.206 6.249-1.099zm25.417 174.385l-6.249 1.374.58 4.266h3.358l2.976-.808zm-4.882-33.498l-6.241 1.134 4.447 30.513 6.25-1.088zm-16.319-67.988l3.999 27.417 6.25-1.089-4.001-27.436zm-9.983-112.453l-4.646-31.873-6.245 1.111 4.645 31.861zm-5.074-34.813l-4.678-32.097-6.244 1.126 4.677 32.083zM377.201 262.8l4.651 31.906 6.243-1.133-4.645-31.861z"/><path fill="#FFF" d="M347.001 11.644l-3.124.548-1.309.394-.04-.157-1.775.313.502 3.439 6.244-1.119z"/><path fill="#FFF" d="M343.877 12.192l-1.349.237.04.157zm81.893 242.154l-2.679.465 4.604 31.576 2.675-.487zM399.435 73.733l-4.694-32.191-2.678.483 4.695 32.186zm13.017 108.115l4.619 31.681 2.679-.474-4.619-31.678zm-2.194-33.889l-2.678.485 4.443 30.464 2.679-.47zm25.471 174.973l-2.678.609 1.744 12.109h2.747zm-41.417-284.33l-4.538-31.121-2.676.48 4.537 31.123zm15.516 106.419l-4.875-33.449-2.679.471 4.878 33.463zm18.296 144.304l4.497 30.848 2.68-.466-4.5-30.868zm-10.052-68.935l4.019 27.562 2.68-.466-4.022-27.573zm-13.55-111.757l-4.659-31.96-2.677.478 4.659 31.952zM389.275 4.055l-2.678.472.501 3.434 2.676-.48zm61.107 96.513l-4.718-32.042-2.678.475 4.719 32.038zm8.033 73.209l4.652 31.596 2.677-.476-4.652-31.59zm18.457 106.702l-2.676.485 4.591 31.178 2.679-.468zm2.349 34.884l2.944 20.287h2.746l-3.014-20.609zm-18.562-144.994l-4.524-30.731-2.675.486 4.521 30.715zm-7.632-33.182l2.674-.486-4.886-33.194-2.678.471zM436.17 4.054l-2.676.474 3.875 26.314 2.675-.484zm9.061 61.533l-4.753-32.289-2.676.483 4.753 32.281zm23.935 181.204l4.598 31.233 2.674-.485-4.594-31.213zm-2.414-35.036l-2.677.475 4.08 27.704 2.678-.466zm43.592 20.835l8.929-1.556-4-27.883-8.924 1.583zm-9.928-69.202l8.928-1.568-4.45-31.024-8.922 1.619zm4.948 34.484l8.925-1.584-4.525-31.526-8.926 1.567zM484.737 22.303l-.526-3.425 4.506-.831-2.64-18.396h-9.152l3.364 23.454zm9.547 34.556l-4.162-29.008-4.412.813-.749-4.892.22 1.468-4.47.806 4.647 32.401zm-3.89 36.672l8.925-1.57-4.612-32.161-8.926 1.586zm29.865 144.366l-8.93 1.555 4.441 30.95 8.919-1.618zm-4.069 35.445l4.522 31.504 8.929-1.556-4.529-31.566zm-11.719-145.486l-4.73-32.954-8.926 1.571 4.737 33.001zm16.663 180.213l3.915 27.581h1.204l7.755-1.633-3.945-27.5z"/><path fill="#FFF" d="M529.746 20.544l-1.413-9.801-17.736 3.27.768 4.86-8.907 1.701-.776-4.918-12.965 2.391 1.405 9.804zm2.675-.493l40.979-7.555-1.219-7.958 2.675-.496 1.302 7.96 41.821-7.696V1.939l-.509-2.288h-28.981l-57.482 10.598z"/><path fill="#FFF" d="M484.961 23.703l.749 4.928 4.412-.797-1.405-9.795-4.506.765.526 3.363h.002zM508.92 3.44l-8.908 1.701 1.67 10.515 8.915-1.643zm2.445 15.433l-.768-4.86-8.915 1.643.776 4.918zm-30.654 7.173l-.422-2.941-40.245 7.253.434 2.94zm-42.909 7.735l-.433-2.939-43.057 7.76.429 2.94zm-91.577 16.506l-.428-2.94-40.85 7.361.436 2.941zm45.838-8.262l-.428-2.941-39.595 7.137.429 2.94zm-89.761 13.166l-1.725.315v3.019l2.177-.395z"/><path fill="#FFF" d="M302.707 58.13l2.676-.481-.436-2.941-2.674.483zm49.762-8.969l-.429-2.94-6.243 1.126.428 2.94zm39.594-7.136l2.678-.483-.429-2.94-2.677.482zm48.415-8.727l-.434-2.94-2.675.484.433 2.939zm44.703-8.058l-.22-1.468-.224-1.469-4.448.802.422 2.941z"/><path fill="#FFF" d="M484.739 22.301l-.002.002.224 1.469zm-87.553 54.85l-.428-2.94-39.611 7.047.428 2.94zm-46.284 5.219l-40.79 7.257.436 2.938 40.782-7.256zm92.084-13.369l-.431-2.939-43.12 7.671.428 2.94zm51.721-9.201l39.688-7.062-.425-2.941-39.686 7.062zm-8.926 1.586l-.423-2.939-40.127 7.14.433 2.939zm132.198-23.492v-3.015l-37.297 6.622.492 2.936zm-310.512 52.21l-6.89 1.23v3.016l7.341-1.308zm270.906-45.191l-.453-2.936-41.275 7.344.425 2.94z"/><path fill="#FFF" d="M310.112 89.627l-2.676.477.435 2.938 2.677-.477zm41.218-4.318l6.245-1.111-.428-2.94-6.245 1.112zm48.533-8.636l-.428-2.94-2.677.478.428 2.94zm45.801-8.147l-.433-2.939-2.676.475.431 2.939zm49.043-8.726l-.423-2.941-8.926 1.588.423 2.939zm44.764 28.117l-.426-2.942-39.726 6.986.422 2.941zm-88.656 15.59l40-7.034-.421-2.942-40.012 7.037zm-48.541 8.536l-.429-2.94-39.624 6.968.429 2.94zm-89.674 12.76l-12.023 2.12v3.016l12.474-2.196zm43.375-7.633l-40.73 7.163.434 2.94 40.725-7.163zm230.249-38.996l-2.674.494-.229-1.479-41.598 7.314.424 2.942 55.214-9.702L617 74.245v.052l.979-.159v-3.014l-31.896 5.594zm-138.087 25.804l-.432-2.939-43.183 7.594.431 2.939z"/><path fill="#FFF" d="M315.245 124.333l-2.677.47.436 2.94 2.675-.47zm46.976-8.262l-6.246 1.099.429 2.94 6.246-1.099zm42.732-4.499l-.431-2.939-2.677.47.429 2.94zm45.862-8.065l-.433-2.939-2.677.471.432 2.939zm48.926-8.605l-.422-2.941-8.925 1.57.421 2.942zM318.053 161.67l-17.476 3.174v3.017l17.926-3.254zm186.841-30.874l39.725-7.203-.426-2.94-39.722 7.203zm-97.742 14.71l-39.592 7.18.428 2.939 39.592-7.181zm-45.838 8.312l-40.618 7.365.435 2.939 40.613-7.365zm48.944-5.859l43.202-7.835-.433-2.937-43.199 7.834zm85.714-15.544l-.42-2.941-39.851 7.227.434 2.937z"/><path fill="#FFF" d="M320.696 161.183l-2.675.487.436 2.937 2.674-.485zm46.864-8.497l-6.246 1.132.43 2.939 6.244-1.132zm42.268-7.665l-2.676.485.428 2.938 2.678-.485zm46.307-5.383l-.434-2.937-2.674.486.433 2.937zm39.837-7.223l8.922-1.619-.423-2.94-8.919 1.618zm-34.88 40.892l39.746-6.978-.422-2.941-39.757 6.981zm-138.175 21.251l-22.34 3.926v3.017l22.789-4.004zm43.23-7.595l-40.585 7.125.438 2.94 40.576-7.126zm48.555-8.525l.429 2.939 43.284-7.6-.434-2.938zm-2.679.47l-39.627 6.956.428 2.942 39.628-6.958zm97.741-14.146l39.789-6.987-.426-2.941-39.783 6.986z"/><path fill="#FFF" d="M325.562 194.088l-2.675.47.433 2.939 2.68-.469zm46.834-8.224l-6.249 1.099.429 2.939 6.248-1.096zm42.306-7.426l-2.679.47.429 2.94 2.679-.471zm43.713-4.661l2.677-.47-.433-2.938-2.678.47zm42.423-7.448l8.926-1.567-.42-2.942-8.928 1.568zm4.526 31.543l-39.62 7.025 1.008 6.858 39.597-7.021zm-85.614 15.183l.999 6.858 43.326-7.683-1.008-6.857zm95.523-9.904l39.807-7.06-.989-6.861-39.802 7.058zm-137.818 17.404l.997 6.861 39.62-7.026-1.001-6.861zm222.609-32.444l-1.029-6.854-42.267 7.498.989 6.86zm2.76-.472l15.155-2.674v-7.036l-16.146 2.857zm-274.766 41.683l-27.481 4.879v7.036l28.513-5.06zm43.147-7.658l-40.5 7.183 1.013 6.857 40.486-7.18z"/><path fill="#FFF" d="M330.705 228.847l-2.678.475 1.014 6.855 2.677-.473zm46.75-8.292l-6.25 1.109.999 6.86 6.248-1.108zm39.616-7.026l1.001 6.861 2.677-.477-.999-6.858zm45.996-8.156l1.008 6.857 2.677-.475-1.008-6.858zm43.282-.639l8.924-1.583-.984-6.863-8.925 1.584zm12.924 26.3l.986 6.863 39.853-6.938-.988-6.86zm-48.44 8.434l1.011 6.858 39.485-6.874-.985-6.862zm91.958-8.973l42.539-7.405-1.032-6.854-42.497 7.396zM335.754 262.98l1.013 6.858 40.434-7.038-.998-6.859zm132.401-23.046l-43.384 7.552.999 6.86 43.396-7.555zm139.935-17.311l9.889-1.707v-7.034l-10.879 1.887zm-225.637 32.229l.997 6.86 39.641-6.901-1-6.859zm-49.348 8.596l-32.528 5.666v7.035l33.559-5.845z"/><path fill="#FFF" d="M335.754 262.98l-2.68.468 1.016 6.856 2.677-.466zm40.449-7.039l.998 6.859 6.249-1.088-.997-6.86zm45.888-7.989l1 6.859 2.679-.465-.999-6.86zm46.064-8.018l1.011 6.857 2.678-.465-1.011-6.858zm42.189-7.344l.985 6.862 8.93-1.555-.986-6.863zm102.734 23.182l4.901-.873v-3.017l-5.302.956zm-97.308 14.63l-39.332 7.137.434 2.94 39.318-7.137zm51.432-9.335l.424 2.942 42.696-7.752-.441-2.935zm-266.625 48.401v3.017l38.742-7.038-.42-2.937zm127.118-23.081l-39.6 7.186.428 2.939 39.601-7.187zm-86.167 15.636l.435 2.94 40.319-7.317-.43-2.94zm183.161-33.239l.423 2.94 39.839-7.232-.424-2.938zM430.37 285.9l.431 2.939 43.395-7.875-.432-2.94z"/><path fill="#FFF" d="M338.852 302.51l.436 2.937 2.675-.484-.435-2.94zm43-7.804l.43 2.94 6.241-1.134-.428-2.939zm45.843-8.319l.429 2.938 2.677-.486-.431-2.939zm46.069-8.363l.432 2.94 2.676-.485-.434-2.94zm42.006-7.622l.42 2.94 8.922-1.618-.423-2.94zm13.871 32.888l.422 2.941 39.908-6.943-.422-2.94zm-50.854 8.852l-43.486 7.565.428 2.939 43.492-7.566zm-85.808 14.929l.426 2.939 39.646-6.898-.43-2.939zm179.248-31.189l.422 2.938 42.954-7.473-.443-2.939zm-90.761 15.792l.431 2.939 39.237-6.828-.422-2.939zm-94.737 16.77l-39.773 7.206h17.322l22.878-4.124z"/><path fill="#FFF" d="M386.729 328.159l.427 2.941 6.249-1.09-.426-2.939zm45.892-7.986l.43 2.939 2.678-.466-.428-2.939zm48.845-8.499l-2.679.468.434 2.938 2.676-.467zm39.246-6.828l.422 2.939 8.929-1.554-.422-2.941zm53.227 21.937l-39.931 6.948.087.888-4.314 1.031h13.791l30.792-5.642zm2.761-.467l.466 2.939 40.813-7.093v-3.016z"/><path fill="#FFF" d="M529.781 335.65l4.314-1.031-.087-.461-7.755 1.492zm44.583-5.642l.773 5.642h2.744l-.84-5.968zm-4.393-30.72l3.968 27.495 2.678-.467-3.968-27.496zM531.007 10.249L529.479-.349h-2.746l1.6 11.092zm29.105 220.71l4.415 30.595 2.675-.487-4.411-30.572zM541.723 84.503l-4.653-32.242-2.675.477 4.65 32.237zm23.228 179.989l4.598 31.856 2.678-.466-4.601-31.873zm-3.15-40.86l-4.044-28.017-2.677.476 4.044 28.008zM533.97 49.797l2.675-.476-4.224-29.27-2.675.493zm10.223 70.856l1.602-.291.442 2.936-1.618.295 4.508 31.241 2.425-.426.43 2.94-2.429.427 4.538 31.455 2.677-.475-6.816-47.215-8.073-53.898.288-.052-.02-.145-2.676.472z"/><path fill="#FFF" d="M532.421 20.051l-1.414-9.802-2.674.494 1.413 9.801zm4.649 32.21l-.425-2.94-2.675.476.425 2.941zm2.401 35.656l2.676-.472-.424-2.942-2.678.472zm6.766 35.381l-.442-2.936-1.602.291.426 2.94zm5.745 34.05l-.43-2.94-2.425.426.426 2.941zm5.775 38.267l-.989-6.86-2.677.475.989 6.861zm1.367 28.484l.988 6.86 2.679-.464-.99-6.863zm5.827 40.393l2.675-.483-.424-2.942-2.675.487zm4.598 31.856l.422 2.94 2.678-.468-.422-2.938zm4.815 33.375l2.677-.468-.424-2.939-2.678.467zm6.237-288.222l-4.526-29.499-2.675.494 4.52 29.481zm5.398 35.217l-4.948-32.281-2.678.476 4.948 32.276z"/><path fill="#FFF" d="M574.856 4.042l-2.675.496 1.219 7.958 2.675-.494zm6.195 40.395l-.45-2.936-2.681.476.453 2.936zm2.499 34.231l2.674-.494-.225-1.456-2.678.471zM617.47-.349l.509 2.288V-.349zm.343 288.296l.024-.003-.024-.153zm-7.932-34.625l2.674-.484-4.548-30.215-2.677.467zm-11.582-95.206l-1.791-11.899-.442.072-2.236.404 5.205 34.564 2.675-.471-.059-.398-.258.044zm19.68 147.931v-15.085l-2.212.385zm-13.681-89.811l2.679-.467-4.235-28.13-2.678.472z"/><path fill="#FFF" d="M613.078 255.772l-2.715.485 4.901 32.151 2.715-.461v-.156zm-13.014-67.661l2.678-.472-1.032-6.853-2.675.471zm5.266 34.979l2.677-.467-1.03-6.854-2.679.467zm4.551 30.232l.441 2.935 2.674-.485-.441-2.934zm5.803 38.025l2.295-.385v-3.015l-2.696.461z"/><path fill="#EEE4D6" d="M549.952 141.54l7.041 46.996 41.63-7.773-5.028-34.073 2.43-.401.402-.081v.009l.177-.023 1.675 11.922 3.407 22.272L617 177.787V74.297l-19.639 3.446-55.172 9.847z"/><path fill="#EEE4D6" d="M617 74.245l-19.595 3.498L617 74.297zm-75.121 13.397l8.073 53.898-7.785-53.95zm59.514 92.79l.258-.044-3.352-22.272zm-4.887-34.224l-.44.081.442-.072z"/><path fill="#F58E90" d="M538.791 93.605c0 .441.018.8-.422.8h-38.684c-.439 0-.602-.359-.602-.8V73.147c0-.442.162-.8.602-.8h38.684c.439 0 .422.358.422.8v20.458z"/><path fill="#FEE84E" d="M529.772 89.144l1.332-4.061a.145.145 0 0 0-.062-.169l-3.166-1.923 4.981-5.021-1.332 4.06a.144.144 0 0 0 .062.168l3.167 1.926-4.982 5.02z"/><text transform="matrix(.9922 0 0 1 502.752 88.435)" fill="#FFF" font-family="'SourceSansPro-Semibold'" font-size="14.644">232</text><path fill="#F58E90" d="M524.404 93.524l-5.64 6.827-5.641-6.827zm-68.555 6.258c0 .442-.21.801-.647.801h-38.684c-.438 0-.375-.358-.375-.801V79.324c0-.442-.063-.801.375-.801h38.684c.438 0 .647.358.647.801v20.458z"/><path fill="#FEE84E" d="M446.468 95.329l1.332-4.061a.144.144 0 0 0-.062-.168l-3.167-1.924 4.98-5.021-1.33 4.06a.142.142 0 0 0 .062.169l3.166 1.925-4.981 5.02z"/><text transform="matrix(.9922 0 0 1 419.45 94.62)" fill="#FFF" font-family="'SourceSansPro-Semibold'" font-size="14.644">187</text><path fill="#F58E90" d="M441.1 99.701l-5.64 6.826-5.641-6.826zm45.631 38.023c0 .442-.45.8-.89.8h-38.684c-.439 0-1.015-.358-1.015-.8v-20.459c0-.442.576-.8 1.015-.8h38.684c.439 0 .89.358.89.8v20.459z"/><path fill="#FEE84E" d="M477.256 133.808l1.335-4.06a.15.15 0 0 0-.063-.17l-3.166-1.924 4.981-5.021-1.333 4.06a.145.145 0 0 0 .062.168l3.166 1.925-4.982 5.022z"/><text transform="matrix(.9922 0 0 1 450.237 133.1)" fill="#FFF" font-family="'SourceSansPro-Semibold'" font-size="14.644">156</text><path fill="#F58E90" d="M471.89 138.524l-5.642 6.827-5.64-6.827zm66.901-44.919c0 .441.018.8-.422.8h-38.684c-.439 0-.602-.359-.602-.8V73.147c0-.442.162-.8.602-.8h38.684c.439 0 .422.358.422.8v20.458z"/><path fill="#FEE84E" d="M529.772 89.144l1.332-4.061a.145.145 0 0 0-.062-.169l-3.166-1.923 4.981-5.021-1.332 4.06a.144.144 0 0 0 .062.168l3.167 1.926-4.982 5.02z"/><path d="M503.305 87.454c2.572-2.505 4.185-4.145 4.185-5.567 0-.98-.539-1.611-1.527-1.611-.711 0-1.307.483-1.801 1.04l-.931-.937c.843-.908 1.686-1.436 2.95-1.436 1.771 0 2.921 1.128 2.921 2.856 0 1.655-1.526 3.355-3.357 5.303.479-.044 1.09-.103 1.54-.103h2.267v1.436h-6.247v-.981zm8.049-1.246c.552.571 1.264 1.025 2.192 1.025 1.003 0 1.7-.528 1.7-1.407 0-.967-.609-1.582-2.717-1.582v-1.231c1.816 0 2.411-.63 2.411-1.494 0-.776-.523-1.245-1.366-1.245-.726 0-1.293.351-1.858.878l-.857-1.04c.785-.704 1.671-1.172 2.776-1.172 1.771 0 2.992.879 2.992 2.461 0 1.04-.609 1.743-1.612 2.139v.06c1.09.293 1.918 1.084 1.918 2.314 0 1.7-1.467 2.696-3.24 2.696-1.496 0-2.484-.586-3.138-1.318l.799-1.084zm6.857 1.246c2.572-2.505 4.184-4.145 4.184-5.567 0-.98-.537-1.611-1.525-1.611-.712 0-1.307.483-1.802 1.04l-.93-.937c.843-.908 1.685-1.436 2.95-1.436 1.772 0 2.92 1.128 2.92 2.856 0 1.655-1.525 3.355-3.356 5.303.479-.044 1.089-.103 1.54-.103h2.266v1.436h-6.247v-.981z" fill="#FFF"/><path fill="#F58E90" d="M524.404 93.524l-5.64 6.827-5.641-6.827zm-68.555 6.258c0 .442-.21.801-.647.801h-38.684c-.438 0-.375-.358-.375-.801V79.324c0-.442-.063-.801.375-.801h38.684c.438 0 .647.358.647.801v20.458z"/><path fill="#FEE84E" d="M446.468 95.329l1.332-4.061a.144.144 0 0 0-.062-.168l-3.167-1.924 4.98-5.021-1.33 4.06a.142.142 0 0 0 .062.169l3.166 1.925-4.981 5.02z"/><path d="M420.523 93.244h2.062v-6.123h-1.699v-1.055c.915-.175 1.555-.41 2.136-.761h1.249v7.94h1.816v1.377h-5.564v-1.378zm8.645-3.399v-.058c-.712-.513-1.278-1.201-1.278-2.183 0-1.509 1.19-2.476 2.79-2.476 1.656 0 2.715 1.011 2.715 2.519 0 .923-.638 1.7-1.233 2.139v.058c.857.483 1.598 1.172 1.598 2.417 0 1.436-1.249 2.534-3.123 2.534-1.802 0-3.139-1.054-3.139-2.563-.001-1.156.798-1.919 1.67-2.387zm1.496 3.75c.885 0 1.525-.528 1.525-1.392 0-1.011-.975-1.377-2.223-1.89-.582.424-1.003 1.025-1.003 1.744.001.922.756 1.538 1.701 1.538zm1.352-5.845c0-.821-.508-1.421-1.365-1.421-.714 0-1.265.469-1.265 1.274 0 .937.828 1.347 1.859 1.757.494-.497.771-1.024.771-1.61zm7.351-1.025h-4.372v-1.421h6.202v1.025c-2.165 2.71-2.542 4.658-2.702 8.291h-1.698c.159-3.311.783-5.391 2.57-7.895z" fill="#FFF"/><path fill="#F58E90" d="M441.1 99.701l-5.64 6.826-5.641-6.826zm45.631 38.023c0 .442-.45.8-.89.8h-38.684c-.439 0-1.015-.358-1.015-.8v-20.459c0-.442.576-.8 1.015-.8h38.684c.439 0 .89.358.89.8v20.459z"/><path fill="#FEE84E" d="M477.256 133.808l1.335-4.06a.15.15 0 0 0-.063-.17l-3.166-1.924 4.981-5.021-1.333 4.06a.145.145 0 0 0 .062.168l3.166 1.925-4.982 5.022z"/><path d="M451.312 131.723h2.062V125.6h-1.699v-1.054c.914-.176 1.554-.411 2.135-.762h1.249v7.939h1.816v1.377h-5.563v-1.377zm7.497-.821c.552.528 1.234.997 2.164.997 1.031 0 1.787-.659 1.787-1.787 0-1.113-.683-1.744-1.699-1.744-.596 0-.93.162-1.482.528l-.799-.513.276-4.6h4.939v1.42h-3.487l-.188 2.256c.393-.19.741-.308 1.221-.308 1.583 0 2.905.908 2.905 2.916 0 2.037-1.555 3.208-3.255 3.208-1.496 0-2.469-.601-3.152-1.29l.77-1.083zm12.175-5.214a1.987 1.987 0 0 0-1.467-.704c-1.163 0-2.106.864-2.18 3.442.538-.688 1.337-1.099 2.005-1.099 1.599 0 2.702.938 2.702 2.886 0 1.86-1.321 3.062-2.904 3.062-1.817 0-3.356-1.421-3.356-4.555 0-3.619 1.743-5.113 3.632-5.113 1.12 0 1.917.468 2.47 1.054l-.902 1.027zm-.495 4.526c0-1.099-.536-1.655-1.451-1.655-.523 0-1.133.293-1.656 1.069.174 1.656.827 2.358 1.729 2.358.769.001 1.378-.629 1.378-1.772z" fill="#FFF"/><path fill="#F58E90" d="M471.89 138.524l-5.642 6.827-5.64-6.827z"/><path opacity=".4" fill="#F4B0B0" d="M17.01 173.876h121.252v66.528H17.01zm139.802 0h121.25v66.528h-121.25zM17.01 263.161h121.252v66.528H17.01z"/><path opacity=".4" fill="#F4B0B0" d="M138.407 330.094H17.157v-66.53zm0-90.19H17.157v-66.528zm139.66 90.19H156.815v-66.53zm0-90.19H156.815v-66.528z"/><path opacity=".4" fill="#F4B0B0" d="M156.812 263.161h121.25v66.528h-121.25z"/></svg>